<?xml version="1.0" encoding="UTF-8" standalone="no"?>
<!-- Created with Inkscape (http://www.inkscape.org/) -->

<svg
   xmlns:dc="http://purl.org/dc/elements/1.1/"
   xmlns:cc="http://creativecommons.org/ns#"
   xmlns:rdf="http://www.w3.org/1999/02/22-rdf-syntax-ns#"
   xmlns:svg="http://www.w3.org/2000/svg"
   xmlns="http://www.w3.org/2000/svg"
   xmlns:sodipodi="http://sodipodi.sourceforge.net/DTD/sodipodi-0.dtd"
   xmlns:inkscape="http://www.inkscape.org/namespaces/inkscape"
   width="106.72974mm"
   height="147.55864mm"
   viewBox="0 0 378.17623 522.84558"
   id="svg2"
   version="1.1"
   inkscape:version="0.91 r13725"
   sodipodi:docname="fibra_optica.svg">
  <sodipodi:namedview
     id="base"
     pagecolor="#ffffff"
     bordercolor="#666666"
     borderopacity="1.0"
     inkscape:pageopacity="0.0"
     inkscape:pageshadow="2"
     inkscape:zoom="1.2645108"
     inkscape:cx="255.34149"
     inkscape:cy="248.66196"
     inkscape:document-units="px"
     inkscape:current-layer="layer1"
     showgrid="false"
     fit-margin-top="5"
     fit-margin-left="5"
     fit-margin-right="5"
     fit-margin-bottom="5"
     inkscape:window-width="1366"
     inkscape:window-height="744"
     inkscape:window-x="1366"
     inkscape:window-y="24"
     inkscape:window-maximized="1"
     inkscape:object-nodes="true"
     inkscape:snap-nodes="false" />
  <defs
     id="defs4">
    <marker
       inkscape:stockid="Arrow1Mend"
       orient="auto"
       refY="0"
       refX="0"
       id="Arrow1Mend"
       style="overflow:visible"
       inkscape:isstock="true">
      <path
         id="path4366"
         d="M 0,0 5,-5 -12.5,0 5,5 0,0 Z"
         style="fill:#ff0000;fill-opacity:1;fill-rule:evenodd;stroke:#ff0000;stroke-width:1pt;stroke-opacity:1"
         transform="matrix(-0.4,0,0,-0.4,-4,0)"
         inkscape:connector-curvature="0" />
    </marker>
    <inkscape:path-effect
       effect="spiro"
       id="path-effect4333"
       is_visible="true" />
    <inkscape:path-effect
       effect="spiro"
       id="path-effect4329"
       is_visible="true" />
    <inkscape:path-effect
       effect="spiro"
       id="path-effect4325"
       is_visible="true" />
    <inkscape:path-effect
       effect="spiro"
       id="path-effect4321"
       is_visible="true" />
    <inkscape:path-effect
       effect="spiro"
       id="path-effect4317"
       is_visible="true" />
    <inkscape:path-effect
       effect="spiro"
       id="path-effect4313"
       is_visible="true" />
    <inkscape:path-effect
       effect="spiro"
       id="path-effect4309"
       is_visible="true" />
  </defs>
  <metadata
     id="metadata7">
    <rdf:RDF>
      <cc:Work
         rdf:about="">
        <dc:format>image/svg+xml</dc:format>
        <dc:type
           rdf:resource="http://purl.org/dc/dcmitype/StillImage" />
        <dc:title></dc:title>
      </cc:Work>
    </rdf:RDF>
  </metadata>
  <g
     transform="translate(193.01086,-29.536446)"
     id="layer1"
     inkscape:groupmode="layer"
     inkscape:label="Capa 1">
    <g
       id="g4717"
       transform="matrix(0.96306897,0.26925483,-0.26925483,0.96306897,79.551525,13.842627)">
      <path
         sodipodi:nodetypes="cccccc"
         inkscape:connector-curvature="0"
         id="path4335"
         d="m -184.20499,136.72396 c 36.64131,13.70754 40.85901,15.55279 60.10229,41.12262 22.40656,29.78754 13.97115,49.29443 36.377712,77.50033 24.251802,36.11409 50.876064,35.05967 70.382948,70.38294 15.28918,34.53246 16.3436062,65.11082 45.86754,103.59738 27.151473,27.15147 89.09901,45.60393 131.27606,59.31147"
         style="fill:none;fill-rule:evenodd;stroke:#000080;stroke-width:17.29999924;stroke-linecap:butt;stroke-linejoin:miter;stroke-miterlimit:4;stroke-dasharray:none;stroke-opacity:1" />
      <path
         style="fill:none;fill-rule:evenodd;stroke:#000080;stroke-width:15.89999962;stroke-linecap:butt;stroke-linejoin:miter;stroke-miterlimit:4;stroke-dasharray:none;stroke-opacity:1"
         d="m -157.74598,86.769862 c 36.64132,13.707548 69.328525,28.205908 88.571805,53.775738 22.40656,29.78754 13.97115,49.29443 36.377712,77.50033 24.2518018,36.11409 50.876064,35.05967 70.382948,70.38294 15.28918,34.53246 16.343606,65.11082 45.86754,103.59738 27.151465,27.15147 57.466215,22.67016 100.434085,45.86754"
         id="path4337"
         inkscape:connector-curvature="0"
         sodipodi:nodetypes="cccccc" />
      <ellipse
         transform="matrix(0.90304808,0.42953949,-0.44123968,0.89738929,0,0)"
         ry="20.421974"
         rx="6.4917355"
         cy="174.02351"
         cx="-102.33818"
         id="path4347"
         style="opacity:1;fill:none;fill-opacity:1;stroke:#000080;stroke-width:1.36363888;stroke-miterlimit:4;stroke-dasharray:none;stroke-dashoffset:0" />
      <ellipse
         style="opacity:1;fill:none;fill-opacity:1;stroke:#000080;stroke-width:1.36363888;stroke-miterlimit:4;stroke-dasharray:none;stroke-dashoffset:0"
         id="ellipse4349"
         cx="356.73123"
         cy="344.67929"
         rx="6.4917355"
         ry="20.421974"
         transform="matrix(0.90304808,0.42953949,-0.44123968,0.89738929,0,0)" />
      <path
         inkscape:connector-curvature="0"
         id="path4351"
         d="m -217.41941,114.58101 119.413762,9.48983 20.56131,130.48525 86.990167,13.44393 -4.744918,98.06164 71.964588,30.84196 41.913441,68.01049 98.06164,-2.37246"
         style="fill:none;fill-rule:evenodd;stroke:#ff0000;stroke-width:2;stroke-linecap:butt;stroke-linejoin:miter;stroke-miterlimit:4;stroke-dasharray:none;stroke-opacity:1;marker-start:url(#Arrow1Mend);marker-end:url(#Arrow1Mend)" />
      <path
         inkscape:connector-curvature="0"
         id="path4712"
         d="m -186.636,144.54606 c -1.19664,-0.4835 -2.4529,-2.22506 -2.96647,-4.11245 -0.73438,-2.69886 -0.19659,-9.67117 1.14734,-14.8751 2.51676,-9.74529 7.83711,-21.43039 13.95266,-30.644264 6.18499,-9.318509 13.64024,-16.01255 17.83476,-16.013786 0.82097,-2.41e-4 2.36544,0.885593 2.28927,1.313014 -0.007,0.03883 -1.1479,3.273428 -2.53551,7.187986 l -2.52293,7.117377 -1.42098,-0.116266 c -2.04673,-0.167465 -3.85562,0.850612 -6.46218,3.637039 -5.38411,5.75562 -10.41443,15.68897 -12.16905,24.03014 -0.72854,3.46334 -0.72986,5.12871 -0.005,6.86244 0.44682,1.06939 0.8007,1.37123 1.60763,1.37123 1.20258,0 2.39647,-0.55659 3.65696,-1.70489 1.78296,-1.62426 1.71487,-0.23737 -0.28799,5.86637 -2.18208,6.64991 -2.62684,7.24804 -6.93347,9.32429 -2.42289,1.16808 -3.70396,1.3551 -5.18457,0.75687 z m 6.90456,-2.50976 c 2.3797,-1.62598 2.74002,-2.04696 3.3294,-3.88999 0.36349,-1.13668 0.59488,-2.13272 0.51418,-2.21342 -0.0807,-0.0807 -0.36937,0.53246 -0.64149,1.36257 -0.27213,0.8301 -0.76176,1.9197 -1.08808,2.42133 -0.61274,0.94193 -3.7343,3.2642 -4.55551,3.38904 -0.2556,0.0389 -0.64265,0.17788 -0.86013,0.30894 -0.81199,0.48933 -3.47022,0.004 -4.25045,-0.77655 -0.43792,-0.43792 -1.0277,-1.65754 -1.31062,-2.71026 -0.32177,-1.19726 -0.52115,-1.54385 -0.53241,-0.92552 -0.0242,1.33023 1.29722,4.16159 2.2007,4.71525 1.50853,0.92445 4.35385,0.25948 7.19441,-1.68139 z m -9.55333,-6.4937 c -0.0995,-0.38058 -0.18083,-0.0692 -0.18083,0.69197 0,0.76117 0.0814,1.07255 0.18083,0.69197 0.0995,-0.38058 0.0995,-1.00335 0,-1.38394 z m 15.37719,-5.53762 c -0.25516,-0.25517 -1.81041,0.68187 -1.81041,1.09077 0,0.203 0.2669,0.26666 0.59312,0.14149 0.32621,-0.12519 0.59311,-0.14197 0.59311,-0.0373 0,0.10466 -0.2669,0.94678 -0.59311,1.87136 -0.32622,0.92459 -0.57987,1.88112 -0.56369,2.12562 0.0162,0.2445 0.45977,-0.78743 0.98572,-2.29318 0.52596,-1.50574 0.88383,-2.81019 0.79526,-2.89875 l 0,-2e-5 z m -14.70693,2.27549 c 0.33191,-2.64741 0.64958,-4.47452 0.89372,-5.14033 0.11962,-0.32621 0.3063,-1.12353 0.41484,-1.77181 0.27754,-1.65766 2.49418,-8.20994 2.97887,-8.8054 0.22127,-0.27184 0.29831,-0.49426 0.17119,-0.49426 -0.31508,0 1.98844,-5.31872 4.26297,-9.84297 5.81949,-11.575517 14.55249,-22.637217 19.86003,-25.15581 1.86763,-0.886247 4.65545,-1.223737 4.39991,-0.532646 -0.10934,0.295712 -0.60439,1.783199 -1.10011,3.305527 -0.49572,1.522328 -1.07735,2.990287 -1.2925,3.262131 -0.26032,0.328899 -0.25453,0.494263 0.0173,0.494263 0.48165,0 2.92928,-7.067219 2.6206,-7.566668 -0.35589,-0.575851 -2.64845,-0.363569 -4.3162,0.399663 -9.25058,4.233445 -23.26569,26.65112 -27.901,44.62866 -0.65528,2.54141 -1.29858,5.69482 -1.42957,7.00758 -0.27221,2.72814 0.0821,2.90706 0.41995,0.21207 z m 12.31387,-1.10986 c -0.12174,-0.12174 -0.4408,-2.5e-4 -0.70902,0.26998 -0.38761,0.39051 -0.34219,0.43593 0.22135,0.22135 0.38996,-0.14849 0.60941,-0.36959 0.48767,-0.49133 z m -2.97604,-0.22566 c 0,-0.0821 -0.31138,-0.39349 -0.69196,-0.69196 -0.62715,-0.49184 -0.64113,-0.47786 -0.14929,0.14929 0.51655,0.65865 0.84125,0.86811 0.84125,0.54267 z m -1.69383,-6.07841 c -0.0906,-0.59806 -0.16473,-0.10874 -0.16473,1.08738 0,1.19611 0.0741,1.68543 0.16473,1.08737 0.0906,-0.59805 0.0906,-1.57669 0,-2.17475 z m 0.43124,-3.07489 c -0.12174,-0.12174 -0.34284,0.0977 -0.49133,0.48767 -0.21458,0.56354 -0.16916,0.60896 0.22135,0.22135 0.27023,-0.26822 0.39172,-0.58728 0.26998,-0.70902 z m 0.39541,-1.97705 c -0.12174,-0.12174 -0.34284,0.0977 -0.49133,0.48767 -0.21458,0.56354 -0.16916,0.60896 0.22135,0.22135 0.27023,-0.26822 0.39172,-0.58728 0.26998,-0.70902 z m 0.47177,-0.97806 c 0,-0.21748 -0.0785,-0.39541 -0.17437,-0.39541 -0.0959,0 -0.28433,0.17793 -0.41874,0.39541 -0.13441,0.21747 -0.0559,0.39541 0.17437,0.39541 0.23031,0 0.41874,-0.17794 0.41874,-0.39541 z m 1.56953,-4.94262 c 0,-0.21748 -0.17248,-0.12851 -0.3833,0.1977 -0.21081,0.32621 -0.3833,0.77105 -0.3833,0.98853 0,0.21747 0.17249,0.1285 0.3833,-0.19771 0.21082,-0.32621 0.3833,-0.77105 0.3833,-0.98852 z m 3.76851,-7.7105 c 0.33738,-0.65242 0.52445,-1.18622 0.41571,-1.18622 -0.10873,0 -0.47374,0.5338 -0.81112,1.18622 -0.33739,0.65243 -0.52446,1.18623 -0.41572,1.18623 0.10874,0 0.47374,-0.5338 0.81113,-1.18623 z m 2.33596,-3.85524 c 0.80268,-1.25048 1.04578,-1.78702 0.54024,-1.1923 -0.99803,1.17407 -2.4288,3.46591 -2.16372,3.46591 0.0902,0 0.82081,-1.02313 1.62348,-2.27361 z m 2.60666,-3.459835 c 0.51077,-0.543689 0.8397,-0.988525 0.73097,-0.988525 -0.10874,0 -0.61561,0.444836 -1.12638,0.988525 -0.51077,0.543688 -0.8397,0.988524 -0.73097,0.988524 0.10874,0 0.61561,-0.444836 1.12638,-0.988524 z m 4.34951,-4.460167 c 0,-0.283003 -2.19685,1.43465 -2.96558,2.318699 -0.43495,0.500202 0.0544,0.214825 1.08738,-0.634172 1.03301,-0.848996 1.8782,-1.607033 1.8782,-1.684527 z m 6.07514,-3.020822 c 0.35449,-1.069888 0.57577,-2.014002 0.49174,-2.09803 -0.084,-0.08403 -0.52887,0.960901 -0.98855,2.322066 -0.45967,1.361164 -0.68095,2.305277 -0.49174,2.09803 0.18922,-0.207248 0.63407,-1.252178 0.98855,-2.322066 z m 1.04223,-2.997372 c 0,-0.217475 -0.0785,-0.39541 -0.17436,-0.39541 -0.0959,0 -0.28434,0.177935 -0.41875,0.39541 -0.13441,0.217476 -0.0559,0.39541 0.17437,0.39541 0.23031,0 0.41874,-0.177934 0.41874,-0.39541 z"
         style="opacity:1;fill:#000080;fill-opacity:1;stroke:#000080;stroke-width:0.42941505;stroke-miterlimit:4;stroke-dasharray:none;stroke-dashoffset:0" />
      <path
         style="opacity:1;fill:#000080;fill-opacity:1;stroke:#000080;stroke-width:0.42941505;stroke-miterlimit:4;stroke-dasharray:none;stroke-dashoffset:0"
         d="m 187.1659,430.1186 c 1.19664,0.4835 2.4529,2.22506 2.96647,4.11245 0.73438,2.69886 0.19659,9.67117 -1.14734,14.8751 -2.51676,9.74529 -7.83711,21.43039 -13.95266,30.64427 -6.18499,9.31851 -13.64024,16.01255 -17.83476,16.01378 -0.82097,2.4e-4 -2.36544,-0.88559 -2.28927,-1.31301 0.007,-0.0388 1.1479,-3.27343 2.53551,-7.18799 l 2.52293,-7.11737 1.42098,0.11626 c 2.04673,0.16747 3.85562,-0.85061 6.46218,-3.63704 5.38411,-5.75562 10.41443,-15.68897 12.16905,-24.03014 0.72854,-3.46334 0.72986,-5.12871 0.005,-6.86244 -0.44682,-1.06939 -0.8007,-1.37123 -1.60763,-1.37123 -1.20258,0 -2.39647,0.55659 -3.65696,1.70489 -1.78296,1.62426 -1.71487,0.23737 0.28799,-5.86637 2.18208,-6.64991 2.62684,-7.24804 6.93347,-9.32429 2.42289,-1.16808 3.70396,-1.3551 5.18457,-0.75687 z m -6.90456,2.50976 c -2.3797,1.62598 -2.74002,2.04696 -3.3294,3.88999 -0.36349,1.13668 -0.59488,2.13272 -0.51418,2.21342 0.0807,0.0807 0.36937,-0.53246 0.64149,-1.36257 0.27213,-0.8301 0.76176,-1.9197 1.08808,-2.42133 0.61274,-0.94193 3.7343,-3.2642 4.55551,-3.38904 0.2556,-0.0389 0.64265,-0.17788 0.86013,-0.30894 0.81199,-0.48933 3.47022,-0.004 4.25045,0.77655 0.43792,0.43792 1.0277,1.65754 1.31062,2.71026 0.32177,1.19726 0.52115,1.54385 0.53241,0.92552 0.0242,-1.33023 -1.29722,-4.16159 -2.2007,-4.71525 -1.50853,-0.92445 -4.35385,-0.25948 -7.19441,1.68139 z m 9.55333,6.4937 c 0.0995,0.38058 0.18083,0.0692 0.18083,-0.69197 0,-0.76117 -0.0814,-1.07255 -0.18083,-0.69197 -0.0995,0.38058 -0.0995,1.00335 0,1.38394 z m -15.37719,5.53762 c 0.25516,0.25517 1.81041,-0.68187 1.81041,-1.09077 0,-0.203 -0.2669,-0.26666 -0.59312,-0.14149 -0.32621,0.12519 -0.59311,0.14197 -0.59311,0.0373 0,-0.10466 0.2669,-0.94678 0.59311,-1.87136 0.32622,-0.92459 0.57987,-1.88112 0.56369,-2.12562 -0.0162,-0.2445 -0.45977,0.78743 -0.98572,2.29318 -0.52596,1.50574 -0.88383,2.81019 -0.79526,2.89875 l 0,2e-5 z m 14.70693,-2.27549 c -0.33191,2.64741 -0.64958,4.47452 -0.89372,5.14033 -0.11962,0.32621 -0.3063,1.12353 -0.41484,1.77181 -0.27754,1.65766 -2.49418,8.20994 -2.97887,8.8054 -0.22127,0.27184 -0.29831,0.49426 -0.17119,0.49426 0.31508,0 -1.98844,5.31872 -4.26297,9.84297 -5.81949,11.57552 -14.55249,22.63722 -19.86003,25.15581 -1.86763,0.88625 -4.65545,1.22374 -4.39991,0.53265 0.10934,-0.29571 0.60439,-1.7832 1.10011,-3.30553 0.49572,-1.52233 1.07735,-2.99028 1.2925,-3.26213 0.26032,-0.3289 0.25453,-0.49426 -0.0173,-0.49426 -0.48165,0 -2.92928,7.06722 -2.6206,7.56667 0.35589,0.57585 2.64845,0.36357 4.3162,-0.39967 9.25058,-4.23344 23.26569,-26.65112 27.901,-44.62866 0.65528,-2.54141 1.29858,-5.69482 1.42957,-7.00758 0.27221,-2.72814 -0.0821,-2.90706 -0.41995,-0.21207 z m -12.31387,1.10986 c 0.12174,0.12174 0.4408,2.5e-4 0.70902,-0.26998 0.38761,-0.39051 0.34219,-0.43593 -0.22135,-0.22135 -0.38996,0.14849 -0.60941,0.36959 -0.48767,0.49133 z m 2.97604,0.22566 c 0,0.0821 0.31138,0.39349 0.69196,0.69196 0.62715,0.49184 0.64113,0.47786 0.14929,-0.14929 -0.51655,-0.65865 -0.84125,-0.86811 -0.84125,-0.54267 z m 1.69383,6.07841 c 0.0906,0.59806 0.16473,0.10874 0.16473,-1.08738 0,-1.19611 -0.0741,-1.68543 -0.16473,-1.08737 -0.0906,0.59805 -0.0906,1.57669 0,2.17475 z m -0.43124,3.07489 c 0.12174,0.12174 0.34284,-0.0977 0.49133,-0.48767 0.21458,-0.56354 0.16916,-0.60896 -0.22135,-0.22135 -0.27023,0.26822 -0.39172,0.58728 -0.26998,0.70902 z m -0.39541,1.97705 c 0.12174,0.12174 0.34284,-0.0977 0.49133,-0.48767 0.21458,-0.56354 0.16916,-0.60896 -0.22135,-0.22135 -0.27023,0.26822 -0.39172,0.58728 -0.26998,0.70902 z m -0.47177,0.97806 c 0,0.21748 0.0785,0.39541 0.17437,0.39541 0.0959,0 0.28433,-0.17793 0.41874,-0.39541 0.13441,-0.21747 0.0559,-0.39541 -0.17437,-0.39541 -0.23031,0 -0.41874,0.17794 -0.41874,0.39541 z m -1.56953,4.94262 c 0,0.21748 0.17248,0.12851 0.3833,-0.1977 0.21081,-0.32621 0.3833,-0.77105 0.3833,-0.98853 0,-0.21747 -0.17249,-0.1285 -0.3833,0.19771 -0.21082,0.32621 -0.3833,0.77105 -0.3833,0.98852 z m -3.76851,7.7105 c -0.33738,0.65242 -0.52445,1.18622 -0.41571,1.18622 0.10873,0 0.47374,-0.5338 0.81112,-1.18622 0.33739,-0.65243 0.52446,-1.18623 0.41572,-1.18623 -0.10874,0 -0.47374,0.5338 -0.81113,1.18623 z m -2.33596,3.85524 c -0.80268,1.25048 -1.04578,1.78702 -0.54024,1.1923 0.99803,-1.17407 2.4288,-3.46591 2.16372,-3.46591 -0.0902,0 -0.82081,1.02313 -1.62348,2.27361 z m -2.60666,3.45984 c -0.51077,0.54369 -0.8397,0.98852 -0.73097,0.98852 0.10874,0 0.61561,-0.44483 1.12638,-0.98852 0.51077,-0.54369 0.8397,-0.98853 0.73097,-0.98853 -0.10874,0 -0.61561,0.44484 -1.12638,0.98853 z m -4.34951,4.46017 c 0,0.283 2.19685,-1.43465 2.96558,-2.3187 0.43495,-0.50021 -0.0544,-0.21483 -1.08738,0.63417 -1.03301,0.84899 -1.8782,1.60703 -1.8782,1.68453 z m -6.07514,3.02082 c -0.35449,1.06989 -0.57577,2.014 -0.49174,2.09803 0.084,0.084 0.52887,-0.9609 0.98855,-2.32207 0.45967,-1.36116 0.68095,-2.30528 0.49174,-2.09803 -0.18922,0.20725 -0.63407,1.25218 -0.98855,2.32207 z m -1.04223,2.99737 c 0,0.21747 0.0785,0.39541 0.17436,0.39541 0.0959,0 0.28434,-0.17794 0.41875,-0.39541 0.13441,-0.21748 0.0559,-0.39541 -0.17437,-0.39541 -0.23031,0 -0.41874,0.17793 -0.41874,0.39541 z"
         id="path4715"
         inkscape:connector-curvature="0" />
    </g>
  </g>
</svg>
