<?xml version="1.0" encoding="UTF-8" standalone="no"?>
<!-- Created with Inkscape (http://www.inkscape.org/) -->

<svg
   xmlns:dc="http://purl.org/dc/elements/1.1/"
   xmlns:cc="http://creativecommons.org/ns#"
   xmlns:rdf="http://www.w3.org/1999/02/22-rdf-syntax-ns#"
   xmlns:svg="http://www.w3.org/2000/svg"
   xmlns="http://www.w3.org/2000/svg"
   xmlns:sodipodi="http://sodipodi.sourceforge.net/DTD/sodipodi-0.dtd"
   xmlns:inkscape="http://www.inkscape.org/namespaces/inkscape"
   id="svg2"
   version="1.1"
   inkscape:version="0.91 r13725"
   xml:space="preserve"
   width="592.66675"
   height="581.19482"
   viewBox="0 0 592.66675 581.19482"
   sodipodi:docname="ull_blau.svg"><metadata
     id="metadata8"><rdf:RDF><cc:Work
         rdf:about=""><dc:format>image/svg+xml</dc:format><dc:type
           rdf:resource="http://purl.org/dc/dcmitype/StillImage" /><dc:title></dc:title></cc:Work></rdf:RDF></metadata><defs
     id="defs6"><clipPath
       clipPathUnits="userSpaceOnUse"
       id="clipPath16"><path
         d="m 0,0 1500,0 0,1500 L 0,1500 0,0 Z"
         id="path18"
         inkscape:connector-curvature="0" /></clipPath><linearGradient
       x1="0"
       y1="0"
       x2="1"
       y2="0"
       gradientUnits="userSpaceOnUse"
       gradientTransform="matrix(1e-7,1500,1500,-1e-7,750,0)"
       spreadMethod="pad"
       id="linearGradient24"><stop
         style="stop-opacity:1;stop-color:#e6e6e6"
         offset="0"
         id="stop26" /><stop
         style="stop-opacity:1;stop-color:#ffffff"
         offset="0.42204243"
         id="stop28" /><stop
         style="stop-opacity:1;stop-color:#ffffff"
         offset="1"
         id="stop30" /></linearGradient><clipPath
       clipPathUnits="userSpaceOnUse"
       id="clipPath38"><path
         d="m 0,1500 1500,0 L 1500,0 0,0 0,1500 Z"
         id="path40"
         inkscape:connector-curvature="0" /></clipPath><clipPath
       clipPathUnits="userSpaceOnUse"
       id="clipPath50"><path
         d="m 236.759,901.506 c 0,-66.146 53.621,-119.767 119.767,-119.767 l 0,0 c 66.146,0 119.767,53.621 119.767,119.767 l 0,0 c 0,66.145 -53.621,119.766 -119.767,119.766 l 0,0 c -66.146,0 -119.767,-53.621 -119.767,-119.766"
         id="path52"
         inkscape:connector-curvature="0" /></clipPath><linearGradient
       x1="0"
       y1="0"
       x2="1"
       y2="0"
       gradientUnits="userSpaceOnUse"
       gradientTransform="matrix(239.5336,0,0,-239.5336,236.75949,901.50562)"
       spreadMethod="pad"
       id="linearGradient58"><stop
         style="stop-opacity:1;stop-color:#00ffff"
         offset="0"
         id="stop60" /><stop
         style="stop-opacity:1;stop-color:#000000"
         offset="0.59687951"
         id="stop62" /><stop
         style="stop-opacity:1;stop-color:#000000"
         offset="1"
         id="stop64" /></linearGradient><clipPath
       clipPathUnits="userSpaceOnUse"
       id="clipPath72"><path
         d="m 0,1500 1500,0 L 1500,0 0,0 0,1500 Z"
         id="path74"
         inkscape:connector-curvature="0" /></clipPath><clipPath
       clipPathUnits="userSpaceOnUse"
       id="clipPath92"><path
         d="m 271.984,1004.995 c -33.724,-5.272 -64.856,-15.364 -94.187,-28.724 l 0,0 C 136.061,957.259 92.23,925.443 59.592,898.557 l 0,0 c -4.172,-3.437 -8.207,-7.055 -12.977,-9.983 l 0,0 c -1.627,-0.998 -2.147,-0.8 -1.749,0.359 l 0,0 c -3.134,-3.801 -5.825,-7.204 -7.955,-10.057 l 0,0 c 0.279,-1.84 0.62,-3.669 1.026,-5.489 l 0,0 c 3.111,2.32 6.005,4.837 8.959,7.271 l 0,0 c 33.759,27.81 79.096,60.719 122.266,80.384 l 0,0 c 30.338,13.819 62.54,24.257 97.423,29.711 l 0,0 c 44.568,6.968 88.577,5.197 132.083,-4.976 l 0,0 c 31.066,-7.265 59.887,-17.854 86.828,-31.326 l 0,0 c 36.4,-18.203 68.374,-39.998 96.842,-64.643 l 0,0 c 1.154,1.364 2.313,2.724 3.489,4.075 l 0,0 c 2.146,2.464 1.899,4.207 -0.747,6.605 l 0,0 c -29.455,26.682 -62.894,50.127 -101.456,69.41 l 0,0 c -26.047,13.025 -53.911,23.263 -83.945,30.286 l 0,0 c -25.161,5.884 -50.496,8.86 -76.016,8.86 l 0,0 c -17.141,0 -34.366,-1.342 -51.679,-4.049"
         id="path94"
         inkscape:connector-curvature="0" /></clipPath><linearGradient
       x1="0"
       y1="0"
       x2="1"
       y2="0"
       gradientUnits="userSpaceOnUse"
       gradientTransform="matrix(550.35925,0,0,-550.35925,36.910599,941.21564)"
       spreadMethod="pad"
       id="linearGradient100"><stop
         style="stop-opacity:1;stop-color:#f2f2f2"
         offset="0"
         id="stop102" /><stop
         style="stop-opacity:1;stop-color:#003532"
         offset="0.10439577"
         id="stop104" /><stop
         style="stop-opacity:1;stop-color:#003532"
         offset="0.519608"
         id="stop106" /><stop
         style="stop-opacity:1;stop-color:#003532"
         offset="0.90348322"
         id="stop108" /><stop
         style="stop-opacity:1;stop-color:#f2f2f2"
         offset="1"
         id="stop110" /></linearGradient><clipPath
       clipPathUnits="userSpaceOnUse"
       id="clipPath118"><path
         d="m 0,1500 1500,0 L 1500,0 0,0 0,1500 Z"
         id="path120"
         inkscape:connector-curvature="0" /></clipPath><clipPath
       clipPathUnits="userSpaceOnUse"
       id="clipPath130"><path
         d="m 1006.645,887.643 c 0,-66.146 53.621,-119.767 119.766,-119.767 l 0,0 c 66.146,0 119.767,53.621 119.767,119.767 l 0,0 c 0,66.146 -53.621,119.768 -119.767,119.768 l 0,0 c -66.145,0 -119.766,-53.622 -119.766,-119.768"
         id="path132"
         inkscape:connector-curvature="0" /></clipPath><linearGradient
       x1="0"
       y1="0"
       x2="1"
       y2="0"
       gradientUnits="userSpaceOnUse"
       gradientTransform="matrix(239.5336,0,0,-239.5336,1006.6444,887.64331)"
       spreadMethod="pad"
       id="linearGradient138"><stop
         style="stop-opacity:1;stop-color:#00ffff"
         offset="0"
         id="stop140" /><stop
         style="stop-opacity:1;stop-color:#000000"
         offset="0.59687951"
         id="stop142" /><stop
         style="stop-opacity:1;stop-color:#000000"
         offset="1"
         id="stop144" /></linearGradient><clipPath
       clipPathUnits="userSpaceOnUse"
       id="clipPath152"><path
         d="m 0,1500 1500,0 L 1500,0 0,0 0,1500 Z"
         id="path154"
         inkscape:connector-curvature="0" /></clipPath><clipPath
       clipPathUnits="userSpaceOnUse"
       id="clipPath168"><path
         d="m 1055.343,987.659 c -33.724,-5.272 -64.857,-15.364 -94.187,-28.724 l 0,0 C 919.42,939.923 875.589,908.108 842.951,881.221 l 0,0 c -4.172,-3.437 -8.206,-7.055 -12.977,-9.982 l 0,0 c -1.627,-0.998 -2.148,-0.8 -1.75,0.358 l 0,0 c -3.133,-3.801 -5.824,-7.204 -7.954,-10.057 l 0,0 c 0.278,-1.839 0.619,-3.669 1.025,-5.489 l 0,0 c 3.112,2.32 6.006,4.838 8.96,7.271 l 0,0 c 33.759,27.811 79.096,60.719 122.266,80.384 l 0,0 c 30.338,13.819 62.54,24.258 97.423,29.711 l 0,0 c 44.568,6.968 88.576,5.198 132.082,-4.976 l 0,0 c 31.066,-7.264 59.888,-17.854 86.829,-31.326 l 0,0 c 36.399,-18.201 68.373,-39.998 96.842,-64.641 l 0,0 c 1.154,1.362 2.313,2.722 3.489,4.074 l 0,0 c 2.145,2.463 1.899,4.206 -0.747,6.604 l 0,0 c -29.455,26.682 -62.894,50.126 -101.456,69.411 l 0,0 c -26.047,13.024 -53.911,23.262 -83.945,30.286 l 0,0 c -25.161,5.883 -50.496,8.86 -76.017,8.86 l 0,0 c -17.141,0 -34.366,-1.343 -51.678,-4.05"
         id="path170"
         inkscape:connector-curvature="0" /></clipPath><linearGradient
       x1="0"
       y1="0"
       x2="1"
       y2="0"
       gradientUnits="userSpaceOnUse"
       gradientTransform="matrix(550.35919,0,0,-550.35919,820.26947,923.87994)"
       spreadMethod="pad"
       id="linearGradient176"><stop
         style="stop-opacity:1;stop-color:#f2f2f2"
         offset="0"
         id="stop178" /><stop
         style="stop-opacity:1;stop-color:#003532"
         offset="0.10439577"
         id="stop180" /><stop
         style="stop-opacity:1;stop-color:#003532"
         offset="0.519608"
         id="stop182" /><stop
         style="stop-opacity:1;stop-color:#003532"
         offset="0.90348322"
         id="stop184" /><stop
         style="stop-opacity:1;stop-color:#f2f2f2"
         offset="1"
         id="stop186" /></linearGradient><clipPath
       clipPathUnits="userSpaceOnUse"
       id="clipPath194"><path
         d="m 0,1500 1500,0 L 1500,0 0,0 0,1500 Z"
         id="path196"
         inkscape:connector-curvature="0" /></clipPath><clipPath
       clipPathUnits="userSpaceOnUse"
       id="clipPath214"><path
         d="m 613.605,1280.499 c 0,-66.145 53.622,-119.767 119.766,-119.767 l 0,0 c 66.146,0 119.768,53.622 119.768,119.767 l 0,0 c 0,66.145 -53.622,119.767 -119.768,119.767 l 0,0 c -66.144,0 -119.766,-53.622 -119.766,-119.767"
         id="path216"
         inkscape:connector-curvature="0" /></clipPath><linearGradient
       x1="0"
       y1="0"
       x2="1"
       y2="0"
       gradientUnits="userSpaceOnUse"
       gradientTransform="matrix(239.53358,0,0,-239.53358,613.60498,1280.4989)"
       spreadMethod="pad"
       id="linearGradient222"><stop
         style="stop-opacity:1;stop-color:#00ffff"
         offset="0"
         id="stop224" /><stop
         style="stop-opacity:1;stop-color:#000000"
         offset="0.59687951"
         id="stop226" /><stop
         style="stop-opacity:1;stop-color:#000000"
         offset="1"
         id="stop228" /></linearGradient><clipPath
       clipPathUnits="userSpaceOnUse"
       id="clipPath236"><path
         d="m 0,1500 1500,0 L 1500,0 0,0 0,1500 Z"
         id="path238"
         inkscape:connector-curvature="0" /></clipPath><clipPath
       clipPathUnits="userSpaceOnUse"
       id="clipPath252"><path
         d="m 662.304,1380.515 c -33.724,-5.273 -64.857,-15.364 -94.187,-28.725 l 0,0 c -41.737,-19.012 -85.568,-50.826 -118.205,-77.713 l 0,0 c -4.173,-3.437 -8.206,-7.055 -12.977,-9.983 l 0,0 c -1.627,-0.997 -2.148,-0.8 -1.75,0.358 l 0,0 c -3.133,-3.8 -5.825,-7.203 -7.955,-10.056 l 0,0 c 0.279,-1.839 0.62,-3.67 1.026,-5.489 l 0,0 c 3.111,2.321 6.005,4.837 8.959,7.272 l 0,0 c 33.76,27.81 79.097,60.718 122.266,80.382 l 0,0 c 30.338,13.82 62.541,24.259 97.424,29.712 l 0,0 c 44.568,6.968 88.576,5.197 132.082,-4.976 l 0,0 c 31.066,-7.265 59.887,-17.854 86.829,-31.327 l 0,0 c 36.399,-18.201 68.373,-39.996 96.842,-64.641 l 0,0 c 1.154,1.363 2.312,2.722 3.489,4.074 l 0,0 c 2.145,2.463 1.899,4.208 -0.748,6.604 l 0,0 c -29.454,26.684 -62.894,50.128 -101.456,69.411 l 0,0 c -26.046,13.025 -53.91,23.262 -83.945,30.286 l 0,0 c -25.16,5.883 -50.495,8.86 -76.016,8.86 l 0,0 c -17.141,0 -34.366,-1.343 -51.678,-4.049"
         id="path254"
         inkscape:connector-curvature="0" /></clipPath><linearGradient
       x1="0"
       y1="0"
       x2="1"
       y2="0"
       gradientUnits="userSpaceOnUse"
       gradientTransform="matrix(550.35919,0,0,-550.35919,427.2301,1316.7356)"
       spreadMethod="pad"
       id="linearGradient260"><stop
         style="stop-opacity:1;stop-color:#f2f2f2"
         offset="0"
         id="stop262" /><stop
         style="stop-opacity:1;stop-color:#003532"
         offset="0.10439577"
         id="stop264" /><stop
         style="stop-opacity:1;stop-color:#003532"
         offset="0.519608"
         id="stop266" /><stop
         style="stop-opacity:1;stop-color:#003532"
         offset="0.90348322"
         id="stop268" /><stop
         style="stop-opacity:1;stop-color:#f2f2f2"
         offset="1"
         id="stop270" /></linearGradient><clipPath
       clipPathUnits="userSpaceOnUse"
       id="clipPath278"><path
         d="m 0,1500 1500,0 L 1500,0 0,0 0,1500 Z"
         id="path280"
         inkscape:connector-curvature="0" /></clipPath><clipPath
       clipPathUnits="userSpaceOnUse"
       id="clipPath294"><path
         d="m 630.817,573.592 -1.519,-1.251 c -1.381,-1.137 -34.011,-28.423 -49.904,-76.916 l 0,0 c -9.353,-28.535 -10.914,-58.461 -4.642,-88.946 l 0,0 c 7.753,-37.687 27.575,-76.244 58.915,-114.598 l 0,0 2.812,-3.444 84.301,15.726 42.692,6.099 75.278,29.189 44.723,33.929 27.822,27.417 -45.735,55.375 -69.08,66.184 -47.008,36.915 -46.508,27.147 -72.147,-12.826 z"
         id="path296"
         inkscape:connector-curvature="0" /></clipPath><linearGradient
       x1="0"
       y1="0"
       x2="1"
       y2="0"
       gradientUnits="userSpaceOnUse"
       gradientTransform="matrix(0,297.9805,297.9805,0,741.13867,288.4375)"
       spreadMethod="pad"
       id="linearGradient302"><stop
         style="stop-opacity:1;stop-color:#808080"
         offset="0"
         id="stop304" /><stop
         style="stop-opacity:1;stop-color:#808080"
         offset="0.0686275"
         id="stop306" /><stop
         style="stop-opacity:1;stop-color:#ffffff"
         offset="0.1909014"
         id="stop308" /><stop
         style="stop-opacity:1;stop-color:#ffffff"
         offset="0.490426"
         id="stop310" /><stop
         style="stop-opacity:1;stop-color:#ffffff"
         offset="0.82319558"
         id="stop312" /><stop
         style="stop-opacity:1;stop-color:#808080"
         offset="0.906863"
         id="stop314" /><stop
         style="stop-opacity:1;stop-color:#808080"
         offset="1"
         id="stop316" /></linearGradient><clipPath
       clipPathUnits="userSpaceOnUse"
       id="clipPath324"><path
         d="m 0,1500 1500,0 L 1500,0 0,0 0,1500 Z"
         id="path326"
         inkscape:connector-curvature="0" /></clipPath><clipPath
       clipPathUnits="userSpaceOnUse"
       id="clipPath336"><path
         d="m 594.814,437.589 c 0,-63.533 27.355,-115.037 54.932,-115.037 l 0,0 c 13.656,0 26.029,12.635 35.043,33.101 l 0,0 c -23.434,7.047 -41.247,42.072 -41.247,84.25 l 0,0 c 0,41.054 16.876,75.34 39.387,83.636 l 0,0 c -8.822,18.09 -20.444,29.087 -33.183,29.087 l 0,0 c -27.577,0 -54.932,-51.504 -54.932,-115.037"
         id="path338"
         inkscape:connector-curvature="0" /></clipPath><linearGradient
       x1="0"
       y1="0"
       x2="1"
       y2="0"
       gradientUnits="userSpaceOnUse"
       gradientTransform="matrix(105.74003,0,0,-105.74003,594.81348,437.58911)"
       spreadMethod="pad"
       id="linearGradient344"><stop
         style="stop-opacity:1;stop-color:#00ffff"
         offset="0"
         id="stop346" /><stop
         style="stop-opacity:1;stop-color:#004745"
         offset="0.59687951"
         id="stop348" /><stop
         style="stop-opacity:1;stop-color:#004745"
         offset="1"
         id="stop350" /></linearGradient><clipPath
       clipPathUnits="userSpaceOnUse"
       id="clipPath358"><path
         d="m 0,1500 1500,0 L 1500,0 0,0 0,1500 Z"
         id="path360"
         inkscape:connector-curvature="0" /></clipPath></defs><sodipodi:namedview
     pagecolor="#ffffff"
     bordercolor="#666666"
     borderopacity="1"
     objecttolerance="10"
     gridtolerance="10"
     guidetolerance="10"
     inkscape:pageopacity="0"
     inkscape:pageshadow="2"
     inkscape:window-width="640"
     inkscape:window-height="480"
     id="namedview4"
     showgrid="false"
     fit-margin-top="0"
     fit-margin-left="0"
     fit-margin-right="0"
     fit-margin-bottom="0"
     inkscape:zoom="0.17800235"
     inkscape:cx="448.13235"
     inkscape:cy="192.47018"
     inkscape:window-x="41"
     inkscape:window-y="21"
     inkscape:window-maximized="0"
     inkscape:current-layer="g10" /><g
     id="g10"
     inkscape:groupmode="layer"
     inkscape:label="eyes-and-business-3"
     transform="matrix(1.25,0,0,-1.25,-592.21112,838.52532)"><g
       id="g4006"><g
         id="g290"><g
           clip-path="url(#clipPath294)"
           id="g292"><g
             id="g298"><g
               id="g300"><path
                 inkscape:connector-curvature="0"
                 id="path318"
                 style="fill:url(#linearGradient302);stroke:none"
                 d="m 630.817,573.592 -1.519,-1.251 c -1.381,-1.137 -34.011,-28.423 -49.904,-76.916 l 0,0 c -9.353,-28.535 -10.914,-58.461 -4.642,-88.946 l 0,0 c 7.753,-37.687 27.575,-76.244 58.915,-114.598 l 0,0 2.812,-3.444 84.301,15.726 42.692,6.099 75.278,29.189 44.723,33.929 27.822,27.417 -45.735,55.375 -69.08,66.184 -47.008,36.915 -46.508,27.147 -72.147,-12.826 z" /></g></g></g></g><g
         id="g320"><g
           clip-path="url(#clipPath324)"
           id="g322"><g
             transform="translate(704.365,594.2855)"
             id="g328"><path
               inkscape:connector-curvature="0"
               id="path330"
               style="fill:#000000;fill-opacity:1;fill-rule:nonzero;stroke:none"
               d="m 0,0 -5.427,-0.965 -67.497,-11.999 -3.874,-0.689 -3.037,-2.502 c -1.45,-1.194 -35.7,-29.831 -52.263,-80.369 -9.765,-29.793 -11.4,-61.013 -4.861,-92.795 8,-38.884 28.339,-78.529 60.453,-117.831 l 5.625,-6.886 8.741,1.631 79.774,14.881 41.683,5.954 1.7,0.243 1.601,0.621 73.497,28.499 1.964,0.762 1.679,1.273 43.497,32.998 0.773,0.586 0.69,0.681 22.583,22.255 9.785,9.643 -8.748,10.593 -41.082,49.741 -0.557,0.674 -0.631,0.605 -68.497,65.627 -0.533,0.511 -0.58,0.456 -46.313,36.367 -0.812,0.637 -0.89,0.52 L 4.76,-2.779 0,0 Z m -2.802,-15.733 43.683,-25.499 46.313,-36.368 68.496,-65.627 41.083,-49.741 -22.583,-22.255 -43.498,-32.999 -73.497,-28.498 -41.997,-6 -80.089,-14.94 c -134,164 -5.407,269.927 -5.407,269.927 l 67.496,12" /></g></g></g><g
         id="g332"><g
           clip-path="url(#clipPath336)"
           id="g334"><g
             id="g340"><g
               id="g342"><path
                 inkscape:connector-curvature="0"
                 id="path352"
                 style="fill:url(#linearGradient344);stroke:none"
                 d="m 594.814,437.589 c 0,-63.533 27.355,-115.037 54.932,-115.037 l 0,0 c 13.656,0 26.029,12.635 35.043,33.101 l 0,0 c -23.434,7.047 -41.247,42.072 -41.247,84.25 l 0,0 c 0,41.054 16.876,75.34 39.387,83.636 l 0,0 c -8.822,18.09 -20.444,29.087 -33.183,29.087 l 0,0 c -27.577,0 -54.932,-51.504 -54.932,-115.037" /></g></g></g></g><g
         transform="translate(-382.2702,-552.61363)"
         id="g3994"><g
           id="g362"
           transform="translate(1064.2847,1076.5051)"><path
             d="m 0,0 c -22.511,-8.296 -39.387,-42.582 -39.387,-83.636 0,-42.178 17.814,-77.203 41.248,-84.25 9.189,20.864 14.888,49.865 14.888,81.936 C 16.749,-51.766 10.275,-21.07 0,0"
             style="fill:#000000;fill-opacity:1;fill-rule:nonzero;stroke:none"
             id="path364"
             inkscape:connector-curvature="0" /></g><g
           id="g366"
           transform="translate(913.13633,758.478)"><path
             d="m 0,0 c 0,0 0.304,2.137 1.274,6.066 0.974,3.922 2.613,9.648 5.343,16.674 2.699,7.046 6.513,15.384 11.76,24.373 11.859,20.313 25.957,39.236 45.969,52.054 19.32,12.373 41.525,19.634 63.886,24.169 1.795,0.365 3.593,0.711 5.395,1.04 32.673,5.982 66.094,7 98.791,12.851 47.786,8.551 94.42,27.09 133.197,56.343 2.309,1.742 4.681,3.404 7.228,4.783 10.997,5.954 12.431,-0.3 12.451,-0.334 4.587,-7.639 -0.97,-14.593 -6.286,-20.636 -7.875,-8.952 -17.185,-15.891 -26.667,-23.052 -19.203,-14.503 -38.946,-28.4 -59.94,-40.209 C 268.6,100.733 243.069,90.088 216.133,85.068 188.91,79.994 160.978,80.737 133.382,78.435 103.723,75.961 76.322,68.84 51.561,51.916 43.168,46.239 35.708,40.084 29.267,34.096 22.812,28.118 17.425,22.258 13.091,17.18 4.441,6.986 0,0 0,0"
             style="fill:#000000;fill-opacity:1;fill-rule:nonzero;stroke:none"
             id="path368"
             inkscape:connector-curvature="0" /></g><g
           id="g370"
           transform="translate(1004.3023,1197.9946)"><path
             d="M 0,0 0.028,0.002 0.081,0.019 C 0.147,0.041 0.307,0.095 0,0"
             style="fill:#000000;fill-opacity:1;fill-rule:nonzero;stroke:none"
             id="path372"
             inkscape:connector-curvature="0" /></g><g
           id="g374"
           transform="translate(1314.4975,939.214)"><path
             d="m 0,0 c -5.28,6.788 -10.656,13.498 -16.091,20.161 -5.427,6.671 -10.898,13.31 -16.413,19.918 -5.506,6.618 -11.141,13.12 -16.774,19.636 -11.319,12.979 -22.716,25.933 -34.502,38.552 -11.768,12.636 -23.753,25.111 -36.015,37.38 -6.109,6.159 -12.351,12.194 -18.712,18.124 -6.343,5.951 -12.755,11.85 -19.284,17.656 -13.014,11.663 -26.515,22.887 -40.431,33.918 -6.931,5.565 -14.025,11.005 -21.29,16.379 -7.256,5.383 -14.812,10.529 -22.701,15.439 -7.914,4.87 -16.225,9.417 -25.185,13.292 -8.971,3.83 -18.555,7.132 -29.1,9.102 -10.948,-0.621 -21.387,-3.373 -32.303,-4.665 -11.932,-1.414 -23.996,-1.69 -35.982,-0.867 -23.974,1.646 -47.661,7.692 -69.428,17.891 -4.17,1.954 -8.269,4.06 -12.284,6.316 -3.603,2.024 -7.23,5.141 -11.336,5.972 -3.224,0.65 6.989,-18.86 7.739,-20.149 8.652,-14.887 18.357,-29.217 28.427,-43.174 10.293,-14.266 20.514,-28.838 35.094,-38.957 19.552,-13.57 42.621,-22.075 66.32,-24.329 15.417,-1.466 30.927,-0.724 46.206,1.737 8.029,1.293 15.98,3.055 23.829,5.179 3.356,0.908 20.836,8.781 23.178,7.404 1.268,-0.746 2.535,-1.49 3.8,-2.247 7.059,-4.268 13.958,-8.886 20.836,-13.573 6.879,-4.69 13.687,-9.55 20.456,-14.492 6.774,-4.937 13.483,-10.004 20.153,-15.144 l 19.955,-15.578 c 13.285,-10.464 26.401,-21.222 39.368,-32.199 12.966,-10.976 25.926,-22.031 38.687,-33.333 L -44.7,28.305 c 6.36,-5.693 12.688,-11.429 18.983,-17.207 12.557,-11.578 25.14,-23.2 37.489,-35.02 l 3.903,3.422 C 10.552,-13.563 5.292,-6.781 0,0"
             style="fill:#000000;fill-opacity:1;fill-rule:nonzero;stroke:none"
             id="path376"
             inkscape:connector-curvature="0" /></g><g
           id="g378"
           transform="translate(1051.1575,1045.4095)"><path
             d="m 0,0 c 0,-8.284 -6.716,-15 -15,-15 -8.284,0 -15,6.716 -15,15 0,8.284 6.716,15 15,15 C -6.716,15 0,8.284 0,0"
             style="fill:#ffffff;fill-opacity:1;fill-rule:nonzero;stroke:none"
             id="path380"
             inkscape:connector-curvature="0" /></g></g></g><g
       id="g410"
       transform="translate(1957.4576,589.07347)"><path
         d="m 0,0 c -0.918,0 -1.701,0.292 -2.368,0.888 -0.663,0.582 -1.001,1.418 -1.001,2.489 0,0.898 0.325,1.677 0.959,2.321 0.639,0.653 1.422,0.97 2.348,0.97 0.931,0 1.726,-0.317 2.393,-0.951 C 2.982,5.072 3.32,4.286 3.32,3.377 3.32,2.315 2.982,1.495 2.331,0.902 1.664,0.292 0.886,0 0,0"
         style="fill:#000000;fill-opacity:1;fill-rule:nonzero;stroke:none"
         id="path412"
         inkscape:connector-curvature="0" /></g></g></svg>