<?xml version="1.0" encoding="UTF-8" standalone="no"?>
<svg
   xmlns:ns0="http://www.iki.fi/pav/software/textext/"
   xmlns:dc="http://purl.org/dc/elements/1.1/"
   xmlns:cc="http://creativecommons.org/ns#"
   xmlns:rdf="http://www.w3.org/1999/02/22-rdf-syntax-ns#"
   xmlns:svg="http://www.w3.org/2000/svg"
   xmlns="http://www.w3.org/2000/svg"
   xmlns:xlink="http://www.w3.org/1999/xlink"
   xmlns:sodipodi="http://sodipodi.sourceforge.net/DTD/sodipodi-0.dtd"
   xmlns:inkscape="http://www.inkscape.org/namespaces/inkscape"
   width="250"
   height="170"
   id="svg8725"
   sodipodi:version="0.32"
   inkscape:version="0.48.2 r9819"
   sodipodi:docname="decaiment_beta_plus.svg"
   inkscape:output_extension="org.inkscape.output.svg.inkscape"
   version="1.0">
  <sodipodi:namedview
     inkscape:window-height="969"
     inkscape:window-width="1280"
     inkscape:pageshadow="2"
     inkscape:pageopacity="0.0"
     guidetolerance="10.0"
     gridtolerance="10.0"
     objecttolerance="10.0"
     borderopacity="1.0"
     bordercolor="#666666"
     pagecolor="#ffffff"
     id="base"
     inkscape:zoom="2.8284272"
     inkscape:cx="98.492253"
     inkscape:cy="53.551345"
     inkscape:window-x="-2"
     inkscape:window-y="-3"
     inkscape:current-layer="svg8725"
     width="250px"
     height="170px"
     showgrid="true"
     inkscape:window-maximized="1" />
  <metadata
     id="metadata8799">
    <rdf:RDF>
      <cc:Work
         rdf:about="">
        <dc:format>image/svg+xml</dc:format>
        <dc:type
           rdf:resource="http://purl.org/dc/dcmitype/StillImage" />
        <dc:title>Cherenkov radiation (a kind of shock wave)</dc:title>
      </cc:Work>
    </rdf:RDF>
  </metadata>
  <title
     id="title8727">Cherenkov radiation (a kind of shock wave)</title>
  <defs
     id="defs8791">
    <filter
       inkscape:collect="always"
       height="1.7710787"
       x="-0.35983673"
       y="-0.38553935"
       width="1.7196735"
       id="filter13170">
      <feGaussianBlur
         inkscape:collect="always"
         id="feGaussianBlur13172"
         stdDeviation="0.28112245" />
    </filter>
    <filter
       inkscape:collect="always"
       height="1.2419575"
       x="-0.060489368"
       y="-0.12097874"
       width="1.1209787"
       id="filter11863">
      <feGaussianBlur
         inkscape:collect="always"
         id="feGaussianBlur11865"
         stdDeviation="0.50407807" />
    </filter>
    <clipPath
       clipPathUnits="userSpaceOnUse"
       id="clipPath11835">
      <path
         sodipodi:ry="8"
         sodipodi:rx="8"
         d="M 126 152 A 8 8 0 1 1  110,152 A 8 8 0 1 1  126 152 z"
         sodipodi:type="arc"
         sodipodi:cy="152"
         sodipodi:cx="118"
         id="path11837"
         style="opacity:1;fill:none;fill-opacity:1;fill-rule:nonzero;stroke:#b22222;stroke-width:2;stroke-linecap:butt;stroke-miterlimit:4;stroke-dasharray:none;stroke-dashoffset:0;stroke-opacity:1" />
    </clipPath>
    <clipPath
       clipPathUnits="userSpaceOnUse"
       id="clipPath11831">
      <path
         sodipodi:ry="8"
         sodipodi:rx="8"
         transform="matrix(1.3067618,0,0,0.9582726,-44.197896,-2.990612)"
         d="M 126 152 A 8 8 0 1 1  110,152 A 8 8 0 1 1  126 152 z"
         sodipodi:type="arc"
         sodipodi:cy="152"
         sodipodi:cx="118"
         id="path11833"
         style="opacity:1;fill:none;fill-opacity:1;fill-rule:nonzero;stroke:#b22222;stroke-width:1.78725791;stroke-linecap:butt;stroke-miterlimit:4;stroke-dasharray:none;stroke-dashoffset:0;stroke-opacity:1" />
    </clipPath>
    <filter
       inkscape:collect="always"
       height="1.2644897"
       x="-0.132245"
       y="-0.1322448"
       width="1.26449"
       id="filter10842">
      <feGaussianBlur
         inkscape:collect="always"
         id="feGaussianBlur10844"
         stdDeviation="0.95830044" />
    </filter>
    <linearGradient
       inkscape:collect="always"
       id="linearGradient11817">
      <stop
         id="stop11819"
         style="stop-color:#b22222;stop-opacity:1;"
         offset="0" />
      <stop
         id="stop11821"
         style="stop-color:#b22222;stop-opacity:0;"
         offset="1" />
    </linearGradient>
    <filter
       inkscape:collect="always"
       height="1.4294039"
       x="-0.11536486"
       y="-0.21470195"
       width="1.2307297"
       id="filter16428">
      <feGaussianBlur
         inkscape:collect="always"
         id="feGaussianBlur16430"
         stdDeviation="0.938742" />
    </filter>
    <linearGradient
       y2="148.25"
       y1="130.75"
       xlink:href="#linearGradient11817"
       x2="110"
       x1="110"
       inkscape:collect="always"
       gradientUnits="userSpaceOnUse"
       id="linearGradient3267" />
    <linearGradient
       y2="148.25"
       x2="110"
       y1="130.75"
       x1="110"
       gradientUnits="userSpaceOnUse"
       id="linearGradient3173"
       xlink:href="#linearGradient11817"
       inkscape:collect="always" />
  </defs>
  <g
     transform="translate(136.77668,138.65475)"
     id="g14386">
    <path
       sodipodi:ry="8"
       sodipodi:rx="8"
       transform="matrix(1.437438,0,0,1.4374089,-157.11818,-205.98688)"
       clip-path="url(#clipPath11835)"
       d="m 126,152 c 0,4.41828 -3.58172,8 -8,8 -4.41828,0 -8,-3.58172 -8,-8 0,-4.41828 3.58172,-8 8,-8 4.41828,0 8,3.58172 8,8 z"
       sodipodi:type="arc"
       sodipodi:cy="152"
       sodipodi:cx="118"
       id="path13311"
       style="fill:#ffffff;fill-opacity:1;fill-rule:nonzero;stroke:none" />
    <path
       sodipodi:ry="8"
       sodipodi:rx="8"
       transform="matrix(1.437438,0,0,1.4374089,-157.11818,-205.98688)"
       clip-path="url(#clipPath11835)"
       d="m 126,152 c 0,4.41828 -3.58172,8 -8,8 -4.41828,0 -8,-3.58172 -8,-8 0,-4.41828 3.58172,-8 8,-8 4.41828,0 8,3.58172 8,8 z"
       sodipodi:type="arc"
       sodipodi:cy="152"
       sodipodi:cx="118"
       id="path9695"
       style="fill:none;stroke:#b22222;stroke-width:1.39137828;stroke-linecap:butt;stroke-miterlimit:4;stroke-opacity:1;stroke-dasharray:none;stroke-dashoffset:0;filter:url(#filter10842)" />
    <path
       sodipodi:ry="5"
       sodipodi:rx="10"
       transform="matrix(1.0507331,0.325515,-0.443884,1.4328178,-39.760586,-227.66727)"
       clip-path="url(#clipPath11831)"
       d="m 120,140 c 0,2.76142 -4.47715,5 -10,5 -5.52285,0 -10,-2.23858 -10,-5 0,-2.76142 4.47715,-5 10,-5 5.52285,0 10,2.23858 10,5 z"
       sodipodi:type="arc"
       sodipodi:cy="140"
       sodipodi:cx="110"
       id="path10846"
       style="fill:url(#linearGradient3173);fill-opacity:1;fill-rule:nonzero;stroke:none;filter:url(#filter11863)" />
    <path
       sodipodi:ry="0.875"
       sodipodi:rx="0.9375"
       transform="matrix(-1.478029,-1.5383567,-0.7211047,0.6928261,235.64213,31.241018)"
       d="m 79.375,140.5 c 0,0.48325 -0.419733,0.875 -0.9375,0.875 -0.517767,0 -0.9375,-0.39175 -0.9375,-0.875 0,-0.48325 0.419733,-0.875 0.9375,-0.875 0.517767,0 0.9375,0.39175 0.9375,0.875 z"
       sodipodi:type="arc"
       sodipodi:cy="140.5"
       sodipodi:cx="78.4375"
       id="path11867"
       style="fill:#ffffff;fill-opacity:1;fill-rule:nonzero;stroke:none;filter:url(#filter13170)" />
  </g>
  <g
     transform="translate(189.2691,96.97172)"
     id="g16510">
    <path
       sodipodi:ry="8"
       sodipodi:rx="8"
       transform="matrix(1.437438,0,0,1.4374089,-157.11818,-205.98688)"
       clip-path="url(#clipPath11835)"
       d="m 126,152 c 0,4.41828 -3.58172,8 -8,8 -4.41828,0 -8,-3.58172 -8,-8 0,-4.41828 3.58172,-8 8,-8 4.41828,0 8,3.58172 8,8 z"
       sodipodi:type="arc"
       sodipodi:cy="152"
       sodipodi:cx="118"
       id="path16512"
       style="fill:#ffffff;fill-opacity:1;fill-rule:nonzero;stroke:none" />
    <path
       sodipodi:ry="8"
       sodipodi:rx="8"
       transform="matrix(1.437438,0,0,1.4374089,-157.11818,-205.98688)"
       clip-path="url(#clipPath11835)"
       d="m 126,152 c 0,4.41828 -3.58172,8 -8,8 -4.41828,0 -8,-3.58172 -8,-8 0,-4.41828 3.58172,-8 8,-8 4.41828,0 8,3.58172 8,8 z"
       sodipodi:type="arc"
       sodipodi:cy="152"
       sodipodi:cx="118"
       id="path16514"
       style="fill:none;stroke:#4682b4;stroke-width:1.39137828;stroke-linecap:butt;stroke-miterlimit:4;stroke-opacity:1;stroke-dasharray:none;stroke-dashoffset:0;filter:url(#filter10842)" />
    <path
       sodipodi:ry="5"
       sodipodi:rx="10"
       transform="matrix(1.0507331,0.325515,-0.443884,1.4328178,-39.760586,-227.66727)"
       clip-path="url(#clipPath11831)"
       d="m 120,140 c 0,2.76142 -4.47715,5 -10,5 -5.52285,0 -10,-2.23858 -10,-5 0,-2.76142 4.47715,-5 10,-5 5.52285,0 10,2.23858 10,5 z"
       sodipodi:type="arc"
       sodipodi:cy="140"
       sodipodi:cx="110"
       id="path16516"
       style="fill:#4682b4;fill-opacity:1;fill-rule:nonzero;stroke:none;filter:url(#filter16428)" />
    <path
       sodipodi:ry="0.875"
       sodipodi:rx="0.9375"
       transform="matrix(-1.478029,-1.5383567,-0.7211047,0.6928261,235.64213,31.241018)"
       d="m 79.375,140.5 c 0,0.48325 -0.419733,0.875 -0.9375,0.875 -0.517767,0 -0.9375,-0.39175 -0.9375,-0.875 0,-0.48325 0.419733,-0.875 0.9375,-0.875 0.517767,0 0.9375,0.39175 0.9375,0.875 z"
       sodipodi:type="arc"
       sodipodi:cy="140.5"
       sodipodi:cx="78.4375"
       id="path16518"
       style="fill:#ffffff;fill-opacity:1;fill-rule:nonzero;stroke:none;filter:url(#filter13170)" />
  </g>
  <g
     style="fill:none;stroke:#000000;stroke-width:0.63610566"
     transform="matrix(0.8567118,0,0,0.7211852,7.4512136,-25.639783)"
     id="g2413">
    <path
       style="fill:none;stroke:#000000;stroke-width:0.63610566;stroke-linecap:butt;stroke-linejoin:miter;stroke-opacity:1"
       id="path2405"
       d="m 114.5513,137.66339 33.75786,-16.97057"
       inkscape:connector-curvature="0" />
    <path
       style="fill:none;stroke:#000000;stroke-width:0.63610566;stroke-linecap:butt;stroke-linejoin:miter;stroke-opacity:1"
       d="M 156.95709,116.23868 193.76035,97.693569"
       id="path2409"
       inkscape:connector-curvature="0" />
    <path
       style="fill:none;stroke:#000000;stroke-width:0.63610566;stroke-linecap:butt;stroke-linejoin:miter;stroke-opacity:1"
       id="path2411"
       d="M 197.76217,95.400061 241.16503,73.442815"
       inkscape:connector-curvature="0" />
  </g>
  <g
     style="fill:none;stroke:#000000;stroke-width:0.67524683"
     transform="matrix(0.847929,0,0,0.6466294,4.6854857,-11.908645)"
     id="g2418">
    <path
       style="fill:none;stroke:#000000;stroke-width:0.67524683;stroke-linecap:butt;stroke-linejoin:miter;stroke-opacity:1"
       id="path2420"
       d="m 114.55129,137.66339 67.83062,-34.86046"
       inkscape:connector-curvature="0" />
    <path
       style="fill:none;stroke:#000000;stroke-width:0.67524683;stroke-linecap:butt;stroke-linejoin:miter;stroke-opacity:1"
       id="path2424"
       d="M 197.76217,95.400061 241.16503,73.442815"
       inkscape:connector-curvature="0" />
  </g>
  <g
     style="fill:none;stroke:#000000;stroke-width:0.67563719"
     transform="matrix(0.8809086,0,0,0.6217018,6.4410802,-7.2699074)"
     id="g2269">
    <path
       style="fill:none;stroke:#000000;stroke-width:0.67563719;stroke-linecap:butt;stroke-linejoin:miter;stroke-opacity:1"
       id="path2271"
       d="m 114.5513,137.66339 33.75786,-16.97057"
       inkscape:connector-curvature="0" />
    <path
       style="fill:none;stroke:#000000;stroke-width:0.67563719;stroke-linecap:butt;stroke-linejoin:miter;stroke-opacity:1"
       d="M 156.95709,116.23868 193.76035,97.693569"
       id="path2273"
       inkscape:connector-curvature="0" />
    <path
       style="fill:none;stroke:#000000;stroke-width:0.67563719;stroke-linecap:butt;stroke-linejoin:miter;stroke-opacity:1"
       id="path2275"
       d="M 197.76217,95.400061 241.16503,73.442815"
       inkscape:connector-curvature="0" />
  </g>
  <g
     transform="translate(0.0240855,2.1366606)"
     id="g2479">
    <use
       id="use2547"
       width="400"
       transform="translate(-106.60491,-32.62563)"
       y="0"
       xlink:href="#g16510"
       x="0"
       height="200" />
    <use
       id="use2545"
       width="400"
       transform="translate(-41.991163,-52.781744)"
       y="0"
       xlink:href="#g14386"
       x="0"
       height="200" />
    <use
       id="use2386"
       width="580"
       transform="translate(-151.0389,-45.34598)"
       y="0"
       xlink:href="#g16510"
       x="0"
       height="560" />
    <use
       id="use2384"
       width="580"
       transform="translate(-113.65307,-81.700574)"
       y="0"
       xlink:href="#g14386"
       x="0"
       height="560" />
    <use
       id="use16588"
       width="580"
       transform="translate(-175.08053,-31.20384)"
       y="0"
       xlink:href="#g16510"
       x="0"
       height="560" />
    <use
       id="use16584"
       width="580"
       transform="translate(-136.02313,-50.966565)"
       y="0"
       xlink:href="#g14386"
       x="0"
       height="560" />
    <use
       id="use16586"
       width="580"
       transform="translate(-131.94701,-45.34598)"
       y="0"
       xlink:href="#g16510"
       x="0"
       height="560" />
    <use
       id="use16582"
       width="580"
       transform="translate(-49.756093,-64.401595)"
       y="0"
       xlink:href="#g14386"
       x="0"
       height="560" />
    <use
       id="use16580"
       width="580"
       transform="translate(-114.26934,-32.61806)"
       y="0"
       xlink:href="#g16510"
       x="0"
       height="560" />
    <use
       id="use16578"
       width="580"
       transform="translate(-67.433767,-84.200585)"
       y="0"
       xlink:href="#g14386"
       x="0"
       height="560" />
    <use
       id="use16576"
       width="580"
       transform="translate(-157.40286,-40.39624)"
       y="0"
       xlink:href="#g16510"
       x="0"
       height="560" />
    <use
       id="use16574"
       width="580"
       transform="translate(-130.36627,-21.268075)"
       y="0"
       xlink:href="#g14386"
       x="0"
       height="560" />
    <use
       id="use16572"
       width="580"
       transform="translate(-113.39571,-7.8330444)"
       y="0"
       xlink:href="#g14386"
       x="0"
       height="560" />
    <use
       id="use16570"
       width="580"
       transform="translate(-155.98865,39.506827)"
       y="0"
       xlink:href="#g16510"
       x="0"
       height="560" />
    <use
       id="use16564"
       width="580"
       transform="translate(-73.090627,-78.543725)"
       y="0"
       xlink:href="#g14386"
       x="0"
       height="560"
       inkscape:transform-center-y="-127.27922"
       inkscape:transform-center-x="-40.305087" />
    <use
       id="use16538"
       width="580"
       transform="translate(-189.22268,4.1514872)"
       y="0"
       xlink:href="#g16510"
       x="0"
       height="560" />
    <use
       id="use16560"
       width="580"
       transform="translate(-127.53784,-33.288895)"
       y="0"
       xlink:href="#g14386"
       x="0"
       height="560" />
    <use
       id="use16558"
       width="580"
       transform="translate(-104.20332,-10.661474)"
       y="0"
       xlink:href="#g14386"
       x="0"
       height="560" />
    <use
       id="use16556"
       width="580"
       transform="translate(-90.061177,-84.200575)"
       y="0"
       xlink:href="#g14386"
       x="0"
       height="560" />
    <use
       id="use14394"
       width="580"
       transform="translate(-107.73885,-57.330515)"
       y="0"
       xlink:href="#g14386"
       x="0"
       height="560" />
    <use
       id="use14420"
       width="580"
       transform="translate(-83.697217,-42.481285)"
       y="0"
       xlink:href="#g14386"
       x="0"
       height="560" />
    <use
       id="use14424"
       width="580"
       transform="translate(-63.898237,-20.560975)"
       y="0"
       xlink:href="#g14386"
       x="0"
       height="560" />
    <use
       id="use14426"
       width="580"
       transform="translate(-56.827167,-35.410205)"
       y="0"
       xlink:href="#g14386"
       x="0"
       height="560" />
    <use
       id="use16522"
       width="580"
       transform="translate(-134.06833,-29.08253)"
       y="0"
       xlink:href="#g16510"
       x="0"
       height="560" />
    <use
       id="use16524"
       width="580"
       transform="translate(-152.45311,-31.20385)"
       y="0"
       xlink:href="#g16510"
       x="0"
       height="560" />
    <use
       id="use16526"
       width="580"
       transform="translate(-133.36122,14.758088)"
       y="0"
       xlink:href="#g16510"
       x="0"
       height="560" />
    <use
       id="use16528"
       width="580"
       transform="translate(-100.12719,-6.4551128)"
       y="0"
       xlink:href="#g16510"
       x="0"
       height="560" />
    <use
       id="use16530"
       width="580"
       transform="translate(-120.6333,4.1514972)"
       y="0"
       xlink:href="#g16510"
       x="0"
       height="560" />
    <use
       id="use16534"
       width="580"
       transform="translate(-130.53279,-15.647502)"
       y="0"
       xlink:href="#g16510"
       x="0"
       height="560" />
    <use
       id="use16540"
       width="580"
       transform="translate(-152.45311,-4.3337928)"
       y="0"
       xlink:href="#g16510"
       x="0"
       height="560" />
    <use
       id="use16542"
       width="580"
       transform="translate(-174.37342,21.829158)"
       y="0"
       xlink:href="#g16510"
       x="0"
       height="560" />
    <use
       id="use16544"
       width="580"
       transform="translate(-145.38205,23.243378)"
       y="0"
       xlink:href="#g16510"
       x="0"
       height="560" />
    <use
       id="use16546"
       width="580"
       transform="translate(-128.41147,42.335247)"
       y="0"
       xlink:href="#g16510"
       x="0"
       height="560" />
    <use
       id="use16548"
       width="580"
       transform="translate(-99.420093,16.879428)"
       y="0"
       xlink:href="#g16510"
       x="0"
       height="560" />
    <use
       id="use16568"
       width="580"
       transform="translate(-54.705847,-15.611225)"
       y="0"
       xlink:href="#g14386"
       x="0"
       height="560" />
    <use
       id="use16550"
       width="580"
       transform="translate(-115.68356,35.264187)"
       y="0"
       xlink:href="#g16510"
       x="0"
       height="560" />
    <use
       id="use16552"
       width="580"
       transform="translate(-180.03028,-16.354602)"
       y="0"
       xlink:href="#g16510"
       x="0"
       height="560" />
    <use
       id="use14430"
       width="580"
       transform="translate(-63.898237,-50.966555)"
       y="0"
       xlink:href="#g14386"
       x="0"
       height="560" />
    <use
       id="use16532"
       width="580"
       transform="translate(-108.61248,-21.304352)"
       y="0"
       xlink:href="#g16510"
       x="0"
       height="560" />
    <use
       id="use14418"
       width="580"
       transform="translate(-68.847977,-67.937125)"
       y="0"
       xlink:href="#g14386"
       x="0"
       height="560" />
    <use
       id="use14416"
       width="580"
       transform="translate(-94.303827,-59.451835)"
       y="0"
       xlink:href="#g14386"
       x="0"
       height="560" />
    <use
       id="use14396"
       width="580"
       transform="translate(-95.925147,-30.460465)"
       y="0"
       xlink:href="#g14386"
       x="0"
       height="560" />
    <use
       id="use14428"
       width="580"
       transform="translate(-76.626157,-9.9543544)"
       y="0"
       xlink:href="#g14386"
       x="0"
       height="560" />
    <use
       id="use16536"
       width="580"
       transform="translate(-168.71657,-0.79825281)"
       y="0"
       xlink:href="#g16510"
       x="0"
       height="560" />
    <use
       id="use14414"
       width="580"
       transform="translate(-114.80992,-71.472655)"
       y="0"
       xlink:href="#g14386"
       x="0"
       height="560" />
    <use
       id="use16520"
       width="580"
       transform="translate(-142.55362,40.921047)"
       y="0"
       xlink:href="#g16510"
       x="0"
       height="560" />
    <use
       id="use14422"
       width="580"
       transform="translate(-111.27439,-26.924925)"
       y="0"
       xlink:href="#g14386"
       x="0"
       height="560" />
    <use
       id="use16562"
       width="580"
       transform="translate(-131.07338,-64.401595)"
       y="0"
       xlink:href="#g14386"
       x="0"
       height="560" />
    <use
       id="use16566"
       width="580"
       transform="translate(-44.099243,-37.531535)"
       y="0"
       xlink:href="#g14386"
       x="0"
       height="560" />
  </g>
  <g
     id="g2307"
     transform="matrix(0.7666195,-0.6421017,0.6421017,0.7666195,-34.980228,135.78869)">
    <path
       id="path2303"
       d="m 147.47591,128.36334 31.625,0"
       style="fill:none;stroke:#000000;stroke-width:1px;stroke-linecap:butt;stroke-linejoin:miter;stroke-opacity:1"
       inkscape:connector-curvature="0" />
    <path
       id="path2305"
       d="m 175.29538,128.36334 0,2.18053 9.36107,-2.18053 -9.36107,-2.18053 0,2.18053"
       style="fill:#000000;fill-rule:evenodd;stroke:#000000;stroke-width:0.63893801px;stroke-linecap:butt;stroke-linejoin:miter;stroke-opacity:1"
       inkscape:connector-curvature="0" />
  </g>
  <use
     x="0"
     y="0"
     xlink:href="#g2307"
     id="use2311"
     transform="matrix(0.8799973,0.4749787,-0.4749787,0.8799973,88.888936,-54.815433)"
     width="250"
     height="170" />
  <use
     x="0"
     y="0"
     xlink:href="#g2307"
     id="use2313"
     transform="matrix(0.6393479,0.7689175,-0.7689175,0.6393479,167.62935,-61.749019)"
     width="250"
     height="170" />
  <text
     xml:space="preserve"
     style="font-size:24px;font-style:normal;font-variant:normal;font-weight:normal;font-stretch:normal;text-align:start;line-height:125%;letter-spacing:0px;word-spacing:0px;writing-mode:lr-tb;text-anchor:start;fill:#000000;fill-opacity:1;stroke:none;font-family:Sans;-inkscape-font-specification:Sans"
     x="-16.617008"
     y="58.984238"
     id="text3090"
     sodipodi:linespacing="125%"><tspan
       sodipodi:role="line"
       id="tspan3092"
       x="-16.617008"
       y="58.984238" /></text>
  <path
     d="M 106.41957,172.82843 C 125.15791,114.49212 190.91883,74.18703 256.67976,73.12637"
     sodipodi:nodetypes="cc"
     id="path3269"
     style="fill:none;fill-rule:evenodd;stroke:#000000;stroke-width:1px;stroke-linecap:butt;stroke-linejoin:miter;stroke-opacity:1" />
  <path
     sodipodi:ry="4.9497476"
     sodipodi:rx="4.9497476"
     transform="translate(59.968038,-26.87132)"
     d="M 151.6744 161.86827 A 4.9497476 4.9497476 0 1 1  141.77491,161.86827 A 4.9497476 4.9497476 0 1 1  151.6744 161.86827 z"
     sodipodi:type="arc"
     sodipodi:cy="161.86827"
     sodipodi:cx="146.72466"
     id="path3271"
     style="opacity:0.8;fill:#000000;fill-opacity:1;fill-rule:nonzero;stroke:#000000;stroke-width:0.5;stroke-linecap:butt;stroke-miterlimit:4;stroke-dasharray:none;stroke-dashoffset:0;stroke-opacity:1" />
  <path
     sodipodi:ry="4.9497476"
     sodipodi:rx="4.9497476"
     transform="matrix(0.6071429,0,0,0.6071429,116.64755,61.097574)"
     d="M 151.6744 161.86827 A 4.9497476 4.9497476 0 1 1  141.77491,161.86827 A 4.9497476 4.9497476 0 1 1  151.6744 161.86827 z"
     sodipodi:type="arc"
     sodipodi:cy="161.86827"
     sodipodi:cx="146.72466"
     id="path3273"
     style="opacity:0.8;fill:#ffffff;fill-opacity:1;fill-rule:nonzero;stroke:#000000;stroke-width:0.82352942;stroke-linecap:butt;stroke-miterlimit:4;stroke-dasharray:none;stroke-dashoffset:0;stroke-opacity:1" />
  <use
     style="fill:#000000"
     height="170"
     width="250"
     transform="translate(8.0104077,-101.59114)"
     id="use5038"
     xlink:href="#path3271"
     y="0"
     x="0" />
  <text
     sodipodi:linespacing="125%"
     id="text3207"
     y="68.530182"
     x="-80.610168"
     style="font-size:24px;font-style:normal;font-variant:normal;font-weight:normal;font-stretch:normal;text-align:start;line-height:125%;letter-spacing:0px;word-spacing:0px;writing-mode:lr-tb;text-anchor:start;fill:#000000;fill-opacity:1;stroke:none;font-family:Symbol;-inkscape-font-specification:Symbol"
     xml:space="preserve"><tspan
       y="68.530182"
       x="-80.610168"
       id="tspan3209"
       sodipodi:role="line" /></text>
  <g
     style="font-style:normal;font-variant:normal;font-weight:normal;font-stretch:normal;letter-spacing:normal;word-spacing:normal;text-anchor:start;fill:none;stroke:#000000;stroke-linecap:butt;stroke-linejoin:miter;stroke-miterlimit:10.43299961;stroke-opacity:1;stroke-dasharray:none;stroke-dashoffset:0"
     id="content"
     transform="matrix(1.7666336,0,0,-1.7666336,-396.444,1291.9667)"
     xml:space="preserve"
     stroke-miterlimit="10.433"
     font-style="normal"
     font-variant="normal"
     font-weight="normal"
     font-stretch="normal"
     font-size-adjust="none"
     letter-spacing="normal"
     word-spacing="normal"
     ns0:text="$\\nu_{e}$"
     ns0:preamble="">

<g
   transform="matrix(1.4339517,0,0,1.4339517,24.690318,-373.40673)"
   id="g3618"><path
     id="path3489"
     d="m 225.66,711.41 0,0 0,0.01 0,0 0,0 0,0 0,0 0,0.01 0,0 0,0.01 0,0 0,0 0,0.01 0,0 0,0.01 -0.01,0 0,0.01 0,0 0,0.01 -0.01,0 0,0.01 -0.01,0 0,0 0,0.01 0,0 -0.01,0 0,0 0,0 -0.01,0.01 0,0 0,0 -0.01,0 0,0 0,0 -0.01,0.01 0,0 -0.01,0 0,0 -0.01,0 0,0 -0.01,0 0,0 -0.01,0 0,0 -0.01,0 0,0 c -0.23,0 -0.96,-0.08 -1.22,-0.1 -0.08,-0.01 -0.19,-0.01 -0.19,-0.2 0,-0.11 0.09,-0.11 0.24,-0.11 0.48,0 0.5,-0.07 0.5,-0.17 0,-0.07 -0.12,-0.54 -0.19,-0.81 l -0.61,-2.44 c -0.04,-0.15 -0.11,-0.43 -0.11,-0.45 0,-0.1 0.1,-0.12 0.16,-0.12 h 0.14 c 0.7,0.12 1.78,0.51 2.81,1.47 1.32,1.22 1.58,2.58 1.58,2.67 0,0.16 -0.11,0.26 -0.28,0.26 -0.08,0 -0.31,-0.04 -0.39,-0.32 -0.64,-2.26 -2.16,-3.38 -3.29,-3.75 z"
     inkscape:connector-curvature="0"
     style="fill:#000000;stroke-width:0" /><path
     id="path3491"
     d="m 229.91,707.22 0.02,0 0.02,0 0.03,0 0.02,0 0.03,0 0.03,0 0.03,0 0.03,0 0.03,0 0.03,0 0.04,0.01 0.03,0 0.04,0 0.04,0 0.08,0.01 0.07,0.01 0.09,0.01 0.08,0.01 0.08,0.01 0.08,0.02 0.04,0.01 0.04,0.01 0.03,0.01 0.04,0.01 0.04,0.01 0.03,0.01 c 0.52,0.18 0.62,0.52 0.62,0.73 0,0.38 -0.39,0.61 -0.87,0.61 v -0.2 c 0.31,0 0.57,-0.15 0.57,-0.41 0,-0.68 -1.18,-0.68 -1.48,-0.68 h -0.34 c 0.29,1.01 1.06,1.09 1.25,1.09 v 0.2 c -0.83,0 -1.96,-0.64 -1.96,-1.83 0,-0.7 0.44,-1.31 1.25,-1.31 1.18,0 1.73,0.69 1.73,0.79 0,0.04 -0.06,0.12 -0.12,0.12 -0.04,0 -0.05,-0.02 -0.11,-0.07 -0.54,-0.64 -1.36,-0.64 -1.48,-0.64 -0.42,0 -0.7,0.27 -0.7,0.84 0,0.1 0,0.23 0.08,0.62 z"
     inkscape:connector-curvature="0"
     style="fill:#000000;stroke-width:0" /></g>
</g>  <g
     ns0:preamble=""
     ns0:text="$e^{+}$"
     word-spacing="normal"
     letter-spacing="normal"
     font-size-adjust="none"
     font-stretch="normal"
     font-weight="normal"
     font-variant="normal"
     font-style="normal"
     stroke-miterlimit="10.433"
     xml:space="preserve"
     transform="matrix(2.4988547,0,0,-2.4988547,-341.12423,1794.164)"
     id="g3746"
     style="font-style:normal;font-variant:normal;font-weight:normal;font-stretch:normal;letter-spacing:normal;word-spacing:normal;text-anchor:start;fill:none;stroke:#000000;stroke-linecap:butt;stroke-linejoin:miter;stroke-miterlimit:10.43299961;stroke-opacity:1;stroke-dasharray:none;stroke-dashoffset:0">
<path
   id="path3748"
   d="m 225.3,709.42 0.02,0 0.04,0 0.03,0 0.03,0.01 0.04,0 0.04,0 0.04,0 0.05,0 0.04,0 0.05,0.01 0.05,0 0.04,0 0.05,0.01 0.06,0 0.1,0.01 0.11,0.01 0.11,0.02 0.1,0.02 0.11,0.02 0.11,0.02 0.05,0.02 0.05,0.01 0.06,0.02 0.04,0.02 0.05,0.01 0.05,0.02 c 0.7,0.3 0.75,0.89 0.75,1.03 0,0.44 -0.38,0.84 -1.07,0.84 v -0.22 c 0.47,0 0.74,-0.28 0.74,-0.62 0,-1.04 -1.59,-1.04 -2,-1.04 h -0.41 c 0.39,1.52 1.41,1.66 1.67,1.66 v 0.22 c -1.1,0 -2.61,-0.96 -2.61,-2.7 0,-1.02 0.59,-1.8 1.57,-1.8 1.42,0 2.26,1.05 2.26,1.17 0,0.06 -0.06,0.13 -0.12,0.13 -0.05,0 -0.07,-0.02 -0.13,-0.1 -0.79,-0.99 -1.87,-0.99 -1.99,-0.99 -0.78,0 -0.87,0.84 -0.87,1.16 0,0.12 0.01,0.43 0.16,1.03 z"
   inkscape:connector-curvature="0"
   style="fill:#000000;stroke-width:0" />
<path
   id="path3750"
   d="m 231.3,712.31 h 2.13 c 0.09,0 0.25,0 0.25,0.17 0,0.17 -0.16,0.17 -0.25,0.17 h -2.13 v 2.14 c 0,0.09 0,0.25 -0.17,0.25 -0.18,0 -0.18,-0.16 -0.18,-0.25 v -2.14 h -2.13 c -0.09,0 -0.26,0 -0.26,-0.17 0,-0.17 0.16,-0.17 0.26,-0.17 h 2.13 v -2.13 c 0,-0.09 0,-0.26 0.17,-0.26 0.18,0 0.18,0.16 0.18,0.26 z"
   inkscape:connector-curvature="0"
   style="fill:#000000;stroke-width:0" />
</g>  <g
     style="font-style:normal;font-variant:normal;font-weight:normal;font-stretch:normal;letter-spacing:normal;word-spacing:normal;text-anchor:start;fill:none;stroke:#000000;stroke-linecap:butt;stroke-linejoin:miter;stroke-miterlimit:10.43299961;stroke-opacity:1;stroke-dasharray:none;stroke-dashoffset:0"
     id="g3992"
     transform="matrix(2.7284832,0,0,-2.7284832,-391.88835,2066.8245)"
     xml:space="preserve"
     stroke-miterlimit="10.433"
     font-style="normal"
     font-variant="normal"
     font-weight="normal"
     font-stretch="normal"
     font-size-adjust="none"
     letter-spacing="normal"
     word-spacing="normal"
     ns0:text="$n$"
     ns0:preamble="">
<path
   style="fill:#000000;stroke-width:0"
   inkscape:connector-curvature="0"
   d="m 224.31,707.71 0,-0.01 -0.01,-0.02 0,-0.01 0,-0.02 -0.01,-0.03 -0.01,-0.03 0,-0.03 -0.01,-0.04 -0.01,-0.03 -0.01,-0.03 0,-0.01 0,-0.02 -0.01,-0.01 0,-0.02 0,-0.01 -0.01,-0.01 0,-0.02 0,-0.01 0,-0.01 0,-0.01 -0.01,-0.01 0,-0.01 0,-0.01 0,0 0,-0.01 0,-0.01 c 0,-0.18 0.14,-0.26 0.29,-0.26 0.12,0 0.3,0.07 0.37,0.27 0.01,0.02 0.13,0.49 0.19,0.74 l 0.22,0.9 c 0.06,0.22 0.12,0.43 0.17,0.66 0.03,0.17 0.11,0.46 0.13,0.5 0.15,0.31 0.67,1.21 1.62,1.21 0.45,0 0.54,-0.36 0.54,-0.69 0,-0.62 -0.49,-1.89 -0.65,-2.32 -0.09,-0.23 -0.1,-0.35 -0.1,-0.46 0,-0.47 0.35,-0.81 0.82,-0.81 0.94,0 1.3,1.45 1.3,1.53 0,0.1 -0.09,0.1 -0.12,0.1 -0.1,0 -0.1,-0.03 -0.15,-0.18 -0.2,-0.68 -0.52,-1.24 -1.01,-1.24 -0.17,0 -0.24,0.1 -0.24,0.33 0,0.25 0.09,0.49 0.18,0.71 0.19,0.53 0.61,1.62 0.61,2.19 0,0.67 -0.43,1.06 -1.15,1.06 -0.9,0 -1.39,-0.63 -1.56,-0.86 -0.05,0.56 -0.45,0.86 -0.91,0.86 -0.46,0 -0.65,-0.38 -0.75,-0.56 -0.16,-0.34 -0.3,-0.93 -0.3,-0.97 0,-0.1 0.1,-0.1 0.12,-0.1 0.1,0 0.11,0.01 0.17,0.23 0.17,0.71 0.37,1.18 0.73,1.18 0.2,0 0.31,-0.12 0.31,-0.45 0,-0.21 -0.03,-0.32 -0.16,-0.84 z"
   id="path3994" />
</g>  <g
     ns0:preamble=""
     ns0:text="$p$"
     word-spacing="normal"
     letter-spacing="normal"
     font-size-adjust="none"
     font-stretch="normal"
     font-weight="normal"
     font-variant="normal"
     font-style="normal"
     stroke-miterlimit="10.433"
     xml:space="preserve"
     transform="matrix(3.16682,0,0,-3.16682,-587.27271,2397.8744)"
     id="g4226"
     style="font-style:normal;font-variant:normal;font-weight:normal;font-stretch:normal;letter-spacing:normal;word-spacing:normal;text-anchor:start;fill:none;stroke:#000000;stroke-linecap:butt;stroke-linejoin:miter;stroke-miterlimit:10.43299961;stroke-opacity:1;stroke-dasharray:none;stroke-dashoffset:0">
<path
   id="path4228"
   d="m 223.88,705.91 -0.01,-0.03 0,-0.03 -0.01,-0.03 -0.01,-0.02 0,-0.03 -0.01,-0.02 -0.01,-0.02 -0.01,-0.03 0,-0.02 -0.01,-0.01 -0.01,-0.02 -0.01,-0.02 -0.01,-0.01 -0.01,-0.02 -0.01,-0.01 -0.01,-0.01 -0.02,-0.01 -0.01,-0.01 -0.02,-0.01 -0.02,-0.01 -0.01,0 -0.02,-0.01 -0.03,-0.01 -0.02,0 -0.03,0 -0.02,-0.01 -0.02,0 -0.01,0 -0.02,0 -0.01,0 -0.02,0 -0.02,-0.01 -0.01,0 -0.02,0 -0.02,0 -0.02,0 -0.02,0 -0.02,0 c -0.12,0 -0.23,0 -0.23,-0.19 0,-0.08 0.05,-0.12 0.13,-0.12 0.27,0 0.56,0.03 0.84,0.03 0.33,0 0.67,-0.03 0.99,-0.03 0.05,0 0.18,0 0.18,0.2 0,0.11 -0.1,0.11 -0.24,0.11 -0.5,0 -0.5,0.07 -0.5,0.16 0,0.12 0.42,1.74 0.49,1.99 0.13,-0.29 0.41,-0.63 0.91,-0.63 l -0.01,0.21 c -0.65,0 -0.78,0.83 -0.78,0.89 0,0.02 0,0.04 0.03,0.16 l 0.48,1.95 c 0.08,0.27 0.34,0.55 0.52,0.7 0.35,0.3 0.64,0.37 0.81,0.37 0.4,0 0.64,-0.34 0.64,-0.93 0,-0.59 -0.33,-1.73 -0.51,-2.11 -0.34,-0.7 -0.82,-1.03 -1.19,-1.03 l 0.01,-0.21 c 1.16,0 2.41,1.45 2.41,2.91 0,0.94 -0.57,1.59 -1.33,1.59 -0.5,0 -0.98,-0.35 -1.31,-0.74 -0.09,0.54 -0.52,0.74 -0.89,0.74 -0.46,0 -0.65,-0.38 -0.74,-0.56 -0.18,-0.34 -0.31,-0.94 -0.31,-0.97 0,-0.1 0.1,-0.1 0.12,-0.1 0.1,0 0.11,0.01 0.17,0.23 0.17,0.71 0.37,1.18 0.73,1.18 0.17,0 0.31,-0.08 0.31,-0.45 0,-0.23 -0.03,-0.34 -0.07,-0.51 z"
   inkscape:connector-curvature="0"
   style="fill:#000000;stroke-width:0" />
</g></svg>
