<?xml version="1.0" encoding="UTF-8" standalone="no"?>
<svg xmlns:dc="http://purl.org/dc/elements/1.1/" xmlns:cc="http://creativecommons.org/ns#" xmlns:rdf="http://www.w3.org/1999/02/22-rdf-syntax-ns#" xmlns:svg="http://www.w3.org/2000/svg" xmlns="http://www.w3.org/2000/svg" xmlns:xlink="http://www.w3.org/1999/xlink" xmlns:sodipodi="http://sodipodi.sourceforge.net/DTD/sodipodi-0.dtd" xmlns:inkscape="http://www.inkscape.org/namespaces/inkscape" width="250" height="170" id="svg8725" sodipodi:version="0.32" inkscape:version="0.48.3.1 r9886" sodipodi:docname="Beta-minus_Decay.svg" inkscape:output_extension="org.inkscape.output.svg.inkscape" version="1.0">
  <sodipodi:namedview inkscape:window-height="876" inkscape:window-width="1450" inkscape:pageshadow="2" inkscape:pageopacity="0.0" guidetolerance="10.0" gridtolerance="10.0" objecttolerance="10.0" borderopacity="1.0" bordercolor="#666666" pagecolor="#ffffff" id="base" inkscape:zoom="2.8284272" inkscape:cx="98.492253" inkscape:cy="95.977751" inkscape:window-x="150" inkscape:window-y="0" inkscape:current-layer="g2530" width="250px" height="170px" showgrid="true" inkscape:window-maximized="1"/>
  <metadata id="metadata8799">
    <rdf:RDF>
      <cc:Work rdf:about="">
        <dc:format>image/svg+xml</dc:format>
        <dc:type rdf:resource="http://purl.org/dc/dcmitype/StillImage"/>
      </cc:Work>
    </rdf:RDF>
  </metadata>
  <title id="title8727">Cherenkov radiation (a kind of shock wave)</title>
  <defs id="defs8791">
    <filter id="filter13170" width="1.7196735" y="-0.38553935" x="-0.35983673" height="1.7710787" inkscape:collect="always">
      <feGaussianBlur stdDeviation="0.28112245" id="feGaussianBlur13172" inkscape:collect="always"/>
    </filter>
    <filter id="filter11863" width="1.1209787" y="-0.12097874" x="-0.060489368" height="1.2419575" inkscape:collect="always">
      <feGaussianBlur stdDeviation="0.50407807" id="feGaussianBlur11865" inkscape:collect="always"/>
    </filter>
    <clipPath id="clipPath11835" clipPathUnits="userSpaceOnUse">
      <path style="opacity:1;fill:none;fill-opacity:1;fill-rule:nonzero;stroke:#b22222;stroke-width:2;stroke-linecap:butt;stroke-miterlimit:4;stroke-dasharray:none;stroke-dashoffset:0;stroke-opacity:1" id="path11837" sodipodi:cx="118" sodipodi:cy="152" sodipodi:type="arc" d="M 126 152 A 8 8 0 1 1  110,152 A 8 8 0 1 1  126 152 z" sodipodi:rx="8" sodipodi:ry="8"/>
    </clipPath>
    <clipPath id="clipPath11831" clipPathUnits="userSpaceOnUse">
      <path style="opacity:1;fill:none;fill-opacity:1;fill-rule:nonzero;stroke:#b22222;stroke-width:1.78725791;stroke-linecap:butt;stroke-miterlimit:4;stroke-dasharray:none;stroke-dashoffset:0;stroke-opacity:1" id="path11833" sodipodi:cx="118" sodipodi:cy="152" sodipodi:type="arc" d="M 126 152 A 8 8 0 1 1  110,152 A 8 8 0 1 1  126 152 z" transform="matrix(1.3067618,0,0,0.9582726,-44.197896,-2.990612)" sodipodi:rx="8" sodipodi:ry="8"/>
    </clipPath>
    <filter id="filter10842" width="1.26449" y="-0.1322448" x="-0.132245" height="1.2644897" inkscape:collect="always">
      <feGaussianBlur stdDeviation="0.95830044" id="feGaussianBlur10844" inkscape:collect="always"/>
    </filter>
    <linearGradient id="linearGradient11817" inkscape:collect="always">
      <stop offset="0" style="stop-color:#b22222;stop-opacity:1;" id="stop11819"/>
      <stop offset="1" style="stop-color:#b22222;stop-opacity:0;" id="stop11821"/>
    </linearGradient>
    <filter id="filter16428" width="1.2307297" y="-0.21470195" x="-0.11536486" height="1.4294039" inkscape:collect="always">
      <feGaussianBlur stdDeviation="0.938742" id="feGaussianBlur16430" inkscape:collect="always"/>
    </filter>
    <linearGradient id="linearGradient3267" gradientUnits="userSpaceOnUse" inkscape:collect="always" x1="110" x2="110" xlink:href="#linearGradient11817" y1="130.75" y2="148.25"/>
  </defs>
  <g id="g14386" transform="translate(185.21349,93.75347)">
    <path style="opacity:1;fill:#ffffff;fill-opacity:1;fill-rule:nonzero;stroke:none;stroke-width:1.39137828;stroke-linecap:butt;stroke-miterlimit:4;stroke-dasharray:none;stroke-dashoffset:0;stroke-opacity:1" id="path13311" sodipodi:cx="118" sodipodi:cy="152" sodipodi:type="arc" d="m 126,152 c 0,4.41828 -3.58172,8 -8,8 -4.41828,0 -8,-3.58172 -8,-8 0,-4.41828 3.58172,-8 8,-8 4.41828,0 8,3.58172 8,8 z" clip-path="url(#clipPath11835)" transform="matrix(1.437438,0,0,1.4374089,-157.11818,-205.98688)" sodipodi:rx="8" sodipodi:ry="8"/>
    <path style="opacity:1;fill:none;fill-opacity:1;fill-rule:nonzero;stroke:#b22222;stroke-width:1.39137828;stroke-linecap:butt;stroke-miterlimit:4;stroke-dasharray:none;stroke-dashoffset:0;stroke-opacity:1;filter:url(#filter10842)" id="path9695" sodipodi:cx="118" sodipodi:cy="152" sodipodi:type="arc" d="m 126,152 c 0,4.41828 -3.58172,8 -8,8 -4.41828,0 -8,-3.58172 -8,-8 0,-4.41828 3.58172,-8 8,-8 4.41828,0 8,3.58172 8,8 z" clip-path="url(#clipPath11835)" transform="matrix(1.437438,0,0,1.4374089,-157.11818,-205.98688)" sodipodi:rx="8" sodipodi:ry="8"/>
    <path style="opacity:1;fill:url(#linearGradient3267);fill-opacity:1;fill-rule:nonzero;stroke:none;stroke-width:2;stroke-linecap:butt;stroke-miterlimit:4;stroke-dasharray:none;stroke-dashoffset:0;stroke-opacity:1;filter:url(#filter11863)" id="path10846" sodipodi:cx="110" sodipodi:cy="140" sodipodi:type="arc" d="m 120,140 c 0,2.76142 -4.47715,5 -10,5 -5.52285,0 -10,-2.23858 -10,-5 0,-2.76142 4.47715,-5 10,-5 5.52285,0 10,2.23858 10,5 z" clip-path="url(#clipPath11831)" transform="matrix(1.0507331,0.325515,-0.443884,1.4328178,-39.760586,-227.66727)" sodipodi:rx="10" sodipodi:ry="5"/>
    <path style="opacity:1;fill:#ffffff;fill-opacity:1;fill-rule:nonzero;stroke:none;stroke-width:2;stroke-linecap:butt;stroke-miterlimit:4;stroke-dasharray:none;stroke-dashoffset:0;stroke-opacity:1;filter:url(#filter13170)" id="path11867" sodipodi:cx="78.4375" sodipodi:cy="140.5" sodipodi:type="arc" d="m 79.375,140.5 c 0,0.48325 -0.419733,0.875 -0.9375,0.875 -0.517767,0 -0.9375,-0.39175 -0.9375,-0.875 0,-0.48325 0.419733,-0.875 0.9375,-0.875 0.517767,0 0.9375,0.39175 0.9375,0.875 z" transform="matrix(-1.478029,-1.5383567,-0.7211047,0.6928261,235.64213,31.241018)" sodipodi:rx="0.9375" sodipodi:ry="0.875"/>
  </g>
  <g id="g16510" transform="translate(138.35741,134.80193)">
    <path style="opacity:1;fill:#ffffff;fill-opacity:1;fill-rule:nonzero;stroke:none;stroke-width:1.39137828;stroke-linecap:butt;stroke-miterlimit:4;stroke-dasharray:none;stroke-dashoffset:0;stroke-opacity:1" id="path16512" sodipodi:cx="118" sodipodi:cy="152" sodipodi:type="arc" d="m 126,152 c 0,4.41828 -3.58172,8 -8,8 -4.41828,0 -8,-3.58172 -8,-8 0,-4.41828 3.58172,-8 8,-8 4.41828,0 8,3.58172 8,8 z" clip-path="url(#clipPath11835)" transform="matrix(1.437438,0,0,1.4374089,-157.11818,-205.98688)" sodipodi:rx="8" sodipodi:ry="8"/>
    <path style="opacity:1;fill:none;fill-opacity:1;fill-rule:nonzero;stroke:#4682b4;stroke-width:1.39137828;stroke-linecap:butt;stroke-miterlimit:4;stroke-dasharray:none;stroke-dashoffset:0;stroke-opacity:1;filter:url(#filter10842)" id="path16514" sodipodi:cx="118" sodipodi:cy="152" sodipodi:type="arc" d="m 126,152 c 0,4.41828 -3.58172,8 -8,8 -4.41828,0 -8,-3.58172 -8,-8 0,-4.41828 3.58172,-8 8,-8 4.41828,0 8,3.58172 8,8 z" clip-path="url(#clipPath11835)" transform="matrix(1.437438,0,0,1.4374089,-157.11818,-205.98688)" sodipodi:rx="8" sodipodi:ry="8"/>
    <path style="opacity:1;fill:#4682b4;fill-opacity:1;fill-rule:nonzero;stroke:none;stroke-width:2;stroke-linecap:butt;stroke-miterlimit:4;stroke-dasharray:none;stroke-dashoffset:0;stroke-opacity:1;filter:url(#filter16428)" id="path16516" sodipodi:cx="110" sodipodi:cy="140" sodipodi:type="arc" d="m 120,140 c 0,2.76142 -4.47715,5 -10,5 -5.52285,0 -10,-2.23858 -10,-5 0,-2.76142 4.47715,-5 10,-5 5.52285,0 10,2.23858 10,5 z" clip-path="url(#clipPath11831)" transform="matrix(1.0507331,0.325515,-0.443884,1.4328178,-39.760586,-227.66727)" sodipodi:rx="10" sodipodi:ry="5"/>
    <path style="opacity:1;fill:#ffffff;fill-opacity:1;fill-rule:nonzero;stroke:none;stroke-width:2;stroke-linecap:butt;stroke-miterlimit:4;stroke-dasharray:none;stroke-dashoffset:0;stroke-opacity:1;filter:url(#filter13170)" id="path16518" sodipodi:cx="78.4375" sodipodi:cy="140.5" sodipodi:type="arc" d="m 79.375,140.5 c 0,0.48325 -0.419733,0.875 -0.9375,0.875 -0.517767,0 -0.9375,-0.39175 -0.9375,-0.875 0,-0.48325 0.419733,-0.875 0.9375,-0.875 0.517767,0 0.9375,0.39175 0.9375,0.875 z" transform="matrix(-1.478029,-1.5383567,-0.7211047,0.6928261,235.64213,31.241018)" sodipodi:rx="0.9375" sodipodi:ry="0.875"/>
  </g>
  <g id="g2530" transform="translate(2.40855e-2,2.1366606)">
    <path d="M 215.07018,97.973645 L 215.0556,98.046495 L 215.03618,98.119355 L 215.0216,98.187355 L 215.00218,98.250495 L 214.9876,98.313645 L 214.96818,98.367075 L 214.9536,98.425355 L 214.93418,98.473925 L 214.91475,98.522495 L 214.89532,98.566215 L 214.87589,98.609925 L 214.8516,98.648785 L 214.82732,98.682785 L 214.80303,98.716785 L 214.77389,98.750785 L 214.74475,98.775075 L 214.71075,98.804215 L 214.67675,98.828495 L 214.63789,98.847925 L 214.59418,98.867355 L 214.55046,98.886785 L 214.50189,98.901355 L 214.44846,98.915925 L 214.39018,98.925645 L 214.32703,98.935355 L 214.26389,98.945075 L 214.22989,98.945075 L 214.19103,98.949925 L 214.15703,98.954785 L 214.11818,98.954785 L 214.07932,98.959645 L 214.0356,98.959645 L 213.99675,98.959645 L 213.95303,98.964495 L 213.90932,98.964495 L 213.86075,98.964495 L 213.81218,98.964495 L 213.7636,98.964495 C 213.47218,98.964495 213.20989,98.964495 213.20989,99.425925 C 213.20989,99.615355 213.33132,99.712495 213.52075,99.712495 C 214.17646,99.712495 214.87589,99.644495 215.55589,99.644495 C 216.35246,99.644495 217.17332,99.712495 217.95046,99.712495 C 218.07189,99.712495 218.3876,99.712495 218.3876,99.231645 C 218.3876,98.964495 218.14475,98.964495 217.80475,98.964495 C 216.59532,98.964495 216.59532,98.794495 216.59532,98.575925 C 216.59532,98.289355 217.61046,94.345355 217.78046,93.738215 C 218.09617,94.437645 218.77132,95.287645 220.00503,95.287645 L 219.9856,94.753355 C 218.3876,94.753355 218.07189,92.747355 218.07189,92.601645 C 218.07189,92.553075 218.07189,92.504505 218.14475,92.213075 L 219.32989,87.472505 C 219.49989,86.816785 220.15075,86.141645 220.58789,85.777355 C 221.43303,85.029355 222.13732,84.859355 222.54532,84.859355 C 223.51674,84.859355 224.09474,85.704505 224.09474,87.132505 C 224.09474,88.560505 223.29817,91.343645 222.86103,92.261645 C 222.04017,93.956785 220.87932,94.753355 219.9856,94.753355 L 220.00503,95.287645 C 222.81246,95.287645 225.83846,91.751645 225.83846,88.196215 C 225.83846,85.923075 224.45903,84.325075 222.62303,84.325075 C 221.40875,84.325075 220.24789,85.199355 219.45132,86.141645 C 219.20846,84.835075 218.16903,84.325075 217.27046,84.325075 C 216.15817,84.325075 215.7016,85.272215 215.48303,85.704505 C 215.04589,86.530215 214.73018,87.977645 214.73018,88.050505 C 214.73018,88.293355 214.97303,88.293355 215.0216,88.293355 C 215.26446,88.293355 215.28875,88.269075 215.43446,87.739645 C 215.84732,86.020215 216.32817,84.859355 217.20246,84.859355 C 217.61046,84.859355 217.95046,85.053645 217.95046,85.971645 C 217.95046,86.530215 217.8776,86.792505 217.78046,87.205355 L 215.07018,97.973645 z " id="path3339" style="font-style:normal;font-variant:normal;font-weight:normal;font-stretch:normal;letter-spacing:normal;word-spacing:normal;text-anchor:start;fill:#000000;fill-opacity:1;fill-rule:evenodd;stroke:#000000;stroke-width:0;stroke-linecap:butt;stroke-linejoin:miter;stroke-miterlimit:10.43299961;stroke-dasharray:none;stroke-dashoffset:0;stroke-opacity:1"/>
    <path d="M 126.78263,162.18187 L 126.77777,162.21587 L 126.76806,162.25472 L 126.7632,162.28872 L 126.75349,162.32758 L 126.73891,162.40528 L 126.71949,162.483 L 126.70006,162.56071 L 126.68549,162.63844 L 126.66606,162.71614 L 126.64663,162.79385 L 126.64177,162.83271 L 126.63206,162.86671 L 126.62234,162.90071 L 126.61749,162.93471 L 126.60777,162.96871 L 126.60291,163.00271 L 126.59806,163.03185 L 126.58834,163.061 L 126.58349,163.08529 L 126.57863,163.11444 L 126.57377,163.13871 L 126.57377,163.15814 L 126.56891,163.17758 L 126.56891,163.197 L 126.56406,163.21158 L 126.56406,163.22129 C 126.56406,163.65844 126.90406,163.87701 127.26834,163.87701 C 127.55977,163.87701 127.99691,163.68272 128.16206,163.197 C 128.18634,163.14844 128.47777,162.01186 128.62349,161.40957 C 128.79349,160.68101 128.98777,159.95728 129.15777,159.22871 C 129.29863,158.69929 129.44434,158.16501 129.56577,157.60644 C 129.66291,157.19844 129.8572,156.499 129.88148,156.40186 C 130.24577,155.64901 131.52806,153.44871 133.82548,153.44871 C 134.91348,153.44871 135.13206,154.34243 135.13206,155.14387 C 135.13206,156.63986 133.94691,159.73871 133.55834,160.77814 C 133.33977,161.33671 133.31548,161.62329 133.31548,161.89044 C 133.31548,163.027 134.16548,163.87701 135.30206,163.87701 C 137.5752,163.87701 138.46891,160.34101 138.46891,160.14672 C 138.46891,159.90871 138.2552,159.90871 138.17748,159.90871 C 137.93948,159.90871 137.93948,159.98158 137.81806,160.34101 C 137.33234,161.98757 136.53577,163.34271 135.35063,163.34271 C 134.93777,163.34271 134.76777,163.09985 134.76777,162.54614 C 134.76777,161.939 134.98634,161.36101 135.20491,160.82671 C 135.66148,159.54444 136.68148,156.88271 136.68148,155.50328 C 136.68148,153.88587 135.6372,152.91444 133.89834,152.91444 C 131.72234,152.91444 130.5372,154.46386 130.12434,155.02244 C 130.00291,153.6673 129.0072,152.91444 127.89977,152.91444 C 126.78263,152.91444 126.32606,153.86158 126.0832,154.29386 C 125.69463,155.11958 125.35949,156.54271 125.35949,156.63986 C 125.35949,156.88271 125.59749,156.88271 125.64606,156.88271 C 125.88891,156.88271 125.9132,156.85844 126.05891,156.32901 C 126.46691,154.60958 126.95263,153.44871 127.82691,153.44871 C 128.30777,153.44871 128.57491,153.76444 128.57491,154.561 C 128.57491,155.06614 128.50206,155.33328 128.18634,156.59129 L 126.78263,162.18187 z " id="path3341" style="font-style:normal;font-variant:normal;font-weight:normal;font-stretch:normal;letter-spacing:normal;word-spacing:normal;text-anchor:start;fill:#000000;fill-opacity:1;fill-rule:evenodd;stroke:#000000;stroke-width:0;stroke-linecap:butt;stroke-linejoin:miter;stroke-miterlimit:10.43299961;stroke-dasharray:none;stroke-dashoffset:0;stroke-opacity:1"/>
    <g id="g3146">
      <polygon transform="matrix(0.4857142,0,0,-0.4857142,-10.360871,353.82348)" id="polygon3631" points="479.42,433.84 479.42,433.84 479.42,435.39 461.44,435.39 461.44,433.84 " style="font-style:normal;font-variant:normal;font-weight:normal;font-stretch:normal;letter-spacing:normal;word-spacing:normal;text-anchor:start;fill:#000000;stroke:#000000;stroke-width:0;stroke-linecap:butt;stroke-linejoin:miter;stroke-miterlimit:10.43299961;stroke-opacity:1;stroke-dasharray:none;stroke-dashoffset:0"/>
      <path inkscape:connector-curvature="0" id="path3633" d="m 216.54537,146.19523 0,0 0,-0.005 0,0 0,-0.005 -0.005,-0.01 0,-0.005 0,-0.01 0,-0.01 0,-0.01 -0.005,-0.01 0,-0.01 -0.005,-0.01 -0.005,-0.01 -0.005,-0.0146 -0.005,-0.01 -0.005,-0.0146 -0.005,-0.01 -0.01,-0.0146 -0.01,-0.01 -0.01,-0.01 -0.01,-0.0146 -0.005,-0.005 -0.01,-0.005 -0.005,-0.005 -0.005,-0.005 -0.01,-0.005 -0.005,-0.005 -0.01,-0.005 -0.01,-0.005 -0.005,-0.005 -0.01,0 -0.01,-0.005 -0.01,-0.005 -0.01,-0.005 -0.01,0 -0.01,-0.005 -0.0146,0 -0.01,-0.005 -0.01,0 -0.0146,-0.005 -0.01,0 -0.0146,0 -0.0146,0 -0.0146,-0.005 -0.0146,0 c -0.55857,0 -2.32171,0.19428 -2.95314,0.24286 -0.18943,0.0243 -0.45657,0.0486 -0.45657,0.48571 0,0.28657 0.21371,0.28657 0.578,0.28657 1.16085,0 1.20943,0.17 1.20943,0.41286 0,0.17 -0.29143,1.30657 -0.45658,1.96228 l -1.47657,5.92572 c -0.0971,0.36428 -0.26714,1.03942 -0.26714,1.088 0,0.26714 0.24286,0.29142 0.38857,0.29142 l 0.33514,0 c 1.69515,-0.29142 4.33257,-1.23371 6.82429,-3.55542 3.196,-2.97743 3.84685,-6.26572 3.84685,-6.48429 0,-0.41285 -0.29142,-0.65571 -0.69942,-0.65571 -0.19429,0 -0.75286,0.0971 -0.94715,0.79657 -1.54457,5.49343 -5.22142,8.20371 -7.98028,9.10228 l 2.37028,-9.63171 z" style="font-style:normal;font-variant:normal;font-weight:normal;font-stretch:normal;letter-spacing:normal;word-spacing:normal;text-anchor:start;fill:#000000;stroke:#000000;stroke-width:0;stroke-linecap:butt;stroke-linejoin:miter;stroke-miterlimit:10.43299961;stroke-opacity:1;stroke-dasharray:none;stroke-dashoffset:0"/>
      <path inkscape:connector-curvature="0" id="path3635" d="m 226.57537,156.16209 0.0486,0 0.0534,0 0.0534,0 0.0631,0 0.0632,-0.005 0.068,0 0.0728,0 0.0777,-0.005 0.0777,-0.005 0.0826,-0.005 0.0826,-0.005 0.0874,-0.005 0.0874,-0.005 0.0923,-0.005 0.18943,-0.0194 0.18943,-0.0194 0.19914,-0.0243 0.19914,-0.0292 0.19429,-0.034 0.19428,-0.0388 0.0971,-0.0194 0.0923,-0.0243 0.0971,-0.0243 0.0874,-0.0291 0.0923,-0.0243 0.0874,-0.0291 c 1.24828,-0.44199 1.48628,-1.25314 1.48628,-1.76314 0,-0.93257 -0.93257,-1.49114 -2.09828,-1.49114 l 0,0.476 c 0.74314,0 1.36971,0.374 1.36971,1.01514 0,1.64172 -2.86086,1.64172 -3.58943,1.64172 l -0.83057,0 c 0.69457,-2.45286 2.57429,-2.65686 3.05029,-2.65686 l 0,-0.476 c -2.03515,0 -4.77457,1.55914 -4.77457,4.454 0,1.71457 1.06371,3.18628 3.04542,3.18628 2.86086,0 4.20143,-1.67571 4.20143,-1.91371 0,-0.102 -0.15057,-0.28657 -0.28657,-0.28657 -0.102,0 -0.136,0.034 -0.272,0.16514 -1.32114,1.55914 -3.30286,1.55914 -3.60886,1.55914 -1.01514,0 -1.69028,-0.67514 -1.69028,-2.04971 0,-0.238 0,-0.57314 0.19914,-1.50571 l 1.06857,0 z" style="font-style:normal;font-variant:normal;font-weight:normal;font-stretch:normal;letter-spacing:normal;word-spacing:normal;text-anchor:start;fill:#000000;stroke:#000000;stroke-width:0;stroke-linecap:butt;stroke-linejoin:miter;stroke-miterlimit:10.43299961;stroke-opacity:1;stroke-dasharray:none;stroke-dashoffset:0"/>
    </g>
    <g id="g3141">
      <g id="g3558" transform="translate(47.293126,-98.24423)">
        <path inkscape:connector-curvature="0" style="font-style:normal;font-variant:normal;font-weight:normal;font-stretch:normal;letter-spacing:normal;word-spacing:normal;text-anchor:start;fill:#000000;fill-opacity:1;fill-rule:evenodd;stroke:#000000;stroke-width:0;stroke-linecap:butt;stroke-linejoin:miter;stroke-miterlimit:10.43299961;stroke-opacity:1;stroke-dasharray:none;stroke-dashoffset:0" d="m 192.17177,219.42846 0.0194,0 0.0243,0 0.0194,0 0.0243,0 0.0243,0 0.0243,0 0.0291,-0.005 0.0243,0 0.0243,-0.005 0.0291,0 0.0243,-0.005 0.0243,-0.005 0.0291,-0.01 0.0243,-0.005 0.0243,-0.01 0.0243,-0.005 0.0243,-0.01 0.0243,-0.0146 0.0194,-0.01 0.0243,-0.0146 0.0194,-0.0194 0.0194,-0.0146 0.0146,-0.0194 0.01,-0.01 0.01,-0.01 0.005,-0.0146 0.01,-0.01 0.005,-0.01 0.01,-0.0146 0.005,-0.0146 0.005,-0.01 0.005,-0.0146 0.005,-0.0146 0.005,-0.0146 0,-0.0146 0.005,-0.0194 0.005,-0.0146 0,-0.0194 0,-0.0146 0.005,-0.0194 0,-0.0194 c 0,-0.42257 -0.39343,-0.42257 -0.62657,-0.42257 l -10.2,0 c -0.23314,0 -0.62172,0 -0.62172,0.42257 0,0.408 0.40315,0.408 0.62172,0.408 l 10.2,0 z" id="path3345"/>
      </g>
      <path id="path3635-2" d="m 220.65031,127.29141 0.074,0 0.0814,0 0.0814,0 0.0962,0 0.0962,-0.007 0.1036,0 0.111,0 0.1184,-0.007 0.11841,-0.007 0.1258,-0.007 0.1258,-0.007 0.1332,-0.007 0.1332,-0.007 0.1406,-0.007 0.2886,-0.0296 0.2886,-0.0296 0.3034,-0.037 0.30341,-0.0444 0.296,-0.0518 0.296,-0.0592 0.148,-0.0296 0.14061,-0.037 0.148,-0.037 0.13319,-0.0444 0.14061,-0.037 0.1332,-0.0444 c 1.90181,-0.67337 2.26442,-1.90918 2.26442,-2.68619 0,-1.4208 -1.42082,-2.27181 -3.19683,-2.27181 l 0,0.7252 c 1.13221,0 2.08682,0.56981 2.08682,1.54661 0,2.50122 -4.35864,2.50122 -5.46864,2.50122 l -1.26541,0 c 1.05821,-3.73702 3.92202,-4.04783 4.64723,-4.04783 l 0,-0.7252 c -3.10062,0 -7.27425,2.37542 -7.27425,6.78585 0,2.61222 1.62061,4.85443 4.63983,4.85443 4.35863,0 6.40105,-2.55302 6.40105,-2.91562 0,-0.1554 -0.2294,-0.4366 -0.43661,-0.4366 -0.1554,0 -0.2072,0.0518 -0.4144,0.2516 -2.01281,2.37542 -5.03204,2.37542 -5.49824,2.37542 -1.54661,0 -2.57522,-1.02861 -2.57522,-3.12282 0,-0.36261 0,-0.87321 0.3034,-2.29402 l 1.62802,0 z" style="font-style:normal;font-variant:normal;font-weight:normal;font-stretch:normal;letter-spacing:normal;word-spacing:normal;text-anchor:start;fill:#000000;fill-opacity:1;fill-rule:evenodd;stroke:#000000;stroke-width:0;stroke-linecap:butt;stroke-linejoin:miter;stroke-miterlimit:10.43299961;stroke-opacity:1;stroke-dasharray:none;stroke-dashoffset:0" inkscape:connector-curvature="0"/>
    </g>
    <g style="fill:none;stroke:#000000;stroke-width:0.63610566" transform="matrix(0.8567118,0,0,0.7211852,7.4271281,-27.776444)" id="g2413">
      <path style="fill:none;fill-rule:evenodd;stroke:#000000;stroke-width:0.63610566;stroke-linecap:butt;stroke-linejoin:miter;stroke-opacity:1" id="path2405" d="M 114.5513,137.66339 L 148.30916,120.69282"/>
      <path style="fill:none;fill-rule:evenodd;stroke:#000000;stroke-width:0.63610566;stroke-linecap:butt;stroke-linejoin:miter;stroke-opacity:1" d="M 156.95709,116.23868 L 193.76035,97.693569" id="path2409"/>
      <path style="fill:none;fill-rule:evenodd;stroke:#000000;stroke-width:0.63610566;stroke-linecap:butt;stroke-linejoin:miter;stroke-opacity:1" id="path2411" d="M 197.76217,95.400061 L 241.16503,73.442815"/>
    </g>
    <g style="fill:none;stroke:#000000;stroke-width:0.67524683" transform="matrix(0.847929,0,0,0.6466294,4.6614002,-14.045306)" id="g2418">
      <path style="fill:none;fill-rule:evenodd;stroke:#000000;stroke-width:0.67524683;stroke-linecap:butt;stroke-linejoin:miter;stroke-opacity:1" id="path2420" d="M 114.55129,137.66339 L 182.38191,102.80293"/>
      <path style="fill:none;fill-rule:evenodd;stroke:#000000;stroke-width:0.67524683;stroke-linecap:butt;stroke-linejoin:miter;stroke-opacity:1" id="path2424" d="M 197.76217,95.400061 L 241.16503,73.442815"/>
    </g>
    <g style="fill:none;stroke:#000000;stroke-width:0.67563719" transform="matrix(0.8809086,0,0,0.6217018,6.4169947,-9.406568)" id="g2269">
      <path style="fill:none;fill-rule:evenodd;stroke:#000000;stroke-width:0.67563719;stroke-linecap:butt;stroke-linejoin:miter;stroke-opacity:1" id="path2271" d="M 114.5513,137.66339 L 148.30916,120.69282"/>
      <path style="fill:none;fill-rule:evenodd;stroke:#000000;stroke-width:0.67563719;stroke-linecap:butt;stroke-linejoin:miter;stroke-opacity:1" d="M 156.95709,116.23868 L 193.76035,97.693569" id="path2273"/>
      <path style="fill:none;fill-rule:evenodd;stroke:#000000;stroke-width:0.67563719;stroke-linecap:butt;stroke-linejoin:miter;stroke-opacity:1" id="path2275" d="M 197.76217,95.400061 L 241.16503,73.442815"/>
    </g>
    <g id="g2479">
      <use id="use2547" width="400" transform="translate(-55.69322,-70.455843)" y="0" xlink:href="#g16510" x="0" height="200"/>
      <use id="use2545" width="400" transform="translate(-90.427976,-7.8804646)" y="0" xlink:href="#g14386" x="0" height="200"/>
      <use id="use2386" width="580" transform="translate(-100.12721,-83.176193)" y="0" xlink:href="#g16510" x="0" height="560"/>
      <use id="use2384" width="580" transform="translate(-162.08988,-36.799295)" y="0" xlink:href="#g14386" x="0" height="560"/>
      <use id="use16588" width="580" transform="translate(-124.16884,-69.034054)" y="0" xlink:href="#g16510" x="0" height="560"/>
      <use id="use16584" width="580" transform="translate(-184.45994,-6.0652856)" y="0" xlink:href="#g14386" x="0" height="560"/>
      <use id="use16586" width="580" transform="translate(-81.03532,-83.176194)" y="0" xlink:href="#g16510" x="0" height="560"/>
      <use id="use16582" width="580" transform="translate(-98.192906,-19.500316)" y="0" xlink:href="#g14386" x="0" height="560"/>
      <use id="use16580" width="580" transform="translate(-63.35765,-70.448274)" y="0" xlink:href="#g16510" x="0" height="560"/>
      <use id="use16578" width="580" transform="translate(-115.87058,-39.299306)" y="0" xlink:href="#g14386" x="0" height="560"/>
      <use id="use16576" width="580" transform="translate(-106.49117,-78.226454)" y="0" xlink:href="#g16510" x="0" height="560"/>
      <use id="use16574" width="580" transform="translate(-178.80308,23.633204)" y="0" xlink:href="#g14386" x="0" height="560"/>
      <use id="use16572" width="580" transform="translate(-161.83252,37.068235)" y="0" xlink:href="#g14386" x="0" height="560"/>
      <use id="use16570" width="580" transform="translate(-105.07696,1.6766158)" y="0" xlink:href="#g16510" x="0" height="560"/>
      <use id="use16564" width="580" transform="translate(-121.52744,-33.642446)" y="0" xlink:href="#g14386" x="0" height="560" inkscape:transform-center-y="-127.27922" inkscape:transform-center-x="-40.305087"/>
      <use id="use16538" width="580" transform="translate(-138.31099,-33.678725)" y="0" xlink:href="#g16510" x="0" height="560"/>
      <use id="use16560" width="580" transform="translate(-175.97465,11.612384)" y="0" xlink:href="#g14386" x="0" height="560"/>
      <use id="use16558" width="580" transform="translate(-152.64013,34.239805)" y="0" xlink:href="#g14386" x="0" height="560"/>
      <use id="use16556" width="580" transform="translate(-138.49799,-39.299296)" y="0" xlink:href="#g14386" x="0" height="560"/>
      <use id="use14394" width="580" transform="translate(-156.17566,-12.429236)" y="0" xlink:href="#g14386" x="0" height="560"/>
      <use id="use14420" width="580" transform="translate(-132.13403,2.4199944)" y="0" xlink:href="#g14386" x="0" height="560"/>
      <use id="use14424" width="580" transform="translate(-112.33505,24.340304)" y="0" xlink:href="#g14386" x="0" height="560"/>
      <use id="use14426" width="580" transform="translate(-105.26398,9.4910744)" y="0" xlink:href="#g14386" x="0" height="560"/>
      <use id="use16522" width="580" transform="translate(-83.15664,-66.912744)" y="0" xlink:href="#g16510" x="0" height="560"/>
      <use id="use16524" width="580" transform="translate(-101.54142,-69.034064)" y="0" xlink:href="#g16510" x="0" height="560"/>
      <use id="use16526" width="580" transform="translate(-82.44953,-23.072124)" y="0" xlink:href="#g16510" x="0" height="560"/>
      <use id="use16528" width="580" transform="translate(-49.215506,-44.285325)" y="0" xlink:href="#g16510" x="0" height="560"/>
      <use id="use16530" width="580" transform="translate(-69.72161,-33.678715)" y="0" xlink:href="#g16510" x="0" height="560"/>
      <use id="use16534" width="580" transform="translate(-79.6211,-53.477714)" y="0" xlink:href="#g16510" x="0" height="560"/>
      <use id="use16540" width="580" transform="translate(-101.54142,-42.164005)" y="0" xlink:href="#g16510" x="0" height="560"/>
      <use id="use16542" width="580" transform="translate(-123.46173,-16.001054)" y="0" xlink:href="#g16510" x="0" height="560"/>
      <use id="use16544" width="580" transform="translate(-94.47036,-14.586834)" y="0" xlink:href="#g16510" x="0" height="560"/>
      <use id="use16546" width="580" transform="translate(-77.49978,4.5050358)" y="0" xlink:href="#g16510" x="0" height="560"/>
      <use id="use16548" width="580" transform="translate(-48.508406,-20.950784)" y="0" xlink:href="#g16510" x="0" height="560"/>
      <use id="use16568" width="580" transform="translate(-103.14266,29.290054)" y="0" xlink:href="#g14386" x="0" height="560"/>
      <use id="use16550" width="580" transform="translate(-64.77187,-2.5660242)" y="0" xlink:href="#g16510" x="0" height="560"/>
      <use id="use16552" width="580" transform="translate(-129.11859,-54.184814)" y="0" xlink:href="#g16510" x="0" height="560"/>
      <use id="use14430" width="580" transform="translate(-112.33505,-6.0652756)" y="0" xlink:href="#g14386" x="0" height="560"/>
      <use id="use16532" width="580" transform="translate(-57.70079,-59.134564)" y="0" xlink:href="#g16510" x="0" height="560"/>
      <use id="use14418" width="580" transform="translate(-117.28479,-23.035846)" y="0" xlink:href="#g14386" x="0" height="560"/>
      <use id="use14416" width="580" transform="translate(-142.74064,-14.550556)" y="0" xlink:href="#g14386" x="0" height="560"/>
      <use id="use14396" width="580" transform="translate(-144.36196,14.440814)" y="0" xlink:href="#g14386" x="0" height="560"/>
      <use id="use14428" width="580" transform="translate(-125.06297,34.946925)" y="0" xlink:href="#g14386" x="0" height="560"/>
      <use id="use16536" width="580" transform="translate(-117.80488,-38.628465)" y="0" xlink:href="#g16510" x="0" height="560"/>
      <use id="use14414" width="580" transform="translate(-163.24673,-26.571376)" y="0" xlink:href="#g14386" x="0" height="560"/>
      <use id="use16520" width="580" transform="translate(-91.64193,3.0908358)" y="0" xlink:href="#g16510" x="0" height="560"/>
      <use id="use14422" width="580" transform="translate(-159.7112,17.976354)" y="0" xlink:href="#g14386" x="0" height="560"/>
      <use id="use16562" width="580" transform="translate(-179.51019,-19.500316)" y="0" xlink:href="#g14386" x="0" height="560"/>
      <use id="use16566" width="580" transform="translate(-92.536056,7.3697444)" y="0" xlink:href="#g14386" x="0" height="560"/>
    </g>
    <g id="g2307" transform="matrix(0.7666195,-0.6421017,0.6421017,0.7666195,-35.004313,133.65203)">
      <path id="path2303" d="M 147.47591,128.36334 L 179.10091,128.36334" style="fill:none;fill-rule:evenodd;stroke:#000000;stroke-width:1px;stroke-linecap:butt;stroke-linejoin:miter;stroke-opacity:1"/>
      <path id="path2305" d="M 175.29538,128.36334 L 175.29538,130.54387 L 184.65645,128.36334 L 175.29538,126.18281 L 175.29538,128.36334" style="fill:#000000;fill-rule:evenodd;stroke:#000000;stroke-width:0.63893801px;stroke-linecap:butt;stroke-linejoin:miter;stroke-opacity:1"/>
    </g>
    <use x="0" y="0" xlink:href="#g2307" id="use2311" transform="matrix(0.8799973,0.4749787,-0.4749787,0.8799973,87.871177,-55.060398)" width="250" height="170"/>
    <use x="0" y="0" xlink:href="#g2307" id="use2313" transform="matrix(0.6393479,0.7689175,-0.7689175,0.6393479,165.97775,-62.50109)" width="250" height="170"/>
    <use x="0" y="0" xlink:href="#g3141" id="use3151" transform="translate(6.0104075,-105.35891)" width="250" height="170"/>
  </g>
  <path style="fill:none;fill-rule:evenodd;stroke:#000000;stroke-width:1px;stroke-linecap:butt;stroke-linejoin:miter;stroke-opacity:1" id="path3269" sodipodi:nodetypes="cc" d="M 106.41957,172.82843 C 125.15791,114.49212 190.91883,74.18703 256.67976,73.12637"/>
  <path style="opacity:0.8;fill:#000000;fill-opacity:1;fill-rule:nonzero;stroke:#000000;stroke-width:0.5;stroke-linecap:butt;stroke-miterlimit:4;stroke-dasharray:none;stroke-dashoffset:0;stroke-opacity:1" id="path3271" sodipodi:cx="146.72466" sodipodi:cy="161.86827" sodipodi:type="arc" d="M 151.6744 161.86827 A 4.9497476 4.9497476 0 1 1  141.77491,161.86827 A 4.9497476 4.9497476 0 1 1  151.6744 161.86827 z" transform="translate(59.968038,-26.87132)" sodipodi:rx="4.9497476" sodipodi:ry="4.9497476"/>
  <path style="opacity:0.8;fill:#ffffff;fill-opacity:1;fill-rule:nonzero;stroke:#000000;stroke-width:0.82352942;stroke-linecap:butt;stroke-miterlimit:4;stroke-dasharray:none;stroke-dashoffset:0;stroke-opacity:1" id="path3273" sodipodi:cx="146.72466" sodipodi:cy="161.86827" sodipodi:type="arc" d="M 151.6744 161.86827 A 4.9497476 4.9497476 0 1 1  141.77491,161.86827 A 4.9497476 4.9497476 0 1 1  151.6744 161.86827 z" transform="matrix(0.6071429,0,0,0.6071429,116.64755,61.097574)" sodipodi:rx="4.9497476" sodipodi:ry="4.9497476"/>
  <use x="0" y="0" xlink:href="#path3271" id="use5038" transform="translate(8.0104077,-101.59114)" width="250" height="170" style="fill:#000000"/>
</svg>