<?xml version="1.0" encoding="UTF-8" standalone="no"?>
<!-- Created with Inkscape (http://www.inkscape.org/) -->

<svg
   xmlns:ns0="http://www.iki.fi/pav/software/textext/"
   xmlns:dc="http://purl.org/dc/elements/1.1/"
   xmlns:cc="http://creativecommons.org/ns#"
   xmlns:rdf="http://www.w3.org/1999/02/22-rdf-syntax-ns#"
   xmlns:svg="http://www.w3.org/2000/svg"
   xmlns="http://www.w3.org/2000/svg"
   xmlns:xlink="http://www.w3.org/1999/xlink"
   xmlns:sodipodi="http://sodipodi.sourceforge.net/DTD/sodipodi-0.dtd"
   xmlns:inkscape="http://www.inkscape.org/namespaces/inkscape"
   sodipodi:docname="relatividad.svg"
   inkscape:version="0.48.4 r9939"
   version="1.1"
   id="svg3499"
   height="379.68198"
   width="794.70544">
  <sodipodi:namedview
     id="base"
     pagecolor="#ffffff"
     bordercolor="#666666"
     borderopacity="1.0"
     inkscape:pageopacity="0.0"
     inkscape:pageshadow="2"
     inkscape:zoom="1.4495937"
     inkscape:cx="397.35272"
     inkscape:cy="189.84099"
     inkscape:document-units="px"
     inkscape:current-layer="layer1"
     showgrid="false"
     inkscape:window-width="1317"
     inkscape:window-height="744"
     inkscape:window-x="49"
     inkscape:window-y="24"
     inkscape:window-maximized="1"
     fit-margin-top="10"
     fit-margin-right="10"
     fit-margin-bottom="10"
     fit-margin-left="10" />
  <defs
     id="defs3501">
    <linearGradient
       inkscape:collect="always"
       xlink:href="#linearGradient3697-2"
       id="linearGradient7002"
       gradientUnits="userSpaceOnUse"
       x1="419"
       y1="779.36218"
       x2="406"
       y2="507.36218" />
    <linearGradient
       id="linearGradient3697-2">
      <stop
         id="stop3699-1"
         offset="0"
         style="stop-color:#ff4700;stop-opacity:1;" />
      <stop
         id="stop3701-9"
         offset="1"
         style="stop-color:#ffcf00;stop-opacity:1;" />
    </linearGradient>
    <filter
       color-interpolation-filters="sRGB"
       id="filter3804-2"
       inkscape:collect="always">
      <feGaussianBlur
         id="feGaussianBlur3806-4"
         stdDeviation="3.9326923"
         inkscape:collect="always" />
    </filter>
    <marker
       inkscape:stockid="DistanceStart"
       orient="auto"
       refY="0"
       refX="0"
       id="DistanceStart"
       style="overflow:visible">
      <g
         id="g2300">
        <path
           id="path2306"
           d="M 0,0 2,0"
           style="fill:none;stroke:#ffffff;stroke-width:1.14999998;stroke-linecap:square"
           inkscape:connector-curvature="0" />
        <path
           id="path2302"
           d="M 0,0 13,4 9,0 13,-4 0,0 z"
           style="fill:#000000;fill-rule:evenodd;stroke:none"
           inkscape:connector-curvature="0" />
        <path
           id="path2304"
           d="M 0,-4 0,40"
           style="fill:none;stroke:#000000;stroke-width:1;stroke-linecap:square"
           inkscape:connector-curvature="0" />
      </g>
    </marker>
    <marker
       inkscape:stockid="DistanceEnd"
       orient="auto"
       refY="0"
       refX="0"
       id="DistanceEnd"
       style="overflow:visible">
      <g
         id="g5051">
        <path
           id="path2316"
           d="M 0,0 -2,0"
           style="fill:none;stroke:#ffffff;stroke-width:1.14999998;stroke-linecap:square"
           inkscape:connector-curvature="0" />
        <path
           id="path2312"
           d="M 0,0 -13,4 -9,0 -13,-4 0,0 z"
           style="fill:#000000;fill-rule:evenodd;stroke:none"
           inkscape:connector-curvature="0" />
        <path
           id="path2314"
           d="M 0,-4 0,40"
           style="fill:none;stroke:#000000;stroke-width:1;stroke-linecap:square"
           inkscape:connector-curvature="0" />
      </g>
    </marker>
    <marker
       inkscape:stockid="DistanceStart"
       orient="auto"
       refY="0"
       refX="0"
       id="marker3533"
       style="overflow:visible">
      <g
         id="g3535">
        <path
           id="path3537"
           d="M 0,0 2,0"
           style="fill:none;stroke:#ffffff;stroke-width:1.14999998;stroke-linecap:square"
           inkscape:connector-curvature="0" />
        <path
           id="path3539"
           d="M 0,0 13,4 9,0 13,-4 0,0 z"
           style="fill:#000000;fill-rule:evenodd;stroke:none"
           inkscape:connector-curvature="0" />
        <path
           id="path3541"
           d="M 0,-4 0,40"
           style="fill:none;stroke:#000000;stroke-width:1;stroke-linecap:square"
           inkscape:connector-curvature="0" />
      </g>
    </marker>
    <marker
       inkscape:stockid="DistanceEnd"
       orient="auto"
       refY="0"
       refX="0"
       id="marker3543"
       style="overflow:visible">
      <g
         id="g3545">
        <path
           id="path3547"
           d="M 0,0 -2,0"
           style="fill:none;stroke:#ffffff;stroke-width:1.14999998;stroke-linecap:square"
           inkscape:connector-curvature="0" />
        <path
           id="path3549"
           d="M 0,0 -13,4 -9,0 -13,-4 0,0 z"
           style="fill:#000000;fill-rule:evenodd;stroke:none"
           inkscape:connector-curvature="0" />
        <path
           id="path3551"
           d="M 0,-4 0,40"
           style="fill:none;stroke:#000000;stroke-width:1;stroke-linecap:square"
           inkscape:connector-curvature="0" />
      </g>
    </marker>
    <linearGradient
       inkscape:collect="always"
       xlink:href="#linearGradient3681-9-1"
       id="linearGradient3808-3"
       gradientUnits="userSpaceOnUse"
       gradientTransform="matrix(0.99567921,0,0,0.88125535,343.31213,-798.00233)"
       x1="340.5"
       y1="756.36578"
       x2="340.5"
       y2="617.30865" />
    <linearGradient
       id="linearGradient3681-9-1">
      <stop
         id="stop3683-3-4"
         offset="0"
         style="stop-color:#b3b3b3;stop-opacity:1;" />
      <stop
         id="stop3685-1-9"
         offset="1"
         style="stop-color:#959595;stop-opacity:1;" />
    </linearGradient>
    <linearGradient
       inkscape:collect="always"
       xlink:href="#linearGradient3681-9-1"
       id="linearGradient3811-2"
       gradientUnits="userSpaceOnUse"
       gradientTransform="matrix(0.99567921,0,0,0.88125535,343.31213,-798.00233)"
       x1="342"
       y1="601.39856"
       x2="342"
       y2="546.36218" />
    <linearGradient
       id="linearGradient3558">
      <stop
         id="stop3560"
         offset="0"
         style="stop-color:#b3b3b3;stop-opacity:1;" />
      <stop
         id="stop3562"
         offset="1"
         style="stop-color:#959595;stop-opacity:1;" />
    </linearGradient>
    <linearGradient
       inkscape:collect="always"
       xlink:href="#linearGradient3671-6-6"
       id="linearGradient3814-0"
       gradientUnits="userSpaceOnUse"
       gradientTransform="matrix(0.0295855,0.99523966,-0.88062086,0.03343628,807.63021,312.88662)"
       x1="177"
       y1="507.36218"
       x2="487.85574"
       y2="502.36218" />
    <linearGradient
       id="linearGradient3671-6-6">
      <stop
         id="stop3673-3-8"
         offset="0"
         style="stop-color:#bfbfbf;stop-opacity:1;" />
      <stop
         style="stop-color:#eeeeee;stop-opacity:1;"
         offset="0.5"
         id="stop3679-4-9" />
      <stop
         id="stop3675-0-2"
         offset="1"
         style="stop-color:#979797;stop-opacity:1;" />
    </linearGradient>
    <linearGradient
       inkscape:collect="always"
       xlink:href="#linearGradient3705-6-6"
       id="linearGradient3795-6"
       gradientUnits="userSpaceOnUse"
       x1="366"
       y1="639.36218"
       x2="407"
       y2="788.36218" />
    <linearGradient
       id="linearGradient3705-6-6"
       inkscape:collect="always">
      <stop
         id="stop3707-0-4"
         offset="0"
         style="stop-color:#ffff00;stop-opacity:1;" />
      <stop
         id="stop3709-4-9"
         offset="1"
         style="stop-color:#ffff00;stop-opacity:0;" />
    </linearGradient>
    <filter
       color-interpolation-filters="sRGB"
       height="1.3542191"
       y="-0.17710955"
       width="1.2151392"
       x="-0.10756961"
       id="filter3768-1-5"
       inkscape:collect="always">
      <feGaussianBlur
         id="feGaussianBlur3770-9-0"
         stdDeviation="7.3057692"
         inkscape:collect="always" />
    </filter>
    <linearGradient
       inkscape:collect="always"
       xlink:href="#linearGradient3681-9-1"
       id="linearGradient3818-4"
       gradientUnits="userSpaceOnUse"
       gradientTransform="matrix(0.95150835,0,0,0.88388664,-190.71154,-932.9607)"
       x1="-731.22839"
       y1="210.15204"
       x2="-634.34595"
       y2="201.14511" />
    <linearGradient
       id="linearGradient3576">
      <stop
         id="stop3578"
         offset="0"
         style="stop-color:#b3b3b3;stop-opacity:1;" />
      <stop
         id="stop3580"
         offset="1"
         style="stop-color:#959595;stop-opacity:1;" />
    </linearGradient>
    <linearGradient
       inkscape:collect="always"
       xlink:href="#linearGradient3681-9-1"
       id="linearGradient3821-8"
       gradientUnits="userSpaceOnUse"
       gradientTransform="matrix(0.94395345,0,0,0.88683471,554.24727,-468.0628)"
       x1="70.653748"
       y1="760.85864"
       x2="119.07413"
       y2="714.96899" />
    <linearGradient
       id="linearGradient3583">
      <stop
         id="stop3585"
         offset="0"
         style="stop-color:#b3b3b3;stop-opacity:1;" />
      <stop
         id="stop3587"
         offset="1"
         style="stop-color:#959595;stop-opacity:1;" />
    </linearGradient>
    <linearGradient
       inkscape:collect="always"
       xlink:href="#linearGradient3697-2"
       id="linearGradient3638"
       gradientUnits="userSpaceOnUse"
       x1="419"
       y1="779.36218"
       x2="406"
       y2="507.36218" />
    <linearGradient
       inkscape:collect="always"
       xlink:href="#linearGradient3681-9-1"
       id="linearGradient3134"
       gradientUnits="userSpaceOnUse"
       gradientTransform="matrix(0.99567921,0,0,0.88125535,343.31213,-798.00233)"
       x1="340.5"
       y1="756.36578"
       x2="340.5"
       y2="617.30865" />
    <linearGradient
       inkscape:collect="always"
       xlink:href="#linearGradient3681-9-1"
       id="linearGradient3137"
       gradientUnits="userSpaceOnUse"
       gradientTransform="matrix(0.99567921,0,0,0.88125535,343.31213,-798.00233)"
       x1="342"
       y1="601.39856"
       x2="342"
       y2="546.36218" />
    <linearGradient
       inkscape:collect="always"
       xlink:href="#linearGradient3671-6-6"
       id="linearGradient3140"
       gradientUnits="userSpaceOnUse"
       gradientTransform="matrix(0.0295855,0.99523966,-0.88062086,0.03343628,807.63021,312.88662)"
       x1="177"
       y1="507.36218"
       x2="487.85574"
       y2="502.36218" />
    <linearGradient
       inkscape:collect="always"
       xlink:href="#linearGradient3681-9-1"
       id="linearGradient3144"
       gradientUnits="userSpaceOnUse"
       gradientTransform="matrix(0.95150835,0,0,0.88388664,-190.71154,-932.9607)"
       x1="-731.22839"
       y1="210.15204"
       x2="-634.34595"
       y2="201.14511" />
    <linearGradient
       inkscape:collect="always"
       xlink:href="#linearGradient3681-9-1"
       id="linearGradient3147"
       gradientUnits="userSpaceOnUse"
       gradientTransform="matrix(0.94395345,0,0,0.88683471,554.24727,-468.0628)"
       x1="70.653748"
       y1="760.85864"
       x2="119.07413"
       y2="714.96899" />
  </defs>
  <metadata
     id="metadata3504">
    <rdf:RDF>
      <cc:Work
         rdf:about="">
        <dc:format>image/svg+xml</dc:format>
        <dc:type
           rdf:resource="http://purl.org/dc/dcmitype/StillImage" />
        <dc:title />
      </cc:Work>
    </rdf:RDF>
  </metadata>
  <g
     transform="translate(-91.218717,-491.09261)"
     id="layer1"
     inkscape:groupmode="layer"
     inkscape:label="Capa 1">
    <path
       transform="matrix(0.0295855,0.99523966,-0.88062086,0.03343628,807.63021,312.88662)"
       id="path3667"
       d="m 252,657.36218 -18,92 39,-26 -2,73 33,-41 49,48 17,-58 59,56 22,-45 11,11 -32,-114 -68,-31 -110,35 z"
       style="color:#000000;fill:url(#linearGradient3638);fill-opacity:1;stroke:none;stroke-width:1px;marker:none;visibility:visible;display:inline;overflow:visible;filter:url(#filter3804-2);enable-background:accumulate"
       inkscape:connector-curvature="0" />
    <rect
       transform="matrix(0.63804076,0.77000259,-0.9699476,0.2433139,0,0)"
       y="123.8635"
       x="611.62769"
       height="95.890129"
       width="76.910812"
       id="rect3631"
       style="fill:url(#linearGradient3147);fill-opacity:1;stroke:none;display:inline" />
    <rect
       style="fill:url(#linearGradient3144);stroke:none;display:inline"
       id="rect3633"
       width="77.526367"
       height="95.571365"
       x="-871.82117"
       y="-802.95709"
       transform="matrix(0.58618336,-0.81017842,-0.9854858,-0.16975789,0,0)" />
    <path
       transform="matrix(0.0295855,0.99523966,-0.88062086,0.03343628,807.63021,312.88662)"
       id="path3669"
       d="m 268,653.36218 -9,41 32,-22 -2,60 28,-36 20,31 30,-43 46,31 9,-67 -86,-15 -68,20 z"
       style="color:#000000;fill:url(#linearGradient3795-6);fill-opacity:1;stroke:none;stroke-width:1px;marker:none;visibility:visible;display:inline;overflow:visible;filter:url(#filter3768-1-5);enable-background:accumulate"
       inkscape:connector-curvature="0" />
    <path
       sodipodi:nodetypes="cczczcz"
       id="rect2831"
       d="m 473.10832,547.77478 c 63.97639,22.36731 112.67298,112.796 112.67298,112.796 0,0 -43.21692,93.91818 -105.72067,121.08783 -62.50378,27.16967 -250.86742,-16.38041 -250.86742,-16.38041 0,0 14.93616,-61.04088 14.0248,-91.70093 -0.91138,-30.66011 -19.43887,-90.43028 -19.43887,-90.43028 0,0 185.3527,-57.73938 249.32907,-35.37204 z"
       style="fill:url(#linearGradient3140);fill-opacity:1;stroke:none;display:inline"
       inkscape:connector-curvature="0" />
    <rect
       transform="matrix(0.02971323,0.99955846,-0.99927999,0.0379408,0,0)"
       y="-301.53687"
       x="675.87"
       height="141.00067"
       width="12.943812"
       id="rect3635"
       style="fill:url(#linearGradient3137);stroke:none;display:inline" />
    <rect
       transform="matrix(0.02971323,0.99955846,-0.99927999,0.0379408,0,0)"
       style="fill:url(#linearGradient3134);stroke:none;display:inline"
       id="rect3691"
       width="12.943812"
       height="95.175453"
       x="675.87"
       y="-255.71184" />
    <rect
       y="571.81635"
       x="340.83368"
       height="185.86128"
       width="129.98505"
       id="rect3389"
       style="opacity:0.98000004;fill:#ffffff;fill-opacity:1;stroke:none;display:inline" />
    <path
       inkscape:connector-curvature="0"
       id="path4480"
       d="m 410.10423,744.13785 0,-163.16627"
       style="fill:none;stroke:#ff0000;stroke-width:3.60317636;stroke-linecap:butt;stroke-linejoin:miter;stroke-miterlimit:4;stroke-opacity:1;stroke-dasharray:none;display:inline" />
    <rect
       y="742.01624"
       x="405.65714"
       height="11.544106"
       width="8.8941889"
       id="rect4362"
       style="opacity:0.98000004;fill:#000000;fill-opacity:1;stroke:#000000;stroke-width:0.4097935;stroke-opacity:1;display:inline" />
    <path
       inkscape:connector-curvature="0"
       id="path3218"
       d="m 391.79794,758.06084 c 2.4671,-2.46711 -0.1404,-5.17658 -5.70961,-5.93294 -1.49514,-0.20304 -1.62808,-0.29826 -1.62808,-1.16611 0,-0.55297 -0.22919,-1.03296 -0.55246,-1.15701 -0.44893,-0.17225 -0.50901,-0.51635 -0.3206,-1.83612 0.42275,-2.96146 0.85378,-4.14246 1.59813,-4.37872 0.59217,-0.18793 0.67475,-0.41192 0.4984,-1.35193 -0.22174,-1.18202 0.14176,-1.54894 1.53454,-1.54894 0.35497,0 0.8131,-0.3133 1.01806,-0.69629 0.30564,-0.5711 0.007,-1.60337 -1.66174,-5.74113 -2.48586,-6.1644 -4.36068,-11.95074 -4.68857,-14.47056 -0.13491,-1.03683 -0.15512,-1.79953 -0.0449,-1.69492 0.11024,0.10461 1.0313,1.30873 2.04685,2.67585 2.2331,3.00608 2.71811,3.36975 4.6916,3.51754 1.88711,0.14135 7.87708,-0.74432 7.87708,-1.16472 0,-0.16798 -0.46272,-1.35969 -1.02827,-2.64824 -0.56554,-1.28852 -1.02825,-2.4994 -1.02825,-2.69082 0,-0.31174 2.31005,-2.34485 3.30544,-2.90918 0.21562,-0.12224 0.95177,0.0117 1.6359,0.29747 1.5496,0.64747 2.59925,0.21083 2.59925,-1.08121 0,-0.48157 0.29459,-1.13166 0.65466,-1.44465 0.42851,-0.37249 0.73107,-1.23418 0.87587,-2.49455 0.2105,-1.83207 0.16914,-1.97755 -0.85251,-2.99921 -0.59056,-0.59055 -1.44742,-1.16752 -1.90415,-1.28215 -1.1365,-0.28525 -1.05116,-0.74558 0.53822,-2.90328 2.57014,-3.48917 2.9499,-5.47949 1.27,-6.65614 -1.71037,-1.19799 -2.90245,-0.11305 -3.85621,3.50951 -1.06041,4.0277 -2.65049,6.60131 -4.07858,6.60131 -0.97663,0 -2.24613,0.93502 -2.23689,1.64752 0.005,0.31921 0.31667,1.26179 0.69452,2.09463 l 0.68698,1.51424 -0.95158,1.00212 c -1.05036,1.10613 -3.17335,2.31035 -4.07309,2.31035 -1.03477,0 -4.43894,-3.079 -6.41962,-5.80639 -0.40781,-0.56156 -1.55124,-2.13679 -2.54094,-3.50049 -0.98971,-1.3637 -1.79947,-2.66136 -1.79947,-2.88367 0,-0.79943 -1.46888,-3.76637 -2.31108,-4.6681 l -0.85983,-0.9206 1.32839,-1.2396 c 1.9195,-1.79118 2.52803,-2.08382 2.52803,-1.2157 0,0.89597 0.83498,0.90298 2.885,0.0242 0.86394,-0.37032 1.57081,-0.59673 1.57081,-0.50311 0,0.0936 -0.23136,0.72392 -0.51414,1.40069 -0.63181,1.51215 -0.63202,1.48952 0.0137,1.48952 0.82879,0 2.98811,-1.21536 3.90552,-2.1982 0.90471,-0.96926 1.37834,-0.71627 1.38826,0.7415 0.009,1.35919 1.33778,0.8142 3.87276,-1.5887 0.95139,-0.90182 1.54717,-1.20302 2.23656,-1.1307 1.49213,0.15651 3.2178,-1.22472 3.72686,-2.983 0.23807,-0.82224 0.82268,-2.27729 1.29915,-3.23344 0.47648,-0.95613 0.86632,-2.09375 0.86632,-2.52802 0,-1.14459 0.66668,-0.9694 0.9083,0.23868 0.58875,2.94377 1.96961,-0.56121 1.9914,-5.05471 0.007,-1.55475 0.0975,-2.82722 0.19989,-2.82772 0.10239,-3.4e-4 0.58546,0.80884 1.07347,1.79854 l 0.8873,1.79946 0.25015,-1.9613 c 0.313,-2.45404 -0.21217,-5.54654 -1.3743,-8.09265 l -0.8866,-1.94244 1.76619,1.71378 1.76618,1.71377 -0.24247,-1.19965 c -0.32328,-1.59945 -1.89007,-4.31987 -3.6196,-6.28472 -1.51014,-1.71561 -1.25154,-2.01114 0.7984,-0.91245 0.70413,0.3774 1.27967,0.5702 1.27896,0.42845 -0.001,-0.36261 -1.32053,-2.48564 -1.54397,-2.48564 -0.10134,0 0.0887,0.41674 0.42247,0.92609 0.59273,0.90463 0.59093,0.91967 -0.0778,0.64925 -3.80778,-1.53978 -5.07677,-1.5325 -2.96974,0.017 0.78023,0.5738 1.89884,1.6456 2.48579,2.3818 0.98225,1.23202 2.37002,3.61807 2.37002,4.07488 0,0.10614 -0.78504,-0.42754 -1.74455,-1.18598 -2.15445,-1.70299 -2.59823,-1.74795 -1.51628,-0.15362 1.33391,1.96563 2.28026,4.92027 2.46185,7.68624 l 0.16875,2.57065 -0.87765,-1.4796 c -1.16135,-1.95786 -2.4621,-3.57342 -2.1203,-2.63345 0.84695,2.32913 0.75918,9.76849 -0.11528,9.76849 -0.13346,0 -0.52341,-0.5784 -0.86656,-1.28532 l -0.62392,-1.28533 -0.43802,2.10158 c -0.24089,1.15586 -0.69773,2.60383 -1.01519,3.21771 l -0.57717,1.11616 -0.81738,-2.01108 c -0.44955,-1.1061 -1.12085,-2.42158 -1.49177,-2.92327 -0.66847,-0.90416 -0.66852,-0.91751 -0.006,-1.51683 1.76466,-1.59699 0.095,-7.01771 -3.00081,-9.7428 -0.86289,-0.75953 -1.70141,-1.38098 -1.86338,-1.38098 -0.41234,0 -0.36968,-1.96959 0.0483,-2.2279 0.18852,-0.11656 0.34276,-0.58833 0.34276,-1.04849 0,-0.46016 0.15424,-0.83665 0.34275,-0.83665 0.457,0 0.44197,-2.64026 -0.0166,-2.92369 -0.24996,-0.1545 -0.24827,-0.35602 0.006,-0.66186 0.27682,-0.33354 0.11528,-0.54316 -0.66886,-0.86795 -0.56858,-0.23552 -1.03379,-0.56557 -1.03379,-0.73345 0,-0.16786 -0.59429,-0.21019 -1.32063,-0.0941 -1.41201,0.22578 -2.00012,-0.30645 -1.39495,-1.26243 0.6685,-1.05598 0.3388,-2.87021 -0.76494,-4.20923 l -1.08123,-1.31172 1.50967,0.75864 c 0.83033,0.41726 2.00067,1.12663 2.60077,1.57638 1.38741,1.03983 1.49166,1.02677 1.15564,-0.14486 -0.47214,-1.64626 -1.32216,-3.03256 -2.43209,-3.9665 l -1.06687,-0.89772 0.97986,0 c 0.53893,0 1.82303,0.21872 2.85355,0.48604 1.03054,0.26731 1.9124,0.44731 1.95972,0.40001 0.19538,-0.1954 -2.75092,-2.3318 -3.84786,-2.79013 -0.65184,-0.27235 -1.84562,-0.47497 -2.65287,-0.45025 -1.39122,0.0426 -1.36676,0.0579 0.46936,0.29393 1.58178,0.20333 4.40388,1.41483 4.40388,1.89056 0,0.0643 -1.15679,0.0295 -2.57066,-0.0774 -1.41385,-0.10696 -2.57065,-0.0972 -2.57065,0.0216 0,0.11879 0.60807,0.61838 1.35127,1.1102 0.75108,0.49704 1.66012,1.5185 2.04666,2.29976 0.77147,1.55929 0.68863,1.99872 -0.22536,1.19512 -1.43857,-1.26482 -5.40992,-2.86215 -5.74957,-2.31258 -0.10286,0.16641 -0.42325,0.21188 -0.712,0.10111 -0.31613,-0.12133 -0.73414,0.0971 -1.05064,0.54897 -0.49199,0.70242 -0.5536,0.71222 -0.96228,0.15333 -0.39666,-0.54248 -0.51481,-0.47325 -1.29103,0.75635 -0.46993,0.7444 -1.08882,1.54802 -1.37534,1.7858 -0.44511,0.36941 -0.55359,0.2582 -0.74539,-0.76421 -0.24346,-1.29777 -0.9164,-1.9823 -1.17535,-1.19558 -0.0886,0.26902 -0.71462,1.02897 -1.39124,1.68877 l -1.23025,1.19963 -0.10895,-1.13475 c -0.16796,-1.74935 -0.79789,-1.14986 -1.80257,1.71549 -1.12486,3.20808 -1.10631,3.17906 -2.36553,3.70065 -1.04954,0.43472 -1.29189,0.83246 -0.72189,1.18474 0.17255,0.10661 0.81191,-0.22529 1.42077,-0.73762 l 1.10707,-0.93153 -0.24329,1.70043 c -0.46626,3.25883 -0.8761,4.29839 -1.93131,4.89872 -0.55296,0.3146 -1.00637,0.68768 -1.00757,0.82907 -0.004,0.41415 0.34186,0.30284 1.40164,-0.45178 l 0.99548,-0.70886 0.0523,1.1373 c 0.0322,0.70055 0.14698,0.34755 0.29894,-0.91924 0.61483,-5.12555 1.0414,-7.64122 1.51108,-8.9116 0.27879,-0.75405 0.51367,-1.17822 0.52194,-0.94257 0.0251,0.71371 0.53019,0.49345 2.16159,-0.94257 0.85667,-0.75407 1.64958,-1.37103 1.76203,-1.37103 0.11246,0 0.20447,0.46272 0.20447,1.02827 0,1.44984 0.81138,1.32573 2.32011,-0.3549 1.21934,-1.35827 1.24889,-1.36971 1.64167,-0.63579 0.39707,0.74194 0.40582,0.73947 1.20384,-0.33991 0.53989,-0.73023 0.97741,-1.01272 1.33235,-0.86022 0.29066,0.12488 0.8663,0.20868 1.27916,0.18621 0.74059,-0.0403 2.16284,1.36479 2.16263,2.13652 -7e-5,0.24106 -0.85454,0.39084 -2.31359,0.40556 -1.54425,0.0156 -2.65538,0.22227 -3.34175,0.62164 -0.56554,0.32906 -0.71978,0.49122 -0.34274,0.36035 1.09572,-0.38031 4.17414,-0.59319 5.12546,-0.35442 0.48,0.12046 0.87273,0.46396 0.87273,0.7633 0,0.38517 -0.17534,0.47114 -0.59982,0.29406 -2.11621,-0.88275 -2.36045,-0.91754 -3.76483,-0.53634 -0.79819,0.21667 -1.87786,0.7788 -2.39928,1.24918 l -0.94804,0.85523 1.46856,-0.73638 c 1.69992,-0.8524 3.2565,-1.04728 4.60642,-0.57669 1.16533,0.40624 1.17027,0.5204 0.0862,1.98982 -0.47593,0.64506 -0.95952,1.76199 -1.07466,2.48203 l -0.20935,1.30917 -0.72948,-0.68532 c -0.40121,-0.37692 -1.32957,-0.93604 -2.063,-1.24248 -1.28101,-0.53524 -1.3931,-0.52655 -2.8462,0.2208 -1.57506,0.8101 -2.32866,1.74785 -2.03001,2.52613 0.0961,0.25034 -0.12341,0.72491 -0.48773,1.0546 -0.70454,0.63761 -0.89023,1.52148 -0.31963,1.52148 0.1885,0 0.34274,0.29937 0.34274,0.66528 0,0.997 0.59638,1.16997 1.05825,0.30695 0.39705,-0.74188 0.41659,-0.7315 0.7884,0.41884 0.25664,0.79402 0.77338,1.38614 1.5809,1.8115 l 1.19963,0.63193 -1.18892,-0.2099 c -0.69927,-0.12347 -1.05218,-0.0848 -0.85689,0.094 0.61045,0.55863 2.51145,0.73653 2.97512,0.27842 0.24294,-0.24002 0.75019,-0.54414 1.12721,-0.67583 0.52257,-0.18251 0.45691,-0.0354 -0.27617,0.619 -0.57362,0.51204 -1.37707,0.85842 -1.99106,0.85842 -0.59897,0 -0.94081,0.14332 -0.81755,0.34276 0.30594,0.49501 1.09859,0.42287 2.46192,-0.22407 0.8834,-0.4192 1.41019,-1.03837 2.02264,-2.37732 0.45547,-0.99576 0.82812,-2.12884 0.82812,-2.51795 0,-0.38911 0.15424,-0.70747 0.34276,-0.70747 0.18852,0 0.34275,0.22541 0.34275,0.50091 0,0.30006 0.58415,0.65627 1.45671,0.8883 2.16515,0.57577 5.13765,2.25655 6.55161,3.70457 1.24176,1.27168 2.61706,4.4042 2.61706,5.96089 0,1.17753 -0.94186,2.31273 -1.91882,2.31273 -0.46842,0 -2.41871,-0.54544 -4.33397,-1.2121 -4.41841,-1.53795 -6.62858,-1.7819 -9.49377,-1.04787 -2.55989,0.65581 -2.61876,0.6136 -2.96065,-2.12287 -0.25102,-2.00905 -0.08,-2.44456 0.70434,-1.79361 0.34536,0.28662 0.52241,0.30586 0.52241,0.0567 0,-1.15773 -3.67409,-1.90372 -4.03042,-0.81834 -0.1072,0.32656 0.0705,0.35052 0.73266,0.0987 0.48083,-0.1828 0.93765,-0.22258 1.01518,-0.0885 0.0775,0.13418 -0.0651,1.40076 -0.31703,2.81463 -0.25187,1.41386 -0.46409,2.9948 -0.47156,3.51322 -0.007,0.51841 -0.13125,0.94258 -0.27502,0.94258 -0.66845,0 -4.50256,4.20358 -4.71458,5.16889 -0.31946,1.45448 -0.0282,1.58524 1.55228,0.69696 l 1.36719,-0.76841 0,1.0502 c 0,0.5776 0.15424,1.05018 0.34275,1.05018 0.49821,0 0.41994,1.40882 -0.17137,3.08479 -0.95709,2.71267 -0.61212,2.93453 2.41211,1.55122 1.01973,-0.46644 2.28232,-0.94349 2.80576,-1.06012 0.52343,-0.11657 1.25896,-0.2971 1.63452,-0.40102 1.29509,-0.3584 -0.077,0.81434 -1.84028,1.57286 -0.9075,0.39041 -1.84696,0.94714 -2.0877,1.23721 -0.24073,0.29006 -0.65017,0.5274 -0.90986,0.5274 -0.25969,0 -0.47216,0.21246 -0.47216,0.47216 0,0.25969 -0.24263,0.67352 -0.53919,0.91964 -0.89544,0.74316 -1.86009,2.9593 -1.86009,4.27332 l 0,1.23663 -0.94257,-0.69533 c -0.51842,-0.38242 -1.5213,-1.20268 -2.2286,-1.82279 l -1.28605,-1.12748 0.55623,-1.54239 c 0.4461,-1.237 0.55087,-2.87478 0.52914,-8.27151 -0.0149,-3.70103 0.1207,-7.51844 0.30136,-8.48316 0.18065,-0.96472 0.47984,-2.56379 0.66488,-3.55349 0.41551,-2.22255 0.0751,-6.82582 -0.43355,-5.86183 -0.1842,0.34915 -0.66187,0.90131 -1.06148,1.22702 -0.80769,0.65835 -0.52843,0.80069 0.49563,0.25264 0.62754,-0.33586 0.66258,-0.22136 0.65545,2.1422 -0.005,1.72127 -0.21295,2.94958 -0.66874,3.95373 -0.36369,0.80119 -0.53093,1.45671 -0.37167,1.45671 0.15926,0 0.1442,0.64697 -0.0335,1.43773 -0.29248,1.30174 -2.37737,4.12673 -4.86338,6.58979 -0.36545,0.36208 -1.15837,1.72468 -1.76207,3.02801 l -1.09762,2.3697 -0.44245,-1.06817 c -0.24335,-0.58749 -0.50942,-1.00119 -0.5913,-0.91932 -0.0819,0.0819 0.23311,0.89656 0.69995,1.81045 l 0.84878,1.6616 0.22685,-1.02826 c 0.57833,-2.62142 1.35705,-3.91638 4.12229,-6.85508 l 2.90271,-3.08478 0.005,4.3701 c 0.002,2.40357 -0.11094,4.36522 -0.25238,4.35922 -0.14137,-0.006 -0.55645,-0.23736 -0.92238,-0.51412 -0.80341,-0.60768 -2.63944,-0.66029 -3.20779,-0.092 -0.22622,0.22622 -0.41131,0.76232 -0.41131,1.19135 0,0.42903 -0.30791,1.28506 -0.68423,1.90228 -0.81101,1.33019 -0.86852,2.59447 -0.19169,4.21434 0.48101,1.1512 0.45737,1.24704 -0.83025,3.36649 -0.72893,1.19986 -2.00461,3.55367 -2.83483,5.23069 -0.83022,1.67702 -2.30748,4.55524 -3.28281,6.39603 -1.64093,3.09702 -1.77329,3.52335 -1.77329,5.71059 0,1.40111 0.27735,3.24852 0.68107,4.53645 0.79877,2.54818 0.8401,3.02779 0.2615,3.03488 -0.23565,0.004 -0.64437,0.14197 -0.90827,0.30907 -0.39592,0.25065 -0.35096,0.46761 0.25706,1.2406 0.94753,1.20456 0.92772,1.85597 -0.13735,4.51821 -0.63457,1.5862 -0.84599,2.67342 -0.77119,3.96587 l 0.10298,1.78064 1.54239,0.0832 c 5.45469,0.29408 5.1422,0.10004 7.05082,4.37802 0.58875,1.31961 1.6292,3.31851 2.3121,4.44199 0.90173,1.48351 1.12721,2.11387 0.82362,2.30263 -0.22993,0.14296 -0.41805,0.689 -0.41805,1.21344 0,0.81316 -0.15139,0.96534 -1.02826,1.03375 -3.71016,0.28946 -6.79661,0.92109 -7.79783,1.59579 -3.33948,2.25049 0.45536,3.99888 7.52843,3.46857 2.6409,-0.19797 3.37571,-0.3812 4.15348,-1.03567 0.86277,-0.72598 1.07174,-0.76125 2.40309,-0.40591 1.19219,0.3182 1.86492,0.28253 3.68828,-0.19571 2.04849,-0.53728 2.29815,-0.54032 3.0656,-0.0375 0.52743,0.34559 1.15879,0.46628 1.71232,0.32736 0.60204,-0.15112 1.18045,-0.004 1.84562,0.46974 1.25875,0.89631 4.36557,1.71741 7.44796,1.9684 2.31267,0.18835 2.50444,0.14883 3.34185,-0.68859 z m -15.52161,-5.93379 c -0.22583,-0.49565 -0.36626,-0.93561 -0.31207,-0.97767 0.45408,-0.35269 3.74414,-0.86319 5.56299,-0.86319 1.71971,0 2.24749,0.11504 2.24749,0.48983 0,0.3253 -0.66206,0.61308 -1.97083,0.85668 -1.08396,0.20174 -2.5878,0.57973 -3.34185,0.83994 -0.75406,0.26023 -1.46195,0.49166 -1.57306,0.51434 -0.11118,0.0226 -0.38682,-0.36428 -0.61267,-0.85993 z m -6.64039,0.0443 c -1.83811,0 -3.34194,-0.10309 -3.34184,-0.22903 10e-5,-0.12596 -0.0952,-0.47787 -0.21202,-0.78203 -0.1898,-0.49458 0.2103,-0.53671 3.78793,-0.39865 2.88578,0.11141 4.23393,0.30756 4.83939,0.70425 1.29281,0.84708 1.06921,1.34871 -0.44608,1.00068 -0.70693,-0.16237 -2.78925,-0.29522 -4.62738,-0.29522 z m 5.98156,-3.02343 c -0.50273,-1.39024 -0.53264,-2.8595 -0.0641,-3.14905 0.19113,-0.11814 1.16128,0.22598 2.15589,0.76468 l 1.80838,0.97946 1.85548,-1.45784 c 1.02051,-0.80184 1.91861,-1.39473 1.99578,-1.31755 0.26958,0.26958 -0.69391,3.60482 -1.04137,3.60482 -0.20502,0 -0.17342,0.21343 0.0762,0.51412 0.36906,0.44473 0.20116,0.51681 -1.24337,0.53392 -0.91853,0.0105 -2.287,0.14735 -3.04106,0.30334 -0.75405,0.15595 -1.53283,0.30131 -1.7306,0.32297 -0.19777,0.0216 -0.54482,-0.4728 -0.7712,-1.09887 z m -7.65778,0.92437 c -0.90251,-0.14927 -1.36082,-0.45404 -1.6556,-1.10102 -0.28768,-0.63139 -0.29804,-0.93113 -0.0353,-1.01873 0.20483,-0.0683 0.29412,-0.25084 0.19842,-0.40566 -0.0957,-0.15482 0.13471,-0.20079 0.51199,-0.10216 0.3773,0.0986 0.68599,0.0267 0.68599,-0.15952 0,-0.18642 -0.57839,-0.43684 -1.28533,-0.55649 -1.09449,-0.1853 -1.44694,-0.48593 -2.3738,-2.02485 -0.59866,-0.99403 -1.18694,-2.19964 -1.30729,-2.67911 -0.24739,-0.98569 -0.87267,-0.93606 5.82331,-0.46221 l 3.42753,0.24258 -1.61122,0.4757 c -1.79909,0.53117 -2.77974,1.42435 -1.09606,0.99827 0.54644,-0.13827 1.65741,-0.33106 2.46883,-0.42844 1.45246,-0.17428 1.47371,-0.16191 1.37102,0.79899 -0.0791,0.74008 0.0821,1.05843 0.66689,1.3169 0.69768,0.30841 0.7712,0.57822 0.7712,2.83029 l 0,2.48936 -2.65634,-0.004 c -1.46099,-0.004 -3.21794,-0.0966 -3.90433,-0.21014 z m 10.20073,-3.7233 c -0.61583,-0.46632 -0.59449,-0.53027 0.48257,-1.4458 1.26628,-1.07638 6.38419,-2.96942 6.69006,-2.47452 0.10813,0.17505 -0.15964,0.46417 -0.59515,0.64249 -0.43549,0.17831 -1.79437,1.09195 -3.01972,2.03028 -2.46657,1.88881 -2.63352,1.94735 -3.55776,1.24755 z m -4.50693,-2.82871 c 0.27588,-1.09917 0.70786,-1.43755 1.55308,-1.21654 0.41286,0.10802 0.80844,-0.17577 1.22268,-0.87703 0.68302,-1.15625 2.14295,-1.72707 2.59483,-1.01453 0.42087,0.66358 0.35443,1.30518 -0.13514,1.30518 -0.23648,0 -1.43184,0.60225 -2.65635,1.33828 -1.2245,0.73607 -2.35876,1.35302 -2.52058,1.37101 -0.16182,0.0178 -0.18816,-0.38984 -0.0585,-0.90637 z m -6.61755,-2.99492 c -3.2681,-0.64896 -7.47112,-1.37074 -9.34004,-1.60399 l -3.39803,-0.42408 0,-1.12417 c 0,-1.11939 1.47661,-5.49554 2.04667,-6.06561 0.1707,-0.17069 0.71601,0.30248 1.26858,1.10076 1.15557,1.66944 2.45426,2.18807 4.496,1.79551 2.41972,-0.46522 2.13188,-0.8065 -0.46477,-0.55108 l -2.42202,0.23825 -1.97728,-2.62704 c -1.08751,-1.44488 -1.92559,-2.67821 -1.86241,-2.74073 0.0631,-0.0624 1.33852,-0.5994 2.83409,-1.19312 1.49558,-0.59372 3.15908,-1.39269 3.69669,-1.7755 0.72001,-0.5127 1.0945,-0.59886 1.42182,-0.32722 0.90492,0.751 2.3092,3.83681 2.50733,5.50959 0.11246,0.94936 0.339,1.72607 0.50349,1.72607 0.4307,0 -0.0285,-2.66752 -0.74781,-4.34461 -0.33766,-0.78717 -1.22272,-2.0982 -1.96682,-2.91341 -1.67474,-1.83476 -2.13572,-2.69562 -2.13572,-3.98835 0,-0.55485 -0.23136,-1.20084 -0.51413,-1.43552 -0.73237,-0.60781 -0.63926,-1.91133 0.34275,-4.79853 0.47128,-1.38565 0.85174,-2.9165 0.84546,-3.40189 -0.006,-0.48541 -0.54333,0.73697 -1.19344,2.71637 -0.65009,1.97941 -1.14622,3.83026 -1.10251,4.11304 0.047,0.30416 -0.23551,0.55889 -0.69172,0.62367 -0.42416,0.0602 -0.7712,0.26344 -0.7712,0.45154 0,0.1881 0.28675,0.251 0.63722,0.13978 1.58303,-0.50245 2.64881,0.97235 1.15569,1.59922 -0.90742,0.38093 -0.91228,0.39707 -0.15926,0.52771 0.49123,0.0853 1.03511,0.64119 1.47958,1.51239 0.67663,1.32629 0.6796,1.39535 0.0801,1.85306 -0.88115,0.6728 -4.2556,1.9218 -4.7154,1.74535 -0.5844,-0.22426 -1.51727,-3.53496 -1.75401,-6.22482 l -0.21117,-2.39928 3.51141,-6.85507 c 3.99731,-7.80365 5.80263,-10.74886 5.80263,-9.46642 0,0.44387 -0.61695,2.17722 -1.37101,3.85187 -0.75405,1.67466 -1.36484,3.23742 -1.35728,3.47282 0.018,0.56247 0.88255,-1.03181 2.23995,-4.13076 l 1.09602,-2.50219 0.755,1.55962 c 0.41525,0.85779 0.87544,1.55963 1.02264,1.55963 0.1472,0 0.45789,0.67953 0.69043,1.51008 0.69018,2.46507 1.50942,3.44822 4.52043,5.42485 3.53575,2.3211 4.48052,3.20328 5.43577,5.07576 l 0.7509,1.47189 -1.32167,-1.04595 c -1.7553,-1.38906 -5.22046,-3.25836 -8.17674,-4.41097 -3.17832,-1.23919 -3.31879,-1.37208 -3.19932,-3.02681 0.10755,-1.49008 -0.23642,-1.76596 -1.85231,-1.48549 -0.74855,0.12993 -0.74279,0.14814 0.16738,0.53001 0.72781,0.30535 0.94257,0.62732 0.94257,1.41309 0,1.64271 1.24298,2.65511 5.31269,4.32718 4.77389,1.96138 6.27755,2.73793 7.4549,3.84996 0.77452,0.73157 0.94257,0.78525 0.94257,0.30104 0,-0.32408 -0.22405,-1.12547 -0.49788,-1.78085 -0.43855,-1.04959 -0.43529,-1.36486 0.0273,-2.64534 0.28884,-0.79956 0.6069,-2.61053 0.70677,-4.0244 0.17943,-2.54009 0.0773,-3.01168 -1.42868,-6.598 -0.45021,-1.07209 0.7496,-0.67795 1.56504,0.51412 0.4191,0.61268 0.93088,1.2682 1.13729,1.45671 0.20641,0.18851 0.82762,0.9478 1.38046,1.68729 l 1.00518,1.34454 -0.74811,0.49673 c -0.87785,0.58286 -0.95067,1.3424 -0.22767,2.37463 0.48531,0.69287 0.41011,0.95506 -1.11395,3.88363 l -1.63439,3.14061 0.0873,3.30476 c 0.16412,6.21304 -1.20087,16.12907 -2.49137,18.09864 -0.7147,1.09074 -1.79821,1.04386 -9.022,-0.39057 z m 10.28242,-17.13128 c 0.30752,-0.67495 0.27035,-1.01634 -0.18663,-1.71377 -0.72444,-1.10562 -1.48841,-1.11105 -1.98823,-0.0141 -0.29206,0.64103 -0.29206,1.07276 0,1.71377 0.5086,1.11628 1.66924,1.12376 2.17486,0.0141 z m -1.94302,-0.18848 c -0.37441,-0.60582 0.19518,-1.71072 0.88188,-1.71072 0.50751,0 0.66242,0.24048 0.66242,1.02826 0,0.78936 -0.15458,1.02826 -0.66529,1.02826 -0.3659,0 -0.76146,-0.15561 -0.87901,-0.3458 z m 3.87337,16.7123 c -0.88566,-1.67627 -1.01187,-4.87409 -0.48056,-12.17647 l 0.30613,-4.20744 0.72214,0.60609 c 0.52291,0.43886 0.48574,0.33378 -0.13476,-0.381 l -0.85688,-0.98707 1.00771,0.18324 1.00772,0.18327 -0.83634,-0.64283 c -0.68266,-0.5247 -0.72612,-0.64421 -0.23651,-0.65041 0.32989,-0.005 0.59981,-0.16189 0.59981,-0.3504 0,-0.43338 -0.22177,-0.4316 -1.04389,0.008 -0.5991,0.32064 -0.63814,0.25367 -0.44936,-0.7712 0.249,-1.35175 1.43779,-4.20542 1.65954,-3.98367 0.0869,0.0869 0.39829,1.30608 0.69201,2.70932 0.68139,3.25526 2.83911,9.64619 4.99748,14.80196 2.31046,5.51906 2.31384,5.49746 -0.97154,6.19914 -5.39051,1.15133 -5.07349,1.18 -5.9827,-0.54089 z m -1.53496,-2.72061 c 0.10942,-0.27342 0.19064,-0.19218 0.20709,0.20709 0.0149,0.36134 -0.0662,0.56376 -0.18003,0.44987 -0.11387,-0.11387 -0.12606,-0.40953 -0.0271,-0.65696 z m 9.10549,-13.90519 c -1.03874,-0.69188 -2.00656,-1.83249 -4.00961,-4.7255 -1.56345,-2.2581 -1.69013,-2.77188 -0.93096,-3.77559 0.6541,-0.86479 0.659,-2.01259 0.0105,-2.55047 -0.68068,-0.56491 -0.65213,-1.24472 0.0639,-1.51945 0.41591,-0.1596 1.27088,0.46654 3.04965,2.23344 l 2.47173,2.45522 -0.47901,1.14642 c -0.26345,0.63054 -0.46857,1.49842 -0.45581,1.92861 0.0228,0.77082 0.0283,0.76975 0.37741,-0.0747 1.23552,-2.98886 1.26614,-3.03289 1.97953,-2.84634 0.38689,0.10122 1.07146,-0.0572 1.52127,-0.35191 0.8061,-0.52818 0.82649,-0.51277 1.42152,1.07413 0.90544,2.41473 2.20819,4.94471 2.97937,5.78599 l 0.68608,0.74847 -1.32372,0.22773 c -0.72804,0.12528 -1.78643,0.35293 -2.35197,0.50598 -1.80663,0.48879 -4.05983,0.37095 -5.01019,-0.26205 z m 5.19055,-8.35533 c -0.005,-0.30797 0.57143,-1.08431 1.28083,-1.72522 l 1.28982,-1.16526 -0.77871,-1.35958 c -1.1011,-1.92244 -0.92035,-3.30356 0.48473,-3.70393 1.58642,-0.45203 3.67125,0.61233 3.82452,1.95252 0.11048,0.96582 0.0906,0.97747 -1.45669,0.85441 -1.72901,-0.13751 -2.03167,0.19806 -0.71835,0.79645 0.67018,0.30535 0.80682,0.56091 0.64489,1.2061 -0.1326,0.52831 0.004,1.04894 0.38218,1.468 0.56357,0.62274 0.4985,0.73376 -1.58746,2.70881 l -2.17511,2.05947 -0.59083,-1.26592 c -0.32495,-0.69626 -0.59487,-1.5179 -0.59982,-1.82585 z m -16.40995,-0.42336 c 0.0661,-0.0446 0.5489,-0.34942 1.07291,-0.67742 l 0.95276,-0.59635 -0.21019,0.95716 c -0.42471,1.934 -0.46703,1.97405 -1.2256,1.15981 -0.39052,-0.41916 -0.65596,-0.7986 -0.58988,-0.8432 z m 22.90397,-0.39461 c -1.6108,-1.1884 -1.81277,-1.66855 -1.08167,-2.57141 0.60548,-0.74774 0.64127,-0.75102 1.79696,-0.16493 2.26414,1.1482 2.92959,2.22672 1.96751,3.1888 -0.62697,0.62697 -1.39538,0.49737 -2.6828,-0.45246 z m -24.89336,-1.79257 c 0.0904,-0.32991 0.26212,-1.17822 0.38137,-1.88515 0.1288,-0.76343 0.41929,-1.30273 0.71544,-1.32817 0.95619,-0.0821 1.12867,-0.13023 1.38405,-0.3856 0.14139,-0.14138 -0.4517,-0.25707 -1.31797,-0.25707 -1.61056,0 -2.65226,-0.61668 -2.65226,-1.57013 0,-0.57157 1.85428,-0.45943 3.05833,0.18497 0.39938,0.21373 0.89104,0.28669 1.09258,0.16212 0.34562,-0.2136 0.20725,-1.78197 -0.27979,-3.1714 -0.13985,-0.39898 -0.0891,-0.47036 0.16542,-0.23273 0.85289,0.79623 1.78943,4.15915 1.76589,6.34095 l -0.024,2.2279 -0.64724,-1.45671 c -0.70562,-1.58811 -1.58512,-2.09118 -1.00962,-0.57751 0.44736,1.17664 0.50096,1.07296 -0.95106,1.8395 -1.6034,0.84647 -1.88848,0.86496 -1.68111,0.10907 z m 26.40068,-0.98671 c -1.02159,-0.5987 -1.47334,-1.06813 -1.34637,-1.39905 0.10509,-0.27392 0.19112,-0.63965 0.19112,-0.81275 0,-0.46658 1.2326,-0.38175 2.56947,0.17682 0.75412,0.31509 1.25391,0.80026 1.39227,1.35154 0.45107,1.7972 -0.50762,2.03066 -2.80649,0.68344 z m -29.4604,-0.14452 c -1.32183,-0.81693 -2.29527,-2.28234 -2.91907,-4.39436 -0.40328,-1.36536 -0.38521,-1.54012 0.20381,-1.97083 0.80601,-0.58937 2.3766,-0.61392 2.82536,-0.0442 0.3531,0.44831 0.85378,2.21096 0.6952,2.44744 -0.18538,0.27643 1.22958,1.57993 1.71503,1.57993 0.35227,0 0.43963,0.22891 0.29431,0.77119 -0.11364,0.42415 -0.20878,1.11823 -0.21135,1.54239 -0.006,0.99718 -1.05587,1.02477 -2.60329,0.0684 z m 29.16204,-3.00029 c -1.47555,-0.28981 -1.88056,-1.21348 -0.82425,-1.87979 1.2411,-0.78286 4.79092,1.38808 4.31172,2.63688 -0.20819,0.54254 -0.29995,0.54649 -1.17118,0.0504 -0.5199,-0.29604 -1.56224,-0.65942 -2.31629,-0.80752 z m -3.07022,-1.75742 c -0.10848,-0.17556 0.17645,-0.86989 0.63321,-1.54297 0.45677,-0.67308 1.18137,-2.55201 1.61022,-4.17541 0.42885,-1.6234 1.03422,-3.26591 1.34525,-3.65002 0.78725,-0.9722 2.17367,-0.58568 2.73173,0.76157 0.36404,0.87884 0.3313,1.18055 -0.23286,2.14653 -0.42071,0.72036 -1.01878,1.20172 -1.66551,1.34052 -0.55498,0.11911 -0.72629,0.2348 -0.38069,0.25711 0.71758,0.0463 0.73793,-0.03 -0.62838,2.35669 -0.56555,0.98791 -1.2259,1.79636 -1.46745,1.79656 -0.24157,1.8e-4 -0.52799,0.23171 -0.63649,0.51447 -0.21952,0.57204 -1.0038,0.68884 -1.30903,0.19495 z m -21.75147,-0.504 c -0.21931,-0.26423 -1.0865,-0.6835 -1.92712,-0.93171 -2.29834,-0.67862 -2.03471,-1.44218 0.41488,-1.20166 2.02373,0.1987 2.49847,0.54758 2.50728,1.8426 0.006,0.87658 -0.40837,0.99766 -0.99504,0.29077 z m -9.3828,-2.86142 c -1.8362,-4.11423 -2.28648,-5.54569 -2.07579,-6.59913 0.29007,-1.45033 0.68701,-1.5645 1.30235,-0.37458 0.28945,0.55976 0.66412,1.10292 0.83259,1.20704 0.16846,0.10414 0.0153,-0.38142 -0.34031,-1.079 -0.72376,-1.41958 -0.80509,-2.37572 -0.31236,-3.6717 0.41092,-1.08078 1.44723,-1.14881 3.00758,-0.19744 1.21803,0.74264 1.64826,2.33704 0.51413,1.90527 -0.48093,-0.1831 -0.5149,-0.14282 -0.17137,0.20325 0.54664,0.55068 0.52842,1.61276 -0.0455,2.6477 l -0.44956,0.8108 -0.6939,-1.15355 c -0.38166,-0.63445 -0.79468,-1.58127 -0.91783,-2.10402 -0.18381,-0.78019 -0.0842,-1.00657 0.55578,-1.26361 0.74349,-0.29858 0.73388,-0.31414 -0.20667,-0.33485 -0.96563,-0.0213 -0.98163,0.008 -0.76093,1.38814 0.26974,1.68682 1.82506,4.05317 3.52053,5.35625 2.05908,1.58256 3.5396,2.88999 3.53709,3.12356 -0.001,0.12186 -0.70444,0.25355 -1.5625,0.29266 -0.92391,0.042 -2.14596,0.4125 -2.99671,0.90829 -0.79013,0.46045 -1.53123,0.85262 -1.64687,0.87147 -0.11562,0.0189 -0.60606,-0.85259 -1.08985,-1.93655 z m 1.47149,-4.15828 c 0,-0.18852 -0.15424,-0.43807 -0.34276,-0.55459 -0.1885,-0.11656 -0.34275,-0.0576 -0.34275,0.13093 0,0.18852 0.15425,0.43807 0.34275,0.55458 0.18852,0.11656 0.34276,0.0576 0.34276,-0.13092 z m 6.57987,2.28876 c -0.11856,-1.84117 0.74064,-3.62406 1.45912,-3.02777 0.48181,0.39986 2.24362,3.90618 2.24362,4.46518 0,0.24578 -0.64245,0.34526 -1.79945,0.27865 l -1.79946,-0.10356 -0.1038,-1.61246 z m 9.61082,-6.11182 c 0.19313,-0.76082 0.26918,-1.46527 0.16902,-1.56543 -0.10017,-0.10017 -0.93009,0.19227 -1.84428,0.64983 -2.56474,1.2837 -3.60058,0.43451 -1.29339,-1.06035 0.77775,-0.50391 1.17102,-0.99887 1.08936,-1.37101 -0.0703,-0.32032 -0.30206,-0.54697 -0.51502,-0.50367 -0.66469,0.13514 -0.82179,-1.16566 -0.28524,-2.36183 0.478,-1.06563 0.49933,-1.07701 0.3098,-0.16507 -0.3211,1.54486 0.48357,1.72109 2.08115,0.45578 1.09966,-0.87095 1.31995,-0.95138 1.10739,-0.4043 -0.14593,0.37561 -0.29246,0.83716 -0.32562,1.02568 -0.1052,0.59824 1.73576,0.57779 2.91604,-0.0323 0.99998,-0.51699 1.08154,-0.52116 0.67802,-0.0347 -0.39889,0.48089 -0.3414,0.58242 0.44105,0.77881 0.49486,0.12419 1.35679,0.1344 1.91539,0.0227 1.0071,-0.20141 1.37968,0.19982 0.62098,0.66872 -0.56016,0.34619 0.64486,1.16755 1.71295,1.16755 0.83799,0 0.83947,0.006 0.19156,0.73568 -0.78902,0.88901 -3.212,2.69185 -3.61778,2.69185 -0.16024,0 -0.29133,-0.43186 -0.29133,-0.95971 0,-1.87155 -0.64874,-1.8847 -2.65206,-0.0538 -2.33943,2.1381 -2.88884,2.21013 -2.40799,0.31567 z m 10.88451,-4.01927 c 0.49702,-0.95356 0.6005,-1.55636 0.39712,-2.31358 l -0.27504,-1.02405 -0.21658,1.32784 c -0.26535,1.62674 -1.10403,2.61383 -2.22084,2.61383 -0.67337,0 -0.78749,-0.11922 -0.57408,-0.59982 0.46398,-1.0449 0.59345,-3.51322 0.18426,-3.51322 -0.2075,0 -0.37727,0.36671 -0.37727,0.81491 0,0.94377 -0.47799,1.39933 -1.79946,1.71501 -0.83425,0.19929 -0.94257,0.12806 -0.94257,-0.61979 l 0,-0.84495 -1.92074,0.66084 -1.92075,0.66083 0.16428,-0.76498 c 0.0903,-0.42075 0.0583,-1.15058 -0.0711,-1.62187 l -0.23537,-0.85688 -0.4176,0.76764 c -0.38607,0.70969 -2.36283,2.00824 -2.63809,1.73297 -0.0663,-0.0663 0.009,-0.69466 0.16714,-1.39629 0.15824,-0.70163 0.24315,-1.2757 0.18869,-1.2757 -0.0545,0 -0.59438,0.46272 -1.1998,1.02826 -1.34911,1.26026 -2.42009,1.38813 -2.15297,0.25706 0.17469,-0.73974 0.16157,-0.74465 -0.32182,-0.12043 -0.47801,0.61729 -0.51534,0.59369 -0.72592,-0.45916 l -0.22198,-1.10993 -1.37345,1.08778 -1.37343,1.08779 0,-1.22844 c 0,-1.41868 -0.32701,-1.50592 -1.93038,-0.51498 -1.34819,0.83323 -1.49282,0.42916 -0.45022,-1.25781 1.47721,-2.39019 7.03929,-5.84073 10.03001,-6.22233 l 1.43356,-0.18291 -0.85687,0.95066 c -0.80009,0.88764 -0.80704,0.92473 -0.10473,0.55953 0.41366,-0.21511 0.84691,-0.54451 0.9628,-0.73201 0.25015,-0.40478 1.884,-0.46263 1.884,-0.0667 0,0.15082 -0.19279,0.49555 -0.42844,0.76607 -0.23565,0.27051 -0.0275,0.1421 0.46243,-0.28538 0.72934,-0.63631 1.05059,-0.71652 1.7718,-0.44231 0.48449,0.18421 1.04292,0.6134 1.24091,0.95374 0.198,0.34036 0.36469,0.45688 0.37042,0.25894 0.006,-0.19795 -0.17467,-0.54498 -0.40089,-0.7712 -0.27083,-0.27083 -0.28444,-0.4113 -0.0398,-0.4113 0.20428,0 0.9292,0.6174 1.61094,1.37199 1.25318,1.38714 1.66799,1.44877 0.72912,0.10837 -0.47476,-0.67781 -0.4615,-0.71592 0.18981,-0.5456 0.38511,0.10075 1.17997,0.66288 1.76634,1.24925 0.74915,0.74914 0.94926,0.84774 0.67303,0.3316 -0.35494,-0.66321 -0.31879,-0.71665 0.37214,-0.55031 2.0881,0.5027 3.67865,3.4698 3.67865,6.86237 0,1.58823 -0.14197,1.99242 -1.00189,2.85234 -0.58572,0.58572 -1.3665,1.0019 -1.87965,1.0019 l -0.87775,0 0.67215,-1.28955 z m -17.13533,0.81209 c 0,-0.074 0.23136,-0.22349 0.51412,-0.33199 0.28278,-0.10849 0.51413,-0.0479 0.51413,0.1347 0,0.1826 -0.23135,0.332 -0.51413,0.332 -0.28276,0 -0.51412,-0.0606 -0.51412,-0.13471 z m 1.78291,-2.03636 c 0.19242,-1.29622 0.95911,-1.05696 0.95911,0.29932 0,1.10778 -0.0678,1.21387 -0.53067,0.82975 -0.29187,-0.24223 -0.48466,-0.75031 -0.42844,-1.12907 z m -1.99339,-0.0649 c 0.21872,0.5962 0.14364,0.57891 -0.62603,-0.14417 -0.88171,-0.82831 -0.95289,-1.47857 -0.0828,-0.75646 0.25754,0.21374 0.54499,0.31189 0.63877,0.21811 0.0937,-0.0938 0.46518,0.17748 0.82534,0.6028 l 0.65485,0.7733 -0.82932,-0.68551 c -0.82069,-0.67838 -0.82672,-0.67846 -0.58079,-0.008 z m 1.89482,-19.24597 c -0.59076,-0.6017 -0.58856,-0.65706 0.0574,-1.4436 0.62663,-0.76302 0.71331,-0.78027 1.29145,-0.25706 1.20438,1.08994 2.45089,0.45714 2.45089,-1.24425 0,-0.86958 0.10825,-0.97001 0.94257,-0.87402 0.79019,0.0909 0.96023,0.29248 1.05179,1.24666 0.12489,1.30153 -0.64523,2.68656 -1.75728,3.16047 -1.08874,0.46397 -3.32343,0.13836 -4.0368,-0.5882 z m 10.6548,-1.27453 c 0,-0.074 0.23135,-0.22348 0.51413,-0.33199 0.28276,-0.10848 0.51412,-0.0479 0.51412,0.1347 0,0.1826 -0.23136,0.33199 -0.51412,0.33199 -0.28278,0 -0.51413,-0.0606 -0.51413,-0.1347 z m -12.53026,-2.95007 c 0.43511,-0.4713 0.72517,-1.0353 0.64457,-1.25336 -0.40091,-1.08486 2.78027,-1.89201 4.51647,-1.14592 0.60414,0.25959 0.57184,0.29743 -0.27199,0.31866 -1.18704,0.0299 -3.45944,2.05374 -4.45275,3.96576 l -0.71225,1.37101 -0.25758,-1.19963 c -0.21312,-0.99257 -0.12103,-1.34755 0.53353,-2.05652 z m 1.79165,0.62077 c 0.92774,-1.02585 3.12327,-2.0474 4.14021,-1.92636 1.4023,0.16691 1.28624,0.84773 -0.18461,1.08292 -1.39874,0.22368 -4.15267,1.98711 -4.23179,2.70978 -0.0257,0.23446 -0.11516,0.0665 -0.19893,-0.37316 -0.0902,-0.47375 0.10333,-1.0821 0.47512,-1.49318 z m 6.99461,0.54839 c -1.21508,-1.02242 -1.33317,-1.68145 -0.39158,-2.18537 1.18218,-0.63269 2.00125,-0.44735 1.84012,0.41639 -0.0791,0.42415 0.0826,1.07762 0.35933,1.45215 0.48493,0.65623 0.52786,0.65863 1.18248,0.0662 0.43007,-0.38921 0.61165,-0.87336 0.49493,-1.31968 -0.16015,-0.61245 -0.0954,-0.65732 0.49382,-0.34199 2.23384,1.19551 1.49458,2.79965 -1.29019,2.79965 -1.25821,0 -1.87706,-0.20423 -2.68891,-0.88736 z m 0.57041,-3.06472 c -1.04821,0.20202 -1.07333,0.18419 -0.44551,-0.3162 0.95081,-0.75781 2.64842,-0.6548 3.97042,0.24092 1.87534,1.27063 1.58878,1.69378 -0.49956,0.7377 -1.38659,-0.6348 -2.22083,-0.81746 -3.02535,-0.66242 z m 4.88735,0.18968 c 0,-0.44525 -1.38352,-1.33206 -2.64067,-1.69259 -0.65351,-0.18743 -1.45616,-0.13692 -2.26994,0.14284 -1.447,0.49746 -1.55276,0.29404 -0.52585,-1.01148 0.50289,-0.63931 0.81212,-0.80416 0.98468,-0.52496 0.19042,0.30811 0.42912,0.31201 0.98208,0.0161 0.85838,-0.45938 3.62952,0.12707 3.27915,0.69397 -0.11621,0.18796 -0.0218,0.5701 0.20989,0.84916 0.23161,0.27908 0.32334,0.60517 0.20386,0.72465 -0.11949,0.11948 -0.0455,0.42424 0.1645,0.67722 0.2808,0.33834 0.28001,0.45998 -0.004,0.45998 -0.21159,0 -0.38472,-0.15068 -0.38472,-0.33485 z m -36.67467,29.36922 c 0,-1.41139 4.22332,-5.43755 5.12153,-4.88244 0.2106,0.13016 0.36253,-0.0754 0.36253,-0.49047 0,-0.6891 -0.0379,-0.69493 -1.06516,-0.16372 -1.33273,0.68917 -4.00195,3.33168 -4.39825,4.35424 -0.27296,0.70428 -0.36094,0.62756 -1.06069,-0.92481 -1.06222,-2.35647 -1.24476,-5.38895 -0.5059,-8.40392 0.3297,-1.34544 0.51863,-2.52711 0.41982,-2.62592 -0.0988,-0.0988 -0.27835,0.26971 -0.39898,0.81894 -0.16855,0.76736 -0.5928,1.1714 -1.83209,1.74478 -2.11118,0.97678 -2.88864,1.66018 -4.14818,3.64627 l -1.04218,1.64334 -0.37879,-0.99289 c -0.20833,-0.54608 -0.37639,-2.40981 -0.37346,-4.14159 0.006,-3.45878 0.31782,-4.38129 2.31603,-6.84884 1.16648,-1.44046 1.52017,-2.202 0.72851,-1.56862 -0.23563,0.18855 -1.30419,0.412 -2.37455,0.49657 -1.43251,0.11317 -2.26923,0.40022 -3.17047,1.08763 l -1.22436,0.93386 0.004,-1.13138 c 0.007,-2.58024 2.59829,-6.3199 4.97306,-7.17862 0.65619,-0.23729 1.1931,-0.52993 1.1931,-0.65032 0,-0.45509 -1.80425,-1.01442 -3.2723,-1.01442 -0.83944,0 -1.52626,-0.0833 -1.52626,-0.18504 0,-0.1018 0.30171,-0.77644 0.67047,-1.49927 0.81759,-1.60259 2.51266,-3.0825 3.83318,-3.3466 0.53922,-0.1079 0.98041,-0.39308 0.98041,-0.63385 0,-0.4922 -1.7387,-1.19032 -2.96455,-1.19032 -1.16826,0 -0.99502,-0.61159 0.60417,-2.13286 1.39368,-1.32578 2.57009,-1.97271 3.90277,-2.14621 0.37703,-0.0491 0.83975,-0.11364 1.02826,-0.14341 0.65273,-0.10321 -1.03423,-0.85994 -2.39928,-1.07634 l -1.37101,-0.21734 1.59725,-0.74324 c 0.8785,-0.40878 2.11241,-0.83262 2.74204,-0.94188 1.95326,-0.3389 2.26849,-0.51639 1.48753,-0.83751 -0.92329,-0.37965 -1.86696,-0.41685 -1.29081,-0.051 0.26755,0.16994 -0.24719,0.47501 -1.40091,0.83027 -1.00313,0.30889 -2.42737,0.91828 -3.16499,1.35418 l -1.34113,0.79256 1.88516,0.17223 1.88514,0.17224 -1.27087,0.44939 c -1.3092,0.46295 -4.72733,3.85061 -4.72733,4.6852 0,0.32317 0.3702,0.40989 1.28533,0.30107 1.34831,-0.16031 2.74348,0.4408 1.85193,0.79792 -1.0292,0.41224 -2.83509,2.32104 -3.81304,4.03032 -0.5709,0.99782 -1.03799,1.91246 -1.03799,2.03255 0,0.12008 0.82828,0.121 1.84061,0.002 1.07726,-0.12661 2.10785,-0.0668 2.48497,0.14428 0.59058,0.3305 0.55852,0.39305 -0.38391,0.74927 -2.56916,0.97109 -4.30078,3.76922 -4.55901,7.36685 l -0.17187,2.39463 1.25778,-1.10434 c 0.69177,-0.60739 1.60199,-1.17403 2.02269,-1.25917 0.42069,-0.0852 1.18906,-0.24457 1.70748,-0.35424 1.15285,-0.2439 1.15618,-0.1888 0.084,1.39107 -1.45261,2.14054 -1.93508,4.34986 -1.52007,6.96058 0.50837,3.19802 1.0393,5.17214 1.39103,5.17214 0.16613,0 0.30206,-0.19146 0.30206,-0.42548 0,-1.04602 2.48606,-3.9686 4.14295,-4.87039 0.95158,-0.51793 1.78819,-0.88364 1.85912,-0.8127 0.071,0.0709 -0.0272,0.81886 -0.21807,1.66206 -0.19088,0.8432 -0.2446,2.22377 -0.11939,3.06792 0.38236,2.5779 2.56149,7.45653 2.56149,5.73467 z m 5.79976,-3.87051 c -0.0164,-0.39929 -0.0977,-0.48051 -0.20707,-0.20708 -0.099,0.24742 -0.0868,0.54304 0.0271,0.65695 0.11387,0.11387 0.1949,-0.0886 0.18002,-0.44987 z m 34.36672,-10.31684 c -0.24743,-0.099 -0.54305,-0.0868 -0.65695,0.0271 -0.11387,0.11387 0.0886,0.1949 0.44987,0.18001 0.39929,-0.0164 0.4805,-0.0977 0.20708,-0.20707 z m -4.17732,-1.13688 c -0.66451,-0.42944 -1.02825,-0.42944 -1.02825,0 0,0.18852 0.34703,0.34039 0.77119,0.33751 0.62362,-0.005 0.67281,-0.0689 0.25706,-0.33751 z m 12.04884,-18.64754 c -0.80668,-1.07262 -2.39618,-2.35448 -3.90843,-3.15198 -1.39649,-0.73647 -1.14286,-0.31203 0.34276,0.57357 0.70692,0.42142 1.96689,1.39799 2.79992,2.17017 1.12993,1.04739 1.32441,1.15107 0.76575,0.40824 z m -1.08071,-3.30132 c 0,-0.80467 -3.73695,-4.25832 -6.16949,-5.70182 -2.64487,-1.56948 -2.22932,-1.68838 0.94249,-0.26967 0.9897,0.44268 1.79946,0.67577 1.79946,0.518 0,-0.15778 -0.92517,-1.14342 -2.05595,-2.19032 -1.42232,-1.31682 -2.71632,-2.14686 -4.19873,-2.69326 l -2.14279,-0.78982 1.44361,-0.10473 c 0.79399,-0.0576 1.79654,0.079 2.2279,0.30359 l 0.78429,0.40834 -0.82283,-0.89479 c -1.72713,-1.87812 -6.22293,-2.63781 -10.74511,-1.81568 -1.56764,0.28499 -1.6278,0.26591 -1.62056,-0.51413 0.005,-0.44557 0.31537,-1.4886 0.6916,-2.31786 0.37624,-0.82925 0.61674,-1.57506 0.53444,-1.65736 -0.35525,-0.35526 -2.69002,1.12462 -3.97692,2.52074 l -1.39957,1.51834 -0.87806,-1.04353 c -0.96697,-1.14916 -3.67956,-2.87133 -4.23241,-2.68705 -0.19277,0.0642 0.0481,0.70355 0.53546,1.42065 0.48728,0.71709 1.11645,1.85542 1.39814,2.52961 0.48353,1.15726 0.4773,1.21039 -0.11142,0.95019 -2.31279,-1.02229 -6.46106,-2.21556 -8.38671,-2.4125 -2.45369,-0.25093 -6.38555,0.0916 -5.9003,0.51412 0.16284,0.14176 1.45286,0.67072 2.86673,1.17544 4.39609,1.56935 8.40288,4.25407 4.67416,3.13188 -3.34052,-1.00534 -8.23578,-0.91357 -12.84305,0.24076 -1.5615,0.39123 -1.39337,0.9514 0.28555,0.9514 0.62267,0 0.7273,-0.082 0.38281,-0.30026 -0.58097,-0.36794 0.24514,-0.56036 4.60477,-1.07258 3.58581,-0.42131 7.18559,0.12651 10.40285,1.58313 1.0184,0.46108 1.93098,0.75899 2.02796,0.66203 0.097,-0.097 0.006,-0.17632 -0.20273,-0.17632 -0.20847,0 -1.09788,-0.62215 -1.97647,-1.38256 -1.73909,-1.50517 -3.95827,-2.7255 -7.17457,-3.94528 -2.84145,-1.07762 -1.79403,-1.43012 2.71249,-0.91285 3.30448,0.37929 8.10331,1.84157 9.29834,2.83337 0.27849,0.23113 0.58362,0.34296 0.67805,0.24852 0.22255,-0.22255 -0.95552,-2.84881 -1.95525,-4.35881 l -0.77904,-1.17667 1.14564,0.66253 c 0.63009,0.3644 1.68981,1.30787 2.35492,2.0966 l 1.20929,1.43406 0.94413,-1.30332 c 0.82629,-1.14066 2.68399,-2.76444 3.16268,-2.76444 0.0916,0 -0.0616,0.77845 -0.34048,1.72986 -0.61303,2.09126 -0.40577,2.89018 0.67202,2.59032 0.42187,-0.11738 1.90715,-0.37749 3.30062,-0.57802 2.10538,-0.303 2.93141,-0.26714 4.8873,0.21218 1.29454,0.31724 2.43855,0.71409 2.54225,0.88189 0.10368,0.1678 -0.63031,0.31593 -1.63112,0.32918 -1.00083,0.0132 -2.12817,0.14981 -2.5052,0.30348 -0.61246,0.24962 -0.57593,0.30241 0.34275,0.4955 3.24914,0.68287 4.26667,1.03032 5.69155,1.94347 1.5414,0.9878 3.04638,2.37477 2.57686,2.37477 -0.12943,0 -1.17531,-0.31666 -2.32419,-0.70369 -2.81936,-0.94978 -4.18431,-0.73714 -1.89659,0.29545 2.27585,1.02724 6.03078,3.52533 7.24169,4.8178 0.55368,0.59097 0.93619,1.0745 0.84999,1.0745 -0.0862,0 -1.28841,-0.31362 -2.67161,-0.69692 -1.3832,-0.3833 -2.83706,-0.59468 -3.2308,-0.4697 -0.6276,0.19919 -0.52797,0.3255 0.80803,1.02418 0.83816,0.43833 1.67816,0.79776 1.86667,0.79873 0.18852,10e-4 -0.11997,-0.24885 -0.68551,-0.55516 -0.57631,-0.31215 -0.84061,-0.61975 -0.60135,-0.69985 0.51779,-0.17331 3.73058,0.83223 4.80009,1.50234 0.48453,0.30358 0.7712,0.34522 0.7712,0.112 z m -51.36676,-4.74538 c -1.1052,-0.20309 -1.12665,-0.23547 -0.51414,-0.77601 0.94862,-0.83714 3.3982,-1.55467 6.27513,-1.83811 2.4972,-0.24603 2.53099,-0.2619 1.59778,-0.75086 -0.52435,-0.27473 -1.04257,-0.41034 -1.15158,-0.30131 -0.10907,0.10906 0.0203,0.20903 0.28737,0.22228 0.99166,0.0492 -0.92035,0.6139 -2.15791,0.63733 -1.63764,0.031 -4.60936,1.15297 -5.92537,2.23712 l -1.02826,0.8471 1.88514,-0.0328 c 1.55172,-0.0271 1.68116,-0.0703 0.73184,-0.24474 z"
       style="fill:#000000;display:inline" />
    <path
       inkscape:connector-curvature="0"
       style="fill:none;stroke:#000000;stroke-width:1.17150593;stroke-miterlimit:4;stroke-opacity:1;stroke-dasharray:7.0290354, 7.0290354;stroke-dashoffset:0;display:inline"
       d="m 762.66541,547.77478 c 63.97638,22.36731 112.67298,112.796 112.67298,112.796 0,0 -43.21693,93.91818 -105.72068,121.08783 C 707.11392,808.82828 518.7503,765.2782 518.7503,765.2782 c 0,0 14.93616,-61.04088 14.0248,-91.70093 -0.91137,-30.66011 -19.43887,-90.43028 -19.43887,-90.43028 0,0 185.35268,-57.73938 249.32905,-35.37204 z"
       id="path4421"
       sodipodi:nodetypes="cczczcz" />
    <rect
       style="opacity:0.98000004;fill:#000000;fill-opacity:1;stroke:#000000;stroke-width:0.4097935;stroke-opacity:1;display:inline"
       id="rect4429"
       width="8.8941889"
       height="11.544106"
       x="695.21429"
       y="742.01624" />
    <path
       sodipodi:nodetypes="cc"
       style="fill:none;stroke:#ff0000;stroke-width:3.60317636;stroke-linecap:butt;stroke-linejoin:miter;stroke-miterlimit:4;stroke-opacity:1;stroke-dasharray:none;display:inline"
       d="M 410.10423,744.13785 698.10731,584.68704"
       id="path4502"
       inkscape:connector-curvature="0" />
    <rect
       y="576.0163"
       x="695.21429"
       height="11.544106"
       width="8.8941889"
       id="rect3774"
       style="opacity:0.98000004;fill:#000000;fill-opacity:1;stroke:#000000;stroke-width:0.4097935;stroke-opacity:1;display:inline" />
    <rect
       style="opacity:0.98000004;fill:#000000;fill-opacity:1;stroke:#000000;stroke-width:0.4097935;stroke-opacity:1;display:inline"
       id="rect3824"
       width="8.8941889"
       height="11.544106"
       x="405.65714"
       y="576.0163" />
    <path
       inkscape:connector-curvature="0"
       id="path4810"
       d="m 700.59936,804.68058 -290.86929,0"
       style="fill:none;stroke:#000000;stroke-width:1.00746024;stroke-linecap:butt;stroke-linejoin:miter;stroke-miterlimit:2.5999999;stroke-opacity:1;stroke-dasharray:none;marker-start:url(#DistanceStart);marker-mid:none;marker-end:url(#DistanceEnd);display:inline" />
    <path
       style="fill:none;stroke:#000000;stroke-width:1;stroke-linecap:butt;stroke-linejoin:miter;stroke-miterlimit:2.5999999;stroke-opacity:1;stroke-dasharray:none;marker-start:url(#DistanceStart);marker-mid:none;marker-end:url(#DistanceEnd);display:inline"
       d="m 750.73023,580.67208 0,168.61732"
       id="path5827"
       inkscape:connector-curvature="0" />
    <g
       style="font-style:normal;font-variant:normal;font-weight:normal;font-stretch:normal;letter-spacing:normal;word-spacing:normal;text-anchor:start;fill:none;stroke:#000000;stroke-linecap:butt;stroke-linejoin:miter;stroke-miterlimit:10.43299961;stroke-opacity:1;stroke-dasharray:none;stroke-dashoffset:0;display:inline"
       ns0:preamble=""
       ns0:text="$L$"
       word-spacing="normal"
       letter-spacing="normal"
       font-size-adjust="none"
       font-stretch="normal"
       font-weight="normal"
       font-variant="normal"
       font-style="normal"
       stroke-miterlimit="10.433"
       xml:space="preserve"
       transform="matrix(2.430315,0,0,-2.430315,216.40327,2388.0194)"
       id="g6370"><path
         style="fill:#000000;stroke-width:0"
         inkscape:connector-curvature="0"
         id="path6372"
         d="m 227.16,713.15 0.01,0.03 0.01,0.03 0,0.03 0.01,0.03 0.01,0.03 0.01,0.02 0.01,0.03 0.01,0.02 0.01,0.02 0.02,0.02 0.01,0.02 0.02,0.02 0.01,0.02 0.02,0.02 0.03,0.01 0.02,0.01 0.03,0.02 0.03,0.01 0.03,0.01 0.03,0.01 0.02,0.01 0.02,0 0.02,0 0.02,0.01 0.03,0 0.02,0.01 0.02,0 0.03,0 0.03,0 0.02,0.01 0.03,0 0.03,0 0.03,0 0.03,0.01 0.03,0 0.04,0 0.03,0 0.04,0 0.03,0 0.04,0 0.04,0 0.04,0 0.04,0 0.05,0 c 0.3,0 0.38,0 0.38,0.19 0,0.12 -0.11,0.12 -0.16,0.12 -0.33,0 -1.15,-0.03 -1.48,-0.03 -0.3,0 -1.03,0.03 -1.33,0.03 -0.06,0 -0.18,0 -0.18,-0.2 0,-0.11 0.09,-0.11 0.28,-0.11 0.01,0 0.2,0 0.37,-0.02 0.18,-0.02 0.27,-0.03 0.27,-0.16 0,-0.03 -0.01,-0.07 -0.04,-0.18 L 225,707.9 c -0.1,-0.39 -0.12,-0.47 -0.91,-0.47 -0.17,0 -0.27,0 -0.27,-0.2 0,-0.11 0.09,-0.11 0.27,-0.11 h 4.62 c 0.24,0 0.24,0 0.3,0.17 l 0.79,2.15 c 0.04,0.11 0.04,0.13 0.04,0.14 0,0.04 -0.03,0.11 -0.12,0.11 -0.09,0 -0.1,-0.05 -0.17,-0.21 -0.34,-0.91 -0.78,-2.05 -2.5,-2.05 h -0.94 c -0.14,0 -0.16,0 -0.22,0.01 -0.1,0.01 -0.13,0.02 -0.13,0.1 0,0.03 0,0.05 0.05,0.23 z" /></g>    <g
       ns0:text="$(c t\')^2 = (v t\')^2 + (ct)^2$"
       ns0:preamble=""
       transform="matrix(2.5655019,0,0,2.5655019,67.791038,504.0638)"
       style="font-style:normal;font-variant:normal;font-weight:normal;font-stretch:normal;letter-spacing:normal;word-spacing:normal;text-anchor:start;fill:none;stroke:#000000;stroke-linecap:butt;stroke-linejoin:miter;stroke-miterlimit:10.43299961;stroke-opacity:1;stroke-dasharray:none;stroke-dashoffset:0;display:inline"
       id="g5119">
      <defs
         id="defs5121">
        <g
           id="g5123">
          <symbol
             style="overflow:visible"
             overflow="visible"
             id="textext-20d74b0d-0">
            <path
               inkscape:connector-curvature="0"
               style="stroke:none"
               d=""
               id="path5126" />
          </symbol>
          <symbol
             style="overflow:visible"
             overflow="visible"
             id="textext-20d74b0d-1">
            <path
               inkscape:connector-curvature="0"
               style="stroke:none"
               d="m 3.296875,2.390625 c 0,-0.03125 0,-0.046875 -0.171875,-0.21875 C 1.890625,0.921875 1.5625,-0.96875 1.5625,-2.5 c 0,-1.734375 0.375,-3.46875 1.609375,-4.703125 0.125,-0.125 0.125,-0.140625 0.125,-0.171875 0,-0.078125 -0.03125,-0.109375 -0.09375,-0.109375 -0.109375,0 -1,0.6875 -1.59375,1.953125 -0.5,1.09375 -0.625,2.203125 -0.625,3.03125 0,0.78125 0.109375,1.984375 0.65625,3.125 C 2.25,1.84375 3.09375,2.5 3.203125,2.5 c 0.0625,0 0.09375,-0.03125 0.09375,-0.109375 z"
               id="path5129" />
          </symbol>
          <symbol
             style="overflow:visible"
             overflow="visible"
             id="textext-20d74b0d-2">
            <path
               inkscape:connector-curvature="0"
               style="stroke:none"
               d="m 2.875,-2.5 c 0,-0.765625 -0.109375,-1.96875 -0.65625,-3.109375 -0.59375,-1.21875 -1.453125,-1.875 -1.546875,-1.875 -0.0625,0 -0.109375,0.046875 -0.109375,0.109375 0,0.03125 0,0.046875 0.1875,0.234375 0.984375,0.984375 1.546875,2.5625 1.546875,4.640625 0,1.71875 -0.359375,3.46875 -1.59375,4.71875 C 0.5625,2.34375 0.5625,2.359375 0.5625,2.390625 0.5625,2.453125 0.609375,2.5 0.671875,2.5 0.765625,2.5 1.671875,1.8125 2.25,0.546875 2.765625,-0.546875 2.875,-1.65625 2.875,-2.5 z"
               id="path5132" />
          </symbol>
          <symbol
             style="overflow:visible"
             overflow="visible"
             id="textext-20d74b0d-3">
            <path
               inkscape:connector-curvature="0"
               style="stroke:none"
               d="m 6.84375,-3.265625 c 0.15625,0 0.34375,0 0.34375,-0.1875 C 7.1875,-3.65625 7,-3.65625 6.859375,-3.65625 l -5.96875,0 c -0.140625,0 -0.328125,0 -0.328125,0.203125 0,0.1875 0.1875,0.1875 0.328125,0.1875 z m 0.015625,1.9375 c 0.140625,0 0.328125,0 0.328125,-0.203125 0,-0.1875 -0.1875,-0.1875 -0.34375,-0.1875 l -5.953125,0 c -0.140625,0 -0.328125,0 -0.328125,0.1875 0,0.203125 0.1875,0.203125 0.328125,0.203125 z"
               id="path5135" />
          </symbol>
          <symbol
             style="overflow:visible"
             overflow="visible"
             id="textext-20d74b0d-4">
            <path
               inkscape:connector-curvature="0"
               style="stroke:none"
               d="m 4.078125,-2.296875 2.78125,0 C 7,-2.296875 7.1875,-2.296875 7.1875,-2.5 7.1875,-2.6875 7,-2.6875 6.859375,-2.6875 l -2.78125,0 0,-2.796875 c 0,-0.140625 0,-0.328125 -0.203125,-0.328125 -0.203125,0 -0.203125,0.1875 -0.203125,0.328125 l 0,2.796875 -2.78125,0 c -0.140625,0 -0.328125,0 -0.328125,0.1875 0,0.203125 0.1875,0.203125 0.328125,0.203125 l 2.78125,0 0,2.796875 c 0,0.140625 0,0.328125 0.203125,0.328125 0.203125,0 0.203125,-0.1875 0.203125,-0.328125 z"
               id="path5138" />
          </symbol>
          <symbol
             style="overflow:visible"
             overflow="visible"
             id="textext-20d74b0d-5">
            <path
               inkscape:connector-curvature="0"
               style="stroke:none"
               d=""
               id="path5141" />
          </symbol>
          <symbol
             style="overflow:visible"
             overflow="visible"
             id="textext-20d74b0d-6">
            <path
               inkscape:connector-curvature="0"
               style="stroke:none"
               d="m 3.953125,-3.78125 c -0.171875,0 -0.296875,0 -0.4375,0.125 -0.171875,0.15625 -0.1875,0.328125 -0.1875,0.390625 0,0.25 0.1875,0.359375 0.375,0.359375 0.28125,0 0.546875,-0.25 0.546875,-0.640625 0,-0.484375 -0.46875,-0.859375 -1.171875,-0.859375 -1.34375,0 -2.671875,1.421875 -2.671875,2.828125 0,0.90625 0.578125,1.6875 1.625,1.6875 1.421875,0 2.25,-1.0625 2.25,-1.171875 0,-0.0625 -0.046875,-0.140625 -0.109375,-0.140625 -0.0625,0 -0.078125,0.03125 -0.140625,0.109375 -0.78125,0.984375 -1.875,0.984375 -1.984375,0.984375 -0.625,0 -0.90625,-0.484375 -0.90625,-1.09375 0,-0.40625 0.203125,-1.375 0.546875,-1.984375 0.3125,-0.578125 0.859375,-1 1.40625,-1 0.328125,0 0.71875,0.125 0.859375,0.40625 z"
               id="path5144" />
          </symbol>
          <symbol
             style="overflow:visible"
             overflow="visible"
             id="textext-20d74b0d-7">
            <path
               inkscape:connector-curvature="0"
               style="stroke:none"
               d="m 2.046875,-3.984375 0.9375,0 c 0.203125,0 0.3125,0 0.3125,-0.203125 0,-0.109375 -0.109375,-0.109375 -0.28125,-0.109375 l -0.875,0 C 2.5,-5.71875 2.546875,-5.90625 2.546875,-5.96875 c 0,-0.171875 -0.125,-0.265625 -0.296875,-0.265625 -0.03125,0 -0.3125,0 -0.390625,0.359375 l -0.390625,1.578125 -0.9375,0 c -0.203125,0 -0.296875,0 -0.296875,0.1875 0,0.125 0.078125,0.125 0.28125,0.125 l 0.875,0 C 0.671875,-1.15625 0.625,-0.984375 0.625,-0.8125 0.625,-0.265625 1,0.109375 1.546875,0.109375 2.5625,0.109375 3.125,-1.34375 3.125,-1.421875 3.125,-1.53125 3.046875,-1.53125 3.015625,-1.53125 2.921875,-1.53125 2.90625,-1.5 2.859375,-1.390625 2.4375,-0.34375 1.90625,-0.109375 1.5625,-0.109375 c -0.203125,0 -0.3125,-0.125 -0.3125,-0.453125 0,-0.25 0.03125,-0.3125 0.0625,-0.484375 z"
               id="path5147" />
          </symbol>
          <symbol
             style="overflow:visible"
             overflow="visible"
             id="textext-20d74b0d-8">
            <path
               inkscape:connector-curvature="0"
               style="stroke:none"
               d="m 4.671875,-3.703125 c 0,-0.546875 -0.265625,-0.703125 -0.4375,-0.703125 -0.25,0 -0.5,0.265625 -0.5,0.484375 0,0.125 0.046875,0.1875 0.15625,0.296875 0.21875,0.203125 0.34375,0.453125 0.34375,0.8125 0,0.421875 -0.609375,2.703125 -1.765625,2.703125 -0.515625,0 -0.75,-0.34375 -0.75,-0.875 0,-0.546875 0.28125,-1.28125 0.578125,-2.109375 0.078125,-0.171875 0.125,-0.3125 0.125,-0.5 0,-0.4375 -0.3125,-0.8125 -0.8125,-0.8125 -0.9375,0 -1.3125,1.453125 -1.3125,1.53125 0,0.109375 0.09375,0.109375 0.109375,0.109375 0.109375,0 0.109375,-0.03125 0.15625,-0.1875 0.296875,-1 0.71875,-1.234375 1.015625,-1.234375 0.078125,0 0.25,0 0.25,0.3125 0,0.25 -0.109375,0.53125 -0.171875,0.703125 -0.4375,1.15625 -0.5625,1.609375 -0.5625,2.046875 0,1.078125 0.875,1.234375 1.328125,1.234375 1.671875,0 2.25,-3.296875 2.25,-3.8125 z"
               id="path5150" />
          </symbol>
          <symbol
             style="overflow:visible"
             overflow="visible"
             id="textext-20d74b0d-9">
            <path
               inkscape:connector-curvature="0"
               style="stroke:none"
               d=""
               id="path5153" />
          </symbol>
          <symbol
             style="overflow:visible"
             overflow="visible"
             id="textext-20d74b0d-10">
            <path
               inkscape:connector-curvature="0"
               style="stroke:none"
               d="m 2.015625,-3.296875 c 0.0625,-0.109375 0.0625,-0.171875 0.0625,-0.21875 0,-0.21875 -0.1875,-0.375 -0.40625,-0.375 -0.265625,0 -0.34375,0.21875 -0.375,0.328125 L 0.375,-0.546875 c -0.015625,0.015625 -0.046875,0.09375 -0.046875,0.109375 0,0.078125 0.21875,0.15625 0.28125,0.15625 0.046875,0 0.046875,-0.015625 0.09375,-0.125 z"
               id="path5156" />
          </symbol>
          <symbol
             style="overflow:visible"
             overflow="visible"
             id="textext-20d74b0d-11">
            <path
               inkscape:connector-curvature="0"
               style="stroke:none"
               d=""
               id="path5159" />
          </symbol>
          <symbol
             style="overflow:visible"
             overflow="visible"
             id="textext-20d74b0d-12">
            <path
               inkscape:connector-curvature="0"
               style="stroke:none"
               d="m 3.515625,-1.265625 -0.234375,0 c -0.015625,0.15625 -0.09375,0.5625 -0.1875,0.625 -0.046875,0.046875 -0.578125,0.046875 -0.6875,0.046875 l -1.28125,0 c 0.734375,-0.640625 0.984375,-0.84375 1.390625,-1.171875 0.515625,-0.40625 1,-0.84375 1,-1.5 0,-0.84375 -0.734375,-1.359375 -1.625,-1.359375 -0.859375,0 -1.453125,0.609375 -1.453125,1.25 0,0.34375 0.296875,0.390625 0.375,0.390625 0.15625,0 0.359375,-0.125 0.359375,-0.375 0,-0.125 -0.046875,-0.375 -0.40625,-0.375 C 0.984375,-4.21875 1.453125,-4.375 1.78125,-4.375 c 0.703125,0 1.0625,0.546875 1.0625,1.109375 0,0.609375 -0.4375,1.078125 -0.65625,1.328125 L 0.515625,-0.265625 C 0.4375,-0.203125 0.4375,-0.1875 0.4375,0 l 2.875,0 z"
               id="path5162" />
          </symbol>
        </g>
      </defs>
      <g
         id="textext-20d74b0d-13">
        <g
           style="fill:#000000;fill-opacity:1"
           id="g5165">
          <use
             height="379.68198"
             width="794.70544"
             xlink:href="#textext-20d74b0d-1"
             x="223.43201"
             y="134.765"
             id="use5167" />
        </g>
        <g
           style="fill:#000000;fill-opacity:1"
           id="g5169">
          <use
             height="379.68198"
             width="794.70544"
             xlink:href="#textext-20d74b0d-6"
             x="227.306"
             y="134.765"
             id="use5171" />
          <use
             height="379.68198"
             width="794.70544"
             xlink:href="#textext-20d74b0d-7"
             x="231.61781"
             y="134.765"
             id="use5173" />
        </g>
        <g
           style="fill:#000000;fill-opacity:1"
           id="g5175">
          <use
             height="379.68198"
             width="794.70544"
             xlink:href="#textext-20d74b0d-10"
             x="235.215"
             y="131.14999"
             id="use5177" />
        </g>
        <g
           style="fill:#000000;fill-opacity:1"
           id="g5179">
          <use
             height="379.68198"
             width="794.70544"
             xlink:href="#textext-20d74b0d-2"
             x="238.011"
             y="134.765"
             id="use5181" />
        </g>
        <g
           style="fill:#000000;fill-opacity:1"
           id="g5183">
          <use
             height="379.68198"
             width="794.70544"
             xlink:href="#textext-20d74b0d-12"
             x="241.88499"
             y="131.14999"
             id="use5185" />
        </g>
        <g
           style="fill:#000000;fill-opacity:1"
           id="g5187">
          <use
             height="379.68198"
             width="794.70544"
             xlink:href="#textext-20d74b0d-3"
             x="249.12199"
             y="134.765"
             id="use5189" />
        </g>
        <g
           style="fill:#000000;fill-opacity:1"
           id="g5191">
          <use
             height="379.68198"
             width="794.70544"
             xlink:href="#textext-20d74b0d-1"
             x="259.6405"
             y="134.765"
             id="use5193" />
        </g>
        <g
           style="fill:#000000;fill-opacity:1"
           id="g5195">
          <use
             height="379.68198"
             width="794.70544"
             xlink:href="#textext-20d74b0d-8"
             x="263.51199"
             y="134.765"
             id="use5197" />
        </g>
        <g
           style="fill:#000000;fill-opacity:1"
           id="g5199">
          <use
             height="379.68198"
             width="794.70544"
             xlink:href="#textext-20d74b0d-7"
             x="268.69952"
             y="134.765"
             id="use5201" />
        </g>
        <g
           style="fill:#000000;fill-opacity:1"
           id="g5203">
          <use
             height="379.68198"
             width="794.70544"
             xlink:href="#textext-20d74b0d-10"
             x="272.29599"
             y="131.14999"
             id="use5205" />
        </g>
        <g
           style="fill:#000000;fill-opacity:1"
           id="g5207">
          <use
             height="379.68198"
             width="794.70544"
             xlink:href="#textext-20d74b0d-2"
             x="275.091"
             y="134.765"
             id="use5209" />
        </g>
        <g
           style="fill:#000000;fill-opacity:1"
           id="g5211">
          <use
             height="379.68198"
             width="794.70544"
             xlink:href="#textext-20d74b0d-12"
             x="278.966"
             y="131.14999"
             id="use5213" />
        </g>
        <g
           style="fill:#000000;fill-opacity:1"
           id="g5215">
          <use
             height="379.68198"
             width="794.70544"
             xlink:href="#textext-20d74b0d-4"
             x="285.64899"
             y="134.765"
             id="use5217" />
        </g>
        <g
           style="fill:#000000;fill-opacity:1"
           id="g5219">
          <use
             height="379.68198"
             width="794.70544"
             xlink:href="#textext-20d74b0d-1"
             x="295.60962"
             y="134.765"
             id="use5221" />
        </g>
        <g
           style="fill:#000000;fill-opacity:1"
           id="g5223">
          <use
             height="379.68198"
             width="794.70544"
             xlink:href="#textext-20d74b0d-6"
             x="299.48599"
             y="134.765"
             id="use5225" />
          <use
             height="379.68198"
             width="794.70544"
             xlink:href="#textext-20d74b0d-7"
             x="303.79782"
             y="134.765"
             id="use5227" />
        </g>
        <g
           style="fill:#000000;fill-opacity:1"
           id="g5229">
          <use
             height="379.68198"
             width="794.70544"
             xlink:href="#textext-20d74b0d-2"
             x="307.39499"
             y="134.765"
             id="use5231" />
        </g>
        <g
           style="fill:#000000;fill-opacity:1"
           id="g5233">
          <use
             height="379.68198"
             width="794.70544"
             xlink:href="#textext-20d74b0d-12"
             x="311.26901"
             y="131.14999"
             id="use5235" />
        </g>
      </g>
    </g>
    <g
       id="g5563"
       style="font-style:normal;font-variant:normal;font-weight:normal;font-stretch:normal;letter-spacing:normal;word-spacing:normal;text-anchor:start;fill:none;stroke:#000000;stroke-linecap:butt;stroke-linejoin:miter;stroke-miterlimit:10.43299961;stroke-opacity:1;stroke-dasharray:none;stroke-dashoffset:0;display:inline"
       transform="matrix(2.8748835,0,0,2.8748835,-112.35508,447.2544)"
       ns0:preamble=""
       ns0:text="$v t\'$">
      <defs
         id="defs5565">
        <g
           id="g5567">
          <symbol
             id="textext-a47b1a03-0"
             overflow="visible"
             style="overflow:visible">
            <path
               id="path5570"
               d=""
               style="stroke:none"
               inkscape:connector-curvature="0" />
          </symbol>
          <symbol
             id="textext-a47b1a03-1"
             overflow="visible"
             style="overflow:visible">
            <path
               id="path5573"
               d="m 4.671875,-3.703125 c 0,-0.546875 -0.265625,-0.703125 -0.4375,-0.703125 -0.25,0 -0.5,0.265625 -0.5,0.484375 0,0.125 0.046875,0.1875 0.15625,0.296875 0.21875,0.203125 0.34375,0.453125 0.34375,0.8125 0,0.421875 -0.609375,2.703125 -1.765625,2.703125 -0.515625,0 -0.75,-0.34375 -0.75,-0.875 0,-0.546875 0.28125,-1.28125 0.578125,-2.109375 0.078125,-0.171875 0.125,-0.3125 0.125,-0.5 0,-0.4375 -0.3125,-0.8125 -0.8125,-0.8125 -0.9375,0 -1.3125,1.453125 -1.3125,1.53125 0,0.109375 0.09375,0.109375 0.109375,0.109375 0.109375,0 0.109375,-0.03125 0.15625,-0.1875 0.296875,-1 0.71875,-1.234375 1.015625,-1.234375 0.078125,0 0.25,0 0.25,0.3125 0,0.25 -0.109375,0.53125 -0.171875,0.703125 -0.4375,1.15625 -0.5625,1.609375 -0.5625,2.046875 0,1.078125 0.875,1.234375 1.328125,1.234375 1.671875,0 2.25,-3.296875 2.25,-3.8125 z"
               style="stroke:none"
               inkscape:connector-curvature="0" />
          </symbol>
          <symbol
             id="textext-a47b1a03-2"
             overflow="visible"
             style="overflow:visible">
            <path
               id="path5576"
               d="m 2.046875,-3.984375 0.9375,0 c 0.203125,0 0.3125,0 0.3125,-0.203125 0,-0.109375 -0.109375,-0.109375 -0.28125,-0.109375 l -0.875,0 C 2.5,-5.71875 2.546875,-5.90625 2.546875,-5.96875 c 0,-0.171875 -0.125,-0.265625 -0.296875,-0.265625 -0.03125,0 -0.3125,0 -0.390625,0.359375 l -0.390625,1.578125 -0.9375,0 c -0.203125,0 -0.296875,0 -0.296875,0.1875 0,0.125 0.078125,0.125 0.28125,0.125 l 0.875,0 C 0.671875,-1.15625 0.625,-0.984375 0.625,-0.8125 0.625,-0.265625 1,0.109375 1.546875,0.109375 2.5625,0.109375 3.125,-1.34375 3.125,-1.421875 3.125,-1.53125 3.046875,-1.53125 3.015625,-1.53125 2.921875,-1.53125 2.90625,-1.5 2.859375,-1.390625 2.4375,-0.34375 1.90625,-0.109375 1.5625,-0.109375 c -0.203125,0 -0.3125,-0.125 -0.3125,-0.453125 0,-0.25 0.03125,-0.3125 0.0625,-0.484375 z"
               style="stroke:none"
               inkscape:connector-curvature="0" />
          </symbol>
          <symbol
             id="textext-a47b1a03-3"
             overflow="visible"
             style="overflow:visible">
            <path
               id="path5579"
               d=""
               style="stroke:none"
               inkscape:connector-curvature="0" />
          </symbol>
          <symbol
             id="textext-a47b1a03-4"
             overflow="visible"
             style="overflow:visible">
            <path
               id="path5582"
               d="m 2.015625,-3.296875 c 0.0625,-0.109375 0.0625,-0.171875 0.0625,-0.21875 0,-0.21875 -0.1875,-0.375 -0.40625,-0.375 -0.265625,0 -0.34375,0.21875 -0.375,0.328125 L 0.375,-0.546875 c -0.015625,0.015625 -0.046875,0.09375 -0.046875,0.109375 0,0.078125 0.21875,0.15625 0.28125,0.15625 0.046875,0 0.046875,-0.015625 0.09375,-0.125 z"
               style="stroke:none"
               inkscape:connector-curvature="0" />
          </symbol>
        </g>
      </defs>
      <g
         id="textext-a47b1a03-5">
        <g
           id="g5585"
           style="fill:#000000;fill-opacity:1">
          <use
             id="use5587"
             y="134.765"
             x="223.43201"
             xlink:href="#textext-a47b1a03-1"
             width="794.70544"
             height="379.68198" />
        </g>
        <g
           id="g5589"
           style="fill:#000000;fill-opacity:1">
          <use
             id="use5591"
             y="134.765"
             x="228.61952"
             xlink:href="#textext-a47b1a03-2"
             width="794.70544"
             height="379.68198" />
        </g>
        <g
           id="g5593"
           style="fill:#000000;fill-opacity:1">
          <use
             id="use5595"
             y="131.14999"
             x="232.216"
             xlink:href="#textext-a47b1a03-4"
             width="794.70544"
             height="379.68198" />
        </g>
      </g>
    </g>
    <g
       ns0:text="$c t\'$"
       ns0:preamble=""
       transform="matrix(2.7484434,0,0,2.7484434,-50.127231,310.88987)"
       style="font-style:normal;font-variant:normal;font-weight:normal;font-stretch:normal;letter-spacing:normal;word-spacing:normal;text-anchor:start;fill:none;stroke:#000000;stroke-linecap:butt;stroke-linejoin:miter;stroke-miterlimit:10.43299961;stroke-opacity:1;stroke-dasharray:none;stroke-dashoffset:0;display:inline"
       id="g5952">
      <defs
         id="defs5954">
        <g
           id="g5956">
          <symbol
             style="overflow:visible"
             overflow="visible"
             id="textext-329c8e89-0">
            <path
               inkscape:connector-curvature="0"
               style="stroke:none"
               d=""
               id="path5959" />
          </symbol>
          <symbol
             style="overflow:visible"
             overflow="visible"
             id="textext-329c8e89-1">
            <path
               inkscape:connector-curvature="0"
               style="stroke:none"
               d="m 3.953125,-3.78125 c -0.171875,0 -0.296875,0 -0.4375,0.125 -0.171875,0.15625 -0.1875,0.328125 -0.1875,0.390625 0,0.25 0.1875,0.359375 0.375,0.359375 0.28125,0 0.546875,-0.25 0.546875,-0.640625 0,-0.484375 -0.46875,-0.859375 -1.171875,-0.859375 -1.34375,0 -2.671875,1.421875 -2.671875,2.828125 0,0.90625 0.578125,1.6875 1.625,1.6875 1.421875,0 2.25,-1.0625 2.25,-1.171875 0,-0.0625 -0.046875,-0.140625 -0.109375,-0.140625 -0.0625,0 -0.078125,0.03125 -0.140625,0.109375 -0.78125,0.984375 -1.875,0.984375 -1.984375,0.984375 -0.625,0 -0.90625,-0.484375 -0.90625,-1.09375 0,-0.40625 0.203125,-1.375 0.546875,-1.984375 0.3125,-0.578125 0.859375,-1 1.40625,-1 0.328125,0 0.71875,0.125 0.859375,0.40625 z"
               id="path5962" />
          </symbol>
          <symbol
             style="overflow:visible"
             overflow="visible"
             id="textext-329c8e89-2">
            <path
               inkscape:connector-curvature="0"
               style="stroke:none"
               d="m 2.046875,-3.984375 0.9375,0 c 0.203125,0 0.3125,0 0.3125,-0.203125 0,-0.109375 -0.109375,-0.109375 -0.28125,-0.109375 l -0.875,0 C 2.5,-5.71875 2.546875,-5.90625 2.546875,-5.96875 c 0,-0.171875 -0.125,-0.265625 -0.296875,-0.265625 -0.03125,0 -0.3125,0 -0.390625,0.359375 l -0.390625,1.578125 -0.9375,0 c -0.203125,0 -0.296875,0 -0.296875,0.1875 0,0.125 0.078125,0.125 0.28125,0.125 l 0.875,0 C 0.671875,-1.15625 0.625,-0.984375 0.625,-0.8125 0.625,-0.265625 1,0.109375 1.546875,0.109375 2.5625,0.109375 3.125,-1.34375 3.125,-1.421875 3.125,-1.53125 3.046875,-1.53125 3.015625,-1.53125 2.921875,-1.53125 2.90625,-1.5 2.859375,-1.390625 2.4375,-0.34375 1.90625,-0.109375 1.5625,-0.109375 c -0.203125,0 -0.3125,-0.125 -0.3125,-0.453125 0,-0.25 0.03125,-0.3125 0.0625,-0.484375 z"
               id="path5965" />
          </symbol>
          <symbol
             style="overflow:visible"
             overflow="visible"
             id="textext-329c8e89-3">
            <path
               inkscape:connector-curvature="0"
               style="stroke:none"
               d=""
               id="path5968" />
          </symbol>
          <symbol
             style="overflow:visible"
             overflow="visible"
             id="textext-329c8e89-4">
            <path
               inkscape:connector-curvature="0"
               style="stroke:none"
               d="m 2.015625,-3.296875 c 0.0625,-0.109375 0.0625,-0.171875 0.0625,-0.21875 0,-0.21875 -0.1875,-0.375 -0.40625,-0.375 -0.265625,0 -0.34375,0.21875 -0.375,0.328125 L 0.375,-0.546875 c -0.015625,0.015625 -0.046875,0.09375 -0.046875,0.109375 0,0.078125 0.21875,0.15625 0.28125,0.15625 0.046875,0 0.046875,-0.015625 0.09375,-0.125 z"
               id="path5971" />
          </symbol>
        </g>
      </defs>
      <g
         id="textext-329c8e89-5">
        <g
           style="fill:#000000;fill-opacity:1"
           id="g5974">
          <use
             height="379.68198"
             width="794.70544"
             xlink:href="#textext-329c8e89-1"
             x="223.43201"
             y="134.765"
             id="use5976" />
          <use
             height="379.68198"
             width="794.70544"
             xlink:href="#textext-329c8e89-2"
             x="227.74382"
             y="134.765"
             id="use5978" />
        </g>
        <g
           style="fill:#000000;fill-opacity:1"
           id="g5980">
          <use
             height="379.68198"
             width="794.70544"
             xlink:href="#textext-329c8e89-4"
             x="231.341"
             y="131.14999"
             id="use5982" />
        </g>
      </g>
    </g>
    <g
       id="g6367"
       style="font-style:normal;font-variant:normal;font-weight:normal;font-stretch:normal;letter-spacing:normal;word-spacing:normal;text-anchor:start;fill:none;stroke:#000000;stroke-linecap:butt;stroke-linejoin:miter;stroke-miterlimit:10.43299961;stroke-opacity:1;stroke-dasharray:none;stroke-dashoffset:0;display:inline"
       transform="matrix(0,-2.657832,2.657832,0,77.370629,1287.9003)"
       ns0:preamble=""
       ns0:text="$L = c t$">
      <defs
         id="defs6369">
        <g
           id="g6371">
          <symbol
             id="textext-e5ab359d-0"
             overflow="visible"
             style="overflow:visible">
            <path
               id="path6374"
               d=""
               style="stroke:none"
               inkscape:connector-curvature="0" />
          </symbol>
          <symbol
             id="textext-e5ab359d-1"
             overflow="visible"
             style="overflow:visible">
            <path
               id="path6377"
               d="M 3.734375,-6.03125 C 3.8125,-6.390625 3.84375,-6.5 4.78125,-6.5 c 0.296875,0 0.375,0 0.375,-0.1875 0,-0.125 -0.109375,-0.125 -0.15625,-0.125 -0.328125,0 -1.140625,0.03125 -1.46875,0.03125 -0.296875,0 -1.03125,-0.03125 -1.328125,-0.03125 -0.0625,0 -0.1875,0 -0.1875,0.203125 0,0.109375 0.09375,0.109375 0.28125,0.109375 0.015625,0 0.203125,0 0.375,0.015625 0.171875,0.03125 0.265625,0.03125 0.265625,0.171875 0,0.03125 0,0.0625 -0.03125,0.1875 L 1.5625,-0.78125 c -0.09375,0.390625 -0.109375,0.46875 -0.90625,0.46875 -0.171875,0 -0.265625,0 -0.265625,0.203125 C 0.390625,0 0.484375,0 0.65625,0 l 4.625,0 C 5.515625,0 5.515625,0 5.578125,-0.171875 L 6.375,-2.328125 c 0.03125,-0.109375 0.03125,-0.125 0.03125,-0.140625 0,-0.03125 -0.03125,-0.109375 -0.109375,-0.109375 -0.09375,0 -0.109375,0.0625 -0.171875,0.21875 -0.34375,0.90625 -0.78125,2.046875 -2.5,2.046875 l -0.9375,0 c -0.140625,0 -0.171875,0 -0.21875,0 -0.109375,-0.015625 -0.140625,-0.03125 -0.140625,-0.109375 0,-0.03125 0,-0.046875 0.046875,-0.21875 z"
               style="stroke:none"
               inkscape:connector-curvature="0" />
          </symbol>
          <symbol
             id="textext-e5ab359d-2"
             overflow="visible"
             style="overflow:visible">
            <path
               id="path6380"
               d="m 3.953125,-3.78125 c -0.171875,0 -0.296875,0 -0.4375,0.125 -0.171875,0.15625 -0.1875,0.328125 -0.1875,0.390625 0,0.25 0.1875,0.359375 0.375,0.359375 0.28125,0 0.546875,-0.25 0.546875,-0.640625 0,-0.484375 -0.46875,-0.859375 -1.171875,-0.859375 -1.34375,0 -2.671875,1.421875 -2.671875,2.828125 0,0.90625 0.578125,1.6875 1.625,1.6875 1.421875,0 2.25,-1.0625 2.25,-1.171875 0,-0.0625 -0.046875,-0.140625 -0.109375,-0.140625 -0.0625,0 -0.078125,0.03125 -0.140625,0.109375 -0.78125,0.984375 -1.875,0.984375 -1.984375,0.984375 -0.625,0 -0.90625,-0.484375 -0.90625,-1.09375 0,-0.40625 0.203125,-1.375 0.546875,-1.984375 0.3125,-0.578125 0.859375,-1 1.40625,-1 0.328125,0 0.71875,0.125 0.859375,0.40625 z"
               style="stroke:none"
               inkscape:connector-curvature="0" />
          </symbol>
          <symbol
             id="textext-e5ab359d-3"
             overflow="visible"
             style="overflow:visible">
            <path
               id="path6383"
               d="m 2.046875,-3.984375 0.9375,0 c 0.203125,0 0.3125,0 0.3125,-0.203125 0,-0.109375 -0.109375,-0.109375 -0.28125,-0.109375 l -0.875,0 C 2.5,-5.71875 2.546875,-5.90625 2.546875,-5.96875 c 0,-0.171875 -0.125,-0.265625 -0.296875,-0.265625 -0.03125,0 -0.3125,0 -0.390625,0.359375 l -0.390625,1.578125 -0.9375,0 c -0.203125,0 -0.296875,0 -0.296875,0.1875 0,0.125 0.078125,0.125 0.28125,0.125 l 0.875,0 C 0.671875,-1.15625 0.625,-0.984375 0.625,-0.8125 0.625,-0.265625 1,0.109375 1.546875,0.109375 2.5625,0.109375 3.125,-1.34375 3.125,-1.421875 3.125,-1.53125 3.046875,-1.53125 3.015625,-1.53125 2.921875,-1.53125 2.90625,-1.5 2.859375,-1.390625 2.4375,-0.34375 1.90625,-0.109375 1.5625,-0.109375 c -0.203125,0 -0.3125,-0.125 -0.3125,-0.453125 0,-0.25 0.03125,-0.3125 0.0625,-0.484375 z"
               style="stroke:none"
               inkscape:connector-curvature="0" />
          </symbol>
          <symbol
             id="textext-e5ab359d-4"
             overflow="visible"
             style="overflow:visible">
            <path
               id="path6386"
               d=""
               style="stroke:none"
               inkscape:connector-curvature="0" />
          </symbol>
          <symbol
             id="textext-e5ab359d-5"
             overflow="visible"
             style="overflow:visible">
            <path
               id="path6389"
               d="m 6.84375,-3.265625 c 0.15625,0 0.34375,0 0.34375,-0.1875 C 7.1875,-3.65625 7,-3.65625 6.859375,-3.65625 l -5.96875,0 c -0.140625,0 -0.328125,0 -0.328125,0.203125 0,0.1875 0.1875,0.1875 0.328125,0.1875 z m 0.015625,1.9375 c 0.140625,0 0.328125,0 0.328125,-0.203125 0,-0.1875 -0.1875,-0.1875 -0.34375,-0.1875 l -5.953125,0 c -0.140625,0 -0.328125,0 -0.328125,0.1875 0,0.203125 0.1875,0.203125 0.328125,0.203125 z"
               style="stroke:none"
               inkscape:connector-curvature="0" />
          </symbol>
        </g>
      </defs>
      <g
         id="textext-e5ab359d-6">
        <g
           id="g6392"
           style="fill:#000000;fill-opacity:1">
          <use
             id="use6394"
             y="134.765"
             x="223.43201"
             xlink:href="#textext-e5ab359d-1"
             width="794.70544"
             height="379.68198" />
        </g>
        <g
           id="g6396"
           style="fill:#000000;fill-opacity:1">
          <use
             id="use6398"
             y="134.765"
             x="232.98"
             xlink:href="#textext-e5ab359d-5"
             width="794.70544"
             height="379.68198" />
        </g>
        <g
           id="g6400"
           style="fill:#000000;fill-opacity:1">
          <use
             id="use6402"
             y="134.765"
             x="243.496"
             xlink:href="#textext-e5ab359d-2"
             width="794.70544"
             height="379.68198" />
          <use
             id="use6404"
             y="134.765"
             x="247.80782"
             xlink:href="#textext-e5ab359d-3"
             width="794.70544"
             height="379.68198" />
        </g>
      </g>
    </g>
  </g>
</svg>
