<?xml version="1.0" encoding="UTF-8" standalone="no"?>
<!-- Created with Inkscape (http://www.inkscape.org/) -->

<svg
   xmlns:dc="http://purl.org/dc/elements/1.1/"
   xmlns:cc="http://creativecommons.org/ns#"
   xmlns:rdf="http://www.w3.org/1999/02/22-rdf-syntax-ns#"
   xmlns:svg="http://www.w3.org/2000/svg"
   xmlns="http://www.w3.org/2000/svg"
   xmlns:sodipodi="http://sodipodi.sourceforge.net/DTD/sodipodi-0.dtd"
   xmlns:inkscape="http://www.inkscape.org/namespaces/inkscape"
   width="105.83334mm"
   height="55.033333mm"
   viewBox="0 0 375.00001 195"
   id="svg12441"
   version="1.1"
   inkscape:version="0.91 r13725"
   sodipodi:docname="especular_difusa.svg">
  <defs
     id="defs12443" />
  <sodipodi:namedview
     id="base"
     pagecolor="#ffffff"
     bordercolor="#666666"
     borderopacity="1.0"
     inkscape:pageopacity="0.0"
     inkscape:pageshadow="2"
     inkscape:zoom="1.084"
     inkscape:cx="238.73756"
     inkscape:cy="33.456246"
     inkscape:document-units="px"
     inkscape:current-layer="layer1"
     showgrid="false"
     fit-margin-top="0"
     fit-margin-left="0"
     fit-margin-right="0"
     fit-margin-bottom="0"
     inkscape:window-width="1366"
     inkscape:window-height="744"
     inkscape:window-x="1366"
     inkscape:window-y="24"
     inkscape:window-maximized="1" />
  <metadata
     id="metadata12446">
    <rdf:RDF>
      <cc:Work
         rdf:about="">
        <dc:format>image/svg+xml</dc:format>
        <dc:type
           rdf:resource="http://purl.org/dc/dcmitype/StillImage" />
        <dc:title />
      </cc:Work>
    </rdf:RDF>
  </metadata>
  <g
     inkscape:label="Capa 1"
     inkscape:groupmode="layer"
     id="layer1"
     transform="translate(-112.50002,-69.147949)">
    <rect
       style="fill:#008dff;stroke:#000000;stroke-width:1;stroke-miterlimit:4;stroke-dasharray:none;stroke-dashoffset:0;fill-opacity:1"
       id="rect13179"
       width="121.30996"
       height="17.066422"
       x="149.40036"
       y="209.71991" />
    <path
       style="fill:#008dff;fill-rule:evenodd;stroke:#000000;stroke-width:1px;stroke-linecap:butt;stroke-linejoin:miter;stroke-opacity:1;fill-opacity:1"
       d="m 342.66605,211.10367 c 2.45272,3.18815 1.17063,0.93417 3.22878,2.30627 0.18092,0.12062 0.26678,0.36402 0.46126,0.46126 0.13752,0.0688 0.3075,0 0.46125,0 0.15375,0 0.30751,0 0.46126,0 0.46125,0 0.94618,-0.14586 1.38376,0 0.20628,0.0688 0.61501,0.3075 0.46126,0.46125 -0.15376,0.15375 -0.61501,-0.3075 -0.46126,-0.46125 0.21744,-0.21744 0.63079,0.0972 0.92251,0 0.20628,-0.0688 0.28034,-0.34064 0.46126,-0.46126 0.28605,-0.1907 0.63645,-0.27055 0.9225,-0.46125 0.53222,-0.35481 0.85155,-1.02895 1.38377,-1.38377 0.28606,-0.1907 0.63645,-0.27055 0.92251,-0.46125 0.18092,-0.12061 0.26677,-0.36401 0.46125,-0.46126 1.35739,-0.67869 -0.60728,1.06854 0.92251,-0.46125 1.23001,-0.61501 2.4879,-1.17716 3.69004,-1.84502 0.48346,-0.26859 0.899,-1.14138 1.38377,-1.38376 0.13721,-0.0686 2.57349,0 2.76752,0 0.15376,0 0.32374,-0.0688 0.46126,0 0.19448,0.0972 0.3075,0.3075 0.46125,0.46125 0.15376,0.15375 0.30751,0.3075 0.46126,0.46126 3.10161,2.58467 1.91841,1.45715 3.69004,3.22878 0.15375,0.15375 0.36401,0.26677 0.46125,0.46125 0.0688,0.13752 -0.0688,0.32374 0,0.46126 0.0972,0.19448 0.3075,0.3075 0.46125,0.46125 0.15376,0.15375 0.26678,0.36402 0.46126,0.46126 0.14037,0.0702 1.17603,0 1.38376,0 0.15941,0 3.50337,0.0622 3.69004,0 0.20628,-0.0688 0.26677,-0.36402 0.46125,-0.46126 0.27504,-0.13752 0.64747,0.13752 0.92251,0 0.19449,-0.0972 0.30751,-0.3075 0.46126,-0.46125 2.14866,-0.5622 4.27924,-0.46126 6.45756,-0.46126 1.18923,0 2.10007,0.10311 3.22879,-0.46125 0.37943,-0.18972 1.50388,-1.6176 1.84501,-1.84502 0.12793,-0.0853 0.30751,0 0.46126,0 0.15375,-0.15375 0.3075,-0.3075 0.46125,-0.46125 0.15375,-0.15376 0.30751,-0.30751 0.46126,-0.46126 0.15375,-0.15375 0.25497,-0.39249 0.46125,-0.46125 0.18867,-0.0629 3.14503,0 3.22878,0 0.30751,0 0.61501,0 0.92251,0 0.15376,0 0.33333,0.0853 0.46126,0 1.54684,-1.03123 0.30534,-0.92251 1.38376,-0.92251 1.55846,0.0504 3.1637,-0.26317 4.61255,0.46125 0.19448,0.0972 0.3075,0.3075 0.46125,0.46126 0.15375,0.15375 0.36402,0.26677 0.46126,0.46125 0.0688,0.13752 -0.0486,0.31539 0,0.46126 0.10872,0.32615 0.3075,0.615 0.46125,0.9225 1.36289,0.58182 2.73159,0.46126 4.15129,0.46126 0.30751,0 0.63079,0.0972 0.92251,0 0.20628,-0.0688 0.30751,-0.3075 0.46126,-0.46126 0.27128,-0.27128 1.63142,-1.73822 1.84502,-1.84501 0.13752,-0.0688 0.32373,0.0688 0.46125,0 0.2136,-0.1068 1.57373,-1.57374 1.84502,-1.84502 0.76876,0 1.54797,-0.12638 2.30627,0 0.21448,0.0357 0.30751,0.3075 0.46126,0.46125 0.15375,0.15375 0.3075,0.30751 0.46125,0.46126 0.15375,0.15375 0.36401,0.26677 0.46126,0.46125 0.0688,0.13752 -0.0486,0.31539 0,0.46126 0.10871,0.32615 0.35253,0.59635 0.46125,0.92251 0.0486,0.14586 0,0.3075 0,0.46125 0,0.15375 0.15375,0.46125 0,0.46125 -0.15375,0 -0.10872,-0.56997 0,-0.46125 0.39199,0.39199 0.53052,0.99177 0.92251,1.38376 0.10872,0.10872 0.32373,-0.0688 0.46125,0 0.38897,0.19449 0.53355,0.72803 0.92251,0.92251 0.27504,0.13752 0.64747,-0.13752 0.92251,0 0.19448,0.0972 0.30751,0.30751 0.46126,0.46126 1.27029,0.54792 2.38374,0.46125 3.69003,0.46125 0.30751,0 0.62419,-0.0746 0.92251,0 0.33354,0.0834 0.58898,0.37787 0.92251,0.46126 0.29832,0.0746 0.61501,0 0.92251,0 0.30751,0 0.63079,0.0972 0.92251,0 0.32616,-0.10872 0.59635,-0.35254 0.92251,-0.46126 0.14586,-0.0486 0.32374,0.0688 0.46126,0 0.38896,-0.19448 0.50995,-0.78499 0.9225,-0.92251 0.29173,-0.0972 0.63079,0.0972 0.92251,0 0.20628,-0.0688 0.30751,-0.3075 0.46126,-0.46125 0.15375,-0.15375 0.3075,-0.3075 0.46125,-0.46126 1.99418,-0.49854 1.21109,-0.46125 2.30628,-0.46125 0.15375,0 0.33332,0.0853 0.46125,0 0.36184,-0.24123 0.56067,-0.68128 0.92251,-0.92251 0.12793,-0.0853 0.3075,0 0.46125,0 0.15376,0 0.30751,0 0.46126,0 0.99687,0 1.39798,-0.14427 2.30627,0.46125 0.36184,0.24123 0.53355,0.72803 0.92251,0.92251 0.13752,0.0688 0.3075,0 0.46126,0 0.3075,0.30751 0.615,0.61501 0.92251,0.92251 1.99892,0 1.22998,0 2.30627,0 0.15375,0 0.32373,-0.0688 0.46125,0 0.19448,0.0972 0.26678,0.36402 0.46126,0.46126 0.27504,0.13752 0.92251,-0.30751 0.92251,0 0,0.15375 -0.30751,0 -0.46126,0 1.58337,-0.36145 1.33386,1.82007 2.30627,2.30627 0.27504,0.13752 0.64748,-0.13752 0.92251,0 0.19449,0.0972 0.25498,0.3925 0.46126,0.46126 0.29172,0.0972 0.615,0 0.92251,0 0.15375,0 0.31539,0.0486 0.46125,0 0.32616,-0.10872 0.63645,-0.27055 0.92251,-0.46126 0.48651,-0.32434 1.27565,-1.62879 1.38377,-1.84502 0.0688,-0.13752 -0.0688,-0.32373 0,-0.46125 0.56997,-1.13995 0.46125,0.15921 0.46125,-0.92251 1.01975,-2.0395 0.4363,-1.35881 1.38376,-2.30627 0.15376,-0.15376 0.26678,-0.36402 0.46126,-0.46126 0.13752,-0.0688 0.32373,0.0688 0.46125,0 0.19449,-0.0972 0.30751,-0.3075 0.46126,-0.46125 0.3075,-0.30751 0.57461,-0.66159 0.92251,-0.92251 2.23398,-1.67549 -0.027,0.48829 1.38376,-0.92251 0.61501,0.61501 1.23001,1.23001 1.84502,1.84502 1.05758,1.05757 -0.19448,-0.29172 0.92251,1.38376 0.26534,0.39802 1.02348,1.02348 1.38376,1.38376 0.15375,0.15376 0.30751,0.30751 0.46126,0.46126 0.15375,0.15375 0.25497,0.39249 0.46125,0.46125 0.85496,0.28499 0.90659,0.0159 1.38377,-0.46125 0.15375,-0.15375 0.3075,-0.61501 0.46125,-0.46126 0.15375,0.15376 -0.3075,0.30751 -0.46125,0.46126 l 0,16.14391 -119.92621,0 z"
       id="path13181"
       inkscape:connector-curvature="0" />
    <path
       style="fill:none;fill-rule:evenodd;stroke:#000000;stroke-width:1px;stroke-linecap:butt;stroke-linejoin:miter;stroke-opacity:1"
       d="M 121.72509,95.328761 170.15683,209.25865 219.51107,94.867506"
       id="path13183"
       inkscape:connector-curvature="0" />
    <path
       inkscape:connector-curvature="0"
       id="path13185"
       d="M 121.72509,95.328761 170.15683,209.25865 219.51107,94.867506"
       style="fill:none;fill-rule:evenodd;stroke:#000000;stroke-width:1px;stroke-linecap:butt;stroke-linejoin:miter;stroke-opacity:1" />
    <path
       style="fill:none;fill-rule:evenodd;stroke:#000000;stroke-width:1px;stroke-linecap:butt;stroke-linejoin:miter;stroke-opacity:1"
       d="M 139.72509,95.328761 188.15683,209.25865 237.51107,94.867506"
       id="path13187"
       inkscape:connector-curvature="0" />
    <path
       inkscape:connector-curvature="0"
       id="path13189"
       d="M 153.72509,95.328761 202.15683,209.25865 251.51107,94.867506"
       style="fill:none;fill-rule:evenodd;stroke:#000000;stroke-width:1px;stroke-linecap:butt;stroke-linejoin:miter;stroke-opacity:1" />
    <path
       style="fill:none;fill-rule:evenodd;stroke:#000000;stroke-width:1px;stroke-linecap:butt;stroke-linejoin:miter;stroke-opacity:1"
       d="M 169.72509,95.328761 218.15683,209.25865 267.51107,94.867506"
       id="path13191"
       inkscape:connector-curvature="0" />
    <path
       sodipodi:type="star"
       style="fill:#000000;stroke:#000000;stroke-width:1;stroke-miterlimit:4;stroke-dasharray:none;stroke-dashoffset:0"
       id="path13193"
       sodipodi:sides="3"
       sodipodi:cx="150.32288"
       sodipodi:cy="162.21069"
       sodipodi:r1="6.0140243"
       sodipodi:r2="3.0070121"
       sodipodi:arg1="1.0040671"
       sodipodi:arg2="2.0512647"
       inkscape:flatsided="true"
       inkscape:rounded="0"
       inkscape:randomized="0"
       d="m 153.55166,167.28449 -9.23722,-4.81449 8.78809,-5.59241 z"
       inkscape:transform-center-x="1.1450871"
       inkscape:transform-center-y="0.39855449"
       transform="matrix(0.98454076,0.1751556,-0.1751556,0.98454076,30.735988,-23.822241)" />
    <path
       transform="matrix(0.98454076,0.1751556,-0.1751556,0.98454076,48.94213,-23.822241)"
       inkscape:transform-center-y="0.39855449"
       inkscape:transform-center-x="1.1450871"
       d="m 153.55166,167.28449 -9.23722,-4.81449 8.78809,-5.59241 z"
       inkscape:randomized="0"
       inkscape:rounded="0"
       inkscape:flatsided="true"
       sodipodi:arg2="2.0512647"
       sodipodi:arg1="1.0040671"
       sodipodi:r2="3.0070121"
       sodipodi:r1="6.0140243"
       sodipodi:cy="162.21069"
       sodipodi:cx="150.32288"
       sodipodi:sides="3"
       id="path13195"
       style="fill:#000000;stroke:#000000;stroke-width:1;stroke-miterlimit:4;stroke-dasharray:none;stroke-dashoffset:0"
       sodipodi:type="star" />
    <path
       sodipodi:type="star"
       style="fill:#000000;stroke:#000000;stroke-width:1;stroke-miterlimit:4;stroke-dasharray:none;stroke-dashoffset:0"
       id="path13197"
       sodipodi:sides="3"
       sodipodi:cx="150.32288"
       sodipodi:cy="162.21069"
       sodipodi:r1="6.0140243"
       sodipodi:r2="3.0070121"
       sodipodi:arg1="1.0040671"
       sodipodi:arg2="2.0512647"
       inkscape:flatsided="true"
       inkscape:rounded="0"
       inkscape:randomized="0"
       d="m 153.55166,167.28449 -9.23722,-4.81449 8.78809,-5.59241 z"
       inkscape:transform-center-x="1.1450871"
       inkscape:transform-center-y="0.39855449"
       transform="matrix(0.98454076,0.1751556,-0.1751556,0.98454076,62.94213,-23.822241)" />
    <path
       transform="matrix(0.98454076,0.1751556,-0.1751556,0.98454076,78.615974,-23.822241)"
       inkscape:transform-center-y="0.39855449"
       inkscape:transform-center-x="1.1450871"
       d="m 153.55166,167.28449 -9.23722,-4.81449 8.78809,-5.59241 z"
       inkscape:randomized="0"
       inkscape:rounded="0"
       inkscape:flatsided="true"
       sodipodi:arg2="2.0512647"
       sodipodi:arg1="1.0040671"
       sodipodi:r2="3.0070121"
       sodipodi:r1="6.0140243"
       sodipodi:cy="162.21069"
       sodipodi:cx="150.32288"
       sodipodi:sides="3"
       id="path13199"
       style="fill:#000000;stroke:#000000;stroke-width:1;stroke-miterlimit:4;stroke-dasharray:none;stroke-dashoffset:0"
       sodipodi:type="star" />
    <path
       inkscape:connector-curvature="0"
       id="path13201"
       d="M 185.72509,95.328761 234.15683,209.25865 283.51107,94.867506"
       style="fill:none;fill-rule:evenodd;stroke:#000000;stroke-width:1px;stroke-linecap:butt;stroke-linejoin:miter;stroke-opacity:1" />
    <path
       sodipodi:type="star"
       style="fill:#000000;stroke:#000000;stroke-width:1;stroke-miterlimit:4;stroke-dasharray:none;stroke-dashoffset:0"
       id="path13203"
       sodipodi:sides="3"
       sodipodi:cx="150.32288"
       sodipodi:cy="162.21069"
       sodipodi:r1="6.0140243"
       sodipodi:r2="3.0070121"
       sodipodi:arg1="1.0040671"
       sodipodi:arg2="2.0512647"
       inkscape:flatsided="true"
       inkscape:rounded="0"
       inkscape:randomized="0"
       d="m 153.55166,167.28449 -9.23722,-4.81449 8.78809,-5.59241 z"
       inkscape:transform-center-x="1.1450871"
       inkscape:transform-center-y="0.39855449"
       transform="matrix(0.98454076,0.1751556,-0.1751556,0.98454076,94.615974,-23.822241)" />
    <path
       style="fill:none;fill-rule:evenodd;stroke:#000000;stroke-width:1px;stroke-linecap:butt;stroke-linejoin:miter;stroke-opacity:1"
       d="M 201.72509,95.328761 250.15683,209.25865 299.51107,94.867506"
       id="path13205"
       inkscape:connector-curvature="0" />
    <path
       transform="matrix(0.98454076,0.1751556,-0.1751556,0.98454076,110.61597,-23.822241)"
       inkscape:transform-center-y="0.39855449"
       inkscape:transform-center-x="1.1450871"
       d="m 153.55166,167.28449 -9.23722,-4.81449 8.78809,-5.59241 z"
       inkscape:randomized="0"
       inkscape:rounded="0"
       inkscape:flatsided="true"
       sodipodi:arg2="2.0512647"
       sodipodi:arg1="1.0040671"
       sodipodi:r2="3.0070121"
       sodipodi:r1="6.0140243"
       sodipodi:cy="162.21069"
       sodipodi:cx="150.32288"
       sodipodi:sides="3"
       id="path13207"
       style="fill:#000000;stroke:#000000;stroke-width:1;stroke-miterlimit:4;stroke-dasharray:none;stroke-dashoffset:0"
       sodipodi:type="star" />
    <path
       style="fill:none;fill-rule:evenodd;stroke:#000000;stroke-width:1px;stroke-linecap:butt;stroke-linejoin:miter;stroke-opacity:1"
       d="M 370.57196,212.94869 321.44834,94.636879"
       id="path13209"
       inkscape:connector-curvature="0" />
    <path
       style="fill:none;fill-rule:evenodd;stroke:#000000;stroke-width:1px;stroke-linecap:butt;stroke-linejoin:miter;stroke-opacity:1"
       d="M 371.49447,213.40994 380.02768,96.25127"
       id="path13211"
       inkscape:connector-curvature="0" />
    <path
       style="fill:none;fill-rule:evenodd;stroke:#000000;stroke-width:1px;stroke-linecap:butt;stroke-linejoin:miter;stroke-opacity:1"
       d="M 335.74723,96.481897 384.40959,211.79555 355.35056,97.173779"
       id="path13213"
       inkscape:connector-curvature="0" />
    <path
       style="fill:none;fill-rule:evenodd;stroke:#000000;stroke-width:1px;stroke-linecap:butt;stroke-linejoin:miter;stroke-opacity:1"
       d="M 349.8155,96.25127 395.94096,206.72175 469.04982,98.326916"
       id="path13215"
       inkscape:connector-curvature="0" />
    <path
       style="fill:none;fill-rule:evenodd;stroke:#000000;stroke-width:1px;stroke-linecap:butt;stroke-linejoin:miter;stroke-opacity:1"
       d="M 363.88376,96.943152 410.47048,206.49112 391.55904,97.173779"
       id="path13217"
       inkscape:connector-curvature="0" />
    <path
       style="fill:none;fill-rule:evenodd;stroke:#000000;stroke-width:1px;stroke-linecap:butt;stroke-linejoin:miter;stroke-opacity:1"
       d="M 394.5572,97.865661 446.21771,214.10182 451.9834,95.790015"
       id="path13219"
       inkscape:connector-curvature="0" />
    <path
       transform="matrix(0.99670977,-0.08105324,0.08105324,0.99670977,54.344126,-50.01276)"
       inkscape:transform-center-y="-0.37272802"
       inkscape:transform-center-x="1.1691242"
       d="m 153.55166,167.28449 -9.23722,-4.81449 8.78809,-5.59241 z"
       inkscape:randomized="0"
       inkscape:rounded="0"
       inkscape:flatsided="true"
       sodipodi:arg2="2.0512647"
       sodipodi:arg1="1.0040671"
       sodipodi:r2="3.0070121"
       sodipodi:r1="6.0140243"
       sodipodi:cy="162.21069"
       sodipodi:cx="150.32288"
       sodipodi:sides="3"
       id="path13221"
       style="fill:#000000;stroke:#000000;stroke-width:1;stroke-miterlimit:4;stroke-dasharray:none;stroke-dashoffset:0"
       sodipodi:type="star" />
    <path
       sodipodi:type="star"
       style="fill:#000000;stroke:#000000;stroke-width:1;stroke-miterlimit:4;stroke-dasharray:none;stroke-dashoffset:0"
       id="path13223"
       sodipodi:sides="3"
       sodipodi:cx="150.32288"
       sodipodi:cy="162.21069"
       sodipodi:r1="6.0140243"
       sodipodi:r2="3.0070121"
       sodipodi:arg1="1.0040671"
       sodipodi:arg2="2.0512647"
       inkscape:flatsided="true"
       inkscape:rounded="0"
       inkscape:randomized="0"
       d="m 153.55166,167.28449 -9.23722,-4.81449 8.78809,-5.59241 z"
       inkscape:transform-center-x="1.1691242"
       inkscape:transform-center-y="-0.37272802"
       transform="matrix(0.99670977,-0.08105324,0.08105324,0.99670977,72.268474,-50.01276)" />
    <path
       transform="matrix(0.99670977,-0.08105324,0.08105324,0.99670977,86.499102,-50.01276)"
       inkscape:transform-center-y="-0.37272802"
       inkscape:transform-center-x="1.1691242"
       d="m 153.55166,167.28449 -9.23722,-4.81449 8.78809,-5.59241 z"
       inkscape:randomized="0"
       inkscape:rounded="0"
       inkscape:flatsided="true"
       sodipodi:arg2="2.0512647"
       sodipodi:arg1="1.0040671"
       sodipodi:r2="3.0070121"
       sodipodi:r1="6.0140243"
       sodipodi:cy="162.21069"
       sodipodi:cx="150.32288"
       sodipodi:sides="3"
       id="path13225"
       style="fill:#000000;stroke:#000000;stroke-width:1;stroke-miterlimit:4;stroke-dasharray:none;stroke-dashoffset:0"
       sodipodi:type="star" />
    <path
       sodipodi:type="star"
       style="fill:#000000;stroke:#000000;stroke-width:1;stroke-miterlimit:4;stroke-dasharray:none;stroke-dashoffset:0"
       id="path13227"
       sodipodi:sides="3"
       sodipodi:cx="150.32288"
       sodipodi:cy="162.21069"
       sodipodi:r1="6.0140243"
       sodipodi:r2="3.0070121"
       sodipodi:arg1="1.0040671"
       sodipodi:arg2="2.0512647"
       inkscape:flatsided="true"
       inkscape:rounded="0"
       inkscape:randomized="0"
       d="m 153.55166,167.28449 -9.23722,-4.81449 8.78809,-5.59241 z"
       inkscape:transform-center-x="1.1691242"
       inkscape:transform-center-y="-0.37272802"
       transform="matrix(0.99670977,-0.08105324,0.08105324,0.99670977,102.4991,-50.01276)" />
    <path
       transform="matrix(0.99670977,-0.08105324,0.08105324,0.99670977,118.4991,-50.01276)"
       inkscape:transform-center-y="-0.37272802"
       inkscape:transform-center-x="1.1691242"
       d="m 153.55166,167.28449 -9.23722,-4.81449 8.78809,-5.59241 z"
       inkscape:randomized="0"
       inkscape:rounded="0"
       inkscape:flatsided="true"
       sodipodi:arg2="2.0512647"
       sodipodi:arg1="1.0040671"
       sodipodi:r2="3.0070121"
       sodipodi:r1="6.0140243"
       sodipodi:cy="162.21069"
       sodipodi:cx="150.32288"
       sodipodi:sides="3"
       id="path13229"
       style="fill:#000000;stroke:#000000;stroke-width:1;stroke-miterlimit:4;stroke-dasharray:none;stroke-dashoffset:0"
       sodipodi:type="star" />
    <path
       sodipodi:type="star"
       style="fill:#000000;stroke:#000000;stroke-width:1;stroke-miterlimit:4;stroke-dasharray:none;stroke-dashoffset:0"
       id="path13231"
       sodipodi:sides="3"
       sodipodi:cx="150.32288"
       sodipodi:cy="162.21069"
       sodipodi:r1="6.0140243"
       sodipodi:r2="3.0070121"
       sodipodi:arg1="1.0040671"
       sodipodi:arg2="2.0512647"
       inkscape:flatsided="true"
       inkscape:rounded="0"
       inkscape:randomized="0"
       d="m 153.55166,167.28449 -9.23722,-4.81449 8.78809,-5.59241 z"
       inkscape:transform-center-x="1.1691242"
       inkscape:transform-center-y="-0.37272802"
       transform="matrix(0.99670977,-0.08105324,0.08105324,0.99670977,134.4991,-50.01276)" />
    <path
       transform="matrix(0.98454076,0.1751556,-0.1751556,0.98454076,226.30796,-32.586079)"
       inkscape:transform-center-y="0.39855449"
       inkscape:transform-center-x="1.1450871"
       d="m 153.55166,167.28449 -9.23722,-4.81449 8.78809,-5.59241 z"
       inkscape:randomized="0"
       inkscape:rounded="0"
       inkscape:flatsided="true"
       sodipodi:arg2="2.0512647"
       sodipodi:arg1="1.0040671"
       sodipodi:r2="3.0070121"
       sodipodi:r1="6.0140243"
       sodipodi:cy="162.21069"
       sodipodi:cx="150.32288"
       sodipodi:sides="3"
       id="path13233"
       style="fill:#000000;stroke:#000000;stroke-width:1;stroke-miterlimit:4;stroke-dasharray:none;stroke-dashoffset:0"
       sodipodi:type="star" />
    <path
       sodipodi:type="star"
       style="fill:#000000;stroke:#000000;stroke-width:1;stroke-miterlimit:4;stroke-dasharray:none;stroke-dashoffset:0"
       id="path13237"
       sodipodi:sides="3"
       sodipodi:cx="150.32288"
       sodipodi:cy="162.21069"
       sodipodi:r1="6.0140243"
       sodipodi:r2="3.0070121"
       sodipodi:arg1="1.0040671"
       sodipodi:arg2="2.0512647"
       inkscape:flatsided="true"
       inkscape:rounded="0"
       inkscape:randomized="0"
       d="m 153.55166,167.28449 -9.23722,-4.81449 8.78809,-5.59241 z"
       inkscape:transform-center-x="1.1450871"
       inkscape:transform-center-y="0.39855449"
       transform="matrix(0.98454076,0.1751556,-0.1751556,0.98454076,240.30796,-32.586079)" />
    <path
       transform="matrix(0.98454076,0.1751556,-0.1751556,0.98454076,254.30796,-32.586079)"
       inkscape:transform-center-y="0.39855449"
       inkscape:transform-center-x="1.1450871"
       d="m 153.55166,167.28449 -9.23722,-4.81449 8.78809,-5.59241 z"
       inkscape:randomized="0"
       inkscape:rounded="0"
       inkscape:flatsided="true"
       sodipodi:arg2="2.0512647"
       sodipodi:arg1="1.0040671"
       sodipodi:r2="3.0070121"
       sodipodi:r1="6.0140243"
       sodipodi:cy="162.21069"
       sodipodi:cx="150.32288"
       sodipodi:sides="3"
       id="path13239"
       style="fill:#000000;stroke:#000000;stroke-width:1;stroke-miterlimit:4;stroke-dasharray:none;stroke-dashoffset:0"
       sodipodi:type="star" />
    <path
       sodipodi:type="star"
       style="fill:#000000;stroke:#000000;stroke-width:1;stroke-miterlimit:4;stroke-dasharray:none;stroke-dashoffset:0"
       id="path13241"
       sodipodi:sides="3"
       sodipodi:cx="150.32288"
       sodipodi:cy="162.21069"
       sodipodi:r1="6.0140243"
       sodipodi:r2="3.0070121"
       sodipodi:arg1="1.0040671"
       sodipodi:arg2="2.0512647"
       inkscape:flatsided="true"
       inkscape:rounded="0"
       inkscape:randomized="0"
       d="m 153.55166,167.28449 -9.23722,-4.81449 8.78809,-5.59241 z"
       inkscape:transform-center-x="1.1450871"
       inkscape:transform-center-y="0.39855449"
       transform="matrix(0.98454076,0.1751556,-0.1751556,0.98454076,268.42327,-32.586079)" />
    <path
       transform="matrix(0.98454076,0.1751556,-0.1751556,0.98454076,300.07734,-32.586079)"
       inkscape:transform-center-y="0.39855449"
       inkscape:transform-center-x="1.1450871"
       d="m 153.55166,167.28449 -9.23722,-4.81449 8.78809,-5.59241 z"
       inkscape:randomized="0"
       inkscape:rounded="0"
       inkscape:flatsided="true"
       sodipodi:arg2="2.0512647"
       sodipodi:arg1="1.0040671"
       sodipodi:r2="3.0070121"
       sodipodi:r1="6.0140243"
       sodipodi:cy="162.21069"
       sodipodi:cx="150.32288"
       sodipodi:sides="3"
       id="path13243"
       style="fill:#000000;stroke:#000000;stroke-width:1;stroke-miterlimit:4;stroke-dasharray:none;stroke-dashoffset:0"
       sodipodi:type="star" />
    <path
       transform="matrix(0.81745312,-0.57599512,0.57599512,0.81745312,139.21644,50.856425)"
       inkscape:transform-center-y="-1.1439126"
       inkscape:transform-center-x="-0.39980066"
       d="m 153.55166,167.28449 -9.23722,-4.81449 8.78809,-5.59241 z"
       inkscape:randomized="0"
       inkscape:rounded="0"
       inkscape:flatsided="true"
       sodipodi:arg2="2.0512647"
       sodipodi:arg1="1.0040671"
       sodipodi:r2="3.0070121"
       sodipodi:r1="6.0140243"
       sodipodi:cy="162.21069"
       sodipodi:cx="150.32288"
       sodipodi:sides="3"
       id="path13245"
       style="fill:#000000;stroke:#000000;stroke-width:1;stroke-miterlimit:4;stroke-dasharray:none;stroke-dashoffset:0"
       sodipodi:type="star" />
    <path
       sodipodi:type="star"
       style="fill:#000000;stroke:#000000;stroke-width:1;stroke-miterlimit:4;stroke-dasharray:none;stroke-dashoffset:0"
       id="path13247"
       sodipodi:sides="3"
       sodipodi:cx="150.32288"
       sodipodi:cy="162.21069"
       sodipodi:r1="6.0140243"
       sodipodi:r2="3.0070121"
       sodipodi:arg1="1.0040671"
       sodipodi:arg2="2.0512647"
       inkscape:flatsided="true"
       inkscape:rounded="0"
       inkscape:randomized="0"
       d="m 153.55166,167.28449 -9.23722,-4.81449 8.78809,-5.59241 z"
       inkscape:transform-center-x="0.23677885"
       inkscape:transform-center-y="-1.293787"
       transform="matrix(0.92041829,-0.39093498,0.39093498,0.92041829,178.40947,6.3355994)" />
    <path
       transform="matrix(0.80496369,-0.59332406,0.59332406,0.80496369,174.28294,55.48728)"
       inkscape:transform-center-y="-1.0842527"
       inkscape:transform-center-x="-0.46335966"
       d="m 153.55166,167.28449 -9.23722,-4.81449 8.78809,-5.59241 z"
       inkscape:randomized="0"
       inkscape:rounded="0"
       inkscape:flatsided="true"
       sodipodi:arg2="2.0512647"
       sodipodi:arg1="1.0040671"
       sodipodi:r2="3.0070121"
       sodipodi:r1="6.0140243"
       sodipodi:cy="162.21069"
       sodipodi:cx="150.32288"
       sodipodi:sides="3"
       id="path13249"
       style="fill:#000000;stroke:#000000;stroke-width:1;stroke-miterlimit:4;stroke-dasharray:none;stroke-dashoffset:0"
       sodipodi:type="star" />
    <path
       sodipodi:type="star"
       style="fill:#000000;stroke:#000000;stroke-width:1;stroke-miterlimit:4;stroke-dasharray:none;stroke-dashoffset:0"
       id="path13251"
       sodipodi:sides="3"
       sodipodi:cx="150.32288"
       sodipodi:cy="162.21069"
       sodipodi:r1="6.0140243"
       sodipodi:r2="3.0070121"
       sodipodi:arg1="1.0040671"
       sodipodi:arg2="2.0512647"
       inkscape:flatsided="true"
       inkscape:rounded="0"
       inkscape:randomized="0"
       d="m 153.55166,167.28449 -9.23722,-4.81449 8.78809,-5.59241 z"
       inkscape:transform-center-x="-0.018680736"
       inkscape:transform-center-y="-1.4872913"
       transform="matrix(0.88388885,-0.467697,0.467697,0.88388885,242.80949,21.517058)" />
    <text
       xml:space="preserve"
       style="font-style:normal;font-weight:normal;font-size:15px;line-height:125%;font-family:sans-serif;letter-spacing:0px;word-spacing:0px;fill:#000000;fill-opacity:1;stroke:none;stroke-width:1px;stroke-linecap:butt;stroke-linejoin:miter;stroke-opacity:1"
       x="142.50638"
       y="244.28012"
       id="text13253"
       sodipodi:linespacing="125%"><tspan
         sodipodi:role="line"
         id="tspan13255"
         x="142.50638"
         y="244.28012">reflexió especular</tspan></text>
    <text
       xml:space="preserve"
       style="font-style:normal;font-weight:normal;font-size:15px;line-height:125%;font-family:sans-serif;letter-spacing:0px;word-spacing:0px;fill:#000000;fill-opacity:1;stroke:none;stroke-width:1px;stroke-linecap:butt;stroke-linejoin:miter;stroke-opacity:1"
       x="345.37558"
       y="247.18784"
       id="text13257"
       sodipodi:linespacing="125%"><tspan
         sodipodi:role="line"
         id="tspan13259"
         x="345.37558"
         y="247.18784">reflexió difusa</tspan></text>
    <path
       transform="matrix(0.99903151,0.04400033,-0.04400033,0.99903151,327.42409,-72.775506)"
       inkscape:transform-center-y="0.0026551747"
       inkscape:transform-center-x="1.5012142"
       d="m 153.55166,167.28449 -9.23722,-4.81449 8.78809,-5.59241 z"
       inkscape:randomized="0"
       inkscape:rounded="0"
       inkscape:flatsided="true"
       sodipodi:arg2="2.0512647"
       sodipodi:arg1="1.0040671"
       sodipodi:r2="3.0070121"
       sodipodi:r1="6.0140243"
       sodipodi:cy="162.21069"
       sodipodi:cx="150.32288"
       sodipodi:sides="3"
       id="path13261"
       style="fill:#000000;stroke:#000000;stroke-width:1;stroke-miterlimit:4;stroke-dasharray:none;stroke-dashoffset:0"
       sodipodi:type="star" />
  </g>
</svg>
