<?xml version="1.0" encoding="UTF-8" standalone="no"?>
<svg
   xmlns:dc="http://purl.org/dc/elements/1.1/"
   xmlns:cc="http://creativecommons.org/ns#"
   xmlns:rdf="http://www.w3.org/1999/02/22-rdf-syntax-ns#"
   xmlns:svg="http://www.w3.org/2000/svg"
   xmlns="http://www.w3.org/2000/svg"
   xmlns:sodipodi="http://sodipodi.sourceforge.net/DTD/sodipodi-0.dtd"
   xmlns:inkscape="http://www.inkscape.org/namespaces/inkscape"
   version="1.0"
   width="305.12128"
   height="486.60806"
   id="svg45763"
   inkscape:version="0.91 r13725"
   sodipodi:docname="Refraction_on_an_aperture_-_Huygens-Fresnel_principle.svg">
  <metadata
     id="metadata80">
    <rdf:RDF>
      <cc:Work
         rdf:about="">
        <dc:format>image/svg+xml</dc:format>
        <dc:type
           rdf:resource="http://purl.org/dc/dcmitype/StillImage" />
        <dc:title></dc:title>
      </cc:Work>
    </rdf:RDF>
  </metadata>
  <sodipodi:namedview
     pagecolor="#ffffff"
     bordercolor="#666666"
     borderopacity="1"
     objecttolerance="10"
     gridtolerance="10"
     guidetolerance="10"
     inkscape:pageopacity="0"
     inkscape:pageshadow="2"
     inkscape:window-width="640"
     inkscape:window-height="480"
     id="namedview78"
     showgrid="false"
     fit-margin-top="5"
     fit-margin-right="5"
     fit-margin-bottom="5"
     fit-margin-left="5"
     inkscape:zoom="0.644"
     inkscape:cx="125.87004"
     inkscape:cy="244.43974"
     inkscape:window-x="57"
     inkscape:window-y="34"
     inkscape:window-maximized="0"
     inkscape:current-layer="svg45763" />
  <defs
     id="defs45765" />
  <g
     id="layer1"
     transform="matrix(0,-1,1,0,-8.5720314,492.82376)">
    <g
       transform="matrix(1.1071035,0,0,1.1071035,-4.2837428,-418.671)"
       id="g45622">
      <g
         id="g44559">
        <path
           d="m 132.1875,495.6875 c 0.43194,10.1554 8.80143,18.25001 19.0625,18.25 10.26108,0 18.63056,-8.09462 19.0625,-18.25"
           style="opacity:1;fill:none;fill-opacity:1;fill-rule:evenodd;stroke:#babdb6;stroke-width:3;stroke-linecap:butt;stroke-linejoin:miter;stroke-miterlimit:4;stroke-dasharray:none;stroke-dashoffset:0;stroke-opacity:0.53333285"
           id="path30917"
           inkscape:connector-curvature="0" />
        <path
           d="m 115.25,495.6875 c 0.43576,19.49952 16.39647,35.18749 36,35.1875 19.60353,0 35.56424,-15.68798 36,-35.1875"
           style="opacity:1;fill:none;fill-opacity:1;fill-rule:evenodd;stroke:#babdb6;stroke-width:2.99999976;stroke-linecap:butt;stroke-linejoin:miter;stroke-miterlimit:4;stroke-dasharray:none;stroke-dashoffset:0;stroke-opacity:0.53333285"
           id="path33871"
           inkscape:connector-curvature="0" />
        <path
           d="m 98,495.6875 c 0.440323,29.03686 24.10898,52.46873 53.25,52.46875 29.14103,0 52.80968,-23.4319 53.25,-52.46875"
           style="opacity:1;fill:none;fill-opacity:1;fill-rule:evenodd;stroke:#babdb6;stroke-width:3;stroke-linecap:butt;stroke-linejoin:miter;stroke-miterlimit:4;stroke-dasharray:none;stroke-dashoffset:0;stroke-opacity:0.53333285"
           id="path34843"
           inkscape:connector-curvature="0" />
        <path
           d="m 80.46875,495.6875 c 0.439883,38.7026 31.97508,69.96876 70.78125,69.96875 38.80617,0 70.34137,-31.26617 70.78125,-69.96875"
           style="opacity:1;fill:none;fill-opacity:1;fill-rule:evenodd;stroke:#babdb6;stroke-width:3;stroke-linecap:butt;stroke-linejoin:miter;stroke-miterlimit:4;stroke-dasharray:none;stroke-dashoffset:0;stroke-opacity:0.53333285"
           id="path35814"
           inkscape:connector-curvature="0" />
        <path
           d="m 62.59375,495.6875 c 0.438645,48.56949 39.98378,87.84373 88.65625,87.84375 48.67248,0 88.21761,-39.27426 88.65625,-87.84375"
           style="opacity:1;fill:none;fill-opacity:1;fill-rule:evenodd;stroke:#babdb6;stroke-width:3;stroke-linecap:butt;stroke-linejoin:miter;stroke-miterlimit:4;stroke-dasharray:none;stroke-dashoffset:0;stroke-opacity:0.53333285"
           id="path36785"
           inkscape:connector-curvature="0" />
        <path
           d="M 45.875,495.6875 C 46.313019,553.48594 93.348914,600.25 151.25,600.25 c 57.90109,0 104.93699,-46.76406 105.375,-104.5625"
           style="opacity:1;fill:none;fill-opacity:1;fill-rule:evenodd;stroke:#888a85;stroke-width:3;stroke-linecap:butt;stroke-linejoin:miter;stroke-miterlimit:4;stroke-dasharray:none;stroke-dashoffset:0;stroke-opacity:0.53333285"
           id="path37756"
           inkscape:connector-curvature="0" />
      </g>
      <g
         transform="translate(31.125,0.125)"
         id="g44567">
        <path
           d="m 132.1875,495.6875 c 0.43194,10.1554 8.80143,18.25001 19.0625,18.25 10.26108,0 18.63056,-8.09462 19.0625,-18.25"
           style="opacity:1;fill:none;fill-opacity:1;fill-rule:evenodd;stroke:#babdb6;stroke-width:3;stroke-linecap:butt;stroke-linejoin:miter;stroke-miterlimit:4;stroke-dasharray:none;stroke-dashoffset:0;stroke-opacity:0.53333285"
           id="path44569"
           inkscape:connector-curvature="0" />
        <path
           d="m 115.25,495.6875 c 0.43576,19.49952 16.39647,35.18749 36,35.1875 19.60353,0 35.56424,-15.68798 36,-35.1875"
           style="opacity:1;fill:none;fill-opacity:1;fill-rule:evenodd;stroke:#babdb6;stroke-width:2.99999976;stroke-linecap:butt;stroke-linejoin:miter;stroke-miterlimit:4;stroke-dasharray:none;stroke-dashoffset:0;stroke-opacity:0.53333285"
           id="path44571"
           inkscape:connector-curvature="0" />
        <path
           d="m 98,495.6875 c 0.440323,29.03686 24.10898,52.46873 53.25,52.46875 29.14103,0 52.80968,-23.4319 53.25,-52.46875"
           style="opacity:1;fill:none;fill-opacity:1;fill-rule:evenodd;stroke:#babdb6;stroke-width:3;stroke-linecap:butt;stroke-linejoin:miter;stroke-miterlimit:4;stroke-dasharray:none;stroke-dashoffset:0;stroke-opacity:0.53333285"
           id="path44573"
           inkscape:connector-curvature="0" />
        <path
           d="m 80.46875,495.6875 c 0.439883,38.7026 31.97508,69.96876 70.78125,69.96875 38.80617,0 70.34137,-31.26617 70.78125,-69.96875"
           style="opacity:1;fill:none;fill-opacity:1;fill-rule:evenodd;stroke:#babdb6;stroke-width:3;stroke-linecap:butt;stroke-linejoin:miter;stroke-miterlimit:4;stroke-dasharray:none;stroke-dashoffset:0;stroke-opacity:0.53333285"
           id="path44575"
           inkscape:connector-curvature="0" />
        <path
           d="m 62.59375,495.6875 c 0.438645,48.56949 39.98378,87.84373 88.65625,87.84375 48.67248,0 88.21761,-39.27426 88.65625,-87.84375"
           style="opacity:1;fill:none;fill-opacity:1;fill-rule:evenodd;stroke:#babdb6;stroke-width:3;stroke-linecap:butt;stroke-linejoin:miter;stroke-miterlimit:4;stroke-dasharray:none;stroke-dashoffset:0;stroke-opacity:0.53333285"
           id="path44577"
           inkscape:connector-curvature="0" />
        <path
           d="M 45.875,495.6875 C 46.313019,553.48594 93.348914,600.25 151.25,600.25 c 57.90109,0 104.93699,-46.76406 105.375,-104.5625"
           style="opacity:1;fill:none;fill-opacity:1;fill-rule:evenodd;stroke:#888a85;stroke-width:3;stroke-linecap:butt;stroke-linejoin:miter;stroke-miterlimit:4;stroke-dasharray:none;stroke-dashoffset:0;stroke-opacity:0.53333285"
           id="path44579"
           inkscape:connector-curvature="0" />
      </g>
      <g
         transform="translate(62.75,0.125)"
         id="g44581">
        <path
           d="m 132.1875,495.6875 c 0.43194,10.1554 8.80143,18.25001 19.0625,18.25 10.26108,0 18.63056,-8.09462 19.0625,-18.25"
           style="opacity:1;fill:none;fill-opacity:1;fill-rule:evenodd;stroke:#babdb6;stroke-width:3;stroke-linecap:butt;stroke-linejoin:miter;stroke-miterlimit:4;stroke-dasharray:none;stroke-dashoffset:0;stroke-opacity:0.53333285"
           id="path44583"
           inkscape:connector-curvature="0" />
        <path
           d="m 115.25,495.6875 c 0.43576,19.49952 16.39647,35.18749 36,35.1875 19.60353,0 35.56424,-15.68798 36,-35.1875"
           style="opacity:1;fill:none;fill-opacity:1;fill-rule:evenodd;stroke:#babdb6;stroke-width:2.99999976;stroke-linecap:butt;stroke-linejoin:miter;stroke-miterlimit:4;stroke-dasharray:none;stroke-dashoffset:0;stroke-opacity:0.53333285"
           id="path44585"
           inkscape:connector-curvature="0" />
        <path
           d="m 98,495.6875 c 0.440323,29.03686 24.10898,52.46873 53.25,52.46875 29.14103,0 52.80968,-23.4319 53.25,-52.46875"
           style="opacity:1;fill:none;fill-opacity:1;fill-rule:evenodd;stroke:#babdb6;stroke-width:3;stroke-linecap:butt;stroke-linejoin:miter;stroke-miterlimit:4;stroke-dasharray:none;stroke-dashoffset:0;stroke-opacity:0.53333285"
           id="path44587"
           inkscape:connector-curvature="0" />
        <path
           d="m 80.46875,495.6875 c 0.439883,38.7026 31.97508,69.96876 70.78125,69.96875 38.80617,0 70.34137,-31.26617 70.78125,-69.96875"
           style="opacity:1;fill:none;fill-opacity:1;fill-rule:evenodd;stroke:#babdb6;stroke-width:3;stroke-linecap:butt;stroke-linejoin:miter;stroke-miterlimit:4;stroke-dasharray:none;stroke-dashoffset:0;stroke-opacity:0.53333285"
           id="path44589"
           inkscape:connector-curvature="0" />
        <path
           d="m 62.59375,495.6875 c 0.438645,48.56949 39.98378,87.84373 88.65625,87.84375 48.67248,0 88.21761,-39.27426 88.65625,-87.84375"
           style="opacity:1;fill:none;fill-opacity:1;fill-rule:evenodd;stroke:#babdb6;stroke-width:3;stroke-linecap:butt;stroke-linejoin:miter;stroke-miterlimit:4;stroke-dasharray:none;stroke-dashoffset:0;stroke-opacity:0.53333285"
           id="path44591"
           inkscape:connector-curvature="0" />
        <path
           d="M 45.875,495.6875 C 46.313019,553.48594 93.348914,600.25 151.25,600.25 c 57.90109,0 104.93699,-46.76406 105.375,-104.5625"
           style="opacity:1;fill:none;fill-opacity:1;fill-rule:evenodd;stroke:#888a85;stroke-width:3;stroke-linecap:butt;stroke-linejoin:miter;stroke-miterlimit:4;stroke-dasharray:none;stroke-dashoffset:0;stroke-opacity:0.53333285"
           id="path44593"
           inkscape:connector-curvature="0" />
      </g>
      <g
         transform="translate(92.75,0.125)"
         id="g44595">
        <path
           d="m 132.1875,495.6875 c 0.43194,10.1554 8.80143,18.25001 19.0625,18.25 10.26108,0 18.63056,-8.09462 19.0625,-18.25"
           style="opacity:1;fill:none;fill-opacity:1;fill-rule:evenodd;stroke:#babdb6;stroke-width:3;stroke-linecap:butt;stroke-linejoin:miter;stroke-miterlimit:4;stroke-dasharray:none;stroke-dashoffset:0;stroke-opacity:0.53333285"
           id="path44597"
           inkscape:connector-curvature="0" />
        <path
           d="m 115.25,495.6875 c 0.43576,19.49952 16.39647,35.18749 36,35.1875 19.60353,0 35.56424,-15.68798 36,-35.1875"
           style="opacity:1;fill:none;fill-opacity:1;fill-rule:evenodd;stroke:#babdb6;stroke-width:2.99999976;stroke-linecap:butt;stroke-linejoin:miter;stroke-miterlimit:4;stroke-dasharray:none;stroke-dashoffset:0;stroke-opacity:0.53333285"
           id="path44599"
           inkscape:connector-curvature="0" />
        <path
           d="m 98,495.6875 c 0.440323,29.03686 24.10898,52.46873 53.25,52.46875 29.14103,0 52.80968,-23.4319 53.25,-52.46875"
           style="opacity:1;fill:none;fill-opacity:1;fill-rule:evenodd;stroke:#babdb6;stroke-width:3;stroke-linecap:butt;stroke-linejoin:miter;stroke-miterlimit:4;stroke-dasharray:none;stroke-dashoffset:0;stroke-opacity:0.53333285"
           id="path44601"
           inkscape:connector-curvature="0" />
        <path
           d="m 80.46875,495.6875 c 0.439883,38.7026 31.97508,69.96876 70.78125,69.96875 38.80617,0 70.34137,-31.26617 70.78125,-69.96875"
           style="opacity:1;fill:none;fill-opacity:1;fill-rule:evenodd;stroke:#babdb6;stroke-width:3;stroke-linecap:butt;stroke-linejoin:miter;stroke-miterlimit:4;stroke-dasharray:none;stroke-dashoffset:0;stroke-opacity:0.53333285"
           id="path44603"
           inkscape:connector-curvature="0" />
        <path
           d="m 62.59375,495.6875 c 0.438645,48.56949 39.98378,87.84373 88.65625,87.84375 48.67248,0 88.21761,-39.27426 88.65625,-87.84375"
           style="opacity:1;fill:none;fill-opacity:1;fill-rule:evenodd;stroke:#babdb6;stroke-width:3;stroke-linecap:butt;stroke-linejoin:miter;stroke-miterlimit:4;stroke-dasharray:none;stroke-dashoffset:0;stroke-opacity:0.53333285"
           id="path44605"
           inkscape:connector-curvature="0" />
        <path
           d="M 45.875,495.6875 C 46.313019,553.48594 93.348914,600.25 151.25,600.25 c 57.90109,0 104.93699,-46.76406 105.375,-104.5625"
           style="opacity:1;fill:none;fill-opacity:1;fill-rule:evenodd;stroke:#888a85;stroke-width:3;stroke-linecap:butt;stroke-linejoin:miter;stroke-miterlimit:4;stroke-dasharray:none;stroke-dashoffset:0;stroke-opacity:0.53333285"
           id="path44607"
           inkscape:connector-curvature="0" />
      </g>
      <g
         transform="translate(124.75,0.125)"
         id="g44623">
        <path
           d="m 132.1875,495.6875 c 0.43194,10.1554 8.80143,18.25001 19.0625,18.25 10.26108,0 18.63056,-8.09462 19.0625,-18.25"
           style="opacity:1;fill:none;fill-opacity:1;fill-rule:evenodd;stroke:#babdb6;stroke-width:3;stroke-linecap:butt;stroke-linejoin:miter;stroke-miterlimit:4;stroke-dasharray:none;stroke-dashoffset:0;stroke-opacity:0.53333285"
           id="path44625"
           inkscape:connector-curvature="0" />
        <path
           d="m 115.25,495.6875 c 0.43576,19.49952 16.39647,35.18749 36,35.1875 19.60353,0 35.56424,-15.68798 36,-35.1875"
           style="opacity:1;fill:none;fill-opacity:1;fill-rule:evenodd;stroke:#babdb6;stroke-width:2.99999976;stroke-linecap:butt;stroke-linejoin:miter;stroke-miterlimit:4;stroke-dasharray:none;stroke-dashoffset:0;stroke-opacity:0.53333285"
           id="path44627"
           inkscape:connector-curvature="0" />
        <path
           d="m 98,495.6875 c 0.440323,29.03686 24.10898,52.46873 53.25,52.46875 29.14103,0 52.80968,-23.4319 53.25,-52.46875"
           style="opacity:1;fill:none;fill-opacity:1;fill-rule:evenodd;stroke:#babdb6;stroke-width:3;stroke-linecap:butt;stroke-linejoin:miter;stroke-miterlimit:4;stroke-dasharray:none;stroke-dashoffset:0;stroke-opacity:0.53333285"
           id="path44629"
           inkscape:connector-curvature="0" />
        <path
           d="m 80.46875,495.6875 c 0.439883,38.7026 31.97508,69.96876 70.78125,69.96875 38.80617,0 70.34137,-31.26617 70.78125,-69.96875"
           style="opacity:1;fill:none;fill-opacity:1;fill-rule:evenodd;stroke:#babdb6;stroke-width:3;stroke-linecap:butt;stroke-linejoin:miter;stroke-miterlimit:4;stroke-dasharray:none;stroke-dashoffset:0;stroke-opacity:0.53333285"
           id="path44631"
           inkscape:connector-curvature="0" />
        <path
           d="m 62.59375,495.6875 c 0.438645,48.56949 39.98378,87.84373 88.65625,87.84375 48.67248,0 88.21761,-39.27426 88.65625,-87.84375"
           style="opacity:1;fill:none;fill-opacity:1;fill-rule:evenodd;stroke:#babdb6;stroke-width:3;stroke-linecap:butt;stroke-linejoin:miter;stroke-miterlimit:4;stroke-dasharray:none;stroke-dashoffset:0;stroke-opacity:0.53333285"
           id="path44633"
           inkscape:connector-curvature="0" />
        <path
           d="M 45.875,495.6875 C 46.313019,553.48594 93.348914,600.25 151.25,600.25 c 57.90109,0 104.93699,-46.76406 105.375,-104.5625"
           style="opacity:1;fill:none;fill-opacity:1;fill-rule:evenodd;stroke:#888a85;stroke-width:3;stroke-linecap:butt;stroke-linejoin:miter;stroke-miterlimit:4;stroke-dasharray:none;stroke-dashoffset:0;stroke-opacity:0.53333285"
           id="path44635"
           inkscape:connector-curvature="0" />
      </g>
      <g
         transform="translate(154.75,0.125)"
         id="g44637">
        <path
           d="m 132.1875,495.6875 c 0.43194,10.1554 8.80143,18.25001 19.0625,18.25 10.26108,0 18.63056,-8.09462 19.0625,-18.25"
           style="opacity:1;fill:none;fill-opacity:1;fill-rule:evenodd;stroke:#babdb6;stroke-width:3;stroke-linecap:butt;stroke-linejoin:miter;stroke-miterlimit:4;stroke-dasharray:none;stroke-dashoffset:0;stroke-opacity:0.53333285"
           id="path44639"
           inkscape:connector-curvature="0" />
        <path
           d="m 115.25,495.6875 c 0.43576,19.49952 16.39647,35.18749 36,35.1875 19.60353,0 35.56424,-15.68798 36,-35.1875"
           style="opacity:1;fill:none;fill-opacity:1;fill-rule:evenodd;stroke:#babdb6;stroke-width:2.99999976;stroke-linecap:butt;stroke-linejoin:miter;stroke-miterlimit:4;stroke-dasharray:none;stroke-dashoffset:0;stroke-opacity:0.53333285"
           id="path44641"
           inkscape:connector-curvature="0" />
        <path
           d="m 98,495.6875 c 0.440323,29.03686 24.10898,52.46873 53.25,52.46875 29.14103,0 52.80968,-23.4319 53.25,-52.46875"
           style="opacity:1;fill:none;fill-opacity:1;fill-rule:evenodd;stroke:#babdb6;stroke-width:3;stroke-linecap:butt;stroke-linejoin:miter;stroke-miterlimit:4;stroke-dasharray:none;stroke-dashoffset:0;stroke-opacity:0.53333285"
           id="path44643"
           inkscape:connector-curvature="0" />
        <path
           d="m 80.46875,495.6875 c 0.439883,38.7026 31.97508,69.96876 70.78125,69.96875 38.80617,0 70.34137,-31.26617 70.78125,-69.96875"
           style="opacity:1;fill:none;fill-opacity:1;fill-rule:evenodd;stroke:#babdb6;stroke-width:3;stroke-linecap:butt;stroke-linejoin:miter;stroke-miterlimit:4;stroke-dasharray:none;stroke-dashoffset:0;stroke-opacity:0.53333285"
           id="path44645"
           inkscape:connector-curvature="0" />
        <path
           d="m 62.59375,495.6875 c 0.438645,48.56949 39.98378,87.84373 88.65625,87.84375 48.67248,0 88.21761,-39.27426 88.65625,-87.84375"
           style="opacity:1;fill:none;fill-opacity:1;fill-rule:evenodd;stroke:#babdb6;stroke-width:3;stroke-linecap:butt;stroke-linejoin:miter;stroke-miterlimit:4;stroke-dasharray:none;stroke-dashoffset:0;stroke-opacity:0.53333285"
           id="path44647"
           inkscape:connector-curvature="0" />
        <path
           d="M 45.875,495.6875 C 46.313019,553.48594 93.348914,600.25 151.25,600.25 c 57.90109,0 104.93699,-46.76406 105.375,-104.5625"
           style="opacity:1;fill:none;fill-opacity:1;fill-rule:evenodd;stroke:#888a85;stroke-width:3;stroke-linecap:butt;stroke-linejoin:miter;stroke-miterlimit:4;stroke-dasharray:none;stroke-dashoffset:0;stroke-opacity:0.53333285"
           id="path44649"
           inkscape:connector-curvature="0" />
      </g>
    </g>
    <g
       transform="matrix(1.1071035,0,0,1.1071035,-4.2837428,-418.671)"
       id="g45695">
      <path
         d="m 14.5,494.86218 429.5,0"
         style="fill:none;fill-opacity:0.75;fill-rule:evenodd;stroke:#000000;stroke-width:2;stroke-linecap:butt;stroke-linejoin:miter;stroke-miterlimit:4;stroke-dasharray:none;stroke-opacity:1"
         id="path25998"
         inkscape:connector-curvature="0" />
      <rect
         width="136.5"
         height="12.5"
         x="15"
         y="482.36218"
         style="opacity:1;fill:#2e3436;fill-opacity:0.77777782;fill-rule:evenodd;stroke:#2e3436;stroke-width:2;stroke-linecap:butt;stroke-linejoin:miter;stroke-miterlimit:4;stroke-dasharray:none;stroke-dashoffset:0;stroke-opacity:1"
         id="rect26000" />
      <rect
         width="136.5"
         height="12.5"
         x="307"
         y="482.36218"
         style="opacity:1;fill:#2e3436;fill-opacity:0.77777782;fill-rule:evenodd;stroke:#2e3436;stroke-width:2;stroke-linecap:butt;stroke-linejoin:miter;stroke-miterlimit:4;stroke-dasharray:none;stroke-dashoffset:0;stroke-opacity:1"
         id="rect26002" />
    </g>
    <g
       transform="matrix(1.1071035,0,0,1.1071035,-4.2837428,-418.671)"
       id="g45687">
      <path
         d="m 148.84598,195.34877 a 3.1819806,3.1819806 0 1 1 -6.36396,0 3.1819806,3.1819806 0 1 1 6.36396,0 z"
         transform="matrix(1.5555555,0,0,1.5555555,-75.267587,191.28618)"
         style="opacity:1;fill:#edd400;fill-opacity:1;fill-rule:evenodd;stroke:none;stroke-width:3;stroke-linecap:butt;stroke-linejoin:miter;stroke-miterlimit:4;stroke-dasharray:none;stroke-dashoffset:0;stroke-opacity:1"
         id="path30871"
         inkscape:connector-curvature="0" />
      <path
         d="m 148.84598,195.34877 a 3.1819806,3.1819806 0 1 1 -6.36396,0 3.1819806,3.1819806 0 1 1 6.36396,0 z"
         transform="matrix(1.5555555,0,0,1.5555555,-43.797917,191.28618)"
         style="opacity:1;fill:#edd400;fill-opacity:1;fill-rule:evenodd;stroke:none;stroke-width:3;stroke-linecap:butt;stroke-linejoin:miter;stroke-miterlimit:4;stroke-dasharray:none;stroke-dashoffset:0;stroke-opacity:1"
         id="path30873"
         inkscape:connector-curvature="0" />
      <path
         d="m 148.84598,195.34877 a 3.1819806,3.1819806 0 1 1 -6.36396,0 3.1819806,3.1819806 0 1 1 6.36396,0 z"
         transform="matrix(1.5555555,0,0,1.5555555,-12.914034,191.28618)"
         style="opacity:1;fill:#edd400;fill-opacity:1;fill-rule:evenodd;stroke:none;stroke-width:3;stroke-linecap:butt;stroke-linejoin:miter;stroke-miterlimit:4;stroke-dasharray:none;stroke-dashoffset:0;stroke-opacity:1"
         id="path30875"
         inkscape:connector-curvature="0" />
      <path
         d="m 148.84598,195.34877 a 3.1819806,3.1819806 0 1 1 -6.36396,0 3.1819806,3.1819806 0 1 1 6.36396,0 z"
         transform="matrix(1.5555555,0,0,1.5555555,18.202083,191.28618)"
         style="opacity:1;fill:#edd400;fill-opacity:1;fill-rule:evenodd;stroke:none;stroke-width:3;stroke-linecap:butt;stroke-linejoin:miter;stroke-miterlimit:4;stroke-dasharray:none;stroke-dashoffset:0;stroke-opacity:1"
         id="path30877"
         inkscape:connector-curvature="0" />
      <path
         d="m 148.84598,195.34877 a 3.1819806,3.1819806 0 1 1 -6.36396,0 3.1819806,3.1819806 0 1 1 6.36396,0 z"
         transform="matrix(1.5555555,0,0,1.5555555,49.3182,191.28618)"
         style="opacity:1;fill:#edd400;fill-opacity:1;fill-rule:evenodd;stroke:none;stroke-width:3;stroke-linecap:butt;stroke-linejoin:miter;stroke-miterlimit:4;stroke-dasharray:none;stroke-dashoffset:0;stroke-opacity:1"
         id="path30879"
         inkscape:connector-curvature="0" />
      <path
         d="m 148.84598,195.34877 a 3.1819806,3.1819806 0 1 1 -6.36396,0 3.1819806,3.1819806 0 1 1 6.36396,0 z"
         transform="matrix(1.5555555,0,0,1.5555555,80.202083,191.28618)"
         style="opacity:1;fill:#edd400;fill-opacity:1;fill-rule:evenodd;stroke:none;stroke-width:3;stroke-linecap:butt;stroke-linejoin:miter;stroke-miterlimit:4;stroke-dasharray:none;stroke-dashoffset:0;stroke-opacity:1"
         id="path30881"
         inkscape:connector-curvature="0" />
    </g>
    <g
       transform="matrix(1.1071035,0,0,1.1071035,-5.8494196,-418.671)"
       id="g45666">
      <path
         d="m 62.5,472.36218 337.5,0"
         style="fill:none;fill-opacity:0.75;fill-rule:evenodd;stroke:#204a87;stroke-width:3;stroke-linecap:butt;stroke-linejoin:miter;stroke-miterlimit:4;stroke-dasharray:none;stroke-opacity:1"
         id="path28917"
         inkscape:connector-curvature="0" />
      <path
         d="m 62.5,450.36218 337.5,0"
         style="fill:none;fill-opacity:0.75;fill-rule:evenodd;stroke:#204a87;stroke-width:3;stroke-linecap:butt;stroke-linejoin:miter;stroke-miterlimit:4;stroke-dasharray:none;stroke-opacity:1"
         id="path29888"
         inkscape:connector-curvature="0" />
      <path
         d="m 62.5,428.36218 337.5,0"
         style="fill:none;fill-opacity:0.75;fill-rule:evenodd;stroke:#204a87;stroke-width:3;stroke-linecap:butt;stroke-linejoin:miter;stroke-miterlimit:4;stroke-dasharray:none;stroke-opacity:1"
         id="path29890"
         inkscape:connector-curvature="0" />
      <g
         transform="matrix(0.9321865,0.3619783,-0.3619783,0.9321865,88.949539,-4.3115986)"
         id="g30909">
        <path
           d="m 275.45426,316.49844 25.68429,66.86914"
           style="fill:none;fill-opacity:0.75;fill-rule:evenodd;stroke:#204a87;stroke-width:3;stroke-linecap:butt;stroke-linejoin:miter;stroke-miterlimit:4;stroke-dasharray:6, 3;stroke-dashoffset:0;stroke-opacity:1"
           id="path30911"
           inkscape:connector-curvature="0" />
        <path
           d="m 295.08587,379.91343 8.62036,-3.2332 -0.68122,11.41428 -7.93914,-8.18108 z"
           style="fill:#204a87;fill-opacity:1;fill-rule:evenodd;stroke:none;stroke-width:1px;stroke-linecap:butt;stroke-linejoin:miter;stroke-opacity:1"
           id="path30913"
           inkscape:connector-curvature="0" />
      </g>
    </g>
    <g
       transform="matrix(1.1071035,0,0,1.1071035,-4.2837428,-418.671)"
       id="g45674">
      <path
         d="m 39.59375,494.8125 c 0,61.67102 50.047726,111.71875 111.71875,111.71875 37.69797,0 155.5625,-0.34375 155.5625,-0.34375 61.47587,0 111.375,-49.89913 111.375,-111.375"
         style="opacity:1;fill:none;fill-opacity:0.77777782;fill-rule:evenodd;stroke:#4e9a06;stroke-width:3;stroke-linecap:butt;stroke-linejoin:miter;stroke-miterlimit:4;stroke-dasharray:none;stroke-dashoffset:0;stroke-opacity:1"
         id="path27942"
         inkscape:connector-curvature="0" />
      <g
         transform="matrix(0.9334115,0.3588077,-0.3588077,0.9334115,86.062871,186.01799)"
         id="g30884">
        <path
           d="m 258.59789,272.60062 42.54066,110.76696"
           style="fill:none;fill-opacity:0.75;fill-rule:evenodd;stroke:#4e9a06;stroke-width:3;stroke-linecap:butt;stroke-linejoin:miter;stroke-miterlimit:4;stroke-dasharray:6, 3;stroke-dashoffset:0;stroke-opacity:1"
           id="path30886"
           inkscape:connector-curvature="0" />
        <path
           d="m 295.08587,379.91343 8.62036,-3.2332 -0.68122,11.41428 -7.93914,-8.18108 z"
           style="fill:#4e9a06;fill-opacity:1;fill-rule:evenodd;stroke:none;stroke-width:1px;stroke-linecap:butt;stroke-linejoin:miter;stroke-opacity:1"
           id="path30888"
           inkscape:connector-curvature="0" />
      </g>
      <g
         transform="matrix(0.4031981,0.9151127,-0.9151127,0.4031981,257.2703,180.75916)"
         id="g30890">
        <path
           d="m 258.59789,272.60062 42.54066,110.76696"
           style="fill:none;fill-opacity:0.75;fill-rule:evenodd;stroke:#4e9a06;stroke-width:3;stroke-linecap:butt;stroke-linejoin:miter;stroke-miterlimit:4;stroke-dasharray:6, 3;stroke-dashoffset:0;stroke-opacity:1"
           id="path30892"
           inkscape:connector-curvature="0" />
        <path
           d="m 295.08587,379.91343 8.62036,-3.2332 -0.68122,11.41428 -7.93914,-8.18108 z"
           style="fill:#4e9a06;fill-opacity:1;fill-rule:evenodd;stroke:none;stroke-width:1px;stroke-linecap:butt;stroke-linejoin:miter;stroke-opacity:1"
           id="path30894"
           inkscape:connector-curvature="0" />
      </g>
      <g
         transform="matrix(-0.4031981,0.9151127,0.9151127,0.4031981,200.60508,180.75916)"
         id="g30896">
        <path
           d="m 258.59789,272.60062 42.54066,110.76696"
           style="fill:none;fill-opacity:0.75;fill-rule:evenodd;stroke:#4e9a06;stroke-width:3;stroke-linecap:butt;stroke-linejoin:miter;stroke-miterlimit:4;stroke-dasharray:6, 3;stroke-dashoffset:0;stroke-opacity:1"
           id="path30898"
           inkscape:connector-curvature="0" />
        <path
           d="m 295.08587,379.91343 8.62036,-3.2332 -0.68122,11.41428 -7.93914,-8.18108 z"
           style="fill:#4e9a06;fill-opacity:1;fill-rule:evenodd;stroke:none;stroke-width:1px;stroke-linecap:butt;stroke-linejoin:miter;stroke-opacity:1"
           id="path30900"
           inkscape:connector-curvature="0" />
      </g>
      <path
         d="m 18.721316,496.70414 c 0,70.62298 55.565225,127.93547 124.035154,127.93547 44.36783,0 135.91832,-0.39364 172.71246,-0.39364 68.25326,0 123.65349,-57.14232 123.65349,-127.54183"
         style="opacity:1;fill:none;fill-opacity:0.77777782;fill-rule:evenodd;stroke:#4e9a06;stroke-width:3;stroke-linecap:butt;stroke-linejoin:miter;stroke-miterlimit:4;stroke-dasharray:none;stroke-dashoffset:0;stroke-opacity:1"
         id="path44651"
         inkscape:connector-curvature="0" />
    </g>
  </g>
</svg>
