<?xml version="1.0" encoding="UTF-8" standalone="no"?>
<svg
   xmlns:dc="http://purl.org/dc/elements/1.1/"
   xmlns:cc="http://creativecommons.org/ns#"
   xmlns:rdf="http://www.w3.org/1999/02/22-rdf-syntax-ns#"
   xmlns:svg="http://www.w3.org/2000/svg"
   xmlns="http://www.w3.org/2000/svg"
   xmlns:sodipodi="http://sodipodi.sourceforge.net/DTD/sodipodi-0.dtd"
   xmlns:inkscape="http://www.inkscape.org/namespaces/inkscape"
   version="1.0"
   width="763.12329"
   height="387.8046"
   id="svg45702"
   sodipodi:version="0.32"
   inkscape:version="0.91 r13725"
   sodipodi:docname="Refraction_-_Huygens-Fresnel_principle.svg"
   inkscape:output_extension="org.inkscape.output.svg.inkscape">
  <metadata
     id="metadata59">
    <rdf:RDF>
      <cc:Work
         rdf:about="">
        <dc:format>image/svg+xml</dc:format>
        <dc:type
           rdf:resource="http://purl.org/dc/dcmitype/StillImage" />
        <dc:title></dc:title>
      </cc:Work>
    </rdf:RDF>
  </metadata>
  <sodipodi:namedview
     inkscape:window-height="744"
     inkscape:window-width="1319"
     inkscape:pageshadow="2"
     inkscape:pageopacity="0.0"
     guidetolerance="10.0"
     gridtolerance="10.0"
     objecttolerance="10.0"
     borderopacity="1.0"
     bordercolor="#666666"
     pagecolor="#ffffff"
     id="base"
     showgrid="false"
     inkscape:zoom="1.2721084"
     inkscape:cx="329.9841"
     inkscape:cy="182.31198"
     inkscape:window-x="47"
     inkscape:window-y="24"
     inkscape:current-layer="svg45702"
     fit-margin-top="5"
     fit-margin-left="5"
     fit-margin-right="5"
     fit-margin-bottom="5"
     inkscape:window-maximized="1" />
  <defs
     id="defs45704">
    <inkscape:perspective
       sodipodi:type="inkscape:persp3d"
       inkscape:vp_x="0 : 200 : 1"
       inkscape:vp_y="0 : 1000 : 0"
       inkscape:vp_z="500 : 200 : 1"
       inkscape:persp3d-origin="250 : 133.33333 : 1"
       id="perspective61" />
  </defs>
  <g
     id="g4787"
     transform="translate(-40.877019,-18.966588)">
    <path
       inkscape:connector-curvature="0"
       id="path3306"
       style="fill:none;fill-opacity:0.75;fill-rule:evenodd;stroke:#babdb6;stroke-width:3.10815001;stroke-linecap:round;stroke-linejoin:miter;stroke-miterlimit:4;stroke-dasharray:none;stroke-opacity:1"
       d="M 84.11293,32.249311 232.02062,227.16632" />
    <path
       inkscape:connector-curvature="0"
       id="path3336"
       style="fill:none;fill-opacity:0.75;fill-rule:evenodd;stroke:#babdb6;stroke-width:3.10815001;stroke-linecap:round;stroke-linejoin:miter;stroke-miterlimit:4;stroke-dasharray:none;stroke-opacity:1"
       d="M 231.66978,226.59065 293.8188,388.4759" />
    <path
       inkscape:connector-curvature="0"
       id="path2281"
       style="fill:none;fill-opacity:0.75;fill-rule:evenodd;stroke:#2e3436;stroke-width:1.82965422;stroke-linecap:butt;stroke-linejoin:miter;stroke-miterlimit:4;stroke-dasharray:none;stroke-opacity:1"
       d="m 45.877019,226.86026 356.877101,0" />
    <path
       inkscape:connector-curvature="0"
       id="path3294"
       style="fill:none;fill-opacity:0.75;fill-rule:evenodd;stroke:#babdb6;stroke-width:3.10815001;stroke-linecap:round;stroke-linejoin:miter;stroke-miterlimit:4;stroke-dasharray:none;stroke-opacity:1"
       d="M 66.07849,119.83629 148.22523,227.5061" />
    <path
       inkscape:connector-curvature="0"
       id="path3298"
       style="fill:none;fill-opacity:0.75;fill-rule:evenodd;stroke:#babdb6;stroke-width:3.10815001;stroke-linecap:round;stroke-linejoin:miter;stroke-miterlimit:4;stroke-dasharray:none;stroke-opacity:1"
       d="M 176.34337,35.813986 322.25497,226.5853" />
    <path
       inkscape:connector-curvature="0"
       id="path3330"
       style="fill:none;fill-opacity:0.75;fill-rule:evenodd;stroke:#babdb6;stroke-width:3.10815001;stroke-linecap:round;stroke-linejoin:miter;stroke-miterlimit:4;stroke-dasharray:none;stroke-opacity:1"
       d="m 148.22746,227.20173 61.51427,159.52978" />
    <path
       inkscape:connector-curvature="0"
       id="path3340"
       style="fill:none;fill-opacity:0.75;fill-rule:evenodd;stroke:#babdb6;stroke-width:3.10815001;stroke-linecap:round;stroke-linejoin:miter;stroke-miterlimit:4;stroke-dasharray:none;stroke-opacity:1"
       d="m 321.84145,226.13983 38.98871,101.1919" />
    <path
       inkscape:connector-curvature="0"
       d="M 85.68102,144.92809 196.45638,60.411965"
       style="fill:none;fill-opacity:0.75;fill-rule:evenodd;stroke:#000000;stroke-width:1.03604996px;stroke-linecap:butt;stroke-linejoin:miter;stroke-opacity:1"
       id="path2283" />
    <g
       transform="matrix(1.03605,0,0,1.03605,-1.50919,24.254816)"
       id="g24984">
      <path
         inkscape:connector-curvature="0"
         d="m 202.15504,49.720617 -106.906249,81.562503 1.8125,2.375 106.937499,-81.562503 -1.84375,-2.375 z"
         style="fill:#204a87;fill-opacity:1;fill-rule:evenodd;stroke:none;stroke-width:3;stroke-linecap:butt;stroke-linejoin:miter;stroke-miterlimit:4;stroke-dasharray:none;stroke-opacity:1"
         id="path2289" />
      <path
         inkscape:connector-curvature="0"
         d="m 214.15504,65.720617 -106.90625,81.562503 1.8125,2.375 106.9375,-81.562503 -1.84375,-2.375 z"
         style="fill:#204a87;fill-opacity:1;fill-rule:evenodd;stroke:none;stroke-width:3;stroke-linecap:butt;stroke-linejoin:miter;stroke-miterlimit:4;stroke-dasharray:none;stroke-opacity:1"
         id="path2301" />
      <path
         inkscape:connector-curvature="0"
         d="m 226.15504,81.720617 -106.90625,81.562503 1.8125,2.375 106.9375,-81.562503 -1.84375,-2.375 z"
         style="fill:#204a87;fill-opacity:1;fill-rule:evenodd;stroke:none;stroke-width:3;stroke-linecap:butt;stroke-linejoin:miter;stroke-miterlimit:4;stroke-dasharray:none;stroke-opacity:1"
         id="path2303" />
      <path
         inkscape:connector-curvature="0"
         d="m 238.15504,97.720617 -106.90625,81.562503 1.8125,2.375 106.9375,-81.5625 -1.84375,-2.375003 z"
         style="fill:#204a87;fill-opacity:1;fill-rule:evenodd;stroke:none;stroke-width:3;stroke-linecap:butt;stroke-linejoin:miter;stroke-miterlimit:4;stroke-dasharray:none;stroke-opacity:1"
         id="path2305" />
      <path
         inkscape:connector-curvature="0"
         d="m 250.15504,113.72062 -106.625,81.34375 4.9375,0 103.53125,-78.96875 -1.84375,-2.375 z"
         style="fill:#204a87;fill-opacity:1;fill-rule:evenodd;stroke:none;stroke-width:3;stroke-linecap:butt;stroke-linejoin:miter;stroke-miterlimit:4;stroke-dasharray:none;stroke-opacity:1"
         id="path2307" />
      <path
         inkscape:connector-curvature="0"
         d="m 262.15504,129.72062 -85.65625,65.34375 4.9375,0 82.5625,-62.96875 -1.84375,-2.375 z"
         style="fill:#204a87;fill-opacity:1;fill-rule:evenodd;stroke:none;stroke-width:3;stroke-linecap:butt;stroke-linejoin:miter;stroke-miterlimit:4;stroke-dasharray:none;stroke-opacity:1"
         id="path2309" />
      <path
         inkscape:connector-curvature="0"
         d="m 274.15504,145.72062 -64.6875,49.34375 4.9375,0 61.59375,-46.96875 -1.84375,-2.375 z"
         style="fill:#204a87;fill-opacity:1;fill-rule:evenodd;stroke:none;stroke-width:3;stroke-linecap:butt;stroke-linejoin:miter;stroke-miterlimit:4;stroke-dasharray:none;stroke-opacity:1"
         id="path2311" />
      <path
         inkscape:connector-curvature="0"
         d="m 286.15504,161.72062 -43.71875,33.34375 4.96875,0 40.59375,-30.96875 -1.84375,-2.375 z"
         style="fill:#204a87;fill-opacity:1;fill-rule:evenodd;stroke:none;stroke-width:3;stroke-linecap:butt;stroke-linejoin:miter;stroke-miterlimit:4;stroke-dasharray:none;stroke-opacity:1"
         id="path2313" />
      <path
         inkscape:connector-curvature="0"
         d="m 298.15504,177.72062 -22.71875,17.34375 4.9375,0 19.625,-14.96875 -1.84375,-2.375 z"
         style="fill:#204a87;fill-opacity:1;fill-rule:evenodd;stroke:none;stroke-width:3;stroke-linecap:butt;stroke-linejoin:miter;stroke-miterlimit:4;stroke-dasharray:none;stroke-opacity:1"
         id="path2315" />
      <path
         inkscape:connector-curvature="0"
         d="m 190.15504,33.720617 -106.906249,81.562503 1.8125,2.375 106.937499,-81.562503 -1.84375,-2.375 z"
         style="fill:#204a87;fill-opacity:1;fill-rule:evenodd;stroke:none;stroke-width:3;stroke-linecap:butt;stroke-linejoin:miter;stroke-miterlimit:4;stroke-dasharray:none;stroke-opacity:1"
         id="path3302" />
    </g>
    <path
       inkscape:connector-curvature="0"
       id="path3346"
       style="fill:none;fill-opacity:0.75;fill-rule:evenodd;stroke:#4e9a06;stroke-width:3.10815001;stroke-linecap:butt;stroke-linejoin:miter;stroke-miterlimit:4;stroke-dasharray:none;stroke-opacity:1"
       d="m 176.42329,299.13194 150.80288,-58.3648" />
    <path
       inkscape:connector-curvature="0"
       id="path3348"
       style="fill:none;fill-opacity:0.75;fill-rule:evenodd;stroke:#4e9a06;stroke-width:3.10815001;stroke-linecap:butt;stroke-linejoin:miter;stroke-miterlimit:4;stroke-dasharray:none;stroke-opacity:1"
       d="M 181.89591,312.52075 332.536,254.15595" />
    <path
       inkscape:connector-curvature="0"
       id="path3350"
       style="fill:none;fill-opacity:0.75;fill-rule:evenodd;stroke:#4e9a06;stroke-width:3.10815001;stroke-linecap:butt;stroke-linejoin:miter;stroke-miterlimit:4;stroke-dasharray:none;stroke-opacity:1"
       d="m 187.36852,325.74678 150.64009,-58.202" />
    <path
       inkscape:connector-curvature="0"
       id="path3352"
       style="fill:none;fill-opacity:0.75;fill-rule:evenodd;stroke:#4e9a06;stroke-width:3.10815001;stroke-linecap:butt;stroke-linejoin:miter;stroke-miterlimit:4;stroke-dasharray:none;stroke-opacity:1"
       d="M 192.67835,339.13561 343.48122,280.93359" />
    <path
       inkscape:connector-curvature="0"
       id="path3354"
       style="fill:none;fill-opacity:0.75;fill-rule:evenodd;stroke:#4e9a06;stroke-width:3.10815001;stroke-linecap:butt;stroke-linejoin:miter;stroke-miterlimit:4;stroke-dasharray:none;stroke-opacity:1"
       d="M 171.27624,285.74312 321.91633,227.37834" />
    <path
       inkscape:connector-curvature="0"
       d="M 197.2824,353.86858 348.08527,295.66656"
       style="fill:none;fill-opacity:0.75;fill-rule:evenodd;stroke:#4e9a06;stroke-width:3.10815001;stroke-linecap:butt;stroke-linejoin:miter;stroke-miterlimit:4;stroke-dasharray:none;stroke-opacity:1"
       id="path2496" />
    <g
       transform="matrix(1.03605,0,0,1.03605,-13.23075,4.4746865)"
       id="g24980">
      <path
         inkscape:connector-curvature="0"
         d="M 96.627441,30.893082 175.91584,134.81645"
         style="fill:none;fill-opacity:0.75;fill-rule:evenodd;stroke:#204a87;stroke-width:3;stroke-linecap:butt;stroke-linejoin:miter;stroke-miterlimit:4;stroke-dasharray:6, 3;stroke-dashoffset:0;stroke-opacity:1"
         id="path2285" />
      <path
         inkscape:connector-curvature="0"
         d="m 170.77941,135.46371 7.38421,-5.49888 2.51377,11.15486 -9.89798,-5.65598 z"
         style="fill:#204a87;fill-opacity:1;fill-rule:evenodd;stroke:none;stroke-width:1px;stroke-linecap:butt;stroke-linejoin:miter;stroke-opacity:1"
         id="path11266" />
    </g>
    <g
       transform="matrix(0.9172667,0,0,0.9150393,11.75951,22.595261)"
       id="g24976">
      <path
         inkscape:connector-curvature="0"
         d="m 258.59789,272.60062 42.54066,110.76696"
         style="fill:none;fill-opacity:0.75;fill-rule:evenodd;stroke:#4e9a06;stroke-width:3;stroke-linecap:butt;stroke-linejoin:miter;stroke-miterlimit:4;stroke-dasharray:6, 3;stroke-dashoffset:0;stroke-opacity:1"
         id="path9326" />
      <path
         inkscape:connector-curvature="0"
         d="m 295.08587,379.91343 8.62036,-3.2332 -0.68122,11.41428 -7.93914,-8.18108 z"
         style="fill:#4e9a06;fill-opacity:1;fill-rule:evenodd;stroke:none;stroke-width:1px;stroke-linecap:butt;stroke-linejoin:miter;stroke-opacity:1"
         id="path14178" />
    </g>
    <g
       transform="matrix(1.03605,0,0,1.03605,-1.50919,24.254816)"
       id="g25012">
      <path
         inkscape:connector-curvature="0"
         d="m 265.59254,196.03312 c 0.16726,6.7391 5.72201,12.18749 12.5,12.1875 6.77799,0 12.33273,-5.4484 12.5,-12.1875 l -3.03125,0 c -0.16664,5.11156 -4.31555,9.1875 -9.46875,9.1875 -5.1532,-1e-5 -9.30212,-4.07594 -9.46875,-9.1875 l -3.03125,0 z"
         style="opacity:1;fill:#888a85;fill-opacity:0.53472134;fill-rule:evenodd;stroke:none;stroke-width:3;stroke-linecap:butt;stroke-linejoin:miter;stroke-miterlimit:4;stroke-dasharray:none;stroke-dashoffset:0;stroke-opacity:1"
         id="path14180" />
      <path
         inkscape:connector-curvature="0"
         d="m 232.37379,196.03312 c 0.16726,6.7391 5.72201,12.18749 12.5,12.1875 6.778,0 12.33273,-5.4484 12.5,-12.1875 l -3.03125,0 c -0.16663,5.11156 -4.31555,9.1875 -9.46875,9.1875 -5.15354,-1e-5 -9.33391,-4.07545 -9.5,-9.1875 l -3,0 z"
         style="opacity:1;fill:#babdb6;fill-opacity:0.53472134;fill-rule:evenodd;stroke:none;stroke-width:3;stroke-linecap:butt;stroke-linejoin:miter;stroke-miterlimit:4;stroke-dasharray:none;stroke-dashoffset:0;stroke-opacity:1"
         id="path15151" />
      <path
         inkscape:connector-curvature="0"
         d="m 199.37379,196.03312 c 0.16726,6.7391 5.72201,12.18749 12.5,12.1875 6.77798,0 12.33273,-5.4484 12.5,-12.1875 l -3.03125,0 c -0.16664,5.11156 -4.31555,9.1875 -9.46875,9.1875 -5.15356,-1e-5 -9.33391,-4.07545 -9.5,-9.1875 l -3,0 z"
         style="opacity:1;fill:#babdb6;fill-opacity:0.53472134;fill-rule:evenodd;stroke:none;stroke-width:3;stroke-linecap:butt;stroke-linejoin:miter;stroke-miterlimit:4;stroke-dasharray:none;stroke-dashoffset:0;stroke-opacity:1"
         id="path15153" />
      <path
         inkscape:connector-curvature="0"
         d="m 166.24879,196.03312 c 0.16726,6.7391 5.72202,12.18749 12.5,12.1875 6.77799,0 12.33274,-5.4484 12.5,-12.1875 l -3,0 c -0.16609,5.11205 -4.34645,9.1875 -9.5,9.1875 -5.15321,-1e-5 -9.30212,-4.07594 -9.46875,-9.1875 l -3.03125,0 z"
         style="opacity:1;fill:#babdb6;fill-opacity:0.53472134;fill-rule:evenodd;stroke:none;stroke-width:3;stroke-linecap:butt;stroke-linejoin:miter;stroke-miterlimit:4;stroke-dasharray:none;stroke-dashoffset:0;stroke-opacity:1"
         id="path15155" />
      <path
         inkscape:connector-curvature="0"
         d="m 133.59254,196.03312 c 0.16726,6.7391 5.72201,12.18749 12.5,12.1875 6.77799,0 12.33273,-5.4484 12.5,-12.1875 l -3.03125,0 c -0.16664,5.11156 -4.31555,9.1875 -9.46875,9.1875 -5.1532,-1e-5 -9.30212,-4.07594 -9.46875,-9.1875 l -3.03125,0 z"
         style="opacity:1;fill:#babdb6;fill-opacity:0.53472134;fill-rule:evenodd;stroke:none;stroke-width:3;stroke-linecap:butt;stroke-linejoin:miter;stroke-miterlimit:4;stroke-dasharray:none;stroke-dashoffset:0;stroke-opacity:1"
         id="path15157" />
      <path
         inkscape:connector-curvature="0"
         d="m 220.90504,196.03312 c 0.0841,13.25742 10.87978,24.06248 24.15625,24.0625 13.27645,-1e-5 24.07211,-10.80508 24.15625,-24.0625 l -3.03125,0 c -0.0836,11.63328 -9.47192,21.0625 -21.125,21.0625 -11.65309,-2e-5 -21.13459,-9.42923 -21.21875,-21.0625 l -2.9375,0 z"
         style="opacity:1;fill:#888a85;fill-opacity:0.53472134;fill-rule:evenodd;stroke:none;stroke-width:1.45509005;stroke-linecap:butt;stroke-linejoin:miter;stroke-miterlimit:4;stroke-dasharray:none;stroke-dashoffset:0;stroke-opacity:1"
         id="path15159" />
      <path
         inkscape:connector-curvature="0"
         d="m 188.90504,196.03312 c 0.0841,13.25742 10.87978,24.06248 24.15625,24.0625 13.27645,-1e-5 24.07211,-10.80508 24.15625,-24.0625 l -3.03125,0 c -0.0836,11.63328 -9.47192,21.0625 -21.125,21.0625 -11.65309,-2e-5 -21.13459,-9.42923 -21.21875,-21.0625 l -2.9375,0 z"
         style="opacity:1;fill:#babdb6;fill-opacity:0.53472134;fill-rule:evenodd;stroke:none;stroke-width:1.45509005;stroke-linecap:butt;stroke-linejoin:miter;stroke-miterlimit:4;stroke-dasharray:none;stroke-dashoffset:0;stroke-opacity:1"
         id="path17099" />
      <path
         inkscape:connector-curvature="0"
         d="m 154.90504,196.03312 c 0.0841,13.25742 10.87978,24.06248 24.15625,24.0625 13.27645,-1e-5 24.07211,-10.80508 24.15625,-24.0625 l -3.03125,0 c -0.0836,11.63328 -9.47192,21.0625 -21.125,21.0625 -11.65309,-2e-5 -21.13459,-9.42923 -21.21875,-21.0625 l -2.9375,0 z"
         style="opacity:1;fill:#babdb6;fill-opacity:0.53472134;fill-rule:evenodd;stroke:none;stroke-width:1.45509005;stroke-linecap:butt;stroke-linejoin:miter;stroke-miterlimit:4;stroke-dasharray:none;stroke-dashoffset:0;stroke-opacity:1"
         id="path17101" />
      <path
         inkscape:connector-curvature="0"
         d="m 120.90504,196.03312 c 0.0841,13.25742 10.87978,24.06248 24.15625,24.0625 13.27645,-1e-5 24.07211,-10.80508 24.15625,-24.0625 l -3.03125,0 c -0.0836,11.63328 -9.47192,21.0625 -21.125,21.0625 -11.65309,-2e-5 -21.13459,-9.42923 -21.21875,-21.0625 l -2.9375,0 z"
         style="opacity:1;fill:#babdb6;fill-opacity:0.53472134;fill-rule:evenodd;stroke:none;stroke-width:1.45509005;stroke-linecap:butt;stroke-linejoin:miter;stroke-miterlimit:4;stroke-dasharray:none;stroke-dashoffset:0;stroke-opacity:1"
         id="path17103" />
      <path
         inkscape:connector-curvature="0"
         d="m 176.43629,196.03312 c 0.1855,19.94111 16.45315,36.09372 36.4375,36.09375 19.98425,-1e-5 36.25181,-16.15276 36.4375,-36.09375 l -2.96875,0 c -0.18562,18.3169 -15.108,33.125 -33.46875,33.125 -18.36075,-4e-5 -33.25191,-14.8081 -33.4375,-33.125 l -3,0 z"
         style="opacity:1;fill:#888a85;fill-opacity:0.53472134;fill-rule:evenodd;stroke:none;stroke-width:0.94428802;stroke-linecap:butt;stroke-linejoin:miter;stroke-miterlimit:4;stroke-dasharray:none;stroke-dashoffset:0;stroke-opacity:1"
         id="path17105" />
      <path
         inkscape:connector-curvature="0"
         d="m 142.43629,196.03312 c 0.1855,19.94111 16.45315,36.09372 36.4375,36.09375 19.98425,-1e-5 36.25181,-16.15276 36.4375,-36.09375 l -2.96875,0 c -0.18562,18.3169 -15.108,33.125 -33.46875,33.125 -18.36075,-4e-5 -33.25191,-14.8081 -33.4375,-33.125 l -3,0 z"
         style="opacity:1;fill:#babdb6;fill-opacity:0.53472134;fill-rule:evenodd;stroke:none;stroke-width:0.94428802;stroke-linecap:butt;stroke-linejoin:miter;stroke-miterlimit:4;stroke-dasharray:none;stroke-dashoffset:0;stroke-opacity:1"
         id="path19045" />
      <path
         inkscape:connector-curvature="0"
         d="m 108.43629,196.03312 c 0.1855,19.94111 16.45315,36.09372 36.4375,36.09375 19.98425,-1e-5 36.25181,-16.15276 36.4375,-36.09375 l -2.96875,0 c -0.18562,18.3169 -15.108,33.125 -33.46875,33.125 -18.36075,-4e-5 -33.25191,-14.8081 -33.4375,-33.125 l -3,0 z"
         style="opacity:1;fill:#babdb6;fill-opacity:0.53472134;fill-rule:evenodd;stroke:none;stroke-width:0.94428802;stroke-linecap:butt;stroke-linejoin:miter;stroke-miterlimit:4;stroke-dasharray:none;stroke-dashoffset:0;stroke-opacity:1"
         id="path19047" />
      <path
         inkscape:connector-curvature="0"
         d="m 130.28004,196.03312 c 0.18602,26.67641 21.90628,48.40621 48.625,48.40625 26.71873,-1e-5 48.40769,-21.72984 48.59375,-48.40625 l -2.9375,0 c -0.18632,25.05167 -20.56099,45.3125 -45.65625,45.3125 -25.09526,-4e-5 -45.50122,-20.26084 -45.6875,-45.3125 l -2.9375,0 z"
         style="opacity:1;fill:#888a85;fill-opacity:0.53472134;fill-rule:evenodd;stroke:none;stroke-width:0.699907;stroke-linecap:butt;stroke-linejoin:miter;stroke-miterlimit:4;stroke-dasharray:none;stroke-dashoffset:0;stroke-opacity:1"
         id="path20018" />
      <path
         inkscape:connector-curvature="0"
         d="m 96.280041,196.03312 c 0.18602,26.67641 21.906279,48.40621 48.624999,48.40625 26.71873,-1e-5 48.40769,-21.72984 48.59375,-48.40625 l -2.9375,0 c -0.18632,25.05167 -20.56099,45.3125 -45.65625,45.3125 -25.09526,-4e-5 -45.501219,-20.26084 -45.687499,-45.3125 l -2.9375,0 z"
         style="opacity:1;fill:#babdb6;fill-opacity:0.53472134;fill-rule:evenodd;stroke:none;stroke-width:0.699907;stroke-linecap:butt;stroke-linejoin:miter;stroke-miterlimit:4;stroke-dasharray:none;stroke-dashoffset:0;stroke-opacity:1"
         id="path21958" />
      <path
         inkscape:connector-curvature="0"
         d="m 84.061291,196.03312 c 0.203383,33.37576 27.420919,60.46869 60.843749,60.46875 33.42276,1e-5 60.60897,-27.09308 60.8125,-60.46875 l -3.03125,0 c -0.20101,31.75329 -25.98057,57.4375 -57.78125,57.4375 -31.80074,-7e-5 -57.611651,-25.68411 -57.812499,-57.4375 l -3.03125,0 z"
         style="opacity:1;fill:#888a85;fill-opacity:0.53472134;fill-rule:evenodd;stroke:none;stroke-width:0.55635101;stroke-linecap:butt;stroke-linejoin:miter;stroke-miterlimit:4;stroke-dasharray:none;stroke-dashoffset:0;stroke-opacity:1"
         id="path21960" />
    </g>
    <path
       inkscape:connector-curvature="0"
       d="m 154.99176,226.64536 c 0.002,2.83344 -2.29474,5.13132 -5.12818,5.13132 -2.83344,0 -5.12991,-2.29788 -5.12817,-5.13132 -0.002,-2.83344 2.29473,-5.13132 5.12817,-5.13132 2.83344,0 5.12992,2.29788 5.12818,5.13132 z"
       style="fill:#edd400;fill-opacity:1;fill-rule:evenodd;stroke:none;stroke-width:3;stroke-linecap:butt;stroke-linejoin:miter;stroke-miterlimit:4;stroke-dasharray:none;stroke-dashoffset:0;stroke-opacity:1"
       id="path29892" />
    <path
       inkscape:connector-curvature="0"
       d="m 188.96946,226.64536 c 0.002,2.83344 -2.29474,5.13132 -5.12818,5.13132 -2.83344,0 -5.12991,-2.29788 -5.12817,-5.13132 -0.002,-2.83344 2.29473,-5.13132 5.12817,-5.13132 2.83344,0 5.12992,2.29788 5.12818,5.13132 z"
       style="fill:#edd400;fill-opacity:1;fill-rule:evenodd;stroke:none;stroke-width:3;stroke-linecap:butt;stroke-linejoin:miter;stroke-miterlimit:4;stroke-dasharray:none;stroke-dashoffset:0;stroke-opacity:1"
       id="path30863" />
    <path
       inkscape:connector-curvature="0"
       d="m 223.2793,226.64536 c 0.002,2.83344 -2.29473,5.13132 -5.12817,5.13132 -2.83344,0 -5.12991,-2.29788 -5.12817,-5.13132 -0.002,-2.83344 2.29473,-5.13132 5.12817,-5.13132 2.83344,0 5.12992,2.29788 5.12817,5.13132 z"
       style="fill:#edd400;fill-opacity:1;fill-rule:evenodd;stroke:none;stroke-width:3;stroke-linecap:butt;stroke-linejoin:miter;stroke-miterlimit:4;stroke-dasharray:none;stroke-dashoffset:0;stroke-opacity:1"
       id="path30865" />
    <path
       inkscape:connector-curvature="0"
       d="m 257.40606,226.64536 c 0.002,2.83344 -2.29474,5.13132 -5.12818,5.13132 -2.83344,0 -5.12991,-2.29788 -5.12817,-5.13132 -0.002,-2.83344 2.29473,-5.13132 5.12817,-5.13132 2.83344,0 5.12992,2.29788 5.12818,5.13132 z"
       style="fill:#edd400;fill-opacity:1;fill-rule:evenodd;stroke:none;stroke-width:3;stroke-linecap:butt;stroke-linejoin:miter;stroke-miterlimit:4;stroke-dasharray:none;stroke-dashoffset:0;stroke-opacity:1"
       id="path30867" />
    <path
       inkscape:connector-curvature="0"
       d="m 291.84156,226.64536 c 0.002,2.83344 -2.29474,5.13132 -5.12818,5.13132 -2.83344,0 -5.12991,-2.29788 -5.12817,-5.13132 -0.002,-2.83344 2.29473,-5.13132 5.12817,-5.13132 2.83344,0 5.12992,2.29788 5.12818,5.13132 z"
       style="fill:#edd400;fill-opacity:1;fill-rule:evenodd;stroke:none;stroke-width:3;stroke-linecap:butt;stroke-linejoin:miter;stroke-miterlimit:4;stroke-dasharray:none;stroke-dashoffset:0;stroke-opacity:1"
       id="path30869" />
  </g>
  <path
     id="path4431"
     style="fill:none;fill-opacity:0.75;fill-rule:evenodd;stroke:#babdb6;stroke-width:3.10815001;stroke-linecap:round;stroke-linejoin:miter;stroke-miterlimit:4;stroke-dasharray:none;stroke-opacity:1"
     d="M 395.23591,13.282723 543.1436,208.19973"
     inkscape:connector-curvature="0" />
  <path
     id="path4433"
     style="fill:none;fill-opacity:0.75;fill-rule:evenodd;stroke:#babdb6;stroke-width:3.10815001;stroke-linecap:round;stroke-linejoin:miter;stroke-miterlimit:4;stroke-dasharray:none;stroke-opacity:1"
     d="M 542.79276,207.62406 604.94178,369.5093"
     inkscape:connector-curvature="0" />
  <path
     id="path4435"
     style="fill:none;fill-opacity:0.75;fill-rule:evenodd;stroke:#2e3436;stroke-width:1.85424638;stroke-linecap:butt;stroke-linejoin:miter;stroke-miterlimit:4;stroke-dasharray:none;stroke-opacity:1"
     d="m 391.58825,207.89367 366.53502,0"
     inkscape:connector-curvature="0" />
  <path
     id="path4437"
     style="fill:none;fill-opacity:0.75;fill-rule:evenodd;stroke:#babdb6;stroke-width:3.10815001;stroke-linecap:round;stroke-linejoin:miter;stroke-miterlimit:4;stroke-dasharray:none;stroke-opacity:1"
     d="m 377.20147,100.8697 82.14674,107.66981"
     inkscape:connector-curvature="0" />
  <path
     id="path4439"
     style="fill:none;fill-opacity:0.75;fill-rule:evenodd;stroke:#babdb6;stroke-width:3.10815001;stroke-linecap:round;stroke-linejoin:miter;stroke-miterlimit:4;stroke-dasharray:none;stroke-opacity:1"
     d="M 487.46635,16.847398 633.37795,207.61871"
     inkscape:connector-curvature="0" />
  <path
     id="path4441"
     style="fill:none;fill-opacity:0.75;fill-rule:evenodd;stroke:#babdb6;stroke-width:3.10815001;stroke-linecap:round;stroke-linejoin:miter;stroke-miterlimit:4;stroke-dasharray:none;stroke-opacity:1"
     d="m 459.35044,208.23514 61.51427,159.52978"
     inkscape:connector-curvature="0" />
  <path
     id="path4443"
     style="fill:none;fill-opacity:0.75;fill-rule:evenodd;stroke:#babdb6;stroke-width:3.10815001;stroke-linecap:round;stroke-linejoin:miter;stroke-miterlimit:4;stroke-dasharray:none;stroke-opacity:1"
     d="m 632.96443,207.17324 38.98871,101.19189"
     inkscape:connector-curvature="0" />
  <path
     id="path4457"
     style="fill:#204a87;fill-opacity:1;fill-rule:evenodd;stroke:none;stroke-width:3;stroke-linecap:butt;stroke-linejoin:miter;stroke-miterlimit:4;stroke-dasharray:none;stroke-opacity:1"
     d="m 568.78692,123.10848 -110.46883,84.27619 5.11549,0 107.26356,-81.81557 -1.91022,-2.46062 z"
     inkscape:connector-curvature="0" />
  <path
     inkscape:connector-curvature="0"
     id="path4477"
     style="fill:none;fill-opacity:0.75;fill-rule:evenodd;stroke:#4e9a06;stroke-width:3.10815001;stroke-linecap:butt;stroke-linejoin:miter;stroke-miterlimit:4;stroke-dasharray:none;stroke-opacity:1"
     d="M 482.39922,266.77653 633.03931,208.41175" />
  <g
     transform="matrix(1.03605,0,0,1.03605,297.89223,-14.491901)"
     id="g4481">
    <path
       inkscape:connector-curvature="0"
       d="M 96.627441,30.893082 175.91584,134.81645"
       style="fill:none;fill-opacity:0.75;fill-rule:evenodd;stroke:#204a87;stroke-width:3;stroke-linecap:butt;stroke-linejoin:miter;stroke-miterlimit:4;stroke-dasharray:6, 3;stroke-dashoffset:0;stroke-opacity:1"
       id="path4483" />
    <path
       inkscape:connector-curvature="0"
       d="m 170.77941,135.46371 7.38421,-5.49888 2.51377,11.15486 -9.89798,-5.65598 z"
       style="fill:#204a87;fill-opacity:1;fill-rule:evenodd;stroke:none;stroke-width:1px;stroke-linecap:butt;stroke-linejoin:miter;stroke-opacity:1"
       id="path4485" />
  </g>
  <g
     transform="matrix(0.9172667,0,0,0.9150393,322.88249,3.6286734)"
     id="g4487">
    <path
       inkscape:connector-curvature="0"
       d="m 258.59789,272.60062 42.54066,110.76696"
       style="fill:none;fill-opacity:0.75;fill-rule:evenodd;stroke:#4e9a06;stroke-width:3;stroke-linecap:butt;stroke-linejoin:miter;stroke-miterlimit:4;stroke-dasharray:6, 3;stroke-dashoffset:0;stroke-opacity:1"
       id="path4489" />
    <path
       inkscape:connector-curvature="0"
       d="m 295.08587,379.91343 8.62036,-3.2332 -0.68122,11.41428 -7.93914,-8.18108 z"
       style="fill:#4e9a06;fill-opacity:1;fill-rule:evenodd;stroke:none;stroke-width:1px;stroke-linecap:butt;stroke-linejoin:miter;stroke-opacity:1"
       id="path4491" />
  </g>
  <path
     style="fill:none;fill-rule:evenodd;stroke:#808080;stroke-width:1.5;stroke-linecap:butt;stroke-linejoin:miter;stroke-miterlimit:4;stroke-dasharray:4.5, 4.5;stroke-dashoffset:0;stroke-opacity:1"
     d="M 541.54808,5.0025374 540.26991,382.80205"
     id="path4658"
     inkscape:connector-curvature="0" />
  <text
     xml:space="preserve"
     style="font-style:normal;font-weight:normal;font-size:17.5px;line-height:125%;font-family:sans-serif;letter-spacing:0px;word-spacing:0px;fill:#000000;fill-opacity:1;stroke:none;stroke-width:1px;stroke-linecap:butt;stroke-linejoin:miter;stroke-opacity:1"
     x="453.26282"
     y="191.82362"
     id="text4660"
     sodipodi:linespacing="125%"><tspan
       sodipodi:role="line"
       id="tspan4662"
       x="453.26282"
       y="191.82362">A</tspan></text>
  <text
     xml:space="preserve"
     style="font-style:normal;font-weight:normal;font-size:17.5px;line-height:125%;font-family:sans-serif;letter-spacing:0px;word-spacing:0px;fill:#000000;fill-opacity:1;stroke:none;stroke-width:1px;stroke-linecap:butt;stroke-linejoin:miter;stroke-opacity:1"
     x="572.32697"
     y="115.95975"
     id="text4664"
     sodipodi:linespacing="125%"><tspan
       sodipodi:role="line"
       id="tspan4666"
       x="572.32697"
       y="115.95975">B</tspan></text>
  <text
     xml:space="preserve"
     style="font-style:normal;font-weight:normal;font-size:17.5px;line-height:125%;font-family:sans-serif;letter-spacing:0px;word-spacing:0px;fill:#000000;fill-opacity:1;stroke:none;stroke-width:1px;stroke-linecap:butt;stroke-linejoin:miter;stroke-opacity:1"
     x="495.40942"
     y="283.49243"
     id="text4668"
     sodipodi:linespacing="125%"><tspan
       sodipodi:role="line"
       id="tspan4670"
       x="495.40942"
       y="283.49243">A'</tspan></text>
  <text
     xml:space="preserve"
     style="font-style:normal;font-weight:normal;font-size:17.5px;line-height:125%;font-family:sans-serif;letter-spacing:0px;word-spacing:0px;fill:#000000;fill-opacity:1;stroke:none;stroke-width:1px;stroke-linecap:butt;stroke-linejoin:miter;stroke-opacity:1"
     x="619.74188"
     y="233.97021"
     id="text4672"
     sodipodi:linespacing="125%"><tspan
       sodipodi:role="line"
       id="tspan4674"
       x="619.74188"
       y="233.97021">B'</tspan></text>
  <text
     xml:space="preserve"
     style="font-style:normal;font-weight:normal;font-size:17.5px;line-height:125%;font-family:sans-serif;letter-spacing:0px;word-spacing:0px;fill:#000000;fill-opacity:1;stroke:none;stroke-width:1px;stroke-linecap:butt;stroke-linejoin:miter;stroke-opacity:1"
     x="694.55206"
     y="187.60895"
     id="text4676"
     sodipodi:linespacing="125%"><tspan
       sodipodi:role="line"
       id="tspan4678"
       x="694.55206"
       y="187.60895">medi 1</tspan></text>
  <text
     xml:space="preserve"
     style="font-style:normal;font-weight:normal;font-size:17.5px;line-height:125%;font-family:sans-serif;letter-spacing:0px;word-spacing:0px;fill:#000000;fill-opacity:1;stroke:none;stroke-width:1px;stroke-linecap:butt;stroke-linejoin:miter;stroke-opacity:1"
     x="694.55206"
     y="231.86288"
     id="text4680"
     sodipodi:linespacing="125%"><tspan
       sodipodi:role="line"
       id="tspan4682"
       x="694.55206"
       y="231.86288">medi 2</tspan></text>
  <g
     id="g4730"
     transform="translate(-118.87702,-18.966588)">
    <text
       sodipodi:linespacing="125%"
       id="text4684"
       y="184.69672"
       x="728.75836"
       style="font-style:normal;font-weight:normal;font-size:17.5px;line-height:125%;font-family:sans-serif;letter-spacing:0px;word-spacing:0px;fill:#000000;fill-opacity:1;stroke:none;stroke-width:1px;stroke-linecap:butt;stroke-linejoin:miter;stroke-opacity:1"
       xml:space="preserve"><tspan
         y="184.69672"
         x="728.75836"
         id="tspan4686"
         sodipodi:role="line">v t</tspan></text>
    <text
       transform="scale(1.0196703,0.98070915)"
       sodipodi:linespacing="125%"
       id="text4688"
       y="194.5247"
       x="722.20886"
       style="font-style:normal;font-weight:normal;font-size:12.11257648px;line-height:125%;font-family:sans-serif;letter-spacing:0px;word-spacing:0px;fill:#000000;fill-opacity:1;stroke:none;stroke-width:1px;stroke-linecap:butt;stroke-linejoin:miter;stroke-opacity:1"
       xml:space="preserve"><tspan
         y="194.5247"
         x="722.20886"
         id="tspan4690"
         sodipodi:role="line">1</tspan></text>
  </g>
  <g
     id="g4700"
     transform="translate(-119.62207,-69.257691)">
    <text
       xml:space="preserve"
       style="font-style:normal;font-weight:normal;font-size:17.5px;line-height:125%;font-family:sans-serif;letter-spacing:0px;word-spacing:0px;fill:#000000;fill-opacity:1;stroke:none;stroke-width:1px;stroke-linecap:butt;stroke-linejoin:miter;stroke-opacity:1"
       x="561.12134"
       y="316.1427"
       id="text4692"
       sodipodi:linespacing="125%"><tspan
         sodipodi:role="line"
         id="tspan4694"
         x="561.12134"
         y="316.1427">v t</tspan></text>
    <text
       xml:space="preserve"
       style="font-style:normal;font-weight:normal;font-size:12.11257648px;line-height:125%;font-family:sans-serif;letter-spacing:0px;word-spacing:0px;fill:#000000;fill-opacity:1;stroke:none;stroke-width:1px;stroke-linecap:butt;stroke-linejoin:miter;stroke-opacity:1"
       x="557.80573"
       y="328.55618"
       id="text4696"
       sodipodi:linespacing="125%"
       transform="scale(1.0196703,0.98070915)"><tspan
         sodipodi:role="line"
         id="tspan4698"
         x="557.80573"
         y="328.55618">2</tspan></text>
  </g>
  <path
     style="fill:none;stroke:#808080;stroke-width:1.5;stroke-miterlimit:4;stroke-dasharray:none;stroke-dashoffset:0"
     id="path4714"
     sodipodi:type="arc"
     sodipodi:cx="602.10919"
     sodipodi:cy="-49.514339"
     sodipodi:rx="37.324203"
     sodipodi:ry="37.324203"
     sodipodi:start="0.34493305"
     sodipodi:end="1.1340038"
     sodipodi:open="true"
     d="m 637.23493,-36.893769 a 37.324203,37.324203 0 0 1 -19.33628,21.199383"
     transform="matrix(0.86522744,0.50137957,-0.50137957,0.86522744,0,0)" />
  <path
     transform="matrix(0.12985074,-0.99153355,-0.99153355,-0.12985074,0,0)"
     d="m -55.975103,-550.08133 a 37.324203,37.324203 0 0 1 -21.201132,38.79917"
     sodipodi:open="true"
     sodipodi:end="1.1340038"
     sodipodi:start="6.1493819"
     sodipodi:ry="37.324203"
     sodipodi:rx="37.324203"
     sodipodi:cy="-545.10211"
     sodipodi:cx="-92.965691"
     sodipodi:type="arc"
     id="path4716"
     style="fill:none;stroke:#808080;stroke-width:1.5;stroke-miterlimit:4;stroke-dasharray:none;stroke-dashoffset:0" />
  <g
     id="g4762"
     transform="translate(-118.87702,-18.966588)">
    <text
       sodipodi:linespacing="125%"
       id="text4718"
       y="138.23114"
       x="625.84479"
       style="font-style:normal;font-weight:normal;font-size:17.5px;line-height:125%;font-family:sans-serif;letter-spacing:0px;word-spacing:0px;fill:#000000;fill-opacity:1;stroke:none;stroke-width:1px;stroke-linecap:butt;stroke-linejoin:miter;stroke-opacity:1"
       xml:space="preserve"><tspan
         y="138.23114"
         x="625.84479"
         id="tspan4720"
         sodipodi:role="line">α</tspan></text>
    <text
       xml:space="preserve"
       style="font-style:normal;font-weight:normal;font-size:12.11257648px;line-height:125%;font-family:sans-serif;letter-spacing:0px;word-spacing:0px;fill:#000000;fill-opacity:1;stroke:none;stroke-width:1px;stroke-linecap:butt;stroke-linejoin:miter;stroke-opacity:1"
       x="623.93231"
       y="145.52348"
       id="text4726"
       sodipodi:linespacing="125%"
       transform="scale(1.0196703,0.98070915)"><tspan
         sodipodi:role="line"
         id="tspan4728"
         x="623.93231"
         y="145.52348">1</tspan></text>
  </g>
  <g
     id="g4744"
     transform="translate(-207.16584,208.15825)">
    <text
       xml:space="preserve"
       style="font-style:normal;font-weight:normal;font-size:17.5px;line-height:125%;font-family:sans-serif;letter-spacing:0px;word-spacing:0px;fill:#000000;fill-opacity:1;stroke:none;stroke-width:1px;stroke-linecap:butt;stroke-linejoin:miter;stroke-opacity:1"
       x="758.83911"
       y="101.72352"
       id="text4736"
       sodipodi:linespacing="125%"><tspan
         sodipodi:role="line"
         id="tspan4738"
         x="758.83911"
         y="101.72352">α</tspan></text>
    <text
       transform="scale(1.0196703,0.98070915)"
       sodipodi:linespacing="125%"
       id="text4740"
       y="108.29775"
       x="754.36121"
       style="font-style:normal;font-weight:normal;font-size:12.11257648px;line-height:125%;font-family:sans-serif;letter-spacing:0px;word-spacing:0px;fill:#000000;fill-opacity:1;stroke:none;stroke-width:1px;stroke-linecap:butt;stroke-linejoin:miter;stroke-opacity:1"
       xml:space="preserve"><tspan
         y="108.29775"
         x="754.36121"
         id="tspan4742"
         sodipodi:role="line">2</tspan></text>
  </g>
  <path
     transform="matrix(-0.50137957,0.86522744,-0.86522744,-0.50137957,0,0)"
     d="m -105.29384,-623.73311 a 37.324203,37.324203 0 0 1 -9.05405,10.14274"
     sodipodi:open="true"
     sodipodi:end="0.91190266"
     sodipodi:start="0.54559062"
     sodipodi:ry="37.324203"
     sodipodi:rx="37.324203"
     sodipodi:cy="-643.1015"
     sodipodi:cx="-137.19936"
     sodipodi:type="arc"
     id="path4750"
     style="fill:none;stroke:#808080;stroke-width:1.5;stroke-miterlimit:4;stroke-dasharray:none;stroke-dashoffset:0" />
  <g
     transform="matrix(0.81393107,0,0,0.81724828,-47.535989,135.92649)"
     id="g4752">
    <text
       sodipodi:linespacing="125%"
       id="text4754"
       y="101.72352"
       x="758.83911"
       style="font-style:normal;font-weight:normal;font-size:17.5px;line-height:125%;font-family:sans-serif;letter-spacing:0px;word-spacing:0px;fill:#000000;fill-opacity:1;stroke:none;stroke-width:1px;stroke-linecap:butt;stroke-linejoin:miter;stroke-opacity:1"
       xml:space="preserve"><tspan
         y="101.72352"
         x="758.83911"
         id="tspan4756"
         sodipodi:role="line">α</tspan></text>
    <text
       xml:space="preserve"
       style="font-style:normal;font-weight:normal;font-size:12.11257648px;line-height:125%;font-family:sans-serif;letter-spacing:0px;word-spacing:0px;fill:#000000;fill-opacity:1;stroke:none;stroke-width:1px;stroke-linecap:butt;stroke-linejoin:miter;stroke-opacity:1"
       x="754.36121"
       y="108.29775"
       id="text4758"
       sodipodi:linespacing="125%"
       transform="scale(1.0196703,0.98070915)"><tspan
         sodipodi:role="line"
         id="tspan4760"
         x="754.36121"
         y="108.29775">2</tspan></text>
  </g>
  <path
     style="fill:none;stroke:#808080;stroke-width:1.5;stroke-miterlimit:4;stroke-dasharray:none;stroke-dashoffset:0"
     id="path4768"
     sodipodi:type="arc"
     sodipodi:cx="465.97647"
     sodipodi:cy="-173.89798"
     sodipodi:rx="37.324203"
     sodipodi:ry="37.324203"
     sodipodi:start="6.1493819"
     sodipodi:end="0.42114322"
     sodipodi:open="true"
     d="m 502.96706,-178.8772 a 37.324203,37.324203 0 0 1 -2.92769,20.23751"
     transform="matrix(0.99841857,0.05621714,0.05621714,-0.99841857,0,0)" />
  <g
     id="g4770"
     transform="matrix(0.79192409,0,0,0.84335559,-1.118789,82.737292)">
    <text
       xml:space="preserve"
       style="font-style:normal;font-weight:normal;font-size:17.5px;line-height:125%;font-family:sans-serif;letter-spacing:0px;word-spacing:0px;fill:#000000;fill-opacity:1;stroke:none;stroke-width:1px;stroke-linecap:butt;stroke-linejoin:miter;stroke-opacity:1"
       x="625.84479"
       y="138.23114"
       id="text4772"
       sodipodi:linespacing="125%"><tspan
         sodipodi:role="line"
         id="tspan4774"
         x="625.84479"
         y="138.23114">α</tspan></text>
    <text
       transform="scale(1.0196703,0.98070915)"
       sodipodi:linespacing="125%"
       id="text4776"
       y="145.52348"
       x="623.93231"
       style="font-style:normal;font-weight:normal;font-size:12.11257648px;line-height:125%;font-family:sans-serif;letter-spacing:0px;word-spacing:0px;fill:#000000;fill-opacity:1;stroke:none;stroke-width:1px;stroke-linecap:butt;stroke-linejoin:miter;stroke-opacity:1"
       xml:space="preserve"><tspan
         y="145.52348"
         x="623.93231"
         id="tspan4778"
         sodipodi:role="line">1</tspan></text>
  </g>
</svg>
