<?xml version="1.0" standalone="no"?>
<!DOCTYPE svg PUBLIC "-//W3C//DTD SVG 20000303 Stylable//EN"
             "http://www.w3.org/TR/2000/03/WD-SVG-20000303/DTD/svg-20000303-stylable.dtd">
<!-- Creator: fig2dev Version 3.2 Patchlevel 4 -->
<!-- CreationDate: Tue Nov 14 22:00:08 2006 -->
<svg xmlns="http://www.w3.org/2000/svg" width="11.7in" height="8.3in" viewBox="0 0 20157 13858">
<g style="stroke-width:.025in; stroke:black; fill:none">
<defs>
<pattern id="tile1" x="0" y="0" width="200" height="200"
         patternUnits="userSpaceOnUse">
<path d="M 0 -100 200 16" />
<path d="M 0 -60 200 56" />
<path d="M 0 -20 200 96" />
<path d="M 0 20 200 136" />
<path d="M 0 60 200 176" />
<path d="M 0 100 200 216" />
<path d="M 0 140 200 256" />
<path d="M 0 180 200 296" />
</pattern>
<pattern id="tile2" x="0" y="0" width="200" height="200"
         patternUnits="userSpaceOnUse">
<path d="M 200 -100 0 16" />
<path d="M 200 -60 0 56" />
<path d="M 200 -20 0 96" />
<path d="M 200 20 0 136" />
<path d="M 200 60 0 176" />
<path d="M 200 100 0 216" />
<path d="M 200 140 0 256" />
<path d="M 200 180 0 296" />
</pattern>
<pattern id="tile3" x="0" y="0" width="200" height="200"
         patternUnits="userSpaceOnUse">
<path d="M 0 -100 200 16" />
<path d="M 200 -100 0 16" />
<path d="M 0 -60 200 56" />
<path d="M 200 -60 0 56" />
<path d="M 0 -20 200 96" />
<path d="M 200 -20 0 96" />
<path d="M 0 20 200 136" />
<path d="M 200 20 0 136" />
<path d="M 0 60 200 176" />
<path d="M 200 60 0 176" />
<path d="M 0 100 200 216" />
<path d="M 200 100 0 216" />
<path d="M 0 140 200 256" />
<path d="M 200 140 0 256" />
<path d="M 0 180 200 296" />
<path d="M 200 180 0 296" />
</pattern>
<pattern id="tile4" x="0" y="0" width="200" height="200"
         patternUnits="userSpaceOnUse">
<path d="M 100 0 200 100" />
<path d="M 0 0 200 200" />
<path d="M 0 100 100 200" />
</pattern>
<pattern id="tile5" x="0" y="0" width="200" height="200"
         patternUnits="userSpaceOnUse">
<path d="M 100 0 0 100" />
<path d="M 200 0 0 200" />
<path d="M 200 100 100 200" />
</pattern>
<pattern id="tile6" x="0" y="0" width="200" height="200"
         patternUnits="userSpaceOnUse">
<path d="M 100 0 200 100" />
<path d="M 0 0 200 200" />
<path d="M 0 100 100 200" />
<path d="M 100 0 0 100" />
<path d="M 200 0 0 200" />
<path d="M 200 100 100 200" />
</pattern>
<pattern id="tile7" x="0" y="0" width="200" height="200"
         patternUnits="userSpaceOnUse">
<path d="M 0 0 0 50" />
<path d="M 0 50 200 50" />
<path d="M 100 50 100 150" />
<path d="M 0 150 200 150" />
<path d="M 0 150 0 200" />
</pattern>
<pattern id="tile8" x="0" y="0" width="200" height="200"
         patternUnits="userSpaceOnUse">
<path d="M 0 0 50 0" />
<path d="M 50 0 50 200" />
<path d="M 50 100 150 100" />
<path d="M 150 0 150 200" />
<path d="M 150 0 200 0" />
</pattern>
<pattern id="tile9" x="0" y="0" width="200" height="200"
         patternUnits="userSpaceOnUse">
<path d="M 0 50 200 50" />
<path d="M 0 150 200 150" />
</pattern>
<pattern id="tile10" x="0" y="0" width="200" height="200"
         patternUnits="userSpaceOnUse">
<path d="M 50 0 50 200" />
<path d="M 150 0 150 200" />
</pattern>
<pattern id="tile11" x="0" y="0" width="200" height="200"
         patternUnits="userSpaceOnUse">
<path d="M 0 50 200 50" />
<path d="M 0 150 200 150" />
<path d="M 50 0 50 200" />
<path d="M 150 0 150 200" />
</pattern>
<pattern id="tile12" x="0" y="0" width="200" height="200"
         patternUnits="userSpaceOnUse">
<path d="M 0 0 25 50" />
<path d="M 0 50 200 50" />
<path d="M 100 50 125 150" />
<path d="M 0 150 200 150" />
<path d="M 0 150 25 200" />
</pattern>
<pattern id="tile13" x="0" y="0" width="200" height="200"
         patternUnits="userSpaceOnUse">
<path d="M 200 0 175 50" />
<path d="M 0 50 200 50" />
<path d="M 100 50 75 150" />
<path d="M 0 150 200 150" />
<path d="M 200 150 175 200" />
</pattern>
<pattern id="tile14" x="0" y="0" width="200" height="200"
         patternUnits="userSpaceOnUse">
<path d="M 0 0 50 25" />
<path d="M 50 0 50 200" />
<path d="M 50 100 150 125" />
<path d="M 150 0 150 200" />
<path d="M 150 0 200 25" />
</pattern>
<pattern id="tile15" x="0" y="0" width="200" height="200"
         patternUnits="userSpaceOnUse">
<path d="M 0 25 50 0" />
<path d="M 50 0 50 200" />
<path d="M 50 125 150 100" />
<path d="M 150 0 150 200" />
<path d="M 150 25 200 0" />
</pattern>
<pattern id="tile16" x="0" y="0" width="200" height="200"
         patternUnits="userSpaceOnUse">
<path d="M 0 50 A 50 50 0 1 0 100 50" />
<path d="M 100 50 A 50 50 0 1 0 200 50" />
<path d="M 50 100 A 50 50 0 1 0 150 100" />
<path d="M 0 150 A 50 50 0 0 0 50 100" />
<path d="M 150 100 A 50 50 0 1 0 200 50" />
<path d="M 50 0 A 50 50 0 1 0 150 0" />
<path d="M 150 0 A 50 50 0 0 0 200 50" />
<path d="M 0 50 A 50 50 0 0 0 50 0" />
<path d="M 0 150 A 50 50 0 1 0 100 150" />
<path d="M 100 150 A 50 50 0 1 0 200 150" />
</pattern>
<pattern id="tile17" x="0" y="0" width="100" height="100"
         patternUnits="userSpaceOnUse">
<g transform="scale(0.5)" >
<path d="M 0 50 A 50 50 0 1 0 100 50" />
<path d="M 100 50 A 50 50 0 1 0 200 50" />
<path d="M 50 100 A 50 50 0 1 0 150 100" />
<path d="M 0 150 A 50 50 0 0 0 50 100" />
<path d="M 150 100 A 50 50 0 1 0 200 50" />
<path d="M 50 0 A 50 50 0 1 0 150 0" />
<path d="M 150 0 A 50 50 0 0 0 200 50" />
<path d="M 0 50 A 50 50 0 0 0 50 0" />
<path d="M 0 150 A 50 50 0 1 0 100 150" />
<path d="M 100 150 A 50 50 0 1 0 200 150" />
</g>
</pattern>
<pattern id="tile18" x="0" y="0" width="200" height="200"
         patternUnits="userSpaceOnUse">
<circle cx="100" cy="100" r="100" />
</pattern>
<pattern id="tile19" x="0" y="0" width="200" height="200"
         patternUnits="userSpaceOnUse">
<path d="M 0 50 45 0 105 0 140 50 200 50 " />
<path d="M 0 50 45 100 105 100 140 50 200 50" />
<path d="M 0 150 45 100 105 100 140 150 200 150" />
<path d="M 0 150 45 200 105 200 140 150 200 150" />
</pattern>
<pattern id="tile20" x="0" y="0" width="200" height="200"
         patternUnits="userSpaceOnUse">
<path d="M 0 70 65 0 140 0 200 70 " />
<path d="M 0 70 0 130 65 200 140 200 200 130 200 70" />
</pattern>
<pattern id="tile21" x="0" y="0" width="200" height="200"
         patternUnits="userSpaceOnUse">
<path d="M 50 0 75 25 100 0 M 150 0 175 25 200 0" />
<path d="M 0 50 25 25 75 75 125 25 175 75 200 50" />
<path d="M 0 100 25 75 75 125 125 75 175 125 200 100" />
<path d="M 0 150 25 125 75 175 125 125 175 175 200 150" />
<path d="M 0 200 25 175 75 225 125 175 175 225 200 200" />
</pattern>
<pattern id="tile22" x="0" y="0" width="200" height="200"
         patternUnits="userSpaceOnUse">
<path d="M 0 50 25 75 0 100 M 0 150 25 175 0 200" />
<path d="M 50 0 25 25 75 75 25 125 75 175 50 200" />
<path d="M 100 0 75 25 125 75 75 125 125 175 100 200" />
<path d="M 150 0 125 25 175 75 125 125 175 175 150 200" />
<path d="M 200 0 175 25 225 75 175 125 225 175 200 200" />
</pattern>
</defs>
<!-- Text -->
<text x="1503" y="3506" fill="#000000"  font-family="Helvetica" font-style="normal" font-weight="normal" font-size="189" text-anchor="start" >
x</text>
<!-- Text -->
<text x="1622" y="3572" fill="#000000"  font-family="Helvetica" font-style="normal" font-weight="normal" font-size="139" text-anchor="start" >
0</text>
<!-- Text -->
<text x="1539" y="3933" fill="#000000"  font-family="Helvetica" font-style="normal" font-weight="normal" font-size="189" text-anchor="start" >
t</text>
<!-- Text -->
<text x="1610" y="4000" fill="#000000"  font-family="Helvetica" font-style="normal" font-weight="normal" font-size="139" text-anchor="start" >
0</text>
<!-- Line -->
<path d="M 969,1086
969,3186
" style="stroke:#000000;stroke-width:16;
"/>
<!-- Arrowhead on startpoint -->
<path d="M 992 1198
969 1104
944 1198
" style="stroke:#000000;stroke-width:16;
"/>
<!-- Line -->
<path d="M 827,3080
3354,3080
" style="stroke:#000000;stroke-width:16;
"/>
<!-- Arrowhead on endpoint -->
<path d="M 3240 3103
3336 3080
3240 3056
" style="stroke:#000000;stroke-width:16;
"/>
<!-- Line -->
<path d="M 969,3080
3034,1834
" style="stroke:#000000;stroke-width:16;
"/>
<!-- Text -->
<text x="755" y="1229" fill="#000000"  font-family="Helvetica" font-style="normal" font-weight="normal" font-size="189" text-anchor="start" >
x</text>
<!-- Text -->
<text x="3282" y="3329" fill="#000000"  font-family="Helvetica" font-style="normal" font-weight="normal" font-size="189" text-anchor="start" >
t</text>
<!-- Text -->
<text x="1823" y="3542" fill="#000000"  font-family="Helvetica" font-style="normal" font-weight="normal" font-size="189" text-anchor="start" >
=</text>
<!-- Text -->
<text x="2072" y="3542" fill="#000000"  font-family="Helvetica" font-style="normal" font-weight="normal" font-size="189" text-anchor="start" >
0</text>
<!-- Text -->
<text x="2072" y="3969" fill="#000000"  font-family="Helvetica" font-style="normal" font-weight="normal" font-size="189" text-anchor="start" >
0</text>
<!-- Text -->
<text x="1823" y="3969" fill="#000000"  font-family="Helvetica" font-style="normal" font-weight="normal" font-size="189" text-anchor="start" >
=</text>
<!-- Text -->
<text x="1859" y="4361" fill="#000000"  font-family="Helvetica" font-style="normal" font-weight="normal" font-size="189" text-anchor="start" >
></text>
<!-- Text -->
<text x="1574" y="4361" fill="#000000"  font-family="Helvetica" font-style="normal" font-weight="normal" font-size="189" text-anchor="start" >
v</text>
<!-- Text -->
<text x="2072" y="4396" fill="#000000"  font-family="Helvetica" font-style="normal" font-weight="normal" font-size="189" text-anchor="start" >
0</text>
<!-- Text -->
<text x="4716" y="3506" fill="#000000"  font-family="Helvetica" font-style="normal" font-weight="normal" font-size="189" text-anchor="start" >
x</text>
<!-- Text -->
<text x="4834" y="3572" fill="#000000"  font-family="Helvetica" font-style="normal" font-weight="normal" font-size="139" text-anchor="start" >
0</text>
<!-- Text -->
<text x="4751" y="3933" fill="#000000"  font-family="Helvetica" font-style="normal" font-weight="normal" font-size="189" text-anchor="start" >
t</text>
<!-- Text -->
<text x="4823" y="4000" fill="#000000"  font-family="Helvetica" font-style="normal" font-weight="normal" font-size="139" text-anchor="start" >
0</text>
<!-- Text -->
<text x="8023" y="3506" fill="#000000"  font-family="Helvetica" font-style="normal" font-weight="normal" font-size="189" text-anchor="start" >
x</text>
<!-- Text -->
<text x="8141" y="3572" fill="#000000"  font-family="Helvetica" font-style="normal" font-weight="normal" font-size="139" text-anchor="start" >
0</text>
<!-- Text -->
<text x="8058" y="3933" fill="#000000"  font-family="Helvetica" font-style="normal" font-weight="normal" font-size="189" text-anchor="start" >
t</text>
<!-- Text -->
<text x="8130" y="4000" fill="#000000"  font-family="Helvetica" font-style="normal" font-weight="normal" font-size="139" text-anchor="start" >
0</text>
<!-- Text -->
<text x="11330" y="3506" fill="#000000"  font-family="Helvetica" font-style="normal" font-weight="normal" font-size="189" text-anchor="start" >
x</text>
<!-- Text -->
<text x="11448" y="3572" fill="#000000"  font-family="Helvetica" font-style="normal" font-weight="normal" font-size="139" text-anchor="start" >
0</text>
<!-- Text -->
<text x="11365" y="3933" fill="#000000"  font-family="Helvetica" font-style="normal" font-weight="normal" font-size="189" text-anchor="start" >
t</text>
<!-- Text -->
<text x="11437" y="4000" fill="#000000"  font-family="Helvetica" font-style="normal" font-weight="normal" font-size="139" text-anchor="start" >
0</text>
<!-- Text -->
<text x="4716" y="7664" fill="#000000"  font-family="Helvetica" font-style="normal" font-weight="normal" font-size="189" text-anchor="start" >
x</text>
<!-- Text -->
<text x="4834" y="7730" fill="#000000"  font-family="Helvetica" font-style="normal" font-weight="normal" font-size="139" text-anchor="start" >
0</text>
<!-- Text -->
<text x="4751" y="8091" fill="#000000"  font-family="Helvetica" font-style="normal" font-weight="normal" font-size="189" text-anchor="start" >
t</text>
<!-- Text -->
<text x="4823" y="8157" fill="#000000"  font-family="Helvetica" font-style="normal" font-weight="normal" font-size="139" text-anchor="start" >
0</text>
<!-- Text -->
<text x="8023" y="7664" fill="#000000"  font-family="Helvetica" font-style="normal" font-weight="normal" font-size="189" text-anchor="start" >
x</text>
<!-- Text -->
<text x="8141" y="7730" fill="#000000"  font-family="Helvetica" font-style="normal" font-weight="normal" font-size="139" text-anchor="start" >
0</text>
<!-- Text -->
<text x="8058" y="8091" fill="#000000"  font-family="Helvetica" font-style="normal" font-weight="normal" font-size="189" text-anchor="start" >
t</text>
<!-- Text -->
<text x="8130" y="8157" fill="#000000"  font-family="Helvetica" font-style="normal" font-weight="normal" font-size="139" text-anchor="start" >
0</text>
<!-- Text -->
<text x="11330" y="7664" fill="#000000"  font-family="Helvetica" font-style="normal" font-weight="normal" font-size="189" text-anchor="start" >
x</text>
<!-- Text -->
<text x="11448" y="7730" fill="#000000"  font-family="Helvetica" font-style="normal" font-weight="normal" font-size="139" text-anchor="start" >
0</text>
<!-- Text -->
<text x="11365" y="8091" fill="#000000"  font-family="Helvetica" font-style="normal" font-weight="normal" font-size="189" text-anchor="start" >
t</text>
<!-- Text -->
<text x="11437" y="8157" fill="#000000"  font-family="Helvetica" font-style="normal" font-weight="normal" font-size="139" text-anchor="start" >
0</text>
<!-- Text -->
<text x="1503" y="7664" fill="#000000"  font-family="Helvetica" font-style="normal" font-weight="normal" font-size="189" text-anchor="start" >
x</text>
<!-- Text -->
<text x="1622" y="7730" fill="#000000"  font-family="Helvetica" font-style="normal" font-weight="normal" font-size="139" text-anchor="start" >
0</text>
<!-- Text -->
<text x="1539" y="8091" fill="#000000"  font-family="Helvetica" font-style="normal" font-weight="normal" font-size="189" text-anchor="start" >
t</text>
<!-- Text -->
<text x="1610" y="8157" fill="#000000"  font-family="Helvetica" font-style="normal" font-weight="normal" font-size="139" text-anchor="start" >
0</text>
<!-- Text -->
<text x="2018" y="5468" fill="#000000"  font-family="Helvetica" font-style="normal" font-weight="normal" font-size="252" text-anchor="start" >
(e)</text>
<!-- Text -->
<text x="5257" y="5468" fill="#000000"  font-family="Helvetica" font-style="normal" font-weight="normal" font-size="252" text-anchor="start" >
(f)</text>
<!-- Text -->
<text x="8587" y="5468" fill="#000000"  font-family="Helvetica" font-style="normal" font-weight="normal" font-size="252" text-anchor="start" >
(g)</text>
<!-- Text -->
<text x="11692" y="5468" fill="#000000"  font-family="Helvetica" font-style="normal" font-weight="normal" font-size="252" text-anchor="start" >
(h)</text>
<!-- Text -->
<text x="1883" y="1283" fill="#000000"  font-family="Helvetica" font-style="normal" font-weight="normal" font-size="252" text-anchor="start" >
(a)</text>
<!-- Text -->
<text x="5257" y="1283" fill="#000000"  font-family="Helvetica" font-style="normal" font-weight="normal" font-size="252" text-anchor="start" >
(b)</text>
<!-- Text -->
<text x="8497" y="1283" fill="#000000"  font-family="Helvetica" font-style="normal" font-weight="normal" font-size="252" text-anchor="start" >
(c)</text>
<!-- Text -->
<text x="11737" y="1283" fill="#000000"  font-family="Helvetica" font-style="normal" font-weight="normal" font-size="252" text-anchor="start" >
(d)</text>
<!-- Line -->
<path d="M 4181,1086
4181,3186
" style="stroke:#000000;stroke-width:16;
"/>
<!-- Arrowhead on startpoint -->
<path d="M 4204 1198
4181 1104
4157 1198
" style="stroke:#000000;stroke-width:16;
"/>
<!-- Line -->
<path d="M 4039,3080
6566,3080
" style="stroke:#000000;stroke-width:16;
"/>
<!-- Arrowhead on endpoint -->
<path d="M 6453 3103
6549 3080
6453 3056
" style="stroke:#000000;stroke-width:16;
"/>
<!-- Line -->
<path d="M 4184,1528
6200,2312
" style="stroke:#000000;stroke-width:16;
"/>
<!-- Line -->
<path d="M 7488,1086
7488,3186
" style="stroke:#000000;stroke-width:16;
"/>
<!-- Arrowhead on startpoint -->
<path d="M 7511 1198
7488 1104
7464 1198
" style="stroke:#000000;stroke-width:16;
"/>
<!-- Line -->
<path d="M 7346,3080
9874,3080
" style="stroke:#000000;stroke-width:16;
"/>
<!-- Arrowhead on endpoint -->
<path d="M 9760 3103
9856 3080
9760 3056
" style="stroke:#000000;stroke-width:16;
"/>
<!-- Line -->
<path d="M 7487,2341
9553,1834
" style="stroke:#000000;stroke-width:16;
"/>
<!-- Line -->
<path d="M 10795,1086
10795,3186
" style="stroke:#000000;stroke-width:16;
"/>
<!-- Arrowhead on startpoint -->
<path d="M 10818 1198
10795 1104
10771 1198
" style="stroke:#000000;stroke-width:16;
"/>
<!-- Line -->
<path d="M 10654,3080
13181,3080
" style="stroke:#000000;stroke-width:16;
"/>
<!-- Arrowhead on endpoint -->
<path d="M 13067 3103
13163 3080
13067 3056
" style="stroke:#000000;stroke-width:16;
"/>
<!-- Line -->
<path d="M 11351,3082
12860,1834
" style="stroke:#000000;stroke-width:16;
"/>
<!-- Line -->
<path d="M 4181,5244
4181,7343
" style="stroke:#000000;stroke-width:16;
"/>
<!-- Arrowhead on startpoint -->
<path d="M 4204 5356
4181 5261
4157 5356
" style="stroke:#000000;stroke-width:16;
"/>
<!-- Line -->
<path d="M 4039,7237
6566,7237
" style="stroke:#000000;stroke-width:16;
"/>
<!-- Arrowhead on endpoint -->
<path d="M 6453 7260
6549 7237
6453 7213
" style="stroke:#000000;stroke-width:16;
"/>
<!-- Line -->
<path d="M 4184,6050
6368,6050
" style="stroke:#000000;stroke-width:16;
"/>
<!-- Line -->
<path d="M 7488,5244
7488,7343
" style="stroke:#000000;stroke-width:16;
"/>
<!-- Arrowhead on startpoint -->
<path d="M 7511 5356
7488 5261
7464 5356
" style="stroke:#000000;stroke-width:16;
"/>
<!-- Line -->
<path d="M 7025,7239
9874,7237
" style="stroke:#000000;stroke-width:16;
"/>
<!-- Arrowhead on endpoint -->
<path d="M 9760 7260
9856 7237
9760 7213
" style="stroke:#000000;stroke-width:16;
"/>
<!-- Line -->
<path d="M 7124,7239
9553,5991
" style="stroke:#000000;stroke-width:16;
"/>
<!-- Line -->
<path d="M 10795,5244
10791,7688
" style="stroke:#000000;stroke-width:16;
"/>
<!-- Arrowhead on startpoint -->
<path d="M 10818 5356
10795 5261
10771 5356
" style="stroke:#000000;stroke-width:16;
"/>
<!-- Line -->
<path d="M 10654,7237
13181,7237
" style="stroke:#000000;stroke-width:16;
"/>
<!-- Arrowhead on endpoint -->
<path d="M 13067 7260
13163 7237
13067 7213
" style="stroke:#000000;stroke-width:16;
"/>
<!-- Line -->
<path d="M 10791,7562
12860,5991
" style="stroke:#000000;stroke-width:16;
"/>
<!-- Line -->
<path d="M 969,5244
969,7343
" style="stroke:#000000;stroke-width:16;
"/>
<!-- Arrowhead on startpoint -->
<path d="M 992 5356
969 5261
944 5356
" style="stroke:#000000;stroke-width:16;
"/>
<!-- Line -->
<path d="M 827,7237
3354,7237
" style="stroke:#000000;stroke-width:16;
"/>
<!-- Arrowhead on endpoint -->
<path d="M 3240 7260
3336 7237
3240 7213
" style="stroke:#000000;stroke-width:16;
"/>
<!-- Line -->
<path d="M 1384,5756
2966,6582
" style="stroke:#000000;stroke-width:16;
"/>
<!-- Text -->
<text x="3968" y="1229" fill="#000000"  font-family="Helvetica" font-style="normal" font-weight="normal" font-size="189" text-anchor="start" >
x</text>
<!-- Text -->
<text x="6495" y="3329" fill="#000000"  font-family="Helvetica" font-style="normal" font-weight="normal" font-size="189" text-anchor="start" >
t</text>
<!-- Text -->
<text x="5285" y="3542" fill="#000000"  font-family="Helvetica" font-style="normal" font-weight="normal" font-size="189" text-anchor="start" >
0</text>
<!-- Text -->
<text x="5285" y="3969" fill="#000000"  font-family="Helvetica" font-style="normal" font-weight="normal" font-size="189" text-anchor="start" >
0</text>
<!-- Text -->
<text x="4787" y="4361" fill="#000000"  font-family="Helvetica" font-style="normal" font-weight="normal" font-size="189" text-anchor="start" >
v</text>
<!-- Text -->
<text x="5285" y="4396" fill="#000000"  font-family="Helvetica" font-style="normal" font-weight="normal" font-size="189" text-anchor="start" >
0</text>
<!-- Text -->
<text x="7275" y="1229" fill="#000000"  font-family="Helvetica" font-style="normal" font-weight="normal" font-size="189" text-anchor="start" >
x</text>
<!-- Text -->
<text x="9802" y="3329" fill="#000000"  font-family="Helvetica" font-style="normal" font-weight="normal" font-size="189" text-anchor="start" >
t</text>
<!-- Text -->
<text x="8592" y="3542" fill="#000000"  font-family="Helvetica" font-style="normal" font-weight="normal" font-size="189" text-anchor="start" >
0</text>
<!-- Text -->
<text x="8592" y="3969" fill="#000000"  font-family="Helvetica" font-style="normal" font-weight="normal" font-size="189" text-anchor="start" >
0</text>
<!-- Text -->
<text x="8094" y="4361" fill="#000000"  font-family="Helvetica" font-style="normal" font-weight="normal" font-size="189" text-anchor="start" >
v</text>
<!-- Text -->
<text x="8592" y="4396" fill="#000000"  font-family="Helvetica" font-style="normal" font-weight="normal" font-size="189" text-anchor="start" >
0</text>
<!-- Text -->
<text x="10582" y="1229" fill="#000000"  font-family="Helvetica" font-style="normal" font-weight="normal" font-size="189" text-anchor="start" >
x</text>
<!-- Text -->
<text x="13109" y="3329" fill="#000000"  font-family="Helvetica" font-style="normal" font-weight="normal" font-size="189" text-anchor="start" >
t</text>
<!-- Text -->
<text x="11899" y="3542" fill="#000000"  font-family="Helvetica" font-style="normal" font-weight="normal" font-size="189" text-anchor="start" >
0</text>
<!-- Text -->
<text x="11899" y="3969" fill="#000000"  font-family="Helvetica" font-style="normal" font-weight="normal" font-size="189" text-anchor="start" >
0</text>
<!-- Text -->
<text x="11401" y="4361" fill="#000000"  font-family="Helvetica" font-style="normal" font-weight="normal" font-size="189" text-anchor="start" >
v</text>
<!-- Text -->
<text x="11899" y="4396" fill="#000000"  font-family="Helvetica" font-style="normal" font-weight="normal" font-size="189" text-anchor="start" >
0</text>
<!-- Text -->
<text x="3968" y="5386" fill="#000000"  font-family="Helvetica" font-style="normal" font-weight="normal" font-size="189" text-anchor="start" >
x</text>
<!-- Text -->
<text x="6495" y="7486" fill="#000000"  font-family="Helvetica" font-style="normal" font-weight="normal" font-size="189" text-anchor="start" >
t</text>
<!-- Text -->
<text x="5285" y="7699" fill="#000000"  font-family="Helvetica" font-style="normal" font-weight="normal" font-size="189" text-anchor="start" >
0</text>
<!-- Text -->
<text x="5285" y="8127" fill="#000000"  font-family="Helvetica" font-style="normal" font-weight="normal" font-size="189" text-anchor="start" >
0</text>
<!-- Text -->
<text x="4787" y="8518" fill="#000000"  font-family="Helvetica" font-style="normal" font-weight="normal" font-size="189" text-anchor="start" >
v</text>
<!-- Text -->
<text x="5285" y="8554" fill="#000000"  font-family="Helvetica" font-style="normal" font-weight="normal" font-size="189" text-anchor="start" >
0</text>
<!-- Text -->
<text x="7275" y="5386" fill="#000000"  font-family="Helvetica" font-style="normal" font-weight="normal" font-size="189" text-anchor="start" >
x</text>
<!-- Text -->
<text x="9802" y="7486" fill="#000000"  font-family="Helvetica" font-style="normal" font-weight="normal" font-size="189" text-anchor="start" >
t</text>
<!-- Text -->
<text x="8592" y="7699" fill="#000000"  font-family="Helvetica" font-style="normal" font-weight="normal" font-size="189" text-anchor="start" >
0</text>
<!-- Text -->
<text x="8592" y="8127" fill="#000000"  font-family="Helvetica" font-style="normal" font-weight="normal" font-size="189" text-anchor="start" >
0</text>
<!-- Text -->
<text x="8094" y="8518" fill="#000000"  font-family="Helvetica" font-style="normal" font-weight="normal" font-size="189" text-anchor="start" >
v</text>
<!-- Text -->
<text x="8592" y="8554" fill="#000000"  font-family="Helvetica" font-style="normal" font-weight="normal" font-size="189" text-anchor="start" >
0</text>
<!-- Text -->
<text x="10582" y="5386" fill="#000000"  font-family="Helvetica" font-style="normal" font-weight="normal" font-size="189" text-anchor="start" >
x</text>
<!-- Text -->
<text x="13109" y="7486" fill="#000000"  font-family="Helvetica" font-style="normal" font-weight="normal" font-size="189" text-anchor="start" >
t</text>
<!-- Text -->
<text x="11899" y="7699" fill="#000000"  font-family="Helvetica" font-style="normal" font-weight="normal" font-size="189" text-anchor="start" >
0</text>
<!-- Text -->
<text x="11899" y="8127" fill="#000000"  font-family="Helvetica" font-style="normal" font-weight="normal" font-size="189" text-anchor="start" >
0</text>
<!-- Text -->
<text x="11401" y="8518" fill="#000000"  font-family="Helvetica" font-style="normal" font-weight="normal" font-size="189" text-anchor="start" >
v</text>
<!-- Text -->
<text x="11899" y="8554" fill="#000000"  font-family="Helvetica" font-style="normal" font-weight="normal" font-size="189" text-anchor="start" >
0</text>
<!-- Text -->
<text x="755" y="5386" fill="#000000"  font-family="Helvetica" font-style="normal" font-weight="normal" font-size="189" text-anchor="start" >
x</text>
<!-- Text -->
<text x="3282" y="7486" fill="#000000"  font-family="Helvetica" font-style="normal" font-weight="normal" font-size="189" text-anchor="start" >
t</text>
<!-- Text -->
<text x="2072" y="7699" fill="#000000"  font-family="Helvetica" font-style="normal" font-weight="normal" font-size="189" text-anchor="start" >
0</text>
<!-- Text -->
<text x="2072" y="8127" fill="#000000"  font-family="Helvetica" font-style="normal" font-weight="normal" font-size="189" text-anchor="start" >
0</text>
<!-- Text -->
<text x="1574" y="8518" fill="#000000"  font-family="Helvetica" font-style="normal" font-weight="normal" font-size="189" text-anchor="start" >
v</text>
<!-- Text -->
<text x="2072" y="8554" fill="#000000"  font-family="Helvetica" font-style="normal" font-weight="normal" font-size="189" text-anchor="start" >
0</text>
</g>
</svg>
