<?xml version="1.0" encoding="UTF-8" standalone="no"?>
<!-- Created with Inkscape (http://www.inkscape.org/) -->
<svg xmlns:dc="http://purl.org/dc/elements/1.1/" xmlns:cc="http://creativecommons.org/ns#" xmlns:rdf="http://www.w3.org/1999/02/22-rdf-syntax-ns#" xmlns:svg="http://www.w3.org/2000/svg" xmlns="http://www.w3.org/2000/svg" xmlns:xlink="http://www.w3.org/1999/xlink" xmlns:sodipodi="http://sodipodi.sourceforge.net/DTD/sodipodi-0.dtd" xmlns:inkscape="http://www.inkscape.org/namespaces/inkscape" version="1.0" width="574.1438" height="234.24242" id="svg40912" sodipodi:version="0.32" inkscape:version="0.46" sodipodi:docname="a380_2_0.svg" inkscape:output_extension="org.inkscape.output.svg.inkscape">
  <metadata id="metadata2828">
    <rdf:RDF>
      <cc:Work rdf:about="">
        <dc:format>image/svg+xml</dc:format>
        <dc:type rdf:resource="http://purl.org/dc/dcmitype/StillImage"/>
        <dc:title>AIRBUS A380</dc:title>
        <dc:date>2006-02-15</dc:date>
        <dc:creator>
          <cc:Agent>
            <dc:title>Ph. RICHARD</dc:title>
          </cc:Agent>
        </dc:creator>
        <dc:rights>
          <cc:Agent>
            <dc:title>Ph. RICHARD</dc:title>
          </cc:Agent>
        </dc:rights>
        <dc:subject>
          <rdf:Bag>
            <rdf:li>a380</rdf:li>
            <rdf:li>airbus</rdf:li>
            <rdf:li>airplane</rdf:li>
            <rdf:li>plane</rdf:li>
            <rdf:li>aircraft</rdf:li>
            <rdf:li>landing</rdf:li>
            <rdf:li>aviation</rdf:li>
            <rdf:li>fly</rdf:li>
            <rdf:li>flight</rdf:li>
            <rdf:li>jet</rdf:li>
          </rdf:Bag>
        </dc:subject>
        <cc:license rdf:resource="http://creativecommons.org/licenses/publicdomain/"/>
      </cc:Work>
      <cc:License rdf:about="http://creativecommons.org/licenses/publicdomain/">
        <cc:permits rdf:resource="http://creativecommons.org/ns#Reproduction"/>
        <cc:permits rdf:resource="http://creativecommons.org/ns#Distribution"/>
        <cc:permits rdf:resource="http://creativecommons.org/ns#DerivativeWorks"/>
      </cc:License>
    </rdf:RDF>
  </metadata>
  <sodipodi:namedview inkscape:window-height="688" inkscape:window-width="1064" inkscape:pageshadow="2" inkscape:pageopacity="0.0" guidetolerance="10.0" gridtolerance="10.0" objecttolerance="10.0" borderopacity="1.0" bordercolor="#666666" pagecolor="#ffffff" id="base" showgrid="false" inkscape:zoom="1.43" inkscape:cx="290.44216" inkscape:cy="114.52169" inkscape:window-x="29" inkscape:window-y="25" inkscape:current-layer="svg40912"/>
  <defs id="defs3">
    <inkscape:perspective sodipodi:type="inkscape:persp3d" inkscape:vp_x="0 : 526.18109 : 1" inkscape:vp_y="0 : 1000 : 0" inkscape:vp_z="744.09448 : 526.18109 : 1" inkscape:persp3d-origin="372.04724 : 350.78739 : 1" id="perspective2830"/>
  </defs>
  <g style="display:inline" id="layer4" transform="matrix(2.2902495,0,0,2.2902495,-164.65297,-200.48262)">
    <g transform="matrix(0.25,0,0,0.25,65.9287,49.0074)" id="g12219">
      <path d="M 702.02361,418.17109 L 729.59826,421.78744 L 803.28136,491.40215 L 789.26801,499.99097 L 846.2255,546.09941 C 846.2255,546.09941 876.06037,536.6065 881.48489,531.18198 C 886.90941,525.75746 889.62167,520.78498 889.62167,520.78498 L 848.93776,382.00761 L 841.70506,325.05013" style="fill:#7f8aa0;fill-opacity:1;fill-rule:evenodd;stroke:#000000;stroke-width:1px;stroke-linecap:butt;stroke-linejoin:miter;stroke-opacity:1" id="path55283"/>
      <path d="M 653.65495,446.64984 L 682.13369,416.81496 L 728.24213,424.4997 L 699.76339,456.59479 L 653.65495,446.64984 z" style="fill:#738d9c;fill-opacity:1;fill-rule:evenodd;stroke:#000000;stroke-width:1px;stroke-linecap:butt;stroke-linejoin:miter;stroke-opacity:1" id="path55285"/>
      <path d="M 702.9277,457.49888 L 730.50235,425.85583 L 763.04949,457.95093 L 739.54322,478.74493 L 702.9277,457.49888 z" style="fill:#738d9c;fill-opacity:1;fill-rule:evenodd;stroke:#000000;stroke-width:1px;stroke-linecap:butt;stroke-linejoin:miter;stroke-opacity:1" id="path55287"/>
      <path d="M 764.40562,459.30706 L 741.80344,479.64902 L 785.65166,508.5798 L 800.11706,491.85419 L 764.40562,459.30706 z" style="fill:#738d9c;fill-opacity:1;fill-rule:evenodd;stroke:#000000;stroke-width:1px;stroke-linecap:butt;stroke-linejoin:miter;stroke-opacity:1" id="path55289"/>
      <path d="M 789.99557,389.86258 C 789.99557,389.86258 771.90832,410.17596 763.56036,416.57606 C 755.21239,422.97617 740.18606,431.88066 740.18606,431.88066 C 740.18606,431.88066 721.26401,449.13312 716.25523,452.47231 C 711.24645,455.81149 688.15042,465.55078 688.15042,465.55078 L 683.97644,458.03761 C 683.97644,458.03761 693.994,441.61995 699.55931,436.61118 C 705.12461,431.6024 730.1685,414.62821 730.1685,414.62821 L 760.49944,403.49759 L 789.99557,389.86258 z" style="fill:#56647f;fill-opacity:1;fill-rule:evenodd;stroke:#000000;stroke-width:1px;stroke-linecap:butt;stroke-linejoin:miter;stroke-opacity:1" id="path55291"/>
      <path d="M 779.8696,415.91448 C 779.8696,415.91448 763.53577,433.06866 757.94371,438.07474 C 753.1952,446.03323 752.52777,447.13867 746.92543,452.15466 C 739.77574,458.55605 733.82834,462.27516 730.4731,464.88704 C 727.11786,467.49889 712.49006,476.38215 712.49006,476.38215 L 708.85049,469.24014 C 708.85049,469.24014 715.56095,458.08554 719.28899,454.16774 C 723.01702,450.24993 739.79319,435.28585 739.79319,435.28585 L 751.67557,426.57961 L 779.8696,415.91448 z" style="fill:#56647f;fill-opacity:1;fill-rule:evenodd;stroke:#000000;stroke-width:0.72385401px;stroke-linecap:butt;stroke-linejoin:miter;stroke-opacity:1" id="path55293"/>
      <path d="M 795.86075,433.66131 C 795.86075,433.66131 780.00335,448.55664 773.85241,454.01129 C 768.62932,462.68289 765.78633,467.68333 759.62408,473.14877 C 751.75984,480.12375 745.21805,484.17611 741.52748,487.02203 C 737.83691,489.86791 722.59072,498.70361 722.59072,498.70361 L 719.43096,495.13935 C 719.43096,495.13935 727.23384,478.34577 731.33447,474.07692 C 735.43508,469.80806 749.67017,454.76844 749.67017,454.76844 L 765.27073,442.75145 L 795.86075,433.66131 z" style="fill:#56647f;fill-opacity:1;fill-rule:evenodd;stroke:#000000;stroke-width:0.79244703px;stroke-linecap:butt;stroke-linejoin:miter;stroke-opacity:1" id="path57047"/>
      <path d="M 835.12167,464.41821 C 835.12167,464.41821 815.83544,484.52479 810.24338,489.53087 C 805.49487,497.48936 807.77984,495.6424 802.1775,500.65839 C 795.02781,507.05978 789.08041,510.77889 785.72517,513.39077 C 782.36993,516.00262 767.74213,524.88588 767.74213,524.88588 L 766.21142,522.38336 C 766.21142,522.38336 772.92188,509.1199 776.64992,502.2497 C 779.22927,497.49635 795.04526,483.78958 795.04526,483.78958 L 806.92764,475.08334 L 835.12167,464.41821 z" style="fill:#56647f;fill-opacity:1;fill-rule:evenodd;stroke:#000000;stroke-width:0.72385401px;stroke-linecap:butt;stroke-linejoin:miter;stroke-opacity:1" id="path57049"/>
      <path d="M 827.10801,446.70381 C 827.10801,446.70381 813.76646,458.24584 807.71275,462.53749 C 798.20338,469.27897 796.81378,468.22725 791.21144,473.24324 C 784.06175,479.64463 768.83537,495.59512 765.48013,498.207 C 762.12489,500.81885 744.96646,511.81097 744.96646,511.81097 L 742.59221,508.4649 C 742.59221,508.4649 750.56798,492.24904 754.29602,488.33124 C 758.02405,484.41343 771.00428,469.44935 771.00428,469.44935 L 782.88666,460.74311 L 827.10801,446.70381 z" style="fill:#56647f;fill-opacity:1;fill-rule:evenodd;stroke:#000000;stroke-width:0.72385401px;stroke-linecap:butt;stroke-linejoin:miter;stroke-opacity:1" id="path57051"/>
      <path d="M 849.86963,561.04564 L 845.65192,562.73272 L 844.3866,544.59655 L 851.9785,541.22238 L 864.63164,539.95706 C 864.63164,539.95706 855.77444,545.86186 853.24381,551.34489 C 850.71318,556.82792 850.29141,561.46741 849.86963,561.04564 z" style="fill:#253456;fill-opacity:1;fill-rule:evenodd;stroke:#000000;stroke-width:1px;stroke-linecap:butt;stroke-linejoin:miter;stroke-opacity:1;display:inline" id="path57045"/>
      <path d="M 306.09282,517.47098 L 384.65563,561.28485 C 384.65563,561.28485 412.45478,546.47879 415.17426,540.73766 C 417.89375,534.99653 417.89375,532.27704 415.77859,527.74457 C 413.66344,523.2121 404.90067,497.52811 404.90067,497.52811" style="fill:#7f8aa0;fill-opacity:1;fill-rule:evenodd;stroke:#000000;stroke-width:1px;stroke-linecap:butt;stroke-linejoin:miter;stroke-opacity:1;display:inline" id="path60649"/>
      <path d="M 211.7286,319.2489 L 260.66914,294.25798 L 404.01982,398.7339 L 296.07294,470.23569 L 211.7286,319.2489 z" style="fill:#92a6b9;fill-opacity:1;fill-rule:evenodd;stroke:#000000;stroke-width:1px;stroke-linecap:butt;stroke-linejoin:miter;stroke-opacity:1;display:inline" id="path60651"/>
      <path d="M 251.9375,298.71875 L 211.71875,319.25 L 268.09375,420.15625 L 317.25,456.21875 L 396.53125,403.6875 L 251.9375,298.71875 z" style="fill:#4d6aae;fill-opacity:1;fill-rule:evenodd;stroke:none;stroke-width:1px;stroke-linecap:butt;stroke-linejoin:miter;stroke-opacity:1;display:inline" id="path2360"/>
      <path d="M 311.90625,413.59375 L 304.0625,418.8125 L 298.71875,442.625 L 304.03125,446.53125 L 311.375,442.6875 L 312.25,446.1875 L 319.5,442.1875 L 311.90625,413.59375 z M 308.3125,425.59375 L 310.4375,436.71875 L 305.4375,439.09375 L 308.3125,425.59375 z" style="fill:#92a6b9;fill-opacity:1;fill-rule:evenodd;stroke:none;stroke-width:1px;stroke-linecap:butt;stroke-linejoin:miter;stroke-opacity:1;display:inline" id="path2365"/>
      <path d="M 326.72853,415.03073 L 321.24582,418.17821 C 321.24582,418.17821 320.87787,413.03285 324.29177,408.22811 C 327.03312,404.36992 331.09438,401.7301 334.0388,401.52703 C 336.98321,401.32397 339.01384,403.55767 339.01384,407.11127 C 339.01384,410.66488 336.47556,414.82767 336.47556,414.82767 C 336.47556,414.82767 339.41997,415.13226 339.11538,420.4119 C 338.81078,425.69154 336.78015,429.54975 334.0388,432.49416 C 331.29745,435.43857 328.14997,437.4692 325.61168,437.87533 C 323.10527,438.27636 321.04276,436.96155 320.63663,434.11866 C 320.23051,431.27578 320.5351,430.15893 320.5351,430.15893 L 325.61168,426.5038 C 325.61168,426.5038 325.91627,430.0574 328.2515,429.65127 C 329.70796,429.39797 331.50073,427.0722 331.92703,425.75229 C 332.3327,424.49627 332.61736,422.64559 331.09438,422.23947 C 330.40068,422.05449 328.14997,422.44253 328.14997,422.44253 L 328.14997,417.67055 C 328.14997,417.67055 332.31276,414.9292 332.31276,413.0001 C 332.31276,411.071 331.70357,410.15722 330.68826,410.25875 C 329.67294,410.36028 328.86069,410.66488 328.04843,411.88325 C 327.23618,413.10163 326.72853,415.13226 326.72853,415.03073 z" style="fill:#92a6b9;fill-opacity:1;fill-rule:evenodd;stroke:none;stroke-width:1px;stroke-linecap:butt;stroke-linejoin:miter;stroke-opacity:1;display:inline" id="path2372"/>
      <path d="M 356.59375,390.96875 C 352.28274,391.26668 348.31334,395.25181 347.09375,396.4375 C 345.85086,397.64586 342.09374,401.5663 342.09375,406.46875 C 342.09375,410.92118 344.39228,411.44158 344.8125,411.5 C 344.62536,411.66986 343.10229,413.12882 341.96875,415.0625 C 340.76089,417.12295 340.75855,418.83725 340.6875,420.96875 C 340.61645,423.10025 340.83634,426.5056 345.3125,426.71875 C 349.78866,426.9319 355.10729,422.02919 356.8125,419.96875 C 358.5177,417.9083 360.71579,413.51005 361,409.53125 C 361.2842,405.55244 358.25001,404.40626 358.25,404.40625 C 358.25,404.40625 362.0665,399.62871 362.15625,396.21875 C 362.2273,393.5899 361.2288,391.0398 357.25,390.96875 C 357.1079,390.9663 356.95409,390.96286 356.8125,390.96875 C 356.74392,390.9716 356.66218,390.96402 356.59375,390.96875 z M 353.125,398 C 353.1647,397.99406 353.21135,398.00394 353.25,398 C 353.40268,397.98444 353.55428,397.9889 353.6875,398 C 353.69083,398.00028 353.7126,398.00016 353.71875,398 C 353.72967,398.00564 353.77037,398.02544 353.78125,398.03125 C 353.78398,398.03119 353.8094,398.03144 353.8125,398.03125 C 353.8379,398.03821 353.88158,398.05293 353.90625,398.0625 C 354.61629,398.35873 355.03503,399.73591 354.90625,401.28125 C 354.76415,402.98646 353.14336,404.60329 351.84375,405.25 C 350.96382,405.68787 349.63056,405.67314 349.125,404.875 C 349.07841,404.79802 349.03053,404.71659 349,404.625 C 348.64475,403.55925 348.86879,401.64303 350.21875,400 C 351.30438,398.67867 352.3178,398.12077 353.125,398 z M 352.09375,410.34375 C 352.2587,410.32694 352.41857,410.33176 352.5625,410.34375 C 352.5768,410.34532 352.61089,410.37269 352.625,410.375 C 352.63901,410.37768 352.67368,410.3716 352.6875,410.375 C 352.70122,410.37876 352.73647,410.40178 352.75,410.40625 C 352.78357,410.41831 352.8427,410.42115 352.875,410.4375 C 352.88141,410.44094 352.89989,410.46514 352.90625,410.46875 C 353.59985,410.88359 353.97568,412.29184 353.84375,413.875 C 353.69023,415.71723 351.96655,417.48883 350.5625,418.1875 C 349.63645,418.64832 348.23215,418.64083 347.65625,417.84375 C 347.62147,417.79349 347.59069,417.71278 347.5625,417.65625 C 347.54696,417.62343 347.5132,417.56617 347.5,417.53125 C 347.49685,417.52239 347.503,417.509 347.5,417.5 C 347.1162,416.34861 347.32283,414.27506 348.78125,412.5 C 350.0118,411.00228 351.20303,410.43453 352.09375,410.34375 z" style="fill:#92a6b9;fill-opacity:1;fill-rule:evenodd;stroke:none;stroke-width:1px;stroke-linecap:butt;stroke-linejoin:miter;stroke-opacity:1;display:inline" id="path2375"/>
      <path d="M 371.9375,385.84375 C 369.26886,387.32455 366.98679,390.10099 365.59375,393.5 C 363.81751,397.83405 363,400.48079 363,406.09375 C 362.99999,411.70672 364.06129,415.53125 367.1875,415.53125 C 370.31369,415.53125 376.06689,413.43931 379.40625,408.75 C 382.2541,404.7509 384.08334,399.09541 384.6875,395.09375 L 378.25,390.4375 C 378.4892,391.12794 378.66244,392.06755 378.625,393.1875 C 378.54228,395.66081 377.87799,399.19072 376.75,401.96875 C 375.19638,405.79506 372.14752,408.93708 370.71875,408.1875 C 370.71607,408.18766 370.69037,408.18694 370.6875,408.1875 C 370.6535,408.16441 370.58913,408.115 370.5625,408.09375 C 370.5268,408.06148 370.46774,408.00243 370.4375,407.96875 C 370.41031,407.9369 370.36916,407.87976 370.34375,407.84375 C 369.65718,406.82544 369.62366,404.27097 369.75,401.46875 C 369.9004,398.1332 372.29584,392.31774 373.875,390.59375 C 374.77022,389.61643 375.65339,389.16476 376.34375,389.03125 L 371.9375,385.84375 z" style="fill:#92a6b9;fill-opacity:1;fill-rule:evenodd;stroke:none;stroke-width:1px;stroke-linecap:butt;stroke-linejoin:miter;stroke-opacity:1;display:inline" id="path2383"/>
      <path d="M 253.77808,502.56008 C 331.6924,444.68087 368.42344,416.85433 402.92835,397.93228 C 437.43327,379.01023 813.03694,194.3303 864.84897,171.98075 C 895.01275,158.96935 953.89391,150.83257 969.47678,156.39788 C 985.05964,161.96319 998.41638,169.75462 998.41638,169.75462 C 998.41638,169.75462 1020.4346,175.5289 1024.4688,184.71056 C 1026.88,190.19822 1029.0603,204.65907 1012.4342,225.61668 C 994.71415,247.95317 862.62285,308.88734 862.62285,308.88734 C 862.62285,308.88734 796.95221,362.3143 786.93465,368.99268 C 776.9171,375.67105 665.61092,439.11556 662.27174,441.34169 C 658.93255,443.56781 637.78438,445.79394 617.74927,453.58537 C 597.71416,461.3768 526.4782,471.39436 526.4782,471.39436 C 526.4782,471.39436 494.19941,486.97722 475.27736,490.31641 C 456.35531,493.65559 325.01403,519.25601 317.2226,519.25601 C 309.43116,519.25601 252.66502,522.5952 252.66502,522.5952 L 253.77808,502.56008 z" style="fill:#e6e9f7;fill-opacity:1;fill-rule:evenodd;stroke:#000000;stroke-width:1px;stroke-linecap:butt;stroke-linejoin:miter;stroke-opacity:1;display:inline" id="path42064"/>
      <path d="M 391.90625,404.25 C 370.30895,417.08083 346.3393,434.02191 311.1875,459.9375 C 311.23442,460.05857 311.30508,460.17453 311.375,460.28125 C 315.84992,467.11139 350.93503,490.44351 361.0625,495.625 C 371.10917,500.76515 381.38713,503.35608 391.4375,506.15625 C 427.80436,499.30432 465.76541,491.99176 475.28125,490.3125 C 485.0061,488.59635 498.25796,483.65668 508.84375,479.25 C 501.80927,477.16915 492.74494,474.27284 486.59375,471.59375 C 467.73964,463.38207 434.66652,442.69549 427.25,437.4375 C 411.58341,426.33054 390.72865,410.84462 391.90625,404.25 z" style="fill:#4d6aae;fill-opacity:1;fill-rule:evenodd;stroke:none;stroke-width:1px;stroke-linecap:butt;stroke-linejoin:miter;stroke-opacity:1;display:inline" id="path6011"/>
      <path d="M 958.01577,172.45529 L 958.79419,173.446 L 964.95074,173.446 L 966.4731,172.16276 L 969.62122,166.65256 L 968.77204,165.66185 L 965.51686,165.52032 L 964.38462,166.22797 L 958.01577,172.45529 z" style="fill:#bacbd8;fill-opacity:1;fill-rule:evenodd;stroke:#000000;stroke-width:1px;stroke-linecap:butt;stroke-linejoin:miter;stroke-opacity:1;display:inline" id="path4068"/>
      <path d="M 994.30957,169.55393 L 983.41704,169.55393 L 981.62871,167.1153 L 982.76674,166.13984 L 989.43232,166.30242 L 994.30957,169.55393 z" style="fill:#bacbd8;fill-opacity:1;fill-rule:evenodd;stroke:#000000;stroke-width:1px;stroke-linecap:butt;stroke-linejoin:miter;stroke-opacity:1;display:inline" id="path4070"/>
      <path d="M 970.08588,170.3668 L 970.73618,171.82998 L 978.21463,169.87908 L 978.70236,168.57848 L 978.70236,167.27788 L 977.40176,166.13985 L 972.03678,166.465 L 970.08588,170.3668 z" style="fill:#bacbd8;fill-opacity:1;fill-rule:evenodd;stroke:#000000;stroke-width:1px;stroke-linecap:butt;stroke-linejoin:miter;stroke-opacity:1;display:inline" id="path4945"/>
      <path d="M 910.43121,184.06249 C 909.30632,185.87962 910.81696,209.35458 911.94809,209.84945 C 913.16159,210.38036 925.09913,205.83712 926.20676,204.38868 C 926.69975,203.74401 926.51129,197.60448 926.36967,191.54836 C 926.22804,185.49224 926.13324,179.51953 925.6,179.20847 C 924.68987,178.67756 911.41718,182.46976 910.43121,184.06249 z" style="fill:none;fill-opacity:0.75;fill-rule:evenodd;stroke:#000000;stroke-width:1px;stroke-linecap:butt;stroke-linejoin:miter;stroke-opacity:1;display:inline" id="path4971"/>
      <path d="M 857.64771,249.41324 C 857.64771,249.41324 864.03657,246.13993 864.61958,246.19545 C 865.18269,246.24908 868.90997,252.63102 868.90997,252.63102 C 868.90997,252.63102 873.17304,259.31429 872.98583,260.03194 C 872.82494,260.64868 866.443,264.00054 866.443,264.00054 C 866.443,264.00054 860.34537,267.69101 859.68564,267.43285 C 859.0689,267.19152 855.60978,261.21179 855.60978,261.21179 C 855.60978,261.21179 850.94399,253.86451 851.10488,253.16732 C 851.28935,252.36795 857.64771,249.41324 857.64771,249.41324 z" style="fill:none;fill-opacity:0.75;fill-rule:evenodd;stroke:#000000;stroke-width:1px;stroke-linecap:butt;stroke-linejoin:miter;stroke-opacity:1;display:inline" id="path4975"/>
      <path d="M 816.61494,237.1039 C 816.61494,238.94455 815.85067,240.43669 814.9079,240.43669 C 813.96513,240.43669 813.20086,238.94455 813.20086,237.1039 C 813.20086,235.26325 813.96513,233.77111 814.9079,233.77111 C 815.85067,233.77111 816.61494,235.26325 816.61494,237.1039 L 816.61494,237.1039 z" transform="matrix(0.852676,0,0,0.935623,119.7305,15.67062)" style="fill:#bacbd8;fill-opacity:1;fill-rule:evenodd;stroke:#000000;stroke-width:1;stroke-linecap:round;stroke-miterlimit:4;stroke-dasharray:none;stroke-opacity:1;display:inline" id="path4977"/>
      <use transform="translate(7.153306,-3.414078)" style="display:inline" id="use4981" x="0" y="0" width="1052.3622" height="744.09448" xlink:href="#path4977"/>
      <use transform="translate(6.990731,-3.251503)" style="display:inline" id="use4983" x="0" y="0" width="1052.3622" height="744.09448" xlink:href="#use4981"/>
      <use transform="translate(7.153306,-3.576653)" style="display:inline" id="use4985" x="0" y="0" width="1052.3622" height="744.09448" xlink:href="#use4983"/>
      <use transform="translate(7.315881,-3.251503)" style="display:inline" id="use4987" x="0" y="0" width="1052.3622" height="744.09448" xlink:href="#use4985"/>
      <use transform="translate(7.153306,-3.739228)" style="display:inline" id="use4989" x="0" y="0" width="1052.3622" height="744.09448" xlink:href="#use4987"/>
      <use transform="translate(7.478457,-3.251503)" style="display:inline" id="use4991" x="0" y="0" width="1052.3622" height="744.09448" xlink:href="#use4989"/>
      <use transform="translate(7.641032,-3.576653)" style="display:inline" id="use4993" x="0" y="0" width="1052.3622" height="744.09448" xlink:href="#use4991"/>
      <use transform="translate(7.478457,-3.251503)" style="display:inline" id="use4995" x="0" y="0" width="1052.3622" height="744.09448" xlink:href="#use4993"/>
      <use transform="translate(7.803607,-3.088928)" style="display:inline" id="use4997" x="0" y="0" width="1052.3622" height="744.09448" xlink:href="#use4995"/>
      <use transform="translate(8.291332,-3.414078)" style="display:inline" id="use4999" x="0" y="0" width="1052.3622" height="744.09448" xlink:href="#use4997"/>
      <use transform="translate(7.966182,-3.251503)" style="display:inline" id="use5001" x="0" y="0" width="1052.3622" height="744.09448" xlink:href="#use4999"/>
      <path d="M 816.61494,237.1039 C 816.61494,238.94455 815.85067,240.43669 814.9079,240.43669 C 813.96513,240.43669 813.20086,238.94455 813.20086,237.1039 C 813.20086,235.26325 813.96513,233.77111 814.9079,233.77111 C 815.85067,233.77111 816.61494,235.26325 816.61494,237.1039 L 816.61494,237.1039 z" transform="matrix(0.785435,0,0,0.952559,63.38013,66.70817)" style="fill:#bacbd8;fill-opacity:1;fill-rule:evenodd;stroke:#000000;stroke-width:1;stroke-linecap:round;stroke-miterlimit:4;stroke-dasharray:none;stroke-opacity:1;display:inline" id="path5003"/>
      <use transform="matrix(0.921141,0,0,1.018101,-40.31935,47.27802)" style="display:inline" id="use5005" x="0" y="0" width="1052.3622" height="744.09448" xlink:href="#path4977"/>
      <use transform="matrix(0.921141,0,0,1.018101,-40.46913,47.44354)" style="display:inline" id="use5007" x="0" y="0" width="1052.3622" height="744.09448" xlink:href="#use4981"/>
      <use transform="matrix(0.921141,0,0,1.018101,-40.31935,47.11251)" style="display:inline" id="use5009" x="0" y="0" width="1052.3622" height="744.09448" xlink:href="#use4983"/>
      <use transform="matrix(0.921141,0,0,1.018101,-40.16957,47.44354)" style="display:inline" id="use5011" x="0" y="0" width="1052.3622" height="744.09448" xlink:href="#use4985"/>
      <use transform="matrix(0.921141,0,0,1.018101,-40.31935,46.94699)" style="display:inline" id="use5013" x="0" y="0" width="1052.3622" height="744.09448" xlink:href="#use4987"/>
      <use transform="matrix(0.921141,0,0,1.018101,-40.01988,47.44354)" style="display:inline" id="use5015" x="0" y="0" width="1052.3622" height="744.09448" xlink:href="#use4989"/>
      <use transform="matrix(0.921141,0,0,1.018101,-39.87011,47.11251)" style="display:inline" id="use5017" x="0" y="0" width="1052.3622" height="744.09448" xlink:href="#use4991"/>
      <use transform="matrix(0.921141,0,0,1.018101,-40.01988,47.44354)" style="display:inline" id="use5019" x="0" y="0" width="1052.3622" height="744.09448" xlink:href="#use4993"/>
      <use transform="matrix(0.921141,0,0,1.018101,-39.72033,47.60906)" style="display:inline" id="use5021" x="0" y="0" width="1052.3622" height="744.09448" xlink:href="#use4995"/>
      <use transform="matrix(0.921141,0,0,1.018101,-39.27109,47.27802)" style="display:inline" id="use5023" x="0" y="0" width="1052.3622" height="744.09448" xlink:href="#use4997"/>
      <use transform="matrix(0.921141,0,0,1.018101,-39.57055,47.44354)" style="display:inline" id="use5025" x="0" y="0" width="1052.3622" height="744.09448" xlink:href="#use4999"/>
      <path d="M 816.61494,237.1039 C 816.61494,238.94455 815.85067,240.43669 814.9079,240.43669 C 813.96513,240.43669 813.20086,238.94455 813.20086,237.1039 C 813.20086,235.26325 813.96513,233.77111 814.9079,233.77111 C 815.85067,233.77111 816.61494,235.26325 816.61494,237.1039 L 816.61494,237.1039 z" transform="matrix(0.765658,0,0,0.939857,-211.7477,211.9682)" style="fill:#bacbd8;fill-opacity:1;fill-rule:evenodd;stroke:#000000;stroke-width:1;stroke-linecap:round;stroke-miterlimit:4;stroke-dasharray:none;stroke-opacity:1;display:inline" id="path5027"/>
      <use transform="matrix(0.897947,0,0,1.004525,-312.8361,192.7971)" style="display:inline" id="use5029" x="0" y="0" width="1052.3622" height="744.09448" xlink:href="#path4977"/>
      <use transform="matrix(0.897947,0,0,1.004525,-312.9821,192.9605)" style="display:inline" id="use5031" x="0" y="0" width="1052.3622" height="744.09448" xlink:href="#use4981"/>
      <use transform="matrix(0.897947,0,0,1.004525,-312.8361,192.6338)" style="display:inline" id="use5033" x="0" y="0" width="1052.3622" height="744.09448" xlink:href="#use4983"/>
      <use transform="matrix(0.897947,0,0,1.004525,-312.6901,192.9605)" style="display:inline" id="use5035" x="0" y="0" width="1052.3622" height="744.09448" xlink:href="#use4985"/>
      <use transform="matrix(0.897947,0,0,1.004525,-312.8361,192.4705)" style="display:inline" id="use5037" x="0" y="0" width="1052.3622" height="744.09448" xlink:href="#use4987"/>
      <use transform="matrix(0.897947,0,0,1.004525,-312.5441,192.9605)" style="display:inline" id="use5039" x="0" y="0" width="1052.3622" height="744.09448" xlink:href="#use4989"/>
      <use transform="matrix(0.897947,0,0,1.004525,-312.3982,192.6338)" style="display:inline" id="use5041" x="0" y="0" width="1052.3622" height="744.09448" xlink:href="#use4991"/>
      <use transform="matrix(0.897947,0,0,1.004525,-312.5441,192.9605)" style="display:inline" id="use5043" x="0" y="0" width="1052.3622" height="744.09448" xlink:href="#use4993"/>
      <use transform="matrix(0.897947,0,0,1.004525,-312.2522,193.1237)" style="display:inline" id="use5045" x="0" y="0" width="1052.3622" height="744.09448" xlink:href="#use4995"/>
      <path d="M 390.49373,433.78653 C 390.22883,434.74062 390.54832,440.39049 391.63978,446.6583 C 392.73125,452.92611 394.5947,459.81185 395.01772,460.03764 C 395.92534,460.5221 403.53647,455.319 404.10412,453.78799 C 404.35678,453.10656 402.59866,447.04835 401.68405,440.87306 C 400.76943,434.69776 400.69833,428.40541 400.28901,428.11314 C 399.59036,427.61429 390.95811,432.11399 390.49373,433.78653 z" style="fill:none;fill-opacity:0.75;fill-rule:evenodd;stroke:#000000;stroke-width:0.84239757px;stroke-linecap:butt;stroke-linejoin:miter;stroke-opacity:1;display:inline" id="path5051"/>
      <path d="M 861,310.09448 C 861,310.09448 847,315.89448 841.2,319.29448 C 835.4,322.69448 814.4,327.29448 810.6,324.49448 C 806.8,321.69448 813.2,315.69448 818,306.49448 C 822.8,297.29448 821.6,287.49448 818,282.69448 C 814.4,277.89448 796.6,268.89448 769.6,279.49448 C 769.6,279.49448 705,298.24448 645.6,326.19448 C 586.2,354.14448 534.3,386.69448 524.2,394.39448 C 514.1,402.09448 491.2,422.69448 486.2,431.49448 C 481.2,440.29448 479.2,449.09448 481.6,453.49448 C 484,457.89448 501.8,459.89448 512,459.69448 C 522.2,459.49448 535,456.29448 536.4,457.89448 C 537.8,459.49448 532,459.49448 529.6,461.69448 C 527.2,463.89448 524.8,466.69448 525.6,469.09448 C 526.4,471.49448 526.4,471.49448 526.4,471.49448" style="fill:none;fill-opacity:0.75;fill-rule:evenodd;stroke:#000000;stroke-width:1px;stroke-linecap:butt;stroke-linejoin:miter;stroke-opacity:1;display:inline" id="path5053"/>
      <path d="M 839.56686,192.50406 C 839.56741,193.88484 839.0079,195.00477 838.3175,195.00477 C 837.62711,195.00477 837.0676,193.88484 837.06815,192.50406 C 837.0676,191.12328 837.62711,190.00335 838.3175,190.00335 C 839.0079,190.00335 839.56741,191.12328 839.56686,192.50406 z" transform="matrix(0.82857,0.559885,-0.559885,0.82857,252.1177,-436.9857)" style="fill:#bacbd8;fill-opacity:1;fill-rule:evenodd;stroke:#000000;stroke-width:0.64488208;stroke-linecap:round;stroke-miterlimit:4;stroke-dasharray:none;stroke-opacity:1;display:inline" id="path5073"/>
      <use transform="translate(-8.27698,3.279558)" style="display:inline" id="use5075" x="0" y="0" width="1052.3622" height="744.09448" xlink:href="#path5073"/>
      <use transform="translate(-7.183794,3.904236)" style="display:inline" id="use5077" x="0" y="0" width="1052.3622" height="744.09448" xlink:href="#use5075"/>
      <use transform="translate(-7.027624,3.123389)" style="display:inline" id="use5079" x="0" y="0" width="1052.3622" height="744.09448" xlink:href="#use5077"/>
      <use transform="translate(-7.027624,3.279558)" style="display:inline" id="use5081" x="0" y="0" width="1052.3622" height="744.09448" xlink:href="#use5079"/>
      <use transform="translate(-6.871455,3.123389)" style="display:inline" id="use5083" x="0" y="0" width="1052.3622" height="744.09448" xlink:href="#use5081"/>
      <use transform="translate(-7.183794,3.748066)" style="display:inline" id="use5085" x="0" y="0" width="1052.3622" height="744.09448" xlink:href="#use5083"/>
      <use transform="translate(-7.339963,3.591897)" style="display:inline" id="use5087" x="0" y="0" width="1052.3622" height="744.09448" xlink:href="#use5085"/>
      <use transform="translate(-7.027624,3.279558)" style="display:inline" id="use5089" x="0" y="0" width="1052.3622" height="744.09448" xlink:href="#use5087"/>
      <use transform="translate(-7.183794,3.748066)" style="display:inline" id="use5091" x="0" y="0" width="1052.3622" height="744.09448" xlink:href="#use5089"/>
      <use transform="translate(-7.183794,3.279558)" style="display:inline" id="use5093" x="0" y="0" width="1052.3622" height="744.09448" xlink:href="#use5091"/>
      <use transform="translate(-34.51344,17.33481)" style="display:inline" id="use5095" x="0" y="0" width="1052.3622" height="744.09448" xlink:href="#use5093"/>
      <use transform="translate(-7.339963,3.279558)" style="display:inline" id="use5097" x="0" y="0" width="1052.3622" height="744.09448" xlink:href="#use5095"/>
      <use transform="translate(-7.339963,3.904236)" style="display:inline" id="use5099" x="0" y="0" width="1052.3622" height="744.09448" xlink:href="#use5097"/>
      <use transform="translate(-7.339963,3.748067)" style="display:inline" id="use5101" x="0" y="0" width="1052.3622" height="744.09448" xlink:href="#use5099"/>
      <use transform="translate(-7.183794,3.123389)" style="display:inline" id="use5103" x="0" y="0" width="1052.3622" height="744.09448" xlink:href="#use5101"/>
      <use transform="translate(-6.871454,3.279558)" style="display:inline" id="use5105" x="0" y="0" width="1052.3622" height="744.09448" xlink:href="#use5103"/>
      <use transform="translate(-7.496133,3.748066)" style="display:inline" id="use5107" x="0" y="0" width="1052.3622" height="744.09448" xlink:href="#use5105"/>
      <use transform="translate(-7.183794,3.748066)" style="display:inline" id="use5109" x="0" y="0" width="1052.3622" height="744.09448" xlink:href="#use5107"/>
      <use transform="translate(-7.339963,3.591897)" style="display:inline" id="use5111" x="0" y="0" width="1052.3622" height="744.09448" xlink:href="#use5109"/>
      <use transform="translate(-7.183794,3.279558)" style="display:inline" id="use5113" x="0" y="0" width="1052.3622" height="744.09448" xlink:href="#use5111"/>
      <use transform="translate(-198.9599,97.29355)" style="display:inline" id="use5115" x="0" y="0" width="1052.3622" height="744.09448" xlink:href="#use5113"/>
      <use transform="translate(-7.183794,3.748066)" style="display:inline" id="use5117" x="0" y="0" width="1052.3622" height="744.09448" xlink:href="#use5115"/>
      <use transform="translate(-33.26409,17.02247)" style="display:inline" id="use5119" x="0" y="0" width="1052.3622" height="744.09448" xlink:href="#use5117"/>
      <use transform="translate(-6.715286,3.123389)" style="display:inline" id="use5121" x="0" y="0" width="1052.3622" height="744.09448" xlink:href="#use5119"/>
      <use transform="translate(-6.402946,3.435727)" style="display:inline" id="use5123" x="0" y="0" width="1052.3622" height="744.09448" xlink:href="#use5121"/>
      <use transform="translate(-6.246777,3.123389)" style="display:inline" id="use5125" x="0" y="0" width="1052.3622" height="744.09448" xlink:href="#use5123"/>
      <use transform="translate(-6.402947,3.279558)" style="display:inline" id="use5127" x="0" y="0" width="1052.3622" height="744.09448" xlink:href="#use5125"/>
      <path d="M 494.19648,393.2145 C 495.15302,398.21192 497.94455,406.64508 497.63221,407.89443 C 497.31987,409.14378 492.94713,411.01782 491.69777,411.48633 C 490.44842,411.95483 487.09544,414.11251 486.07568,413.98504 C 485.05592,413.85757 481.70293,400.39829 481.54676,398.21192 C 481.39059,396.02555 480.60975,387.28007 481.07825,386.49922 C 481.54675,385.71838 484.98249,384.15668 486.23184,383.532 C 487.4812,382.90732 491.0731,380.87712 492.47862,381.03329 C 493.88415,381.18946 493.23399,388.18599 494.19648,393.2145 z" style="fill:none;fill-opacity:0.75;fill-rule:evenodd;stroke:#000000;stroke-width:1px;stroke-linecap:butt;stroke-linejoin:miter;stroke-opacity:1;display:inline" id="path6002"/>
      <path d="M 449.11851,384.68094 C 448.37665,387.8896 448.15144,393.12566 447.48509,394.01146 C 446.81873,394.89725 442.41461,396.81807 441.1774,397.32195 C 439.9402,397.82583 436.33589,399.78233 435.48683,399.85144 C 434.63778,399.92055 435.9584,391.39666 436.51172,389.95308 C 437.06503,388.50951 439.14208,382.75892 439.79687,382.16385 C 440.45165,381.56879 443.94018,379.99969 445.22664,379.391 C 446.51311,378.7823 450.28555,376.87512 451.46195,376.76677 C 452.63835,376.65842 449.86499,381.45232 449.11851,384.68094 z" style="fill:none;fill-opacity:0.75;fill-rule:evenodd;stroke:#000000;stroke-width:0.73306102px;stroke-linecap:butt;stroke-linejoin:miter;stroke-opacity:1;display:inline" id="path6004"/>
      <path d="M 802.71086,243.41529 C 803.6674,248.41271 806.45893,256.84587 806.14659,258.09522 C 805.83425,259.34457 801.46151,261.21861 800.21215,261.68712 C 798.9628,262.15562 795.60982,264.3133 794.59006,264.18583 C 793.5703,264.05836 790.21731,250.59908 790.06114,248.41271 C 789.90497,246.22634 789.12413,237.48086 789.59263,236.70001 C 790.06113,235.91917 793.49687,234.35747 794.74622,233.73279 C 795.99558,233.10811 799.58748,231.07791 800.993,231.23408 C 802.39853,231.39025 801.74837,238.38678 802.71086,243.41529 z" style="fill:none;fill-opacity:0.75;fill-rule:evenodd;stroke:#000000;stroke-width:1px;stroke-linecap:butt;stroke-linejoin:miter;stroke-opacity:1;display:inline" id="path5071"/>
      <use transform="translate(305.4724,-149.7922)" style="display:inline" id="use6009" x="0" y="0" width="1052.3622" height="744.09448" xlink:href="#path6004"/>
      <path d="M 978.59375,231.46875 L 958.78125,244.75 L 971.3125,254 L 996.5625,238.46875 C 996.5625,238.46875 991.09808,238.48599 986.21875,236.65625 C 984.04593,235.84144 981.17201,233.67871 978.625,231.46875 C 978.61955,231.46402 978.5992,231.47348 978.59375,231.46875 z" style="fill:#404350;fill-opacity:1;fill-rule:evenodd;stroke:#000000;stroke-width:1px;stroke-linecap:butt;stroke-linejoin:miter;stroke-opacity:1;display:inline" id="path8653"/>
      <path d="M 1019.4731,214.68819 C 1006.9698,217.12785 1002.0905,205.84443 1000.5657,205.84443 C 999.0409,205.84443 993.24671,212.55349 988.06243,216.21298 C 982.87815,219.87247 972.81455,224.44684 972.81455,225.36171 C 972.81455,226.27658 981.35336,234.81539 986.23268,236.64514 C 991.112,238.47488 996.54966,238.47488 996.54966,238.47488" style="fill:none;fill-opacity:1;fill-rule:evenodd;stroke:#6c6c6c;stroke-width:0.6448819;stroke-linecap:butt;stroke-linejoin:miter;stroke-miterlimit:4;stroke-dasharray:none;stroke-opacity:1;display:inline" id="path8647"/>
      <path d="M 978.04939,231.77456 L 958.60751,244.73581 L 962.46085,253.84372 L 983.30396,241.23277 L 978.04939,231.77456 z" style="fill:#a3a4ab;fill-opacity:1;fill-rule:evenodd;stroke:#000000;stroke-width:1px;stroke-linecap:butt;stroke-linejoin:miter;stroke-opacity:1;display:inline" id="path8649"/>
      <path d="M 782.9394,283.01008 L 689.81843,279.39373 L 98.54549,227.86077 C 98.54549,227.86077 76.847401,227.86077 68.710617,230.57303 C 64.642225,231.92916 63.228129,231.99284 56.362052,235.97031 C 52.064109,238.46008 49.931461,241.51016 46.433079,246.61851 L 247.40355,293.81643 L 270.32203,283.01008 L 493.63154,333.63895 L 593.08112,383.36374 C 593.08112,383.36374 654.55904,369.80244 666.31217,365.282 C 678.0653,360.76157 761.24131,313.74904 761.24131,313.74904 C 761.24131,313.74904 769.37809,306.51634 772.09036,301.99591 C 774.80262,297.47547 778.41897,294.76321 782.03531,291.14686 C 785.65166,287.53051 783.84349,282.10599 782.9394,283.01008 z" style="fill:#7f8aa0;fill-opacity:1;fill-rule:evenodd;stroke:#000000;stroke-width:1px;stroke-linecap:butt;stroke-linejoin:miter;stroke-opacity:1;display:inline" id="path42066"/>
      <path d="M 556.25261,411.56729 L 460.80756,365.93176 L 493.92115,338.38348 L 589.64446,382.62768 L 556.25261,411.56729 z" style="fill:#738d9c;fill-opacity:1;fill-rule:evenodd;stroke:#000000;stroke-width:1px;stroke-linecap:butt;stroke-linejoin:miter;stroke-opacity:1;display:inline" id="path42070"/>
      <path d="M 490.02543,337.27042 L 457.46838,365.65349 L 345.32741,332.26164 L 371.48436,308.33081 L 490.02543,337.27042 z" style="fill:#738d9c;fill-opacity:1;fill-rule:evenodd;stroke:#000000;stroke-width:1px;stroke-linecap:butt;stroke-linejoin:miter;stroke-opacity:1;display:inline" id="path42072"/>
      <path d="M 368.14517,307.49601 L 341.70996,331.42684 L 242.36919,303.87856 L 266.85655,285.23478 L 368.14517,307.49601 z" style="fill:#738d9c;fill-opacity:1;fill-rule:evenodd;stroke:#000000;stroke-width:1px;stroke-linecap:butt;stroke-linejoin:miter;stroke-opacity:1;display:inline" id="path42074"/>
      <path d="M 576.28772,328.92245 C 576.28772,328.92245 540.94801,336.99215 534.82617,340.6096 C 528.70433,344.22705 520.35636,349.79236 511.17361,357.30553 C 501.99085,364.81869 487.24278,382.90595 487.24278,382.90595 L 487.52104,391.25391 C 487.52104,391.25391 507.83442,385.13207 518.96504,376.22758 C 530.09566,367.32308 576.00945,328.92245 576.28772,328.92245 z" style="fill:#56647f;fill-opacity:1;fill-rule:evenodd;stroke:#000000;stroke-width:1px;stroke-linecap:butt;stroke-linejoin:miter;stroke-opacity:1;display:inline" id="path42076"/>
      <path d="M 500.32125,314.45265 L 474.44257,321.13102 L 451.6248,337.54868 L 429.9201,362.59257 L 430.75489,370.384 C 430.75489,370.384 448.28562,364.26216 457.19011,357.58379 C 466.0946,350.90542 500.87778,314.73092 500.32125,314.45265 z" style="fill:#56647f;fill-opacity:1;fill-rule:evenodd;stroke:#000000;stroke-width:1px;stroke-linecap:butt;stroke-linejoin:miter;stroke-opacity:1;display:inline" id="path42078"/>
      <path d="M 441.05072,298.31325 L 410.71978,305.54816 C 410.71978,305.54816 390.40641,318.62663 385.11936,323.35714 C 379.83232,328.08766 366.47558,341.72266 366.47558,341.72266 L 355.0667,358.97512 L 355.62323,362.59257 C 355.62323,362.59257 364.80599,360.08818 377.04967,352.29675 C 389.29334,344.50532 441.88551,298.86979 441.05072,298.31325 z" style="fill:#56647f;fill-opacity:1;fill-rule:evenodd;stroke:#000000;stroke-width:1px;stroke-linecap:butt;stroke-linejoin:miter;stroke-opacity:1;display:inline" id="path42080"/>
      <path d="M 377.18389,283.14778 L 349.63561,290.38269 C 349.63561,290.38269 329.87877,300.6785 324.59172,305.40901 C 319.30468,310.13953 304.55661,324.0528 304.55661,324.0528 L 293.14773,341.30526 L 293.70426,344.92271 C 293.70426,344.92271 302.88702,342.41832 315.1307,334.62689 C 327.37437,326.83546 376.07082,285.37391 377.18389,283.14778 z" style="fill:#56647f;fill-opacity:1;fill-rule:evenodd;stroke:#000000;stroke-width:1px;stroke-linecap:butt;stroke-linejoin:miter;stroke-opacity:1;display:inline" id="path42082"/>
      <path d="M 316.94433,266.03446 L 293.57003,272.99111 C 293.57003,272.99111 272.70013,281.33906 267.41308,286.06957 C 262.12604,290.80009 246.26491,304.43509 246.26491,304.43509 L 235.96909,321.96582 L 236.52562,325.58327 C 236.52562,325.58327 245.70838,323.07888 257.95206,315.28745 C 270.19573,307.49602 315.83126,268.26059 316.94433,266.03446 z" style="fill:#56647f;fill-opacity:1;fill-rule:evenodd;stroke:#000000;stroke-width:1px;stroke-linecap:butt;stroke-linejoin:miter;stroke-opacity:1;display:inline" id="path42084"/>
      <path d="M 55.779285,236.70333 L 46.289426,246.40408 C 46.289426,246.40408 36.905009,261.69329 36.061466,261.37697 C 35.217923,261.06064 33.109065,261.16608 33.109065,261.16608 L 34.479823,242.18636 L 24.357306,233.32916 L 28.15325,232.38017 L 55.779285,236.70333 z" style="fill:#253456;fill-opacity:1;fill-rule:evenodd;stroke:#000000;stroke-width:1px;stroke-linecap:butt;stroke-linejoin:miter;stroke-opacity:1;display:inline" id="path42068"/>
      <path d="M 658.16686,435.70495 L 649.08174,432.04566 L 616.5267,446.68281 L 625.73801,449.08027 L 658.16686,435.70495 z" style="fill:#27253d;fill-opacity:1;fill-rule:evenodd;stroke:#000000;stroke-width:1px;stroke-linecap:butt;stroke-linejoin:miter;stroke-opacity:1;display:inline" id="path7635"/>
      <path d="M 604.16084,413.74923 L 595.07572,410.08994 L 562.52068,424.72709 L 567.69416,430.53147 L 604.16084,413.74923 z" style="fill:#27253d;fill-opacity:1;fill-rule:evenodd;stroke:#000000;stroke-width:1px;stroke-linecap:butt;stroke-linejoin:miter;stroke-opacity:1;display:inline" id="path7637"/>
      <path d="M 622.44465,366.49396 L 590.8057,354.25175 L 578.24552,362.67821 L 600.82205,375.23839 L 601.14003,380.64404 L 620.2188,374.44344 L 617.35698,370.94567 L 622.44465,366.49396 z" style="fill:#1a1d2c;fill-opacity:1;fill-rule:evenodd;stroke:#000000;stroke-width:1px;stroke-linecap:butt;stroke-linejoin:miter;stroke-opacity:1;display:inline" id="path7631"/>
      <g style="display:inline" id="g2294">
        <g id="g67668">
          <path d="M 564.80328,431.99649 C 568.73007,431.99097 571.92059,436.00509 572.0024,437.55944 C 572.08421,439.1138 571.75697,445.65844 569.87539,447.62184 C 567.50546,450.0948 566.03041,451.63044 562.75808,451.46683 C 559.48576,451.30321 556.45886,448.93077 555.80439,446.80376 C 555.14993,444.67675 554.33184,441.24081 555.96801,438.21391 C 557.60417,435.187 559.48575,431.99649 564.80328,431.99649 z" style="fill:#141c27;fill-opacity:1;fill-rule:evenodd;stroke:#000000;stroke-width:1;stroke-linecap:butt;stroke-linejoin:miter;stroke-miterlimit:4;stroke-dasharray:none;stroke-opacity:1" id="path64164"/>
          <path d="M 560.14022,446.55834 C 562.66439,446.88759 565.29413,443.28601 565.78498,441.81347 C 566.27583,440.34092 566.60306,437.88668 565.70317,436.57775 C 564.80328,435.26882 562.9217,434.61435 562.02181,434.69616 C 561.12192,434.77797 558.83129,436.33232 558.09502,437.80487 C 557.35874,439.27741 556.81286,441.32035 557.19513,443.04059 C 557.52236,444.51313 557.77529,446.24987 560.14022,446.55834 z" style="fill:#565865;fill-opacity:1;fill-rule:evenodd;stroke:#000000;stroke-width:1px;stroke-linecap:butt;stroke-linejoin:miter;stroke-opacity:1" id="path65912"/>
        </g>
        <use transform="translate(15.74107,6.493191)" id="use67682" x="0" y="0" width="1052.3622" height="744.09448" xlink:href="#g67668"/>
        <use transform="translate(34.63035,2.361161)" id="use67684" x="0" y="0" width="1052.3622" height="744.09448" xlink:href="#g67668"/>
        <use transform="translate(53.12611,-2.557924)" id="use67686" x="0" y="0" width="1052.3622" height="744.09448" xlink:href="#g67668"/>
        <path d="M 591.77352,419.26935 L 591.44837,431.29991 L 613.55859,437.47777 L 613.55859,440.07897 L 597.62622,434.55142 L 579.74296,436.17717 L 585.59566,431.95022 L 586.89626,430.32446 L 586.89626,421.54541" style="fill:#434e52;fill-opacity:1;fill-rule:evenodd;stroke:#000000;stroke-width:1px;stroke-linecap:butt;stroke-linejoin:miter;stroke-opacity:1;display:inline" id="path2277"/>
        <use transform="translate(18.49576,-4.525558)" id="use67688" x="0" y="0" width="1052.3622" height="744.09448" xlink:href="#g67668"/>
        <use transform="translate(37.38504,-8.264062)" id="use67690" x="0" y="0" width="1052.3622" height="744.09448" xlink:href="#g67668"/>
      </g>
      <g style="display:inline" id="g2306">
        <path d="M 646.07362,438.77836 L 645.74847,450.80892 L 667.85869,456.98678 L 667.85869,459.58798 L 651.92632,454.06043 L 634.04306,455.68618 L 639.89576,451.45923 L 641.19636,449.83347 L 641.19636,441.05442" style="fill:#434e52;fill-opacity:1;fill-rule:evenodd;stroke:#000000;stroke-width:1px;stroke-linecap:butt;stroke-linejoin:miter;stroke-opacity:1;display:inline" id="path2275"/>
        <use transform="translate(70.04776,26.56306)" id="use67692" x="0" y="0" width="1052.3622" height="744.09448" xlink:href="#g67668"/>
        <use transform="translate(87.95323,22.0375)" id="use67694" x="0" y="0" width="1052.3622" height="744.09448" xlink:href="#g67668"/>
        <use transform="translate(106.6458,18.29899)" id="use67696" x="0" y="0" width="1052.3622" height="744.09448" xlink:href="#g67668"/>
        <use transform="translate(54.10993,20.46339)" id="use67698" x="0" y="0" width="1052.3622" height="744.09448" xlink:href="#g67668"/>
        <use transform="translate(73.39274,14.16696)" id="use67700" x="0" y="0" width="1052.3622" height="744.09448" xlink:href="#g67668"/>
        <use transform="translate(91.29821,11.41228)" id="use67702" x="0" y="0" width="1052.3622" height="744.09448" xlink:href="#g67668"/>
      </g>
      <use transform="matrix(0.919967,0,0,0.895912,458.8789,-113.0979)" style="display:inline" id="use67712" x="0" y="0" width="1052.3622" height="744.09448" xlink:href="#g67668"/>
      <path d="M 976.08765,246.42455 L 975.89513,255.85814 L 982.44088,255.9544 L 974.06617,263.46276 L 974.45121,278.9608 L 975.79887,281.46359 L 968.48302,280.6935 L 970.50451,273.7627 L 970.21572,264.81042 C 970.21572,264.81042 967.87901,265.32794 966.0765,267.21695 C 966.29309,268.05923 968.77181,271.25991 968.77181,271.25991 L 966.94284,272.51131 L 964.05501,267.89077 L 965.30641,261.6338 L 967.13537,259.70858 L 966.5578,255.76187 L 970.50451,253.93291 L 970.50451,249.5049 L 976.08765,246.42455 z" style="fill:#8c94ab;fill-opacity:1;fill-rule:evenodd;stroke:#000000;stroke-width:1px;stroke-linecap:butt;stroke-linejoin:miter;stroke-opacity:1;display:inline" id="path67716"/>
      <use transform="translate(-11.12742,-3.379225)" style="display:inline" id="use67714" x="0" y="0" width="1052.3622" height="744.09448" xlink:href="#use67712"/>
      <path d="M 617.26545,364.60394 L 620.88179,366.41211 L 593.08112,386.30203 L 591.72499,384.04181 L 617.26545,364.60394 z" style="fill:#434e52;fill-opacity:1;fill-rule:evenodd;stroke:#000000;stroke-width:1px;stroke-linecap:butt;stroke-linejoin:miter;stroke-opacity:1;display:inline" id="path68593"/>
      <path d="M 725.80057,404.03319 C 725.80057,404.03319 731.85732,410.08994 733.24533,414.75869 C 734.63333,419.42743 736.77843,428.38638 736.77843,428.38638 L 726.43148,437.4715 L 711.79434,440.12133 L 710.78488,419.17507 L 706.99941,415.13723" style="fill:#2f363e;fill-opacity:1;fill-rule:evenodd;stroke:#000000;stroke-width:1px;stroke-linecap:butt;stroke-linejoin:miter;stroke-opacity:1;display:inline" id="path7633"/>
      <g style="display:inline" id="g2315">
        <use transform="translate(150.1305,19.08605)" id="use67704" x="0" y="0" width="1052.3622" height="744.09448" xlink:href="#g67668"/>
        <use transform="translate(168.2327,17.31518)" id="use67706" x="0" y="0" width="1052.3622" height="744.09448" xlink:href="#g67668"/>
        <path d="M 710.20308,413.4147 L 710.20308,417.35859 L 712.71719,419.52577 L 712.71719,436.99093 L 708.38283,441.32529 L 707.4727,449.21306 L 711.11321,452.85358 L 710.20308,448.90969 L 710.50646,443.14555 L 712.63009,442.53879 L 712.93347,450.12319 L 717.48411,450.72994 L 717.48411,442.53879 L 722.33812,448.30294 L 723.55163,453.7637 L 729.01239,458.31434 L 729.31577,454.37046 L 726.28201,451.3367 L 724.46175,443.7523 L 717.98199,437.29431 L 718.02554,425.98376 L 726.28201,404.92018 L 722.03475,406.43706 L 718.39424,416.75184 L 718.39424,407.95394 L 710.20308,413.4147 z" style="fill:#434e52;fill-opacity:1;fill-rule:evenodd;stroke:#000000;stroke-width:1px;stroke-linecap:butt;stroke-linejoin:miter;stroke-opacity:1" id="path1400"/>
        <use transform="translate(154.8528,12.39609)" id="use67708" x="0" y="0" width="1052.3622" height="744.09448" xlink:href="#g67668"/>
        <use transform="translate(136.7505,13.57667)" id="use67710" x="0" y="0" width="1052.3622" height="744.09448" xlink:href="#g67668"/>
      </g>
      <g style="display:inline" id="g2287">
        <use transform="translate(41.83115,-30.15538)" id="use67678" x="0" y="0" width="1052.3622" height="744.09448" xlink:href="#g67668"/>
        <use transform="translate(24.31915,-28.18775)" id="use67680" x="0" y="0" width="1052.3622" height="744.09448" xlink:href="#g67668"/>
        <path d="M 595.11531,357.37124 L 587.20455,357.59726 L 587.65659,383.58976 L 585.39638,385.39794 L 585.17035,391.72655 L 581.10196,393.08268 L 581.10196,403.7057 L 584.04025,403.7057 L 584.26627,396.24698 L 586.07444,395.11687 L 586.52649,403.25366 L 590.36886,403.25366 L 590.8209,395.56892 L 593.53316,396.69903 L 593.9852,403.25366 L 597.14951,403.02764 L 596.24542,394.43881 L 593.30714,391.04848 L 593.08112,385.84998 L 591.72499,383.36374 L 592.40305,362.56974 L 594.66327,360.53554 L 595.11531,357.37124 z" style="fill:#434e52;fill-opacity:1;fill-rule:evenodd;stroke:#000000;stroke-width:1px;stroke-linecap:butt;stroke-linejoin:miter;stroke-opacity:1" id="path68591"/>
        <use transform="translate(27.66415,-35.66475)" id="use67676" x="0" y="0" width="1052.3622" height="744.09448" xlink:href="#g67668"/>
        <use transform="translate(9.365147,-34.28741)" id="use67672" x="0" y="0" width="1052.3622" height="744.09448" xlink:href="#g67668"/>
      </g>
      <path d="M 576.65562,385.57272 L 577.92754,362.51922 L 590.64671,354.09276 L 597.80125,376.03334 L 576.65562,385.57272 z" style="fill:#3f4044;fill-opacity:1;fill-rule:evenodd;stroke:#000000;stroke-width:1px;stroke-linecap:butt;stroke-linejoin:miter;stroke-opacity:1;display:inline" id="path7629"/>
      <path d="M 355.6628,453.46317 C 355.6628,453.46317 351.73583,465.09565 325.26886,478.35061 C 304.96836,488.51734 271.9104,503.23805 271.9104,503.23805 L 72.628007,452.21212 C 72.628007,452.21212 112.50834,434.55938 145.39649,435.92972 C 178.28465,437.30006 329.67664,461.31945 355.6628,453.46317 z" style="fill:#7f8aa0;fill-opacity:1;fill-rule:evenodd;stroke:#000000;stroke-width:1px;stroke-linecap:butt;stroke-linejoin:miter;stroke-opacity:1;display:inline" id="path59774"/>
      <g style="display:inline" id="g57974">
        <path d="M 291.06565,278.27814 L 339.7621,251.56466 L 379.55405,239.32098 L 396.52825,237.09486 L 334.75332,284.67825 C 334.75332,284.67825 323.90097,290.52182 318.05739,291.63488 C 312.21382,292.74795 297.46575,296.92193 290.23085,291.35662 C 282.99595,285.79131 282.71768,284.39998 282.71768,284.39998 L 291.06565,278.27814 z" style="fill:#56647f;fill-opacity:1;fill-rule:evenodd;stroke:#000000;stroke-width:1px;stroke-linecap:butt;stroke-linejoin:miter;stroke-opacity:1" id="path43837"/>
        <path d="M 339.41682,283.27465 L 327.41426,297.63838 L 346.89383,298.03191" style="fill:#373737;fill-opacity:1;fill-rule:evenodd;stroke:#000000;stroke-width:1px;stroke-linecap:butt;stroke-linejoin:miter;stroke-opacity:1" id="path45591"/>
        <path d="M 413.50244,227.9121 C 413.50244,227.9121 399.3109,228.19036 387.34549,234.3122 C 375.38007,240.43404 365.08425,245.72109 353.67537,254.90385 C 342.26649,264.08661 336.97944,269.09538 336.97944,269.09538 C 336.97944,269.09538 336.42291,284.95651 339.20557,290.24356 C 341.98822,295.5306 343.37955,299.14805 349.22312,302.48724 C 355.0667,305.82642 357.84935,305.54816 357.84935,305.54816 C 357.84935,305.54816 372.04089,305.54816 385.67589,300.81764 C 399.3109,296.08713 407.65886,293.30448 415.72856,287.73917 C 423.79826,282.17386 431.86796,275.49549 431.86796,275.49549 L 413.50244,227.9121 z" style="fill:#e8eaf7;fill-opacity:1;fill-rule:evenodd;stroke:#000000;stroke-width:1px;stroke-linecap:butt;stroke-linejoin:miter;stroke-opacity:1" id="path43839"/>
        <path d="M 426.20609,274.14775 C 430.74202,273.512 430.67369,273.50331 430.50712,276.36647 C 422.36495,279.8356 416.26395,278.42382 410.32054,272.37713 C 404.00398,265.95079 399.84395,252.55034 400.71161,243.62447 C 401.82243,232.1971 403.44685,229.58866 412.53842,227.85518 C 412.25913,229.96866 412.36292,229.11418 413.29577,229.89913 C 393.28641,247.17391 417.90256,275.31156 426.20609,274.14775 z" style="fill:#e9b576;fill-opacity:1;fill-rule:evenodd;stroke:none;stroke-width:3;stroke-linecap:round;stroke-miterlimit:4;stroke-dasharray:none;stroke-opacity:0.67346939" id="path44716"/>
        <path d="M 436.78669,257.22218 C 436.8094,265.35645 438.07935,271.88182 430.81971,275.90183 C 425.39926,278.9034 419.06294,276.75749 413.08315,270.85635 C 406.72793,264.58469 402.12526,251.45794 403.41541,242.7958 C 404.53303,235.29201 404.97958,229.4819 412.54305,227.79014 C 417.95934,226.57867 423.0534,230.09266 427.55872,234.20153 C 432.5688,238.77073 436.7679,250.49772 436.78669,257.22218 z" style="fill:#f2f2f2;fill-opacity:1;fill-rule:evenodd;stroke:#000000;stroke-width:1;stroke-linecap:round;stroke-miterlimit:4;stroke-dasharray:none;stroke-opacity:1" id="path43841"/>
        <path d="M 434.92889,256.71257 C 434.94842,263.66281 436.04004,269.23834 429.79982,272.67319 C 425.14051,275.23785 419.69395,273.4043 414.55386,268.36214 C 409.09105,263.00339 405.1347,251.78738 406.24368,244.38611 C 407.20436,237.97458 407.58821,233.01019 414.0896,231.56469 C 418.74533,230.52956 423.12406,233.53205 426.99674,237.04283 C 431.30329,240.94693 434.91275,250.96693 434.92889,256.71257 z" style="fill:#000000;fill-opacity:0.57142861;fill-rule:evenodd;stroke:none;stroke-width:3;stroke-linecap:round;stroke-miterlimit:4;stroke-dasharray:none;stroke-opacity:0.67346939" id="path42086"/>
      </g>
      <g transform="translate(24.66493,67.24439)" style="display:inline" id="g57988">
        <path d="M 466.00025,232.86428 L 514.6967,206.1508 L 554.48865,193.90712 L 571.46285,191.681 L 509.68792,239.26439 C 509.68792,239.26439 498.83557,245.10796 492.99199,246.22102 C 487.14842,247.33409 472.40035,251.50807 465.16545,245.94276 C 457.93055,240.37745 457.65228,238.98612 457.65228,238.98612 L 466.00025,232.86428 z" style="fill:#56647f;fill-opacity:1;fill-rule:evenodd;stroke:#000000;stroke-width:1px;stroke-linecap:butt;stroke-linejoin:miter;stroke-opacity:1" id="path57928"/>
        <path d="M 514.35142,237.86079 L 502.34886,252.22452 L 521.82843,252.61805" style="fill:#373737;fill-opacity:1;fill-rule:evenodd;stroke:#000000;stroke-width:1px;stroke-linecap:butt;stroke-linejoin:miter;stroke-opacity:1" id="path57930"/>
        <path d="M 588.43704,182.49824 C 588.43704,182.49824 574.2455,182.7765 562.28009,188.89834 C 550.31467,195.02018 540.01885,200.30723 528.60997,209.48999 C 517.20109,218.67275 511.91404,223.68152 511.91404,223.68152 C 511.91404,223.68152 511.35751,239.54265 514.14017,244.8297 C 516.92282,250.11674 518.31415,253.73419 524.15772,257.07338 C 530.0013,260.41256 532.78395,260.1343 532.78395,260.1343 C 532.78395,260.1343 546.97549,260.1343 560.61049,255.40378 C 574.2455,250.67327 582.59346,247.89062 590.66316,242.32531 C 598.73286,236.76 606.80256,230.08163 606.80256,230.08163 L 588.43704,182.49824 z" style="fill:#e8eaf7;fill-opacity:1;fill-rule:evenodd;stroke:#000000;stroke-width:1px;stroke-linecap:butt;stroke-linejoin:miter;stroke-opacity:1" id="path57932"/>
        <path d="M 601.14069,228.73389 C 605.67662,228.09814 605.60829,228.08945 605.44172,230.95261 C 597.29955,234.42174 591.19855,233.00996 585.25514,226.96327 C 578.93858,220.53693 574.77855,207.13648 575.64621,198.21061 C 576.75703,186.78324 578.38145,184.1748 587.47302,182.44132 C 587.19373,184.5548 587.29752,183.70032 588.23037,184.48527 C 568.22101,201.76005 592.83716,229.8977 601.14069,228.73389 z" style="fill:#e9b576;fill-opacity:1;fill-rule:evenodd;stroke:none;stroke-width:3;stroke-linecap:round;stroke-miterlimit:4;stroke-dasharray:none;stroke-opacity:0.67346939" id="path57934"/>
        <path d="M 611.72129,211.80832 C 611.744,219.94259 613.01395,226.46796 605.75431,230.48797 C 600.33386,233.48954 593.99754,231.34363 588.01775,225.44249 C 581.66253,219.17083 577.05986,206.04408 578.35001,197.38194 C 579.46763,189.87815 579.91418,184.06804 587.47765,182.37628 C 592.89394,181.16481 597.988,184.6788 602.49332,188.78767 C 607.5034,193.35687 611.7025,205.08386 611.72129,211.80832 z" style="fill:#f2f2f2;fill-opacity:1;fill-rule:evenodd;stroke:#000000;stroke-width:1;stroke-linecap:round;stroke-miterlimit:4;stroke-dasharray:none;stroke-opacity:1" id="path57936"/>
        <path d="M 609.86349,211.29871 C 609.88302,218.24895 610.97464,223.82448 604.73442,227.25933 C 600.07511,229.82399 594.62855,227.99044 589.48846,222.94828 C 584.02565,217.58953 580.0693,206.37352 581.17828,198.97225 C 582.13896,192.56072 582.52281,187.59633 589.0242,186.15083 C 593.67993,185.1157 598.05866,188.11819 601.93134,191.62897 C 606.23789,195.53307 609.84735,205.55307 609.86349,211.29871 z" style="fill:#000000;fill-opacity:0.57142861;fill-rule:evenodd;stroke:none;stroke-width:3;stroke-linecap:round;stroke-miterlimit:4;stroke-dasharray:none;stroke-opacity:0.67346939" id="path57938"/>
      </g>
      <g transform="matrix(0.977838,0,0,0.985491,508.5628,140.9014)" style="display:inline" id="g57996">
        <path d="M 291.06565,278.27814 L 339.7621,251.56466 L 379.55405,239.32098 L 396.52825,237.09486 L 334.75332,284.67825 C 334.75332,284.67825 323.90097,290.52182 318.05739,291.63488 C 312.21382,292.74795 297.46575,296.92193 290.23085,291.35662 C 282.99595,285.79131 282.71768,284.39998 282.71768,284.39998 L 291.06565,278.27814 z" style="fill:#56647f;fill-opacity:1;fill-rule:evenodd;stroke:#000000;stroke-width:1px;stroke-linecap:butt;stroke-linejoin:miter;stroke-opacity:1" id="path57998"/>
        <path d="M 339.41682,283.27465 L 327.41426,297.63838 L 346.89383,298.03191" style="fill:#373737;fill-opacity:1;fill-rule:evenodd;stroke:#000000;stroke-width:1px;stroke-linecap:butt;stroke-linejoin:miter;stroke-opacity:1" id="path58000"/>
        <path d="M 413.50244,227.9121 C 413.50244,227.9121 399.3109,228.19036 387.34549,234.3122 C 375.38007,240.43404 365.08425,245.72109 353.67537,254.90385 C 342.26649,264.08661 336.97944,269.09538 336.97944,269.09538 C 336.97944,269.09538 336.42291,284.95651 339.20557,290.24356 C 341.98822,295.5306 343.37955,299.14805 349.22312,302.48724 C 355.0667,305.82642 357.84935,305.54816 357.84935,305.54816 C 357.84935,305.54816 372.04089,305.54816 385.67589,300.81764 C 399.3109,296.08713 407.65886,293.30448 415.72856,287.73917 C 423.79826,282.17386 431.86796,275.49549 431.86796,275.49549 L 413.50244,227.9121 z" style="fill:#e8eaf7;fill-opacity:1;fill-rule:evenodd;stroke:#000000;stroke-width:1px;stroke-linecap:butt;stroke-linejoin:miter;stroke-opacity:1" id="path58002"/>
        <path d="M 426.20609,274.14775 C 430.74202,273.512 430.67369,273.50331 430.50712,276.36647 C 422.36495,279.8356 416.26395,278.42382 410.32054,272.37713 C 404.00398,265.95079 399.84395,252.55034 400.71161,243.62447 C 401.82243,232.1971 403.44685,229.58866 412.53842,227.85518 C 412.25913,229.96866 412.36292,229.11418 413.29577,229.89913 C 393.28641,247.17391 417.90256,275.31156 426.20609,274.14775 z" style="fill:#e9b576;fill-opacity:1;fill-rule:evenodd;stroke:none;stroke-width:3;stroke-linecap:round;stroke-miterlimit:4;stroke-dasharray:none;stroke-opacity:0.67346939" id="path58004"/>
        <path d="M 436.78669,257.22218 C 436.8094,265.35645 438.07935,271.88182 430.81971,275.90183 C 425.39926,278.9034 419.06294,276.75749 413.08315,270.85635 C 406.72793,264.58469 402.12526,251.45794 403.41541,242.7958 C 404.53303,235.29201 404.97958,229.4819 412.54305,227.79014 C 417.95934,226.57867 423.0534,230.09266 427.55872,234.20153 C 432.5688,238.77073 436.7679,250.49772 436.78669,257.22218 z" style="fill:#f2f2f2;fill-opacity:1;fill-rule:evenodd;stroke:#000000;stroke-width:1;stroke-linecap:round;stroke-miterlimit:4;stroke-dasharray:none;stroke-opacity:1" id="path58006"/>
        <path d="M 434.92889,256.71257 C 434.94842,263.66281 436.04004,269.23834 429.79982,272.67319 C 425.14051,275.23785 419.69395,273.4043 414.55386,268.36214 C 409.09105,263.00339 405.1347,251.78738 406.24368,244.38611 C 407.20436,237.97458 407.58821,233.01019 414.0896,231.56469 C 418.74533,230.52956 423.12406,233.53205 426.99674,237.04283 C 431.30329,240.94693 434.91275,250.96693 434.92889,256.71257 z" style="fill:#000000;fill-opacity:0.57142861;fill-rule:evenodd;stroke:none;stroke-width:3;stroke-linecap:round;stroke-miterlimit:4;stroke-dasharray:none;stroke-opacity:0.67346939" id="path58008"/>
      </g>
      <g transform="matrix(0.949521,0,0,0.980656,541.1876,203.9217)" style="display:inline" id="g58010">
        <path d="M 291.06565,278.27814 L 339.7621,251.56466 L 379.55405,239.32098 L 396.52825,237.09486 L 334.75332,284.67825 C 334.75332,284.67825 323.90097,290.52182 318.05739,291.63488 C 312.21382,292.74795 297.46575,296.92193 290.23085,291.35662 C 282.99595,285.79131 282.71768,284.39998 282.71768,284.39998 L 291.06565,278.27814 z" style="fill:#56647f;fill-opacity:1;fill-rule:evenodd;stroke:#000000;stroke-width:1px;stroke-linecap:butt;stroke-linejoin:miter;stroke-opacity:1" id="path58012"/>
        <path d="M 339.41682,283.27465 L 327.41426,297.63838 L 346.89383,298.03191" style="fill:#373737;fill-opacity:1;fill-rule:evenodd;stroke:#000000;stroke-width:1px;stroke-linecap:butt;stroke-linejoin:miter;stroke-opacity:1" id="path58014"/>
        <path d="M 413.50244,227.9121 C 413.50244,227.9121 399.3109,228.19036 387.34549,234.3122 C 375.38007,240.43404 365.08425,245.72109 353.67537,254.90385 C 342.26649,264.08661 336.97944,269.09538 336.97944,269.09538 C 336.97944,269.09538 336.42291,284.95651 339.20557,290.24356 C 341.98822,295.5306 343.37955,299.14805 349.22312,302.48724 C 355.0667,305.82642 357.84935,305.54816 357.84935,305.54816 C 357.84935,305.54816 372.04089,305.54816 385.67589,300.81764 C 399.3109,296.08713 407.65886,293.30448 415.72856,287.73917 C 423.79826,282.17386 431.86796,275.49549 431.86796,275.49549 L 413.50244,227.9121 z" style="fill:#e8eaf7;fill-opacity:1;fill-rule:evenodd;stroke:#000000;stroke-width:1px;stroke-linecap:butt;stroke-linejoin:miter;stroke-opacity:1" id="path58016"/>
        <path d="M 426.20609,274.14775 C 430.74202,273.512 430.67369,273.50331 430.50712,276.36647 C 422.36495,279.8356 416.26395,278.42382 410.32054,272.37713 C 404.00398,265.95079 399.84395,252.55034 400.71161,243.62447 C 401.82243,232.1971 403.44685,229.58866 412.53842,227.85518 C 412.25913,229.96866 412.36292,229.11418 413.29577,229.89913 C 393.28641,247.17391 417.90256,275.31156 426.20609,274.14775 z" style="fill:#e9b576;fill-opacity:1;fill-rule:evenodd;stroke:none;stroke-width:3;stroke-linecap:round;stroke-miterlimit:4;stroke-dasharray:none;stroke-opacity:0.67346939" id="path58018"/>
        <path d="M 436.78669,257.22218 C 436.8094,265.35645 438.07935,271.88182 430.81971,275.90183 C 425.39926,278.9034 419.06294,276.75749 413.08315,270.85635 C 406.72793,264.58469 402.12526,251.45794 403.41541,242.7958 C 404.53303,235.29201 404.97958,229.4819 412.54305,227.79014 C 417.95934,226.57867 423.0534,230.09266 427.55872,234.20153 C 432.5688,238.77073 436.7679,250.49772 436.78669,257.22218 z" style="fill:#f2f2f2;fill-opacity:1;fill-rule:evenodd;stroke:#000000;stroke-width:1;stroke-linecap:round;stroke-miterlimit:4;stroke-dasharray:none;stroke-opacity:1" id="path58020"/>
        <path d="M 434.92889,256.71257 C 434.94842,263.66281 436.04004,269.23834 429.79982,272.67319 C 425.14051,275.23785 419.69395,273.4043 414.55386,268.36214 C 409.09105,263.00339 405.1347,251.78738 406.24368,244.38611 C 407.20436,237.97458 407.58821,233.01019 414.0896,231.56469 C 418.74533,230.52956 423.12406,233.53205 426.99674,237.04283 C 431.30329,240.94693 434.91275,250.96693 434.92889,256.71257 z" style="fill:#000000;fill-opacity:0.57142861;fill-rule:evenodd;stroke:none;stroke-width:3;stroke-linecap:round;stroke-miterlimit:4;stroke-dasharray:none;stroke-opacity:0.67346939" id="path58022"/>
      </g>
    </g>
  </g>
</svg>