<?xml version="1.0" encoding="UTF-8" standalone="no"?>
<!-- Created with Inkscape (http://www.inkscape.org/) -->

<svg
   xmlns:dc="http://purl.org/dc/elements/1.1/"
   xmlns:cc="http://creativecommons.org/ns#"
   xmlns:rdf="http://www.w3.org/1999/02/22-rdf-syntax-ns#"
   xmlns:svg="http://www.w3.org/2000/svg"
   xmlns="http://www.w3.org/2000/svg"
   xmlns:sodipodi="http://sodipodi.sourceforge.net/DTD/sodipodi-0.dtd"
   xmlns:inkscape="http://www.inkscape.org/namespaces/inkscape"
   width="267.6615"
   height="303.46909"
   id="svg3893"
   version="1.1"
   inkscape:version="0.48.4 r9939"
   sodipodi:docname="Nuevo documento 2">
  <defs
     id="defs3895">
    <marker
       inkscape:stockid="Arrow1Mend"
       orient="auto"
       refY="0"
       refX="0"
       id="Arrow1Mend"
       style="overflow:visible">
      <path
         inkscape:connector-curvature="0"
         id="path6357"
         d="M 0,0 5,-5 -12.5,0 5,5 0,0 z"
         style="fill-rule:evenodd;stroke:#000000;stroke-width:1pt;marker-start:none"
         transform="matrix(-0.4,0,0,-0.4,-4,0)" />
    </marker>
    <marker
       inkscape:stockid="Arrow1Mend"
       orient="auto"
       refY="0"
       refX="0"
       id="marker3873"
       style="overflow:visible">
      <path
         inkscape:connector-curvature="0"
         id="path3875"
         d="M 0,0 5,-5 -12.5,0 5,5 0,0 z"
         style="fill-rule:evenodd;stroke:#000000;stroke-width:1pt;marker-start:none"
         transform="matrix(-0.4,0,0,-0.4,-4,0)" />
    </marker>
    <marker
       inkscape:stockid="Arrow1Mend"
       orient="auto"
       refY="0"
       refX="0"
       id="marker3877"
       style="overflow:visible">
      <path
         inkscape:connector-curvature="0"
         id="path3879"
         d="M 0,0 5,-5 -12.5,0 5,5 0,0 z"
         style="fill-rule:evenodd;stroke:#000000;stroke-width:1pt;marker-start:none"
         transform="matrix(-0.4,0,0,-0.4,-4,0)" />
    </marker>
  </defs>
  <sodipodi:namedview
     id="base"
     pagecolor="#ffffff"
     bordercolor="#666666"
     borderopacity="1.0"
     inkscape:pageopacity="0.0"
     inkscape:pageshadow="2"
     inkscape:zoom="0.35"
     inkscape:cx="72.45665"
     inkscape:cy="14.593871"
     inkscape:document-units="px"
     inkscape:current-layer="layer1"
     showgrid="false"
     fit-margin-top="10"
     fit-margin-right="10"
     fit-margin-left="10"
     fit-margin-bottom="10"
     inkscape:window-width="1317"
     inkscape:window-height="744"
     inkscape:window-x="49"
     inkscape:window-y="24"
     inkscape:window-maximized="1" />
  <metadata
     id="metadata3898">
    <rdf:RDF>
      <cc:Work
         rdf:about="">
        <dc:format>image/svg+xml</dc:format>
        <dc:type
           rdf:resource="http://purl.org/dc/dcmitype/StillImage" />
        <dc:title></dc:title>
      </cc:Work>
    </rdf:RDF>
  </metadata>
  <g
     inkscape:label="Capa 1"
     inkscape:groupmode="layer"
     id="layer1"
     transform="translate(-277.54335,-243.48697)">
    <g
       id="g3942">
      <path
         sodipodi:type="arc"
         style="fill:none;stroke:#000000;stroke-width:1.70722711;stroke-miterlimit:4;stroke-opacity:1;stroke-dasharray:3.41445422, 3.41445422;stroke-dashoffset:0;display:inline"
         id="path10874"
         sodipodi:cx="219.8419"
         sodipodi:cy="341.50198"
         sodipodi:rx="92.845848"
         sodipodi:ry="92.845848"
         d="m 312.68775,341.50198 c 0,51.27735 -41.5685,92.84585 -92.84585,92.84585 -51.27734,0 -92.84584,-41.5685 -92.84584,-92.84585 0,-51.27734 41.5685,-92.84584 92.84584,-92.84584 51.27735,0 92.84585,41.5685 92.84585,92.84584 z"
         transform="matrix(1.1714903,0,0,1.1714903,167.90604,10.667667)" />
      <path
         transform="matrix(0.34833698,0,0,0.34833698,344.60086,182.9224)"
         d="m 312.68775,341.50198 c 0,51.27735 -41.5685,92.84585 -92.84585,92.84585 -51.27734,0 -92.84584,-41.5685 -92.84584,-92.84585 0,-51.27734 41.5685,-92.84584 92.84584,-92.84584 51.27735,0 92.84585,41.5685 92.84585,92.84584 z"
         sodipodi:ry="92.845848"
         sodipodi:rx="92.845848"
         sodipodi:cy="341.50198"
         sodipodi:cx="219.8419"
         id="path11776"
         style="fill:none;stroke:#000000;stroke-width:5.74156666;stroke-miterlimit:4;stroke-opacity:1;stroke-dasharray:17.22470006, 17.22470006;stroke-dashoffset:0;display:inline"
         sodipodi:type="arc" />
      <path
         sodipodi:type="arc"
         style="fill:none;stroke:#000000;stroke-width:14.07746601;stroke-miterlimit:4;stroke-opacity:1;stroke-dasharray:none;stroke-dashoffset:0;display:inline"
         id="path11778"
         sodipodi:cx="219.8419"
         sodipodi:cy="341.50198"
         sodipodi:rx="92.845848"
         sodipodi:ry="92.845848"
         d="m 312.68775,341.50198 c 0,51.27735 -41.5685,92.84585 -92.84585,92.84585 -51.27734,0 -92.84584,-41.5685 -92.84584,-92.84585 0,-51.27734 41.5685,-92.84584 92.84584,-92.84584 51.27735,0 92.84585,41.5685 92.84585,92.84584 z"
         transform="matrix(0.14207102,0,0,0.14207102,392.61474,359.54841)" />
      <path
         transform="matrix(0.09933395,0,0,0.09933395,397.74136,235.40801)"
         d="m 312.68775,341.50198 c 0,51.27735 -41.5685,92.84585 -92.84585,92.84585 -51.27734,0 -92.84584,-41.5685 -92.84584,-92.84585 0,-51.27734 41.5685,-92.84584 92.84584,-92.84584 51.27735,0 92.84585,41.5685 92.84585,92.84584 z"
         sodipodi:ry="92.845848"
         sodipodi:rx="92.845848"
         sodipodi:cy="341.50198"
         sodipodi:cx="219.8419"
         id="path11780"
         style="fill:none;stroke:#000000;stroke-width:14.07746601;stroke-miterlimit:4;stroke-opacity:1;stroke-dasharray:none;stroke-dashoffset:0;display:inline"
         sodipodi:type="arc" />
      <path
         style="fill:none;stroke:#666666;stroke-width:2;stroke-linecap:butt;stroke-linejoin:miter;stroke-miterlimit:4;stroke-opacity:1;stroke-dasharray:none;display:inline"
         d="m 411.57516,270.93153 c -14.98349,2.87466 -31.98543,2.96777 -43.62594,14.28714 -25.58557,15.83643 -36.79921,48.48337 -31.96923,77.40985 0.81172,12.73946 5.32608,31.41246 21.20112,31.42362 17.67779,1.05104 17.45418,-24.08215 2.53355,-28.26973 -11.51989,-5.59591 -22.27168,3.56686 -32.18585,8.44127 -10.92044,5.96022 -18.50195,16.25107 -22.71804,27.77621 -7.07712,15.14407 -9.88461,33.68761 -1.26748,48.84698 7.87553,18.76673 21.60009,36.85739 42.13736,42.35176 20.73408,6.65705 47.47062,3.11234 60.64603,-15.79549 6.14973,-12.48713 -11.38124,-26.88625 -22.454,-18.32516 -11.57631,6.73485 -9.13069,22.58088 -4.26251,32.83405 5.79387,14.98604 16.71361,28.31235 31.77761,34.61509 13.28702,7.05498 28.92076,11.98619 43.94232,8.00126"
         id="path11784"
         inkscape:connector-curvature="0" />
      <text
         sodipodi:linespacing="125%"
         id="text12028"
         y="265.64322"
         x="435.95981"
         style="font-size:18px;font-style:normal;font-weight:normal;line-height:125%;letter-spacing:0px;word-spacing:0px;fill:#666666;fill-opacity:1;stroke:none;display:inline;font-family:Sans"
         xml:space="preserve"><tspan
           id="tspan12032"
           y="265.64322"
           x="435.95981"
           sodipodi:role="line"
           style="font-size:16px;font-weight:normal;-inkscape-font-specification:Sans">Planeta</tspan></text>
      <text
         xml:space="preserve"
         style="font-size:18px;font-style:normal;font-weight:normal;line-height:125%;letter-spacing:0px;word-spacing:0px;fill:#666666;fill-opacity:1;stroke:none;display:inline;font-family:Sans"
         x="433.82541"
         y="393.70645"
         id="text12045"
         sodipodi:linespacing="125%"><tspan
           style="font-size:16px;font-weight:normal;-inkscape-font-specification:Sans"
           sodipodi:role="line"
           x="433.82541"
           y="393.70645"
           id="tspan12047">Terra</tspan></text>
      <path
         style="fill:none;stroke:#000000;stroke-width:1px;stroke-linecap:butt;stroke-linejoin:miter;stroke-opacity:1;marker-end:url(#Arrow1Mend);display:inline"
         d="m 356.0811,278.40189 -23.47826,39.48616"
         id="path12054"
         inkscape:connector-curvature="0" />
      <path
         style="fill:none;stroke:#000000;stroke-width:1px;stroke-linecap:butt;stroke-linejoin:miter;stroke-opacity:1;marker-end:url(#Arrow1Mend);display:inline"
         d="m 295.25106,401.12917 -6.40317,37.35178"
         id="path12280"
         inkscape:connector-curvature="0" />
      <path
         style="fill:none;stroke:#000000;stroke-width:1px;stroke-linecap:butt;stroke-linejoin:miter;stroke-opacity:1;marker-end:url(#Arrow1Mend);display:inline"
         d="m 372.08901,401.12917 9.60474,-23.47826"
         id="path12506"
         inkscape:connector-curvature="0" />
    </g>
  </g>
</svg>
