<?xml version="1.0" encoding="UTF-8" standalone="no"?>
<!-- Created with Inkscape (http://www.inkscape.org/) -->

<svg
   xmlns:dc="http://purl.org/dc/elements/1.1/"
   xmlns:cc="http://creativecommons.org/ns#"
   xmlns:rdf="http://www.w3.org/1999/02/22-rdf-syntax-ns#"
   xmlns:svg="http://www.w3.org/2000/svg"
   xmlns="http://www.w3.org/2000/svg"
   xmlns:sodipodi="http://sodipodi.sourceforge.net/DTD/sodipodi-0.dtd"
   xmlns:inkscape="http://www.inkscape.org/namespaces/inkscape"
   width="354.33069"
   height="212.59842"
   id="svg2"
   version="1.1"
   inkscape:version="0.48.2 r9819"
   sodipodi:docname="angry_birds.svg">
  <defs
     id="defs4">
    <inkscape:perspective
       sodipodi:type="inkscape:persp3d"
       inkscape:vp_x="0 : 526.18109 : 1"
       inkscape:vp_y="0 : 1000 : 0"
       inkscape:vp_z="744.09448 : 526.18109 : 1"
       inkscape:persp3d-origin="372.04724 : 350.78739 : 1"
       id="perspective10" />
    <inkscape:perspective
       id="perspective2824"
       inkscape:persp3d-origin="0.5 : 0.33333333 : 1"
       inkscape:vp_z="1 : 0.5 : 1"
       inkscape:vp_y="0 : 1000 : 0"
       inkscape:vp_x="0 : 0.5 : 1"
       sodipodi:type="inkscape:persp3d" />
    <inkscape:perspective
       sodipodi:type="inkscape:persp3d"
       inkscape:vp_x="0 : 0.5 : 1"
       inkscape:vp_y="0 : 1000 : 0"
       inkscape:vp_z="1 : 0.5 : 1"
       inkscape:persp3d-origin="0.5 : 0.33333333 : 1"
       id="perspective2824-6" />
    <inkscape:perspective
       id="perspective10-8"
       inkscape:persp3d-origin="372.04724 : 350.78739 : 1"
       inkscape:vp_z="744.09448 : 526.18109 : 1"
       inkscape:vp_y="0 : 1000 : 0"
       inkscape:vp_x="0 : 526.18109 : 1"
       sodipodi:type="inkscape:persp3d" />
    <inkscape:perspective
       sodipodi:type="inkscape:persp3d"
       inkscape:vp_x="0 : 0.5 : 1"
       inkscape:vp_y="0 : 1000 : 0"
       inkscape:vp_z="1 : 0.5 : 1"
       inkscape:persp3d-origin="0.5 : 0.33333333 : 1"
       id="perspective4612" />
    <inkscape:perspective
       id="perspective4640"
       inkscape:persp3d-origin="372.04724 : 350.78739 : 1"
       inkscape:vp_z="744.09448 : 526.18109 : 1"
       inkscape:vp_y="0 : 1000 : 0"
       inkscape:vp_x="0 : 526.18109 : 1"
       sodipodi:type="inkscape:persp3d" />
    <inkscape:perspective
       sodipodi:type="inkscape:persp3d"
       inkscape:vp_x="0 : 0.5 : 1"
       inkscape:vp_y="0 : 1000 : 0"
       inkscape:vp_z="1 : 0.5 : 1"
       inkscape:persp3d-origin="0.5 : 0.33333333 : 1"
       id="perspective3926" />
    <inkscape:perspective
       id="perspective3947"
       inkscape:persp3d-origin="372.04724 : 350.78739 : 1"
       inkscape:vp_z="744.09448 : 526.18109 : 1"
       inkscape:vp_y="0 : 1000 : 0"
       inkscape:vp_x="0 : 526.18109 : 1"
       sodipodi:type="inkscape:persp3d" />
    <inkscape:perspective
       sodipodi:type="inkscape:persp3d"
       inkscape:vp_x="0 : 0.5 : 1"
       inkscape:vp_y="0 : 1000 : 0"
       inkscape:vp_z="1 : 0.5 : 1"
       inkscape:persp3d-origin="0.5 : 0.33333333 : 1"
       id="perspective2824-3" />
    <inkscape:perspective
       id="perspective10-3"
       inkscape:persp3d-origin="372.04724 : 350.78739 : 1"
       inkscape:vp_z="744.09448 : 526.18109 : 1"
       inkscape:vp_y="0 : 1000 : 0"
       inkscape:vp_x="0 : 526.18109 : 1"
       sodipodi:type="inkscape:persp3d" />
    <inkscape:perspective
       sodipodi:type="inkscape:persp3d"
       inkscape:vp_x="0 : 0.5 : 1"
       inkscape:vp_y="0 : 1000 : 0"
       inkscape:vp_z="1 : 0.5 : 1"
       inkscape:persp3d-origin="0.5 : 0.33333333 : 1"
       id="perspective2824-7" />
    <inkscape:perspective
       id="perspective10-33"
       inkscape:persp3d-origin="372.04724 : 350.78739 : 1"
       inkscape:vp_z="744.09448 : 526.18109 : 1"
       inkscape:vp_y="0 : 1000 : 0"
       inkscape:vp_x="0 : 526.18109 : 1"
       sodipodi:type="inkscape:persp3d" />
    <inkscape:perspective
       sodipodi:type="inkscape:persp3d"
       inkscape:vp_x="0 : 0.5 : 1"
       inkscape:vp_y="0 : 1000 : 0"
       inkscape:vp_z="1 : 0.5 : 1"
       inkscape:persp3d-origin="0.5 : 0.33333333 : 1"
       id="perspective4612-1" />
    <inkscape:perspective
       id="perspective4640-3"
       inkscape:persp3d-origin="372.04724 : 350.78739 : 1"
       inkscape:vp_z="744.09448 : 526.18109 : 1"
       inkscape:vp_y="0 : 1000 : 0"
       inkscape:vp_x="0 : 526.18109 : 1"
       sodipodi:type="inkscape:persp3d" />
  </defs>
  <sodipodi:namedview
     id="base"
     pagecolor="#ffffff"
     bordercolor="#666666"
     borderopacity="1.0"
     inkscape:pageopacity="0.0"
     inkscape:pageshadow="2"
     inkscape:zoom="3.2794224"
     inkscape:cx="177.73953"
     inkscape:cy="106.29921"
     inkscape:document-units="px"
     inkscape:current-layer="layer1"
     showgrid="false"
     inkscape:window-width="1280"
     inkscape:window-height="969"
     inkscape:window-x="-2"
     inkscape:window-y="-3"
     inkscape:window-maximized="1"
     units="cm"
     fit-margin-top="0"
     fit-margin-left="0"
     fit-margin-right="0"
     fit-margin-bottom="0" />
  <metadata
     id="metadata7">
    <rdf:RDF>
      <cc:Work
         rdf:about="">
        <dc:format>image/svg+xml</dc:format>
        <dc:type
           rdf:resource="http://purl.org/dc/dcmitype/StillImage" />
        <dc:title />
      </cc:Work>
    </rdf:RDF>
  </metadata>
  <g
     inkscape:label="Layer 1"
     inkscape:groupmode="layer"
     id="layer1"
     transform="translate(908.46429,-705.14374)">
    <path
       style="fill:#000000"
       d="m -855.79702,786.85665 c -3.03671,-0.43077 -6.16513,-1.72319 -8.84709,-3.65493 -0.87964,-0.63358 -1.94735,-1.55367 -2.37269,-2.04465 -1.31515,-1.5181 -1.98497,-3.61317 -2.21281,-6.92126 -0.0583,-0.84637 -0.13496,-1.53886 -0.17036,-1.53886 -0.108,0 -1.45411,0.93047 -1.8127,1.25299 l -0.33691,0.30302 -0.2183,-0.52248 c -0.53016,-1.26884 -0.54121,-1.24623 0.78743,-1.61035 0.65807,-0.18035 1.32403,-0.33593 1.47992,-0.34574 0.48825,-0.0307 -0.5791,-0.2471 -1.29983,-0.26349 -0.3732,-0.008 -1.34529,-0.13101 -2.1602,-0.27228 l -1.48166,-0.25684 0.0992,-0.52887 c 0.0897,-0.47789 0.76036,-1.978 0.88437,-1.978 0.028,0 0.71181,0.30887 1.51968,0.68639 0.80787,0.37752 1.81863,0.81796 2.24614,0.97876 l 0.77729,0.29236 -0.66939,-0.56409 c -0.36817,-0.31025 -0.97886,-0.85247 -1.35709,-1.20494 l -0.68769,-0.64085 0.70746,-0.67854 c 0.3891,-0.3732 0.77841,-0.67854 0.86513,-0.67854 0.0867,0 0.39432,0.46993 0.68357,1.04429 0.28924,0.57436 0.59127,1.0847 0.67118,1.13409 0.0799,0.0494 0.69884,-0.99521 1.37539,-2.32133 1.30782,-2.56346 2.09765,-3.62075 4.75161,-6.3607 l 1.26064,-1.30147 -0.86005,-0.24313 c -1.21296,-0.3429 -1.80657,-0.74013 -1.874,-1.25405 -0.0838,-0.63915 0.46358,-1.53673 1.1512,-1.88753 0.72017,-0.3674 2.62469,-0.52772 3.47317,-0.29236 0.32707,0.0907 0.61634,0.14329 0.64282,0.1168 0.0265,-0.0265 -0.0545,-0.29388 -0.18,-0.59422 -0.38355,-0.91795 -0.30124,-1.71217 0.23277,-2.24618 0.43873,-0.43873 0.50538,-0.45689 1.3842,-0.37721 2.1326,0.19338 5.3198,2.62662 6.76144,5.16198 0.55327,0.97302 1.13638,1.51102 2.62709,2.42387 1.31209,0.80348 4.38142,3.29008 5.15991,4.18028 2.37961,2.72107 3.87744,6.50017 3.86558,9.75309 -0.005,1.43217 -0.52935,4.45791 -1.05787,6.10689 -1.08201,3.37591 -5.37645,6.35655 -10.22943,7.0999 -1.48347,0.22724 -4.15427,0.2503 -5.57914,0.0482 z"
       id="path2854"
       inkscape:connector-curvature="0" />
    <path
       style="fill:#ffffff"
       d="m -848.9296,785.95576 c 1.43028,-0.3841 3.67113,-1.31249 4.37127,-1.81103 l 0.45804,-0.32616 -0.54849,-1.04378 c -0.30167,-0.57408 -0.59838,-1.04378 -0.65937,-1.04378 -0.061,0 -0.40881,0.25818 -0.77295,0.57373 -1.18318,1.0253 -1.62527,1.2768 -2.08329,1.1852 -0.49538,-0.0991 -1.56636,-0.72834 -3.37855,-1.98511 -1.44515,-1.00221 -1.70041,-1.41919 -1.5711,-2.56645 0.0696,-0.61767 0.0532,-0.64978 -0.3761,-0.73564 -0.66167,-0.13233 -3.05944,0.16984 -4.18513,0.52742 -0.53906,0.17124 -1.38724,0.50834 -1.88484,0.74912 -1.4262,0.6901 -4.59901,3.06895 -4.59901,3.44816 0,0.27755 2.16578,1.5176 3.61889,2.07205 3.07691,1.17402 4.42162,1.40723 7.76556,1.34679 2.09153,-0.0378 2.79931,-0.10968 3.84507,-0.39052 z"
       id="path2852"
       inkscape:connector-curvature="0" />
    <path
       style="fill:#ff0000"
       d="m -841.69839,781.71122 c 0,-0.28757 -1.55419,-1.19729 -2.01635,-1.18023 -0.0935,0.003 -0.43539,0.24056 -0.75966,0.52691 -0.54222,0.47879 -0.57086,0.5419 -0.35646,0.78535 0.12822,0.1456 0.41278,0.62322 0.63237,1.06138 l 0.39924,0.79665 1.05043,-0.94047 c 0.57773,-0.51726 1.05043,-0.98958 1.05043,-1.04959 z"
       id="path2850-5"
       inkscape:connector-curvature="0" />
    <path
       style="fill:#ffcc00"
       d="m -846.92339,782.02666 c 1.5287,-1.0291 2.68507,-1.97817 2.55954,-2.10069 -0.14816,-0.14463 -3.11605,-0.58778 -3.93647,-0.58778 -0.72869,0 -2.9335,0.66785 -3.1782,0.96269 -0.13513,0.16283 -0.0533,0.31063 0.38476,0.69528 0.50015,0.43915 2.78481,1.65936 3.10688,1.65936 0.0711,0 0.54971,-0.28299 1.06349,-0.62886 z"
       id="path2848"
       inkscape:connector-curvature="0" />
    <path
       style="fill:#ff0000"
       d="m -863.54428,781.83956 c 1.22651,-1.13554 3.27972,-2.45375 4.73738,-3.04153 1.41901,-0.57219 3.37407,-0.97438 4.87147,-1.00214 l 1.04245,-0.0193 0.41142,-0.65033 c 0.22629,-0.35768 0.84824,-1.03382 1.38212,-1.50255 0.53389,-0.46872 0.93687,-0.88604 0.89554,-0.92738 -0.1592,-0.1592 -2.53299,-0.006 -3.121,0.20159 -0.75787,0.26739 -0.92737,0.2734 -0.8391,0.0298 0.0376,-0.10367 -0.0416,-0.31453 -0.17592,-0.46858 -0.37809,-0.43366 -0.34739,-3.04436 0.0428,-3.63954 0.15785,-0.24078 0.2257,-0.46024 0.15079,-0.48768 -0.0749,-0.0274 -0.54335,-0.26928 -1.04094,-0.53742 -0.80924,-0.43606 -0.90258,-0.53505 -0.8844,-0.93792 0.0112,-0.24773 0.19405,-0.84058 0.40637,-1.31744 0.42651,-0.95794 0.75068,-1.09994 1.24629,-0.54594 0.67888,0.75885 5.83575,3.90096 6.40232,3.90096 0.20639,0 3.26371,-1.89816 3.98768,-2.47578 1.30649,-1.04238 1.57562,-1.1864 1.82707,-0.97771 0.12825,0.10643 0.43559,0.5945 0.68299,1.0846 0.42449,0.84091 0.43551,0.9069 0.19565,1.17195 -0.1398,0.15447 -0.50043,0.36198 -0.8014,0.46112 -0.30097,0.0992 -0.77563,0.27554 -1.05479,0.39199 l -0.50757,0.21172 0.30613,0.32993 c 0.16836,0.18146 0.42294,0.73706 0.56572,1.23466 0.14279,0.4976 0.28981,0.98491 0.32673,1.08292 0.0479,0.12725 -0.25034,0.17696 -1.0432,0.17385 -1.12235,-0.004 -2.29595,0.22346 -2.65117,0.51474 -0.14886,0.12206 -0.0568,0.23649 0.3983,0.49498 2.47131,1.40373 4.31319,3.43091 4.62436,5.0896 0.0578,0.30814 0.16222,0.56025 0.23203,0.56025 0.21232,0 0.99674,-2.68936 1.28641,-4.41042 0.2388,-1.41881 0.24991,-1.80215 0.0891,-3.07545 -0.23177,-1.83499 -0.69626,-3.66694 -1.15678,-4.5623 -1.60877,-3.12785 -5.18498,-6.60486 -8.39964,-8.16667 -0.40213,-0.19537 -0.77329,-0.50512 -0.87521,-0.7304 -0.43092,-0.9525 -1.89625,-2.91461 -3.11895,-4.17634 -1.06488,-1.09887 -1.56158,-1.48603 -2.491,-1.94167 -1.36567,-0.66949 -2.16479,-0.7517 -2.78989,-0.28701 -0.43904,0.32637 -0.60506,0.96548 -0.43097,1.6591 0.20678,0.82389 1.37797,1.80668 3.59572,3.01732 0.97445,0.53193 1.12592,0.65547 0.71065,0.57958 -0.77917,-0.14239 -2.23414,-0.85085 -3.0786,-1.49905 -0.95674,-0.73439 -1.44455,-0.92566 -2.68928,-1.05451 -1.20876,-0.12512 -2.27727,0.16401 -2.89722,0.78396 -0.50838,0.50837 -0.47123,1.16909 0.0891,1.58554 0.51212,0.38059 1.92516,0.70976 3.07221,0.71567 0.4976,0.003 1.00651,0.0704 1.1309,0.15083 0.16552,0.10697 0.0531,0.14679 -0.41896,0.14848 -0.98284,0.004 -2.19901,0.70624 -3.44125,1.9884 -2.51888,2.59983 -4.81252,6.34358 -5.62602,9.18297 -0.1765,0.61606 -0.39809,2.01889 -0.49242,3.1174 -0.15252,1.77611 -0.14119,2.14176 0.1023,3.30203 0.31824,1.51648 1.28231,3.59263 2.11129,4.54672 0.44423,0.51129 1.87922,1.52966 2.16578,1.537 0.0304,7.5e-4 0.45184,-0.36577 0.93657,-0.81454 z"
       id="path2846-5"
       inkscape:connector-curvature="0" />
    <path
       style="fill:#ffcc00"
       d="m -841.39023,780.31507 c 0,-1.01486 -0.57852,-2.15634 -1.68122,-3.3172 -1.1295,-1.18907 -3.22707,-2.67893 -4.27379,-3.03558 -0.614,-0.20922 -0.69306,-0.20275 -1.30742,0.10699 -1.82034,0.91773 -3.96957,2.94135 -3.86878,3.64266 0.0758,0.52778 1.21679,0.85342 4.42117,1.26186 1.57573,0.20084 3.23462,0.47257 3.68641,0.60384 0.91051,0.26455 2.49545,1.02375 2.6461,1.26751 0.17364,0.28095 0.37753,-0.005 0.37753,-0.53008 z"
       id="path2844-2"
       inkscape:connector-curvature="0" />
    <path
       style="fill:#ffffff"
       d="m -850.9244,779.72867 c 0.60058,-0.24138 1.05623,-0.47459 1.01256,-0.51826 -0.11707,-0.11707 -2.0477,-0.63972 -2.48587,-0.67295 -0.31757,-0.0241 -0.38406,0.0439 -0.422,0.43179 -0.0432,0.44152 0.47109,1.34884 0.70458,1.24303 0.0543,-0.0246 0.59016,-0.24224 1.19073,-0.48361 z"
       id="path2842"
       inkscape:connector-curvature="0" />
    <path
       style="fill:#ffffff"
       d="m -853.7241,770.616 c -0.39819,0.0255 -0.45781,0.33306 -0.63143,0.95185 -0.21273,0.75818 -0.10943,1.54348 0.32043,2.43144 0.32025,0.66156 0.35942,0.68742 0.80577,0.57959 0.25821,-0.0624 1.225,-0.1252 2.14872,-0.14136 1.42698,-0.025 1.75643,-0.0807 2.20526,-0.35812 0.53992,-0.33369 0.82658,-1.053 0.62671,-1.57385 -0.0572,-0.14914 -1.1028,-0.574 -2.81312,-1.14504 -1.52721,-0.5099 -2.26416,-0.77 -2.66234,-0.74451 z m 2.6482,1.65395 c 0.0469,-0.002 0.0965,0.004 0.14607,0.009 0.52126,0.0601 0.82871,0.71356 0.51362,1.09321 -0.20266,0.2442 -0.86172,0.31537 -1.15446,0.12252 -0.585,-0.38539 -0.20827,-1.20054 0.49477,-1.22515 z"
       id="path2840"
       inkscape:connector-curvature="0" />
    <path
       style="fill:#ffffff"
       d="m -843.70426,770.60186 c -0.18469,0.006 -1.1196,0.33302 -2.07333,0.72567 -1.71178,0.70473 -1.7329,0.72148 -1.77175,1.23457 -0.0475,0.62685 0.0341,0.74911 0.71624,1.06494 0.49207,0.22781 0.55324,0.22842 0.90472,-0.0188 0.20733,-0.14586 0.64839,-0.34163 0.98012,-0.43352 0.33173,-0.0919 0.95412,-0.16917 1.38065,-0.16963 0.9146,-0.001 1.04164,-0.17596 0.79634,-1.10735 -0.23108,-0.87742 -0.53827,-1.30797 -0.93299,-1.29583 z m -2.7613,1.54557 c 0.12034,4.6e-4 0.24519,0.0473 0.35812,0.16022 0.19204,0.19203 0.21128,0.3128 0.0848,0.51362 -0.22018,0.34962 -0.5666,0.4003 -0.80106,0.1178 -0.30542,-0.36801 -0.003,-0.79316 0.35812,-0.79164 z"
       id="path2836"
       inkscape:connector-curvature="0" />
    <path
       sodipodi:type="arc"
       style="opacity:0.93832601000000004;fill:none;fill-opacity:1;stroke:#000000"
       id="path4078"
       sodipodi:cx="121.21037"
       sodipodi:cy="88.948593"
       sodipodi:rx="5.031374"
       sodipodi:ry="3.8116469"
       d="m 126.24175,88.948593 c 0,2.105115 -2.25263,3.811647 -5.03138,3.811647 -2.77875,0 -5.03137,-1.706532 -5.03137,-3.811647 0,-2.105114 2.25262,-3.811647 5.03137,-3.811647 2.77875,0 5.03138,1.706533 5.03138,3.811647 z"
       transform="matrix(0.95019988,-0.31164111,0.31164111,0.95019988,-1016.7486,739.03357)" />
    <path
       transform="matrix(0.95019988,-0.31164111,0.31164111,0.95019988,-1031.6902,747.57165)"
       d="m 126.24175,88.948593 c 0,2.105115 -2.25263,3.811647 -5.03138,3.811647 -2.77875,0 -5.03137,-1.706532 -5.03137,-3.811647 0,-2.105114 2.25262,-3.811647 5.03137,-3.811647 2.77875,0 5.03138,1.706533 5.03138,3.811647 z"
       sodipodi:ry="3.8116469"
       sodipodi:rx="5.031374"
       sodipodi:cy="88.948593"
       sodipodi:cx="121.21037"
       id="path4080"
       style="opacity:0.93832601000000004;fill:none;fill-opacity:1;stroke:#000000"
       sodipodi:type="arc" />
    <path
       style="opacity:0.93832601000000004;fill:none;fill-opacity:1;stroke:#000000"
       d="m -902.05804,800.11249 c -0.39744,0.003 -0.80554,0.0713 -1.21875,0.15625 l 0,7.71875 c 0.53752,-0.0311 1.10266,-0.0997 1.65625,-0.28125 2.64037,-0.86597 4.24979,-3.18722 3.59375,-5.1875 -0.49203,-1.50021 -2.13502,-2.4192 -4.03125,-2.40625 z"
       id="path4082"
       inkscape:connector-curvature="0" />
    <path
       style="fill:#000000"
       d="m -672.73994,888.4782 c -0.87285,-0.0891 -2.13311,-0.25362 -2.80058,-0.36571 -6.17351,-1.03666 -10.68165,-8.60616 -9.23584,-15.50765 0.35283,-1.68423 0.57093,-2.31993 1.35998,-3.96401 0.71687,-1.49368 1.95629,-3.2835 2.9107,-4.20328 l 0.6643,-0.6402 -0.50085,-0.65665 c -0.63448,-0.83184 -0.80838,-2.46416 -0.35578,-3.3394 0.54198,-1.04808 1.33622,-1.44495 2.8917,-1.44495 1.3599,0 1.38169,0.008 1.988,0.70918 0.33717,0.39004 0.66901,1.00756 0.73743,1.37226 0.10819,0.57668 0.17758,0.64639 0.53252,0.53493 0.92967,-0.29194 2.18004,-0.44764 3.67906,-0.45813 l 1.59058,-0.0111 -0.004,-1.1798 c -0.003,-0.97805 0.0842,-1.31267 0.51006,-1.95672 0.84212,-1.27373 2.33394,-1.8216 3.62839,-1.33253 0.64388,0.24328 1.49555,1.02894 1.8492,1.70588 0.35248,0.67469 0.33998,2.38404 -0.0212,2.8997 -0.27327,0.39014 -0.24539,0.43154 0.70014,1.03991 1.41413,0.90986 2.77119,2.18776 4.17435,3.93082 1.37285,1.70542 3.07055,4.45121 3.53766,5.72165 0.1699,0.4621 0.38054,1.00821 0.46808,1.21359 0.39663,0.93048 0.59284,2.58546 0.51105,4.31061 -0.11948,2.52051 -0.7635,4.32869 -2.27121,6.37677 -1.30271,1.7696 -2.4757,2.79825 -4.11787,3.61115 -1.78598,0.88409 -2.98185,1.19786 -5.98495,1.57034 -2.42389,0.30065 -3.96706,0.31583 -6.44133,0.0634 z"
       id="path2858-3"
       inkscape:connector-curvature="0" />
    <path
       style="fill:#00ff00"
       d="m -666.44727,856.8801 c -0.0338,-5e-4 -0.0678,6.6e-4 -0.10167,0.002 -0.36129,0.0117 -0.72703,0.11298 -1.07021,0.31571 -0.82574,0.48778 -1.02892,0.97292 -1.03454,2.4704 l -0.005,1.37522 -1.58748,0.0517 c -0.87285,0.0288 -2.09151,0.1501 -2.70763,0.26933 -2.34087,0.45302 -2.3814,0.45353 -2.64521,0.0928 -0.13668,-0.18691 -0.24793,-0.52469 -0.24793,-0.75093 0,-0.60651 -0.97941,-1.57142 -1.59461,-1.57142 -0.77752,0 -1.91019,0.39103 -2.26171,0.77947 -0.17906,0.19786 -0.34945,0.77128 -0.39598,1.33241 -0.071,0.85614 -0.0178,1.06378 0.4049,1.56607 0.2677,0.31815 0.48694,0.712 0.48694,0.87579 0,0.1638 -0.40652,0.74545 -0.90254,1.29317 -1.69776,1.87473 -2.75869,3.70336 -3.59413,6.19652 -0.37792,1.12783 -0.43823,1.67708 -0.44235,4.01329 -0.004,2.48091 0.0386,2.827 0.50478,4.1328 1.09095,3.05567 2.82095,5.29467 5.17982,6.7013 2.00842,1.19766 4.14513,1.50121 9.80313,1.39305 2.82954,-0.0541 3.86759,-0.14702 5.13344,-0.46376 2.15153,-0.53831 3.73249,-1.33976 5.04426,-2.55423 1.60588,-1.48675 2.51564,-3.02143 3.34798,-5.65249 l 0.20334,-0.6457 -0.51727,0.4709 c -1.53968,1.39937 -3.92026,1.19656 -5.30825,-0.45128 l -0.49943,-0.59218 -0.43343,0.55829 c -0.94428,1.21298 -1.83831,1.82714 -3.70472,2.54532 -0.8752,0.33677 -4.35789,0.3341 -5.22619,-0.004 -2.11178,-0.82123 -3.0657,-1.49653 -3.91162,-2.77363 l -0.53689,-0.81158 -0.13377,0.60824 c -0.4963,2.25959 -3.13262,3.77098 -5.07102,2.9074 -0.71635,-0.31914 -1.7128,-1.23882 -2.07264,-1.91389 -0.44646,-0.83759 -0.42096,-3.21988 0.0428,-3.92767 0.9297,-1.41891 1.83553,-1.95401 3.30873,-1.95314 1.57377,9.3e-4 2.48376,0.51752 3.31766,1.88536 0.38099,0.62494 0.38637,0.62824 0.38706,0.14448 0.002,-1.29045 1.59224,-3.37525 3.19279,-4.18631 1.03082,-0.52236 3.06146,-1.01876 4.14885,-1.01492 1.04666,0.004 2.95096,0.46622 3.88665,0.94357 1.51177,0.77125 3.14998,2.67062 3.14998,3.65299 0,0.28471 0.0454,0.2785 0.41917,-0.0589 0.71319,-0.64382 1.6491,-0.99351 2.66125,-0.99351 1.03674,0 1.7833,0.28662 2.51143,0.96498 0.39062,0.36392 0.434,0.37315 0.3175,0.0696 -0.0743,-0.19365 -0.215,-0.71259 -0.31393,-1.15404 -0.53689,-2.3957 -2.98345,-6.26321 -5.59185,-8.84173 -0.98684,-0.97553 -2.12662,-1.94235 -2.53283,-2.14755 -1.10184,-0.5566 -1.20675,-0.76691 -0.79909,-1.61067 0.2979,-0.61658 0.31776,-0.83714 0.13556,-1.56072 -0.30306,-1.20357 -1.29655,-1.96383 -2.34376,-1.97811 z m 0.38884,1.64277 c 0.28964,0.004 0.56621,0.0783 0.74915,0.23009 0.38428,0.31893 0.39288,1.50187 0.0107,1.50187 -0.1844,0 -0.28003,-0.18302 -0.28003,-0.53868 0,-0.6162 -0.40612,-0.86294 -0.94536,-0.57434 -0.34362,0.1839 -0.47761,0.51436 -0.5904,1.45905 -0.0287,0.2408 -0.11383,0.37252 -0.19085,0.29431 -0.30504,-0.30976 -0.14511,-1.69792 0.23545,-2.04232 0.24569,-0.22235 0.63895,-0.33502 1.01134,-0.32998 z m -11.88468,1.6392 c 1.11424,-0.20244 1.92735,2.72548 0.89541,2.58278 -0.0915,-0.3498 0.0992,-1.01567 -0.20156,-1.43587 -0.234,-1.02097 -1.69665,-0.53804 -1.80866,0.3835 l -0.0571,0.47446 -0.36031,-0.39955 c -0.35553,-0.39535 -0.35435,-0.40682 0.0196,-0.90968 0.31635,-0.42537 0.96538,-0.70044 1.51257,-0.69564 z m 13.4793,20.84414 c 0.48452,-0.009 0.68565,0.10166 1.15226,0.46732 0.37425,0.29328 0.83687,0.62964 1.0274,0.74737 0.26873,0.16604 0.29631,0.26671 0.12486,0.44592 -0.17459,0.18249 -0.39669,0.12623 -1.05951,-0.26221 -0.46151,-0.27045 -1.03512,-0.49105 -1.27355,-0.49051 -0.23843,5.8e-4 -1.23088,0.38889 -2.20642,0.86331 -1.99338,0.96941 -3.00262,1.16528 -3.79746,0.73488 -0.29169,-0.15796 -0.8389,-0.52645 -1.21469,-0.81872 -0.97022,-0.75459 -1.20809,-0.80541 -2.66126,-0.56542 -1.86658,0.30826 -1.96696,-0.0824 -0.18372,-0.71348 1.49462,-0.52895 1.88809,-0.49274 3.43181,0.31393 l 1.45727,0.76163 1.43765,-0.47981 c 0.79056,-0.26375 1.58479,-0.56356 1.76585,-0.66531 0.18106,-0.10176 0.81109,-0.23379 1.40019,-0.29431 0.24483,-0.0251 0.43781,-0.0415 0.59932,-0.0446 z"
       id="path2856-3"
       sodipodi:nodetypes="csscccsssssssssssssccsccccccsscccsssssssssssssssssssccssssssscccccccsccsssssssssscccssc"
       inkscape:connector-curvature="0" />
    <path
       style="fill:#ffffff"
       d="m -678.92402,873.22264 c -1.3779,0 -2.02569,0.28395 -2.71655,1.18972 -0.17116,0.2244 -0.3065,0.4676 -0.39598,0.68315 0.12316,-0.06 0.26267,-0.0945 0.41024,-0.0945 0.50114,0 0.9079,0.38977 0.9079,0.87044 0,0.48068 -0.40676,0.87044 -0.9079,0.87044 -0.41122,0 -0.75904,-0.26275 -0.87043,-0.62251 l -0.005,0.4049 c -0.14988,1.14882 0.64247,2.97291 2.02627,3.2909 1.22728,0.60956 2.93418,0.30046 3.84562,-0.69564 0.67595,-0.73873 0.84011,-1.20957 0.84011,-2.41154 0,-1.40611 -0.318,-2.13844 -1.26819,-2.92167 -0.60169,-0.49596 -0.82792,-0.56365 -1.86574,-0.56365 z"
       id="path2846-3"
       inkscape:connector-curvature="0" />
    <path
       style="fill:#00ff00"
       d="m -668.07934,870.38437 c -2.3445,0.01 -4.76785,1.12748 -5.8594,2.81643 -0.42317,0.65477 -0.50211,0.98609 -0.50478,2.08513 -0.003,1.40859 0.35433,2.2426 1.37343,3.1928 1.52775,1.42445 4.66981,2.09641 6.98669,1.49294 1.98235,-0.51633 3.24465,-1.37602 4.14707,-2.82 0.56541,-0.90473 0.50188,-2.76561 -0.13199,-3.84384 -0.85623,-1.45646 -2.42046,-2.38614 -4.72677,-2.81109 -0.4199,-0.0774 -0.85008,-0.11423 -1.28425,-0.11237 z m -1.98702,3.68687 c 0.97406,0 1.50008,0.6019 1.50008,1.71412 0,1.66135 -1.51422,2.40276 -2.62916,1.28782 -1.135,-1.135 -0.43227,-3.00194 1.12908,-3.00194 z m 4.40213,0.005 c 0.0225,-8.3e-4 0.0449,-8e-5 0.0678,0 0.9869,0.006 1.88357,0.87326 1.88357,1.82114 0,0.52283 -0.53433,1.50879 -0.93465,1.72304 -0.66884,0.35795 -1.62236,0.22047 -2.02448,-0.29074 -1.01761,-1.29368 -0.40916,-3.20275 1.00778,-3.25344 z"
       id="path2844-1"
       inkscape:connector-curvature="0" />
    <path
       style="fill:#ffffff"
       d="m -657.96823,873.67183 c -0.59604,-0.004 -1.18911,0.0873 -1.58034,0.27291 -0.74075,0.35151 -1.15866,1.04004 -1.33063,2.19215 -0.11689,0.78309 -0.0744,0.96282 0.35852,1.5304 0.26997,0.35394 0.71976,0.76522 1.00065,0.91324 0.77103,0.40632 2.35597,0.37541 3.2142,-0.0624 0.72859,-0.3717 1.311,-1.0087 1.311,-1.43229 0,-0.0233 -0.007,-0.0466 -0.0214,-0.0696 -0.13053,0.0734 -0.2802,0.11594 -0.43879,0.11594 -0.51201,0 -0.92573,-0.43325 -0.92573,-0.96854 0,-0.53529 0.41372,-0.97032 0.92573,-0.97032 0.16054,0 0.31247,0.0426 0.44414,0.11772 -0.0592,-0.3241 -0.69295,-1.02969 -1.36095,-1.34668 -0.40211,-0.19081 -1.00035,-0.28865 -1.5964,-0.29253 z"
       id="path2838-4"
       inkscape:connector-curvature="0" />
    <path
       style="fill:#000000"
       d="m -743.42057,888.59487 c -2.90556,-0.19934 -7.45523,-0.81662 -8.98763,-1.21939 -0.95061,-0.24986 -1.9635,-0.45607 -2.25086,-0.45824 -0.79863,-0.006 -4.63011,-1.36753 -5.96703,-2.12035 -2.89733,-1.63148 -4.69037,-4.18761 -5.26709,-7.50868 -0.25428,-1.46433 -0.2524,-2.05711 0.0115,-3.61074 0.17363,-1.02234 0.38106,-2.32336 0.46097,-2.89115 0.0799,-0.5678 0.28638,-1.37004 0.45882,-1.78276 0.43858,-1.04968 2.1248,-2.60051 2.82752,-2.60051 0.39652,0 0.99668,-0.44188 1.97895,-1.45702 1.84082,-1.90244 4.87021,-3.34923 7.88538,-3.76595 l 0.94471,-0.13056 -0.19587,-1.04844 c -0.28194,-1.50916 0.15591,-3.74748 0.91149,-4.65952 1.2102,-1.46082 2.96619,-1.82166 4.10364,-0.84327 1.21164,1.04221 0.72421,2.52691 -1.30918,3.98776 -2.12587,1.52728 -2.09056,2.38443 0.0984,2.3893 0.77862,0.002 1.62898,0.0604 1.88969,0.13046 0.42245,0.11347 0.46397,0.0412 0.38163,-0.66406 -0.18179,-1.55722 1.38653,-3.3313 3.07922,-3.48319 1.75219,-0.15723 3.7711,0.99476 3.67345,2.09606 -0.12097,1.36426 -1.12848,2.14803 -2.76119,2.14803 -0.95601,0 -1.81644,0.37481 -1.61365,0.70292 0.0744,0.12039 0.32326,0.21889 0.55301,0.21889 1.1003,0 5.81636,3.79106 7.74078,6.22252 2.68501,3.39244 4.27929,7.32362 4.33888,10.69882 0.0239,1.35628 -0.46922,4.04622 -0.78473,4.28025 -0.0854,0.0634 -0.36789,0.53004 -0.62768,1.03704 -1.61843,3.15852 -5.80946,4.72722 -11.57309,4.33178 z"
       id="path2878-2"
       inkscape:connector-curvature="0" />
    <path
       style="fill:#d45500"
       d="m -744.81889,886.42151 c 0,-0.31481 0.63644,-0.24833 0.76984,0.0804 0.088,0.217 0.1757,0.20326 0.35528,-0.0557 0.18987,-0.27377 0.29666,-0.2855 0.52454,-0.0576 0.3406,0.34059 0.9745,0.38643 0.77009,0.0557 -0.0783,-0.12674 0.0106,-0.23045 0.19765,-0.23045 0.18704,0 0.38542,-0.12963 0.44083,-0.28806 0.0739,-0.21115 0.22229,-0.18038 0.55587,0.11522 0.72312,0.64079 0.99503,0.51576 0.74841,-0.34415 -0.48594,-1.69437 -0.0232,-2.06212 0.77994,-0.61978 0.24227,0.4351 0.5584,0.86728 0.70251,0.96041 0.36681,0.23702 0.83816,0.21731 0.83816,-0.035 0,-0.1823 -1.65112,-3.15905 -2.31141,-4.16718 -0.12453,-0.19012 -0.40203,-0.68586 -0.61669,-1.10164 -0.2681,-0.51932 -0.50211,-0.71246 -0.74754,-0.61698 -2.04814,0.79679 -5.71039,0.65074 -8.82829,-0.35208 -2.13159,-0.68559 -4.8419,-2.22765 -5.1007,-2.90208 -0.10722,-0.2794 -0.47948,-0.0625 -1.68571,0.982 -2.57907,2.23336 -3.98533,3.66982 -3.98533,4.07094 0,0.49913 0.37835,0.48735 0.66262,-0.0206 0.27596,-0.49312 0.52511,-0.28152 0.5707,0.48468 l 0.0342,0.57415 0.71856,-0.44396 c 1.00678,-0.62204 1.24028,-0.55876 1.24028,0.33612 0,1.01068 0.82068,1.57389 2.49614,1.71304 0.67576,0.0561 1.27669,0.22721 1.33539,0.38017 0.14949,0.38959 1.73373,0.29539 1.96225,-0.11668 0.10274,-0.18527 0.33958,-0.72575 0.52631,-1.20105 0.44954,-1.14428 0.81565,-1.09517 0.85903,0.11522 0.0193,0.53868 0.0592,1.08313 0.0886,1.20988 0.0295,0.12674 0.0655,0.35356 0.0801,0.50402 0.0177,0.18241 0.29841,0.22947 0.84224,0.14122 0.6317,-0.10251 0.8906,-0.0343 1.14788,0.30255 0.28831,0.37744 0.36279,0.38923 0.56352,0.0892 0.12722,-0.19012 0.23289,-0.63086 0.23484,-0.97942 0.005,-0.93553 0.35924,-0.77416 1.03813,0.47318 0.53325,0.97976 0.69375,1.10952 1.39709,1.12945 0.43705,0.0124 0.79463,-0.0709 0.79463,-0.18512 z"
       id="path2872-5"
       inkscape:connector-curvature="0" />
    <path
       style="fill:#00ff00"
       d="m -748.07256,854.46403 c -1.38752,0 -2.64464,1.22542 -2.99699,2.92268 -0.23269,1.12085 -0.17686,2.66994 0.13445,3.76127 0.0764,0.26792 -0.41995,0.46574 -2.20793,0.88105 l -2.307,0.53607 0.5909,0.70236 c 0.67762,0.80531 0.63623,1.24716 -0.10792,1.16235 -0.28259,-0.0322 -1.13696,0.10301 -1.9001,0.30076 -0.76313,0.19775 -1.44346,0.30448 -1.51087,0.23707 -0.21542,-0.21542 0.44483,-0.82444 0.89343,-0.82444 0.23798,0 0.43345,-0.15992 0.43345,-0.3556 0,-0.19568 0.12817,-0.33903 0.28661,-0.31846 0.73048,0.0949 1.07518,-0.0341 0.95181,-0.3556 -0.10429,-0.27177 -0.44562,-0.17261 -1.74441,0.50775 -1.72215,0.90215 -3.39963,2.54907 -2.90676,2.85369 0.15317,0.0947 0.35111,0.12847 0.43876,0.0743 0.19891,-0.12293 1.74504,0.50997 1.91425,0.78375 0.27301,0.44174 -0.19667,0.4542 -1.03497,0.0265 -0.52099,-0.26579 -1.3472,-0.45114 -2.01155,-0.45114 -2.02089,0 -3.32483,1.3883 -3.72766,3.96826 -0.10451,0.66933 -0.31329,1.89182 -0.46352,2.71569 -0.32297,1.77107 -0.16458,4.03452 0.38391,5.50922 0.47775,1.28452 1.65882,3.17962 2.40785,3.86388 1.60864,1.46957 4.7758,2.83046 8.51151,3.65513 0.94477,0.20855 2.13262,0.4737 2.63962,0.58913 1.18486,0.26978 4.24373,0.62251 7.02894,0.81205 1.20411,0.082 2.22265,0.17665 2.26277,0.21054 0.18648,0.15744 3.34001,-0.14468 4.61579,-0.4423 1.68975,-0.39419 3.22934,-1.24811 4.22833,-2.34593 0.70945,-0.77963 2.14814,-3.09606 1.9231,-3.09606 -0.0628,0 -0.0222,-0.24053 0.0902,-0.53606 0.74894,-1.96985 0.32231,-5.70611 -0.97305,-8.50974 -0.8895,-1.92525 -2.8629,-4.83623 -4.35039,-6.41858 -1.88218,-2.00221 -5.19906,-4.35066 -6.14613,-4.35218 -0.38636,-6.2e-4 -0.61246,-0.19752 -0.79967,-0.69352 -0.14353,-0.38024 -0.33646,-0.68998 -0.42814,-0.68998 -0.16726,0 -0.10119,-0.58095 0.15746,-1.39588 0.19347,-0.60959 1.41324,-1.42772 2.12832,-1.42772 0.64529,0 1.24643,0.61359 1.06504,1.08627 -0.13278,0.34602 -1.09208,0.81559 -1.66656,0.81559 -0.22331,0 -0.60672,0.15279 -0.85275,0.33968 -0.40387,0.30679 -0.30326,0.32595 1.04913,0.19815 2.38062,-0.22497 3.38327,-0.99909 2.7723,-2.1407 -0.57972,-1.08323 -2.99357,-1.53713 -4.37518,-0.82267 -0.88353,0.45689 -1.51899,2.06143 -1.17473,2.96691 0.13376,0.35184 0.24414,0.67328 0.24414,0.71298 0,0.0537 -3.16406,-0.0119 -4.62993,-0.0955 -0.34684,-0.0198 -0.66466,-1.204 -0.43699,-1.62941 0.19713,-0.36833 0.1723,-0.41751 -0.15038,-0.29368 -0.34421,0.13208 -0.37175,0.0103 -0.24061,-1.09689 0.25347,-2.14014 1.8251,-3.79443 2.82007,-2.96868 0.58988,0.48955 0.35748,1.21432 -0.76252,2.38485 -0.74469,0.77829 -0.84885,0.94737 -0.32729,0.52721 0.42165,-0.33968 0.863,-0.61744 0.98189,-0.61744 0.28168,0 1.12939,-1.39284 1.13051,-1.85764 0.002,-0.7096 -0.88908,-1.36934 -1.85056,-1.36934 z m -0.56791,13.02292 c 2.60973,-0.002 2.84088,0.0355 4.11157,0.67936 1.51502,0.76764 2.75132,1.90806 3.70466,3.41628 l 0.64397,1.01905 0.55729,-0.5166 c 0.30658,-0.28413 0.7884,-0.55885 1.07036,-0.61214 0.79769,-0.15074 3.00124,0.35263 3.11906,0.71298 0.0801,0.24489 -0.0276,0.28233 -0.44407,0.15392 -0.30215,-0.0931 -1.0686,-0.22415 -1.70372,-0.29014 -0.90579,-0.0941 -1.26773,-0.0273 -1.68071,0.30783 -0.54859,0.44521 -0.6193,0.84508 -0.37153,2.09471 l 0.14685,0.74482 0.49713,-0.74482 c 0.73809,-1.10535 1.85264,-1.6039 3.29067,-1.47019 0.65413,0.0608 1.45016,0.28043 1.76741,0.4883 0.61259,0.40138 1.20636,1.4592 1.39058,2.47508 0.35805,1.97459 -1.78427,4.18614 -3.84443,3.96649 -1.16369,-0.12407 -2.32014,-0.88936 -2.78822,-1.84525 -0.43297,-0.88421 -0.4451,-0.89161 -0.61037,-0.3273 -0.0928,0.31688 -0.17843,0.75388 -0.19107,0.97128 -0.0315,0.54139 1.28532,1.99785 1.96025,2.16724 0.64818,0.16269 0.73792,0.54845 0.12738,0.54845 -0.44341,0 -2.19013,-1.52485 -2.39547,-2.09117 -0.0922,-0.25432 -0.18392,-0.26622 -0.40868,-0.0548 -0.23043,0.21671 0.0725,0.91052 1.47196,3.37205 1.06631,1.87554 1.70674,3.24411 1.62234,3.46405 -0.23549,0.61365 -1.01257,0.70121 -1.70019,0.19284 l -0.62982,-0.46529 0.0973,0.51306 c 0.0956,0.50036 0.0454,0.51079 -2.28224,0.54137 -1.30923,0.0172 -2.87618,0.0767 -3.48352,0.13092 -1.0632,0.0949 -1.11616,0.071 -1.41711,-0.64929 -0.27476,-0.65761 -0.91734,-1.37989 -0.78198,-0.87928 0.1039,0.38421 -0.31044,1.22604 -0.60328,1.22604 -0.16606,0 -0.42897,-0.1545 -0.5856,-0.34322 -0.15663,-0.18873 -0.35315,-0.2995 -0.43699,-0.24769 -0.0838,0.0518 -0.50422,0.0225 -0.93412,-0.0655 -0.66558,-0.13612 -0.82014,-0.2956 -1.03851,-1.07389 l -0.25653,-0.91466 -0.30961,0.74836 c -0.28808,0.69548 -0.3781,0.74237 -1.28973,0.6829 -0.53893,-0.0352 -1.1225,-0.1816 -1.29681,-0.32553 -0.1743,-0.14393 -0.78304,-0.31125 -1.35341,-0.37153 -0.57038,-0.0603 -1.42657,-0.29546 -1.90187,-0.52367 -0.69785,-0.33506 -0.86336,-0.54099 -0.86336,-1.06859 l 0,-0.65459 -0.9129,0.46706 c -1.15235,0.58789 -1.23837,0.58213 -1.11458,-0.0655 0.0884,-0.46238 0.0221,-0.51782 -0.5166,-0.43876 -0.79037,0.11601 -1.03083,-0.44018 -0.57321,-1.32511 0.18552,-0.35877 1.47288,-1.70922 2.85899,-3.00052 2.46373,-2.29523 2.51482,-2.36435 2.31054,-3.07661 -0.34804,-1.21355 -0.23963,-2.05638 0.42638,-3.31543 0.83999,-1.58799 2.01933,-2.80049 3.53835,-3.6392 1.18222,-0.65275 1.37361,-0.68621 4.00719,-0.68821 z m -11.91364,0.57498 c 1.71675,-0.001 2.79224,0.80644 3.28359,2.468 0.62794,2.12345 -1.02054,4.21418 -3.32251,4.21418 -1.02587,0 -1.22072,-0.092 -2.1354,-1.00666 -0.90084,-0.90083 -1.00666,-1.1206 -1.00666,-2.08232 0,-2.2295 1.20671,-3.59148 3.18098,-3.5932 z m 24.48364,1.84171 c 0.91411,0 1.83287,0.53937 1.83287,1.07566 0,0.15477 0.1857,0.41644 0.41222,0.58206 0.22652,0.16563 0.43266,0.58734 0.45822,0.9359 0.0256,0.34856 0.0214,0.62829 -0.009,0.62098 -0.0303,-0.007 -0.39191,-0.24226 -0.80497,-0.52014 -0.41306,-0.27788 -0.91964,-0.74878 -1.1252,-1.04735 -0.20556,-0.29858 -0.72841,-0.68987 -1.16057,-0.87044 -0.98165,-0.41015 -0.79488,-0.77667 0.39629,-0.77667 z m 3.50474,4.18234 c 0.033,9.3e-4 0.0861,0.0284 0.15746,0.0725 0.85242,0.52682 1.19668,2.87101 0.59268,4.03903 -0.41625,0.80494 -1.73026,1.78703 -1.73026,1.29327 0,-0.0507 0.36312,-0.45512 0.80674,-0.89874 0.66154,-0.66155 0.80675,-0.97754 0.80675,-1.75857 0,-0.52374 -0.15664,-1.32476 -0.34677,-1.77979 -0.29061,-0.69555 -0.37917,-0.94647 -0.29898,-0.96597 0.004,-9.3e-4 0.008,-0.002 0.0124,-0.002 z m -25.57522,0.59091 c 0.0639,-0.005 0.0712,0.0467 0.0301,0.15391 -0.41534,1.08236 -2.82943,1.45336 -3.81258,0.5856 -0.46784,-0.41293 -0.4795,-0.45689 -0.0832,-0.30607 0.2535,0.0965 0.94883,0.21964 1.54626,0.27246 0.84748,0.0749 1.24046,-0.0138 1.7851,-0.40161 0.27779,-0.1978 0.45208,-0.29783 0.5343,-0.30429 z"
       id="path2876-8"
       inkscape:connector-curvature="0" />
    <path
       style="fill:#00ff00"
       d="m -749.39237,867.97524 c -1.53157,0.009 -1.80003,0.11595 -2.94568,0.76252 -1.70271,0.96095 -2.48475,1.80466 -3.36321,3.62681 -0.84003,1.74242 -0.7491,2.61387 0.41929,3.97888 2.65649,3.1035 10.10486,4.6499 13.55544,2.81476 1.43204,-0.7616 1.83527,-1.72082 1.6418,-3.90811 -0.23428,-2.64854 -2.31259,-5.4803 -4.86878,-6.63619 -1.20048,-0.54284 -1.68854,-0.62684 -3.69935,-0.6369 -0.27653,-0.001 -0.52072,-0.003 -0.73951,-0.002 z m -1.51088,2.8413 c 0.38666,0.0105 0.80618,0.25127 1.24904,0.72536 1.48324,1.58782 0.4679,4.58394 -1.55334,4.58394 -0.19162,0 -0.65208,-0.30179 -1.02258,-0.67228 -0.7627,-0.7627 -0.82121,-1.29965 -0.30607,-2.78292 0.43368,-1.24871 0.98851,-1.87166 1.63295,-1.8541 z m 5.27392,0.93943 c 0.42149,0.015 1.25258,0.87864 1.25258,1.30212 0,0.23666 0.14954,0.64446 0.3326,0.90582 0.18307,0.26136 0.37522,0.77752 0.42814,1.14642 0.099,0.69007 -0.38271,1.93725 -0.74836,1.93725 -0.11313,0 -0.34426,0.0454 -0.51306,0.10085 -0.1688,0.0555 -0.52804,0.0124 -0.79967,-0.0973 -0.88512,-0.35754 -1.23489,-1.14471 -1.23489,-2.77938 0,-1.29266 0.0794,-1.59651 0.53253,-2.02217 0.29335,-0.27559 0.63155,-0.49781 0.75013,-0.4936 z"
       id="path2870-8"
       inkscape:connector-curvature="0" />
    <path
       style="fill:#ffffff"
       d="m -735.83083,873.46404 c -0.14004,4.1e-4 -0.28621,0.006 -0.43699,0.0195 -1.55462,0.13402 -2.47753,1.05976 -2.629,2.63608 -0.14674,1.52714 0.36729,2.49448 1.62942,3.07129 1.05895,0.48395 1.90072,0.4219 3.03414,-0.22292 0.43295,-0.24631 0.85507,-0.79385 1.13758,-1.47549 0.44522,-1.07428 0.44613,-1.09259 0,-2.17786 -0.52135,-1.26799 -1.38147,-1.85483 -2.73515,-1.85056 z m 0.74482,2.95807 c 0.3183,0.008 0.62629,0.23249 0.62629,0.56613 0,0.5862 -0.97411,0.77409 -1.18358,0.22823 -0.0796,-0.20754 -0.0381,-0.48379 0.092,-0.61391 0.12913,-0.12913 0.29856,-0.18476 0.46529,-0.18045 z"
       id="path2860-8"
       inkscape:connector-curvature="0" />
    <path
       style="fill:#ffffff"
       d="m -760.55362,868.5103 c -1.22664,0.006 -2.4166,0.71088 -2.79707,1.86471 -0.90585,2.7471 2.16694,5.04032 4.43533,3.31013 1.5589,-1.18903 1.55055,-3.75733 -0.0159,-4.72547 -0.49998,-0.309 -1.06478,-0.452 -1.62234,-0.44937 z m 1.52149,2.42554 c 0.0621,-0.001 0.12929,0.008 0.20169,0.0265 0.54557,0.14267 0.61821,0.58505 0.15922,0.96597 -0.23955,0.19881 -0.38347,0.17958 -0.60152,-0.0832 -0.3575,-0.43077 -0.19378,-0.90036 0.24061,-0.90936 z"
       id="path2850-1"
       inkscape:connector-curvature="0" />
    <path
       style="fill:#000000"
       d="m -583.76713,846.94018 c -0.01,0 -0.0202,0.003 -0.0285,0.006 0.0466,1.24669 -0.02,2.21053 -0.074,3.15537 -0.17309,1.80834 -0.58202,4.64596 -0.70626,4.84698 -0.0576,0.0933 -0.22898,0.17086 -0.37591,0.17086 -0.45769,0 -0.67447,0.89331 -0.34174,1.40113 0.15834,0.24164 0.2491,0.57527 0.19935,0.74612 -0.0498,0.17086 -0.22415,0.78486 -0.3873,1.36126 -0.32118,1.13467 -0.48293,1.21568 -1.86247,0.93977 l -0.54109,-0.10821 0.62652,-1.45808 c 0.34607,-0.80044 0.71436,-1.96159 0.82017,-2.58012 0.1707,-0.99779 0.15324,-1.21849 -0.18226,-1.97638 -0.56343,-1.27277 -1.46253,-1.69357 -3.59963,-1.6916 -2.0315,0.002 -3.1598,0.4461 -4.35146,1.72008 -1.54234,1.64889 -1.57885,3.67513 -0.0911,5.36527 0.39143,0.44469 0.65259,0.84842 0.57526,0.89422 -0.0773,0.0458 -0.51147,0.14258 -0.96256,0.21643 -0.45109,0.0738 -1.36393,0.33112 -2.02764,0.56956 -0.66371,0.23845 -1.24875,0.43287 -1.2986,0.43287 -0.0499,0 -0.13195,-0.33992 -0.18796,-0.75752 -0.22557,-1.68171 -2.06741,-3.1997 -4.09515,-3.37749 -1.52921,-0.13409 -3.32077,0.74515 -4.39702,1.9422 l -0.47843,0.84296 c -0.34909,0.61555 -0.17957,1.44913 -0.0285,2.02764 l 0.47843,0.9113 c 0.40041,0.75689 1.66201,1.62904 2.43203,1.79412 0.31999,0.0686 0.64255,0.16084 0.71765,0.20504 0.0751,0.0442 -0.3592,0.66884 -0.96826,1.38973 -0.60905,0.7209 -1.42984,1.84311 -1.82259,2.49469 l -0.71765,1.18469 c -0.78911,1.44709 -0.9171,3.19874 -1.03661,4.82988 -0.0885,1.61083 -0.0424,2.13559 0.28478,3.32625 0.45738,1.25091 0.70865,2.56072 1.66882,3.66798 3.279,4.90251 9.69858,7.22205 19.98025,7.22205 0.0691,0 0.12568,1.4e-4 0.19365,0 0.30614,-0.0443 0.61898,-0.041 0.92838,-0.0513 0.45261,-0.015 0.90259,-0.009 1.35556,0.006 2.79108,-0.10954 4.43464,-0.44856 6.31645,-1.22456 2.75278,-1.13515 5.46929,-3.46823 6.72083,-5.77536 0.93918,-1.47231 0.94991,-1.85872 1.24734,-3.93567 0.3163,-1.8099 0.26313,-5.11698 -0.10252,-6.33353 -0.16695,-0.398 -0.0183,-0.967 -1.31569,-3.14968 -1.27558,-2.16622 -3.569,-4.31806 -5.88927,-5.53045 -0.55526,-0.29014 -1.00794,-0.61181 -1.00813,-0.71765 -1.8e-4,-0.10584 0.16824,-0.69504 0.37592,-1.30999 0.32458,-0.96117 0.44726,-1.12481 0.86573,-1.1733 0.62819,-0.0728 1.02323,-0.83264 0.7746,-1.48656 -0.15029,-0.39532 -0.0449,-0.64141 0.75752,-1.79412 0.51141,-0.73467 1.61785,-2.01607 2.46051,-2.85351 0.84267,-0.83743 1.49529,-1.55756 1.45238,-1.60047 -0.0987,-0.0987 -3.9439,0.937 -4.79571,1.29291 -0.35056,0.14647 -0.884,0.44659 -1.18469,0.66069 -0.30068,0.21411 -0.60267,0.33203 -0.67208,0.262 -0.24957,-0.25181 -0.0506,-2.39689 0.31895,-3.45155 0.44687,-1.27534 0.43595,-1.20177 0.131,-1.20177 -0.47061,0 -1.95295,1.33643 -2.66555,2.40355 -0.70791,1.0601 -0.72265,1.07333 -0.82586,0.56956 -0.0849,-0.41444 -0.82011,-2.37311 -1.3043,-3.47433 l -0.43857,-0.59234 -0.37591,-0.63791 c -0.242,-0.41017 -0.43191,-0.61513 -0.54108,-0.61513 z"
       id="path4398-1"
       inkscape:connector-curvature="0" />
    <path
       style="fill:#ffff00"
       d="m -583.31169,847.92167 -0.14239,1.91373 c -0.0776,1.05255 -0.2603,2.62623 -0.41009,3.49712 -0.25041,1.45595 -0.24836,1.62648 0.0342,2.11877 0.28876,0.50308 0.28884,0.56431 -0.006,1.01382 -0.17239,0.26311 -0.41881,0.47843 -0.54678,0.47843 -0.19881,0 -1.15253,2.69761 -0.99673,2.81933 0.0293,0.0229 0.83042,0.22427 1.78273,0.44426 0.9523,0.21999 2.42861,0.67393 3.28067,1.00813 0.85207,0.33419 1.59377,0.61459 1.64604,0.62651 0.0523,0.0119 0.24326,-0.48982 0.42717,-1.11634 0.18391,-0.62652 0.32593,-1.50125 0.31326,-1.94221 -0.0246,-0.85612 0.34902,-1.47516 0.88852,-1.47516 0.16521,0 0.66019,-0.51261 1.09925,-1.13912 0.43906,-0.62652 1.32672,-1.69274 1.97638,-2.36938 0.70135,-0.73047 1.06859,-1.23026 0.89991,-1.23026 -0.86317,0 -4.32882,1.36559 -4.60776,1.81691 -0.24985,0.40426 -0.63603,0.15148 -0.84864,-0.55817 -0.21606,-0.72113 -0.10318,-1.91129 0.31895,-3.44586 0.11089,-0.40311 0.0327,-0.36955 -0.67778,0.31326 -0.44169,0.4245 -1.13337,1.30641 -1.53212,1.9593 -0.39875,0.65288 -0.76759,1.1902 -0.82017,1.19038 -0.0526,1.8e-4 -0.19671,-0.62709 -0.31896,-1.39543 -0.14974,-0.94113 -0.47203,-1.90755 -0.99103,-2.96172 l -0.76891,-1.5663 z m 2.70542,7.13662 c 0.14634,0.003 0.29851,0.0306 0.45565,0.0854 1.15998,0.40438 1.47567,2.00436 0.57526,2.90477 -0.61328,0.61328 -1.34463,0.69269 -1.97069,0.21074 -1.30616,-1.00551 -0.47486,-3.2277 0.93978,-3.20094 z"
       id="path4396-6"
       inkscape:connector-curvature="0" />
    <path
       style="fill:#00ff00"
       d="m -590.37427,852.07428 c -1.33461,0.0467 -2.75479,0.53794 -3.72494,1.4296 -1.88761,1.73488 -1.1945,5.43508 1.10495,5.89497 0.63978,0.12795 0.67628,0.60373 0.0456,0.60373 -0.94143,0 -3.32033,0.58933 -4.8185,1.19608 -1.75172,0.70945 -1.996,0.75818 -1.60616,0.30757 1.08799,-1.25762 -0.21707,-3.47894 -2.42634,-4.13503 -1.18925,-0.35314 -1.32746,-0.35569 -2.50607,-0.006 -1.24191,0.3688 -2.46516,1.52246 -2.75099,2.59151 -0.531,1.98602 1.07517,3.88395 3.49711,4.13502 0.42688,0.0443 0.80408,0.0854 0.84295,0.0911 0.0389,0.006 -0.58368,0.69276 -1.38403,1.52642 -2.51128,2.61581 -3.60302,4.94424 -3.89581,8.28714 -0.12545,1.43237 -0.10407,2.16467 0.0911,3.09841 0.70765,3.38493 2.94405,6.33522 6.16267,8.12196 2.26027,1.25474 6.43995,2.43556 10.09834,2.84781 2.34051,0.26375 9.40128,0.0904 11.00394,-0.26769 5.46597,-1.2213 9.32356,-4.76265 10.32047,-9.47752 0.40517,-1.91629 0.40631,-5.41475 0,-6.99422 -1.46368,-5.68965 -7.74313,-10.10484 -16.01609,-11.26594 -1.80151,-0.25284 -2.15255,-0.35496 -2.07891,-0.59235 0.0487,-0.15706 0.3951,-0.97763 0.76891,-1.8226 0.49129,-1.11051 0.70492,-1.87936 0.76891,-2.77376 0.0869,-1.21378 0.0754,-1.24595 -0.53539,-1.85678 -0.67436,-0.67436 -1.78412,-0.98101 -2.96172,-0.93977 z m -0.53539,3.3832 c 0.41562,-0.004 0.8613,0.0884 1.28721,0.29047 1.23335,0.58527 1.35378,2.20788 0.23922,3.20664 -0.78178,0.70055 -1.5141,0.66732 -2.28395,-0.10252 -0.74161,-0.74162 -1.13568,-1.99701 -0.81447,-2.59721 0.27342,-0.51088 0.8793,-0.7904 1.57199,-0.79738 z m -11.64185,4.07237 c 0.16807,-0.0129 0.31631,0.0384 0.53539,0.14239 0.27858,0.13228 0.65059,0.52639 0.82586,0.87712 0.37344,0.7473 0.42785,2.51819 0.0911,2.96173 -0.2109,0.2778 -0.29881,0.27563 -1.20177,-0.0342 -1.21797,-0.41788 -1.89091,-0.90921 -2.11878,-1.54921 -0.24925,-0.70007 0.33206,-1.73094 1.21887,-2.16433 0.29333,-0.14336 0.48123,-0.22062 0.6493,-0.23352 z m 12.79806,5.39945 c 1.8334,-0.007 3.81348,0.50005 5.92345,1.52642 1.74065,0.84672 3.54496,2.13954 4.25463,3.04146 l 0.43287,0.54109 0.56956,-0.43287 c 1.09597,-0.833 1.81155,-1.09913 2.94464,-1.09925 3.53436,-3.7e-4 5.96818,3.61793 4.48815,6.67527 -1.04804,2.16495 -2.88851,2.59178 -5.99749,1.40112 l -1.32708,-0.50691 -0.25061,0.49552 c -0.44217,0.85506 -1.73618,1.9936 -2.92755,2.58011 -0.98105,0.48297 -1.16454,0.65412 -1.25873,1.15622 -0.14844,0.79125 -1.11133,1.67744 -2.31243,2.13585 -1.2801,0.48858 -4.01354,0.6164 -5.56462,0.262 -0.61261,-0.13997 -1.44311,-0.42129 -1.84538,-0.62652 -0.78929,-0.40266 -1.68591,-1.34451 -1.68591,-1.77133 0,-0.14516 -0.22554,-0.35159 -0.50121,-0.45565 -1.25242,-0.47278 -2.14789,-1.04581 -2.79655,-1.78273 l -0.70626,-0.79739 -0.60943,0.53539 c -1.76744,1.55183 -5.31998,1.1589 -7.31318,-0.80878 -0.87193,-0.86076 -1.5578,-2.28347 -1.5549,-3.23511 0.007,-2.24295 2.14687,-4.06233 4.99506,-4.24324 1.58568,-0.10072 2.59099,0.15772 3.59393,0.92269 l 0.76891,0.58665 0.60943,-1.21317 c 0.40998,-0.81949 0.98525,-1.56568 1.77134,-2.30103 1.82948,-1.71139 3.94213,-2.5767 6.29936,-2.58581 z m 12.38228,0.0456 c 0.14118,0.001 0.27198,0.019 0.393,0.0456 0.59793,0.13132 1.62332,0.91475 1.62326,1.24164 -4e-5,0.15013 -0.71069,0.21074 -2.44343,0.21074 -2.26971,0 -2.43118,-0.0226 -2.27255,-0.31896 0.33087,-0.6182 1.71148,-1.1891 2.69972,-1.17899 z m -23.30648,1.40682 c 0.72564,0 0.99821,0.0956 1.43529,0.50121 0.66625,0.61836 0.81879,1.39555 0.28479,1.44669 -0.20049,0.0192 -1.06167,-0.13326 -1.91373,-0.34174 -1.22464,-0.29962 -1.69478,-0.34418 -2.23838,-0.19934 -0.92774,0.24719 -0.99746,0.0162 -0.17087,-0.55248 0.9462,-0.65099 1.56237,-0.85434 2.6029,-0.85434 z"
       id="path4394-2"
       inkscape:connector-curvature="0" />
    <path
       style="fill:#00ff00"
       d="m -580.71818,855.63507 c 0.11747,-7e-5 0.23875,0.017 0.35882,0.0626 0.91962,0.34964 1.16157,1.66771 0.43287,2.35229 -0.70297,0.66041 -1.54597,0.45636 -1.93082,-0.47274 -0.37408,-0.90311 0.31679,-1.94171 1.13913,-1.9422 z"
       id="path4390-2"
       inkscape:connector-curvature="0" />
    <path
       style="fill:#00ff00"
       d="m -584.75069,855.37861 c 0.14089,-0.007 0.29665,0.0327 0.44426,0.14239 0.26783,0.19904 0.29723,0.31873 0.1367,0.58096 -0.26082,0.42603 -0.68554,0.50348 -0.95687,0.17656 -0.3467,-0.41775 -0.0467,-0.87894 0.37591,-0.89991 z"
       id="path4388-0"
       inkscape:connector-curvature="0" />
    <path
       style="fill:#008000"
       d="m -590.85575,855.81261 c 0.79919,-0.004 1.66924,0.40282 1.90803,1.0309 0.22648,0.59568 0.0716,1.1067 -0.52399,1.74286 -0.79985,0.85429 -1.83822,0.54923 -2.4776,-0.72334 -0.40888,-0.81381 -0.36757,-1.43409 0.11391,-1.77134 0.26779,-0.18756 0.61638,-0.27714 0.97965,-0.27908 z"
       id="path4384-4"
       inkscape:connector-curvature="0" />
    <path
       style="fill:#00ff00"
       d="m -576.86025,857.74045 c 0.40865,0.008 0.741,0.54255 0.46135,1.06508 -0.1073,0.20048 -0.30038,0.36452 -0.42717,0.36452 -0.57557,0 -0.8724,-0.81921 -0.44996,-1.24165 0.1337,-0.13369 0.27957,-0.19047 0.41578,-0.18795 z"
       id="path4382-3"
       inkscape:connector-curvature="0" />
    <path
       style="fill:#008000"
       d="m -602.60925,859.98035 c 0.7458,-0.0244 1.32708,0.88717 1.32708,2.38077 0,0.99737 -0.0513,1.02236 -1.179,0.60943 -1.542,-0.56461 -1.98613,-1.6021 -1.07647,-2.51177 0.31703,-0.31703 0.63655,-0.46889 0.92839,-0.47843 z"
       id="path4378-2"
       inkscape:connector-curvature="0" />
    <path
       style="fill:#008000"
       d="m -577.69076,865.33198 c 0.0737,-0.002 0.14433,-0.003 0.21643,0 0.3461,0.0141 0.66709,0.0817 0.90561,0.20504 0.31762,0.16425 0.57526,0.38076 0.57526,0.47843 0,0.0977 -0.10253,0.16107 -0.22783,0.14239 -0.1253,-0.0187 -0.92497,-0.0802 -1.77703,-0.13669 -1.36615,-0.0906 -1.49997,-0.13295 -1.14482,-0.33604 0.38976,-0.2229 0.93611,-0.34209 1.45238,-0.35313 z"
       id="path4372-7"
       inkscape:connector-curvature="0" />
    <path
       style="fill:#00ff00"
       d="m -589.76484,865.40773 c -3.96427,0.092 -7.39829,2.60111 -8.47509,6.64679 -0.33549,1.26058 -0.337,3.63257 -0.006,4.4255 1.20383,2.88118 5.40842,4.20288 11.36846,3.56546 4.62205,-0.49433 6.87664,-1.66731 8.01944,-4.1635 0.62078,-1.35597 0.64941,-3.2305 0.0626,-4.44259 -1.02507,-2.1175 -3.53261,-4.02025 -7.04549,-5.34249 -1.19025,-0.44801 -2.38188,-0.67044 -3.53698,-0.68917 -0.12892,-0.002 -0.25942,-0.003 -0.3873,0 z m -3.04716,4.8071 c 1.13604,0.005 2.39033,0.51619 2.70542,1.10495 0.25969,0.48523 0.13966,3.00802 -0.17087,3.58825 -0.58569,1.09438 -1.40134,1.22842 -2.52316,0.41578 -0.90168,-0.65318 -1.87386,-2.47387 -1.87386,-3.5142 0,-1.07313 0.62021,-1.59993 1.86247,-1.59478 z m 6.53858,0.72335 c 0.0896,-0.002 0.18941,0 0.30186,0 2.14957,0 3.0187,1.41064 1.89665,3.08133 -0.98739,1.47019 -2.22506,1.89136 -2.93325,0.99104 -0.20994,-0.2669 -0.4346,-0.68569 -0.49552,-0.92839 -0.14334,-0.57114 0.032,-2.02425 0.31896,-2.65416 0.17839,-0.39153 0.28445,-0.47504 0.9113,-0.48982 z"
       id="path4370-2"
       inkscape:connector-curvature="0" />
    <path
       style="fill:#008000"
       d="m -600.7917,866.76755 c 0.96433,-0.007 1.70869,0.45242 1.70869,1.13912 0,0.24377 -0.0244,0.24111 -1.45808,-0.17656 -0.65158,-0.18982 -1.38335,-0.34961 -1.62895,-0.35313 -0.65041,-0.009 -0.25126,-0.31482 0.68348,-0.524 0.23943,-0.0536 0.47233,-0.0839 0.69486,-0.0854 z"
       id="path4366-8"
       inkscape:connector-curvature="0" />
    <path
       style="fill:#ffffff"
       d="m -575.62373,868.883 c -0.96055,0.0107 -1.89984,0.34138 -2.62568,1.0366 l -0.47843,0.45565 0.37021,0.94547 c 0.37975,0.97152 0.5095,2.88514 0.262,3.79898 -0.1456,0.53759 -0.21839,0.48159 1.6916,1.1733 1.34301,0.48637 2.70355,0.55959 3.42877,0.18226 1.73249,-0.90141 2.35516,-3.22286 1.38973,-5.16023 -0.78548,-1.57625 -2.43728,-2.44997 -4.0382,-2.43203 z m 2.68264,3.83885 c 0.58206,0 0.9113,0.30241 0.9113,0.84295 0,0.3476 -0.58684,0.97965 -0.9113,0.97965 -0.0556,0 -0.28412,-0.12874 -0.50691,-0.28479 -0.75334,-0.52765 -0.42001,-1.53781 0.50691,-1.53781 z"
       id="path4364-8"
       inkscape:connector-curvature="0" />
    <path
       style="fill:#ffffff"
       d="m -602.35515,869.90205 c -1.04249,0 -2.92208,0.65599 -3.68507,1.28721 -0.89895,0.7437 -1.24451,1.44539 -1.25304,2.54595 -0.0254,3.27414 4.22708,5.65754 7.43279,4.1635 1.18882,-0.55406 1.42613,-0.91362 1.15621,-1.73147 -0.14943,-0.45278 -0.19327,-1.34048 -0.131,-2.65416 l 0.0911,-1.97069 -0.56387,-0.55247 c -0.61465,-0.60094 -1.97837,-1.08787 -3.04715,-1.08787 z m -2.09599,4.25463 c 0.14727,-0.003 0.30025,0.0281 0.44995,0.10822 0.46722,0.25005 0.63731,0.81437 0.3873,1.28152 -0.28199,0.52693 -1.37247,0.51535 -1.65742,-0.0171 -0.34669,-0.64779 0.182,-1.35798 0.82017,-1.37265 z"
       id="path4362-2"
       inkscape:connector-curvature="0" />
    <path
       style="fill:#008000"
       d="m -592.91441,870.61233 c 0.3962,-0.002 0.8643,0.0792 1.38404,0.25631 0.69554,0.23699 0.87706,0.39905 1.04799,0.91699 0.33356,1.0107 -0.12214,3.20913 -0.73473,3.53698 -0.4051,0.21681 -0.36763,0.2212 -0.82017,-0.0285 -1.11725,-0.6164 -2.27435,-2.38326 -2.27825,-3.48002 -0.003,-0.77635 0.52947,-1.19772 1.40112,-1.20178 z"
       id="path4358-3"
       inkscape:connector-curvature="0" />
    <path
       style="fill:#008000"
       d="m -586.11975,871.32998 c 0.14683,-0.005 0.3169,0.006 0.51261,0.0285 2.00911,0.22645 2.14572,2.082 0.2506,3.37181 -0.73207,0.49824 -0.82011,0.50127 -1.25873,0.0626 -0.44961,-0.44961 -0.63191,-1.30983 -0.48413,-2.29534 0.12565,-0.83788 0.34339,-1.14637 0.97965,-1.1676 z"
       id="path4354-5"
       inkscape:connector-curvature="0" />
    <path
       style="fill:#800000"
       d="m -583.62112,880.04287 c 0.16214,-0.002 0.20505,0.0932 0.20505,0.34174 0,0.59754 -1.14383,1.58175 -2.20421,1.89664 -2.69798,0.80122 -6.28562,0.29422 -7.76313,-1.09925 -0.36409,-0.34338 -0.62046,-0.66676 -0.56957,-0.71765 0.0509,-0.0509 0.90464,-0.003 1.89665,0.10822 2.05216,0.23035 6.27554,-0.0276 8.23017,-0.50122 0.0832,-0.0202 0.151,-0.0278 0.20504,-0.0285 z"
       id="path4311-4"
       inkscape:connector-curvature="0" />
  </g>
</svg>
