<?xml version="1.0" encoding="UTF-8" standalone="no"?>
<!-- Created with Inkscape (http://www.inkscape.org/) -->

<svg
   xmlns:dc="http://purl.org/dc/elements/1.1/"
   xmlns:cc="http://creativecommons.org/ns#"
   xmlns:rdf="http://www.w3.org/1999/02/22-rdf-syntax-ns#"
   xmlns:svg="http://www.w3.org/2000/svg"
   xmlns="http://www.w3.org/2000/svg"
   xmlns:sodipodi="http://sodipodi.sourceforge.net/DTD/sodipodi-0.dtd"
   xmlns:inkscape="http://www.inkscape.org/namespaces/inkscape"
   width="308"
   height="400"
   id="svg2"
   version="1.1"
   inkscape:version="0.48.1 r9760"
   sodipodi:docname="Nuevo documento 1">
  <defs
     id="defs4" />
  <sodipodi:namedview
     id="base"
     pagecolor="#ffffff"
     bordercolor="#666666"
     borderopacity="1.0"
     inkscape:pageopacity="0.0"
     inkscape:pageshadow="2"
     inkscape:zoom="0.51625"
     inkscape:cx="-3.3596127"
     inkscape:cy="131.80486"
     inkscape:document-units="px"
     inkscape:current-layer="layer1"
     showgrid="false"
     fit-margin-top="0"
     fit-margin-left="0"
     fit-margin-right="0"
     fit-margin-bottom="0"
     inkscape:window-width="1366"
     inkscape:window-height="691"
     inkscape:window-x="0"
     inkscape:window-y="24"
     inkscape:window-maximized="1" />
  <metadata
     id="metadata7">
    <rdf:RDF>
      <cc:Work
         rdf:about="">
        <dc:format>image/svg+xml</dc:format>
        <dc:type
           rdf:resource="http://purl.org/dc/dcmitype/StillImage" />
        <dc:title></dc:title>
      </cc:Work>
    </rdf:RDF>
  </metadata>
  <g
     inkscape:label="Capa 1"
     inkscape:groupmode="layer"
     id="layer1"
     transform="translate(-143.14284,-98.076469)">
    <path
       style="fill:#000000"
       d="m 158.82668,492.17091 c 1.65674,-3.58419 16.4106,-18.81865 16.4106,-16.94519 0,0.57074 -3.4875,4.5044 -7.75,8.74145 -4.2625,4.23706 -8.3189,8.60374 -9.01422,9.70374 -0.69532,1.1 -0.53619,0.425 0.35362,-1.5 z m 120.41434,1.75 c 0.007,-2.18447 4.06027,-8.09436 8.85575,-12.91065 7.06816,-7.09885 11.64819,-12.8735 14.14886,-17.83935 5.2402,-10.40602 16.40954,-23.99752 24.39273,-29.68251 2.80441,-1.99707 8.47392,-7.20335 12.59892,-11.56952 4.125,-4.36617 9.75,-9.24526 12.5,-10.84244 8.54145,-4.96078 16.91153,-8.90206 19,-8.94666 2.65513,-0.0567 9.04689,-3.50284 7.85881,-4.23711 -0.51284,-0.31696 -5.41587,-1.944 -10.89562,-3.61566 -5.47976,-1.67166 -13.11319,-4.15073 -16.96319,-5.50905 -17.87378,-6.30604 -29.03313,-9.39725 -30.09411,-8.33627 -0.29539,0.29539 0.84244,2.98144 2.52852,5.969 3.79416,6.72289 3.86458,9.63055 0.31559,13.0307 -1.5125,1.44907 -2.975,2.61841 -3.25,2.59854 -0.275,-0.0199 -2.37665,-0.37931 -4.67034,-0.79874 l -4.17034,-0.7626 -2.61258,7.16326 c -1.43692,3.93979 -3.98053,8.82281 -5.65247,10.85116 -2.53937,3.0807 -3.67114,3.6879 -6.87391,3.6879 -3.98153,0 -27.7018,-7.31536 -30.60592,-9.4389 -1.66209,-1.21536 -1.46161,-3.55636 1.21939,-14.23832 0.49358,-1.96656 -0.0766,-2.39563 -5.13937,-3.86741 -3.132,-0.9105 -6.54952,-2.51043 -7.5945,-3.55541 -1.04498,-1.04498 -2.46246,-1.91364 -3.14996,-1.93037 -0.7126,-0.0173 -0.51549,-0.45863 0.45847,-1.02645 0.93965,-0.54782 1.50688,-1.54663 1.2605,-2.21959 -0.692,-1.89013 0.43886,-3.05183 8.7933,-9.03307 4.31731,-3.09092 7.28756,-5.85067 6.69263,-6.21835 -0.58829,-0.36359 -6.78131,-0.59291 -13.76226,-0.50961 -6.98095,0.0833 -31.14264,-0.10222 -53.69264,-0.41229 -22.55,-0.31007 -42.3125,-0.56072 -43.91667,-0.557 -5.32665,0.0124 -2.19194,-0.80269 5.41667,-1.40838 14.90294,-1.18636 53.81192,-1.05879 69.20039,0.22689 11.56574,0.96629 16.24477,1.02039 17.76755,0.20542 1.38131,-0.73926 5.41341,-0.87584 12.15289,-0.41167 l 10.08574,0.69465 -1.68491,-3.25825 c -1.61409,-3.12132 -5.061,-8.73963 -11.98918,-19.54189 -4.44301,-6.92743 -4.63176,-7.80762 -2.44527,-11.40301 2.47182,-4.06458 3.39844,-4.36221 10.24053,-3.28926 3.11974,0.48922 5.67566,0.62012 5.67981,0.29088 0.0307,-2.43457 2.23806,-14.09157 3.05965,-16.15804 1.26333,-3.17758 5.78047,-5.94057 9.71209,-5.94057 3.71306,0 3.8247,-0.42071 6.23626,-23.5 0.5747,-5.5 1.30589,-11.63792 1.62487,-13.63981 0.45709,-2.86868 0.1553,-4.00336 -1.42446,-5.35577 -6.46631,-5.53573 -8.3594,-7.68823 -7.87405,-8.95303 0.29656,-0.77284 -0.0888,-1.92639 -0.85642,-2.56344 -1.09368,-0.90766 -2.12895,-0.59894 -4.78495,1.42689 -3.79114,2.89165 -9.58665,3.36366 -15.70054,1.27872 -4.0438,-1.379 -5.1519,-4.76324 -2.51402,-7.67806 0.90568,-1.00077 1.56352,-2.42616 1.46187,-3.16754 -0.44475,-3.24384 0.21766,-5.09684 2.61689,-7.32038 3.43945,-3.18758 3.3523,-6.43838 -0.42502,-15.85314 -1.72685,-4.30406 -3.13972,-8.76392 -3.13972,-9.9108 0,-2.22531 5.47874,-7.76364 7.68011,-7.76364 1.84939,0 1.748,-10.73113 -0.14418,-15.25976 -1.03405,-2.47483 -1.20399,-4.41087 -0.57857,-6.59156 0.84841,-2.95824 0.74222,-3.11442 -2.53593,-3.7294 -2.92247,-0.54826 -3.42143,-1.04797 -3.42143,-3.42654 0,-2.78224 -0.008,-2.78546 -9.25,-3.66309 -10.28345,-0.97654 -12.75,-0.73438 -12.75,1.2518 0,0.7415 -0.9,1.82985 -2,2.41855 -1.1,0.5887 -2,1.96866 -2,3.06657 0,1.09791 -0.68073,2.25742 -1.51273,2.57669 -2.1385,0.82062 -4.48727,-1.44659 -4.48727,-4.33145 0,-4.3 -1.66611,-6.03465 -6.49114,-6.75821 -3.28448,-0.49254 -4.99922,-1.37235 -6.17647,-3.16906 -2.39506,-3.65532 -0.56738,-4.92739 4.21098,-2.93087 3.62839,1.51604 3.73528,1.50754 2.2836,-0.18159 -2.05501,-2.39114 -2.88464,-4.95823 -2.1886,-6.77208 0.9716,-2.53195 3.32586,-1.67494 5.49413,2 1.13578,1.925 2.49604,3.5 3.02281,3.5 0.52677,0 0.18993,-1.29984 -0.74854,-2.88853 -1.79306,-3.03542 -1.28528,-6.56658 0.84376,-5.86754 0.68721,0.22564 2.14947,1.73706 3.24947,3.35871 5.73631,8.45665 5.36555,8.24937 16.67179,9.32065 5.73949,0.54382 11.12672,1.25403 11.97161,1.57824 0.8449,0.32422 2.11337,-0.10599 2.81883,-0.95602 0.70546,-0.85003 2.05553,-1.54551 3.00016,-1.54551 2.91171,0 4.5308,-6.77568 3.07209,-12.85628 -1.12395,-4.68515 -1.02838,-5.4773 1.26537,-10.4875 1.90833,-4.16834 2.36228,-6.47421 1.96625,-9.98775 -0.41864,-3.71418 -0.0243,-5.40541 2.1095,-9.04641 1.908,-3.25576 2.6244,-5.87627 2.6244,-9.59979 0,-8.96812 4.44467,-13.97574 11.16864,-12.58325 1.83225,0.37945 8.28136,0.9984 14.33136,1.37544 6.05,0.37705 11.675,1.13554 12.5,1.68554 0.825,0.55 6.225,1.25816 12,1.57369 7.32785,0.40037 11.55652,1.12649 13.99713,2.40348 3.14561,1.64586 4.21952,1.7084 10.6838,0.62221 6.63797,-1.11538 7.49408,-1.05075 11.21303,0.84652 2.32969,1.18852 5.95953,2.0541 8.61395,2.0541 5.58268,0 8.60011,2.74251 10.50567,9.54849 0.69786,2.49254 2.5553,6.15068 4.12763,8.1292 4.30068,5.4117 3.90564,9.36536 -1.64121,16.42562 -3.71498,4.72858 -4.5,6.46278 -4.5,9.94103 0,3.41056 -0.66681,4.95133 -3.5,8.08734 -2.70532,2.99446 -3.5,4.73622 -3.5,7.6712 0,2.08841 -0.44198,4.2391 -0.98219,4.77931 -0.64292,0.64292 0.22064,1.62995 2.5,2.85747 1.91521,1.0314 3.48219,2.43876 3.48219,3.12746 0,0.77901 2.73957,1.69905 7.25,2.43478 3.9875,0.65044 8.94014,1.54386 11.00586,1.98538 4.33898,0.92739 4.92658,0.36262 5.70908,-5.48728 0.45549,-3.40516 0.92458,-4.04518 3.15436,-4.30381 3.34872,-0.38842 4.11177,2.10858 2.26528,7.41289 -1.6217,4.65858 -1.58997,4.39092 -0.52058,4.39092 0.4752,0 2.12619,-1.82134 3.66886,-4.04742 1.99544,-2.87942 3.40544,-3.9616 4.886,-3.75 3.25147,0.46467 3.19893,4.31357 -0.10126,7.4186 l -2.8176,2.65097 3.5,-0.61955 c 4.15322,-0.73517 6.33326,0.37295 5.83747,2.96723 -0.36655,1.91805 -3.36768,3.121 -13.33747,5.34607 -2.75,0.61375 -5.54715,1.885 -6.21589,2.82501 -2.72804,3.8346 -3.57209,4.31013 -7.12487,4.01404 -3.1552,-0.26294 -3.65924,-0.64931 -3.65924,-2.80495 0,-1.63344 0.7799,-2.84216 2.25,-3.48713 1.64558,-0.72195 2.25,-1.83006 2.25,-4.125 0,-3.41887 0.0427,-3.39925 -11.72893,-5.3913 -5.02444,-0.85025 -5.34895,-0.76484 -8.29775,2.18396 -2.71187,2.71187 -3.57303,3.01198 -7.40379,2.5802 l -4.33498,-0.48862 -0.62239,4.54086 c -0.34232,2.49747 -1.29639,5.28561 -2.12016,6.19587 -0.82377,0.91025 -1.99647,4.31814 -2.606,7.57308 -0.60954,3.25495 -1.20969,6.36808 -1.33368,6.91808 -0.124,0.55 -0.57775,3.15529 -1.00835,5.78954 l -0.78292,4.78953 -6.63052,-0.57477 c -3.64679,-0.31613 -7.41803,-0.81425 -8.38053,-1.10693 -1.45721,-0.44311 -1.75,0.11638 -1.75,3.34411 0,4.59641 -1.59477,6.998 -4.93904,7.43778 -2.24456,0.29516 -2.57855,1.07827 -4.1885,9.82074 -0.9622,5.225 -2.13533,11.56993 -2.60696,14.09985 -0.54091,2.90157 -0.48353,5.19273 0.15542,6.20567 0.70413,1.11628 0.61415,2.70859 -0.29516,5.22324 -1.16965,3.2346 -1.11742,3.75686 0.49351,4.93479 1.56153,1.14182 1.63499,1.683 0.55128,4.06147 -1.19913,2.63182 -1.46351,2.71578 -6.46042,2.05175 -2.86557,-0.3808 -6.97146,-0.89754 -9.1242,-1.14829 -2.15274,-0.25076 -4.51496,-0.95462 -5.24939,-1.56414 -1.58169,-1.31269 -1.19297,-9.40791 0.53472,-11.1356 1.4877,-1.4877 1.44857,-5.45546 -0.0588,-5.95791 -1.43864,-0.47954 -5.24056,3.1356 -5.49638,5.22636 -0.72908,5.95849 -2.97304,37.62693 -2.70117,38.121 0.18709,0.34001 2.55096,0.91147 5.25306,1.26991 7.21518,0.95713 9.84362,3.4557 10.68035,10.15263 0.68246,5.46228 0.72699,5.52212 5.70034,7.6616 l 5.0125,2.15632 -0.52234,7.62077 -0.52233,7.62076 3.64173,1.94991 c 2.72573,1.45945 3.86961,2.87213 4.54768,5.61632 1.29231,5.23001 -0.49927,8.75613 -8.02647,15.79746 -3.50871,3.28222 -6.37947,6.20808 -6.37947,6.50191 0,0.29382 1.02154,0.53422 2.2701,0.53422 2.95916,0 16.9675,3.87157 18.12417,5.00908 0.84435,0.83037 4.73622,-2.01906 13.17497,-9.64606 1.90897,-1.72534 4.81183,-3.69244 6.45081,-4.37132 3.0732,-1.27297 3.72112,-2.41559 1.97995,-3.4917 -2.07325,-1.28134 -0.99946,-6.43103 2.0699,-9.92683 5.5813,-6.35675 12.09348,-8.26009 15.47544,-4.52307 1.59462,1.76204 1.6891,2.49045 0.67238,5.18406 -0.65062,1.72367 -0.98943,3.32746 -0.75293,3.56396 0.23651,0.23651 2.05621,-0.57503 4.04379,-1.80342 2.31786,-1.43252 3.41383,-2.75452 3.05619,-3.68651 -1.4125,-3.68092 4.6861,-8.31467 8.35728,-6.34991 1.27106,0.68025 3.35706,0.36148 7.18452,-1.0979 5.38291,-2.05245 15.26972,-4.49726 21.89343,-5.41381 4.88375,-0.67579 -4.76269,2.33389 -11.47552,3.58034 -7.42294,1.37831 -15.36273,4.88809 -16.06528,7.10165 -0.78383,2.46961 -5.014,5.25626 -6.88766,4.53727 -0.79414,-0.30474 -2.55273,0.31813 -3.90796,1.38416 -1.35524,1.06603 -3.52146,2.05339 -4.81383,2.19413 -1.29236,0.14073 -2.57475,0.48509 -2.84975,0.76524 -1.60723,1.63731 -9.1899,5.99064 -10.43455,5.99064 -2.02702,0 -11.61507,5.69285 -14.06545,8.35127 -1.1,1.19339 -3.71706,3.44801 -5.81568,5.01026 -2.09862,1.56224 -3.55624,3.09988 -3.23915,3.41697 0.31708,0.31709 3.47119,1.55067 7.00911,2.74129 5.90107,1.98589 6.57735,2.03319 8.18439,0.57249 1.62403,-1.47615 1.65423,-1.46289 0.41406,0.18189 -1.63973,2.17469 -1.85503,2.01166 5.44727,4.12487 3.3,0.95499 7.07079,2.17279 8.37953,2.70623 1.9787,0.80651 2.62899,0.58455 3.86048,-1.31769 2.16527,-3.34464 24.32949,-24.6497 27.25999,-26.20331 1.375,-0.72896 5.65,-2.99305 9.5,-5.03131 3.85,-2.03826 8.125,-4.74623 9.5,-6.01773 2.79375,-2.58343 18.15568,-9.5742 20.79844,-9.46477 0.93586,0.0388 -0.0984,0.72834 -2.29844,1.5324 -6.25772,2.2871 -17.49315,8.21359 -20.722,10.93048 -1.61226,1.35666 -3.33308,2.46666 -3.82401,2.46666 -0.49092,0 -4.6189,2.20338 -9.17327,4.89639 -7.67975,4.54107 -24.57024,20.01012 -29.34424,26.87476 -1.53283,2.20407 -1.46661,2.31553 2.24204,3.7742 2.10184,0.82669 6.52152,2.78986 9.82152,4.36262 3.3,1.57275 7.35,3.31968 9,3.88205 1.65,0.56238 3.9,1.35766 5,1.76729 1.1,0.40962 2.45,0.87636 3,1.03719 1.45731,0.42614 15.73648,6.06403 25,9.87082 4.4,1.80816 9.6875,3.82806 11.75,4.48867 2.55169,0.8173 3.75,1.79312 3.75,3.05376 0,2.3664 -2.73603,1.65798 -12.5,-3.23654 -3.85,-1.92994 -8.125,-3.82615 -9.5,-4.21379 -2.7448,-0.77383 -25.55416,-9.48347 -33.5,-12.79181 -7.26719,-3.02578 -13.40189,-3.36045 -18.11809,-0.98843 -2.13505,1.07383 -5.54074,2.25327 -7.56819,2.62098 -2.02746,0.36771 -5.86297,2.16585 -8.52336,3.99588 -2.66039,1.83002 -5.94569,3.67918 -7.30067,4.10923 -1.35498,0.43006 -6.61048,4.88025 -11.67888,9.88932 -5.06841,5.00908 -12.42456,12.00942 -16.347,15.55633 -4.20001,3.79789 -8.13931,8.43731 -9.5828,11.2859 -1.3481,2.66035 -3.952,6.50833 -5.78644,8.55108 -1.83444,2.04276 -4.51863,6.06156 -5.96487,8.93067 -2.5073,4.97411 -4.03907,6.85557 -14.11629,17.33883 -2.40842,2.50547 -4.93144,5.76797 -5.6067,7.25 -1.27643,2.80147 -2.90946,3.61411 -2.90297,1.4446 z m 19.60724,-74.34393 c 1.16103,-0.31164 3.05852,-2.25255 4.21663,-4.31314 3.02068,-5.37458 8.78917,-20.85304 9.6311,-25.84293 0.3944,-2.3375 1.03864,-4.25 1.43164,-4.25 0.91313,0 4.51336,9.92962 3.84322,10.59976 -0.27628,0.27629 -1.0332,-0.98314 -1.68205,-2.79871 l -1.17971,-3.30105 -1.38128,3.93388 c -0.7597,2.16363 -1.19023,4.243 -0.95671,4.62083 1.0395,1.68195 6.8773,1.90593 9.24478,0.3547 3.24533,-2.12642 2.64755,-5.86891 -2.28053,-14.27739 l -3.69987,-6.31287 -2.79737,2.68005 c -2.27762,2.18211 -3.16241,2.48469 -4.76207,1.62858 -2.28921,-1.22515 -3.2119,-5.63482 -3.22775,-15.42582 -0.01,-6.05062 -0.39582,-7.39958 -3.51101,-12.26941 -1.925,-3.00926 -3.5,-5.85839 -3.5,-6.33139 0,-0.473 -1.70237,-2.60176 -3.78304,-4.73058 -3.05532,-3.12602 -5.50796,-4.38964 -12.75,-6.56892 -4.93183,-1.48409 -11.76121,-3.25785 -15.1764,-3.9417 -5.66218,-1.13378 -6.38927,-1.0806 -8.25,0.60333 -1.12231,1.01568 -2.04056,2.46479 -2.04056,3.22026 0,0.75546 2.72718,5.70239 6.0604,10.99317 7.16828,11.37813 12.2041,21.08629 11.51569,22.20016 -0.27105,0.43858 -4.56156,3.8795 -9.53446,7.6465 -8.83628,6.69355 -10.37279,8.93578 -8.27632,12.07766 0.8424,1.26246 14.31662,5.77018 21.73469,7.27122 4.74526,0.9602 5.33117,0.83045 11.5,-2.54674 3.575,-1.95717 8.13976,-4.85607 10.1439,-6.44201 4.18438,-3.3112 4.8561,-3.49133 4.8561,-1.30222 0,2.05422 -6.6479,23.98879 -7.94451,26.21268 -1.74323,2.98993 -1.14705,0.27889 2.52651,-11.48885 1.9701,-6.31095 3.34966,-11.7068 3.06568,-11.99077 -0.28398,-0.28398 -2.00838,0.60267 -3.832,1.97032 -1.82362,1.36766 -5.92252,3.94197 -9.10866,5.7207 l -5.79298,3.23406 -5.96512,-1.67373 c -3.28082,-0.92055 -6.34875,-1.43663 -6.81763,-1.14684 -1.34847,0.8334 -4.39145,12.7316 -3.46551,13.55032 0.85576,0.75668 20.24152,7.55005 23.83422,8.35225 3.05173,0.6814 5.78157,0.70989 8.11098,0.0846 z m -21.61098,-29.58514 c -8.02756,-1.24042 -8.48339,-1.80322 -0.93144,-1.15004 7.34479,0.63526 9.68408,-0.21159 18.43263,-6.67277 6.13945,-4.53425 7.9592,-6.59555 6.57686,-7.44988 -0.56048,-0.3464 -4.85734,-1.14337 -9.54856,-1.77105 -4.69122,-0.62768 -8.52949,-1.56181 -8.52949,-2.07585 0,-0.51403 1.0125,-0.65651 2.25,-0.31662 4.39922,1.20829 15.91394,2.78467 16.447,2.25162 0.72227,-0.72228 -11.10561,-19.79174 -14.58835,-23.52003 -1.96593,-2.10453 -5.27908,-3.71375 -11.67668,-5.67142 -4.91259,-1.50326 -9.34369,-3.10254 -9.8469,-3.55397 -1.23455,-1.10751 5.33275,0.62733 14.09171,3.7225 6.90002,2.43828 7.36582,2.81277 12.07924,9.71133 7.13866,10.44812 12.24398,19.20885 12.24398,21.01066 0,1.91236 -10.48873,10.55857 -16.86948,13.90608 -4.08407,2.14261 -5.27958,2.329 -10.13052,1.57944 z m 37.5996,-15.56892 c 0.49243,-2.46214 0.25904,-3.36902 -0.99041,-3.84849 -2.46684,-0.94661 -4.60919,1.44041 -4.60919,5.13559 0,5.90821 4.36102,4.9058 5.5996,-1.2871 z m 9.88191,-6.30965 c 8.52991,-8.19084 9.50564,-14.82916 2.69718,-18.34996 l -2.90724,-1.50339 -2.0176,6.7055 c -1.10968,3.68802 -1.83749,6.90125 -1.61737,7.14051 0.22013,0.23927 2.09829,-1.11073 4.17368,-3 2.0754,-1.88926 1.57008,-1.22071 -1.12293,1.48566 -3.87435,3.89358 -7.68723,10.4433 -7.68723,13.20505 0,1.55521 3.12167,-0.53659 8.48151,-5.68337 z m -11.65277,1.05764 c 2.15493,0 2.17087,-0.14478 2.11991,-19.25 -0.0647,-24.26883 -0.88103,-32.24885 -3.49424,-34.15968 -1.06861,-0.78139 -4.51096,-1.96568 -7.64966,-2.63175 -3.63369,-0.77113 -5.81535,-1.76698 -6.00574,-2.74144 -0.16445,-0.84171 0.0119,-5.6224 0.39201,-10.62376 1.94587,-25.60616 2.06156,-29.43005 0.98394,-32.52132 -0.87594,-2.51273 -0.78329,-4.15579 0.43701,-7.75011 1.66127,-4.89315 0.9816,-6.77548 -2.22358,-6.15822 -1.49535,0.28798 -2.03213,1.97173 -2.9788,9.34378 -1.09835,8.5532 -2.71902,24.09662 -4.22206,40.4925 l -0.68753,7.5 -4.0992,0.13411 c -8.06523,0.26386 -10.7423,3.60895 -11.72726,14.65361 -0.58728,6.58529 -0.52985,6.81641 1.92566,7.75 4.50941,1.71447 5.40068,1.25455 5.40235,-2.78772 8.6e-4,-2.0625 0.78836,-5.325 1.75,-7.25 1.70056,-3.40414 1.88935,-3.49085 6.89306,-3.16586 2.82953,0.18378 7.53574,0.86513 10.45824,1.51412 4.32021,0.95937 5.44304,1.64474 6.00572,3.66586 0.38064,1.36723 0.73693,12.56812 0.79175,24.89087 0.0963,21.63906 0.1622,22.34841 1.92842,20.75 1.00581,-0.91025 2.80581,-1.65499 4,-1.65499 z m 59.43537,-7.19438 c 3.85184,-2.4874 5.73589,-5.52431 5.73589,-9.24568 0,-5.08548 -7.89249,-3.6351 -13.40154,2.46276 -7.54484,8.35123 -2.15212,13.12296 7.66565,6.78292 z m -4.26411,-3.52946 c 2.88691,-0.52136 7.18957,-4.16041 6.41016,-5.42152 -0.29051,-0.47005 -0.0516,-0.85464 0.53082,-0.85464 1.77105,0 1.19631,1.58998 -1.57734,4.36364 -1.6362,1.63619 -3.62791,2.5847 -5.25,2.50018 l -2.61364,-0.13618 2.5,-0.45148 z M 322.74411,347.6462 c 0.74271,-2.76358 1.49502,-6.79945 1.67178,-8.96858 0.29892,-3.66814 0.11164,-3.99025 -2.67861,-4.60698 -1.65,-0.36471 -2.4375,-0.71634 -1.75,-0.78142 1.96996,-0.18646 1.45785,-1.83069 -0.75,-2.40806 -1.94539,-0.50873 -1.99727,-0.0546 -1.90015,16.63337 l 0.0999,17.15638 1.97837,-6 c 1.0881,-3.3 2.58604,-8.26112 3.32876,-11.02471 z m -17.95656,-7.22529 c -0.3868,-8.1125 -1.10301,-15.16166 -1.59158,-15.66481 -0.48857,-0.50314 -3.29579,-1.11445 -6.23826,-1.35847 l -5.34995,-0.44366 -2.68524,5.98352 c -1.47688,3.29093 -2.68524,6.26244 -2.68524,6.60334 0,0.34091 1.98517,1.55297 4.41148,2.69348 4.22693,1.98688 6.29852,4.35612 11.53001,13.1866 1.22189,2.0625 2.46698,3.75 2.76684,3.75 0.29987,0 0.22874,-6.6375 -0.15806,-14.75 z m 89.36806,11.3484 c 2.72659,-3.28533 -3.19682,-5.17705 -6.3469,-2.02697 -2.02271,2.02271 -1.98446,3.09805 0.15275,4.29409 1.85902,1.04036 4.14297,0.20441 6.19415,-2.26712 z m -106.6095,-23.8484 2.58052,-5.75 -2.94467,0 c -1.65729,0 -2.97074,0.54649 -3.00429,1.25 -0.0328,0.6875 -0.41096,3.38432 -0.84039,5.99294 -1.32132,8.02645 0.17484,7.49574 4.20883,-1.49294 z m 39.69117,-44.25 c 0,-0.825 -0.5625,-1.50614 -1.25,-1.51365 -0.6875,-0.008 -2.2625,-0.285 -3.5,-0.61664 -1.62186,-0.43464 -2.25,-0.17213 -2.25,0.94033 0,1.5044 1.70182,2.33876 5.25,2.57396 0.9625,0.0638 1.75,-0.559 1.75,-1.384 z m -9,-0.90349 c 0,-0.97134 -1.53973,-1.51018 -5.00069,-1.75 -8.1776,-0.56665 -4.84749,2.11635 3.75069,3.02185 0.6875,0.0724 1.25,-0.49993 1.25,-1.27185 z m -2.25014,-9.17998 c -0.95295,-0.95296 -2.86349,0.5906 -2.1533,1.7397 0.42212,0.683 0.98146,0.66575 1.69964,-0.0524 0.58876,-0.58876 0.79291,-1.34803 0.45366,-1.68727 z m 2.25803,-4.66653 c 1.77162,-2.6771 2.37601,-4.95852 4.9502,-18.6856 1.94274,-10.35983 1.94274,-10.44556 -5.7e-4,-11.80671 -2.39482,-1.67739 -2.44834,-3.16057 -0.2783,-7.71121 2.27742,-4.77578 1.10056,-5.43832 -3.10344,-1.74716 -2.2707,1.9937 -5.06796,3.3019 -8.00067,3.74169 -2.9309,0.43951 -4.66639,1.25074 -4.95813,2.3176 -1.24056,4.53649 -1.53634,11.01006 -0.64367,14.08758 0.77215,2.66202 0.66357,3.95906 -0.47718,5.70007 -1.3548,2.06768 -1.294,2.38191 0.73604,3.80381 1.21706,0.85246 2.9872,1.54993 3.93363,1.54993 2.42408,0 4.8342,3.8501 4.8342,7.72251 0,3.83788 0.93638,4.15774 3.00789,1.02749 z m -4.65647,-2 c -0.72245,-3.9226 -3.00249,-5.93696 -6.2734,-5.54239 -3.65934,0.44144 -3.75909,2.70618 -0.15099,3.4278 2.15361,0.43072 3.28055,1.34347 3.69435,2.99218 0.95874,3.81994 3.44785,3.0198 2.73004,-0.87759 z m -10.06577,-2.29971 c -0.11789,-1.55721 0.27029,-3.41524 0.86263,-4.12895 0.80124,-0.96544 0.63826,-1.46602 -0.63658,-1.95522 -1.00298,-0.38488 -2.08003,-0.0788 -2.59731,0.73816 -1.05045,1.65896 -1.20482,7.27196 -0.22689,8.24989 1.40426,1.40426 2.80572,-0.16211 2.59815,-2.90388 z m 22.64406,-2.70029 c 0.0999,-3.90784 -2.65359,-3.54268 -3.77019,0.5 -0.70324,2.54611 -0.55185,3.5265 0.69898,4.52664 1.33082,1.0641 1.71353,0.98086 2.29878,-0.5 0.38618,-0.97715 0.73378,-3.01414 0.77243,-4.52664 z m -33,-1 c -0.0589,-2.72353 -0.2095,-2.92602 -0.92971,-1.25 -1.18717,2.7627 -1.18717,4.5 0,4.5 0.55,0 0.96837,-1.4625 0.92971,-3.25 z m -2.92971,0.37244 c 0,-1.03265 -0.675,-2.43775 -1.5,-3.12244 -0.825,-0.68469 -1.5,-2.26494 -1.5,-3.51166 0,-1.24672 -0.87181,-3.32912 -1.93735,-4.62756 -1.54818,-1.88655 -2.28952,-2.14555 -3.69048,-1.28934 -2.66502,1.62875 -2.7513,3.23673 -0.19327,3.60146 1.80968,0.25802 2.42794,1.15458 2.92758,4.24541 0.82875,5.12677 5.89352,9.1694 5.89352,4.70413 z m 2.2626,-9.20128 c -0.42464,-3.16589 -0.0992,-4.46623 1.55992,-6.23224 1.18834,-1.26493 2.33813,-4.17168 2.65429,-6.71027 0.30679,-2.46326 0.80928,-5.27859 1.11665,-6.25629 0.36054,-1.14683 -0.44854,-2.74371 -2.27999,-4.5 -1.56136,-1.4973 -3.52997,-3.79758 -4.37468,-5.11174 -1.30159,-2.02494 -2.29107,-2.37108 -6.48732,-2.26934 -6.87108,0.16659 -14.87024,0.83525 -15.36153,1.28409 -1.04377,0.95359 2.2743,7.88327 4.46058,9.31578 1.34721,0.88272 2.44948,2.23208 2.44948,2.99857 0,0.76649 0.55274,1.57786 1.22831,1.80305 0.67556,0.22519 1.23806,1.46968 1.25,2.76553 0.0165,1.79249 0.77195,2.55152 3.15807,3.17305 2.34075,0.60971 3.26807,1.51477 3.65554,3.5678 0.57762,3.06059 2.77573,9.04989 4.0552,11.04941 1.63074,2.54847 3.49352,-0.56782 2.91548,-4.8774 z m 34.7374,4.63786 c 0,-2.03936 -1.95984,-2.99918 -3.32877,-1.63025 -0.87268,0.87268 -0.79038,1.38472 0.33713,2.09756 2.11015,1.33408 2.99164,1.19639 2.99164,-0.46731 z m -54.24379,-1.30902 c 0.22575,-0.6875 -0.41454,-1.3022 -1.42288,-1.366 -1.6082,-0.10176 -1.58774,-0.17583 0.16667,-0.60324 1.1,-0.26798 2.85716,-1.22828 3.9048,-2.134 1.86468,-1.61208 1.8671,-1.58818 0.11454,1.13445 -0.98464,1.52966 -1.51518,3.05629 -1.17896,3.3925 1.03821,1.03822 3.65962,-1.80366 3.65962,-3.96741 0,-2.81901 2.81426,-5.71481 4.80972,-4.94907 1.20882,0.46386 1.09603,0.058 -0.4429,-1.59387 -1.13559,-1.21891 -3.70768,-2.42656 -5.71576,-2.68366 -3.37222,-0.43175 -3.65106,-0.27196 -3.65106,2.09217 0,4.07572 -1.75681,6.29188 -5.55215,7.00389 -2.60159,0.48806 -4.01638,0.2197 -5.38857,-1.02211 -1.39886,-1.26595 -2.0474,-1.38189 -2.61278,-0.46709 -0.44001,0.71195 0.0375,1.83211 1.15072,2.69968 1.63212,1.2719 1.65385,1.39703 0.15278,0.87968 -1.12485,-0.38769 -1.75,-0.0991 -1.75,0.80797 0,2.33134 13.00462,3.06505 13.75621,0.77611 z m -9.02524,-1.90594 c 0.67703,-0.27392 2.02703,-0.29059 3,-0.0371 0.97297,0.25354 0.41903,0.47766 -1.23097,0.49804 -1.65,0.0204 -2.44606,-0.18706 -1.76903,-0.46099 z m 41.07941,-2.54 c 0.63374,-5.46966 -8.20185,-7.67814 -10.85852,-2.71411 -1.59257,2.97575 -0.50127,5.27445 1.89516,3.99192 1.36025,-0.72798 2.3963,-0.60706 3.76484,0.43939 2.71552,2.07644 4.8403,1.37457 5.19852,-1.7172 z m 22.93962,0.94594 c -0.22917,-0.6875 -1.01667,-1.25 -1.75,-1.25 -0.73333,0 -1.52083,0.5625 -1.75,1.25 -0.24786,0.74359 0.46111,1.25 1.75,1.25 1.28889,0 1.99786,-0.50641 1.75,-1.25 z m 1.67149,-8.98669 c 0.34708,-2.60518 0.8701,-5.35962 1.16226,-6.12096 0.58702,-1.52975 -2.50109,-3.16956 -3.62543,-1.92513 -0.38898,0.43053 -0.99713,3.77998 -1.35145,7.44322 -0.47901,4.9524 -0.31887,6.77403 0.62446,7.10337 1.71362,0.59827 2.44217,-0.88628 3.19016,-6.5005 z m -61.42149,1.23669 c 0,-0.55 -0.675,-1 -1.5,-1 -0.825,0 -1.5,0.45 -1.5,1 0,0.55 0.675,1 1.5,1 0.825,0 1.5,-0.45 1.5,-1 z m 36.54581,-7 c 1.23601,-11.0584 1.19134,-11.46632 -1.2942,-11.81934 -2.82667,-0.40147 -3.75978,1.86884 -4.72148,11.48757 -0.69872,6.98854 -0.65795,7.17782 1.62659,7.55105 1.2888,0.21055 2.64012,0.13485 3.00293,-0.16823 0.36281,-0.30308 0.98658,-3.47605 1.38616,-7.05105 z m 32.45419,-3.92678 c 0,-3.36267 -0.35208,-3.95022 -2.75,-4.58921 -5.75561,-1.53372 -7.22012,-1.33746 -9.24695,1.23924 -2.15231,2.73622 -2.71143,7.27675 -0.89606,7.27675 0.60884,0 0.85681,-0.65196 0.55103,-1.44881 -0.34019,-0.88651 0.22906,-1.69796 1.46673,-2.09078 2.4938,-0.7915 8.55581,1.50095 6.81462,2.57706 -2.07727,1.28383 -0.0751,3.10551 2.12132,1.93005 1.4044,-0.75161 1.93931,-2.10157 1.93931,-4.8943 z m -67.58681,0.0673 c 0.81801,-1.32358 -1.74169,-6.12388 -3.27018,-6.13267 -0.90098,-0.005 -1.11489,0.58028 -0.63655,1.7422 0.39625,0.9625 0.94688,2.5375 1.22362,3.5 0.5383,1.87215 1.81461,2.29572 2.68311,0.89047 z m 46.58681,-4.30313 3.5,-2.15513 -3.98953,-1.77896 c -3.37744,-1.50602 -4.02741,-2.28714 -4.23636,-5.09113 -0.34508,-4.6308 -5.98833,-9.81217 -10.68684,-9.81217 -6.69346,0 -9.72365,7.98383 -5.59823,14.75 2.29045,3.75661 3.5548,4.10236 4.31875,1.181 0.43417,-1.66026 1.19802,-2.00597 3.86663,-1.75 2.94175,0.28218 3.36175,0.6941 3.63894,3.569 0.26839,2.78359 0.69892,3.24946 3,3.24626 1.47765,-0.002 4.26164,-0.97355 6.18664,-2.15887 z m 38.35315,-3.58739 c 1.41962,-7.62399 1.63996,-10.13606 0.92753,-10.57465 -0.42937,-0.26433 -2.86624,-0.79273 -5.41527,-1.17422 -4.43037,-0.66304 -4.68394,-0.56819 -5.7546,2.15263 l -1.12,2.84624 0.35925,-2.71511 c 0.19759,-1.49332 0.0629,-2.84332 -0.2994,-3 -0.36227,-0.15669 -0.0785,-1.40989 0.63059,-2.78489 1.21619,-2.35829 1.2901,-2.37778 1.30401,-0.34384 0.0125,1.82339 0.7793,2.26132 4.96865,2.8375 2.72466,0.37474 5.42466,0.39041 6,0.0348 2.0501,-1.26702 0.90727,-4.06303 -2.56646,-6.27907 -2.7683,-1.76601 -4.37065,-2.11582 -7.44198,-1.6247 -2.79734,0.44731 -4.63272,0.15501 -6.43291,-1.02453 -3.20283,-2.09857 -15.54505,-1.50606 -20.79694,0.99839 -3.55165,1.69366 -3.56182,1.69176 -5.97908,-1.11847 -1.60083,-1.86107 -2.98309,-2.59947 -4.07896,-2.17894 -2.33927,0.89766 -2.06151,3.78045 0.42695,4.4312 1.54222,0.40329 1.74487,0.75504 0.77897,1.352 -1.9535,1.20733 -0.80287,1.7969 5.19007,2.65937 3.90934,0.56261 5.51505,1.2548 5.75082,2.47908 0.28634,1.48683 -0.33543,1.62062 -4.98864,1.07341 -4.49671,-0.5288 -5.14324,-0.40719 -4.19614,0.78933 0.61579,0.77795 1.4121,3.04025 1.76959,5.02734 0.64101,3.56302 0.72907,3.621 6.38039,4.20086 3.15173,0.32338 7.08041,0.87216 8.73041,1.21951 6.57985,1.38516 12.4971,2.13631 12.98504,1.64836 0.28323,-0.2832 0.51496,-2.01493 0.51496,-3.84827 0,-1.83333 0.45857,-3.33333 1.01905,-3.33333 0.89773,0 0.68069,2.65044 -0.54773,6.68887 -0.36222,1.1908 2.25357,1.88032 8.19922,2.1613 2.71759,0.12842 3.24371,-0.24305 3.68261,-2.60017 z m -8.10315,-8.5 c 0.22917,-0.6875 0.94167,-1.205 1.58333,-1.15 0.64167,0.055 2.29167,0.1675 3.66667,0.25 4.18429,0.25106 2.78584,2.15 -1.58333,2.15 -2.82223,0 -3.95465,-0.38605 -3.66667,-1.25 z m -16.5,-0.9764 c -3.15022,-0.65654 -4.75,-1.50211 -4.75,-2.51061 0,-1.23644 0.88779,-1.40214 4.75,-0.88658 9.75353,1.30198 10.92239,1.72662 9.79112,3.55706 -0.7707,1.24702 -3.23363,1.2068 -9.79112,-0.15987 z m 6.25,-4.7736 c 0,-0.55 0.19844,-1 0.44098,-1 0.24254,0 0.7191,0.45 1.05902,1 0.33992,0.55 0.14148,1 -0.44098,1 -0.58246,0 -1.05902,-0.45 -1.05902,-1 z m -19,-3 c 0,-0.55 0.19844,-1 0.44098,-1 0.24254,0 0.7191,0.45 1.05902,1 0.33992,0.55 0.14148,1 -0.44098,1 -0.58246,0 -1.05902,-0.45 -1.05902,-1 z m 3.27083,0.39583 c 0.33229,-0.33229 1.19479,-0.36781 1.91667,-0.0789 0.79773,0.31922 0.56078,0.55618 -0.60417,0.60416 -1.05416,0.0434 -1.64479,-0.19292 -1.3125,-0.52522 z m -54.27083,15.54515 c 0,-0.58246 -0.45,-0.7809 -1,-0.44098 -0.55,0.33992 -1,0.81648 -1,1.05902 0,0.24254 0.45,0.44098 1,0.44098 0.55,0 1,-0.47656 1,-1.05902 z m -1,-3 c 0,-0.58246 -0.45,-0.7809 -1,-0.44098 -0.55,0.33992 -1,0.81648 -1,1.05902 0,0.24254 0.45,0.44098 1,0.44098 0.55,0 1,-0.47656 1,-1.05902 z m 12,-2.52057 c 0,-1.33998 0.9481,-1.48146 6.25,-0.93266 l 6.25,0.64694 1.64809,-4.0026 c 1.76842,-4.29485 1.55393,-5.13209 -1.31476,-5.13209 -1.02109,0 -1.83333,-0.71561 -1.83333,-1.61522 0,-1.37839 0.8229,-1.51241 5.61215,-0.91403 3.93984,0.49225 5.41215,0.37759 4.94098,-0.38478 -0.36914,-0.59728 -1.65711,-1.14983 -2.86215,-1.22788 -1.20504,-0.078 -0.42616,-0.41554 1.73085,-0.75 4.16388,-0.64562 5.11508,-1.70714 3.63219,-4.0534 -0.78151,-1.23651 -1.42538,-1.16964 -4.45681,0.46289 l -3.54334,1.90822 -3.09494,-2.9629 c -2.92968,-2.80468 -3.54499,-2.9629 -11.52297,-2.9629 -8.35774,0 -8.42695,0.0208 -8.29865,2.5 0.0712,1.375 -0.1863,3.24198 -0.57214,4.14885 -0.403,0.94722 -0.16571,1.97999 0.55764,2.42705 0.71595,0.44248 1.42842,0.27042 1.65151,-0.39885 0.50375,-1.51125 9.44639,-1.55634 10.94754,-0.0552 1.99533,1.99533 0.41127,3.87925 -2.37204,2.82104 -4.62968,-1.7602 -5.60712,-1.27787 -3.66212,1.8071 1.70216,2.69981 1.69802,2.72159 -0.22695,1.19336 -3.20176,-2.54188 -7.5511,-4.04946 -9.70779,-3.36495 -1.59604,0.50656 -1.72864,0.82144 -0.63509,1.50809 0.76017,0.47731 2.15464,0.62755 3.09882,0.33386 2.52984,-0.78692 3.45665,3.90304 1.39355,7.05174 -2.22371,3.39382 -2.13288,3.52791 2.38976,3.52791 2.97847,0 4,-0.4034 4,-1.57959 z m 9,-15.42041 c 0,-0.55 0.19844,-1 0.44098,-1 0.24254,0 0.7191,0.45 1.05902,1 0.33992,0.55 0.14148,1 -0.44098,1 -0.58246,0 -1.05902,-0.45 -1.05902,-1 z m 3.27083,0.39583 c 0.33229,-0.33229 1.19479,-0.36781 1.91667,-0.0789 0.79773,0.31922 0.56078,0.55618 -0.60417,0.60416 -1.05416,0.0434 -1.64479,-0.19292 -1.3125,-0.52522 z m -10.77083,-1.39583 c -0.33992,-0.55 -0.14148,-1 0.44098,-1 0.58246,0 1.05902,0.45 1.05902,1 0,0.55 -0.19844,1 -0.44098,1 -0.24254,0 -0.7191,-0.45 -1.05902,-1 z m 2.77083,0.39583 c 0.33229,-0.33229 1.19479,-0.36781 1.91667,-0.0789 0.79773,0.31922 0.56078,0.55618 -0.60417,0.60416 -1.05416,0.0434 -1.64479,-0.19292 -1.3125,-0.52522 z m -7,-1 c 0.33229,-0.33229 1.19479,-0.36781 1.91667,-0.0789 0.79773,0.31922 0.56078,0.55618 -0.60417,0.60416 -1.05416,0.0434 -1.64479,-0.19292 -1.3125,-0.52522 z m -10.27083,15.60417 c 0,-1.55556 0.66667,-2 3,-2 3.23347,0 4.20474,-2.32372 1.41821,-3.39301 -2.35915,-0.90529 -7.22235,-0.73292 -7.84722,0.27814 -0.72868,1.17903 1.37943,7.11487 2.52684,7.11487 0.49619,0 0.90217,-0.9 0.90217,-2 z m 4,1 c 0,-0.55 -0.47656,-1 -1.05902,-1 -0.58246,0 -0.7809,0.45 -0.44098,1 0.33992,0.55 0.81648,1 1.05902,1 0.24254,0 0.44098,-0.45 0.44098,-1 z m 38.61267,-11.4071 c -0.33228,-1.3239 -0.8792,-3.1239 -1.21539,-4 -0.37315,-0.9724 -0.0827,-1.59886 0.74573,-1.60821 1.90253,-0.0215 -1.12411,-1.94858 -3.09301,-1.96938 -1.06654,-0.0113 -1.15508,0.27961 -0.33477,1.09992 0.8203,0.8203 0.6124,1.94205 -0.78614,4.24177 -1.78627,2.93729 -1.79628,3.16819 -0.16523,3.81449 0.95488,0.37837 2.57242,0.71957 3.59455,0.75822 1.47376,0.0557 1.73336,-0.42792 1.25426,-2.33681 z m 92.8159,-3.16433 c 0.86429,-0.86428 1.57143,-1.93594 1.57143,-2.38146 0,-1.10243 8.49608,-4.08832 13.92005,-4.8921 2.43102,-0.36026 4.62257,-1.26717 4.87012,-2.01537 0.35971,-1.08725 -0.57786,-1.21898 -4.67005,-0.65616 -6.0347,0.82998 -6.47877,-0.11234 -2.01768,-4.28159 1.92646,-1.80043 2.95444,-3.62014 2.71198,-4.80069 -0.32542,-1.58446 -1.1226,-1.10458 -4.78506,2.88047 -3.72971,4.05821 -4.60272,4.57354 -5.77021,3.40605 -1.1675,-1.1675 -1.1184,-1.91502 0.32448,-4.94078 0.98951,-2.07503 1.40197,-4.33459 0.98682,-5.40605 -0.68547,-1.76909 -0.76901,-1.76518 -2.14187,0.10024 -0.78572,1.06762 -1.42858,2.98402 -1.42858,4.25866 0,1.27464 -1.37365,4.21379 -3.05255,6.53144 -2.13046,2.94102 -2.87867,4.90669 -2.47693,6.50733 0.45266,1.80354 0.0367,2.4983 -1.94746,3.25267 -1.38768,0.5276 -2.52306,1.64541 -2.52306,2.48402 0,2.03092 4.3828,1.99909 6.42857,-0.0467 z m 4.59149,-6.95274 c 0.69572,-0.83829 1.47088,-1.31823 1.72258,-1.06653 0.69349,0.6935 -0.71555,2.5907 -1.9241,2.5907 -0.6631,0 -0.58723,-0.57378 0.20152,-1.52417 z m -84.53097,6.15581 c 1.8234,-1.33331 1.82162,-1.39499 -0.0695,-2.40709 -1.06748,-0.57129 -3.19256,-0.79944 -4.72241,-0.50699 -2.65061,0.50669 -2.70166,0.62 -1.08437,2.40708 2.01902,2.23099 3.36032,2.34672 5.87629,0.507 z m 41.31573,-3.88245 c 0.26594,-4.14469 -0.0484,-5.05467 -2.46405,-7.1325 -2.45028,-2.10764 -2.63702,-2.67108 -1.62291,-4.8968 0.6418,-1.4086 2.95636,-3.31386 5.26101,-4.33067 5.02778,-2.21825 10.02113,-9.20709 10.02113,-14.02587 0,-2.20207 0.95447,-4.38248 2.87976,-6.57856 1.8315,-2.08911 3.30488,-5.33711 4.04768,-8.92295 0.67048,-3.23676 2.04306,-6.43015 3.22262,-7.49764 2.58045,-2.33528 4.84994,-6.65804 4.84994,-9.23782 0,-1.08511 -1.07575,-3.25139 -2.39056,-4.81395 -1.31481,-1.56256 -3.75111,-5.75959 -5.414,-9.32672 -3.00001,-6.43545 -3.0241,-6.45738 -3.10944,-2.83033 -0.062,2.63351 -1.06445,4.82652 -3.586,7.84462 -1.925,2.30407 -3.5,3.69665 -3.5,3.09461 0,-0.60203 0.86594,-1.96055 1.92431,-3.01892 4.19778,-4.19779 5.22511,-8.78341 2.56394,-11.44458 -0.83146,-0.83146 -2.51896,-1.30472 -3.75,-1.05169 -1.23104,0.25303 -4.36862,-0.52241 -6.97241,-1.7232 -4.42583,-2.04106 -5.10233,-2.09493 -10.38745,-0.82705 -5.13029,1.23074 -6.08002,1.18211 -10.26584,-0.52563 -3.15935,-1.28895 -7.29051,-1.91414 -13.11255,-1.98439 -5.8822,-0.071 -9.71429,-0.65762 -12.4428,-1.90483 -3.00378,-1.37305 -5.46308,-1.67905 -10.32632,-1.28486 -4.30934,0.34929 -8.0646,0.003 -11.5572,-1.06595 -6.2437,-1.91084 -11.72649,-1.70845 -13.42368,0.49551 -0.6875,0.89278 -1.25,3.95555 -1.25,6.80616 0,3.73365 -0.73337,6.49506 -2.62273,9.87549 -2.07861,3.71903 -2.50787,5.54893 -2.0691,8.82025 0.41329,3.08129 -0.0865,5.64855 -1.97148,10.12708 -2.19206,5.2081 -2.40075,6.62836 -1.58226,10.76791 0.73416,3.71302 0.58053,5.82827 -0.69408,9.5563 -1.66022,4.85593 -1.70903,5.99939 -0.52648,12.33537 0.43567,2.3343 0.1156,4.8556 -0.93588,7.37213 -3.90047,9.33514 -1.22682,12.75772 10.7538,13.76611 34.14172,2.87366 41.54952,3.63896 42.76531,4.41808 0.76059,0.48741 4.5329,1.17901 8.3829,1.53687 3.85,0.35787 8.86814,0.9759 11.15143,1.3734 3.65354,0.63605 4.29337,0.45749 5.33503,-1.48886 0.65098,-1.21638 0.91079,-3.29856 0.57735,-4.62708 -0.34148,-1.36057 0.0465,-3.67774 0.88834,-5.3057 0.82202,-1.58961 1.65135,-5.57527 1.84295,-8.85701 0.24711,-4.2324 0.98154,-6.77175 2.52663,-8.73602 1.27444,-1.62019 2.17827,-4.19001 2.17827,-6.19338 0,-2.02813 0.4077,-3.17218 1,-2.80612 1.75521,1.08478 1.07781,5.10625 -1.5,8.90486 -1.7867,2.63284 -2.50176,5.02656 -2.50616,8.38955 -0.003,2.58807 -0.64427,5.92875 -1.42417,7.42373 -0.77991,1.49498 -1.54217,5.05751 -1.69393,7.91673 -0.31231,5.88429 0.82727,6.93501 7.12426,6.56872 3.43291,-0.19969 3.50584,-0.29466 3.80482,-4.9544 z m -55.80482,-3.64498 c -0.825,-0.45924 -3.91942,-1.1061 -6.87648,-1.43746 -5.04287,-0.5651 -10.93655,-3.18706 -9.77495,-4.34865 0.28715,-0.28716 1.55132,0.1988 2.80927,1.0799 1.271,0.89025 4.29869,1.60727 6.81467,1.61387 2.49012,0.007 7.00249,0.67327 10.02749,1.48165 3.025,0.80837 6.4,1.22356 7.5,0.92262 1.62155,-0.44362 1.71616,-0.34843 0.5,0.50304 -1.78395,1.249 -8.87436,1.36826 -11,0.18503 z m 31.50708,-0.0928 c -0.35034,-0.56686 0.0511,-0.7345 0.94098,-0.39301 1.73242,0.66479 2.04939,1.38156 0.61096,1.38156 -0.51754,0 -1.21592,-0.44485 -1.55194,-0.98855 z m 3.57852,-1.51141 c 0.10413,-1.89422 1.77076,-5.08385 1.8288,-3.5 0.0302,0.825 -0.38124,2.175 -0.9144,3 -0.53316,0.825 -0.94464,1.05 -0.9144,0.5 z m -3.0856,-2.5 c 0.5887,-1.1 1.29537,-2 1.57037,-2 0.275,0 0.0183,0.9 -0.57037,2 -0.5887,1.1 -1.29537,2 -1.57037,2 -0.275,0 -0.0183,-0.9 0.57037,-2 z m -39,-2.36042 c -9.15702,-1.98592 -9.60191,-2.74551 -4.80676,-8.20689 2.81736,-3.20879 2.99762,-3.74637 1.53142,-4.5669 -1.19209,-0.66713 -1.50034,-1.7374 -1.09053,-3.78645 0.52199,-2.60995 0.23883,-2.96278 -3.28142,-4.08869 -4.55886,-1.45811 -6.46088,-3.01869 -4.53558,-3.72136 0.72443,-0.26439 2.44134,-1.44772 3.81538,-2.62961 l 2.49824,-2.14889 -5.30766,-3.4954 c -5.72702,-3.77156 -8.04695,-7.82344 -6.18256,-10.79816 0.58505,-0.93348 2.03027,-1.84103 3.2116,-2.01678 1.78387,-0.2654 2.14787,-0.99407 2.14787,-4.29966 0,-2.18906 0.65201,-5.24096 1.44892,-6.78201 1.69594,-3.27959 7.54761,-8.64552 10.42356,-9.55831 1.22395,-0.38846 2.12526,-1.68776 2.31571,-3.33824 0.40633,-3.52139 2.22135,-3.4884 2.62823,0.0478 0.38259,3.32507 3.55944,3.78473 5.18358,0.75 0.5887,-1.1 1.72953,-2 2.53518,-2 1.73255,0 1.80632,0.49339 0.45211,3.02375 -0.79522,1.48587 -0.60748,2.10915 0.87413,2.90208 1.46002,0.78139 2.28969,0.56467 3.6677,-0.95801 1.77069,-1.95659 4.47088,-2.67549 4.47088,-1.19033 0,0.42762 -0.69269,1.76645 -1.53932,2.97518 -1.39142,1.98653 -1.3822,2.43747 0.0959,4.69338 l 1.63524,2.49569 3.63621,-2.47087 c 1.99994,-1.35898 4.19553,-2.47087 4.8791,-2.47087 0.83372,0 1.05482,-0.94023 0.67165,-2.85609 -0.41302,-2.06511 -0.12915,-3.02572 1.025,-3.46861 1.18687,-0.45545 1.59622,-4.3e-4 1.59622,1.7743 0,1.31275 0.25198,3.04348 0.55997,3.84607 0.40674,1.05996 -0.48007,1.65436 -3.24094,2.1723 -2.54584,0.4776 -5.02677,2.00171 -7.51337,4.61566 -6.44345,6.77348 -6.37459,15.58273 0.17299,22.13031 3.80402,3.80402 3.81949,3.80889 6.75126,2.12629 2.69546,-1.54699 3.32669,-1.55867 7.63208,-0.14129 4.40714,1.45089 4.84009,1.42994 7.09437,-0.34327 10.88568,-8.56268 7.71111,-24.88058 -5.58448,-28.70531 -1.85453,-0.53349 -2.57473,-1.01057 -1.60044,-1.06017 0.97429,-0.0496 2.28402,-1.21519 2.91051,-2.59019 0.6265,-1.375 1.74185,-2.5 2.47857,-2.5 1.61872,0 1.77478,3.1647 0.23212,4.70736 -0.80981,0.80981 -0.51576,1.42397 1.09435,2.28568 1.85766,0.99419 2.56114,0.84065 4.50186,-0.98257 2.86914,-2.69541 4.23925,-1.05132 1.98763,2.38509 -1.4626,2.2322 -1.46633,2.72339 -0.0416,5.47858 1.97006,3.80969 2.02371,12.33828 0.101,16.0564 -0.80525,1.55718 -2.86146,4.00704 -4.56936,5.44414 -2.28154,1.91979 -2.93636,3.1451 -2.46853,4.61912 1.165,3.67057 -0.33081,6.00991 -3.81542,5.96706 l -3.18261,-0.0391 3.25,-1.41259 c 4.0324,-1.75265 4.05869,-2.65087 0.17327,-5.92024 -2.99478,-2.51997 -6.66285,-3.59463 -5.42323,-1.58889 0.33992,0.55 0.17898,1 -0.35765,1 -0.53663,0 -1.15267,-0.53096 -1.36899,-1.17991 -0.23119,-0.69358 -1.13696,-0.89454 -2.19753,-0.48756 -1.27223,0.4882 -1.66572,1.4169 -1.33449,3.14964 0.25836,1.35152 0.0847,2.21936 -0.3858,1.92855 -0.47055,-0.29082 -0.85554,-1.14687 -0.85554,-1.90235 0,-0.75548 -0.90425,-1.66059 -2.00944,-2.01137 -1.10519,-0.35077 -3.39771,-2.36528 -5.09448,-4.4767 -3.32674,-4.13967 -3.31929,-4.1404 -8.53421,0.82766 -1.92053,1.82962 -7.16022,-0.30136 -16.89818,-6.87246 -8.08696,-5.45702 -9.87966,-5.93528 -11.42491,-3.04796 -2.47964,4.63324 9.6315,12.54606 21.02541,13.73696 4.22745,0.44185 5.65818,0.91137 4.59323,1.50734 -1.47313,0.82441 -6.95359,0.50574 -12.90742,-0.75051 -1.5125,-0.31913 -2.75,-0.16672 -2.75,0.3387 0,0.50542 -1.125,1.43152 -2.5,2.05801 -3.79449,1.72889 -3.03285,2.86782 2.75,4.1122 2.8875,0.62136 7.58652,1.63188 10.44226,2.24561 2.85574,0.61373 7.69458,0.85761 10.75297,0.54196 6.27179,-0.64731 17.03471,-5.13224 16.06841,-6.69575 -1.17617,-1.90307 2.16343,-1.03637 4.05331,1.05192 1.16804,1.29067 1.37419,1.95162 0.54581,1.75 -0.83347,-0.20286 -2.59841,2.60862 -4.72095,7.52026 -4.86373,11.25491 -6.60787,13.34547 -12.62468,15.13227 -5.9886,1.77843 -12.08679,1.82873 -19.76713,0.16307 z m 23.55003,-2.75993 c 1.49246,-1.49348 1.41753,-1.67098 -0.95697,-2.26694 -1.49188,-0.37444 -4.10433,-0.008 -6.20676,0.87035 -4.27836,1.78761 -4.70684,1.84461 -3.8863,0.51694 0.81023,-1.31097 -1.42682,-1.27008 -5.35078,0.0978 -5.81601,2.02747 -3.5163,3.11548 5.81617,2.75167 6.57914,-0.25647 9.39638,-0.78077 10.58464,-1.96985 z m -2.90117,-12.62965 c 0.30846,-2.04977 -0.0613,-2.25 -4.15513,-2.25 -2.47155,0 -4.49373,0.41319 -4.49373,0.91821 0,0.50502 -0.28352,1.65706 -0.63005,2.5601 -0.53925,1.40526 0.0596,1.5972 4.15513,1.33179 4.08113,-0.26447 4.83501,-0.64115 5.12378,-2.5601 z m -14.64886,-0.203 c 0,-1.39714 -1.0406,-2.24032 -3.65615,-2.96251 -4.18213,-1.15474 -5.34385,-0.74143 -5.34385,1.9012 0,1.95023 1.62363,2.70316 6.25,2.89831 2.10087,0.0886 2.75,-0.345 2.75,-1.837 z m 7.94432,-20.0186 c 3.83613,-1.95704 3.86391,-2.01424 3.76419,-7.75 -0.0659,-3.79323 0.51485,-6.94104 1.69058,-9.16258 1.73255,-3.27366 1.72877,-3.46761 -0.11581,-5.93822 -5.17517,-6.93157 -13.6631,-8.92457 -21.27916,-4.99644 -5.07266,2.61632 -8.96118,8.4242 -8.98767,13.42395 -0.0141,2.66559 0.82658,3.69646 5.93941,7.2829 5.24727,3.68076 14.02648,9.06638 14.83398,9.09994 0.15941,0.007 2.02893,-0.87517 4.15448,-1.95955 z m -6.05105,-10.3943 c -3.52875,-1.75926 -3.38332,-7.50171 0.2415,-9.53627 2.36372,-1.32672 2.90381,-1.30257 5.25,0.23471 6.0566,3.96843 0.99791,12.53689 -5.4915,9.30156 z m 6.918,-4.4355 c 0.20206,-1.34518 -0.59633,-2.66688 -2.27562,-3.7672 -2.44218,-1.60018 -2.69734,-1.59505 -4.56127,0.0918 -2.59088,2.34471 -2.50298,4.99316 0.22924,6.90688 1.87471,1.3131 2.50906,1.34177 4.25,0.1921 1.12551,-0.74325 2.18645,-2.28386 2.35765,-3.42357 z m -6.18742,0.26354 c -0.34197,-0.89116 0.0618,-1.78803 0.96023,-2.13278 1.86736,-0.71657 3.91072,1.06102 2.96977,2.58351 -0.98128,1.58774 -3.24751,1.32783 -3.93,-0.45073 z m -31.60601,47.05935 c -0.9854,-1.18733 -0.86001,-2.10697 0.63672,-4.66972 1.02507,-1.75517 2.53465,-3.39647 3.35461,-3.64735 0.87343,-0.26723 0.55903,0.44039 -0.75917,1.70868 -2.43863,2.3463 -3.0132,6.61227 -1,7.42462 0.78542,0.31692 0.83093,0.53373 0.12244,0.58333 -0.62015,0.0434 -1.67972,-0.58638 -2.3546,-1.39956 z m 5.49344,-1.89837 c 0.94531,-1.44272 1.90782,-2.62312 2.13891,-2.62312 0.72338,0 -1.6049,3.85397 -2.75929,4.56743 -0.6041,0.37335 -0.32492,-0.50159 0.62038,-1.94431 z m 56.9476,0.31035 c -0.36253,-0.58659 -0.38909,-1.33659 -0.059,-1.66667 0.33008,-0.33007 0.60014,-0.0751 0.60014,0.56653 0,2.33651 3.92225,1.08499 6.52913,-2.08333 1.47075,-1.7875 2.33642,-2.575 1.92372,-1.75 -2.42078,4.83911 -7.37332,7.55573 -8.99397,4.93347 z m 19.24294,-2.60692 c -0.36539,-0.59122 0.43073,-2.25655 1.76917,-3.70074 2.51731,-2.71623 4.52901,-3.41217 4.52901,-1.56679 0,0.58245 -0.38986,0.81807 -0.86635,0.52358 -0.95823,-0.59222 -3.62049,2.09967 -4.32008,4.36814 -0.28942,0.9385 -0.68198,1.0712 -1.11175,0.37581 z m 3.29818,-1.82655 c 0.68469,-0.825 1.46989,-1.5 1.74489,-1.5 0.275,0 -0.0602,0.675 -0.74489,1.5 -0.68469,0.825 -1.46989,1.5 -1.74489,1.5 -0.275,0 0.0602,-0.675 0.74489,-1.5 z m -23,0.0982 c 0,-1.69406 3.07354,-6.41247 4.5448,-6.97704 2.27711,-0.87381 4.4552,-0.77202 4.4552,0.20822 0,0.45617 -0.98377,0.79367 -2.18615,0.75 -1.41791,-0.0515 -2.99928,1.11467 -4.5,3.31848 -1.27262,1.86884 -2.31385,3.08399 -2.31385,2.70034 z m -55.5,-1.59822 c -0.33992,-0.55 -0.14148,-1 0.44098,-1 0.58246,0 1.05902,0.45 1.05902,1 0,0.55 -0.19844,1 -0.44098,1 -0.24254,0 -0.7191,-0.45 -1.05902,-1 z m -5,-5 c -0.33992,-0.55 -0.14148,-1 0.44098,-1 0.58246,0 1.05902,0.45 1.05902,1 0,0.55 -0.19844,1 -0.44098,1 -0.24254,0 -0.7191,-0.45 -1.05902,-1 z m 0.5,-3.5 c 0.68469,-0.825 1.46989,-1.5 1.74489,-1.5 0.275,0 -0.0602,0.675 -0.74489,1.5 -0.68469,0.825 -1.46989,1.5 -1.74489,1.5 -0.275,0 0.0602,-0.675 0.74489,-1.5 z m 83.38149,0.0518 c -0.70441,-1.83567 2.19114,-6.80379 4.98082,-8.54597 1.44829,-0.90447 1.09119,-0.14741 -1.11649,2.36699 -3.49901,3.98516 -4.17598,6.6272 -1.69807,6.6272 2.21812,0 6.26389,-4.69906 6.744,-7.83299 l 0.40859,-2.66701 0.14983,2.64424 c 0.0954,1.68386 -0.90389,3.77226 -2.75138,5.75 -3.11156,3.33094 -5.8188,3.99897 -6.7173,1.65753 z m -26.38149,-7.55178 c 0,-0.55 0.19844,-1 0.44098,-1 0.24254,0 0.7191,0.45 1.05902,1 0.33992,0.55 0.14148,1 -0.44098,1 -0.58246,0 -1.05902,-0.45 -1.05902,-1 z m 3.5,0 c -0.33992,-0.55 -0.14148,-1 0.44098,-1 0.58246,0 1.05902,0.45 1.05902,1 0,0.55 -0.19844,1 -0.44098,1 -0.24254,0 -0.7191,-0.45 -1.05902,-1 z m 19.42261,-0.5 c 4.92074,-8.24575 6.04649,-9.80363 6.06094,-8.38751 0.009,0.88688 -1.37255,3.36188 -3.07022,5.5 -3.7741,4.75328 -4.5528,5.5051 -2.99072,2.88751 z m 12.07739,-9.82569 c 0,-1.70995 4.43885,-5.90213 5.31826,-5.02272 0.36844,0.36844 -0.30441,1.16006 -1.49522,1.75915 -1.19081,0.59909 -2.37152,1.7144 -2.6238,2.47845 -0.30558,0.92546 -0.03,1.12424 0.82554,0.5955 0.84197,-0.52037 1.03851,-0.39612 0.57071,0.3608 -0.96907,1.56798 -2.59549,1.46072 -2.59549,-0.17118 z m -6.37316,-5.92431 c 0.40968,-0.6875 1.60745,-2.43554 2.6617,-3.88452 1.05425,-1.44899 2.27455,-4.14899 2.71178,-6 0.78601,-3.32762 0.79611,-3.33291 0.89732,-0.47034 0.0998,2.82356 -4.59456,11.59951 -6.20666,11.60307 -0.44496,9.8e-4 -0.47382,-0.56071 -0.0641,-1.24821 z M 323.483,145.01663 c -1.90019,-1.9002 -1.48624,-6.31808 0.78456,-8.37313 1.58554,-1.43488 2.60337,-1.63313 4.64642,-0.90498 3.70248,1.31957 4.96343,3.70631 3.76668,7.12962 -0.78525,2.24623 -1.67203,2.86149 -4.46588,3.09849 -1.91734,0.16264 -4.04664,-0.26486 -4.73178,-0.95 z m 8.1483,-2.09572 c 2.27062,-3.62636 -3.52249,-7.54812 -6.94906,-4.70432 -1.7742,1.47246 -1.90151,5.59547 -0.19496,6.31382 2.33482,0.9828 6.04413,0.14711 7.14402,-1.6095 z m -5.91365,-0.78177 c -0.38836,-0.62837 -0.23556,-1.61304 0.33954,-2.18815 1.3439,-1.3439 4.47714,-0.17168 3.93038,1.47044 -0.5566,1.67169 -3.38637,2.14733 -4.26992,0.71771 z m 46.51963,-0.46823 c 0,-0.825 0.17686,-1.5 0.39301,-1.5 0.21616,0 0.65203,0.675 0.96862,1.5 0.31658,0.825 0.13972,1.5 -0.39301,1.5 -0.53274,0 -0.96862,-0.675 -0.96862,-1.5 z m 1,-2.81268 c 0,-1.5183 3.16397,-5.53465 4.80999,-6.10581 1.49906,-0.52016 1.51534,-0.44491 0.14412,0.66603 -0.85024,0.68885 -2.31274,2.36509 -3.25,3.72497 -0.93726,1.35987 -1.70411,2.13154 -1.70411,1.71481 z m -89.25,-11.52065 c 0.9625,-1.00834 1.92663,-1.69421 2.1425,-1.52417 0.59073,0.46531 -2.00638,3.3575 -3.01494,3.3575 -0.48266,0 -0.0901,-0.825 0.87244,-1.83333 z m 76.25,0.12011 c 0.825,-0.30543 2.175,-1.0574 3,-1.67105 1.30346,-0.96954 1.32017,-0.88643 0.12756,0.63427 -0.75485,0.9625 -2.10485,1.71447 -3,1.67105 -1.36145,-0.066 -1.38231,-0.16974 -0.12756,-0.63427 z m 0.24671,-3.28678 c 1.83785,-3.079 4.75958,-3.89504 4.73798,-1.32332 -0.013,1.54807 -0.16507,1.59688 -1.00736,0.32332 -0.8422,-1.27343 -1.31157,-1.12239 -3.10745,1 l -2.11541,2.5 1.49224,-2.5 z m -76.51338,-0.12409 c 0.67834,-0.68342 1.48524,-0.99067 1.79313,-0.68278 0.30789,0.30788 -0.24711,0.86705 -1.23333,1.24258 -1.4252,0.54268 -1.54006,0.42782 -0.5598,-0.5598 z m 2.82431,-3.78265 c -0.30822,-0.49871 0.34022,-0.67123 1.44098,-0.38337 2.33499,0.61061 2.63015,1.29011 0.5604,1.29011 -0.79254,0 -1.69316,-0.40803 -2.00138,-0.90674 z m -0.55764,-3.92671 c 0,-1.33056 3.72171,-5.77247 4.32885,-5.16655 0.27555,0.275 -0.58571,1.76259 -1.91392,3.30576 -1.32821,1.54317 -2.41493,2.38053 -2.41493,1.86079 z m 6.8245,-2.49237 c -0.37205,-1.82482 -0.23268,-2.48236 0.39346,-1.85622 0.53328,0.53328 0.79255,1.8049 0.57615,2.82582 -0.29142,1.37482 -0.54288,1.12335 -0.96961,-0.9696 z m 2.6755,86.32582 c 0.35191,-0.5694 -0.50929,-1 -2,-1 -1.49071,0 -2.35191,0.4306 -2,1 0.33992,0.55 1.23992,1 2,1 0.76008,0 1.66008,-0.45 2,-1 z m 77.9349,-6.97525 c 3.07596,-1.16948 3.38637,-3.02475 0.50608,-3.02475 -1.13246,0 -1.7809,0.45 -1.44098,1 0.33992,0.55 0.15005,1 -0.42193,1 -0.57198,0 -1.32379,-1.13085 -1.67069,-2.51299 -0.86087,-3.43001 1.12425,-5.61583 4.45704,-4.90766 l 2.63558,0.56002 -2.36078,-2.06968 c -2.70385,-2.37045 -4.46391,-2.54239 -9.24,-0.90267 -4.55063,1.56231 -7.82938,3.99703 -7.8678,5.84243 -0.0373,1.79272 3.2952,4.05057 7.46858,5.06012 4.31944,1.04488 5.08007,1.04058 7.9349,-0.0448 z m 24.5651,-1.97775 c 0,-1.58175 -6.94805,-3.00677 -17,-3.48663 -10.52602,-0.50248 -10.04709,-0.251 4.5,2.36287 12.6523,2.27341 12.5,2.25971 12.5,1.12376 z m -166,-12.547 c 0,-1.51005 0.5706,-2.5 1.44098,-2.5 2.05138,0 3.06428,-2.0697 1.48929,-3.0431 -2.77164,-1.71296 4.74028,-2.28365 14.99585,-1.13924 9.83265,1.09721 12.22689,1.00201 10.79564,-0.42924 -0.33637,-0.33637 -5.89028,-1.25827 -12.34201,-2.04866 -12.48831,-1.52994 -12.16076,-1.36375 -16.92987,-8.58976 -1.36123,-2.0625 -2.91932,-3.75 -3.46243,-3.75 -1.40045,0 -1.2242,1.30473 0.48075,3.55887 0.8075,1.06762 1.4825,2.50363 1.5,3.19113 0.0583,2.29122 -2.88015,1.2881 -5.12632,-1.75 -1.2199,-1.65 -2.58337,-3 -3.02994,-3 -1.74466,0 -0.6834,3.77213 1.68806,6 1.375,1.29174 2.5,2.72019 2.5,3.17431 0,1.36626 -3.00829,0.93386 -6.06494,-0.87174 -1.58044,-0.93359 -3.22416,-1.3468 -3.65272,-0.91824 -1.14925,1.14924 2.28854,3.31298 6.52002,4.10369 4.64157,0.86734 6.19764,2.13593 6.19764,5.05264 0,2.9513 0.96796,5.45934 2.10699,5.45934 0.49116,0 0.89301,-1.125 0.89301,-2.5 z m 36,-4.5 c 0,-4.30349 -0.2737,-5 -1.96482,-5 -3.37922,0 -5.80138,8.12065 -2.78518,9.33772 3.86488,1.55951 4.75,0.75122 4.75,-4.33772 z m -20.4004,314.19507 c 1.04308,-1.81771 4.02919,-4.67347 6.6358,-6.34612 3.6801,-2.36152 4.97279,-3.90838 5.78412,-6.92143 0.57466,-2.13413 2.83036,-5.94325 5.01266,-8.4647 2.1823,-2.52145 3.96782,-5.14382 3.96782,-5.82747 0,-1.42544 5.19239,-6.46532 9.25,-8.97831 4.42248,-2.73896 3.16833,-1.13446 -2.18475,2.79506 -3.18259,2.33624 -5.33092,4.82285 -6.05052,7.00326 -0.61367,1.85945 -2.13058,4.04576 -3.37091,4.85845 -1.24033,0.81269 -3.51122,4.43307 -5.04644,8.04529 -1.53521,3.61222 -3.57065,6.81503 -4.5232,7.11735 -0.95254,0.30233 -3.90072,2.68131 -6.5515,5.28662 -4.41121,4.33555 -4.6589,4.45689 -2.92308,1.432 z m -71.5996,-16.69507 c 0.68469,-0.825 1.46989,-1.5 1.74489,-1.5 0.275,0 -0.0602,0.675 -0.74489,1.5 -0.68469,0.825 -1.46989,1.5 -1.74489,1.5 -0.275,0 0.0602,-0.675 0.74489,-1.5 z m -33,-8.47695 c 0,-0.53732 1.12473,-1.7139 2.4994,-2.61462 1.37467,-0.90072 4.4879,-4.62359 6.91828,-8.27305 6.61152,-9.92783 14.95908,-18.63366 21.36858,-22.28568 3.14256,-1.79057 10.17499,-6.31426 15.62762,-10.05264 5.45264,-3.73838 10.40368,-6.79706 11.00231,-6.79706 0.59862,0 4.91237,-2.25748 9.58611,-5.01662 4.67373,-2.75913 10.28098,-5.50227 12.46055,-6.09586 5.0547,-1.37659 18.30194,-8.04074 21.44016,-10.78566 1.32166,-1.15602 3.06984,-2.10186 3.88486,-2.10186 2.10522,0 -2.41464,3.38492 -9.46329,7.08704 -3.20352,1.68257 -7.39958,3.90055 -9.32458,4.92884 -1.925,1.0283 -6.875,3.49387 -11,5.47905 -15.79015,7.5991 -24.61707,12.65899 -31.92658,18.3014 -4.16538,3.21537 -10.01372,7.16407 -12.99631,8.7749 -3.00171,1.62115 -6.68893,4.6753 -8.25854,6.8406 -1.55961,2.15151 -3.69388,4.51296 -4.74281,5.24766 -1.04893,0.7347 -3.7112,4.03741 -5.91617,7.33937 -4.99163,7.47503 -11.15959,13.01545 -11.15959,10.02419 z m 68,-4.45082 c 0,-1.86126 5.15533,-7.5148 10.21803,-11.2055 2.90508,-2.11779 6.07035,-4.75418 7.03394,-5.85863 1.30294,-1.49343 1.60589,-1.58565 1.18203,-0.3598 -0.31346,0.90656 -3.29639,3.83156 -6.62875,6.5 -3.33235,2.66843 -7.35177,6.41673 -8.93204,8.32954 -1.58026,1.91282 -2.87321,3.08029 -2.87321,2.59439 z m -30.26667,-1.69632 c 0.67834,-0.68342 1.48524,-0.99067 1.79313,-0.68278 0.30789,0.30789 -0.24711,0.86705 -1.23333,1.24258 -1.4252,0.54268 -1.54006,0.42782 -0.5598,-0.5598 z m 3.26667,-3.71967 c 0,-1.32348 4.74579,-6.15624 6.04545,-6.15624 0.52501,0 0.95455,-0.86734 0.95455,-1.92742 0,-1.96839 4.34078,-6.07258 6.42263,-6.07258 0.63411,0 2.71092,-1.33171 4.61514,-2.95936 4.98224,-4.2586 6.21651,-3.72375 1.46858,0.63637 -2.19651,2.0171 -4.45732,4.59746 -5.02401,5.73414 -0.5667,1.13668 -3.21838,3.22331 -5.89264,4.63697 -2.67426,1.41366 -5.70096,3.606 -6.726,4.87187 -1.02503,1.26587 -1.8637,1.82218 -1.8637,1.23625 z m 11.9721,-9.62262 c 1.97732,-2.38253 0.78809,-3.75438 -1.7273,-1.99253 -1.23464,0.86478 -2.2448,1.9968 -2.2448,2.51561 0,1.45843 2.61319,1.1143 3.9721,-0.52308 z m 88.0279,1.0254 c 0,-0.24254 0.45,-0.7191 1,-1.05902 0.55,-0.33992 1,-0.14148 1,0.44098 0,0.58246 -0.45,1.05902 -1,1.05902 -0.55,0 -1,-0.19844 -1,-0.44098 z m -54,-5.68484 c 0,-0.275 1.35,-1.79338 3,-3.37418 1.65,-1.5808 3,-2.64918 3,-2.37418 0,0.275 -1.35,1.79338 -3,3.37418 -1.65,1.5808 -3,2.64918 -3,2.37418 z m 99.47021,-66.96803 c -0.47966,-1.51127 0.11012,-2.90244 2.11971,-5 2.97228,-3.10239 5.2701,-3.64613 7.21008,-1.70615 1.81582,1.81582 1.45622,3.63469 -1.25455,6.34545 -3.07377,3.07378 -7.15626,3.25613 -8.07524,0.3607 z m 7.49083,-1.09471 c 2.43197,-2.61041 2.61428,-4.65344 0.48808,-5.46934 -1.93591,-0.74288 -6.44912,3.33861 -6.44912,5.83221 0,2.54978 3.44274,2.34021 5.96104,-0.36287 z m -190.20594,-3.65749 c -4.00604,-1.76928 -5.20627,-3.74931 -1.57388,-2.59643 3.17442,1.00752 8.58155,4.45118 6.81878,4.34269 -0.825,-0.0508 -3.18521,-0.83659 -5.2449,-1.74626 z m 202.91354,-3.40698 c -1.57859,-1.15429 -1.58542,-1.42077 -0.091,-3.55431 1.94983,-2.78377 5.92239,-2.65943 5.92239,0.18537 0,2.83268 -3.66727,4.95136 -5.83136,3.36894 z m 4.25747,-2.15794 c 0.83662,-1.00807 0.85908,-1.60376 0.0786,-2.08609 -1.16004,-0.71695 -4.00475,1.14378 -4.00475,2.6195 0,1.38193 2.63347,1.02413 3.92611,-0.53341 z m 16.37575,-16.24479 c -0.77432,-2.01784 3.12526,-5.50131 5.24701,-4.68711 1.9787,0.75929 1.82264,2.69668 -0.37761,4.68788 -2.32736,2.10623 -4.06098,2.10596 -4.8694,-7.7e-4 z m 5.48044,-2.18974 c 0.28658,-0.86063 -0.19425,-1.221 -1.33427,-1 -0.98026,0.19002 -1.98391,0.95098 -2.23033,1.691 -0.28658,0.86063 0.19425,1.221 1.33427,1 0.98026,-0.19002 1.98391,-0.95098 2.23033,-1.691 z m 4.15563,2.2707 c -0.97104,-1.17002 -0.85517,-1.85917 0.57905,-3.44396 2.5233,-2.78821 5.48302,-2.59484 5.48302,0.35824 0,3.08617 -4.26146,5.25534 -6.06207,3.08572 z m 3.48028,-1.03219 c 1.36062,-0.52212 2.34515,-3.39301 1.16358,-3.39301 -1.59682,0 -3.58179,1.44475 -3.58179,2.60699 0,1.57216 0.20009,1.6372 2.41821,0.78602 z m 45.58179,-0.78602 c 0,-0.21616 0.69837,-0.661 1.55194,-0.98855 0.88992,-0.34149 1.29132,-0.17385 0.94098,0.39301 -0.58726,0.95021 -2.49292,1.40545 -2.49292,0.59554 z m -79.83749,-3.48539 c -2.0511,-1.30011 -0.97381,-5.1894 2.06311,-7.44832 2.64642,-1.96847 2.78445,-1.97415 4.75,-0.19534 2.60094,2.35382 2.54886,3.08849 -0.43017,6.06751 -2.58323,2.58324 -4.17428,2.97612 -6.38294,1.57615 z m 4.61498,-1.6783 c 2.78967,-1.95396 2.9781,-5.4433 0.29394,-5.4433 -3.35359,0 -6.38271,4.35539 -4.40476,6.33333 0.98036,0.98037 1.6463,0.83618 4.11082,-0.89003 z m 75.22251,1.52532 c 0,-0.53274 0.675,-0.96862 1.5,-0.96862 0.825,0 1.5,0.17686 1.5,0.39301 0,0.21616 -0.675,0.65203 -1.5,0.96862 -0.825,0.31658 -1.5,0.13972 -1.5,-0.39301 z m -201,-0.96419 c -3.025,-0.47577 -6.625,-1.08148 -8,-1.34602 -1.375,-0.26453 -4.75,-0.78923 -7.5,-1.166 -2.75,-0.37676 -7.6384,-1.75585 -10.86312,-3.06463 -3.22471,-1.30878 -7.49971,-2.68098 -9.5,-3.04935 -2.00028,-0.36836 -7.01188,-2.13894 -11.13688,-3.93462 -8.03594,-3.49818 -13.53807,-5.16676 -21.5,-6.52012 -8.41941,-1.43112 -16.32159,-3.41033 -17.18226,-4.30353 -1.13536,-1.17826 7.44787,0.3013 11.55438,1.99172 1.85467,0.76347 4.84477,1.38812 6.64467,1.38812 3.78588,0 15.3579,3.39865 20.53115,6.0299 1.95137,0.99252 7.35137,2.94339 12,4.33526 4.64863,1.39188 10.26169,3.19146 12.47347,3.99908 2.21178,0.80763 7.38678,1.98007 11.5,2.60544 22.17924,3.37212 22.7228,3.41111 28.43757,2.04016 4.99265,-1.19772 7.81716,-0.95265 6.31646,0.54805 -1.00809,1.00809 -18.15727,1.33018 -23.77544,0.44654 z m 207,-1.42728 c 1.375,-0.82845 4.0375,-1.52223 5.91667,-1.54171 4.18288,-0.0434 3.72638,0.65435 -0.94705,1.4475 -1.90829,0.32386 -4.36962,0.81646 -5.46962,1.09467 -1.52215,0.38497 -1.40269,0.14593 0.5,-1.00046 z m -105.34501,-1.40589 c -2.79745,-3.09115 -1.85964,-5.39567 5.25824,-12.92126 5.62394,-5.94609 7.41108,-7.25 9.93681,-7.25 3.22053,0 5.14996,2.15904 5.14996,5.76281 0,2.90103 -5.82446,11.04581 -9.86008,13.78808 -4.28079,2.90887 -8.2038,3.14099 -10.48493,0.62037 z m 11.02528,-2.80027 c 3.07079,-2.28494 7.31973,-7.44023 7.31973,-8.88112 0,-0.38576 -1.37048,0.76573 -3.04552,2.55886 -2.30203,2.46433 -3.32735,2.9784 -4.2,2.10575 -0.87264,-0.87264 -0.82571,-1.45964 0.19222,-2.40448 1.07737,-1 1.20556,-1 0.64099,0 -1.44891,2.56635 1.15494,1.12504 4.21809,-2.33484 2.57227,-2.90543 2.97952,-3.94781 2.14881,-5.5 -2.02563,-3.78494 -5.3653,-2.29969 -12.33202,5.4844 -3.64241,4.06975 -6.62257,7.86261 -6.62257,8.42857 0,0.56596 0.70755,1.73656 1.57233,2.60134 1.96519,1.96519 5.73114,1.19826 10.10794,-2.05848 z m -5.40944,-2.97516 c 0.33229,-0.33229 1.19479,-0.36781 1.91667,-0.0789 0.79773,0.31922 0.56078,0.55618 -0.60417,0.60416 -1.05416,0.0434 -1.64479,-0.19293 -1.3125,-0.52522 z m 7.60161,-8.64583 c 1.50976,-1.92509 4.12756,-2.36333 4.12756,-0.69098 0,0.58246 -0.46971,0.76872 -1.0438,0.41391 -0.5741,-0.35481 -1.8116,-0.0439 -2.75,0.69098 -1.53679,1.20343 -1.56993,1.16233 -0.33376,-0.41391 z m 102.39839,13.64583 c 0.33229,-0.33229 1.19479,-0.36781 1.91667,-0.0789 0.79773,0.31922 0.56078,0.55618 -0.60417,0.60416 -1.05416,0.0434 -1.64479,-0.19293 -1.3125,-0.52522 z m -72.15276,-3.32286 c -1.99904,-1.23547 -0.89297,-4.53083 1.64215,-4.89252 1.66224,-0.23715 2.23978,0.18252 2.23978,1.62755 0,2.49112 -2.17463,4.32014 -3.88193,3.26497 z m 2.65276,-2.88547 c 0.21771,-0.65313 -0.31666,-1.1875 -1.1875,-1.1875 -0.87083,0 -1.58333,0.7125 -1.58333,1.58333 0,1.76593 2.15276,1.45839 2.77083,-0.39583 z m -25.27083,0.45805 c 6.20057,-2.13001 21.00163,-5.64555 23.7688,-5.64555 1.36782,0 4.22011,-0.72416 6.33841,-1.60924 2.11829,-0.88508 8.24134,-1.99055 13.60677,-2.4566 5.36543,-0.46605 10.63265,-1.31689 11.70493,-1.89076 2.43619,-1.30381 13.68961,-1.34158 21.44209,-0.072 5.77195,0.94527 13.19912,0.13688 18.389,-2.00149 1.2375,-0.50989 2.25,-0.57711 2.25,-0.14939 0,1.14545 -5.75386,2.98781 -11.74065,3.7593 -2.88953,0.37235 -9.39469,0.10964 -14.5,-0.5856 -8.61655,-1.1734 -9.78444,-1.11284 -16.82314,0.87241 -4.16008,1.17334 -9.56008,2.14408 -12,2.1572 -2.43991,0.0131 -6.23621,0.47281 -8.43621,1.02154 -2.2,0.54874 -7.375,1.65853 -11.5,2.46621 -4.125,0.80767 -10.425,2.14876 -14,2.98018 -10.13761,2.35765 -13.22422,2.77662 -8.5,1.15376 z m 22,-8.8405 c -5.13097,-2.90958 -4.84317,-7.72504 0.79889,-13.3671 4.72345,-4.72345 8.60504,-6.2095 12.57373,-4.81379 6.49796,2.28521 4.67694,10.83624 -3.45473,16.22243 -5.12278,3.39319 -6.80278,3.72493 -9.91789,1.95846 z m 9.25914,-2.79965 c 3.33292,-2.0321 7.23042,-7.37803 7.23712,-9.92666 0.006,-2.15517 -3.05298,-5.07874 -5.31339,-5.07874 -5.41225,0 -13.68287,7.97943 -13.68287,13.20113 0,4.06714 6.42968,5.05368 11.75914,1.80427 z m -1.75914,-6.85041 c 0,-1.39614 3.53821,-4.15499 5.32874,-4.15499 0.91919,0 1.67126,0.585 1.67126,1.3 0,1.53633 -1.98305,3.7 -3.39113,3.7 -0.54512,0 -0.11833,-0.63821 0.94843,-1.41824 1.06675,-0.78003 1.58118,-1.77661 1.14316,-2.21463 -1.01442,-1.01443 -4.28278,1.08685 -3.95046,2.53981 0.1375,0.60118 -0.2,1.09306 -0.75,1.09306 -0.55,0 -1,-0.38026 -1,-0.84501 z m -17.55764,-1.24825 c -0.37345,-0.60426 0.0476,-1.73209 0.93574,-2.50627 0.88812,-0.77419 1.16636,-0.86601 0.61833,-0.20404 -0.54804,0.66196 -0.98146,1.67607 -0.96316,2.25357 0.0183,0.5775 0.9183,-0.0123 2,-1.31078 1.45792,-1.75003 1.96673,-1.95317 1.96673,-0.78519 0,2.0581 -3.61274,4.08158 -4.55764,2.55271 z m -16.98348,-4.97327 c -0.36253,-0.58659 -0.38909,-1.33659 -0.059,-1.66667 0.33008,-0.33007 0.60014,-0.0751 0.60014,0.56653 0,1.76822 1.76646,1.40021 4,-0.83333 2.29727,-2.29727 2.53866,-3.67253 0.75,-4.27297 -0.80492,-0.2702 -0.74541,-0.38533 0.16713,-0.32332 2.45784,0.167 2.3239,2.44617 -0.29781,5.06788 -2.73644,2.73644 -4.12892,3.13091 -5.16044,1.46188 z m 55.74112,-0.13347 c -1.79744,-1.79744 -1.47546,-3.31919 1.43391,-6.77678 1.93403,-2.29846 3.32906,-3.04958 5.25,-2.82672 3.6287,0.42098 3.87946,3.74283 0.57868,7.66559 -2.76971,3.29161 -5.24768,3.95282 -7.26259,1.93791 z m 5.4003,-1.56531 c 2.15435,-1.4385 3.65716,-5.37723 2.49506,-6.53933 -1.47531,-1.47531 -6.48441,2.2589 -6.91491,5.15497 -0.32839,2.20913 2.06291,2.95812 4.41985,1.38436 z m -25.93363,-6.90136 c -0.36667,-0.36666 -0.66667,-1.90166 -0.66667,-3.4111 0,-6.03696 11.0163,-10.83116 11.82308,-5.14531 0.60625,4.2726 -8.4752,11.23763 -11.15641,8.55641 z m 7.02083,-3.82083 c 3.52502,-3.52502 3.92017,-5.76539 1.11298,-6.31014 -2.06614,-0.40096 -7.80048,4.539 -7.80048,6.71987 0,4.14888 2.26784,4.00993 6.6875,-0.40973 z m -1.6875,-2.48818 c 0,-0.6283 0.41157,-0.88799 0.91459,-0.57711 0.50302,0.31089 1.10302,0.22495 1.33333,-0.19098 0.23031,-0.41593 0.35312,-0.33436 0.27291,0.18127 -0.21545,1.38505 -2.52083,1.92171 -2.52083,0.58682 z"
       id="path3066"
       inkscape:connector-curvature="0" />
  </g>
</svg>
