<?xml version="1.0" encoding="UTF-8" standalone="no"?>
<!-- Created with Inkscape (http://www.inkscape.org/) -->

<svg
   xmlns:dc="http://purl.org/dc/elements/1.1/"
   xmlns:cc="http://creativecommons.org/ns#"
   xmlns:rdf="http://www.w3.org/1999/02/22-rdf-syntax-ns#"
   xmlns:svg="http://www.w3.org/2000/svg"
   xmlns="http://www.w3.org/2000/svg"
   xmlns:sodipodi="http://sodipodi.sourceforge.net/DTD/sodipodi-0.dtd"
   xmlns:inkscape="http://www.inkscape.org/namespaces/inkscape"
   width="318.89764"
   height="70.866142"
   id="svg4106"
   version="1.1"
   inkscape:version="0.48.1 r9760"
   sodipodi:docname="taques_oli.svg">
  <defs
     id="defs3">
    <inkscape:perspective
       id="perspective9"
       inkscape:persp3d-origin="372.04724 : 350.78739 : 1"
       inkscape:vp_z="744.09448 : 526.18109 : 1"
       inkscape:vp_y="0 : 1000 : 0"
       inkscape:vp_x="0 : 526.18109 : 1"
       sodipodi:type="inkscape:persp3d" />
  </defs>
  <sodipodi:namedview
     inkscape:document-units="mm"
     id="base"
     pagecolor="#ffffff"
     bordercolor="#666666"
     borderopacity="1.0"
     inkscape:pageopacity="0.0"
     inkscape:pageshadow="2"
     inkscape:zoom="2.500489"
     inkscape:cx="224.75603"
     inkscape:cy="60.990497"
     inkscape:current-layer="layer1"
     showgrid="false"
     units="cm"
     inkscape:window-width="1400"
     inkscape:window-height="973"
     inkscape:window-x="0"
     inkscape:window-y="24"
     inkscape:window-maximized="1" />
  <metadata
     id="metadata4">
    <rdf:RDF>
      <cc:Work
         rdf:about="">
        <dc:format>image/svg+xml</dc:format>
        <dc:type
           rdf:resource="http://purl.org/dc/dcmitype/StillImage" />
        <dc:title />
      </cc:Work>
    </rdf:RDF>
  </metadata>
  <g
     inkscape:label="Layer 1"
     inkscape:groupmode="layer"
     id="layer1"
     transform="translate(0,-981.49633)">
    <g
       transform="matrix(0.01596717,0,0,0.01596717,10.782322,999.89368)"
       inkscape:label="Layer 1"
       id="layer1-9">
      <path
         transform="matrix(0.823843,0,0.176848,0.684493,267.3931,329.1747)"
         style="fill:#000000;fill-opacity:1;fill-rule:evenodd;stroke:none;stroke-width:1;marker:none;visibility:visible;display:inline;overflow:visible"
         sodipodi:type="star"
         sodipodi:sides="12"
         sodipodi:r2="265.71429"
         sodipodi:r1="428.57144"
         sodipodi:cy="215.21933"
         sodipodi:cx="82.85714"
         sodipodi:arg2="0.9053005"
         sodipodi:arg1="0.64350111"
         inkscape:rounded="0.24"
         inkscape:randomized="-0.097"
         inkscape:flatsided="false"
         id="path1291"
         d="M 388.91234,441.85466 C 367.4174,480.03409 287.79514,361.18045 248.69602,385.81288 209.5969,410.44531 267.82795,625.10445 227.35653,638.81466 186.88511,652.52486 174.7113,490.41225 132.03687,490.04129 89.362451,489.67034 80.672699,657.58444 38.252874,653.32193 -4.1669512,649.05941 38.009325,458.38024 0.88494442,437.93933 -36.239436,417.49842 -154.93259,558.52733 -190.33588,533.5978 c -35.4033,-24.92953 107.182261,-156.61551 77.69584,-191.67598 -29.48642,-35.06047 -146.70799,70.43632 -168.66569,31.88489 -21.95769,-38.55142 100.77517,-61.40639 95.61095,-104.34108 -5.16422,-42.93469 -157.1357,-90.34232 -147.97006,-133.92812 9.16563,-43.585804 150.27597,21.83528 167.16552,-20.70765 16.88954,-42.54293 -86.50832,-160.699394 -58.61132,-194.958338 27.89701,-34.258942 92.58824,132.105127 129.797266,106.615384 C -58.104345,0.99716326 -152.92108,-166.33919 -113.74933,-187.4209 -74.577581,-208.50262 9.7539002,-11.937679 56.106598,-15.426001 102.4593,-18.914322 110.22517,-235.51924 154.37277,-223.47381 c 44.1476,12.04542 1.10766,212.840296 41.49101,227.7222521 40.38334,14.8819559 81.33366,-178.5210721 120.48552,-154.7076321 39.15186,23.81345 -47.85947,145.982424 -24.47388,184.566186 23.3856,38.583763 125.08101,-25.8104859 145.92599,10.983563 20.84498,36.79405 -102.04478,74.698141 -94.24448,117.707321 7.80029,43.00917 151.95708,72.35254 143.49056,113.9644 -8.46652,41.61186 -119.44184,22.83282 -129.735,65.60804 -10.29315,42.77523 53.09479,61.3049 31.59985,99.48434 z" />
    </g>
    <g
       id="g4707"
       inkscape:label="Layer 1"
       transform="matrix(0.01596717,0,0,0.01596717,28.254493,999.89368)">
      <path
         d="M 388.91234,441.85466 C 367.4174,480.03409 287.79514,361.18045 248.69602,385.81288 209.5969,410.44531 267.82795,625.10445 227.35653,638.81466 186.88511,652.52486 174.7113,490.41225 132.03687,490.04129 89.362451,489.67034 80.672699,657.58444 38.252874,653.32193 -4.1669512,649.05941 38.009325,458.38024 0.88494442,437.93933 -36.239436,417.49842 -154.93259,558.52733 -190.33588,533.5978 c -35.4033,-24.92953 107.182261,-156.61551 77.69584,-191.67598 -29.48642,-35.06047 -146.70799,70.43632 -168.66569,31.88489 -21.95769,-38.55142 100.77517,-61.40639 95.61095,-104.34108 -5.16422,-42.93469 -157.1357,-90.34232 -147.97006,-133.92812 9.16563,-43.585804 150.27597,21.83528 167.16552,-20.70765 16.88954,-42.54293 -86.50832,-160.699394 -58.61132,-194.958338 27.89701,-34.258942 92.58824,132.105127 129.797266,106.615384 C -58.104345,0.99716326 -152.92108,-166.33919 -113.74933,-187.4209 -74.577581,-208.50262 9.7539002,-11.937679 56.106598,-15.426001 102.4593,-18.914322 110.22517,-235.51924 154.37277,-223.47381 c 44.1476,12.04542 1.10766,212.840296 41.49101,227.7222521 40.38334,14.8819559 81.33366,-178.5210721 120.48552,-154.7076321 39.15186,23.81345 -47.85947,145.982424 -24.47388,184.566186 23.3856,38.583763 125.08101,-25.8104859 145.92599,10.983563 20.84498,36.79405 -102.04478,74.698141 -94.24448,117.707321 7.80029,43.00917 151.95708,72.35254 143.49056,113.9644 -8.46652,41.61186 -119.44184,22.83282 -129.735,65.60804 -10.29315,42.77523 53.09479,61.3049 31.59985,99.48434 z"
         id="path4709"
         inkscape:flatsided="false"
         inkscape:randomized="-0.097"
         inkscape:rounded="0.24"
         sodipodi:arg1="0.64350111"
         sodipodi:arg2="0.9053005"
         sodipodi:cx="82.85714"
         sodipodi:cy="215.21933"
         sodipodi:r1="428.57144"
         sodipodi:r2="265.71429"
         sodipodi:sides="12"
         sodipodi:type="star"
         style="fill:#000000;fill-opacity:1;fill-rule:evenodd;stroke:none;stroke-width:1;marker:none;visibility:visible;display:inline;overflow:visible"
         transform="matrix(0.823843,0,0.176848,0.684493,267.3931,329.1747)" />
    </g>
    <g
       transform="matrix(0.01596717,0,0,0.01596717,81.404099,999.89368)"
       inkscape:label="Layer 1"
       id="g4711">
      <path
         transform="matrix(0.823843,0,0.176848,0.684493,267.3931,329.1747)"
         style="fill:#000000;fill-opacity:1;fill-rule:evenodd;stroke:none;stroke-width:1;marker:none;visibility:visible;display:inline;overflow:visible"
         sodipodi:type="star"
         sodipodi:sides="12"
         sodipodi:r2="265.71429"
         sodipodi:r1="428.57144"
         sodipodi:cy="215.21933"
         sodipodi:cx="82.85714"
         sodipodi:arg2="0.9053005"
         sodipodi:arg1="0.64350111"
         inkscape:rounded="0.24"
         inkscape:randomized="-0.097"
         inkscape:flatsided="false"
         id="path4713"
         d="M 388.91234,441.85466 C 367.4174,480.03409 287.79514,361.18045 248.69602,385.81288 209.5969,410.44531 267.82795,625.10445 227.35653,638.81466 186.88511,652.52486 174.7113,490.41225 132.03687,490.04129 89.362451,489.67034 80.672699,657.58444 38.252874,653.32193 -4.1669512,649.05941 38.009325,458.38024 0.88494442,437.93933 -36.239436,417.49842 -154.93259,558.52733 -190.33588,533.5978 c -35.4033,-24.92953 107.182261,-156.61551 77.69584,-191.67598 -29.48642,-35.06047 -146.70799,70.43632 -168.66569,31.88489 -21.95769,-38.55142 100.77517,-61.40639 95.61095,-104.34108 -5.16422,-42.93469 -157.1357,-90.34232 -147.97006,-133.92812 9.16563,-43.585804 150.27597,21.83528 167.16552,-20.70765 16.88954,-42.54293 -86.50832,-160.699394 -58.61132,-194.958338 27.89701,-34.258942 92.58824,132.105127 129.797266,106.615384 C -58.104345,0.99716326 -152.92108,-166.33919 -113.74933,-187.4209 -74.577581,-208.50262 9.7539002,-11.937679 56.106598,-15.426001 102.4593,-18.914322 110.22517,-235.51924 154.37277,-223.47381 c 44.1476,12.04542 1.10766,212.840296 41.49101,227.7222521 40.38334,14.8819559 81.33366,-178.5210721 120.48552,-154.7076321 39.15186,23.81345 -47.85947,145.982424 -24.47388,184.566186 23.3856,38.583763 125.08101,-25.8104859 145.92599,10.983563 20.84498,36.79405 -102.04478,74.698141 -94.24448,117.707321 7.80029,43.00917 151.95708,72.35254 143.49056,113.9644 -8.46652,41.61186 -119.44184,22.83282 -129.735,65.60804 -10.29315,42.77523 53.09479,61.3049 31.59985,99.48434 z" />
    </g>
    <g
       id="g4715"
       inkscape:label="Layer 1"
       transform="matrix(0.01596717,0,0,0.01596717,169.98678,999.89368)">
      <path
         d="M 388.91234,441.85466 C 367.4174,480.03409 287.79514,361.18045 248.69602,385.81288 209.5969,410.44531 267.82795,625.10445 227.35653,638.81466 186.88511,652.52486 174.7113,490.41225 132.03687,490.04129 89.362451,489.67034 80.672699,657.58444 38.252874,653.32193 -4.1669512,649.05941 38.009325,458.38024 0.88494442,437.93933 -36.239436,417.49842 -154.93259,558.52733 -190.33588,533.5978 c -35.4033,-24.92953 107.182261,-156.61551 77.69584,-191.67598 -29.48642,-35.06047 -146.70799,70.43632 -168.66569,31.88489 -21.95769,-38.55142 100.77517,-61.40639 95.61095,-104.34108 -5.16422,-42.93469 -157.1357,-90.34232 -147.97006,-133.92812 9.16563,-43.585804 150.27597,21.83528 167.16552,-20.70765 16.88954,-42.54293 -86.50832,-160.699394 -58.61132,-194.958338 27.89701,-34.258942 92.58824,132.105127 129.797266,106.615384 C -58.104345,0.99716326 -152.92108,-166.33919 -113.74933,-187.4209 -74.577581,-208.50262 9.7539002,-11.937679 56.106598,-15.426001 102.4593,-18.914322 110.22517,-235.51924 154.37277,-223.47381 c 44.1476,12.04542 1.10766,212.840296 41.49101,227.7222521 40.38334,14.8819559 81.33366,-178.5210721 120.48552,-154.7076321 39.15186,23.81345 -47.85947,145.982424 -24.47388,184.566186 23.3856,38.583763 125.08101,-25.8104859 145.92599,10.983563 20.84498,36.79405 -102.04478,74.698141 -94.24448,117.707321 7.80029,43.00917 151.95708,72.35254 143.49056,113.9644 -8.46652,41.61186 -119.44184,22.83282 -129.735,65.60804 -10.29315,42.77523 53.09479,61.3049 31.59985,99.48434 z"
         id="path4717"
         inkscape:flatsided="false"
         inkscape:randomized="-0.097"
         inkscape:rounded="0.24"
         sodipodi:arg1="0.64350111"
         sodipodi:arg2="0.9053005"
         sodipodi:cx="82.85714"
         sodipodi:cy="215.21933"
         sodipodi:r1="428.57144"
         sodipodi:r2="265.71429"
         sodipodi:sides="12"
         sodipodi:type="star"
         style="fill:#000000;fill-opacity:1;fill-rule:evenodd;stroke:none;stroke-width:1;marker:none;visibility:visible;display:inline;overflow:visible"
         transform="matrix(0.823843,0,0.176848,0.684493,267.3931,329.1747)" />
    </g>
    <g
       transform="matrix(0.01596717,0,0,0.01596717,294.00253,999.89368)"
       inkscape:label="Layer 1"
       id="g4719">
      <path
         transform="matrix(0.823843,0,0.176848,0.684493,267.3931,329.1747)"
         style="fill:#000000;fill-opacity:1;fill-rule:evenodd;stroke:none;stroke-width:1;marker:none;visibility:visible;display:inline;overflow:visible"
         sodipodi:type="star"
         sodipodi:sides="12"
         sodipodi:r2="265.71429"
         sodipodi:r1="428.57144"
         sodipodi:cy="215.21933"
         sodipodi:cx="82.85714"
         sodipodi:arg2="0.9053005"
         sodipodi:arg1="0.64350111"
         inkscape:rounded="0.24"
         inkscape:randomized="-0.097"
         inkscape:flatsided="false"
         id="path4721"
         d="M 388.91234,441.85466 C 367.4174,480.03409 287.79514,361.18045 248.69602,385.81288 209.5969,410.44531 267.82795,625.10445 227.35653,638.81466 186.88511,652.52486 174.7113,490.41225 132.03687,490.04129 89.362451,489.67034 80.672699,657.58444 38.252874,653.32193 -4.1669512,649.05941 38.009325,458.38024 0.88494442,437.93933 -36.239436,417.49842 -154.93259,558.52733 -190.33588,533.5978 c -35.4033,-24.92953 107.182261,-156.61551 77.69584,-191.67598 -29.48642,-35.06047 -146.70799,70.43632 -168.66569,31.88489 -21.95769,-38.55142 100.77517,-61.40639 95.61095,-104.34108 -5.16422,-42.93469 -157.1357,-90.34232 -147.97006,-133.92812 9.16563,-43.585804 150.27597,21.83528 167.16552,-20.70765 16.88954,-42.54293 -86.50832,-160.699394 -58.61132,-194.958338 27.89701,-34.258942 92.58824,132.105127 129.797266,106.615384 C -58.104345,0.99716326 -152.92108,-166.33919 -113.74933,-187.4209 -74.577581,-208.50262 9.7539002,-11.937679 56.106598,-15.426001 102.4593,-18.914322 110.22517,-235.51924 154.37277,-223.47381 c 44.1476,12.04542 1.10766,212.840296 41.49101,227.7222521 40.38334,14.8819559 81.33366,-178.5210721 120.48552,-154.7076321 39.15186,23.81345 -47.85947,145.982424 -24.47388,184.566186 23.3856,38.583763 125.08101,-25.8104859 145.92599,10.983563 20.84498,36.79405 -102.04478,74.698141 -94.24448,117.707321 7.80029,43.00917 151.95708,72.35254 143.49056,113.9644 -8.46652,41.61186 -119.44184,22.83282 -129.735,65.60804 -10.29315,42.77523 53.09479,61.3049 31.59985,99.48434 z" />
    </g>
    <text
       xml:space="preserve"
       style="font-size:12px;font-style:normal;font-variant:normal;font-weight:normal;font-stretch:normal;text-align:start;line-height:125%;letter-spacing:0px;word-spacing:0px;writing-mode:lr-tb;text-anchor:start;fill:#000000;fill-opacity:1;stroke:none;font-family:cmr10;-inkscape-font-specification:cmr10"
       x="14.397185"
       y="1026.7675"
       id="text4754"
       sodipodi:linespacing="125%"><tspan
         sodipodi:role="line"
         id="tspan4756"
         x="14.397185"
         y="1026.7675"
         style="font-size:12px;font-style:normal;font-variant:normal;font-weight:normal;font-stretch:normal;text-align:start;line-height:125%;writing-mode:lr-tb;text-anchor:start;font-family:cmr10;-inkscape-font-specification:cmr10">0</tspan></text>
    <text
       sodipodi:linespacing="125%"
       id="text4758"
       y="1026.7675"
       x="27.973606"
       style="font-size:12px;font-style:normal;font-variant:normal;font-weight:normal;font-stretch:normal;text-align:start;line-height:125%;letter-spacing:0px;word-spacing:0px;writing-mode:lr-tb;text-anchor:start;fill:#000000;fill-opacity:1;stroke:none;font-family:cmr10;-inkscape-font-specification:cmr10"
       xml:space="preserve"><tspan
         style="font-size:12px;font-style:normal;font-variant:normal;font-weight:normal;font-stretch:normal;text-align:start;line-height:125%;writing-mode:lr-tb;text-anchor:start;font-family:cmr10;-inkscape-font-specification:cmr10"
         y="1026.7675"
         x="27.973606"
         id="tspan4760"
         sodipodi:role="line">5m</tspan></text>
    <text
       xml:space="preserve"
       style="font-size:12px;font-style:normal;font-variant:normal;font-weight:normal;font-stretch:normal;text-align:start;line-height:125%;letter-spacing:0px;word-spacing:0px;writing-mode:lr-tb;text-anchor:start;fill:#000000;fill-opacity:1;stroke:none;font-family:cmr10;-inkscape-font-specification:cmr10"
       x="78.873215"
       y="1026.7675"
       id="text4762"
       sodipodi:linespacing="125%"><tspan
         sodipodi:role="line"
         id="tspan4764"
         x="78.873215"
         y="1026.7675"
         style="font-size:12px;font-style:normal;font-variant:normal;font-weight:normal;font-stretch:normal;text-align:start;line-height:125%;writing-mode:lr-tb;text-anchor:start;font-family:cmr10;-inkscape-font-specification:cmr10">20m</tspan></text>
    <text
       sodipodi:linespacing="125%"
       id="text4766"
       y="1026.7675"
       x="167.55476"
       style="font-size:12px;font-style:normal;font-variant:normal;font-weight:normal;font-stretch:normal;text-align:start;line-height:125%;letter-spacing:0px;word-spacing:0px;writing-mode:lr-tb;text-anchor:start;fill:#000000;fill-opacity:1;stroke:none;font-family:cmr10;-inkscape-font-specification:cmr10"
       xml:space="preserve"><tspan
         style="font-size:12px;font-style:normal;font-variant:normal;font-weight:normal;font-stretch:normal;text-align:start;line-height:125%;writing-mode:lr-tb;text-anchor:start;font-family:cmr10;-inkscape-font-specification:cmr10"
         y="1026.7675"
         x="167.55476"
         id="tspan4768"
         sodipodi:role="line">45m</tspan></text>
    <text
       xml:space="preserve"
       style="font-size:12px;font-style:normal;font-variant:normal;font-weight:normal;font-stretch:normal;text-align:start;line-height:125%;letter-spacing:0px;word-spacing:0px;writing-mode:lr-tb;text-anchor:start;fill:#000000;fill-opacity:1;stroke:none;font-family:cmr10;-inkscape-font-specification:cmr10"
       x="291.50681"
       y="1026.7675"
       id="text4770"
       sodipodi:linespacing="125%"><tspan
         sodipodi:role="line"
         id="tspan4772"
         x="291.50681"
         y="1026.7675"
         style="font-size:12px;font-style:normal;font-variant:normal;font-weight:normal;font-stretch:normal;text-align:start;line-height:125%;writing-mode:lr-tb;text-anchor:start;font-family:cmr10;-inkscape-font-specification:cmr10">80m</tspan></text>
  </g>
</svg>
