<?xml version="1.0" encoding="UTF-8" standalone="no"?>
<!-- Created with Inkscape (http://www.inkscape.org/) -->

<svg
   xmlns:dc="http://purl.org/dc/elements/1.1/"
   xmlns:cc="http://creativecommons.org/ns#"
   xmlns:rdf="http://www.w3.org/1999/02/22-rdf-syntax-ns#"
   xmlns:svg="http://www.w3.org/2000/svg"
   xmlns="http://www.w3.org/2000/svg"
   xmlns:sodipodi="http://sodipodi.sourceforge.net/DTD/sodipodi-0.dtd"
   xmlns:inkscape="http://www.inkscape.org/namespaces/inkscape"
   width="469.57141"
   height="469.57141"
   id="svg2"
   version="1.1"
   inkscape:version="0.92.3 (2405546, 2018-03-11)"
   sodipodi:docname="terra-lluna.svg">
  <defs
     id="defs4" />
  <sodipodi:namedview
     id="base"
     pagecolor="#ffffff"
     bordercolor="#666666"
     borderopacity="1.0"
     inkscape:pageopacity="0.0"
     inkscape:pageshadow="2"
     inkscape:zoom="0.35"
     inkscape:cx="-276.64285"
     inkscape:cy="1.9285593"
     inkscape:document-units="px"
     inkscape:current-layer="layer1"
     showgrid="false"
     fit-margin-top="10"
     fit-margin-left="10"
     fit-margin-right="10"
     fit-margin-bottom="10"
     inkscape:window-width="1319"
     inkscape:window-height="713"
     inkscape:window-x="47"
     inkscape:window-y="27"
     inkscape:window-maximized="1" />
  <metadata
     id="metadata7">
    <rdf:RDF>
      <cc:Work
         rdf:about="">
        <dc:format>image/svg+xml</dc:format>
        <dc:type
           rdf:resource="http://purl.org/dc/dcmitype/StillImage" />
        <dc:title />
      </cc:Work>
    </rdf:RDF>
  </metadata>
  <g
     inkscape:label="Capa 1"
     inkscape:groupmode="layer"
     id="layer1"
     transform="translate(-78.071426,-64.719317)">
    <path
       sodipodi:type="arc"
       style="fill:#0000ff;fill-opacity:1;stroke:none"
       id="path2985"
       sodipodi:cx="312.85715"
       sodipodi:cy="299.50504"
       sodipodi:rx="27.142857"
       sodipodi:ry="27.142857"
       d="M 340,299.50504 A 27.142857,27.142857 0 0 1 312.85715,326.64789 27.142857,27.142857 0 0 1 285.71429,299.50504 27.142857,27.142857 0 0 1 312.85715,272.36218 27.142857,27.142857 0 0 1 340,299.50504 Z" />
    <path
       d="M 340,299.50504 A 27.142857,27.142857 0 0 1 312.85715,326.64789 27.142857,27.142857 0 0 1 285.71429,299.50504 27.142857,27.142857 0 0 1 312.85715,272.36218 27.142857,27.142857 0 0 1 340,299.50504 Z"
       sodipodi:ry="27.142857"
       sodipodi:rx="27.142857"
       sodipodi:cy="299.50504"
       sodipodi:cx="312.85715"
       id="path3755"
       style="fill:none;stroke:#000000;stroke-width:0.12101911;stroke-miterlimit:4;stroke-opacity:1;stroke-dasharray:none"
       sodipodi:type="arc"
       transform="matrix(8.263158,0,0,8.263158,-2272.3309,-2175.3524)" />
    <path
       d="M 340,299.50504 A 27.142857,27.142857 0 0 1 312.85715,326.64789 27.142857,27.142857 0 0 1 285.71429,299.50504 27.142857,27.142857 0 0 1 312.85715,272.36218 27.142857,27.142857 0 0 1 340,299.50504 Z"
       sodipodi:ry="27.142857"
       sodipodi:rx="27.142857"
       sodipodi:cy="299.50504"
       sodipodi:cx="312.85715"
       id="path3757"
       style="fill:#333333;fill-opacity:1;stroke:none"
       sodipodi:type="arc"
       transform="matrix(0.36842104,0,0,0.36842104,363.30828,37.732509)" />
    <text
       xml:space="preserve"
       style="font-style:normal;font-weight:normal;line-height:0%;font-family:sans-serif;letter-spacing:0px;word-spacing:0px;fill:#000000;fill-opacity:1;stroke:none"
       x="242.85713"
       y="355.21933"
       id="text3759"><tspan
         sodipodi:role="line"
         id="tspan3761"
         x="242.85713"
         y="355.21933"
         style="font-size:28px;line-height:1.25;font-family:sans-serif">Terra</tspan></text>
    <text
       xml:space="preserve"
       style="font-style:normal;font-weight:normal;line-height:0%;font-family:sans-serif;letter-spacing:0px;word-spacing:0px;fill:#000000;fill-opacity:1;stroke:none"
       x="382.85718"
       y="166.6479"
       id="text3763"><tspan
         sodipodi:role="line"
         id="tspan3765"
         x="382.85718"
         y="166.6479"
         style="font-size:28px;line-height:1.25;font-family:sans-serif">Lluna</tspan></text>
  </g>
</svg>
