<?xml version="1.0" encoding="UTF-8" standalone="no"?>
<svg xmlns:dc="http://purl.org/dc/elements/1.1/" xmlns:cc="http://web.resource.org/cc/" xmlns:rdf="http://www.w3.org/1999/02/22-rdf-syntax-ns#" xmlns:svg="http://www.w3.org/2000/svg" xmlns="http://www.w3.org/2000/svg" xmlns:xlink="http://www.w3.org/1999/xlink" xmlns:sodipodi="http://sodipodi.sourceforge.net/DTD/sodipodi-0.dtd" xmlns:inkscape="http://www.inkscape.org/namespaces/inkscape" width="250" height="170" id="svg8725" sodipodi:version="0.32" inkscape:version="0.45.1" sodipodi:docname="Gamma Decay.svg" inkscape:output_extension="org.inkscape.output.svg.inkscape" sodipodi:docbase="C:\Documents and Settings\JJB\My Documents" version="1.0">
  <sodipodi:namedview inkscape:window-height="874" inkscape:window-width="1368" inkscape:pageshadow="2" inkscape:pageopacity="0.0" guidetolerance="10.0" gridtolerance="10.0" objecttolerance="10.0" borderopacity="1.0" bordercolor="#666666" pagecolor="#ffffff" id="base" inkscape:zoom="2.8284271" inkscape:cx="153.47942" inkscape:cy="148.6172" inkscape:window-x="64" inkscape:window-y="0" inkscape:current-layer="svg8725" width="250px" height="170px"/>
  <metadata id="metadata8799">
    <rdf:RDF>
      <cc:Work rdf:about="">
        <dc:format>image/svg+xml</dc:format>
        <dc:type rdf:resource="http://purl.org/dc/dcmitype/StillImage"/>
      </cc:Work>
    </rdf:RDF>
  </metadata>
  <title id="title8727">Cherenkov radiation (a kind of shock wave)</title>
  <defs id="defs8791">
    <linearGradient id="linearGradient3229">
      <stop style="stop-color:#00517e;stop-opacity:1;" offset="0" id="stop3231"/>
      <stop style="stop-color:#000000;stop-opacity:0;" offset="1" id="stop3233"/>
    </linearGradient>
    <path style="fill:#000000;stroke:#000000" d="M 160,220 L 360,70" id="ray"/>
    <filter id="filter13170" width="1.7196735" y="-0.38553935" x="-0.35983673" height="1.7710787" inkscape:collect="always">
      <feGaussianBlur stdDeviation="0.28112245" id="feGaussianBlur13172" inkscape:collect="always"/>
    </filter>
    <filter id="filter11863" width="1.1209787" y="-0.12097874" x="-0.060489368" height="1.2419575" inkscape:collect="always">
      <feGaussianBlur stdDeviation="0.50407807" id="feGaussianBlur11865" inkscape:collect="always"/>
    </filter>
    <clipPath id="clipPath11835" clipPathUnits="userSpaceOnUse">
      <path style="opacity:1;fill:none;fill-opacity:1;fill-rule:nonzero;stroke:#b22222;stroke-width:2;stroke-linecap:butt;stroke-miterlimit:4;stroke-dasharray:none;stroke-dashoffset:0;stroke-opacity:1" id="path11837" sodipodi:cx="118" sodipodi:cy="152" sodipodi:type="arc" d="M 126 152 A 8 8 0 1 1  110,152 A 8 8 0 1 1  126 152 z" sodipodi:rx="8" sodipodi:ry="8"/>
    </clipPath>
    <clipPath id="clipPath11831" clipPathUnits="userSpaceOnUse">
      <path style="opacity:1;fill:none;fill-opacity:1;fill-rule:nonzero;stroke:#b22222;stroke-width:1.78725791;stroke-linecap:butt;stroke-miterlimit:4;stroke-dasharray:none;stroke-dashoffset:0;stroke-opacity:1" id="path11833" sodipodi:cx="118" sodipodi:cy="152" sodipodi:type="arc" d="M 126 152 A 8 8 0 1 1  110,152 A 8 8 0 1 1  126 152 z" transform="matrix(1.3067618,0,0,0.9582726,-44.197896,-2.990612)" sodipodi:rx="8" sodipodi:ry="8"/>
    </clipPath>
    <linearGradient id="linearGradient11823" gradientUnits="userSpaceOnUse" inkscape:collect="always" x1="110" x2="110" xlink:href="#linearGradient11817" y1="130.75" y2="148.25"/>
    <filter id="filter10842" width="1.26449" y="-0.1322448" x="-0.132245" height="1.2644897" inkscape:collect="always">
      <feGaussianBlur stdDeviation="0.95830044" id="feGaussianBlur10844" inkscape:collect="always"/>
    </filter>
    <path style="fill:#000000;stroke:#000000" id="path13271" d="M 160,220 L 360,70"/>
    <linearGradient id="linearGradient11817" inkscape:collect="always">
      <stop offset="0" style="stop-color:#b22222;stop-opacity:1;" id="stop11819"/>
      <stop offset="1" style="stop-color:#b22222;stop-opacity:0;" id="stop11821"/>
    </linearGradient>
    <linearGradient id="linearGradient13297" gradientUnits="userSpaceOnUse" inkscape:collect="always" x1="110" x2="110" xlink:href="#linearGradient11817" y1="130.75" y2="148.25"/>
    <linearGradient id="linearGradient13307" gradientUnits="userSpaceOnUse" inkscape:collect="always" x1="110" x2="110" xlink:href="#linearGradient11817" y1="130.75" y2="148.25"/>
    <clipPath id="clipPath14374" clipPathUnits="userSpaceOnUse">
      <path style="opacity:1;fill:none;fill-opacity:1;fill-rule:nonzero;stroke:#b22222;stroke-width:2;stroke-linecap:butt;stroke-miterlimit:4;stroke-dasharray:none;stroke-dashoffset:0;stroke-opacity:1" id="path14376" sodipodi:cx="118" sodipodi:cy="152" sodipodi:type="arc" d="M 126 152 A 8 8 0 1 1  110,152 A 8 8 0 1 1  126 152 z" sodipodi:rx="8" sodipodi:ry="8"/>
    </clipPath>
    <clipPath id="clipPath14370" clipPathUnits="userSpaceOnUse">
      <path style="opacity:1;fill:none;fill-opacity:1;fill-rule:nonzero;stroke:#b22222;stroke-width:1.78725791;stroke-linecap:butt;stroke-miterlimit:4;stroke-dasharray:none;stroke-dashoffset:0;stroke-opacity:1" id="path14372" sodipodi:cx="118" sodipodi:cy="152" sodipodi:type="arc" d="M 126 152 A 8 8 0 1 1  110,152 A 8 8 0 1 1  126 152 z" transform="matrix(1.3067618,0,0,0.9582726,-44.197896,-2.990612)" sodipodi:rx="8" sodipodi:ry="8"/>
    </clipPath>
    <linearGradient id="linearGradient14368" gradientUnits="userSpaceOnUse" inkscape:collect="always" x1="110" x2="110" xlink:href="#linearGradient11817" y1="130.75" y2="148.25"/>
    <path style="fill:#000000;stroke:#000000" id="path14362" d="M 160,220 L 360,70"/>
    <linearGradient id="linearGradient14392" gradientUnits="userSpaceOnUse" inkscape:collect="always" x1="110" x2="110" xlink:href="#linearGradient11817" y1="130.75" y2="148.25"/>
    <filter id="filter16428" width="1.2307297" y="-0.21470195" x="-0.11536486" height="1.4294039" inkscape:collect="always">
      <feGaussianBlur stdDeviation="0.938742" id="feGaussianBlur16430" inkscape:collect="always"/>
    </filter>
    <clipPath id="clipPath16500" clipPathUnits="userSpaceOnUse">
      <path style="opacity:1;fill:none;fill-opacity:1;fill-rule:nonzero;stroke:#b22222;stroke-width:2;stroke-linecap:butt;stroke-miterlimit:4;stroke-dasharray:none;stroke-dashoffset:0;stroke-opacity:1" id="path16502" sodipodi:cx="118" sodipodi:cy="152" sodipodi:type="arc" d="M 126 152 A 8 8 0 1 1  110,152 A 8 8 0 1 1  126 152 z" sodipodi:rx="8" sodipodi:ry="8"/>
    </clipPath>
    <clipPath id="clipPath16496" clipPathUnits="userSpaceOnUse">
      <path style="opacity:1;fill:none;fill-opacity:1;fill-rule:nonzero;stroke:#b22222;stroke-width:1.78725791;stroke-linecap:butt;stroke-miterlimit:4;stroke-dasharray:none;stroke-dashoffset:0;stroke-opacity:1" id="path16498" sodipodi:cx="118" sodipodi:cy="152" sodipodi:type="arc" d="M 126 152 A 8 8 0 1 1  110,152 A 8 8 0 1 1  126 152 z" transform="matrix(1.3067618,0,0,0.9582726,-44.197896,-2.990612)" sodipodi:rx="8" sodipodi:ry="8"/>
    </clipPath>
    <path style="fill:#000000;stroke:#000000" id="path16490" d="M 160,220 L 360,70"/>
    <linearGradient id="linearGradient16554" gradientUnits="userSpaceOnUse" inkscape:collect="always" x1="110" x2="110" xlink:href="#linearGradient11817" y1="130.75" y2="148.25"/>
    <linearGradient inkscape:collect="always" xlink:href="#linearGradient3229" id="linearGradient4218" gradientUnits="userSpaceOnUse" x1="80.25662" y1="9.309983" x2="274.35742" y2="9.309983" gradientTransform="matrix(0.9989939,-4.4846726e-2,4.4846726e-2,0.9989939,-0.243408,7.9831047)"/>
  </defs>
  <path style="opacity:0.7;fill:url(#linearGradient4218);fill-opacity:1;fill-rule:evenodd;stroke:none;stroke-width:1px;stroke-linecap:butt;stroke-linejoin:miter;stroke-opacity:1" d="M 244.20608,-73.124014 L 83.909596,92.977355 L 276.68935,59.195528" sodipodi:nodetypes="ccc" id="path2539"/>
  <path title="x*cos(x)" style="fill:none;fill-rule:evenodd;stroke:#000000;stroke-width:1;stroke-linecap:butt;stroke-linejoin:miter;stroke-opacity:1" d="M 103.10688,73.043137 C 104.3891,71.725863 106.93892,72.811263 110.35419,75.537128 C 113.76947,78.26299 117.91052,82.364572 120.90201,84.28721 C 123.89353,86.209842 125.52671,85.55778 125.40812,81.585214 C 125.28951,77.612656 123.49397,70.461409 122.22157,64.301831 C 120.94917,58.14226 120.49252,53.528909 122.50737,53.600299 C 124.52224,53.671682 129.06468,58.534129 134.33076,64.768178 C 139.59681,71.002226 145.26647,78.001292 148.37154,80.139182 C 151.47663,82.277077 151.78469,79.1132 149.81554,71.632976 C 147.84643,64.152749 143.85051,52.830741 141.58399,44.786814 C 139.31747,36.742884 139.18116,32.736757 142.63375,35.533349 C 146.08632,38.329951 153.05556,47.792347 160.03917,57.281998 C 167.02278,66.771651 173.52751,75.353524 175.97019,76.235863 C 178.41288,77.118196 176.60934,69.951864 172.53724,58.485453 C 168.46514,47.019041 162.57705,32.110434 159.97477,23.43005 C 157.37247,14.749666 158.50578,13.150076 163.98067,19.779961 C 169.45557,26.40984 179.01483,40.781604 187.34218,52.818309 C 195.66954,64.855015 202.12988,73.352829 203.13062,71.50192 C 204.13132,69.651013 199.60962,57.33238 193.42214,41.8563 C 187.23468,26.380212 180.04122,8.9973013 177.88765,1.1674405 C 175.73407,-6.6624219 179.04754,-4.1294977 186.95214,7.1058606 C 194.85672,18.341226 206.86904,37.362735 215.94885,50.825725 C 225.02866,64.28872 230.45086,70.818684 229.29733,64.884457 C 228.14384,58.950225 220.54119,40.791693 212.47945,21.762956 C 204.41773,2.7342169 196.74576,-15.555759 195.8872,-20.930912 C 195.02863,-26.30606 201.30992,-18.147678 211.82769,-1.9590197 C 222.34547,14.229631 236.36896,37.063312 245.43295,50.496306 C 254.49694,63.929292 257.85489,66.546558 253.97003,55.435045 C 250.08517,44.323539 239.32989,20.189192 229.88289,-1.4653554 C 220.43587,-23.119894 213.29397,-40.405104 214.56752,-41.738821" id="path2565"/>
  <g id="g14386" transform="translate(15.341115,130.36438)">
    <path style="opacity:1;fill:#ffffff;fill-opacity:1;fill-rule:nonzero;stroke:none;stroke-width:1.39137828;stroke-linecap:butt;stroke-miterlimit:4;stroke-dasharray:none;stroke-dashoffset:0;stroke-opacity:1" id="path13311" sodipodi:cx="118" sodipodi:cy="152" sodipodi:type="arc" d="M 126 152 A 8 8 0 1 1  110,152 A 8 8 0 1 1  126 152 z" clip-path="url(#clipPath11835)" transform="matrix(1.437438,0,0,1.4374089,-157.11818,-205.98688)" sodipodi:rx="8" sodipodi:ry="8"/>
    <path style="opacity:1;fill:none;fill-opacity:1;fill-rule:nonzero;stroke:#b22222;stroke-width:1.39137828;stroke-linecap:butt;stroke-miterlimit:4;stroke-dasharray:none;stroke-dashoffset:0;stroke-opacity:1;filter:url(#filter10842)" id="path9695" sodipodi:cx="118" sodipodi:cy="152" sodipodi:type="arc" d="M 126 152 A 8 8 0 1 1  110,152 A 8 8 0 1 1  126 152 z" clip-path="url(#clipPath11835)" transform="matrix(1.437438,0,0,1.4374089,-157.11818,-205.98688)" sodipodi:rx="8" sodipodi:ry="8"/>
    <path style="opacity:1;fill:url(#linearGradient16554);fill-opacity:1;fill-rule:nonzero;stroke:none;stroke-width:2;stroke-linecap:butt;stroke-miterlimit:4;stroke-dasharray:none;stroke-dashoffset:0;stroke-opacity:1;filter:url(#filter11863)" id="path10846" sodipodi:cx="110" sodipodi:cy="140" sodipodi:type="arc" d="M 120 140 A 10 5 0 1 1  100,140 A 10 5 0 1 1  120 140 z" clip-path="url(#clipPath11831)" transform="matrix(1.0507331,0.325515,-0.443884,1.4328178,-39.760586,-227.66727)" sodipodi:rx="10" sodipodi:ry="5"/>
    <path style="opacity:1;fill:#ffffff;fill-opacity:1;fill-rule:nonzero;stroke:none;stroke-width:2;stroke-linecap:butt;stroke-miterlimit:4;stroke-dasharray:none;stroke-dashoffset:0;stroke-opacity:1;filter:url(#filter13170)" id="path11867" sodipodi:cx="78.4375" sodipodi:cy="140.5" sodipodi:type="arc" d="M 79.375 140.5 A 0.9375 0.875 0 1 1  77.5,140.5 A 0.9375 0.875 0 1 1  79.375 140.5 z" transform="matrix(-1.478029,-1.5383567,-0.7211047,0.6928261,235.64213,31.241018)" sodipodi:rx="0.9375" sodipodi:ry="0.875"/>
  </g>
  <g id="g16510" transform="translate(10.39137,69.906749)">
    <path style="opacity:1;fill:#ffffff;fill-opacity:1;fill-rule:nonzero;stroke:none;stroke-width:1.39137828;stroke-linecap:butt;stroke-miterlimit:4;stroke-dasharray:none;stroke-dashoffset:0;stroke-opacity:1" id="path16512" sodipodi:cx="118" sodipodi:cy="152" sodipodi:type="arc" d="M 126 152 A 8 8 0 1 1  110,152 A 8 8 0 1 1  126 152 z" clip-path="url(#clipPath11835)" transform="matrix(1.437438,0,0,1.4374089,-157.11818,-205.98688)" sodipodi:rx="8" sodipodi:ry="8"/>
    <path style="opacity:1;fill:none;fill-opacity:1;fill-rule:nonzero;stroke:#4682b4;stroke-width:1.39137828;stroke-linecap:butt;stroke-miterlimit:4;stroke-dasharray:none;stroke-dashoffset:0;stroke-opacity:1;filter:url(#filter10842)" id="path16514" sodipodi:cx="118" sodipodi:cy="152" sodipodi:type="arc" d="M 126 152 A 8 8 0 1 1  110,152 A 8 8 0 1 1  126 152 z" clip-path="url(#clipPath11835)" transform="matrix(1.437438,0,0,1.4374089,-157.11818,-205.98688)" sodipodi:rx="8" sodipodi:ry="8"/>
    <path style="opacity:1;fill:#4682b4;fill-opacity:1;fill-rule:nonzero;stroke:none;stroke-width:2;stroke-linecap:butt;stroke-miterlimit:4;stroke-dasharray:none;stroke-dashoffset:0;stroke-opacity:1;filter:url(#filter16428)" id="path16516" sodipodi:cx="110" sodipodi:cy="140" sodipodi:type="arc" d="M 120 140 A 10 5 0 1 1  100,140 A 10 5 0 1 1  120 140 z" clip-path="url(#clipPath11831)" transform="matrix(1.0507331,0.325515,-0.443884,1.4328178,-39.760586,-227.66727)" sodipodi:rx="10" sodipodi:ry="5"/>
    <path style="opacity:1;fill:#ffffff;fill-opacity:1;fill-rule:nonzero;stroke:none;stroke-width:2;stroke-linecap:butt;stroke-miterlimit:4;stroke-dasharray:none;stroke-dashoffset:0;stroke-opacity:1;filter:url(#filter13170)" id="path16518" sodipodi:cx="78.4375" sodipodi:cy="140.5" sodipodi:type="arc" d="M 79.375 140.5 A 0.9375 0.875 0 1 1  77.5,140.5 A 0.9375 0.875 0 1 1  79.375 140.5 z" transform="matrix(-1.478029,-1.5383567,-0.7211047,0.6928261,235.64213,31.241018)" sodipodi:rx="0.9375" sodipodi:ry="0.875"/>
  </g>
  <g id="g2479" transform="translate(2.40855e-2,2.1366606)">
    <use id="use2547" width="400" transform="translate(72.272817,-5.560659)" y="0" xlink:href="#g16510" x="0" height="200"/>
    <use id="use2545" width="400" transform="translate(79.44439,-44.491377)" y="0" xlink:href="#g14386" x="0" height="200"/>
    <use id="use2386" width="580" transform="translate(27.838837,-18.281009)" y="0" xlink:href="#g16510" x="0" height="560"/>
    <use id="use2384" width="580" transform="translate(7.7824896,-73.410207)" y="0" xlink:href="#g14386" x="0" height="560"/>
    <use id="use16588" width="580" transform="translate(3.7972067,-4.1388702)" y="0" xlink:href="#g16510" x="0" height="560"/>
    <use id="use16584" width="580" transform="translate(-14.58757,-42.676198)" y="0" xlink:href="#g14386" x="0" height="560"/>
    <use id="use16586" width="580" transform="translate(46.930717,-18.28101)" y="0" xlink:href="#g16510" x="0" height="560"/>
    <use id="use16582" width="580" transform="translate(71.67946,-56.111228)" y="0" xlink:href="#g14386" x="0" height="560"/>
    <use id="use16580" width="580" transform="translate(64.608387,-5.5530902)" y="0" xlink:href="#g16510" x="0" height="560"/>
    <use id="use16578" width="580" transform="translate(54.00179,-75.910218)" y="0" xlink:href="#g14386" x="0" height="560"/>
    <use id="use16576" width="580" transform="translate(21.474877,-13.33127)" y="0" xlink:href="#g16510" x="0" height="560"/>
    <use id="use16574" width="580" transform="translate(-8.9307104,-12.977708)" y="0" xlink:href="#g14386" x="0" height="560"/>
    <use id="use16572" width="580" transform="translate(8.0398496,0.4573217)" y="0" xlink:href="#g14386" x="0" height="560"/>
    <use id="use16570" width="580" transform="translate(22.889087,66.5718)" y="0" xlink:href="#g16510" x="0" height="560"/>
    <use id="use16564" width="580" transform="translate(48.34493,-70.253358)" y="0" xlink:href="#g14386" x="0" height="560" inkscape:transform-center-y="-127.27922" inkscape:transform-center-x="-40.305087"/>
    <use id="use16538" width="580" transform="translate(-10.344943,31.21646)" y="0" xlink:href="#g16510" x="0" height="560"/>
    <use id="use16560" width="580" transform="translate(-6.1022804,-24.998528)" y="0" xlink:href="#g14386" x="0" height="560"/>
    <use id="use16558" width="580" transform="translate(17.23224,-2.3711083)" y="0" xlink:href="#g14386" x="0" height="560"/>
    <use id="use16556" width="580" transform="translate(31.37438,-75.910208)" y="0" xlink:href="#g14386" x="0" height="560"/>
    <use id="use14394" width="580" transform="translate(13.69671,-49.040148)" y="0" xlink:href="#g14386" x="0" height="560"/>
    <use id="use14420" width="580" transform="translate(37.73834,-34.190918)" y="0" xlink:href="#g14386" x="0" height="560"/>
    <use id="use14424" width="580" transform="translate(57.53732,-12.270608)" y="0" xlink:href="#g14386" x="0" height="560"/>
    <use id="use14426" width="580" transform="translate(64.60839,-27.119838)" y="0" xlink:href="#g14386" x="0" height="560"/>
    <use id="use16522" width="580" transform="translate(44.809397,-2.0175602)" y="0" xlink:href="#g16510" x="0" height="560"/>
    <use id="use16524" width="580" transform="translate(26.424627,-4.1388802)" y="0" xlink:href="#g16510" x="0" height="560"/>
    <use id="use16526" width="580" transform="translate(45.516507,41.82306)" y="0" xlink:href="#g16510" x="0" height="560"/>
    <use id="use16528" width="580" transform="translate(78.750527,20.60986)" y="0" xlink:href="#g16510" x="0" height="560"/>
    <use id="use16530" width="580" transform="translate(58.244427,31.21647)" y="0" xlink:href="#g16510" x="0" height="560"/>
    <use id="use16534" width="580" transform="translate(48.344937,11.41747)" y="0" xlink:href="#g16510" x="0" height="560"/>
    <use id="use16540" width="580" transform="translate(26.424627,22.73118)" y="0" xlink:href="#g16510" x="0" height="560"/>
    <use id="use16542" width="580" transform="translate(4.5043167,48.89413)" y="0" xlink:href="#g16510" x="0" height="560"/>
    <use id="use16544" width="580" transform="translate(33.495687,50.30835)" y="0" xlink:href="#g16510" x="0" height="560"/>
    <use id="use16546" width="580" transform="translate(50.466257,69.40022)" y="0" xlink:href="#g16510" x="0" height="560"/>
    <use id="use16548" width="580" transform="translate(79.457627,43.9444)" y="0" xlink:href="#g16510" x="0" height="560"/>
    <use id="use16568" width="580" transform="translate(66.72971,-7.3208583)" y="0" xlink:href="#g14386" x="0" height="560"/>
    <use id="use16550" width="580" transform="translate(63.194167,62.32916)" y="0" xlink:href="#g16510" x="0" height="560"/>
    <use id="use16552" width="580" transform="translate(-1.1525433,10.71037)" y="0" xlink:href="#g16510" x="0" height="560"/>
    <use id="use14430" width="580" transform="translate(57.53732,-42.676188)" y="0" xlink:href="#g14386" x="0" height="560"/>
    <use id="use16532" width="580" transform="translate(70.265247,5.7606198)" y="0" xlink:href="#g16510" x="0" height="560"/>
    <use id="use14418" width="580" transform="translate(52.58758,-59.646758)" y="0" xlink:href="#g14386" x="0" height="560"/>
    <use id="use14416" width="580" transform="translate(27.13173,-51.161468)" y="0" xlink:href="#g14386" x="0" height="560"/>
    <use id="use14396" width="580" transform="translate(25.51041,-22.170098)" y="0" xlink:href="#g14386" x="0" height="560"/>
    <use id="use14428" width="580" transform="translate(44.8094,-1.6639883)" y="0" xlink:href="#g14386" x="0" height="560"/>
    <use id="use16536" width="580" transform="translate(10.161167,26.26672)" y="0" xlink:href="#g16510" x="0" height="560"/>
    <use id="use14414" width="580" transform="translate(6.6256396,-63.182288)" y="0" xlink:href="#g14386" x="0" height="560"/>
    <use id="use16520" width="580" transform="translate(36.324117,67.98602)" y="0" xlink:href="#g16510" x="0" height="560"/>
    <use id="use14422" width="580" transform="translate(10.16117,-18.634558)" y="0" xlink:href="#g14386" x="0" height="560"/>
    <use id="use16562" width="580" transform="translate(-9.6378204,-56.111228)" y="0" xlink:href="#g14386" x="0" height="560"/>
    <use id="use16566" width="580" transform="translate(77.33631,-29.241168)" y="0" xlink:href="#g14386" x="0" height="560"/>
  </g>
  <g id="g2773" transform="matrix(2,0,0,2,65.322971,-91.209436)" inkscape:transform-center-x="9.899495" inkscape:transform-center-y="-4.5961941">
    <g id="g2775" transform="matrix(0.2428571,0,0,-0.2428571,-42.5,187.5)" style="font-style:normal;font-variant:normal;font-weight:normal;font-stretch:normal;letter-spacing:normal;word-spacing:normal;text-anchor:start;fill:none;fill-opacity:1;fill-rule:evenodd;stroke:#000000;stroke-linecap:butt;stroke-linejoin:miter;stroke-miterlimit:10.43299961;stroke-dasharray:none;stroke-dashoffset:0;stroke-opacity:1" xml:space="preserve"><path id="path2777" d="M 458.04,418.65 L 458.14,418.92 L 458.23,419.17 L 458.34,419.42 L 458.45,419.66 L 458.56,419.89 L 458.67,420.12 L 458.79,420.34 L 458.92,420.55 L 459.05,420.75 L 459.18,420.94 L 459.31,421.13 L 459.45,421.31 L 459.73,421.66 L 460.02,421.97 L 460.32,422.26 L 460.63,422.53 L 460.94,422.78 L 461.26,423 L 461.57,423.2 L 461.89,423.38 L 462.21,423.55 L 462.52,423.69 L 462.84,423.82 L 463.14,423.93 L 463.44,424.03 L 463.73,424.11 L 464.01,424.18 L 464.27,424.24 L 464.53,424.29 L 464.77,424.33 L 464.99,424.36 L 465.19,424.39 L 465.38,424.41 L 465.54,424.42 L 465.69,424.42 L 465.8,424.43 L 465.9,424.43 L 465.96,424.43 C 473.48,424.43 474.03,415.71 474.03,411.78 C 474.03,408.74 473.79,407.89 473.43,406.9 C 472.34,403.26 470.84,397.48 470.84,396.19 C 470.84,395.64 471.09,395.29 471.49,395.29 C 472.14,395.29 472.54,396.39 473.09,398.28 C 474.23,402.46 474.73,405.3 474.93,406.85 C 475.03,407.5 475.13,408.14 475.33,408.79 C 476.92,413.72 480.11,421.14 482.1,425.08 C 482.45,425.68 483.05,426.77 483.05,426.97 C 483.05,427.47 482.55,427.47 482.45,427.47 C 482.3,427.47 482,427.47 481.85,427.12 C 479.26,422.39 477.27,417.41 475.28,412.38 C 475.23,413.92 475.18,417.71 473.23,422.54 C 472.04,425.58 470.05,428.02 466.61,428.02 C 460.38,428.02 456.9,420.45 456.9,418.9 C 456.9,418.4 457.34,418.4 457.84,418.4 L 458.04,418.65 z " style="fill:#000000;stroke-width:0"/></g>  </g>
</svg>