<?xml version="1.0" encoding="UTF-8" standalone="no"?>
<!-- Created with Inkscape (http://www.inkscape.org/) -->

<svg
   xmlns:ns0="http://www.iki.fi/pav/software/textext/"
   xmlns:dc="http://purl.org/dc/elements/1.1/"
   xmlns:cc="http://creativecommons.org/ns#"
   xmlns:rdf="http://www.w3.org/1999/02/22-rdf-syntax-ns#"
   xmlns:svg="http://www.w3.org/2000/svg"
   xmlns="http://www.w3.org/2000/svg"
   xmlns:xlink="http://www.w3.org/1999/xlink"
   xmlns:sodipodi="http://sodipodi.sourceforge.net/DTD/sodipodi-0.dtd"
   xmlns:inkscape="http://www.inkscape.org/namespaces/inkscape"
   width="412"
   height="360"
   id="svg2"
   version="1.1"
   inkscape:version="0.48.4 r9939"
   sodipodi:docname="fotoelectric_04.svg">
  <sodipodi:namedview
     id="base"
     pagecolor="#ffffff"
     bordercolor="#666666"
     borderopacity="1.0"
     inkscape:pageopacity="0.0"
     inkscape:pageshadow="2"
     inkscape:zoom="1.5444444"
     inkscape:cx="206"
     inkscape:cy="180"
     inkscape:document-units="px"
     inkscape:current-layer="layer1"
     showgrid="false"
     fit-margin-top="10"
     fit-margin-right="10"
     fit-margin-left="10"
     fit-margin-bottom="10"
     inkscape:window-width="1084"
     inkscape:window-height="703"
     inkscape:window-x="83"
     inkscape:window-y="24"
     inkscape:window-maximized="0" />
  <defs
     id="defs4">
    <marker
       inkscape:stockid="Arrow2Mend"
       orient="auto"
       refY="0.0"
       refX="0.0"
       id="Arrow2Mend"
       style="overflow:visible;">
      <path
         id="path4161"
         style="fill-rule:evenodd;stroke-width:0.62500000;stroke-linejoin:round;"
         d="M 8.7185878,4.0337352 L -2.2072895,0.016013256 L 8.7185884,-4.0017078 C 6.9730900,-1.6296469 6.9831476,1.6157441 8.7185878,4.0337352 z "
         transform="scale(0.6) rotate(180) translate(0,0)" />
    </marker>
    <marker
       inkscape:stockid="Arrow2Mstart"
       orient="auto"
       refY="0.0"
       refX="0.0"
       id="Arrow2Mstart"
       style="overflow:visible">
      <path
         id="path4158"
         style="fill-rule:evenodd;stroke-width:0.62500000;stroke-linejoin:round"
         d="M 8.7185878,4.0337352 L -2.2072895,0.016013256 L 8.7185884,-4.0017078 C 6.9730900,-1.6296469 6.9831476,1.6157441 8.7185878,4.0337352 z "
         transform="scale(0.6) translate(0,0)" />
    </marker>
  </defs>
  <metadata
     id="metadata7">
    <rdf:RDF>
      <cc:Work
         rdf:about="">
        <dc:format>image/svg+xml</dc:format>
        <dc:type
           rdf:resource="http://purl.org/dc/dcmitype/StillImage" />
        <dc:title />
      </cc:Work>
    </rdf:RDF>
  </metadata>
  <g
     transform="translate(-74.000015,-52.362175)"
     id="layer1"
     inkscape:groupmode="layer"
     inkscape:label="Capa 1">
    <path
       transform="translate(74.000015,52.362175)"
       inkscape:connector-curvature="0"
       id="path3076"
       d="m 137.91367,20.719424 0,319.856116"
       style="fill:none;stroke:#000000;stroke-width:1px;stroke-linecap:butt;stroke-linejoin:miter;stroke-opacity:1" />
    <path
       transform="translate(74.000015,52.362175)"
       inkscape:connector-curvature="0"
       id="path3078"
       d="m 14.244604,237.6259 380.719426,0"
       style="fill:none;stroke:#000000;stroke-width:1px;stroke-linecap:butt;stroke-linejoin:miter;stroke-opacity:1" />
    <g
       id="g3088"
       ns0:preamble=""
       ns0:text="$\\nu$"
       transform="matrix(2.7958059,0,0,2.7958059,-176.4854,-65.541708)">
      <defs
         id="defs3090">
        <g
           id="g3092">
          <symbol
             id="textext-75542c86-0"
             overflow="visible"
             style="overflow:visible">
            <path
               id="path3095"
               d=""
               style="stroke:none"
               inkscape:connector-curvature="0" />
          </symbol>
          <symbol
             id="textext-75542c86-1"
             overflow="visible"
             style="overflow:visible">
            <path
               id="path3098"
               d="m 2.234375,-4.296875 c 0,-0.015625 0,-0.109375 -0.125,-0.109375 -0.234375,0 -0.96875,0.078125 -1.21875,0.09375 -0.078125,0.015625 -0.1875,0.03125 -0.1875,0.203125 0,0.125 0.078125,0.125 0.234375,0.125 0.484375,0 0.5,0.0625 0.5,0.171875 0,0.0625 -0.125,0.53125 -0.1875,0.796875 L 0.640625,-0.5625 C 0.59375,-0.421875 0.53125,-0.140625 0.53125,-0.125 0.53125,-0.015625 0.625,0 0.6875,0 l 0.140625,0 c 0.703125,-0.125 1.78125,-0.515625 2.8125,-1.46875 1.3125,-1.21875 1.578125,-2.578125 1.578125,-2.671875 0,-0.171875 -0.109375,-0.265625 -0.28125,-0.265625 -0.078125,0 -0.3125,0.046875 -0.390625,0.328125 -0.640625,2.265625 -2.15625,3.375 -3.296875,3.75 z"
               style="stroke:none"
               inkscape:connector-curvature="0" />
          </symbol>
        </g>
      </defs>
      <g
         id="textext-75542c86-2">
        <g
           id="g3101"
           style="fill:#000000;fill-opacity:1">
          <use
             id="use3103"
             y="134.765"
             x="223.43201"
             xlink:href="#textext-75542c86-1"
             width="412"
             height="360" />
        </g>
      </g>
    </g>
    <path
       style="fill:none;stroke:#ff0000;stroke-width:1.7;stroke-linecap:butt;stroke-linejoin:miter;stroke-opacity:1;stroke-miterlimit:4;stroke-dasharray:none"
       d="M 326.97842,72.517986 192.94964,237.6259 137.91367,308.20144"
       id="path3140"
       inkscape:connector-curvature="0"
       transform="translate(74.000015,52.362175)" />
    <g
       transform="matrix(2.3172101,0,0,2.3172101,-332.15342,-216.69987)"
       ns0:text="$V_0$"
       ns0:preamble=""
       id="g3929">
      <defs
         id="defs3931">
        <g
           id="g3933">
          <symbol
             style="overflow:visible"
             overflow="visible"
             id="textext-5ce78637-0">
            <path
               inkscape:connector-curvature="0"
               style="stroke:none"
               d=""
               id="path3936" />
          </symbol>
          <symbol
             style="overflow:visible"
             overflow="visible"
             id="textext-5ce78637-1">
            <path
               inkscape:connector-curvature="0"
               style="stroke:none"
               d="M 6.265625,-5.671875 C 6.75,-6.453125 7.171875,-6.484375 7.53125,-6.5 c 0.125,-0.015625 0.140625,-0.171875 0.140625,-0.1875 0,-0.078125 -0.0625,-0.125 -0.140625,-0.125 -0.25,0 -0.546875,0.03125 -0.8125,0.03125 -0.328125,0 -0.671875,-0.03125 -0.984375,-0.03125 -0.0625,0 -0.1875,0 -0.1875,0.1875 0,0.109375 0.078125,0.125 0.15625,0.125 0.265625,0.015625 0.453125,0.125 0.453125,0.328125 0,0.15625 -0.140625,0.375 -0.140625,0.375 l -3.0625,4.875 -0.6875,-5.28125 C 2.265625,-6.375 2.5,-6.5 2.953125,-6.5 c 0.140625,0 0.25,0 0.25,-0.203125 0,-0.078125 -0.078125,-0.109375 -0.125,-0.109375 -0.40625,0 -0.828125,0.03125 -1.25,0.03125 -0.171875,0 -0.359375,0 -0.546875,0 -0.171875,0 -0.359375,-0.03125 -0.53125,-0.03125 -0.078125,0 -0.1875,0 -0.1875,0.1875 0,0.125 0.078125,0.125 0.25,0.125 0.546875,0 0.5625,0.09375 0.59375,0.34375 L 2.1875,-0.015625 C 2.21875,0.1875 2.265625,0.21875 2.390625,0.21875 c 0.15625,0 0.203125,-0.046875 0.28125,-0.171875 z"
               id="path3939" />
          </symbol>
          <symbol
             style="overflow:visible"
             overflow="visible"
             id="textext-5ce78637-2">
            <path
               inkscape:connector-curvature="0"
               style="stroke:none"
               d=""
               id="path3942" />
          </symbol>
          <symbol
             style="overflow:visible"
             overflow="visible"
             id="textext-5ce78637-3">
            <path
               inkscape:connector-curvature="0"
               style="stroke:none"
               d="M 3.59375,-2.21875 C 3.59375,-2.984375 3.5,-3.546875 3.1875,-4.03125 2.96875,-4.34375 2.53125,-4.625 1.984375,-4.625 c -1.625,0 -1.625,1.90625 -1.625,2.40625 0,0.5 0,2.359375 1.625,2.359375 1.609375,0 1.609375,-1.859375 1.609375,-2.359375 z M 1.984375,-0.0625 c -0.328125,0 -0.75,-0.1875 -0.890625,-0.75 C 1,-1.21875 1,-1.796875 1,-2.3125 1,-2.828125 1,-3.359375 1.09375,-3.734375 1.25,-4.28125 1.6875,-4.4375 1.984375,-4.4375 c 0.375,0 0.734375,0.234375 0.859375,0.640625 0.109375,0.375 0.125,0.875 0.125,1.484375 0,0.515625 0,1.03125 -0.09375,1.46875 -0.140625,0.640625 -0.609375,0.78125 -0.890625,0.78125 z"
               id="path3945" />
          </symbol>
        </g>
      </defs>
      <g
         id="textext-5ce78637-4">
        <g
           style="fill:#000000;fill-opacity:1"
           id="g3948">
          <use
             height="360"
             width="412"
             xlink:href="#textext-5ce78637-1"
             x="223.43201"
             y="134.765"
             id="use3950" />
        </g>
        <g
           style="fill:#000000;fill-opacity:1"
           id="g3952">
          <use
             height="360"
             width="412"
             xlink:href="#textext-5ce78637-3"
             x="229.244"
             y="136.259"
             id="use3954" />
        </g>
      </g>
    </g>
    <path
       transform="translate(74.000015,52.362175)"
       inkscape:connector-curvature="0"
       id="path3989"
       d="m 193.59712,229.20863 0,17.48202"
       style="fill:none;stroke:#000000;stroke-width:1px;stroke-linecap:butt;stroke-linejoin:miter;stroke-opacity:1" />
    <path
       transform="translate(74.000015,52.362175)"
       inkscape:connector-curvature="0"
       id="path3991"
       d="m 130.79137,306.90647 14.2446,0"
       style="fill:none;stroke:#000000;stroke-width:1px;stroke-linecap:butt;stroke-linejoin:miter;stroke-opacity:1" />
    <g
       id="g4050"
       transform="matrix(2.3902928,0,0,2.3902928,-274.73011,-4.4025291)"
       ns0:preamble=""
       ns0:text="$\\nu_0$">
      <defs
         id="defs4052">
        <g
           id="g4054">
          <symbol
             id="textext-8633e7d0-0"
             overflow="visible"
             style="overflow:visible">
            <path
               id="path4057"
               d=""
               style="stroke:none"
               inkscape:connector-curvature="0" />
          </symbol>
          <symbol
             id="textext-8633e7d0-1"
             overflow="visible"
             style="overflow:visible">
            <path
               id="path4060"
               d="m 2.234375,-4.296875 c 0,-0.015625 0,-0.109375 -0.125,-0.109375 -0.234375,0 -0.96875,0.078125 -1.21875,0.09375 -0.078125,0.015625 -0.1875,0.03125 -0.1875,0.203125 0,0.125 0.078125,0.125 0.234375,0.125 0.484375,0 0.5,0.0625 0.5,0.171875 0,0.0625 -0.125,0.53125 -0.1875,0.796875 L 0.640625,-0.5625 C 0.59375,-0.421875 0.53125,-0.140625 0.53125,-0.125 0.53125,-0.015625 0.625,0 0.6875,0 l 0.140625,0 c 0.703125,-0.125 1.78125,-0.515625 2.8125,-1.46875 1.3125,-1.21875 1.578125,-2.578125 1.578125,-2.671875 0,-0.171875 -0.109375,-0.265625 -0.28125,-0.265625 -0.078125,0 -0.3125,0.046875 -0.390625,0.328125 -0.640625,2.265625 -2.15625,3.375 -3.296875,3.75 z"
               style="stroke:none"
               inkscape:connector-curvature="0" />
          </symbol>
          <symbol
             id="textext-8633e7d0-2"
             overflow="visible"
             style="overflow:visible">
            <path
               id="path4063"
               d=""
               style="stroke:none"
               inkscape:connector-curvature="0" />
          </symbol>
          <symbol
             id="textext-8633e7d0-3"
             overflow="visible"
             style="overflow:visible">
            <path
               id="path4066"
               d="M 3.59375,-2.21875 C 3.59375,-2.984375 3.5,-3.546875 3.1875,-4.03125 2.96875,-4.34375 2.53125,-4.625 1.984375,-4.625 c -1.625,0 -1.625,1.90625 -1.625,2.40625 0,0.5 0,2.359375 1.625,2.359375 1.609375,0 1.609375,-1.859375 1.609375,-2.359375 z M 1.984375,-0.0625 c -0.328125,0 -0.75,-0.1875 -0.890625,-0.75 C 1,-1.21875 1,-1.796875 1,-2.3125 1,-2.828125 1,-3.359375 1.09375,-3.734375 1.25,-4.28125 1.6875,-4.4375 1.984375,-4.4375 c 0.375,0 0.734375,0.234375 0.859375,0.640625 0.109375,0.375 0.125,0.875 0.125,1.484375 0,0.515625 0,1.03125 -0.09375,1.46875 -0.140625,0.640625 -0.609375,0.78125 -0.890625,0.78125 z"
               style="stroke:none"
               inkscape:connector-curvature="0" />
          </symbol>
        </g>
      </defs>
      <g
         id="textext-8633e7d0-4">
        <g
           id="g4069"
           style="fill:#000000;fill-opacity:1">
          <use
             id="use4071"
             y="134.765"
             x="223.43201"
             xlink:href="#textext-8633e7d0-1"
             width="412"
             height="360" />
        </g>
        <g
           id="g4073"
           style="fill:#000000;fill-opacity:1">
          <use
             id="use4075"
             y="136.259"
             x="228.353"
             xlink:href="#textext-8633e7d0-3"
             width="412"
             height="360" />
        </g>
      </g>
    </g>
    <path
       sodipodi:type="arc"
       style="fill:none;stroke:#000000;stroke-width:1.70000005;stroke-miterlimit:4;stroke-opacity:1;stroke-dasharray:none;stroke-dashoffset:0;marker-start:url(#Arrow2Mstart);marker-end:url(#Arrow2Mend)"
       id="path4128"
       sodipodi:cx="248.63309"
       sodipodi:cy="229.85611"
       sodipodi:rx="70.575539"
       sodipodi:ry="70.575539"
       d="m 284.05339,168.81261 c 25.64658,14.88135 39.2565,44.20652 34.06514,73.39986"
       transform="translate(46.158288,46.534837)"
       sodipodi:start="5.2381575"
       sodipodi:end="6.4591723"
       sodipodi:open="true" />
    <g
       transform="matrix(2.4658758,0,0,2.4658758,-194.75925,-119.6976)"
       ns0:text="$\\tan\\alpha=\\frac{h}{e}$"
       ns0:preamble=""
       id="g4818">
      <defs
         id="defs4820">
        <g
           id="g4822">
          <symbol
             style="overflow:visible"
             overflow="visible"
             id="textext-7e56516e-0">
            <path
               inkscape:connector-curvature="0"
               style="stroke:none"
               d=""
               id="path4825" />
          </symbol>
          <symbol
             style="overflow:visible"
             overflow="visible"
             id="textext-7e56516e-1">
            <path
               inkscape:connector-curvature="0"
               style="stroke:none"
               d="m 1.71875,-3.984375 1.4375,0 0,-0.3125 -1.4375,0 0,-1.828125 -0.25,0 c 0,0.8125 -0.296875,1.875 -1.28125,1.921875 l 0,0.21875 0.84375,0 0,2.75 c 0,1.21875 0.9375,1.34375 1.296875,1.34375 0.703125,0 0.984375,-0.703125 0.984375,-1.34375 l 0,-0.5625 -0.25,0 0,0.546875 c 0,0.734375 -0.296875,1.109375 -0.671875,1.109375 -0.671875,0 -0.671875,-0.90625 -0.671875,-1.078125 z"
               id="path4828" />
          </symbol>
          <symbol
             style="overflow:visible"
             overflow="visible"
             id="textext-7e56516e-2">
            <path
               inkscape:connector-curvature="0"
               style="stroke:none"
               d="m 3.3125,-0.75 c 0.046875,0.390625 0.3125,0.8125 0.78125,0.8125 0.21875,0 0.828125,-0.140625 0.828125,-0.953125 l 0,-0.5625 -0.25,0 0,0.5625 c 0,0.578125 -0.25,0.640625 -0.359375,0.640625 -0.328125,0 -0.375,-0.453125 -0.375,-0.5 l 0,-1.984375 c 0,-0.421875 0,-0.8125 -0.359375,-1.1875 C 3.1875,-4.3125 2.6875,-4.46875 2.21875,-4.46875 c -0.828125,0 -1.515625,0.46875 -1.515625,1.125 0,0.296875 0.203125,0.46875 0.46875,0.46875 0.28125,0 0.453125,-0.203125 0.453125,-0.453125 0,-0.125 -0.046875,-0.453125 -0.515625,-0.453125 C 1.390625,-4.140625 1.875,-4.25 2.1875,-4.25 c 0.5,0 1.0625,0.390625 1.0625,1.28125 l 0,0.359375 c -0.515625,0.03125 -1.203125,0.0625 -1.828125,0.359375 -0.75,0.34375 -1,0.859375 -1,1.296875 0,0.8125 0.96875,1.0625 1.59375,1.0625 0.65625,0 1.109375,-0.40625 1.296875,-0.859375 z M 3.25,-2.390625 l 0,1 c 0,0.9375 -0.71875,1.28125 -1.171875,1.28125 -0.484375,0 -0.890625,-0.34375 -0.890625,-0.84375 0,-0.546875 0.421875,-1.375 2.0625,-1.4375 z"
               id="path4831" />
          </symbol>
          <symbol
             style="overflow:visible"
             overflow="visible"
             id="textext-7e56516e-3">
            <path
               inkscape:connector-curvature="0"
               style="stroke:none"
               d="m 1.09375,-3.421875 0,2.671875 c 0,0.4375 -0.109375,0.4375 -0.78125,0.4375 l 0,0.3125 c 0.359375,-0.015625 0.859375,-0.03125 1.140625,-0.03125 0.25,0 0.765625,0.015625 1.109375,0.03125 l 0,-0.3125 c -0.671875,0 -0.78125,0 -0.78125,-0.4375 l 0,-1.84375 C 1.78125,-3.625 2.5,-4.1875 3.125,-4.1875 c 0.640625,0 0.75,0.53125 0.75,1.109375 l 0,2.328125 c 0,0.4375 -0.109375,0.4375 -0.78125,0.4375 l 0,0.3125 c 0.34375,-0.015625 0.859375,-0.03125 1.125,-0.03125 0.25,0 0.78125,0.015625 1.109375,0.03125 l 0,-0.3125 c -0.515625,0 -0.765625,0 -0.765625,-0.296875 l 0,-1.90625 c 0,-0.859375 0,-1.15625 -0.3125,-1.515625 -0.140625,-0.171875 -0.46875,-0.375 -1.046875,-0.375 C 2.46875,-4.40625 2,-3.984375 1.71875,-3.359375 l 0,-1.046875 -1.40625,0.109375 0,0.3125 c 0.703125,0 0.78125,0.0625 0.78125,0.5625 z"
               id="path4834" />
          </symbol>
          <symbol
             style="overflow:visible"
             overflow="visible"
             id="textext-7e56516e-4">
            <path
               inkscape:connector-curvature="0"
               style="stroke:none"
               d="m 6.84375,-3.265625 c 0.15625,0 0.34375,0 0.34375,-0.1875 C 7.1875,-3.65625 7,-3.65625 6.859375,-3.65625 l -5.96875,0 c -0.140625,0 -0.328125,0 -0.328125,0.203125 0,0.1875 0.1875,0.1875 0.328125,0.1875 z m 0.015625,1.9375 c 0.140625,0 0.328125,0 0.328125,-0.203125 0,-0.1875 -0.1875,-0.1875 -0.34375,-0.1875 l -5.953125,0 c -0.140625,0 -0.328125,0 -0.328125,0.1875 0,0.203125 0.1875,0.203125 0.328125,0.203125 z"
               id="path4837" />
          </symbol>
          <symbol
             style="overflow:visible"
             overflow="visible"
             id="textext-7e56516e-5">
            <path
               inkscape:connector-curvature="0"
               style="stroke:none"
               d=""
               id="path4840" />
          </symbol>
          <symbol
             style="overflow:visible"
             overflow="visible"
             id="textext-7e56516e-6">
            <path
               inkscape:connector-curvature="0"
               style="stroke:none"
               d="m 4.75,-2.359375 c 0,-1.5625 -0.921875,-2.046875 -1.65625,-2.046875 -1.375,0 -2.6875,1.421875 -2.6875,2.828125 0,0.9375 0.59375,1.6875 1.625,1.6875 0.625,0 1.34375,-0.234375 2.09375,-0.84375 0.125,0.53125 0.453125,0.84375 0.90625,0.84375 0.53125,0 0.84375,-0.546875 0.84375,-0.703125 0,-0.078125 -0.0625,-0.109375 -0.125,-0.109375 -0.0625,0 -0.09375,0.03125 -0.125,0.109375 -0.1875,0.484375 -0.546875,0.484375 -0.5625,0.484375 -0.3125,0 -0.3125,-0.78125 -0.3125,-1.015625 0,-0.203125 0,-0.234375 0.109375,-0.34375 C 5.796875,-2.65625 6,-3.8125 6,-3.8125 6,-3.84375 5.984375,-3.921875 5.875,-3.921875 c -0.09375,0 -0.09375,0.03125 -0.140625,0.21875 -0.1875,0.625 -0.515625,1.375 -0.984375,1.96875 z m -0.65625,1.375 c -0.890625,0.765625 -1.65625,0.875 -2.046875,0.875 -0.59375,0 -0.90625,-0.453125 -0.90625,-1.09375 0,-0.484375 0.265625,-1.5625 0.578125,-2.0625 C 2.1875,-4 2.734375,-4.1875 3.078125,-4.1875 c 0.984375,0 0.984375,1.3125 0.984375,2.078125 0,0.375 0,0.953125 0.03125,1.125 z"
               id="path4843" />
          </symbol>
          <symbol
             style="overflow:visible"
             overflow="visible"
             id="textext-7e56516e-7">
            <path
               inkscape:connector-curvature="0"
               style="stroke:none"
               d=""
               id="path4846" />
          </symbol>
          <symbol
             style="overflow:visible"
             overflow="visible"
             id="textext-7e56516e-8">
            <path
               inkscape:connector-curvature="0"
               style="stroke:none"
               d="m 2.1875,-4.625 c 0,-0.015625 0.015625,-0.109375 0.015625,-0.109375 0,-0.046875 -0.015625,-0.109375 -0.109375,-0.109375 -0.140625,0 -0.71875,0.0625 -0.890625,0.078125 -0.046875,0 -0.15625,0.015625 -0.15625,0.15625 0,0.09375 0.109375,0.09375 0.1875,0.09375 0.328125,0 0.328125,0.0625 0.328125,0.109375 0,0.046875 -0.015625,0.09375 -0.015625,0.15625 L 0.5625,-0.3125 c -0.046875,0.125 -0.046875,0.140625 -0.046875,0.15625 0,0.109375 0.09375,0.21875 0.25,0.21875 0.078125,0 0.203125,-0.03125 0.28125,-0.171875 C 1.0625,-0.15625 1.125,-0.40625 1.15625,-0.546875 l 0.171875,-0.625 C 1.34375,-1.28125 1.421875,-1.546875 1.4375,-1.640625 1.5,-1.90625 1.5,-1.921875 1.640625,-2.140625 1.875,-2.484375 2.21875,-2.875 2.765625,-2.875 c 0.390625,0 0.40625,0.3125 0.40625,0.484375 0,0.421875 -0.296875,1.1875 -0.40625,1.484375 -0.078125,0.203125 -0.109375,0.265625 -0.109375,0.375 0,0.375 0.3125,0.59375 0.65625,0.59375 0.703125,0 1.015625,-0.953125 1.015625,-1.0625 0,-0.09375 -0.09375,-0.09375 -0.125,-0.09375 -0.09375,0 -0.09375,0.046875 -0.125,0.125 -0.15625,0.5625 -0.46875,0.84375 -0.734375,0.84375 -0.15625,0 -0.1875,-0.09375 -0.1875,-0.25 0,-0.15625 0.046875,-0.25 0.171875,-0.5625 C 3.40625,-1.15625 3.6875,-1.890625 3.6875,-2.28125 c 0,-0.109375 0,-0.40625 -0.25,-0.609375 -0.125,-0.078125 -0.328125,-0.1875 -0.65625,-0.1875 -0.5,0 -0.875,0.28125 -1.125,0.578125 z"
               id="path4849" />
          </symbol>
          <symbol
             style="overflow:visible"
             overflow="visible"
             id="textext-7e56516e-9">
            <path
               inkscape:connector-curvature="0"
               style="stroke:none"
               d="m 1.5625,-1.59375 c 0.1875,0 0.75,-0.015625 1.125,-0.140625 0.515625,-0.1875 0.609375,-0.515625 0.609375,-0.71875 0,-0.390625 -0.390625,-0.625 -0.859375,-0.625 -0.84375,0 -1.96875,0.640625 -1.96875,1.84375 0,0.703125 0.4375,1.296875 1.25,1.296875 1.1875,0 1.734375,-0.6875 1.734375,-0.78125 0,-0.046875 -0.0625,-0.125 -0.125,-0.125 -0.03125,0 -0.046875,0.015625 -0.109375,0.078125 C 2.671875,-0.125 1.859375,-0.125 1.734375,-0.125 1.3125,-0.125 1.03125,-0.40625 1.03125,-0.96875 c 0,-0.09375 0,-0.234375 0.09375,-0.625 z M 1.171875,-1.78125 C 1.46875,-2.796875 2.234375,-2.875 2.4375,-2.875 2.734375,-2.875 3,-2.71875 3,-2.453125 3,-1.78125 1.8125,-1.78125 1.515625,-1.78125 z"
               id="path4852" />
          </symbol>
        </g>
      </defs>
      <g
         id="textext-7e56516e-10">
        <g
           style="fill:#000000;fill-opacity:1"
           id="g4855">
          <use
             height="360"
             width="412"
             xlink:href="#textext-7e56516e-1"
             x="223.43201"
             y="134.765"
             id="use4857" />
          <use
             height="360"
             width="412"
             xlink:href="#textext-7e56516e-2"
             x="227.30646"
             y="134.765"
             id="use4859" />
          <use
             height="360"
             width="412"
             xlink:href="#textext-7e56516e-3"
             x="232.28775"
             y="134.765"
             id="use4861" />
        </g>
        <g
           style="fill:#000000;fill-opacity:1"
           id="g4863">
          <use
             height="360"
             width="412"
             xlink:href="#textext-7e56516e-6"
             x="239.483"
             y="134.765"
             id="use4865" />
        </g>
        <g
           style="fill:#000000;fill-opacity:1"
           id="g4867">
          <use
             height="360"
             width="412"
             xlink:href="#textext-7e56516e-4"
             x="248.66"
             y="134.765"
             id="use4869" />
        </g>
        <g
           style="fill:#000000;fill-opacity:1"
           id="g4871">
          <use
             height="360"
             width="412"
             xlink:href="#textext-7e56516e-8"
             x="260.37201"
             y="130.842"
             id="use4873" />
        </g>
        <path
           inkscape:connector-curvature="0"
           style="fill:none;stroke:#000000;stroke-width:1;stroke-linecap:butt;stroke-linejoin:miter;stroke-miterlimit:10;stroke-opacity:1"
           d="m 0.128,-0.226 5,0"
           transform="matrix(1,0,0,-1,260.372,132.274)"
           id="path4875" />
        <g
           style="fill:#000000;fill-opacity:1"
           id="g4877">
          <use
             height="360"
             width="412"
             xlink:href="#textext-7e56516e-9"
             x="260.814"
             y="138.2"
             id="use4879" />
        </g>
      </g>
    </g>
    <g
       id="g5069"
       ns0:preamble=""
       ns0:text="$-\\frac{W}{e}=\\frac{h\\nu_0}{e}$"
       transform="matrix(2.5510195,0,0,2.5510195,-489.25552,21.888718)">
      <defs
         id="defs5071">
        <g
           id="g5073">
          <symbol
             id="textext-1e6dd6c6-0"
             overflow="visible"
             style="overflow:visible">
            <path
               id="path5076"
               d=""
               style="stroke:none"
               inkscape:connector-curvature="0" />
          </symbol>
          <symbol
             id="textext-1e6dd6c6-1"
             overflow="visible"
             style="overflow:visible">
            <path
               id="path5079"
               d="m 6.5625,-2.296875 c 0.171875,0 0.359375,0 0.359375,-0.203125 0,-0.1875 -0.1875,-0.1875 -0.359375,-0.1875 l -5.390625,0 c -0.171875,0 -0.34375,0 -0.34375,0.1875 0,0.203125 0.171875,0.203125 0.34375,0.203125 z"
               style="stroke:none"
               inkscape:connector-curvature="0" />
          </symbol>
          <symbol
             id="textext-1e6dd6c6-2"
             overflow="visible"
             style="overflow:visible">
            <path
               id="path5082"
               d=""
               style="stroke:none"
               inkscape:connector-curvature="0" />
          </symbol>
          <symbol
             id="textext-1e6dd6c6-3"
             overflow="visible"
             style="overflow:visible">
            <path
               id="path5085"
               d="m 7.21875,-3.9375 0.125,-0.1875 C 7.484375,-4.3125 7.65625,-4.484375 8,-4.515625 c 0.078125,0 0.15625,0 0.15625,-0.140625 0,-0.046875 -0.03125,-0.109375 -0.09375,-0.109375 -0.15625,0 -0.359375,0.03125 -0.53125,0.03125 -0.234375,0 -0.546875,-0.03125 -0.765625,-0.03125 -0.046875,0 -0.15625,0 -0.15625,0.15625 0,0.09375 0.09375,0.09375 0.125,0.09375 0.15625,0.015625 0.390625,0.0625 0.390625,0.25 0,0.078125 -0.078125,0.203125 -0.109375,0.25 l -1.96875,3.234375 -0.375,-3.53125 c 0,-0.1875 0.40625,-0.203125 0.484375,-0.203125 0.09375,0 0.1875,0 0.1875,-0.140625 0,-0.015625 0,-0.109375 -0.125,-0.109375 -0.125,0 -0.296875,0.015625 -0.421875,0.03125 -0.140625,0 -0.328125,0 -0.46875,0 -0.15625,0 -0.5625,-0.03125 -0.71875,-0.03125 -0.046875,0 -0.140625,0 -0.140625,0.15625 0,0.09375 0.078125,0.09375 0.171875,0.09375 0.296875,0 0.34375,0.0625 0.359375,0.125 0,0.046875 0.015625,0.234375 0.046875,0.453125 L 2.125,-0.78125 1.765625,-4.203125 C 1.765625,-4.234375 1.75,-4.296875 1.75,-4.3125 c 0,-0.203125 0.4375,-0.203125 0.484375,-0.203125 0.09375,0 0.1875,0 0.1875,-0.140625 0,-0.03125 -0.015625,-0.109375 -0.109375,-0.109375 -0.203125,0 -0.703125,0.03125 -0.890625,0.03125 -0.234375,0 -0.53125,-0.03125 -0.734375,-0.03125 -0.078125,0 -0.140625,0.03125 -0.140625,0.15625 0,0.09375 0.078125,0.09375 0.1875,0.09375 0.328125,0 0.328125,0.046875 0.359375,0.21875 l 0.453125,4.25 c 0.015625,0.140625 0.03125,0.1875 0.15625,0.1875 C 1.8125,0.140625 1.875,0.078125 1.90625,0 l 2.171875,-3.578125 0.390625,3.53125 c 0.015625,0.15625 0.046875,0.1875 0.15625,0.1875 0.109375,0 0.15625,-0.0625 0.203125,-0.140625 z"
               style="stroke:none"
               inkscape:connector-curvature="0" />
          </symbol>
          <symbol
             id="textext-1e6dd6c6-4"
             overflow="visible"
             style="overflow:visible">
            <path
               id="path5088"
               d="m 1.5625,-1.59375 c 0.1875,0 0.75,-0.015625 1.125,-0.140625 0.515625,-0.1875 0.609375,-0.515625 0.609375,-0.71875 0,-0.390625 -0.390625,-0.625 -0.859375,-0.625 -0.84375,0 -1.96875,0.640625 -1.96875,1.84375 0,0.703125 0.4375,1.296875 1.25,1.296875 1.1875,0 1.734375,-0.6875 1.734375,-0.78125 0,-0.046875 -0.0625,-0.125 -0.125,-0.125 -0.03125,0 -0.046875,0.015625 -0.109375,0.078125 C 2.671875,-0.125 1.859375,-0.125 1.734375,-0.125 1.3125,-0.125 1.03125,-0.40625 1.03125,-0.96875 c 0,-0.09375 0,-0.234375 0.09375,-0.625 z M 1.171875,-1.78125 C 1.46875,-2.796875 2.234375,-2.875 2.4375,-2.875 2.734375,-2.875 3,-2.71875 3,-2.453125 3,-1.78125 1.8125,-1.78125 1.515625,-1.78125 z"
               style="stroke:none"
               inkscape:connector-curvature="0" />
          </symbol>
          <symbol
             id="textext-1e6dd6c6-5"
             overflow="visible"
             style="overflow:visible">
            <path
               id="path5091"
               d="m 2.1875,-4.625 c 0,-0.015625 0.015625,-0.109375 0.015625,-0.109375 0,-0.046875 -0.015625,-0.109375 -0.109375,-0.109375 -0.140625,0 -0.71875,0.0625 -0.890625,0.078125 -0.046875,0 -0.15625,0.015625 -0.15625,0.15625 0,0.09375 0.109375,0.09375 0.1875,0.09375 0.328125,0 0.328125,0.0625 0.328125,0.109375 0,0.046875 -0.015625,0.09375 -0.015625,0.15625 L 0.5625,-0.3125 c -0.046875,0.125 -0.046875,0.140625 -0.046875,0.15625 0,0.109375 0.09375,0.21875 0.25,0.21875 0.078125,0 0.203125,-0.03125 0.28125,-0.171875 C 1.0625,-0.15625 1.125,-0.40625 1.15625,-0.546875 l 0.171875,-0.625 C 1.34375,-1.28125 1.421875,-1.546875 1.4375,-1.640625 1.5,-1.90625 1.5,-1.921875 1.640625,-2.140625 1.875,-2.484375 2.21875,-2.875 2.765625,-2.875 c 0.390625,0 0.40625,0.3125 0.40625,0.484375 0,0.421875 -0.296875,1.1875 -0.40625,1.484375 -0.078125,0.203125 -0.109375,0.265625 -0.109375,0.375 0,0.375 0.3125,0.59375 0.65625,0.59375 0.703125,0 1.015625,-0.953125 1.015625,-1.0625 0,-0.09375 -0.09375,-0.09375 -0.125,-0.09375 -0.09375,0 -0.09375,0.046875 -0.125,0.125 -0.15625,0.5625 -0.46875,0.84375 -0.734375,0.84375 -0.15625,0 -0.1875,-0.09375 -0.1875,-0.25 0,-0.15625 0.046875,-0.25 0.171875,-0.5625 C 3.40625,-1.15625 3.6875,-1.890625 3.6875,-2.28125 c 0,-0.109375 0,-0.40625 -0.25,-0.609375 -0.125,-0.078125 -0.328125,-0.1875 -0.65625,-0.1875 -0.5,0 -0.875,0.28125 -1.125,0.578125 z"
               style="stroke:none"
               inkscape:connector-curvature="0" />
          </symbol>
          <symbol
             id="textext-1e6dd6c6-6"
             overflow="visible"
             style="overflow:visible">
            <path
               id="path5094"
               d="m 1.75,-2.875 c 0,-0.03125 0.015625,-0.0625 0.015625,-0.09375 0,-0.015625 0,-0.109375 -0.109375,-0.109375 -0.015625,0 -0.40625,0.046875 -0.453125,0.046875 C 1.0625,-3.03125 0.9375,-3.015625 0.8125,-3 c -0.109375,0 -0.203125,0.015625 -0.203125,0.15625 0,0.09375 0.09375,0.09375 0.1875,0.09375 0.328125,0 0.328125,0.046875 0.328125,0.109375 0,0.046875 -0.03125,0.1875 -0.0625,0.265625 L 0.71875,-0.96875 C 0.546875,-0.265625 0.515625,-0.125 0.515625,-0.09375 0.515625,0 0.609375,0 0.640625,0 L 0.75,0 C 1.375,-0.09375 2.265625,-0.421875 3,-1.09375 c 0.953125,-0.84375 1.09375,-1.75 1.09375,-1.75 0,-0.125 -0.09375,-0.234375 -0.234375,-0.234375 -0.25,0 -0.296875,0.203125 -0.359375,0.390625 -0.28125,1 -1.21875,2.0625 -2.40625,2.40625 z"
               style="stroke:none"
               inkscape:connector-curvature="0" />
          </symbol>
          <symbol
             id="textext-1e6dd6c6-7"
             overflow="visible"
             style="overflow:visible">
            <path
               id="path5097"
               d=""
               style="stroke:none"
               inkscape:connector-curvature="0" />
          </symbol>
          <symbol
             id="textext-1e6dd6c6-8"
             overflow="visible"
             style="overflow:visible">
            <path
               id="path5100"
               d="m 6.84375,-3.265625 c 0.15625,0 0.34375,0 0.34375,-0.1875 C 7.1875,-3.65625 7,-3.65625 6.859375,-3.65625 l -5.96875,0 c -0.140625,0 -0.328125,0 -0.328125,0.203125 0,0.1875 0.1875,0.1875 0.328125,0.1875 z m 0.015625,1.9375 c 0.140625,0 0.328125,0 0.328125,-0.203125 0,-0.1875 -0.1875,-0.1875 -0.34375,-0.1875 l -5.953125,0 c -0.140625,0 -0.328125,0 -0.328125,0.1875 0,0.203125 0.1875,0.203125 0.328125,0.203125 z"
               style="stroke:none"
               inkscape:connector-curvature="0" />
          </symbol>
          <symbol
             id="textext-1e6dd6c6-9"
             overflow="visible"
             style="overflow:visible">
            <path
               id="path5103"
               d=""
               style="stroke:none"
               inkscape:connector-curvature="0" />
          </symbol>
          <symbol
             id="textext-1e6dd6c6-10"
             overflow="visible"
             style="overflow:visible">
            <path
               id="path5106"
               d="M 3,-1.59375 C 3,-1.953125 3,-3.3125 1.6875,-3.3125 c -1.296875,0 -1.296875,1.359375 -1.296875,1.71875 0,0.359375 0,1.703125 1.296875,1.703125 C 3,0.109375 3,-1.234375 3,-1.59375 z M 1.6875,-0.0625 C 1.515625,-0.0625 1.09375,-0.125 0.96875,-0.625 0.890625,-0.890625 0.890625,-1.25 0.890625,-1.65625 c 0,-0.375 0,-0.71875 0.078125,-1 0.125,-0.421875 0.515625,-0.5 0.71875,-0.5 0.375,0 0.640625,0.1875 0.734375,0.546875 C 2.5,-2.359375 2.5,-1.953125 2.5,-1.65625 c 0,0.34375 0,0.75 -0.078125,1.046875 C 2.296875,-0.125 1.890625,-0.0625 1.6875,-0.0625 z"
               style="stroke:none"
               inkscape:connector-curvature="0" />
          </symbol>
        </g>
      </defs>
      <g
         id="textext-1e6dd6c6-11">
        <g
           id="g5109"
           style="fill:#000000;fill-opacity:1">
          <use
             id="use5111"
             y="134.765"
             x="223.43201"
             xlink:href="#textext-1e6dd6c6-1"
             width="412"
             height="360" />
        </g>
        <g
           id="g5113"
           style="fill:#000000;fill-opacity:1">
          <use
             id="use5115"
             y="130.842"
             x="232.37601"
             xlink:href="#textext-1e6dd6c6-3"
             width="412"
             height="360" />
        </g>
        <path
           id="path5117"
           transform="matrix(1,0,0,-1,232.376,132.274)"
           d="m 0.124,-0.226 8,0"
           style="fill:none;stroke:#000000;stroke-width:1;stroke-linecap:butt;stroke-linejoin:miter;stroke-miterlimit:10;stroke-opacity:1"
           inkscape:connector-curvature="0" />
        <g
           id="g5119"
           style="fill:#000000;fill-opacity:1">
          <use
             id="use5121"
             y="138.2"
             x="234.769"
             xlink:href="#textext-1e6dd6c6-4"
             width="412"
             height="360" />
        </g>
        <g
           id="g5123"
           style="fill:#000000;fill-opacity:1">
          <use
             id="use5125"
             y="134.765"
             x="244.90401"
             xlink:href="#textext-1e6dd6c6-8"
             width="412"
             height="360" />
        </g>
        <g
           id="g5127"
           style="fill:#000000;fill-opacity:1">
          <use
             id="use5129"
             y="130.67999"
             x="256.616"
             xlink:href="#textext-1e6dd6c6-5"
             width="412"
             height="360" />
          <use
             id="use5131"
             y="130.67999"
             x="261.28009"
             xlink:href="#textext-1e6dd6c6-6"
             width="412"
             height="360" />
        </g>
        <g
           id="g5133"
           style="fill:#000000;fill-opacity:1">
          <use
             id="use5135"
             y="131.67599"
             x="265.27399"
             xlink:href="#textext-1e6dd6c6-10"
             width="412"
             height="360" />
        </g>
        <path
           id="path5137"
           transform="matrix(1,0,0,-1,256.616,132.274)"
           d="m -0.116,-0.226 13,0"
           style="fill:none;stroke:#000000;stroke-width:1;stroke-linecap:butt;stroke-linejoin:miter;stroke-miterlimit:10;stroke-opacity:1"
           inkscape:connector-curvature="0" />
        <g
           id="g5139"
           style="fill:#000000;fill-opacity:1">
          <use
             id="use5141"
             y="138.2"
             x="260.99899"
             xlink:href="#textext-1e6dd6c6-4"
             width="412"
             height="360" />
        </g>
      </g>
    </g>
  </g>
</svg>
