<?xml version="1.0" encoding="UTF-8" standalone="no"?>
<!-- Created with Inkscape (http://www.inkscape.org/) -->

<svg
   xmlns:dc="http://purl.org/dc/elements/1.1/"
   xmlns:cc="http://creativecommons.org/ns#"
   xmlns:rdf="http://www.w3.org/1999/02/22-rdf-syntax-ns#"
   xmlns:svg="http://www.w3.org/2000/svg"
   xmlns="http://www.w3.org/2000/svg"
   xmlns:sodipodi="http://sodipodi.sourceforge.net/DTD/sodipodi-0.dtd"
   xmlns:inkscape="http://www.inkscape.org/namespaces/inkscape"
   width="102.42871mm"
   height="76.451317mm"
   viewBox="0 0 362.93638 270.89049"
   id="svg2"
   version="1.1"
   inkscape:version="0.91 r13725"
   sodipodi:docname="ull_hiper.svg">
  <defs
     id="defs4">
    <marker
       inkscape:isstock="true"
       style="overflow:visible"
       id="marker4854"
       refX="0"
       refY="0"
       orient="auto"
       inkscape:stockid="Arrow2Lend">
      <path
         inkscape:connector-curvature="0"
         transform="matrix(-1.1,0,0,-1.1,-1.1,0)"
         d="M 8.7185878,4.0337352 -2.2072895,0.01601326 8.7185884,-4.0017078 c -1.7454984,2.3720609 -1.7354408,5.6174519 -6e-7,8.035443 z"
         style="fill:#ff00ff;fill-opacity:1;fill-rule:evenodd;stroke:#ff00ff;stroke-width:0.625;stroke-linejoin:round;stroke-opacity:1"
         id="path4856" />
    </marker>
    <marker
       inkscape:isstock="true"
       style="overflow:visible"
       id="Arrow2Lstart"
       refX="0"
       refY="0"
       orient="auto"
       inkscape:stockid="Arrow2Lstart">
      <path
         inkscape:connector-curvature="0"
         transform="matrix(1.1,0,0,1.1,1.1,0)"
         d="M 8.7185878,4.0337352 -2.2072895,0.01601326 8.7185884,-4.0017078 c -1.7454984,2.3720609 -1.7354408,5.6174519 -6e-7,8.035443 z"
         style="fill:#ff0000;fill-opacity:1;fill-rule:evenodd;stroke:#ff0000;stroke-width:0.625;stroke-linejoin:round;stroke-opacity:1"
         id="path4324" />
    </marker>
    <marker
       inkscape:isstock="true"
       style="overflow:visible"
       id="marker4732"
       refX="0"
       refY="0"
       orient="auto"
       inkscape:stockid="Arrow2Lend">
      <path
         inkscape:connector-curvature="0"
         transform="matrix(-1.1,0,0,-1.1,-1.1,0)"
         d="M 8.7185878,4.0337352 -2.2072895,0.01601326 8.7185884,-4.0017078 c -1.7454984,2.3720609 -1.7354408,5.6174519 -6e-7,8.035443 z"
         style="fill:#ff0000;fill-opacity:1;fill-rule:evenodd;stroke:#ff0000;stroke-width:0.625;stroke-linejoin:round;stroke-opacity:1"
         id="path4734" />
    </marker>
    <marker
       inkscape:stockid="Arrow2Lend"
       orient="auto"
       refY="0"
       refX="0"
       id="marker4692"
       style="overflow:visible"
       inkscape:isstock="true">
      <path
         inkscape:connector-curvature="0"
         id="path4694"
         style="fill:#000080;fill-opacity:1;fill-rule:evenodd;stroke:#000080;stroke-width:0.625;stroke-linejoin:round;stroke-opacity:1"
         d="M 8.7185878,4.0337352 -2.2072895,0.01601326 8.7185884,-4.0017078 c -1.7454984,2.3720609 -1.7354408,5.6174519 -6e-7,8.035443 z"
         transform="matrix(-1.1,0,0,-1.1,-1.1,0)" />
    </marker>
    <marker
       inkscape:isstock="true"
       style="overflow:visible"
       id="Arrow1Mend"
       refX="0"
       refY="0"
       orient="auto"
       inkscape:stockid="Arrow1Mend">
      <path
         inkscape:connector-curvature="0"
         transform="matrix(-0.4,0,0,-0.4,-4,0)"
         style="fill:#008000;fill-opacity:1;fill-rule:evenodd;stroke:#008000;stroke-width:1pt;stroke-opacity:1"
         d="M 0,0 5,-5 -12.5,0 5,5 0,0 Z"
         id="path4315" />
    </marker>
  </defs>
  <sodipodi:namedview
     id="base"
     pagecolor="#ffffff"
     bordercolor="#666666"
     borderopacity="1.0"
     inkscape:pageopacity="0.0"
     inkscape:pageshadow="2"
     inkscape:zoom="0.9899495"
     inkscape:cx="332.63558"
     inkscape:cy="140.9002"
     inkscape:document-units="px"
     inkscape:current-layer="layer1"
     showgrid="false"
     inkscape:window-width="1325"
     inkscape:window-height="747"
     inkscape:window-x="41"
     inkscape:window-y="21"
     inkscape:window-maximized="1"
     fit-margin-top="5"
     fit-margin-right="5"
     fit-margin-left="5"
     fit-margin-bottom="5" />
  <metadata
     id="metadata7">
    <rdf:RDF>
      <cc:Work
         rdf:about="">
        <dc:format>image/svg+xml</dc:format>
        <dc:type
           rdf:resource="http://purl.org/dc/dcmitype/StillImage" />
        <dc:title></dc:title>
      </cc:Work>
    </rdf:RDF>
  </metadata>
  <g
     inkscape:label="Capa 1"
     inkscape:groupmode="layer"
     id="layer1"
     transform="translate(-124.42557,-69.059635)">
    <g
       id="g3371">
      <path
         inkscape:connector-curvature="0"
         id="path3336"
         d="m 374.28516,218.07617 a 51.42857,51.42857 0 0 0 -45.24805,27.01172 14.285714,23.114771 0 0 0 -11.17969,22.53125 14.285714,23.114771 0 0 0 8.88086,21.38477 51.42857,51.42857 0 0 0 47.54688,31.92968 51.42857,51.42857 0 0 0 51.42968,-51.42773 51.42857,51.42857 0 0 0 -51.42968,-51.42969 z"
         style="opacity:1;fill:none;fill-opacity:0.39215686;stroke:#333333;stroke-width:2.5999999;stroke-miterlimit:4;stroke-dasharray:none;stroke-dashoffset:0" />
      <path
         inkscape:connector-curvature="0"
         id="path3341"
         d="m 142.14443,268.79191 320.42759,-1.43084"
         style="fill:none;fill-rule:evenodd;stroke:#000000;stroke-width:0.94045871;stroke-linecap:butt;stroke-linejoin:miter;stroke-miterlimit:4;stroke-dasharray:0.94045874, 7.52366995;stroke-dashoffset:0;stroke-opacity:1" />
      <path
         inkscape:connector-curvature="0"
         id="path4136"
         d="m 295.80373,216.39726 a 224.02405,221.76182 0 0 0 -6.43138,51.67974 224.02405,221.76182 0 0 0 6.43096,51.67872 224.02405,221.76182 0 0 0 6.4313,-51.67872 224.02405,221.76182 0 0 0 -6.43088,-51.67974 z"
         style="fill:#008dff;fill-opacity:0.39215686;stroke:#000000;stroke-width:0.26393527;stroke-miterlimit:4;stroke-dasharray:none;stroke-dashoffset:0" />
      <path
         inkscape:connector-curvature="0"
         style="opacity:1;fill:none;fill-opacity:0.39215686;stroke:#333333;stroke-width:2.5999999;stroke-miterlimit:4;stroke-dasharray:none;stroke-dashoffset:0"
         d="m 374.28516,88.07617 a 51.42857,51.42857 0 0 0 -45.24805,27.01172 14.285714,23.114771 0 0 0 -11.17969,22.53125 14.285714,23.114771 0 0 0 8.88086,21.38477 51.42857,51.42857 0 0 0 47.54688,31.92968 51.42857,51.42857 0 0 0 51.42968,-51.42773 51.42857,51.42857 0 0 0 -51.42968,-51.42969 z"
         id="path4340" />
      <path
         style="fill:none;fill-rule:evenodd;stroke:#000000;stroke-width:0.95065135;stroke-linecap:butt;stroke-linejoin:miter;stroke-miterlimit:4;stroke-dasharray:0.95065137, 7.60521098;stroke-dashoffset:0;stroke-opacity:1"
         d="m 142.14418,138.79171 327.49916,-1.43044"
         id="path4342"
         inkscape:connector-curvature="0" />
      <circle
         r="2.5253813"
         cy="138.07649"
         cx="196.97975"
         id="path3368"
         style="opacity:1;fill:#ff0000;fill-opacity:1;stroke:none;stroke-width:1;stroke-miterlimit:4;stroke-dasharray:1, 8;stroke-dashoffset:0" />
      <path
         inkscape:connector-curvature="0"
         id="path4200"
         d="M 195.96959,137.66908 325.26912,118.98125 455.07372,137.164 320.72343,151.81121 Z"
         style="fill:none;fill-rule:evenodd;stroke:#ff0000;stroke-width:1px;stroke-linecap:butt;stroke-linejoin:miter;stroke-opacity:1" />
      <circle
         style="opacity:1;fill:#ff0000;fill-opacity:1;stroke:none;stroke-width:1;stroke-miterlimit:4;stroke-dasharray:1, 8;stroke-dashoffset:0"
         id="circle4202"
         cx="196.97975"
         cy="268.32904"
         r="2.5253813" />
      <path
         sodipodi:nodetypes="ccccccccc"
         style="fill:none;fill-rule:evenodd;stroke:#ff0000;stroke-width:1px;stroke-linecap:butt;stroke-linejoin:miter;stroke-opacity:1"
         d="m 195.96959,268.59766 93.2281,-15.83069 12.51051,0.72435 16.75726,1.25372 106.80876,12.84246 -106.14461,12.35643 -17.52756,1.37998 -12.09799,0.87491 c -31.17816,-4.53372 -62.35631,-9.06744 -93.53447,-13.60116 z"
         id="path4204"
         inkscape:connector-curvature="0" />
      <text
         sodipodi:linespacing="125%"
         id="text4206"
         y="99.283279"
         x="221.2234"
         style="font-style:normal;font-variant:normal;font-weight:normal;font-stretch:normal;font-size:20px;line-height:125%;font-family:FreeSans;-inkscape-font-specification:'FreeSans, Normal';text-align:start;letter-spacing:0px;word-spacing:0px;writing-mode:lr-tb;text-anchor:start;fill:#000000;fill-opacity:1;stroke:none;stroke-width:1px;stroke-linecap:butt;stroke-linejoin:miter;stroke-opacity:1"
         xml:space="preserve"><tspan
           style="font-size:15px"
           y="99.283279"
           x="221.2234"
           id="tspan4208"
           sodipodi:role="line">(a)</tspan></text>
      <text
         xml:space="preserve"
         style="font-style:normal;font-variant:normal;font-weight:normal;font-stretch:normal;font-size:20px;line-height:125%;font-family:FreeSans;-inkscape-font-specification:'FreeSans, Normal';text-align:start;letter-spacing:0px;word-spacing:0px;writing-mode:lr-tb;text-anchor:start;fill:#000000;fill-opacity:1;stroke:none;stroke-width:1px;stroke-linecap:butt;stroke-linejoin:miter;stroke-opacity:1"
         x="220.82338"
         y="227.28328"
         id="text4210"
         sodipodi:linespacing="125%"><tspan
           sodipodi:role="line"
           id="tspan4212"
           x="220.82338"
           y="227.28328"
           style="font-size:15px">(b)</tspan></text>
    </g>
  </g>
</svg>
