<?xml version="1.0" encoding="UTF-8" standalone="no"?>
<svg
   xmlns:ns1="http://www.iki.fi/pav/software/textext/"
   xmlns:dc="http://purl.org/dc/elements/1.1/"
   xmlns:cc="http://creativecommons.org/ns#"
   xmlns:rdf="http://www.w3.org/1999/02/22-rdf-syntax-ns#"
   xmlns:svg="http://www.w3.org/2000/svg"
   xmlns="http://www.w3.org/2000/svg"
   xmlns:sodipodi="http://sodipodi.sourceforge.net/DTD/sodipodi-0.dtd"
   xmlns:inkscape="http://www.inkscape.org/namespaces/inkscape"
   width="800"
   height="600"
   viewBox="0 0 211.66666 158.75"
   version="1.1"
   id="svg8"
   sodipodi:docname="circumf.svg"
   inkscape:version="1.0.2 (1.0.2+r75+1)">
  <defs
     id="defs2">
    <marker
       style="overflow:visible;"
       id="Arrow1Mend"
       refX="0.0"
       refY="0.0"
       orient="auto"
       inkscape:stockid="Arrow1Mend"
       inkscape:isstock="true">
      <path
         transform="scale(0.4) rotate(180) translate(10,0)"
         style="fill-rule:evenodd;stroke:#ff0000;stroke-width:1pt;stroke-opacity:1;fill:#ff0000;fill-opacity:1"
         d="M 0.0,0.0 L 5.0,-5.0 L -12.5,0.0 L 5.0,5.0 L 0.0,0.0 z "
         id="path848" />
    </marker>
  </defs>
  <sodipodi:namedview
     id="base"
     pagecolor="#ffffff"
     bordercolor="#666666"
     borderopacity="1.0"
     inkscape:pageopacity="0.0"
     inkscape:pageshadow="2"
     inkscape:zoom="0.855"
     inkscape:cx="390.73243"
     inkscape:cy="163.48417"
     inkscape:document-units="mm"
     inkscape:current-layer="g1422"
     inkscape:document-rotation="0"
     showgrid="false"
     units="px"
     inkscape:window-width="1322"
     inkscape:window-height="704"
     inkscape:window-x="44"
     inkscape:window-y="27"
     inkscape:window-maximized="1"
     inkscape:snap-global="false" />
  <metadata
     id="metadata5">
    <rdf:RDF>
      <cc:Work
         rdf:about="">
        <dc:format>image/svg+xml</dc:format>
        <dc:type
           rdf:resource="http://purl.org/dc/dcmitype/StillImage" />
        <dc:title></dc:title>
      </cc:Work>
    </rdf:RDF>
  </metadata>
  <g
     inkscape:label="Layer 1"
     inkscape:groupmode="layer"
     id="layer1">
    <g
       transform="matrix(0.705556,0,0,0.705556,103.39041,130.91263)"
       ns1:version="1.1.0"
       ns1:texconverter="pdflatex"
       ns1:pdfconverter="inkscape"
       ns1:text="$$x$$"
       ns1:preamble="/home/joseluis/.config/inkscape/extensions/textext/default_packages.tex"
       ns1:scale="2.0"
       ns1:alignment="middle center"
       ns1:jacobian_sqrt="0.705556"
       id="g1422">
      <defs
         id="defs1412">
        <g
           id="g1410">
          <symbol
             overflow="visible"
             id="symbol1404">
            <path
               style="stroke:none"
               d=""
               id="path1402" />
          </symbol>
          <symbol
             overflow="visible"
             id="symbol1408">
            <path
               style="stroke:none"
               d="M 3.328125,-3.015625 C 3.390625,-3.265625 3.625,-4.1875 4.3125,-4.1875 c 0.046875,0 0.296875,0 0.5,0.125 C 4.53125,-4 4.34375,-3.765625 4.34375,-3.515625 c 0,0.15625 0.109375,0.34375 0.375,0.34375 0.21875,0 0.53125,-0.171875 0.53125,-0.578125 0,-0.515625 -0.578125,-0.65625 -0.921875,-0.65625 -0.578125,0 -0.921875,0.53125 -1.046875,0.75 -0.25,-0.65625 -0.78125,-0.75 -1.078125,-0.75 -1.03125,0 -1.609375,1.28125 -1.609375,1.53125 0,0.109375 0.109375,0.109375 0.125,0.109375 0.078125,0 0.109375,-0.03125 0.125,-0.109375 0.34375,-1.0625 1,-1.3125 1.34375,-1.3125 0.1875,0 0.53125,0.09375 0.53125,0.671875 0,0.3125 -0.171875,0.96875 -0.53125,2.375 -0.15625,0.609375 -0.515625,1.03125 -0.953125,1.03125 -0.0625,0 -0.28125,0 -0.5,-0.125 0.25,-0.0625 0.46875,-0.265625 0.46875,-0.546875 0,-0.265625 -0.21875,-0.34375 -0.359375,-0.34375 -0.3125,0 -0.546875,0.25 -0.546875,0.578125 0,0.453125 0.484375,0.65625 0.921875,0.65625 0.671875,0 1.03125,-0.703125 1.046875,-0.75 0.125,0.359375 0.484375,0.75 1.078125,0.75 1.03125,0 1.59375,-1.28125 1.59375,-1.53125 0,-0.109375 -0.078125,-0.109375 -0.109375,-0.109375 -0.09375,0 -0.109375,0.046875 -0.140625,0.109375 -0.328125,1.078125 -1,1.3125 -1.3125,1.3125 -0.390625,0 -0.546875,-0.3125 -0.546875,-0.65625 0,-0.21875 0.046875,-0.4375 0.15625,-0.875 z m 0,0"
               id="path1406" />
          </symbol>
        </g>
      </defs>
      <g
         id="g3693">
        <path
           style="fill:none;stroke:#000000;stroke-width:0.375px;stroke-linecap:butt;stroke-linejoin:miter;stroke-opacity:1"
           d="M -2.5028147,-163.24963 V -3.8530063"
           id="path3195" />
        <path
           style="fill:none;stroke:#000000;stroke-width:0.375px;stroke-linecap:butt;stroke-linejoin:miter;stroke-opacity:1"
           d="M -89.20487,-88.443997 H 91.873457"
           id="path3197" />
        <circle
           style="fill:none;stroke:#000080;stroke-width:0.74999953;stroke-linejoin:bevel;stroke-miterlimit:4;stroke-dasharray:none;stroke-dashoffset:0"
           id="path3199"
           cx="-2.744504"
           cy="-87.755066"
           r="41.763371" />
        <text
           xml:space="preserve"
           style="font-size:7.99998px;line-height:1.25;font-family:sans-serif;stroke-width:0.375"
           x="69.772209"
           y="-80.315857"
           id="text3616"><tspan
             sodipodi:role="line"
             id="tspan3614"
             x="69.772209"
             y="-80.315857"
             style="stroke-width:0.375">espai</tspan></text>
        <text
           xml:space="preserve"
           style="font-size:7.99998px;line-height:1.25;font-family:sans-serif;stroke-width:0.375"
           x="-0.06451758"
           y="-155.50919"
           id="text3620"><tspan
             sodipodi:role="line"
             id="tspan3618"
             x="-0.06451758"
             y="-155.50919"
             style="stroke-width:0.375">temps</tspan></text>
        <g
           id="g3630"
           transform="matrix(0.43658643,-0.43658643,0.43658643,0.43658643,167.24426,-160.60107)"
           style="stroke-width:1.125;stroke-miterlimit:4;stroke-dasharray:none">
          <path
             style="fill:none;stroke:#000000;stroke-width:1.125;stroke-linecap:butt;stroke-linejoin:miter;stroke-miterlimit:4;stroke-dasharray:none;stroke-opacity:1"
             d="m -218.7309,-128.67238 h 10.50027"
             id="path3624" />
          <path
             style="fill:none;stroke:#000000;stroke-width:1.125;stroke-linecap:butt;stroke-linejoin:miter;stroke-miterlimit:4;stroke-dasharray:none;stroke-opacity:1"
             d="m -213.48076,-133.92251 v 10.50027"
             id="path3626" />
        </g>
        <g
           id="g3636"
           transform="matrix(0.43658643,-0.43658643,0.43658643,0.43658643,126.91171,-161.19242)"
           style="stroke-width:1.125;stroke-miterlimit:4;stroke-dasharray:none">
          <path
             style="fill:none;stroke:#000000;stroke-width:1.125;stroke-linecap:butt;stroke-linejoin:miter;stroke-miterlimit:4;stroke-dasharray:none;stroke-opacity:1"
             d="m -218.7309,-128.67238 h 10.50027"
             id="path3632" />
          <path
             style="fill:none;stroke:#000000;stroke-width:1.125;stroke-linecap:butt;stroke-linejoin:miter;stroke-miterlimit:4;stroke-dasharray:none;stroke-opacity:1"
             d="m -213.48076,-133.92251 v 10.50027"
             id="path3634" />
        </g>
        <g
           id="g3642"
           transform="matrix(0.43658643,-0.43658643,0.43658643,0.43658643,174.05744,-93.821949)"
           style="stroke-width:1.125;stroke-miterlimit:4;stroke-dasharray:none">
          <path
             style="fill:none;stroke:#000000;stroke-width:1.125;stroke-linecap:butt;stroke-linejoin:miter;stroke-miterlimit:4;stroke-dasharray:none;stroke-opacity:1"
             d="m -218.7309,-128.67238 h 10.50027"
             id="path3638" />
          <path
             style="fill:none;stroke:#000000;stroke-width:1.125;stroke-linecap:butt;stroke-linejoin:miter;stroke-miterlimit:4;stroke-dasharray:none;stroke-opacity:1"
             d="m -213.48076,-133.92251 v 10.50027"
             id="path3640" />
        </g>
        <g
           id="g3648"
           transform="matrix(0.43658643,-0.43658643,0.43658643,0.43658643,147.29667,-125.58614)"
           style="stroke-width:1.125;stroke-miterlimit:4;stroke-dasharray:none">
          <path
             style="fill:none;stroke:#000000;stroke-width:1.125;stroke-linecap:butt;stroke-linejoin:miter;stroke-miterlimit:4;stroke-dasharray:none;stroke-opacity:1"
             d="m -218.7309,-128.67238 h 10.50027"
             id="path3644" />
          <path
             style="fill:none;stroke:#000000;stroke-width:1.125;stroke-linecap:butt;stroke-linejoin:miter;stroke-miterlimit:4;stroke-dasharray:none;stroke-opacity:1"
             d="m -213.48076,-133.92251 v 10.50027"
             id="path3646" />
        </g>
        <text
           xml:space="preserve"
           style="font-size:7.99998px;line-height:1.25;font-family:sans-serif;stroke-width:0.375"
           x="1.9530094"
           y="-79.794731"
           id="text3652"><tspan
             sodipodi:role="line"
             id="tspan3650"
             x="1.9530094"
             y="-79.794731"
             style="stroke-width:0.375">O</tspan></text>
        <text
           xml:space="preserve"
           style="font-size:7.99998px;line-height:1.25;font-family:sans-serif;stroke-width:0.375"
           x="22.187502"
           y="-130.23071"
           id="text3656"><tspan
             sodipodi:role="line"
             id="tspan3654"
             x="22.187502"
             y="-130.23071"
             style="stroke-width:0.375">A</tspan></text>
        <text
           xml:space="preserve"
           style="font-size:7.99998px;line-height:1.25;font-family:sans-serif;stroke-width:0.375"
           x="-29.658791"
           y="-131.93233"
           id="text3660"><tspan
             sodipodi:role="line"
             id="tspan3658"
             x="-29.658791"
             y="-131.93233"
             style="stroke-width:0.375">A'</tspan></text>
        <text
           xml:space="preserve"
           style="font-size:7.99998px;line-height:1.25;font-family:sans-serif;stroke-width:0.375"
           x="28.640648"
           y="-46.148357"
           id="text3664"><tspan
             sodipodi:role="line"
             id="tspan3662"
             x="28.640648"
             y="-46.148357"
             style="stroke-width:0.375">A''</tspan></text>
      </g>
    </g>
  </g>
</svg>
