<?xml version="1.0" encoding="UTF-8" standalone="no"?>
<svg
   width="800"
   height="600"
   viewBox="0 0 211.66666 158.75"
   version="1.1"
   id="svg8"
   sodipodi:docname="interval.svg"
   inkscape:version="1.1.2 (1:1.1+202202050950+0a00cf5339)"
   xmlns:inkscape="http://www.inkscape.org/namespaces/inkscape"
   xmlns:sodipodi="http://sodipodi.sourceforge.net/DTD/sodipodi-0.dtd"
   xmlns="http://www.w3.org/2000/svg"
   xmlns:svg="http://www.w3.org/2000/svg"
   xmlns:rdf="http://www.w3.org/1999/02/22-rdf-syntax-ns#"
   xmlns:cc="http://creativecommons.org/ns#"
   xmlns:dc="http://purl.org/dc/elements/1.1/"
   xmlns:ns1="http://www.iki.fi/pav/software/textext/">
  <defs
     id="defs2">
    <marker
       style="overflow:visible;"
       id="marker1808"
       refX="0.0"
       refY="0.0"
       orient="auto"
       inkscape:stockid="Arrow1Mend"
       inkscape:isstock="true">
      <path
         transform="scale(0.4) rotate(180) translate(10,0)"
         style="fill-rule:evenodd;fill:context-stroke;stroke:context-stroke;stroke-width:1.0pt;"
         d="M 0.0,0.0 L 5.0,-5.0 L -12.5,0.0 L 5.0,5.0 L 0.0,0.0 z "
         id="path1806" />
    </marker>
    <marker
       style="overflow:visible;"
       id="marker1796"
       refX="0.0"
       refY="0.0"
       orient="auto"
       inkscape:stockid="Arrow1Mend"
       inkscape:isstock="true">
      <path
         transform="scale(0.4) rotate(180) translate(10,0)"
         style="fill-rule:evenodd;fill:context-stroke;stroke:context-stroke;stroke-width:1.0pt;"
         d="M 0.0,0.0 L 5.0,-5.0 L -12.5,0.0 L 5.0,5.0 L 0.0,0.0 z "
         id="path1544" />
    </marker>
    <marker
       style="overflow:visible;"
       id="Arrow1Mend"
       refX="0.0"
       refY="0.0"
       orient="auto"
       inkscape:stockid="Arrow1Mend"
       inkscape:isstock="true">
      <path
         transform="scale(0.4) rotate(180) translate(10,0)"
         style="fill-rule:evenodd;stroke:#ff0000;stroke-width:1pt;stroke-opacity:1;fill:#ff0000;fill-opacity:1"
         d="M 0.0,0.0 L 5.0,-5.0 L -12.5,0.0 L 5.0,5.0 L 0.0,0.0 z "
         id="path848" />
    </marker>
  </defs>
  <sodipodi:namedview
     id="base"
     pagecolor="#ffffff"
     bordercolor="#666666"
     borderopacity="1.0"
     inkscape:pageopacity="0.0"
     inkscape:pageshadow="2"
     inkscape:zoom="0.76917104"
     inkscape:cx="501.18892"
     inkscape:cy="247.66923"
     inkscape:document-units="mm"
     inkscape:current-layer="g1422"
     inkscape:document-rotation="0"
     showgrid="false"
     units="px"
     inkscape:window-width="1322"
     inkscape:window-height="709"
     inkscape:window-x="44"
     inkscape:window-y="22"
     inkscape:window-maximized="1"
     inkscape:snap-global="false"
     inkscape:pagecheckerboard="0" />
  <metadata
     id="metadata5">
    <rdf:RDF>
      <cc:Work
         rdf:about="">
        <dc:format>image/svg+xml</dc:format>
        <dc:type
           rdf:resource="http://purl.org/dc/dcmitype/StillImage" />
      </cc:Work>
    </rdf:RDF>
  </metadata>
  <g
     inkscape:label="Layer 1"
     inkscape:groupmode="layer"
     id="layer1">
    <g
       transform="matrix(0.705556,0,0,0.705556,103.39041,130.91263)"
       ns1:version="1.1.0"
       ns1:texconverter="pdflatex"
       ns1:pdfconverter="inkscape"
       ns1:text="$$x$$"
       ns1:preamble="/home/joseluis/.config/inkscape/extensions/textext/default_packages.tex"
       ns1:scale="2.0"
       ns1:alignment="middle center"
       ns1:jacobian_sqrt="0.705556"
       id="g1422">
      <defs
         id="defs1412">
        <g
           id="g1410">
          <symbol
             overflow="visible"
             id="symbol1404">
            <path
               style="stroke:none"
               d=""
               id="path1402" />
          </symbol>
          <symbol
             overflow="visible"
             id="symbol1408">
            <path
               style="stroke:none"
               d="M 3.328125,-3.015625 C 3.390625,-3.265625 3.625,-4.1875 4.3125,-4.1875 c 0.046875,0 0.296875,0 0.5,0.125 C 4.53125,-4 4.34375,-3.765625 4.34375,-3.515625 c 0,0.15625 0.109375,0.34375 0.375,0.34375 0.21875,0 0.53125,-0.171875 0.53125,-0.578125 0,-0.515625 -0.578125,-0.65625 -0.921875,-0.65625 -0.578125,0 -0.921875,0.53125 -1.046875,0.75 -0.25,-0.65625 -0.78125,-0.75 -1.078125,-0.75 -1.03125,0 -1.609375,1.28125 -1.609375,1.53125 0,0.109375 0.109375,0.109375 0.125,0.109375 0.078125,0 0.109375,-0.03125 0.125,-0.109375 0.34375,-1.0625 1,-1.3125 1.34375,-1.3125 0.1875,0 0.53125,0.09375 0.53125,0.671875 0,0.3125 -0.171875,0.96875 -0.53125,2.375 -0.15625,0.609375 -0.515625,1.03125 -0.953125,1.03125 -0.0625,0 -0.28125,0 -0.5,-0.125 0.25,-0.0625 0.46875,-0.265625 0.46875,-0.546875 0,-0.265625 -0.21875,-0.34375 -0.359375,-0.34375 -0.3125,0 -0.546875,0.25 -0.546875,0.578125 0,0.453125 0.484375,0.65625 0.921875,0.65625 0.671875,0 1.03125,-0.703125 1.046875,-0.75 0.125,0.359375 0.484375,0.75 1.078125,0.75 1.03125,0 1.59375,-1.28125 1.59375,-1.53125 0,-0.109375 -0.078125,-0.109375 -0.109375,-0.109375 -0.09375,0 -0.109375,0.046875 -0.140625,0.109375 -0.328125,1.078125 -1,1.3125 -1.3125,1.3125 -0.390625,0 -0.546875,-0.3125 -0.546875,-0.65625 0,-0.21875 0.046875,-0.4375 0.15625,-0.875 z m 0,0"
               id="path1406" />
          </symbol>
        </g>
      </defs>
      <path
         style="fill:none;stroke:#000000;stroke-width:0.375px;stroke-linecap:butt;stroke-linejoin:miter;stroke-opacity:1"
         d="M -2.5028147,-157.24963 V 2.1469898"
         id="path3195" />
      <path
         style="fill:none;stroke:#000000;stroke-width:0.375px;stroke-linecap:butt;stroke-linejoin:miter;stroke-opacity:1"
         d="M -89.20487,-82.443997 H 91.873457"
         id="path3197" />
      <text
         xml:space="preserve"
         style="font-size:7.99998px;line-height:1.25;font-family:sans-serif;stroke-width:0.375"
         x="69.772209"
         y="-74.315857"
         id="text3616"><tspan
           sodipodi:role="line"
           id="tspan3614"
           x="69.772209"
           y="-74.315857"
           style="stroke-width:0.375">espai</tspan></text>
      <text
         xml:space="preserve"
         style="font-size:7.99998px;line-height:1.25;font-family:sans-serif;stroke-width:0.375"
         x="-33.135994"
         y="-152.71185"
         id="text3620"><tspan
           sodipodi:role="line"
           id="tspan3618"
           x="-33.135994"
           y="-152.71185"
           style="stroke-width:0.375">temps</tspan></text>
      <path
         style="fill:none;stroke:#000000;stroke-width:0.375px;stroke-linecap:butt;stroke-linejoin:miter;stroke-opacity:1;marker-end:url(#marker1796)"
         d="M 8.8202406,-98.44242 52.236554,-140.11511"
         id="path712"
         sodipodi:nodetypes="cc" />
      <path
         style="fill:none;stroke:#000000;stroke-width:0.375px;stroke-linecap:butt;stroke-linejoin:miter;stroke-opacity:1;marker-end:url(#marker1808)"
         d="M 8.8807386,-98.56129 H 51.932688"
         id="path1804" />
      <path
         style="fill:none;stroke:#000000;stroke-width:0.375px;stroke-linecap:butt;stroke-linejoin:miter;stroke-opacity:1;marker-end:url(#marker1808)"
         d="m 52.825274,-98.62765 v -41.18396"
         id="path1929" />
      <g
         transform="matrix(1.0232446,0,0,1.0232446,17.297508,-128.69501)"
         ns1:version="1.1.0"
         ns1:texconverter="pdflatex"
         ns1:pdfconverter="inkscape"
         ns1:text="$$\\Delta s$$"
         ns1:preamble="/home/joseluis/.config/inkscape/extensions/textext/default_packages.tex"
         ns1:scale="2.0"
         ns1:alignment="middle center"
         ns1:inkscapeversion="1.1.2"
         ns1:jacobian_sqrt="0.705556"
         id="g2142">
        <defs
           id="id-b81bda47-fe9b-4815-9a0f-96a3f49c9608">
          <g
             id="id-afd916ad-fe25-4a78-86f0-7564172bb4eb">
            <symbol
               overflow="visible"
               id="id-1580e7ba-2dac-4d6c-b2cc-ce66652686ff">
              <path
                 style="stroke:none"
                 d=""
                 id="id-e9190a10-b29d-4ca8-8cb0-a8195d6d117e" />
            </symbol>
            <symbol
               overflow="visible"
               id="id-038e6a21-d35e-4163-9de1-77dc31e3835b">
              <path
                 style="stroke:none"
                 d="m 4.40625,-6.953125 c -0.0625,-0.140625 -0.09375,-0.1875 -0.265625,-0.1875 -0.15625,0 -0.1875,0.046875 -0.25,0.1875 l -3.375,6.75 C 0.46875,-0.109375 0.46875,-0.09375 0.46875,-0.078125 0.46875,0 0.53125,0 0.6875,0 h 6.921875 c 0.15625,0 0.21875,0 0.21875,-0.078125 0,-0.015625 0,-0.03125 -0.046875,-0.125 z m -0.578125,0.8125 2.6875,5.390625 h -5.375 z m 0,0"
                 id="id-32f24a74-7e6d-47d4-8a64-66e3dcbd57ae" />
            </symbol>
            <symbol
               overflow="visible"
               id="id-598c1cc3-9438-4abc-be97-25f40dfb257f">
              <path
                 style="stroke:none"
                 d=""
                 id="id-edb99260-abf6-4165-ad9a-64f71d263063" />
            </symbol>
            <symbol
               overflow="visible"
               id="id-b95b1fad-ea57-425f-a908-ed4c916b7a6e">
              <path
                 style="stroke:none"
                 d="M 3.890625,-3.734375 C 3.625,-3.71875 3.421875,-3.5 3.421875,-3.28125 c 0,0.140625 0.09375,0.296875 0.3125,0.296875 0.21875,0 0.453125,-0.171875 0.453125,-0.5625 C 4.1875,-4 3.765625,-4.40625 3,-4.40625 c -1.3125,0 -1.6875,1.015625 -1.6875,1.453125 0,0.78125 0.734375,0.921875 1.03125,0.984375 0.515625,0.109375 1.03125,0.21875 1.03125,0.765625 0,0.25 -0.21875,1.09375 -1.421875,1.09375 -0.140625,0 -0.90625,0 -1.140625,-0.53125 0.390625,0.046875 0.640625,-0.25 0.640625,-0.53125 0,-0.21875 -0.171875,-0.34375 -0.375,-0.34375 -0.265625,0 -0.5625,0.203125 -0.5625,0.65625 0,0.5625 0.578125,0.96875 1.421875,0.96875 1.625,0 2.015625,-1.203125 2.015625,-1.65625 0,-0.359375 -0.1875,-0.609375 -0.3125,-0.71875 -0.265625,-0.28125 -0.5625,-0.34375 -1,-0.421875 -0.359375,-0.078125 -0.75,-0.15625 -0.75,-0.609375 C 1.890625,-3.578125 2.125,-4.1875 3,-4.1875 c 0.25,0 0.75,0.078125 0.890625,0.453125 z m 0,0"
                 id="id-aef249b8-fbae-4d22-a4ac-d35fa6c9e1cb" />
            </symbol>
          </g>
        </defs>
        <g
           id="id-c574615d-eaa1-4cb1-9052-caa0e0dd1e15"
           transform="translate(-299.607,-139.579)">
          <g
             style="fill:#000000;fill-opacity:1"
             id="id-9e8cb1f0-4e15-44a6-af01-ed87bdf0e974">
            <g
               transform="translate(299.138,146.72)"
               id="g2134">
              <path
                 style="stroke:none"
                 d="m 4.40625,-6.953125 c -0.0625,-0.140625 -0.09375,-0.1875 -0.265625,-0.1875 -0.15625,0 -0.1875,0.046875 -0.25,0.1875 l -3.375,6.75 C 0.46875,-0.109375 0.46875,-0.09375 0.46875,-0.078125 0.46875,0 0.53125,0 0.6875,0 h 6.921875 c 0.15625,0 0.21875,0 0.21875,-0.078125 0,-0.015625 0,-0.03125 -0.046875,-0.125 z m -0.578125,0.8125 2.6875,5.390625 h -5.375 z m 0,0"
                 id="id-3e8f6f3b-4e27-4d28-8b43-fef8b3b66da9" />
            </g>
          </g>
          <g
             style="fill:#000000;fill-opacity:1"
             id="id-2a320bee-cb6e-4ec5-a380-28a9de9c5ff4">
            <g
               transform="translate(307.44,146.72)"
               id="g2138">
              <path
                 style="stroke:none"
                 d="M 3.890625,-3.734375 C 3.625,-3.71875 3.421875,-3.5 3.421875,-3.28125 c 0,0.140625 0.09375,0.296875 0.3125,0.296875 0.21875,0 0.453125,-0.171875 0.453125,-0.5625 C 4.1875,-4 3.765625,-4.40625 3,-4.40625 c -1.3125,0 -1.6875,1.015625 -1.6875,1.453125 0,0.78125 0.734375,0.921875 1.03125,0.984375 0.515625,0.109375 1.03125,0.21875 1.03125,0.765625 0,0.25 -0.21875,1.09375 -1.421875,1.09375 -0.140625,0 -0.90625,0 -1.140625,-0.53125 0.390625,0.046875 0.640625,-0.25 0.640625,-0.53125 0,-0.21875 -0.171875,-0.34375 -0.375,-0.34375 -0.265625,0 -0.5625,0.203125 -0.5625,0.65625 0,0.5625 0.578125,0.96875 1.421875,0.96875 1.625,0 2.015625,-1.203125 2.015625,-1.65625 0,-0.359375 -0.1875,-0.609375 -0.3125,-0.71875 -0.265625,-0.28125 -0.5625,-0.34375 -1,-0.421875 -0.359375,-0.078125 -0.75,-0.15625 -0.75,-0.609375 C 1.890625,-3.578125 2.125,-4.1875 3,-4.1875 c 0.25,0 0.75,0.078125 0.890625,0.453125 z m 0,0"
                 id="id-b4e327be-77a9-417c-9205-b9c192be7cf3" />
            </g>
          </g>
        </g>
      </g>
      <g
         transform="matrix(1.05833,0,0,1.05833,56.688586,-122.16283)"
         ns1:version="1.1.0"
         ns1:texconverter="pdflatex"
         ns1:pdfconverter="inkscape"
         ns1:text="$$c \\Delta t$$"
         ns1:preamble="/home/joseluis/.config/inkscape/extensions/textext/default_packages.tex"
         ns1:scale="3.0"
         ns1:alignment="middle center"
         ns1:inkscapeversion="1.1.2"
         ns1:jacobian_sqrt="1.05833"
         id="g2299">
        <defs
           id="id-e59df675-6e86-4c6d-944e-acc5b2823221">
          <g
             id="id-5ae6e9d8-03be-4120-83eb-64f2456c399a">
            <symbol
               overflow="visible"
               id="id-65cded3e-7e49-4597-adf3-64b91c731f6d">
              <path
                 style="stroke:none"
                 d=""
                 id="id-d2f18516-09c8-436c-b59e-771fcccf8636" />
            </symbol>
            <symbol
               overflow="visible"
               id="id-62a60b33-30e2-4018-a5ac-f2fd15e96373">
              <path
                 style="stroke:none"
                 d="m 3.953125,-3.78125 c -0.171875,0 -0.296875,0 -0.4375,0.125 -0.171875,0.15625 -0.1875,0.328125 -0.1875,0.390625 0,0.25 0.1875,0.359375 0.375,0.359375 0.28125,0 0.546875,-0.25 0.546875,-0.640625 0,-0.484375 -0.46875,-0.859375 -1.171875,-0.859375 -1.34375,0 -2.671875,1.421875 -2.671875,2.828125 0,0.90625 0.578125,1.6875 1.625,1.6875 1.421875,0 2.25,-1.0625 2.25,-1.171875 0,-0.0625 -0.046875,-0.140625 -0.109375,-0.140625 -0.0625,0 -0.078125,0.03125 -0.140625,0.109375 -0.78125,0.984375 -1.875,0.984375 -1.984375,0.984375 -0.625,0 -0.90625,-0.484375 -0.90625,-1.09375 0,-0.40625 0.203125,-1.375 0.546875,-1.984375 0.3125,-0.578125 0.859375,-1 1.40625,-1 0.328125,0 0.71875,0.125 0.859375,0.40625 z m 0,0"
                 id="id-7a2d7880-92c0-4d77-a62e-97d185dfc6d0" />
            </symbol>
            <symbol
               overflow="visible"
               id="id-6b8bd1e6-c66b-4b47-b4ab-d01edb1c866c">
              <path
                 style="stroke:none"
                 d="m 2.046875,-3.984375 h 0.9375 c 0.203125,0 0.3125,0 0.3125,-0.203125 0,-0.109375 -0.109375,-0.109375 -0.28125,-0.109375 h -0.875 C 2.5,-5.71875 2.546875,-5.90625 2.546875,-5.96875 c 0,-0.171875 -0.125,-0.265625 -0.296875,-0.265625 -0.03125,0 -0.3125,0 -0.390625,0.359375 L 1.46875,-4.296875 h -0.9375 c -0.203125,0 -0.296875,0 -0.296875,0.1875 0,0.125 0.078125,0.125 0.28125,0.125 h 0.875 C 0.671875,-1.15625 0.625,-0.984375 0.625,-0.8125 0.625,-0.265625 1,0.109375 1.546875,0.109375 2.5625,0.109375 3.125,-1.34375 3.125,-1.421875 3.125,-1.53125 3.046875,-1.53125 3.015625,-1.53125 2.921875,-1.53125 2.90625,-1.5 2.859375,-1.390625 2.4375,-0.34375 1.90625,-0.109375 1.5625,-0.109375 c -0.203125,0 -0.3125,-0.125 -0.3125,-0.453125 0,-0.25 0.03125,-0.3125 0.0625,-0.484375 z m 0,0"
                 id="id-7dbea322-4d06-414f-92ba-a17a68076b6a" />
            </symbol>
            <symbol
               overflow="visible"
               id="id-5ed0a875-cefb-4392-aad3-67ebc453eadf">
              <path
                 style="stroke:none"
                 d=""
                 id="id-81ef69f8-d018-405b-99c1-cadafda82921" />
            </symbol>
            <symbol
               overflow="visible"
               id="id-a722ccbd-049d-4d33-9014-3a8373f4d057">
              <path
                 style="stroke:none"
                 d="m 4.40625,-6.953125 c -0.0625,-0.140625 -0.09375,-0.1875 -0.265625,-0.1875 -0.15625,0 -0.1875,0.046875 -0.25,0.1875 l -3.375,6.75 C 0.46875,-0.109375 0.46875,-0.09375 0.46875,-0.078125 0.46875,0 0.53125,0 0.6875,0 h 6.921875 c 0.15625,0 0.21875,0 0.21875,-0.078125 0,-0.015625 0,-0.03125 -0.046875,-0.125 z m -0.578125,0.8125 2.6875,5.390625 h -5.375 z m 0,0"
                 id="id-98f1a87b-26cb-4e04-b0a6-ccf30d59b424" />
            </symbol>
          </g>
        </defs>
        <g
           id="id-a6b9c061-4d56-4502-a760-1f468e7a8a2d"
           transform="translate(-297.924,-139.579)">
          <g
             style="fill:#000000;fill-opacity:1"
             id="id-12068af8-808a-4322-8c1e-9028ce1443c5">
            <g
               transform="translate(297.518,146.72)"
               id="g2287">
              <path
                 style="stroke:none"
                 d="m 3.953125,-3.78125 c -0.171875,0 -0.296875,0 -0.4375,0.125 -0.171875,0.15625 -0.1875,0.328125 -0.1875,0.390625 0,0.25 0.1875,0.359375 0.375,0.359375 0.28125,0 0.546875,-0.25 0.546875,-0.640625 0,-0.484375 -0.46875,-0.859375 -1.171875,-0.859375 -1.34375,0 -2.671875,1.421875 -2.671875,2.828125 0,0.90625 0.578125,1.6875 1.625,1.6875 1.421875,0 2.25,-1.0625 2.25,-1.171875 0,-0.0625 -0.046875,-0.140625 -0.109375,-0.140625 -0.0625,0 -0.078125,0.03125 -0.140625,0.109375 -0.78125,0.984375 -1.875,0.984375 -1.984375,0.984375 -0.625,0 -0.90625,-0.484375 -0.90625,-1.09375 0,-0.40625 0.203125,-1.375 0.546875,-1.984375 0.3125,-0.578125 0.859375,-1 1.40625,-1 0.328125,0 0.71875,0.125 0.859375,0.40625 z m 0,0"
                 id="id-796129c8-7f2a-4ec1-95de-9eb974664921" />
            </g>
          </g>
          <g
             style="fill:#000000;fill-opacity:1"
             id="id-491a215b-4955-4efe-afe7-9831a92707c2">
            <g
               transform="translate(301.83,146.72)"
               id="g2291">
              <path
                 style="stroke:none"
                 d="m 4.40625,-6.953125 c -0.0625,-0.140625 -0.09375,-0.1875 -0.265625,-0.1875 -0.15625,0 -0.1875,0.046875 -0.25,0.1875 l -3.375,6.75 C 0.46875,-0.109375 0.46875,-0.09375 0.46875,-0.078125 0.46875,0 0.53125,0 0.6875,0 h 6.921875 c 0.15625,0 0.21875,0 0.21875,-0.078125 0,-0.015625 0,-0.03125 -0.046875,-0.125 z m -0.578125,0.8125 2.6875,5.390625 h -5.375 z m 0,0"
                 id="id-1c6d12e8-ebac-45c9-9968-482d305e8a90" />
            </g>
          </g>
          <g
             style="fill:#000000;fill-opacity:1"
             id="id-de6bfaba-b8d5-4ae6-a887-1728d1ad1991">
            <g
               transform="translate(310.132,146.72)"
               id="g2295">
              <path
                 style="stroke:none"
                 d="m 2.046875,-3.984375 h 0.9375 c 0.203125,0 0.3125,0 0.3125,-0.203125 0,-0.109375 -0.109375,-0.109375 -0.28125,-0.109375 h -0.875 C 2.5,-5.71875 2.546875,-5.90625 2.546875,-5.96875 c 0,-0.171875 -0.125,-0.265625 -0.296875,-0.265625 -0.03125,0 -0.3125,0 -0.390625,0.359375 L 1.46875,-4.296875 h -0.9375 c -0.203125,0 -0.296875,0 -0.296875,0.1875 0,0.125 0.078125,0.125 0.28125,0.125 h 0.875 C 0.671875,-1.15625 0.625,-0.984375 0.625,-0.8125 0.625,-0.265625 1,0.109375 1.546875,0.109375 2.5625,0.109375 3.125,-1.34375 3.125,-1.421875 3.125,-1.53125 3.046875,-1.53125 3.015625,-1.53125 2.921875,-1.53125 2.90625,-1.5 2.859375,-1.390625 2.4375,-0.34375 1.90625,-0.109375 1.5625,-0.109375 c -0.203125,0 -0.3125,-0.125 -0.3125,-0.453125 0,-0.25 0.03125,-0.3125 0.0625,-0.484375 z m 0,0"
                 id="id-46d59cf4-f174-41f7-8420-882c38c5d6a0" />
            </g>
          </g>
        </g>
      </g>
      <g
         transform="matrix(1.05833,0,0,1.05833,27.097246,-95.61349)"
         ns1:version="1.1.0"
         ns1:texconverter="pdflatex"
         ns1:pdfconverter="inkscape"
         ns1:text="$$\\Delta x$$"
         ns1:preamble="/home/joseluis/.config/inkscape/extensions/textext/default_packages.tex"
         ns1:scale="3.0"
         ns1:alignment="middle center"
         ns1:inkscapeversion="1.1.2"
         ns1:jacobian_sqrt="1.05833"
         id="g2501">
        <defs
           id="id-743da842-ba04-4fa7-9118-d952a456d5e7">
          <g
             id="id-7668fe70-2d36-4691-88d4-4d5d63bbb978">
            <symbol
               overflow="visible"
               id="id-bdad540d-b481-4af2-9e15-237c49818c5b">
              <path
                 style="stroke:none"
                 d=""
                 id="id-a266a92d-236e-4495-a0f3-1f76f651ff7a" />
            </symbol>
            <symbol
               overflow="visible"
               id="id-8aad8ede-5f90-4499-b313-83db8f69bd37">
              <path
                 style="stroke:none"
                 d="m 4.40625,-6.953125 c -0.0625,-0.140625 -0.09375,-0.1875 -0.265625,-0.1875 -0.15625,0 -0.1875,0.046875 -0.25,0.1875 l -3.375,6.75 C 0.46875,-0.109375 0.46875,-0.09375 0.46875,-0.078125 0.46875,0 0.53125,0 0.6875,0 h 6.921875 c 0.15625,0 0.21875,0 0.21875,-0.078125 0,-0.015625 0,-0.03125 -0.046875,-0.125 z m -0.578125,0.8125 2.6875,5.390625 h -5.375 z m 0,0"
                 id="id-eb147356-4dbd-4887-ae56-fbae49662df5" />
            </symbol>
            <symbol
               overflow="visible"
               id="id-1dd016c2-67b7-4231-bfac-073f8cf945bf">
              <path
                 style="stroke:none"
                 d=""
                 id="id-0460b94a-7de0-4bb0-a08b-c3b0bcebc9ea" />
            </symbol>
            <symbol
               overflow="visible"
               id="id-82636f42-22eb-4d89-bbd6-851502632908">
              <path
                 style="stroke:none"
                 d="M 3.328125,-3.015625 C 3.390625,-3.265625 3.625,-4.1875 4.3125,-4.1875 c 0.046875,0 0.296875,0 0.5,0.125 C 4.53125,-4 4.34375,-3.765625 4.34375,-3.515625 c 0,0.15625 0.109375,0.34375 0.375,0.34375 0.21875,0 0.53125,-0.171875 0.53125,-0.578125 0,-0.515625 -0.578125,-0.65625 -0.921875,-0.65625 -0.578125,0 -0.921875,0.53125 -1.046875,0.75 -0.25,-0.65625 -0.78125,-0.75 -1.078125,-0.75 -1.03125,0 -1.609375,1.28125 -1.609375,1.53125 0,0.109375 0.109375,0.109375 0.125,0.109375 0.078125,0 0.109375,-0.03125 0.125,-0.109375 0.34375,-1.0625 1,-1.3125 1.34375,-1.3125 0.1875,0 0.53125,0.09375 0.53125,0.671875 0,0.3125 -0.171875,0.96875 -0.53125,2.375 -0.15625,0.609375 -0.515625,1.03125 -0.953125,1.03125 -0.0625,0 -0.28125,0 -0.5,-0.125 0.25,-0.0625 0.46875,-0.265625 0.46875,-0.546875 0,-0.265625 -0.21875,-0.34375 -0.359375,-0.34375 -0.3125,0 -0.546875,0.25 -0.546875,0.578125 0,0.453125 0.484375,0.65625 0.921875,0.65625 0.671875,0 1.03125,-0.703125 1.046875,-0.75 0.125,0.359375 0.484375,0.75 1.078125,0.75 1.03125,0 1.59375,-1.28125 1.59375,-1.53125 0,-0.109375 -0.078125,-0.109375 -0.109375,-0.109375 -0.09375,0 -0.109375,0.046875 -0.140625,0.109375 -0.328125,1.078125 -1,1.3125 -1.3125,1.3125 -0.390625,0 -0.546875,-0.3125 -0.546875,-0.65625 0,-0.21875 0.046875,-0.4375 0.15625,-0.875 z m 0,0"
                 id="id-43fec6a5-61bf-462f-b612-aa681f5a189f" />
            </symbol>
          </g>
        </defs>
        <g
           id="id-3facff20-53a5-475f-8a99-c1337342d825"
           transform="translate(-299.095,-139.579)">
          <g
             style="fill:#000000;fill-opacity:1"
             id="id-c74795f6-03b3-411b-9949-4a05e1a41da6">
            <g
               transform="translate(298.626,146.72)"
               id="g2493">
              <path
                 style="stroke:none"
                 d="m 4.40625,-6.953125 c -0.0625,-0.140625 -0.09375,-0.1875 -0.265625,-0.1875 -0.15625,0 -0.1875,0.046875 -0.25,0.1875 l -3.375,6.75 C 0.46875,-0.109375 0.46875,-0.09375 0.46875,-0.078125 0.46875,0 0.53125,0 0.6875,0 h 6.921875 c 0.15625,0 0.21875,0 0.21875,-0.078125 0,-0.015625 0,-0.03125 -0.046875,-0.125 z m -0.578125,0.8125 2.6875,5.390625 h -5.375 z m 0,0"
                 id="id-9a4ca8f7-08e4-4295-8a09-eb8830beff8a" />
            </g>
          </g>
          <g
             style="fill:#000000;fill-opacity:1"
             id="id-fbd1d27e-7432-4dac-baed-c854ee3af70e">
            <g
               transform="translate(306.928,146.72)"
               id="g2497">
              <path
                 style="stroke:none"
                 d="M 3.328125,-3.015625 C 3.390625,-3.265625 3.625,-4.1875 4.3125,-4.1875 c 0.046875,0 0.296875,0 0.5,0.125 C 4.53125,-4 4.34375,-3.765625 4.34375,-3.515625 c 0,0.15625 0.109375,0.34375 0.375,0.34375 0.21875,0 0.53125,-0.171875 0.53125,-0.578125 0,-0.515625 -0.578125,-0.65625 -0.921875,-0.65625 -0.578125,0 -0.921875,0.53125 -1.046875,0.75 -0.25,-0.65625 -0.78125,-0.75 -1.078125,-0.75 -1.03125,0 -1.609375,1.28125 -1.609375,1.53125 0,0.109375 0.109375,0.109375 0.125,0.109375 0.078125,0 0.109375,-0.03125 0.125,-0.109375 0.34375,-1.0625 1,-1.3125 1.34375,-1.3125 0.1875,0 0.53125,0.09375 0.53125,0.671875 0,0.3125 -0.171875,0.96875 -0.53125,2.375 -0.15625,0.609375 -0.515625,1.03125 -0.953125,1.03125 -0.0625,0 -0.28125,0 -0.5,-0.125 0.25,-0.0625 0.46875,-0.265625 0.46875,-0.546875 0,-0.265625 -0.21875,-0.34375 -0.359375,-0.34375 -0.3125,0 -0.546875,0.25 -0.546875,0.578125 0,0.453125 0.484375,0.65625 0.921875,0.65625 0.671875,0 1.03125,-0.703125 1.046875,-0.75 0.125,0.359375 0.484375,0.75 1.078125,0.75 1.03125,0 1.59375,-1.28125 1.59375,-1.53125 0,-0.109375 -0.078125,-0.109375 -0.109375,-0.109375 -0.09375,0 -0.109375,0.046875 -0.140625,0.109375 -0.328125,1.078125 -1,1.3125 -1.3125,1.3125 -0.390625,0 -0.546875,-0.3125 -0.546875,-0.65625 0,-0.21875 0.046875,-0.4375 0.15625,-0.875 z m 0,0"
                 id="id-ce50ef21-7a6e-4e6b-a34b-2a2d34f620cf" />
            </g>
          </g>
        </g>
      </g>
    </g>
  </g>
</svg>
