<?xml version="1.0" encoding="UTF-8" standalone="no"?>
<!-- Created with Inkscape (http://www.inkscape.org/) -->

<svg
   xmlns:dc="http://purl.org/dc/elements/1.1/"
   xmlns:cc="http://creativecommons.org/ns#"
   xmlns:rdf="http://www.w3.org/1999/02/22-rdf-syntax-ns#"
   xmlns:svg="http://www.w3.org/2000/svg"
   xmlns="http://www.w3.org/2000/svg"
   xmlns:sodipodi="http://sodipodi.sourceforge.net/DTD/sodipodi-0.dtd"
   xmlns:inkscape="http://www.inkscape.org/namespaces/inkscape"
   width="123.22926mm"
   height="78.106308mm"
   viewBox="0 0 123.22926 78.106308"
   version="1.1"
   id="svg8"
   inkscape:version="0.92.3 (2405546, 2018-03-11)"
   sodipodi:docname="epotencial.svg">
  <sodipodi:namedview
     id="base"
     pagecolor="#ffffff"
     bordercolor="#666666"
     borderopacity="1.0"
     inkscape:pageopacity="0.0"
     inkscape:pageshadow="2"
     inkscape:zoom="1.8021378"
     inkscape:cx="232.8742"
     inkscape:cy="137.85959"
     inkscape:document-units="mm"
     inkscape:current-layer="layer1"
     showgrid="false"
     inkscape:window-width="1319"
     inkscape:window-height="713"
     inkscape:window-x="47"
     inkscape:window-y="27"
     inkscape:window-maximized="1"
     inkscape:snap-global="false"
     fit-margin-top="10"
     fit-margin-left="10"
     fit-margin-right="10"
     fit-margin-bottom="10" />
  <defs
     id="defs2">
    <marker
       inkscape:stockid="EmptyTriangleOutM"
       orient="auto"
       refY="0"
       refX="0"
       id="EmptyTriangleOutM"
       style="overflow:visible"
       inkscape:isstock="true">
      <path
         id="path990"
         d="M 5.77,0 -2.88,5 V -5 Z"
         style="fill:#ffffff;fill-rule:evenodd;stroke:#000000;stroke-width:1.00000003pt;stroke-opacity:1"
         transform="matrix(0.4,0,0,0.4,-1.8,0)"
         inkscape:connector-curvature="0" />
    </marker>
    <marker
       inkscape:stockid="EmptyTriangleInM"
       orient="auto"
       refY="0"
       refX="0"
       id="EmptyTriangleInM"
       style="overflow:visible"
       inkscape:isstock="true">
      <path
         id="path981"
         d="M 5.77,0 -2.88,5 V -5 Z"
         style="fill:#ffffff;fill-rule:evenodd;stroke:#000000;stroke-width:1.00000003pt;stroke-opacity:1"
         transform="matrix(-0.4,0,0,-0.4,1.8,0)"
         inkscape:connector-curvature="0" />
    </marker>
    <marker
       inkscape:stockid="Arrow1Mend"
       orient="auto"
       refY="0"
       refX="0"
       id="marker1882"
       style="overflow:visible"
       inkscape:isstock="true">
      <path
         id="path1880"
         d="M 0,0 5,-5 -12.5,0 5,5 Z"
         style="fill:#000000;fill-opacity:1;fill-rule:evenodd;stroke:#000000;stroke-width:1.00000003pt;stroke-opacity:1"
         transform="matrix(-0.4,0,0,-0.4,-4,0)"
         inkscape:connector-curvature="0" />
    </marker>
    <marker
       inkscape:stockid="Arrow1Mend"
       orient="auto"
       refY="0"
       refX="0"
       id="marker1655"
       style="overflow:visible"
       inkscape:isstock="true">
      <path
         id="path1653"
         d="M 0,0 5,-5 -12.5,0 5,5 Z"
         style="fill:#000000;fill-opacity:1;fill-rule:evenodd;stroke:#000000;stroke-width:1.00000003pt;stroke-opacity:1"
         transform="matrix(-0.4,0,0,-0.4,-4,0)"
         inkscape:connector-curvature="0" />
    </marker>
    <marker
       inkscape:collect="always"
       inkscape:isstock="true"
       style="overflow:visible"
       id="marker1119"
       refX="0"
       refY="0"
       orient="auto"
       inkscape:stockid="Arrow1Mend">
      <path
         transform="matrix(-0.4,0,0,-0.4,-4,0)"
         style="fill:#000000;fill-opacity:1;fill-rule:evenodd;stroke:#000000;stroke-width:1.00000003pt;stroke-opacity:1"
         d="M 0,0 5,-5 -12.5,0 5,5 Z"
         id="path1117"
         inkscape:connector-curvature="0" />
    </marker>
  </defs>
  <metadata
     id="metadata5">
    <rdf:RDF>
      <cc:Work
         rdf:about="">
        <dc:format>image/svg+xml</dc:format>
        <dc:type
           rdf:resource="http://purl.org/dc/dcmitype/StillImage" />
        <dc:title></dc:title>
      </cc:Work>
    </rdf:RDF>
  </metadata>
  <g
     inkscape:label="Layer 1"
     inkscape:groupmode="layer"
     id="layer1"
     transform="translate(0.99821469,-10.113334)">
    <g
       id="g1054">
      <path
         inkscape:connector-curvature="0"
         id="path815"
         d="M 37.974842,25.972165 V 65.704979 H 97.57381 Z"
         style="fill:none;stroke:#000000;stroke-width:0.22429813px;stroke-linecap:butt;stroke-linejoin:miter;stroke-opacity:1" />
      <g
         transform="translate(-53.975028,0.34017857)"
         id="g1429">
        <circle
           r="2.8995585"
           cy="22.740477"
           cx="92.112808"
           id="circle821"
           style="opacity:1;fill:#999999;fill-opacity:1;stroke:#000000;stroke-width:0.13552582;stroke-miterlimit:4;stroke-dasharray:none;stroke-dashoffset:0;stroke-opacity:1" />
        <path
           inkscape:connector-curvature="0"
           id="path1115"
           d="M 91.886023,22.740476 V 37.670534"
           style="fill:none;stroke:#000000;stroke-width:0.26458332px;stroke-linecap:butt;stroke-linejoin:miter;stroke-opacity:1;marker-end:url(#marker1882)" />
      </g>
      <g
         id="g1447"
         transform="translate(-70.908372,0.34017857)">
        <circle
           style="opacity:1;fill:#999999;fill-opacity:1;stroke:#000000;stroke-width:0.13552582;stroke-miterlimit:4;stroke-dasharray:none;stroke-dashoffset:0;stroke-opacity:1"
           id="circle1443"
           cx="92.112808"
           cy="22.740477"
           r="2.8995585" />
        <path
           style="fill:none;stroke:#000000;stroke-width:0.26458332px;stroke-linecap:butt;stroke-linejoin:miter;stroke-opacity:1;marker-end:url(#marker1119)"
           d="M 91.886023,22.740476 V 37.670534"
           id="path1445"
           inkscape:connector-curvature="0" />
      </g>
      <path
         inkscape:connector-curvature="0"
         id="path1449"
         d="M 17.273482,22.967261 H 110.25596"
         style="fill:none;stroke:#000000;stroke-width:0.26458332;stroke-linecap:butt;stroke-linejoin:miter;stroke-miterlimit:4;stroke-dasharray:0.26458333, 1.05833333;stroke-dashoffset:0;stroke-opacity:1" />
      <g
         transform="translate(-70.908372,40.027698)"
         id="g1455">
        <circle
           r="2.8995585"
           cy="22.740477"
           cx="92.112808"
           id="circle1451"
           style="opacity:1;fill:#999999;fill-opacity:1;stroke:#000000;stroke-width:0.13552582;stroke-miterlimit:4;stroke-dasharray:none;stroke-dashoffset:0;stroke-opacity:1" />
        <path
           inkscape:connector-curvature="0"
           id="path1453"
           d="M 91.886023,22.740476 V 37.670534"
           style="fill:none;stroke:#000000;stroke-width:0.26458332px;stroke-linecap:butt;stroke-linejoin:miter;stroke-opacity:1;marker-end:url(#marker1119)" />
      </g>
      <g
         id="g1461"
         transform="translate(5.7452387,40.027698)">
        <circle
           style="opacity:1;fill:#999999;fill-opacity:1;stroke:#000000;stroke-width:0.13552582;stroke-miterlimit:4;stroke-dasharray:none;stroke-dashoffset:0;stroke-opacity:1"
           id="circle1457"
           cx="92.112808"
           cy="22.740477"
           r="2.8995585" />
        <path
           style="fill:none;stroke:#000000;stroke-width:0.26458332px;stroke-linecap:butt;stroke-linejoin:miter;stroke-opacity:1;marker-end:url(#marker1119)"
           d="M 91.886023,22.740476 V 37.670534"
           id="path1459"
           inkscape:connector-curvature="0" />
      </g>
      <path
         style="fill:none;stroke:#000000;stroke-width:0.26458332;stroke-linecap:butt;stroke-linejoin:miter;stroke-miterlimit:4;stroke-dasharray:0.26458333, 1.05833333;stroke-dashoffset:0;stroke-opacity:1"
         d="M 17.084494,62.390201 H 110.06658"
         id="path1463"
         inkscape:connector-curvature="0" />
      <g
         id="g1490"
         transform="matrix(0.31167552,0,0,0.31167552,-16.531515,-7.3785751)">
        <g
           word-spacing="normal"
           letter-spacing="normal"
           font-size-adjust="none"
           font-stretch="normal"
           font-weight="normal"
           font-variant="normal"
           font-style="normal"
           stroke-miterlimit="10.433"
           xml:space="preserve"
           transform="matrix(0.3,0,0,-0.3,-52.5,222.75)"
           id="content"
           style="font-style:normal;font-variant:normal;font-weight:normal;font-stretch:normal;letter-spacing:normal;word-spacing:normal;text-anchor:start;fill:none;fill-opacity:1;fill-rule:evenodd;stroke:#000000;stroke-linecap:butt;stroke-linejoin:miter;stroke-miterlimit:10.43299961;stroke-dasharray:none;stroke-dashoffset:0;stroke-opacity:1"><path
             id="path1485"
             d="m 469.82,440.23 v 0 0.01 0 0.01 l -0.01,0.02 v 0.01 0.02 0.02 0.02 l -0.01,0.02 v 0.02 l -0.01,0.02 -0.01,0.02 -0.01,0.03 -0.01,0.02 -0.01,0.03 -0.01,0.02 -0.02,0.03 -0.02,0.02 -0.02,0.02 -0.02,0.03 -0.01,0.01 -0.01,0.01 -0.02,0.01 -0.01,0.01 -0.02,0.01 -0.01,0.01 -0.02,0.01 -0.01,0.01 -0.02,0.01 -0.02,0.01 h -0.02 l -0.02,0.01 -0.02,0.01 h -0.02 l -0.02,0.01 -0.02,0.01 h -0.03 -0.02 l -0.03,0.01 h -0.02 -0.03 l -0.03,0.01 h -0.02 -0.03 c -1.16,0 -4.79,-0.41 -6.08,-0.5 -0.41,-0.05 -0.96,-0.1 -0.96,-1 0,-0.6 0.46,-0.6 1.21,-0.6 2.39,0 2.48,-0.34 2.48,-0.84 l -0.15,-1 -7.22,-28.7 c -0.21,-0.69 -0.21,-0.8 -0.21,-1.1 0,-1.14 1,-1.39 1.46,-1.39 0.79,0 1.59,0.6 1.84,1.3 l 0.94,3.78 1.11,4.48 c 0.29,1.1 0.59,2.19 0.84,3.35 0.1,0.3 0.5,1.94 0.55,2.23 0.14,0.46 1.69,3.25 3.39,4.6 1.09,0.79 2.64,1.73 4.78,1.73 2.14,0 2.69,-1.69 2.69,-3.48 0,-2.69 -1.89,-8.13 -3.1,-11.16 -0.39,-1.16 -0.64,-1.75 -0.64,-2.75 0,-2.33 1.74,-4.08 4.08,-4.08 4.69,0 6.53,7.27 6.53,7.67 0,0.5 -0.45,0.5 -0.59,0.5 -0.5,0 -0.5,-0.15 -0.75,-0.9 -0.75,-2.64 -2.34,-6.17 -5.08,-6.17 -0.86,0 -1.2,0.5 -1.2,1.64 0,1.25 0.45,2.45 0.9,3.54 0.8,2.14 3.04,8.07 3.04,10.96 0,3.23 -2,5.32 -5.74,5.32 -3.14,0 -5.53,-1.53 -7.37,-3.82 z"
             inkscape:connector-curvature="0"
             style="fill:#000000;stroke-width:0" /><path
             id="path1487"
             d="m 502.18,409.87 v 0.71 l -0.02,0.68 -0.03,0.66 -0.04,0.64 -0.06,0.62 -0.07,0.6 -0.1,0.57 -0.1,0.56 -0.13,0.55 -0.15,0.53 -0.17,0.51 -0.19,0.5 -0.21,0.49 -0.24,0.48 -0.26,0.47 -0.14,0.23 -0.15,0.23 c -1.08,1.61 -3.23,3 -6.03,3 v -0.98 c 1.89,0 3.7,-1.14 4.33,-3.17 0.56,-1.88 0.59,-4.39 0.59,-7.43 0,-2.57 0,-5.15 -0.45,-7.34 -0.7,-3.17 -3.06,-3.94 -4.47,-3.94 v 0 c -1.59,0 -3.72,0.94 -4.42,3.8 -0.49,2.05 -0.49,4.91 -0.49,7.48 0,2.55 0,5.21 0.52,7.11 0.73,2.75 2.97,3.49 4.39,3.49 v 0.98 c -8.08,0 -8.08,-9.51 -8.08,-12.03 0,-2.5 0,-11.81 8.08,-11.81 8.09,0 8.09,9.31 8.09,11.81 z"
             inkscape:connector-curvature="0"
             style="fill:#000000;stroke-width:0" /></g>      </g>
      <g
         transform="matrix(0.32982946,0,0,0.32982946,-19.025473,29.289127)"
         id="g1548">
        <g
           style="font-style:normal;font-variant:normal;font-weight:normal;font-stretch:normal;letter-spacing:normal;word-spacing:normal;text-anchor:start;fill:none;fill-opacity:1;fill-rule:evenodd;stroke:#000000;stroke-linecap:butt;stroke-linejoin:miter;stroke-miterlimit:10.43299961;stroke-dasharray:none;stroke-dashoffset:0;stroke-opacity:1"
           id="g1546"
           transform="matrix(0.3,0,0,-0.3,-52.5,222.75)"
           xml:space="preserve"
           stroke-miterlimit="10.433"
           font-style="normal"
           font-variant="normal"
           font-weight="normal"
           font-stretch="normal"
           font-size-adjust="none"
           letter-spacing="normal"
           word-spacing="normal"><path
             style="fill:#000000;stroke-width:0"
             inkscape:connector-curvature="0"
             d="m 469.82,440.23 v 0 0.01 0 0.01 l -0.01,0.02 v 0.01 0.02 0.02 0.02 l -0.01,0.02 v 0.02 l -0.01,0.02 -0.01,0.02 -0.01,0.03 -0.01,0.02 -0.01,0.03 -0.01,0.02 -0.02,0.03 -0.02,0.02 -0.02,0.02 -0.02,0.03 -0.01,0.01 -0.01,0.01 -0.02,0.01 -0.01,0.01 -0.02,0.01 -0.01,0.01 -0.02,0.01 -0.01,0.01 -0.02,0.01 -0.02,0.01 h -0.02 l -0.02,0.01 -0.02,0.01 h -0.02 l -0.02,0.01 -0.02,0.01 h -0.03 -0.02 l -0.03,0.01 h -0.02 -0.03 l -0.03,0.01 h -0.02 -0.03 c -1.16,0 -4.79,-0.41 -6.08,-0.5 -0.41,-0.05 -0.96,-0.1 -0.96,-1 0,-0.6 0.46,-0.6 1.21,-0.6 2.39,0 2.48,-0.34 2.48,-0.84 l -0.15,-1 -7.22,-28.7 c -0.21,-0.69 -0.21,-0.8 -0.21,-1.1 0,-1.14 1,-1.39 1.46,-1.39 0.79,0 1.59,0.6 1.84,1.3 l 0.94,3.78 1.11,4.48 c 0.29,1.1 0.59,2.19 0.84,3.35 0.1,0.3 0.5,1.94 0.55,2.23 0.14,0.46 1.69,3.25 3.39,4.6 1.09,0.79 2.64,1.73 4.78,1.73 2.14,0 2.69,-1.69 2.69,-3.48 0,-2.69 -1.89,-8.13 -3.1,-11.16 -0.39,-1.16 -0.64,-1.75 -0.64,-2.75 0,-2.33 1.74,-4.08 4.08,-4.08 4.69,0 6.53,7.27 6.53,7.67 0,0.5 -0.45,0.5 -0.59,0.5 -0.5,0 -0.5,-0.15 -0.75,-0.9 -0.75,-2.64 -2.34,-6.17 -5.08,-6.17 -0.86,0 -1.2,0.5 -1.2,1.64 0,1.25 0.45,2.45 0.9,3.54 0.8,2.14 3.04,8.07 3.04,10.96 0,3.23 -2,5.32 -5.74,5.32 -3.14,0 -5.53,-1.53 -7.37,-3.82 z"
             id="path1542" /><path
             style="fill:#000000;stroke-width:0"
             inkscape:connector-curvature="0"
             d="m 498.39,412.53 h 3.4 c 0.71,0 1.16,0 1.16,0.76 0,0.49 -0.45,0.49 -1.08,0.49 h -3.25 c 0.81,4.42 1.08,6.03 1.36,7.04 0.17,0.77 0.94,1.5 1.78,1.5 0.03,0 0.97,0 1.64,-0.42 -1.44,-0.45 -1.53,-1.72 -1.53,-1.92 0,-0.77 0.59,-1.28 1.39,-1.28 0.94,0 1.99,0.8 1.99,2.12 0,1.6 -1.71,2.47 -3.49,2.47 -1.53,0 -3.23,-0.87 -4.19,-2.61 -0.68,-1.29 -0.96,-2.86 -1.7,-6.9 h -2.75 c -0.7,0 -1.16,0 -1.16,-0.77 0,-0.48 0.46,-0.48 1.08,-0.48 h 2.58 c -0.03,-0.22 -2.22,-12.75 -3.06,-16.49 -0.17,-0.76 -0.77,-3.4 -2.44,-3.4 -0.03,0 -0.87,0 -1.53,0.4 1.42,0.46 1.53,1.72 1.53,1.92 0,0.77 -0.59,1.29 -1.39,1.29 -0.94,0 -1.98,-0.8 -1.98,-2.13 0,-1.56 1.64,-2.47 3.37,-2.47 2.24,0 3.77,2.3 4.19,3.06 1.25,2.35 2.05,6.63 2.12,7.05 z"
             id="path1544" /></g>      </g>
      <path
         sodipodi:open="true"
         d="m 82.119627,65.248336 a 15.280387,15.280387 0 0 1 2.40189,-8.07201"
         sodipodi:end="3.7099951"
         sodipodi:start="3.1516197"
         sodipodi:ry="15.280387"
         sodipodi:rx="15.280387"
         sodipodi:cy="65.40155"
         sodipodi:cx="97.399246"
         sodipodi:type="arc"
         id="path1580"
         style="opacity:1;fill:none;fill-opacity:1;stroke:#000000;stroke-width:0.26458332;stroke-miterlimit:4;stroke-dasharray:none;stroke-dashoffset:0;stroke-opacity:1" />
      <g
         id="g1615"
         transform="matrix(0.37349385,0,0,0.37349385,47.091256,23.079752)">
        <g
           word-spacing="normal"
           letter-spacing="normal"
           font-size-adjust="none"
           font-stretch="normal"
           font-weight="normal"
           font-variant="normal"
           font-style="normal"
           stroke-miterlimit="10.433"
           xml:space="preserve"
           transform="matrix(0.3,0,0,-0.3,-52.5,222.75)"
           id="g1613"
           style="font-style:normal;font-variant:normal;font-weight:normal;font-stretch:normal;letter-spacing:normal;word-spacing:normal;text-anchor:start;fill:none;fill-opacity:1;fill-rule:evenodd;stroke:#000000;stroke-linecap:butt;stroke-linejoin:miter;stroke-miterlimit:10.43299961;stroke-dasharray:none;stroke-dashoffset:0;stroke-opacity:1"><path
             id="path1611"
             d="m 484.16,434.54 -0.01,0.35 -0.02,0.35 -0.04,0.33 -0.06,0.34 -0.06,0.33 -0.09,0.32 -0.1,0.32 -0.11,0.31 -0.13,0.3 -0.14,0.29 -0.15,0.29 -0.17,0.27 -0.18,0.27 -0.19,0.26 -0.2,0.25 -0.22,0.24 -0.23,0.22 -0.24,0.22 -0.25,0.2 -0.26,0.2 -0.28,0.17 -0.28,0.17 -0.29,0.15 -0.31,0.14 -0.31,0.12 -0.32,0.11 -0.34,0.09 -0.34,0.08 -0.35,0.06 -0.35,0.05 -0.37,0.02 -0.38,0.01 c -2.89,0 -4.28,-0.8 -6.03,-2.09 -2.73,-1.99 -5.48,-6.83 -6.42,-10.61 l -7.92,-31.64 c -0.06,-0.19 0.19,-0.5 0.59,-0.5 0.39,0 0.55,0.11 0.6,0.25 l 3.48,13.75 c 0.95,-2.99 3.14,-4.83 6.78,-4.83 l -0.15,1.09 c -3.78,0 -5.68,2.89 -5.68,6.44 0,0.48 0,1.23 0.25,2.19 l 3.19,12.61 c 1.1,4.28 4.69,12.2 10.66,12.2 2.89,0 4.64,-1.55 4.64,-4.53 v 0 c 0,-3.5 -1.89,-7.08 -4.49,-8.63 -1.34,0.5 -2.34,0.6 -3.84,0.6 -1.05,0 -3.83,0.04 -3.83,-1.6 -0.04,-1.39 2.53,-1.23 3.44,-1.23 l 0.14,1.09 c -0.69,0 -1.69,-0.06 -2.19,0.19 0.11,0.5 1.89,0.41 2.44,0.41 1.05,0 1.5,0 2.14,-0.25 v 0 c -0.64,-0.25 -1.19,-0.35 -2.39,-0.35 l -0.14,-1.09 c 1.84,0 2.59,0.05 4.08,0.64 1.89,-1.8 2.14,-3.34 2.2,-5.62 0.1,-2.9 -1.11,-6.63 -2.5,-8.58 -1.94,-2.69 -5.28,-4.49 -8.12,-4.49 l 0.15,-1.09 c 3.64,0 7.38,1.75 9.61,3.94 2.39,2.29 4,5.48 4,9.17 0,3.58 -1.84,6.17 -3.64,7.42 2.89,1.64 5.72,4.73 5.72,8.31 z"
             inkscape:connector-curvature="0"
             style="fill:#000000;stroke-width:0" /></g>      </g>
      <path
         style="fill:none;stroke:#000000;stroke-width:0.26458332px;stroke-linecap:butt;stroke-linejoin:miter;stroke-opacity:1;marker-end:url(#marker1655)"
         d="m 37.986607,22.967253 59.720236,39.6875"
         id="path1651"
         inkscape:connector-curvature="0" />
      <g
         transform="matrix(0.34663564,0,0,0.34663564,6.5456542,8.5788765)"
         id="g1876">
        <g
           style="font-style:normal;font-variant:normal;font-weight:normal;font-stretch:normal;letter-spacing:normal;word-spacing:normal;text-anchor:start;fill:none;fill-opacity:1;fill-rule:evenodd;stroke:#000000;stroke-linecap:butt;stroke-linejoin:miter;stroke-miterlimit:10.43299961;stroke-dasharray:none;stroke-dashoffset:0;stroke-opacity:1"
           id="g1874"
           transform="matrix(0.3,0,0,-0.3,-81.941165,192.76363)"
           xml:space="preserve"
           stroke-miterlimit="10.433"
           font-style="normal"
           font-variant="normal"
           font-weight="normal"
           font-stretch="normal"
           font-size-adjust="none"
           letter-spacing="normal"
           word-spacing="normal"><path
             style="fill:#000000;stroke-width:0"
             inkscape:connector-curvature="0"
             d="m 459.91,409.14 -0.02,-0.07 -0.01,-0.08 -0.02,-0.07 -0.01,-0.08 -0.04,-0.16 -0.04,-0.16 -0.03,-0.16 -0.04,-0.16 -0.04,-0.16 -0.04,-0.16 -0.01,-0.08 -0.02,-0.07 -0.02,-0.07 -0.01,-0.07 -0.02,-0.07 -0.01,-0.07 -0.01,-0.06 -0.01,-0.06 -0.01,-0.06 -0.01,-0.05 -0.01,-0.05 -0.01,-0.04 -0.01,-0.04 v -0.04 -0.03 -0.02 c 0,-0.89 0.7,-1.35 1.43,-1.35 0.61,0 1.5,0.39 1.85,1.39 0.06,0.11 0.65,2.44 0.95,3.69 l 1.1,4.48 c 0.29,1.1 0.59,2.19 0.84,3.35 0.2,0.84 0.61,2.28 0.66,2.48 0.75,1.55 3.39,6.08 8.1,6.08 2.25,0 2.71,-1.84 2.71,-3.48 0,-1.25 -0.36,-2.64 -0.75,-4.14 l -1.39,-5.79 -1,-3.78 c -0.21,-1 -0.66,-2.68 -0.66,-2.93 0,-0.89 0.7,-1.35 1.45,-1.35 1.55,0 1.85,1.25 2.24,2.85 0.7,2.78 2.55,10.06 3,12 0.14,0.65 2.78,6.62 8.22,6.62 2.14,0 2.68,-1.69 2.68,-3.48 0,-2.85 -2.09,-8.52 -3.09,-11.16 -0.45,-1.2 -0.64,-1.75 -0.64,-2.75 0,-2.33 1.73,-4.08 4.08,-4.08 4.69,0 6.53,7.27 6.53,7.67 0,0.5 -0.45,0.5 -0.59,0.5 -0.5,0 -0.5,-0.15 -0.75,-0.9 -0.75,-2.64 -2.35,-6.17 -5.08,-6.17 -0.86,0 -1.21,0.5 -1.21,1.64 0,1.25 0.46,2.45 0.9,3.54 0.95,2.58 3.04,8.11 3.04,10.96 0,3.23 -2,5.32 -5.73,5.32 -3.74,0 -6.27,-2.18 -8.11,-4.82 -0.06,0.65 -0.2,2.34 -1.61,3.53 -1.24,1.04 -2.83,1.29 -4.08,1.29 -4.48,0 -6.92,-3.18 -7.76,-4.32 -0.25,2.84 -2.35,4.32 -4.6,4.32 -2.28,0 -3.23,-1.93 -3.69,-2.82 -0.89,-1.75 -1.54,-4.69 -1.54,-4.85 0,-0.5 0.5,-0.5 0.61,-0.5 0.5,0 0.54,0.07 0.84,1.16 0.84,3.53 1.84,5.92 3.64,5.92 0.8,0 1.55,-0.39 1.55,-2.28 0,-1.05 -0.16,-1.61 -0.8,-4.19 z"
             id="path1868" /><path
             style="fill:#000000;stroke-width:0"
             inkscape:connector-curvature="0"
             d="m 523.79,435.84 -0.07,-0.06 -0.07,-0.07 -0.08,-0.07 -0.08,-0.07 -0.08,-0.08 -0.09,-0.08 -0.09,-0.09 -0.1,-0.08 -0.09,-0.09 -0.1,-0.1 -0.19,-0.19 -0.2,-0.19 -0.19,-0.21 -0.09,-0.1 -0.09,-0.1 -0.09,-0.1 -0.08,-0.11 -0.08,-0.1 -0.08,-0.1 -0.07,-0.1 -0.07,-0.1 -0.05,-0.1 -0.06,-0.1 -0.04,-0.1 -0.04,-0.09 -0.03,-0.09 -0.03,-0.1 -0.01,-0.08 v -0.09 c 0,-0.5 0.5,-1 1,-1 0.45,0 0.7,0.36 0.95,0.66 0.59,0.75 1.73,2.14 3.94,3.23 0.34,0.21 0.84,0.46 0.84,1.05 0,0.5 -0.34,0.75 -0.7,1 -1.1,0.75 -1.64,1.64 -2.05,2.83 -0.09,0.45 -0.3,1.11 -0.98,1.11 -0.71,0 -1,-0.66 -1,-1.05 0,-0.25 0.39,-1.84 1.18,-2.89 h -16.78 c -0.84,0 -1.75,0 -1.75,-1 0,-1 0.91,-1 1.75,-1 z"
             id="path1870" /><path
             style="fill:#000000;stroke-width:0"
             inkscape:connector-curvature="0"
             d="m 522.66,424.98 0.01,0.06 0.01,0.05 0.01,0.05 0.02,0.06 0.02,0.1 0.01,0.05 0.01,0.06 0.01,0.05 0.01,0.06 0.01,0.05 0.01,0.06 0.01,0.06 v 0.06 0.03 0.03 0.03 0.03 c 0,0.86 -0.59,1.36 -1.43,1.36 -0.5,0 -1.85,-0.36 -2.05,-2.16 -0.89,1.85 -2.64,3.14 -4.62,3.14 l 0.04,-1.09 c 3.28,0 3.99,-4.03 3.99,-4.28 0,-0.25 -0.1,-0.55 -0.16,-0.75 l -2.39,-9.52 c -0.3,-1.29 -1.44,-2.53 -2.53,-3.48 -1.05,-0.89 -2.6,-1.8 -4.05,-1.8 -2.48,0 -3.23,2.6 -3.23,4.58 0,2.41 1.45,8.28 2.79,10.81 1.35,2.46 3.49,4.44 5.58,4.44 l -0.04,1.09 c -5.69,0 -11.86,-6.96 -11.86,-14.14 0,-4.93 3.03,-7.87 6.62,-7.87 2.94,0 5.28,2.34 5.78,2.89 l 0.05,-0.05 c -1.05,-4.43 -1.64,-6.48 -1.64,-6.58 -0.2,-0.45 -1.89,-5.39 -7.17,-5.39 -0.96,0 -2.6,0.07 -4,0.5 1.5,0.46 2.04,1.75 2.04,2.6 0,0.79 -0.54,1.75 -1.89,1.75 -1.09,0 -2.68,-0.91 -2.68,-2.89 0,-2.05 1.84,-3.05 6.62,-3.05 6.22,0 9.81,3.89 10.56,6.88 z"
             id="path1872" /></g>      </g>
      <path
         style="opacity:1;fill:none;fill-opacity:1;stroke:#000000;stroke-width:0.16674654;stroke-miterlimit:4;stroke-dasharray:none;stroke-dashoffset:0;stroke-opacity:1"
         id="path1878"
         sodipodi:type="arc"
         sodipodi:cx="-38.064991"
         sodipodi:cy="-23.099028"
         sodipodi:rx="9.6300535"
         sodipodi:ry="9.6300535"
         sodipodi:start="3.71794"
         sodipodi:end="4.6951855"
         d="m -46.139394,-28.34707 a 9.6300535,9.6300535 0 0 1 7.908741,-4.380586"
         sodipodi:open="true"
         transform="scale(-1)" />
      <g
         transform="matrix(0.35764335,0,0,0.35764335,11.75216,-0.38826567)"
         id="g1955">
        <g
           style="font-style:normal;font-variant:normal;font-weight:normal;font-stretch:normal;letter-spacing:normal;word-spacing:normal;text-anchor:start;fill:none;fill-opacity:1;fill-rule:evenodd;stroke:#000000;stroke-linecap:butt;stroke-linejoin:miter;stroke-miterlimit:10.43299961;stroke-dasharray:none;stroke-dashoffset:0;stroke-opacity:1"
           id="g1953"
           transform="matrix(0.3,0,0,-0.3,-52.5,222.75)"
           xml:space="preserve"
           stroke-miterlimit="10.433"
           font-style="normal"
           font-variant="normal"
           font-weight="normal"
           font-stretch="normal"
           font-size-adjust="none"
           letter-spacing="normal"
           word-spacing="normal"><path
             style="fill:#000000;stroke-width:0"
             inkscape:connector-curvature="0"
             d="m 479.29,417.96 -0.01,0.37 -0.01,0.35 -0.02,0.35 -0.02,0.34 -0.06,0.65 -0.09,0.63 -0.11,0.59 -0.14,0.57 -0.15,0.54 -0.18,0.51 -0.19,0.49 -0.21,0.45 -0.23,0.44 -0.25,0.4 -0.26,0.38 -0.27,0.36 -0.29,0.33 -0.3,0.31 -0.31,0.29 -0.31,0.26 -0.33,0.24 -0.34,0.22 -0.34,0.2 -0.35,0.18 -0.35,0.16 -0.36,0.14 -0.35,0.12 -0.36,0.11 -0.37,0.09 -0.36,0.06 -0.36,0.06 -0.35,0.04 -0.35,0.02 h -0.35 l -0.05,-1.09 c 4.94,0 4.94,-6.53 4.94,-10.41 0,-1.84 0,-4.73 0.09,-5.57 v 0 c -4.37,-3.85 -8.22,-4.39 -10.2,-4.39 -3,0 -4.49,2.25 -4.49,5.43 0,2.44 1.3,7.82 2.89,10.36 2.33,3.64 5.04,4.58 6.77,4.58 l 0.05,1.09 c -6.82,0 -13.39,-7.12 -13.39,-14.14 0,-4.64 2.98,-8.42 8.06,-8.42 3.14,0 6.73,1.14 10.51,4.19 0.66,-2.64 2.3,-4.19 4.54,-4.19 2.64,0 4.18,2.74 4.18,3.53 0,0.36 -0.29,0.5 -0.59,0.5 -0.36,0 -0.5,-0.14 -0.66,-0.5 -0.89,-2.43 -2.68,-2.43 -2.78,-2.43 -1.54,0 -1.54,3.89 -1.54,5.07 0,1.05 0,1.16 0.5,1.75 4.68,5.88 5.73,11.66 5.73,11.71 0,0.11 -0.06,0.5 -0.61,0.5 -0.5,0 -0.5,-0.14 -0.75,-1.05 -0.89,-3.14 -2.53,-6.92 -4.87,-9.86 z"
             id="path1951" /></g>      </g>
      <g
         id="g2059"
         transform="matrix(0.29088467,0.16794234,-0.16794234,0.29088467,61.59649,-1.7639296)">
        <g
           word-spacing="normal"
           letter-spacing="normal"
           font-size-adjust="none"
           font-stretch="normal"
           font-weight="normal"
           font-variant="normal"
           font-style="normal"
           stroke-miterlimit="10.433"
           xml:space="preserve"
           transform="matrix(0.3,0,0,-0.3,-52.5,222.75)"
           id="g2057"
           style="font-style:normal;font-variant:normal;font-weight:normal;font-stretch:normal;letter-spacing:normal;word-spacing:normal;text-anchor:start;fill:none;fill-opacity:1;fill-rule:evenodd;stroke:#000000;stroke-linecap:butt;stroke-linejoin:miter;stroke-miterlimit:10.43299961;stroke-dasharray:none;stroke-dashoffset:0;stroke-opacity:1"><path
             id="path2051"
             d="m 477.54,440.98 -0.04,0.06 -0.03,0.06 -0.03,0.05 -0.02,0.05 -0.03,0.05 -0.03,0.05 -0.03,0.05 -0.02,0.04 -0.03,0.04 -0.03,0.04 -0.02,0.04 -0.03,0.03 -0.03,0.04 -0.03,0.03 -0.03,0.03 -0.03,0.03 -0.03,0.02 -0.04,0.03 -0.04,0.02 -0.03,0.02 -0.05,0.02 -0.04,0.01 -0.05,0.02 -0.04,0.01 -0.06,0.01 -0.05,0.01 -0.06,0.01 -0.06,0.01 h -0.07 l -0.07,0.01 h -0.07 -0.04 -0.04 c -0.85,0 -0.94,-0.25 -1.28,-0.89 l -0.32,-4.09 13.41,-26.91 h -26.86 l 13.45,26.91 0.32,4.09 -16.85,-33.78 c -0.25,-0.45 -0.25,-0.55 -0.25,-0.59 0,-0.41 0.3,-0.41 1.1,-0.41 h 34.58 c 0.79,0 1.09,0 1.09,0.41 0,0.04 0,0.14 -0.25,0.59 z"
             inkscape:connector-curvature="0"
             style="fill:#000000;stroke-width:0" /><path
             id="path2053"
             d="m 522.23,435.84 -0.07,-0.06 -0.07,-0.07 -0.08,-0.07 -0.08,-0.07 -0.08,-0.08 -0.09,-0.08 -0.09,-0.09 -0.1,-0.08 -0.09,-0.09 -0.1,-0.1 -0.19,-0.19 -0.2,-0.19 -0.19,-0.21 -0.09,-0.1 -0.09,-0.1 -0.09,-0.1 -0.08,-0.11 -0.08,-0.1 -0.08,-0.1 -0.07,-0.1 -0.06,-0.1 -0.06,-0.1 -0.06,-0.1 -0.04,-0.1 -0.04,-0.09 -0.03,-0.09 -0.02,-0.1 -0.02,-0.08 v -0.09 c 0,-0.5 0.5,-1 1,-1 0.45,0 0.7,0.36 0.95,0.66 0.59,0.75 1.73,2.14 3.94,3.23 0.34,0.21 0.84,0.46 0.84,1.05 0,0.5 -0.34,0.75 -0.7,1 -1.1,0.75 -1.64,1.64 -2.05,2.83 -0.09,0.45 -0.3,1.11 -0.98,1.11 -0.71,0 -1,-0.66 -1,-1.05 0,-0.25 0.39,-1.84 1.18,-2.89 h -16.78 c -0.84,0 -1.75,0 -1.75,-1 0,-1 0.91,-1 1.75,-1 z"
             inkscape:connector-curvature="0"
             style="fill:#000000;stroke-width:0" /><path
             id="path2055"
             d="m 501.43,409.14 -0.02,-0.07 -0.01,-0.08 -0.02,-0.07 -0.02,-0.08 -0.03,-0.16 -0.04,-0.16 -0.04,-0.16 -0.04,-0.16 -0.03,-0.16 -0.04,-0.16 -0.02,-0.08 -0.01,-0.07 -0.02,-0.07 -0.01,-0.07 -0.02,-0.07 -0.01,-0.07 -0.02,-0.06 -0.01,-0.06 -0.01,-0.06 -0.01,-0.05 -0.01,-0.05 v -0.04 l -0.01,-0.04 v -0.04 l -0.01,-0.03 V 407 c 0,-0.89 0.71,-1.35 1.44,-1.35 0.61,0 1.5,0.39 1.84,1.39 0.11,0.21 1.8,6.99 2,7.88 0.39,1.64 1.3,5.12 1.6,6.48 0.2,0.64 1.59,2.99 2.78,4.08 0.41,0.34 1.84,1.64 4,1.64 1.28,0 2.03,-0.59 2.08,-0.59 -1.49,-0.25 -2.58,-1.46 -2.58,-2.74 0,-0.79 0.55,-1.75 1.89,-1.75 1.34,0 2.73,1.14 2.73,2.94 0,1.75 -1.59,3.23 -4.12,3.23 -3.25,0 -5.44,-2.43 -6.39,-3.82 -0.39,2.23 -2.19,3.82 -4.53,3.82 -2.28,0 -3.24,-1.93 -3.69,-2.82 -0.89,-1.71 -1.55,-4.69 -1.55,-4.85 0,-0.5 0.5,-0.5 0.61,-0.5 0.5,0 0.55,0.07 0.85,1.16 0.84,3.53 1.84,5.92 3.64,5.92 0.84,0 1.54,-0.39 1.54,-2.28 0,-1.05 -0.15,-1.61 -0.79,-4.19 z"
             inkscape:connector-curvature="0"
             style="fill:#000000;stroke-width:0" /></g>      </g>
      <g
         transform="matrix(0.34818311,0,0,0.34818311,49.699217,23.50713)"
         id="g2171">
        <g
           style="font-style:normal;font-variant:normal;font-weight:normal;font-stretch:normal;letter-spacing:normal;word-spacing:normal;text-anchor:start;fill:none;fill-opacity:1;fill-rule:evenodd;stroke:#000000;stroke-linecap:butt;stroke-linejoin:miter;stroke-miterlimit:10.43299961;stroke-dasharray:none;stroke-dashoffset:0;stroke-opacity:1"
           id="g2169"
           transform="matrix(0.3,0,0,-0.3,14.666049,176.30947)"
           xml:space="preserve"
           stroke-miterlimit="10.433"
           font-style="normal"
           font-variant="normal"
           font-weight="normal"
           font-stretch="normal"
           font-size-adjust="none"
           letter-spacing="normal"
           word-spacing="normal"><path
             style="fill:#000000;stroke-width:0"
             inkscape:connector-curvature="0"
             d="m 477.54,440.98 -0.04,0.06 -0.03,0.06 -0.03,0.05 -0.02,0.05 -0.03,0.05 -0.03,0.05 -0.03,0.05 -0.02,0.04 -0.03,0.04 -0.03,0.04 -0.02,0.04 -0.03,0.03 -0.03,0.04 -0.03,0.03 -0.03,0.03 -0.03,0.03 -0.03,0.02 -0.04,0.03 -0.04,0.02 -0.03,0.02 -0.05,0.02 -0.04,0.01 -0.05,0.02 -0.04,0.01 -0.06,0.01 -0.05,0.01 -0.06,0.01 -0.06,0.01 h -0.07 l -0.07,0.01 h -0.07 -0.04 -0.04 c -0.85,0 -0.94,-0.25 -1.28,-0.89 l -0.32,-4.09 13.41,-26.91 h -26.86 l 13.45,26.91 0.32,4.09 -16.85,-33.78 c -0.25,-0.45 -0.25,-0.55 -0.25,-0.59 0,-0.41 0.3,-0.41 1.1,-0.41 h 34.58 c 0.79,0 1.09,0 1.09,0.41 0,0.04 0,0.14 -0.25,0.59 z"
             id="path2165" /><path
             style="fill:#000000;stroke-width:0"
             inkscape:connector-curvature="0"
             d="m 511.34,440.23 v 0 0.01 0 0.01 l -0.01,0.02 v 0.01 0.02 0.02 0.02 l -0.01,0.02 v 0.02 l -0.01,0.02 -0.01,0.02 -0.01,0.03 -0.01,0.02 -0.01,0.03 -0.01,0.02 -0.02,0.03 -0.02,0.02 -0.02,0.02 -0.02,0.03 -0.01,0.01 -0.02,0.01 -0.01,0.01 -0.01,0.01 -0.02,0.01 -0.01,0.01 -0.02,0.01 -0.01,0.01 -0.02,0.01 -0.02,0.01 h -0.02 l -0.02,0.01 -0.02,0.01 h -0.02 l -0.02,0.01 -0.02,0.01 h -0.03 -0.02 l -0.03,0.01 h -0.02 -0.03 l -0.03,0.01 h -0.03 -0.02 c -1.16,0 -4.79,-0.41 -6.08,-0.5 -0.41,-0.05 -0.96,-0.1 -0.96,-1 0,-0.6 0.46,-0.6 1.21,-0.6 2.39,0 2.48,-0.34 2.48,-0.84 l -0.15,-1 -7.22,-28.7 c -0.21,-0.69 -0.21,-0.8 -0.21,-1.1 0,-1.14 1,-1.39 1.46,-1.39 0.79,0 1.59,0.6 1.84,1.3 l 0.94,3.78 1.11,4.48 c 0.29,1.1 0.59,2.19 0.84,3.35 0.09,0.3 0.5,1.94 0.55,2.23 0.14,0.46 1.69,3.25 3.39,4.6 1.09,0.79 2.64,1.73 4.78,1.73 2.14,0 2.69,-1.69 2.69,-3.48 0,-2.69 -1.89,-8.13 -3.1,-11.16 -0.39,-1.16 -0.64,-1.75 -0.64,-2.75 0,-2.33 1.74,-4.08 4.08,-4.08 4.69,0 6.53,7.27 6.53,7.67 0,0.5 -0.45,0.5 -0.59,0.5 -0.5,0 -0.5,-0.15 -0.75,-0.9 -0.75,-2.64 -2.35,-6.17 -5.08,-6.17 -0.86,0 -1.2,0.5 -1.2,1.64 0,1.25 0.45,2.45 0.9,3.54 0.8,2.14 3.03,8.07 3.03,10.96 0,3.23 -2,5.32 -5.73,5.32 -3.14,0 -5.53,-1.53 -7.37,-3.82 z"
             id="path2167" /></g>      </g>
      <path
         inkscape:connector-curvature="0"
         id="path2230"
         d="M 111.58503,23.044147 V 62.074655"
         style="fill:none;stroke:#000000;stroke-width:0.26237753px;stroke-linecap:butt;stroke-linejoin:miter;stroke-opacity:1;marker-start:url(#EmptyTriangleInM);marker-end:url(#EmptyTriangleOutM)" />
      <path
         inkscape:connector-curvature="0"
         id="path1004"
         d="M 13.536606,65.722977 H 111.46313"
         style="fill:none;stroke:#000000;stroke-width:0.2571716px;stroke-linecap:butt;stroke-linejoin:miter;stroke-opacity:1" />
    </g>
  </g>
</svg>
