<?xml version="1.0" encoding="utf-8" standalone="no"?>
<!DOCTYPE svg PUBLIC "-//W3C//DTD SVG 1.1//EN"
  "http://www.w3.org/Graphics/SVG/1.1/DTD/svg11.dtd">
<!-- Created with matplotlib (http://matplotlib.org/) -->
<svg height="288pt" version="1.1" viewBox="0 0 432 288" width="432pt" xmlns="http://www.w3.org/2000/svg" xmlns:xlink="http://www.w3.org/1999/xlink">
 <defs>
  <style type="text/css">
*{stroke-linecap:butt;stroke-linejoin:round;}
  </style>
 </defs>
 <g id="figure_1">
  <g id="patch_1">
   <path d="M 0 288 
L 432 288 
L 432 0 
L 0 0 
z
" style="fill:#ffffff;"/>
  </g>
  <g id="axes_1">
   <g id="patch_2">
    <path d="M 54 252 
L 388.8 252 
L 388.8 34.56 
L 54 34.56 
z
" style="fill:#ffffff;"/>
   </g>
   <g id="PolyCollection_1">
    <defs>
     <path d="M 120.96 -209.952 
L 120.96 -253.44 
L 121.2948 -253.44 
L 121.6296 -253.44 
L 121.9644 -253.44 
L 122.2992 -253.44 
L 122.634 -253.44 
L 122.9688 -253.44 
L 123.3036 -253.44 
L 123.6384 -253.44 
L 123.9732 -253.44 
L 124.308 -253.44 
L 124.6428 -253.44 
L 124.9776 -253.44 
L 125.3124 -253.44 
L 125.6472 -253.44 
L 125.982 -253.44 
L 126.3168 -253.44 
L 126.6516 -253.44 
L 126.9864 -253.44 
L 127.3212 -253.44 
L 127.656 -253.44 
L 127.9908 -253.44 
L 128.3256 -253.44 
L 128.6604 -253.44 
L 128.9952 -253.44 
L 129.33 -253.44 
L 129.6648 -253.44 
L 129.9996 -253.44 
L 130.3344 -253.44 
L 130.6692 -253.44 
L 131.004 -253.44 
L 131.3388 -253.44 
L 131.6736 -253.44 
L 132.0084 -253.44 
L 132.3432 -253.44 
L 132.678 -253.44 
L 133.0128 -253.44 
L 133.3476 -253.44 
L 133.6824 -253.44 
L 134.0172 -253.44 
L 134.352 -253.44 
L 134.6868 -253.44 
L 135.0216 -253.44 
L 135.3564 -253.44 
L 135.6912 -253.44 
L 136.026 -253.44 
L 136.3608 -253.44 
L 136.6956 -253.44 
L 137.0304 -253.44 
L 137.3652 -253.44 
L 137.7 -253.44 
L 138.0348 -253.44 
L 138.3696 -253.44 
L 138.7044 -253.44 
L 139.0392 -253.44 
L 139.374 -253.44 
L 139.7088 -253.44 
L 140.0436 -253.44 
L 140.3784 -253.44 
L 140.7132 -253.44 
L 141.048 -253.44 
L 141.3828 -253.44 
L 141.7176 -253.44 
L 142.0524 -253.44 
L 142.3872 -253.44 
L 142.722 -253.44 
L 143.0568 -253.44 
L 143.3916 -253.44 
L 143.7264 -253.44 
L 144.0612 -253.44 
L 144.396 -253.44 
L 144.7308 -253.44 
L 145.0656 -253.44 
L 145.4004 -253.44 
L 145.7352 -253.44 
L 146.07 -253.44 
L 146.4048 -253.44 
L 146.7396 -253.44 
L 147.0744 -253.44 
L 147.4092 -253.44 
L 147.744 -253.44 
L 148.0788 -253.44 
L 148.4136 -253.44 
L 148.7484 -253.44 
L 149.0832 -253.44 
L 149.418 -253.44 
L 149.7528 -253.44 
L 150.0876 -253.44 
L 150.4224 -253.44 
L 150.7572 -253.44 
L 151.092 -253.44 
L 151.4268 -253.44 
L 151.7616 -253.44 
L 152.0964 -253.44 
L 152.4312 -253.44 
L 152.766 -253.44 
L 153.1008 -253.44 
L 153.4356 -253.44 
L 153.7704 -253.44 
L 154.1052 -253.44 
L 154.44 -253.44 
L 154.7748 -253.44 
L 155.1096 -253.44 
L 155.4444 -253.44 
L 155.7792 -253.44 
L 156.114 -253.44 
L 156.4488 -253.44 
L 156.7836 -253.44 
L 157.1184 -253.44 
L 157.4532 -253.44 
L 157.788 -253.44 
L 158.1228 -253.44 
L 158.4576 -253.44 
L 158.7924 -253.44 
L 159.1272 -253.44 
L 159.462 -253.44 
L 159.7968 -253.44 
L 160.1316 -253.44 
L 160.4664 -253.44 
L 160.8012 -253.44 
L 161.136 -253.44 
L 161.4708 -253.44 
L 161.8056 -253.44 
L 162.1404 -253.44 
L 162.4752 -253.44 
L 162.81 -253.44 
L 163.1448 -253.44 
L 163.4796 -253.44 
L 163.8144 -253.44 
L 164.1492 -253.44 
L 164.484 -253.44 
L 164.8188 -253.44 
L 165.1536 -253.44 
L 165.4884 -253.44 
L 165.8232 -253.44 
L 166.158 -253.44 
L 166.4928 -253.44 
L 166.8276 -253.44 
L 167.1624 -253.44 
L 167.4972 -253.44 
L 167.832 -253.44 
L 168.1668 -253.44 
L 168.5016 -253.44 
L 168.8364 -253.44 
L 169.1712 -253.44 
L 169.506 -253.44 
L 169.8408 -253.44 
L 170.1756 -253.44 
L 170.5104 -253.44 
L 170.8452 -253.44 
L 171.18 -253.44 
L 171.5148 -253.44 
L 171.8496 -253.44 
L 172.1844 -253.44 
L 172.5192 -253.44 
L 172.854 -253.44 
L 173.1888 -253.44 
L 173.5236 -253.44 
L 173.8584 -253.44 
L 174.1932 -253.44 
L 174.528 -253.44 
L 174.8628 -253.44 
L 175.1976 -253.44 
L 175.5324 -253.44 
L 175.8672 -253.44 
L 176.202 -253.44 
L 176.5368 -253.44 
L 176.8716 -253.44 
L 177.2064 -253.44 
L 177.5412 -253.44 
L 177.876 -253.44 
L 178.2108 -253.44 
L 178.5456 -253.44 
L 178.8804 -253.44 
L 179.2152 -253.44 
L 179.55 -253.44 
L 179.8848 -253.44 
L 180.2196 -253.44 
L 180.5544 -253.44 
L 180.8892 -253.44 
L 181.224 -253.44 
L 181.5588 -253.44 
L 181.8936 -253.44 
L 182.2284 -253.44 
L 182.5632 -253.44 
L 182.898 -253.44 
L 183.2328 -253.44 
L 183.5676 -253.44 
L 183.9024 -253.44 
L 184.2372 -253.44 
L 184.572 -253.44 
L 184.9068 -253.44 
L 185.2416 -253.44 
L 185.5764 -253.44 
L 185.9112 -253.44 
L 186.246 -253.44 
L 186.5808 -253.44 
L 186.9156 -253.44 
L 187.2504 -253.44 
L 187.5852 -253.44 
L 187.92 -253.44 
L 188.2548 -253.44 
L 188.5896 -253.44 
L 188.9244 -253.44 
L 189.2592 -253.44 
L 189.594 -253.44 
L 189.9288 -253.44 
L 190.2636 -253.44 
L 190.5984 -253.44 
L 190.9332 -253.44 
L 191.268 -253.44 
L 191.6028 -253.44 
L 191.9376 -253.44 
L 192.2724 -253.44 
L 192.6072 -253.44 
L 192.942 -253.44 
L 193.2768 -253.44 
L 193.6116 -253.44 
L 193.9464 -253.44 
L 194.2812 -253.44 
L 194.616 -253.44 
L 194.9508 -253.44 
L 195.2856 -253.44 
L 195.6204 -253.44 
L 195.9552 -253.44 
L 196.29 -253.44 
L 196.6248 -253.44 
L 196.9596 -253.44 
L 197.2944 -253.44 
L 197.6292 -253.44 
L 197.964 -253.44 
L 198.2988 -253.44 
L 198.6336 -253.44 
L 198.9684 -253.44 
L 199.3032 -253.44 
L 199.638 -253.44 
L 199.9728 -253.44 
L 200.3076 -253.44 
L 200.6424 -253.44 
L 200.9772 -253.44 
L 201.312 -253.44 
L 201.6468 -253.44 
L 201.9816 -253.44 
L 202.3164 -253.44 
L 202.6512 -253.44 
L 202.986 -253.44 
L 203.3208 -253.44 
L 203.6556 -253.44 
L 203.9904 -253.44 
L 204.3252 -253.44 
L 204.66 -253.44 
L 204.9948 -253.44 
L 205.3296 -253.44 
L 205.6644 -253.44 
L 205.9992 -253.44 
L 206.334 -253.44 
L 206.6688 -253.44 
L 207.0036 -253.44 
L 207.3384 -253.44 
L 207.6732 -253.44 
L 208.008 -253.44 
L 208.3428 -253.44 
L 208.6776 -253.44 
L 209.0124 -253.44 
L 209.3472 -253.44 
L 209.682 -253.44 
L 210.0168 -253.44 
L 210.3516 -253.44 
L 210.6864 -253.44 
L 211.0212 -253.44 
L 211.356 -253.44 
L 211.6908 -253.44 
L 212.0256 -253.44 
L 212.3604 -253.44 
L 212.6952 -253.44 
L 213.03 -253.44 
L 213.3648 -253.44 
L 213.6996 -253.44 
L 214.0344 -253.44 
L 214.3692 -253.44 
L 214.704 -253.44 
L 215.0388 -253.44 
L 215.3736 -253.44 
L 215.7084 -253.44 
L 216.0432 -253.44 
L 216.378 -253.44 
L 216.7128 -253.44 
L 217.0476 -253.44 
L 217.3824 -253.44 
L 217.7172 -253.44 
L 218.052 -253.44 
L 218.3868 -253.44 
L 218.7216 -253.44 
L 219.0564 -253.44 
L 219.3912 -253.44 
L 219.726 -253.44 
L 220.0608 -253.44 
L 220.3956 -253.44 
L 220.7304 -253.44 
L 221.0652 -253.44 
L 221.4 -253.44 
L 221.7348 -253.44 
L 222.0696 -253.44 
L 222.4044 -253.44 
L 222.7392 -253.44 
L 223.074 -253.44 
L 223.4088 -253.44 
L 223.7436 -253.44 
L 224.0784 -253.44 
L 224.4132 -253.44 
L 224.748 -253.44 
L 225.0828 -253.44 
L 225.4176 -253.44 
L 225.7524 -253.44 
L 226.0872 -253.44 
L 226.422 -253.44 
L 226.7568 -253.44 
L 227.0916 -253.44 
L 227.4264 -253.44 
L 227.7612 -253.44 
L 228.096 -253.44 
L 228.4308 -253.44 
L 228.7656 -253.44 
L 229.1004 -253.44 
L 229.4352 -253.44 
L 229.77 -253.44 
L 230.1048 -253.44 
L 230.4396 -253.44 
L 230.7744 -253.44 
L 231.1092 -253.44 
L 231.444 -253.44 
L 231.7788 -253.44 
L 232.1136 -253.44 
L 232.4484 -253.44 
L 232.7832 -253.44 
L 233.118 -253.44 
L 233.4528 -253.44 
L 233.7876 -253.44 
L 234.1224 -253.44 
L 234.4572 -253.44 
L 234.792 -253.44 
L 235.1268 -253.44 
L 235.4616 -253.44 
L 235.7964 -253.44 
L 236.1312 -253.44 
L 236.466 -253.44 
L 236.8008 -253.44 
L 237.1356 -253.44 
L 237.4704 -253.44 
L 237.8052 -253.44 
L 238.14 -253.44 
L 238.4748 -253.44 
L 238.8096 -253.44 
L 239.1444 -253.44 
L 239.4792 -253.44 
L 239.814 -253.44 
L 240.1488 -253.44 
L 240.4836 -253.44 
L 240.8184 -253.44 
L 241.1532 -253.44 
L 241.488 -253.44 
L 241.8228 -253.44 
L 242.1576 -253.44 
L 242.4924 -253.44 
L 242.8272 -253.44 
L 243.162 -253.44 
L 243.4968 -253.44 
L 243.8316 -253.44 
L 244.1664 -253.44 
L 244.5012 -253.44 
L 244.836 -253.44 
L 245.1708 -253.44 
L 245.5056 -253.44 
L 245.8404 -253.44 
L 246.1752 -253.44 
L 246.51 -253.44 
L 246.8448 -253.44 
L 247.1796 -253.44 
L 247.5144 -253.44 
L 247.8492 -253.44 
L 248.184 -253.44 
L 248.5188 -253.44 
L 248.8536 -253.44 
L 249.1884 -253.44 
L 249.5232 -253.44 
L 249.858 -253.44 
L 250.1928 -253.44 
L 250.5276 -253.44 
L 250.8624 -253.44 
L 251.1972 -253.44 
L 251.532 -253.44 
L 251.8668 -253.44 
L 252.2016 -253.44 
L 252.5364 -253.44 
L 252.8712 -253.44 
L 253.206 -253.44 
L 253.5408 -253.44 
L 253.8756 -253.44 
L 254.2104 -253.44 
L 254.5452 -253.44 
L 254.88 -253.44 
L 255.2148 -253.44 
L 255.5496 -253.44 
L 255.8844 -253.44 
L 256.2192 -253.44 
L 256.554 -253.44 
L 256.8888 -253.44 
L 257.2236 -253.44 
L 257.5584 -253.44 
L 257.8932 -253.44 
L 258.228 -253.44 
L 258.5628 -253.44 
L 258.8976 -253.44 
L 259.2324 -253.44 
L 259.5672 -253.44 
L 259.902 -253.44 
L 260.2368 -253.44 
L 260.5716 -253.44 
L 260.9064 -253.44 
L 261.2412 -253.44 
L 261.576 -253.44 
L 261.9108 -253.44 
L 262.2456 -253.44 
L 262.5804 -253.44 
L 262.9152 -253.44 
L 263.25 -253.44 
L 263.5848 -253.44 
L 263.9196 -253.44 
L 264.2544 -253.44 
L 264.5892 -253.44 
L 264.924 -253.44 
L 265.2588 -253.44 
L 265.5936 -253.44 
L 265.9284 -253.44 
L 266.2632 -253.44 
L 266.598 -253.44 
L 266.9328 -253.44 
L 267.2676 -253.44 
L 267.6024 -253.44 
L 267.9372 -253.44 
L 268.272 -253.44 
L 268.6068 -253.44 
L 268.9416 -253.44 
L 269.2764 -253.44 
L 269.6112 -253.44 
L 269.946 -253.44 
L 270.2808 -253.44 
L 270.6156 -253.44 
L 270.9504 -253.44 
L 271.2852 -253.44 
L 271.62 -253.44 
L 271.9548 -253.44 
L 272.2896 -253.44 
L 272.6244 -253.44 
L 272.9592 -253.44 
L 273.294 -253.44 
L 273.6288 -253.44 
L 273.9636 -253.44 
L 274.2984 -253.44 
L 274.6332 -253.44 
L 274.968 -253.44 
L 275.3028 -253.44 
L 275.6376 -253.44 
L 275.9724 -253.44 
L 276.3072 -253.44 
L 276.642 -253.44 
L 276.9768 -253.44 
L 277.3116 -253.44 
L 277.6464 -253.44 
L 277.9812 -253.44 
L 278.316 -253.44 
L 278.6508 -253.44 
L 278.9856 -253.44 
L 279.3204 -253.44 
L 279.6552 -253.44 
L 279.99 -253.44 
L 280.3248 -253.44 
L 280.6596 -253.44 
L 280.9944 -253.44 
L 281.3292 -253.44 
L 281.664 -253.44 
L 281.9988 -253.44 
L 282.3336 -253.44 
L 282.6684 -253.44 
L 283.0032 -253.44 
L 283.338 -253.44 
L 283.6728 -253.44 
L 284.0076 -253.44 
L 284.3424 -253.44 
L 284.6772 -253.44 
L 285.012 -253.44 
L 285.3468 -253.44 
L 285.6816 -253.44 
L 286.0164 -253.44 
L 286.3512 -253.44 
L 286.686 -253.44 
L 287.0208 -253.44 
L 287.3556 -253.44 
L 287.6904 -253.44 
L 288.0252 -253.44 
L 288.36 -253.44 
L 288.6948 -253.44 
L 289.0296 -253.44 
L 289.3644 -253.44 
L 289.6992 -253.44 
L 290.034 -253.44 
L 290.3688 -253.44 
L 290.7036 -253.44 
L 291.0384 -253.44 
L 291.3732 -253.44 
L 291.708 -253.44 
L 292.0428 -253.44 
L 292.3776 -253.44 
L 292.7124 -253.44 
L 293.0472 -253.44 
L 293.382 -253.44 
L 293.7168 -253.44 
L 294.0516 -253.44 
L 294.3864 -253.44 
L 294.7212 -253.44 
L 295.056 -253.44 
L 295.3908 -253.44 
L 295.7256 -253.44 
L 296.0604 -253.44 
L 296.3952 -253.44 
L 296.73 -253.44 
L 297.0648 -253.44 
L 297.3996 -253.44 
L 297.7344 -253.44 
L 298.0692 -253.44 
L 298.404 -253.44 
L 298.7388 -253.44 
L 299.0736 -253.44 
L 299.4084 -253.44 
L 299.7432 -253.44 
L 300.078 -253.44 
L 300.4128 -253.44 
L 300.7476 -253.44 
L 301.0824 -253.44 
L 301.4172 -253.44 
L 301.752 -253.44 
L 302.0868 -253.44 
L 302.4216 -253.44 
L 302.7564 -253.44 
L 303.0912 -253.44 
L 303.426 -253.44 
L 303.7608 -253.44 
L 304.0956 -253.44 
L 304.4304 -253.44 
L 304.7652 -253.44 
L 305.1 -253.44 
L 305.4348 -253.44 
L 305.7696 -253.44 
L 306.1044 -253.44 
L 306.4392 -253.44 
L 306.774 -253.44 
L 307.1088 -253.44 
L 307.4436 -253.44 
L 307.7784 -253.44 
L 308.1132 -253.44 
L 308.448 -253.44 
L 308.7828 -253.44 
L 309.1176 -253.44 
L 309.4524 -253.44 
L 309.7872 -253.44 
L 310.122 -253.44 
L 310.4568 -253.44 
L 310.7916 -253.44 
L 311.1264 -253.44 
L 311.4612 -253.44 
L 311.796 -253.44 
L 312.1308 -253.44 
L 312.4656 -253.44 
L 312.8004 -253.44 
L 313.1352 -253.44 
L 313.47 -253.44 
L 313.8048 -253.44 
L 314.1396 -253.44 
L 314.4744 -253.44 
L 314.8092 -253.44 
L 315.144 -253.44 
L 315.4788 -253.44 
L 315.8136 -253.44 
L 316.1484 -253.44 
L 316.4832 -253.44 
L 316.818 -253.44 
L 317.1528 -253.44 
L 317.4876 -253.44 
L 317.8224 -253.44 
L 318.1572 -253.44 
L 318.492 -253.44 
L 318.8268 -253.44 
L 319.1616 -253.44 
L 319.4964 -253.44 
L 319.8312 -253.44 
L 320.166 -253.44 
L 320.5008 -253.44 
L 320.8356 -253.44 
L 321.1704 -253.44 
L 321.5052 -253.44 
L 321.5052 -79.70544 
L 321.5052 -79.70544 
L 321.1704 -79.92288 
L 320.8356 -80.14032 
L 320.5008 -80.35776 
L 320.166 -80.5752 
L 319.8312 -80.79264 
L 319.4964 -81.01008 
L 319.1616 -81.22752 
L 318.8268 -81.44496 
L 318.492 -81.6624 
L 318.1572 -81.87984 
L 317.8224 -82.09728 
L 317.4876 -82.31472 
L 317.1528 -82.53216 
L 316.818 -82.7496 
L 316.4832 -82.96704 
L 316.1484 -83.18448 
L 315.8136 -83.40192 
L 315.4788 -83.61936 
L 315.144 -83.8368 
L 314.8092 -84.05424 
L 314.4744 -84.27168 
L 314.1396 -84.48912 
L 313.8048 -84.70656 
L 313.47 -84.924 
L 313.1352 -85.14144 
L 312.8004 -85.35888 
L 312.4656 -85.57632 
L 312.1308 -85.79376 
L 311.796 -86.0112 
L 311.4612 -86.22864 
L 311.1264 -86.44608 
L 310.7916 -86.66352 
L 310.4568 -86.88096 
L 310.122 -87.0984 
L 309.7872 -87.31584 
L 309.4524 -87.53328 
L 309.1176 -87.75072 
L 308.7828 -87.96816 
L 308.448 -88.1856 
L 308.1132 -88.40304 
L 307.7784 -88.62048 
L 307.4436 -88.83792 
L 307.1088 -89.05536 
L 306.774 -89.2728 
L 306.4392 -89.49024 
L 306.1044 -89.70768 
L 305.7696 -89.92512 
L 305.4348 -90.14256 
L 305.1 -90.36 
L 304.7652 -90.57744 
L 304.4304 -90.79488 
L 304.0956 -91.01232 
L 303.7608 -91.22976 
L 303.426 -91.4472 
L 303.0912 -91.66464 
L 302.7564 -91.88208 
L 302.4216 -92.09952 
L 302.0868 -92.31696 
L 301.752 -92.5344 
L 301.4172 -92.75184 
L 301.0824 -92.96928 
L 300.7476 -93.18672 
L 300.4128 -93.40416 
L 300.078 -93.6216 
L 299.7432 -93.83904 
L 299.4084 -94.05648 
L 299.0736 -94.27392 
L 298.7388 -94.49136 
L 298.404 -94.7088 
L 298.0692 -94.92624 
L 297.7344 -95.14368 
L 297.3996 -95.36112 
L 297.0648 -95.57856 
L 296.73 -95.796 
L 296.3952 -96.01344 
L 296.0604 -96.23088 
L 295.7256 -96.44832 
L 295.3908 -96.66576 
L 295.056 -96.8832 
L 294.7212 -97.10064 
L 294.3864 -97.31808 
L 294.0516 -97.53552 
L 293.7168 -97.75296 
L 293.382 -97.9704 
L 293.0472 -98.18784 
L 292.7124 -98.40528 
L 292.3776 -98.62272 
L 292.0428 -98.84016 
L 291.708 -99.0576 
L 291.3732 -99.27504 
L 291.0384 -99.49248 
L 290.7036 -99.70992 
L 290.3688 -99.92736 
L 290.034 -100.1448 
L 289.6992 -100.36224 
L 289.3644 -100.57968 
L 289.0296 -100.79712 
L 288.6948 -101.01456 
L 288.36 -101.232 
L 288.0252 -101.44944 
L 287.6904 -101.66688 
L 287.3556 -101.88432 
L 287.0208 -102.10176 
L 286.686 -102.3192 
L 286.3512 -102.53664 
L 286.0164 -102.75408 
L 285.6816 -102.97152 
L 285.3468 -103.18896 
L 285.012 -103.4064 
L 284.6772 -103.62384 
L 284.3424 -103.84128 
L 284.0076 -104.05872 
L 283.6728 -104.27616 
L 283.338 -104.4936 
L 283.0032 -104.71104 
L 282.6684 -104.92848 
L 282.3336 -105.14592 
L 281.9988 -105.36336 
L 281.664 -105.5808 
L 281.3292 -105.79824 
L 280.9944 -106.01568 
L 280.6596 -106.23312 
L 280.3248 -106.45056 
L 279.99 -106.668 
L 279.6552 -106.88544 
L 279.3204 -107.10288 
L 278.9856 -107.32032 
L 278.6508 -107.53776 
L 278.316 -107.7552 
L 277.9812 -107.97264 
L 277.6464 -108.19008 
L 277.3116 -108.40752 
L 276.9768 -108.62496 
L 276.642 -108.8424 
L 276.3072 -109.05984 
L 275.9724 -109.27728 
L 275.6376 -109.49472 
L 275.3028 -109.71216 
L 274.968 -109.9296 
L 274.6332 -110.14704 
L 274.2984 -110.36448 
L 273.9636 -110.58192 
L 273.6288 -110.79936 
L 273.294 -111.0168 
L 272.9592 -111.23424 
L 272.6244 -111.45168 
L 272.2896 -111.66912 
L 271.9548 -111.88656 
L 271.62 -112.104 
L 271.2852 -112.32144 
L 270.9504 -112.53888 
L 270.6156 -112.75632 
L 270.2808 -112.97376 
L 269.946 -113.1912 
L 269.6112 -113.40864 
L 269.2764 -113.62608 
L 268.9416 -113.84352 
L 268.6068 -114.06096 
L 268.272 -114.2784 
L 267.9372 -114.49584 
L 267.6024 -114.71328 
L 267.2676 -114.93072 
L 266.9328 -115.14816 
L 266.598 -115.3656 
L 266.2632 -115.58304 
L 265.9284 -115.80048 
L 265.5936 -116.01792 
L 265.2588 -116.23536 
L 264.924 -116.4528 
L 264.5892 -116.67024 
L 264.2544 -116.88768 
L 263.9196 -117.10512 
L 263.5848 -117.32256 
L 263.25 -117.54 
L 262.9152 -117.75744 
L 262.5804 -117.97488 
L 262.2456 -118.19232 
L 261.9108 -118.40976 
L 261.576 -118.6272 
L 261.2412 -118.84464 
L 260.9064 -119.06208 
L 260.5716 -119.27952 
L 260.2368 -119.49696 
L 259.902 -119.7144 
L 259.5672 -119.93184 
L 259.2324 -120.14928 
L 258.8976 -120.36672 
L 258.5628 -120.58416 
L 258.228 -120.8016 
L 257.8932 -121.01904 
L 257.5584 -121.23648 
L 257.2236 -121.45392 
L 256.8888 -121.67136 
L 256.554 -121.8888 
L 256.2192 -122.10624 
L 255.8844 -122.32368 
L 255.5496 -122.54112 
L 255.2148 -122.75856 
L 254.88 -122.976 
L 254.5452 -123.19344 
L 254.2104 -123.41088 
L 253.8756 -123.62832 
L 253.5408 -123.84576 
L 253.206 -124.0632 
L 252.8712 -124.28064 
L 252.5364 -124.49808 
L 252.2016 -124.71552 
L 251.8668 -124.93296 
L 251.532 -125.1504 
L 251.1972 -125.36784 
L 250.8624 -125.58528 
L 250.5276 -125.80272 
L 250.1928 -126.02016 
L 249.858 -126.2376 
L 249.5232 -126.45504 
L 249.1884 -126.67248 
L 248.8536 -126.88992 
L 248.5188 -127.10736 
L 248.184 -127.3248 
L 247.8492 -127.54224 
L 247.5144 -127.75968 
L 247.1796 -127.97712 
L 246.8448 -128.19456 
L 246.51 -128.412 
L 246.1752 -128.62944 
L 245.8404 -128.84688 
L 245.5056 -129.06432 
L 245.1708 -129.28176 
L 244.836 -129.4992 
L 244.5012 -129.71664 
L 244.1664 -129.93408 
L 243.8316 -130.15152 
L 243.4968 -130.36896 
L 243.162 -130.5864 
L 242.8272 -130.80384 
L 242.4924 -131.02128 
L 242.1576 -131.23872 
L 241.8228 -131.45616 
L 241.488 -131.6736 
L 241.1532 -131.89104 
L 240.8184 -132.10848 
L 240.4836 -132.32592 
L 240.1488 -132.54336 
L 239.814 -132.7608 
L 239.4792 -132.97824 
L 239.1444 -133.19568 
L 238.8096 -133.41312 
L 238.4748 -133.63056 
L 238.14 -133.848 
L 237.8052 -134.06544 
L 237.4704 -134.28288 
L 237.1356 -134.50032 
L 236.8008 -134.71776 
L 236.466 -134.9352 
L 236.1312 -135.15264 
L 235.7964 -135.37008 
L 235.4616 -135.58752 
L 235.1268 -135.80496 
L 234.792 -136.0224 
L 234.4572 -136.23984 
L 234.1224 -136.45728 
L 233.7876 -136.67472 
L 233.4528 -136.89216 
L 233.118 -137.1096 
L 232.7832 -137.32704 
L 232.4484 -137.54448 
L 232.1136 -137.76192 
L 231.7788 -137.97936 
L 231.444 -138.1968 
L 231.1092 -138.41424 
L 230.7744 -138.63168 
L 230.4396 -138.84912 
L 230.1048 -139.06656 
L 229.77 -139.284 
L 229.4352 -139.50144 
L 229.1004 -139.71888 
L 228.7656 -139.93632 
L 228.4308 -140.15376 
L 228.096 -140.3712 
L 227.7612 -140.58864 
L 227.4264 -140.80608 
L 227.0916 -141.02352 
L 226.7568 -141.24096 
L 226.422 -141.4584 
L 226.0872 -141.67584 
L 225.7524 -141.89328 
L 225.4176 -142.11072 
L 225.0828 -142.32816 
L 224.748 -142.5456 
L 224.4132 -142.76304 
L 224.0784 -142.98048 
L 223.7436 -143.19792 
L 223.4088 -143.41536 
L 223.074 -143.6328 
L 222.7392 -143.85024 
L 222.4044 -144.06768 
L 222.0696 -144.28512 
L 221.7348 -144.50256 
L 221.4 -144.72 
L 221.0652 -144.93744 
L 220.7304 -145.15488 
L 220.3956 -145.37232 
L 220.0608 -145.58976 
L 219.726 -145.8072 
L 219.3912 -146.02464 
L 219.0564 -146.24208 
L 218.7216 -146.45952 
L 218.3868 -146.67696 
L 218.052 -146.8944 
L 217.7172 -147.11184 
L 217.3824 -147.32928 
L 217.0476 -147.54672 
L 216.7128 -147.76416 
L 216.378 -147.9816 
L 216.0432 -148.19904 
L 215.7084 -148.41648 
L 215.3736 -148.63392 
L 215.0388 -148.85136 
L 214.704 -149.0688 
L 214.3692 -149.28624 
L 214.0344 -149.50368 
L 213.6996 -149.72112 
L 213.3648 -149.93856 
L 213.03 -150.156 
L 212.6952 -150.37344 
L 212.3604 -150.59088 
L 212.0256 -150.80832 
L 211.6908 -151.02576 
L 211.356 -151.2432 
L 211.0212 -151.46064 
L 210.6864 -151.67808 
L 210.3516 -151.89552 
L 210.0168 -152.11296 
L 209.682 -152.3304 
L 209.3472 -152.54784 
L 209.0124 -152.76528 
L 208.6776 -152.98272 
L 208.3428 -153.20016 
L 208.008 -153.4176 
L 207.6732 -153.63504 
L 207.3384 -153.85248 
L 207.0036 -154.06992 
L 206.6688 -154.28736 
L 206.334 -154.5048 
L 205.9992 -154.72224 
L 205.6644 -154.93968 
L 205.3296 -155.15712 
L 204.9948 -155.37456 
L 204.66 -155.592 
L 204.3252 -155.80944 
L 203.9904 -156.02688 
L 203.6556 -156.24432 
L 203.3208 -156.46176 
L 202.986 -156.6792 
L 202.6512 -156.89664 
L 202.3164 -157.11408 
L 201.9816 -157.33152 
L 201.6468 -157.54896 
L 201.312 -157.7664 
L 200.9772 -157.98384 
L 200.6424 -158.20128 
L 200.3076 -158.41872 
L 199.9728 -158.63616 
L 199.638 -158.8536 
L 199.3032 -159.07104 
L 198.9684 -159.28848 
L 198.6336 -159.50592 
L 198.2988 -159.72336 
L 197.964 -159.9408 
L 197.6292 -160.15824 
L 197.2944 -160.37568 
L 196.9596 -160.59312 
L 196.6248 -160.81056 
L 196.29 -161.028 
L 195.9552 -161.24544 
L 195.6204 -161.46288 
L 195.2856 -161.68032 
L 194.9508 -161.89776 
L 194.616 -162.1152 
L 194.2812 -162.33264 
L 193.9464 -162.55008 
L 193.6116 -162.76752 
L 193.2768 -162.98496 
L 192.942 -163.2024 
L 192.6072 -163.41984 
L 192.2724 -163.63728 
L 191.9376 -163.85472 
L 191.6028 -164.07216 
L 191.268 -164.2896 
L 190.9332 -164.50704 
L 190.5984 -164.72448 
L 190.2636 -164.94192 
L 189.9288 -165.15936 
L 189.594 -165.3768 
L 189.2592 -165.59424 
L 188.9244 -165.81168 
L 188.5896 -166.02912 
L 188.2548 -166.24656 
L 187.92 -166.464 
L 187.5852 -166.68144 
L 187.2504 -166.89888 
L 186.9156 -167.11632 
L 186.5808 -167.33376 
L 186.246 -167.5512 
L 185.9112 -167.76864 
L 185.5764 -167.98608 
L 185.2416 -168.20352 
L 184.9068 -168.42096 
L 184.572 -168.6384 
L 184.2372 -168.85584 
L 183.9024 -169.07328 
L 183.5676 -169.29072 
L 183.2328 -169.50816 
L 182.898 -169.7256 
L 182.5632 -169.94304 
L 182.2284 -170.16048 
L 181.8936 -170.37792 
L 181.5588 -170.59536 
L 181.224 -170.8128 
L 180.8892 -171.03024 
L 180.5544 -171.24768 
L 180.2196 -171.46512 
L 179.8848 -171.68256 
L 179.55 -171.9 
L 179.2152 -172.11744 
L 178.8804 -172.33488 
L 178.5456 -172.55232 
L 178.2108 -172.76976 
L 177.876 -172.9872 
L 177.5412 -173.20464 
L 177.2064 -173.42208 
L 176.8716 -173.63952 
L 176.5368 -173.85696 
L 176.202 -174.0744 
L 175.8672 -174.29184 
L 175.5324 -174.50928 
L 175.1976 -174.72672 
L 174.8628 -174.94416 
L 174.528 -175.1616 
L 174.1932 -175.37904 
L 173.8584 -175.59648 
L 173.5236 -175.81392 
L 173.1888 -176.03136 
L 172.854 -176.2488 
L 172.5192 -176.46624 
L 172.1844 -176.68368 
L 171.8496 -176.90112 
L 171.5148 -177.11856 
L 171.18 -177.336 
L 170.8452 -177.55344 
L 170.5104 -177.77088 
L 170.1756 -177.98832 
L 169.8408 -178.20576 
L 169.506 -178.4232 
L 169.1712 -178.64064 
L 168.8364 -178.85808 
L 168.5016 -179.07552 
L 168.1668 -179.29296 
L 167.832 -179.5104 
L 167.4972 -179.72784 
L 167.1624 -179.94528 
L 166.8276 -180.16272 
L 166.4928 -180.38016 
L 166.158 -180.5976 
L 165.8232 -180.81504 
L 165.4884 -181.03248 
L 165.1536 -181.24992 
L 164.8188 -181.46736 
L 164.484 -181.6848 
L 164.1492 -181.90224 
L 163.8144 -182.11968 
L 163.4796 -182.33712 
L 163.1448 -182.55456 
L 162.81 -182.772 
L 162.4752 -182.98944 
L 162.1404 -183.20688 
L 161.8056 -183.42432 
L 161.4708 -183.64176 
L 161.136 -183.8592 
L 160.8012 -184.07664 
L 160.4664 -184.29408 
L 160.1316 -184.51152 
L 159.7968 -184.72896 
L 159.462 -184.9464 
L 159.1272 -185.16384 
L 158.7924 -185.38128 
L 158.4576 -185.59872 
L 158.1228 -185.81616 
L 157.788 -186.0336 
L 157.4532 -186.25104 
L 157.1184 -186.46848 
L 156.7836 -186.68592 
L 156.4488 -186.90336 
L 156.114 -187.1208 
L 155.7792 -187.33824 
L 155.4444 -187.55568 
L 155.1096 -187.77312 
L 154.7748 -187.99056 
L 154.44 -188.208 
L 154.1052 -188.42544 
L 153.7704 -188.64288 
L 153.4356 -188.86032 
L 153.1008 -189.07776 
L 152.766 -189.2952 
L 152.4312 -189.51264 
L 152.0964 -189.73008 
L 151.7616 -189.94752 
L 151.4268 -190.16496 
L 151.092 -190.3824 
L 150.7572 -190.59984 
L 150.4224 -190.81728 
L 150.0876 -191.03472 
L 149.7528 -191.25216 
L 149.418 -191.4696 
L 149.0832 -191.68704 
L 148.7484 -191.90448 
L 148.4136 -192.12192 
L 148.0788 -192.33936 
L 147.744 -192.5568 
L 147.4092 -192.77424 
L 147.0744 -192.99168 
L 146.7396 -193.20912 
L 146.4048 -193.42656 
L 146.07 -193.644 
L 145.7352 -193.86144 
L 145.4004 -194.07888 
L 145.0656 -194.29632 
L 144.7308 -194.51376 
L 144.396 -194.7312 
L 144.0612 -194.94864 
L 143.7264 -195.16608 
L 143.3916 -195.38352 
L 143.0568 -195.60096 
L 142.722 -195.8184 
L 142.3872 -196.03584 
L 142.0524 -196.25328 
L 141.7176 -196.47072 
L 141.3828 -196.68816 
L 141.048 -196.9056 
L 140.7132 -197.12304 
L 140.3784 -197.34048 
L 140.0436 -197.55792 
L 139.7088 -197.77536 
L 139.374 -197.9928 
L 139.0392 -198.21024 
L 138.7044 -198.42768 
L 138.3696 -198.64512 
L 138.0348 -198.86256 
L 137.7 -199.08 
L 137.3652 -199.29744 
L 137.0304 -199.51488 
L 136.6956 -199.73232 
L 136.3608 -199.94976 
L 136.026 -200.1672 
L 135.6912 -200.38464 
L 135.3564 -200.60208 
L 135.0216 -200.81952 
L 134.6868 -201.03696 
L 134.352 -201.2544 
L 134.0172 -201.47184 
L 133.6824 -201.68928 
L 133.3476 -201.90672 
L 133.0128 -202.12416 
L 132.678 -202.3416 
L 132.3432 -202.55904 
L 132.0084 -202.77648 
L 131.6736 -202.99392 
L 131.3388 -203.21136 
L 131.004 -203.4288 
L 130.6692 -203.64624 
L 130.3344 -203.86368 
L 129.9996 -204.08112 
L 129.6648 -204.29856 
L 129.33 -204.516 
L 128.9952 -204.73344 
L 128.6604 -204.95088 
L 128.3256 -205.16832 
L 127.9908 -205.38576 
L 127.656 -205.6032 
L 127.3212 -205.82064 
L 126.9864 -206.03808 
L 126.6516 -206.25552 
L 126.3168 -206.47296 
L 125.982 -206.6904 
L 125.6472 -206.90784 
L 125.3124 -207.12528 
L 124.9776 -207.34272 
L 124.6428 -207.56016 
L 124.308 -207.7776 
L 123.9732 -207.99504 
L 123.6384 -208.21248 
L 123.3036 -208.42992 
L 122.9688 -208.64736 
L 122.634 -208.8648 
L 122.2992 -209.08224 
L 121.9644 -209.29968 
L 121.6296 -209.51712 
L 121.2948 -209.73456 
L 120.96 -209.952 
z
" id="m4d9e49de9e" style="stroke:#d3d3d3;"/>
    </defs>
    <g clip-path="url(#pe629a1a858)">
     <use style="fill:#d3d3d3;stroke:#d3d3d3;" x="0" xlink:href="#m4d9e49de9e" y="288"/>
    </g>
   </g>
   <g id="matplotlib.axis_1">
    <g id="xtick_1">
     <g id="line2d_1">
      <path clip-path="url(#pe629a1a858)" d="M 54 252 
L 54 34.56 
" style="fill:none;stroke:#b0b0b0;stroke-linecap:square;stroke-width:0.8;"/>
     </g>
     <g id="line2d_2">
      <defs>
       <path d="M 0 0 
L 0 -3.5 
" id="m823f765b9a" style="stroke:#000000;stroke-width:0.8;"/>
      </defs>
      <g>
       <use style="stroke:#000000;stroke-width:0.8;" x="54" xlink:href="#m823f765b9a" y="34.56"/>
      </g>
     </g>
     <g id="text_1">
      <!-- 0 -->
      <defs>
       <path d="M 31.78125 66.40625 
Q 24.171875 66.40625 20.328125 58.90625 
Q 16.5 51.421875 16.5 36.375 
Q 16.5 21.390625 20.328125 13.890625 
Q 24.171875 6.390625 31.78125 6.390625 
Q 39.453125 6.390625 43.28125 13.890625 
Q 47.125 21.390625 47.125 36.375 
Q 47.125 51.421875 43.28125 58.90625 
Q 39.453125 66.40625 31.78125 66.40625 
z
M 31.78125 74.21875 
Q 44.046875 74.21875 50.515625 64.515625 
Q 56.984375 54.828125 56.984375 36.375 
Q 56.984375 17.96875 50.515625 8.265625 
Q 44.046875 -1.421875 31.78125 -1.421875 
Q 19.53125 -1.421875 13.0625 8.265625 
Q 6.59375 17.96875 6.59375 36.375 
Q 6.59375 54.828125 13.0625 64.515625 
Q 19.53125 74.21875 31.78125 74.21875 
z
" id="DejaVuSans-30"/>
      </defs>
      <g transform="translate(50.81875 25.480313)scale(0.1 -0.1)">
       <use xlink:href="#DejaVuSans-30"/>
      </g>
     </g>
    </g>
    <g id="xtick_2">
     <g id="line2d_3">
      <path clip-path="url(#pe629a1a858)" d="M 120.96 252 
L 120.96 34.56 
" style="fill:none;stroke:#b0b0b0;stroke-linecap:square;stroke-width:0.8;"/>
     </g>
     <g id="line2d_4">
      <g>
       <use style="stroke:#000000;stroke-width:0.8;" x="120.96" xlink:href="#m823f765b9a" y="34.56"/>
      </g>
     </g>
     <g id="text_2">
      <!-- $x_0$ -->
      <defs>
       <path d="M 60.015625 54.6875 
L 34.90625 27.875 
L 50.296875 0 
L 39.984375 0 
L 28.421875 21.6875 
L 8.296875 0 
L -2.59375 0 
L 24.3125 28.8125 
L 10.015625 54.6875 
L 20.3125 54.6875 
L 30.8125 34.90625 
L 49.125 54.6875 
z
" id="DejaVuSans-Oblique-78"/>
      </defs>
      <g transform="translate(115.61 25.480313)scale(0.1 -0.1)">
       <use transform="translate(0 0.3125)" xlink:href="#DejaVuSans-Oblique-78"/>
       <use transform="translate(59.179688 -16.09375)scale(0.7)" xlink:href="#DejaVuSans-30"/>
      </g>
     </g>
    </g>
    <g id="xtick_3">
     <g id="line2d_5">
      <path clip-path="url(#pe629a1a858)" d="M 321.84 252 
L 321.84 34.56 
" style="fill:none;stroke:#b0b0b0;stroke-linecap:square;stroke-width:0.8;"/>
     </g>
     <g id="line2d_6">
      <g>
       <use style="stroke:#000000;stroke-width:0.8;" x="321.84" xlink:href="#m823f765b9a" y="34.56"/>
      </g>
     </g>
     <g id="text_3">
      <!-- $x$ -->
      <g transform="translate(318.84 25.480313)scale(0.1 -0.1)">
       <use transform="translate(0 0.3125)" xlink:href="#DejaVuSans-Oblique-78"/>
      </g>
     </g>
    </g>
    <g id="text_4">
     <!-- Posició -->
     <defs>
      <path d="M 19.671875 64.796875 
L 19.671875 37.40625 
L 32.078125 37.40625 
Q 38.96875 37.40625 42.71875 40.96875 
Q 46.484375 44.53125 46.484375 51.125 
Q 46.484375 57.671875 42.71875 61.234375 
Q 38.96875 64.796875 32.078125 64.796875 
z
M 9.8125 72.90625 
L 32.078125 72.90625 
Q 44.34375 72.90625 50.609375 67.359375 
Q 56.890625 61.8125 56.890625 51.125 
Q 56.890625 40.328125 50.609375 34.8125 
Q 44.34375 29.296875 32.078125 29.296875 
L 19.671875 29.296875 
L 19.671875 0 
L 9.8125 0 
z
" id="DejaVuSans-50"/>
      <path d="M 30.609375 48.390625 
Q 23.390625 48.390625 19.1875 42.75 
Q 14.984375 37.109375 14.984375 27.296875 
Q 14.984375 17.484375 19.15625 11.84375 
Q 23.34375 6.203125 30.609375 6.203125 
Q 37.796875 6.203125 41.984375 11.859375 
Q 46.1875 17.53125 46.1875 27.296875 
Q 46.1875 37.015625 41.984375 42.703125 
Q 37.796875 48.390625 30.609375 48.390625 
z
M 30.609375 56 
Q 42.328125 56 49.015625 48.375 
Q 55.71875 40.765625 55.71875 27.296875 
Q 55.71875 13.875 49.015625 6.21875 
Q 42.328125 -1.421875 30.609375 -1.421875 
Q 18.84375 -1.421875 12.171875 6.21875 
Q 5.515625 13.875 5.515625 27.296875 
Q 5.515625 40.765625 12.171875 48.375 
Q 18.84375 56 30.609375 56 
z
" id="DejaVuSans-6f"/>
      <path d="M 44.28125 53.078125 
L 44.28125 44.578125 
Q 40.484375 46.53125 36.375 47.5 
Q 32.28125 48.484375 27.875 48.484375 
Q 21.1875 48.484375 17.84375 46.4375 
Q 14.5 44.390625 14.5 40.28125 
Q 14.5 37.15625 16.890625 35.375 
Q 19.28125 33.59375 26.515625 31.984375 
L 29.59375 31.296875 
Q 39.15625 29.25 43.1875 25.515625 
Q 47.21875 21.78125 47.21875 15.09375 
Q 47.21875 7.46875 41.1875 3.015625 
Q 35.15625 -1.421875 24.609375 -1.421875 
Q 20.21875 -1.421875 15.453125 -0.5625 
Q 10.6875 0.296875 5.421875 2 
L 5.421875 11.28125 
Q 10.40625 8.6875 15.234375 7.390625 
Q 20.0625 6.109375 24.8125 6.109375 
Q 31.15625 6.109375 34.5625 8.28125 
Q 37.984375 10.453125 37.984375 14.40625 
Q 37.984375 18.0625 35.515625 20.015625 
Q 33.0625 21.96875 24.703125 23.78125 
L 21.578125 24.515625 
Q 13.234375 26.265625 9.515625 29.90625 
Q 5.8125 33.546875 5.8125 39.890625 
Q 5.8125 47.609375 11.28125 51.796875 
Q 16.75 56 26.8125 56 
Q 31.78125 56 36.171875 55.265625 
Q 40.578125 54.546875 44.28125 53.078125 
z
" id="DejaVuSans-73"/>
      <path d="M 9.421875 54.6875 
L 18.40625 54.6875 
L 18.40625 0 
L 9.421875 0 
z
M 9.421875 75.984375 
L 18.40625 75.984375 
L 18.40625 64.59375 
L 9.421875 64.59375 
z
" id="DejaVuSans-69"/>
      <path d="M 48.78125 52.59375 
L 48.78125 44.1875 
Q 44.96875 46.296875 41.140625 47.34375 
Q 37.3125 48.390625 33.40625 48.390625 
Q 24.65625 48.390625 19.8125 42.84375 
Q 14.984375 37.3125 14.984375 27.296875 
Q 14.984375 17.28125 19.8125 11.734375 
Q 24.65625 6.203125 33.40625 6.203125 
Q 37.3125 6.203125 41.140625 7.25 
Q 44.96875 8.296875 48.78125 10.40625 
L 48.78125 2.09375 
Q 45.015625 0.34375 40.984375 -0.53125 
Q 36.96875 -1.421875 32.421875 -1.421875 
Q 20.0625 -1.421875 12.78125 6.34375 
Q 5.515625 14.109375 5.515625 27.296875 
Q 5.515625 40.671875 12.859375 48.328125 
Q 20.21875 56 33.015625 56 
Q 37.15625 56 41.109375 55.140625 
Q 45.0625 54.296875 48.78125 52.59375 
z
" id="DejaVuSans-63"/>
      <path d="M 30.609375 48.390625 
Q 23.390625 48.390625 19.1875 42.75 
Q 14.984375 37.109375 14.984375 27.296875 
Q 14.984375 17.484375 19.15625 11.84375 
Q 23.34375 6.203125 30.609375 6.203125 
Q 37.796875 6.203125 41.984375 11.859375 
Q 46.1875 17.53125 46.1875 27.296875 
Q 46.1875 37.015625 41.984375 42.703125 
Q 37.796875 48.390625 30.609375 48.390625 
z
M 30.609375 56 
Q 42.328125 56 49.015625 48.375 
Q 55.71875 40.765625 55.71875 27.296875 
Q 55.71875 13.875 49.015625 6.21875 
Q 42.328125 -1.421875 30.609375 -1.421875 
Q 18.84375 -1.421875 12.171875 6.21875 
Q 5.515625 13.875 5.515625 27.296875 
Q 5.515625 40.765625 12.171875 48.375 
Q 18.84375 56 30.609375 56 
z
M 37.40625 79.984375 
L 47.125 79.984375 
L 31.21875 61.625 
L 23.734375 61.625 
z
" id="DejaVuSans-f3"/>
     </defs>
     <g transform="translate(204.136719 13.881875)scale(0.1 -0.1)">
      <use xlink:href="#DejaVuSans-50"/>
      <use x="60.255859" xlink:href="#DejaVuSans-6f"/>
      <use x="121.4375" xlink:href="#DejaVuSans-73"/>
      <use x="173.537109" xlink:href="#DejaVuSans-69"/>
      <use x="201.320312" xlink:href="#DejaVuSans-63"/>
      <use x="256.300781" xlink:href="#DejaVuSans-69"/>
      <use x="284.083984" xlink:href="#DejaVuSans-f3"/>
     </g>
    </g>
   </g>
   <g id="matplotlib.axis_2">
    <g id="ytick_1">
     <g id="line2d_7">
      <path clip-path="url(#pe629a1a858)" d="M 54 34.56 
L 388.8 34.56 
" style="fill:none;stroke:#b0b0b0;stroke-linecap:square;stroke-width:0.8;"/>
     </g>
     <g id="line2d_8">
      <defs>
       <path d="M 0 0 
L -3.5 0 
" id="m0195507ec6" style="stroke:#000000;stroke-width:0.8;"/>
      </defs>
      <g>
       <use style="stroke:#000000;stroke-width:0.8;" x="54" xlink:href="#m0195507ec6" y="34.56"/>
      </g>
     </g>
     <g id="text_5">
      <!-- 0 -->
      <g transform="translate(40.6375 38.359219)scale(0.1 -0.1)">
       <use xlink:href="#DejaVuSans-30"/>
      </g>
     </g>
    </g>
    <g id="ytick_2">
     <g id="line2d_9">
      <path clip-path="url(#pe629a1a858)" d="M 54 78.048 
L 388.8 78.048 
" style="fill:none;stroke:#b0b0b0;stroke-linecap:square;stroke-width:0.8;"/>
     </g>
     <g id="line2d_10">
      <g>
       <use style="stroke:#000000;stroke-width:0.8;" x="54" xlink:href="#m0195507ec6" y="78.048"/>
      </g>
     </g>
     <g id="text_6">
      <!-- $-kx_0$ -->
      <defs>
       <path d="M 10.59375 35.5 
L 73.1875 35.5 
L 73.1875 27.203125 
L 10.59375 27.203125 
z
" id="DejaVuSans-2212"/>
       <path d="M 18.3125 75.984375 
L 27.296875 75.984375 
L 18.703125 31.6875 
L 49.515625 54.6875 
L 61.1875 54.6875 
L 26.8125 28.515625 
L 51.90625 0 
L 41.015625 0 
L 17.671875 26.703125 
L 12.5 0 
L 3.515625 0 
z
" id="DejaVuSans-Oblique-6b"/>
      </defs>
      <g transform="translate(22.1 81.847219)scale(0.1 -0.1)">
       <use transform="translate(0 0.015625)" xlink:href="#DejaVuSans-2212"/>
       <use transform="translate(83.789062 0.015625)" xlink:href="#DejaVuSans-Oblique-6b"/>
       <use transform="translate(141.699219 0.015625)" xlink:href="#DejaVuSans-Oblique-78"/>
       <use transform="translate(200.878906 -16.390625)scale(0.7)" xlink:href="#DejaVuSans-30"/>
      </g>
     </g>
    </g>
    <g id="ytick_3">
     <g id="line2d_11">
      <path clip-path="url(#pe629a1a858)" d="M 54 208.512 
L 388.8 208.512 
" style="fill:none;stroke:#b0b0b0;stroke-linecap:square;stroke-width:0.8;"/>
     </g>
     <g id="line2d_12">
      <g>
       <use style="stroke:#000000;stroke-width:0.8;" x="54" xlink:href="#m0195507ec6" y="208.512"/>
      </g>
     </g>
     <g id="text_7">
      <!-- $-kx$ -->
      <g transform="translate(26.9 212.311219)scale(0.1 -0.1)">
       <use transform="translate(0 0.015625)" xlink:href="#DejaVuSans-2212"/>
       <use transform="translate(83.789062 0.015625)" xlink:href="#DejaVuSans-Oblique-6b"/>
       <use transform="translate(141.699219 0.015625)" xlink:href="#DejaVuSans-Oblique-78"/>
      </g>
     </g>
    </g>
    <g id="text_8">
     <!-- Força elàstica -->
     <defs>
      <path d="M 9.8125 72.90625 
L 51.703125 72.90625 
L 51.703125 64.59375 
L 19.671875 64.59375 
L 19.671875 43.109375 
L 48.578125 43.109375 
L 48.578125 34.8125 
L 19.671875 34.8125 
L 19.671875 0 
L 9.8125 0 
z
" id="DejaVuSans-46"/>
      <path d="M 41.109375 46.296875 
Q 39.59375 47.171875 37.8125 47.578125 
Q 36.03125 48 33.890625 48 
Q 26.265625 48 22.1875 43.046875 
Q 18.109375 38.09375 18.109375 28.8125 
L 18.109375 0 
L 9.078125 0 
L 9.078125 54.6875 
L 18.109375 54.6875 
L 18.109375 46.1875 
Q 20.953125 51.171875 25.484375 53.578125 
Q 30.03125 56 36.53125 56 
Q 37.453125 56 38.578125 55.875 
Q 39.703125 55.765625 41.0625 55.515625 
z
" id="DejaVuSans-72"/>
      <path d="M 48.78125 52.59375 
L 48.78125 44.1875 
Q 44.96875 46.296875 41.140625 47.34375 
Q 37.3125 48.390625 33.40625 48.390625 
Q 24.65625 48.390625 19.8125 42.84375 
Q 14.984375 37.3125 14.984375 27.296875 
Q 14.984375 17.28125 19.8125 11.734375 
Q 24.65625 6.203125 33.40625 6.203125 
Q 37.3125 6.203125 41.140625 7.25 
Q 44.96875 8.296875 48.78125 10.40625 
L 48.78125 2.09375 
Q 45.015625 0.34375 40.984375 -0.53125 
Q 36.96875 -1.421875 32.421875 -1.421875 
Q 20.0625 -1.421875 12.78125 6.34375 
Q 5.515625 14.109375 5.515625 27.296875 
Q 5.515625 40.671875 12.859375 48.328125 
Q 20.21875 56 33.015625 56 
Q 37.15625 56 41.109375 55.140625 
Q 45.0625 54.296875 48.78125 52.59375 
z
M 36.109375 0 
Q 38.78125 -3.03125 40.09375 -5.59375 
Q 41.421875 -8.15625 41.421875 -10.5 
Q 41.421875 -14.84375 38.484375 -17.0625 
Q 35.5625 -19.28125 29.796875 -19.28125 
Q 27.5625 -19.28125 25.4375 -18.984375 
Q 23.3125 -18.703125 21.203125 -18.109375 
L 21.203125 -11.71875 
Q 22.875 -12.546875 24.671875 -12.90625 
Q 26.484375 -13.28125 28.78125 -13.28125 
Q 31.65625 -13.28125 33.125 -12.109375 
Q 34.59375 -10.9375 34.59375 -8.6875 
Q 34.59375 -7.234375 33.53125 -5.109375 
Q 32.484375 -2.984375 30.296875 0 
z
" id="DejaVuSans-e7"/>
      <path d="M 34.28125 27.484375 
Q 23.390625 27.484375 19.1875 25 
Q 14.984375 22.515625 14.984375 16.5 
Q 14.984375 11.71875 18.140625 8.90625 
Q 21.296875 6.109375 26.703125 6.109375 
Q 34.1875 6.109375 38.703125 11.40625 
Q 43.21875 16.703125 43.21875 25.484375 
L 43.21875 27.484375 
z
M 52.203125 31.203125 
L 52.203125 0 
L 43.21875 0 
L 43.21875 8.296875 
Q 40.140625 3.328125 35.546875 0.953125 
Q 30.953125 -1.421875 24.3125 -1.421875 
Q 15.921875 -1.421875 10.953125 3.296875 
Q 6 8.015625 6 15.921875 
Q 6 25.140625 12.171875 29.828125 
Q 18.359375 34.515625 30.609375 34.515625 
L 43.21875 34.515625 
L 43.21875 35.40625 
Q 43.21875 41.609375 39.140625 45 
Q 35.0625 48.390625 27.6875 48.390625 
Q 23 48.390625 18.546875 47.265625 
Q 14.109375 46.140625 10.015625 43.890625 
L 10.015625 52.203125 
Q 14.9375 54.109375 19.578125 55.046875 
Q 24.21875 56 28.609375 56 
Q 40.484375 56 46.34375 49.84375 
Q 52.203125 43.703125 52.203125 31.203125 
z
" id="DejaVuSans-61"/>
      <path id="DejaVuSans-20"/>
      <path d="M 56.203125 29.59375 
L 56.203125 25.203125 
L 14.890625 25.203125 
Q 15.484375 15.921875 20.484375 11.0625 
Q 25.484375 6.203125 34.421875 6.203125 
Q 39.59375 6.203125 44.453125 7.46875 
Q 49.3125 8.734375 54.109375 11.28125 
L 54.109375 2.78125 
Q 49.265625 0.734375 44.1875 -0.34375 
Q 39.109375 -1.421875 33.890625 -1.421875 
Q 20.796875 -1.421875 13.15625 6.1875 
Q 5.515625 13.8125 5.515625 26.8125 
Q 5.515625 40.234375 12.765625 48.109375 
Q 20.015625 56 32.328125 56 
Q 43.359375 56 49.78125 48.890625 
Q 56.203125 41.796875 56.203125 29.59375 
z
M 47.21875 32.234375 
Q 47.125 39.59375 43.09375 43.984375 
Q 39.0625 48.390625 32.421875 48.390625 
Q 24.90625 48.390625 20.390625 44.140625 
Q 15.875 39.890625 15.1875 32.171875 
z
" id="DejaVuSans-65"/>
      <path d="M 9.421875 75.984375 
L 18.40625 75.984375 
L 18.40625 0 
L 9.421875 0 
z
" id="DejaVuSans-6c"/>
      <path d="M 34.28125 27.484375 
Q 23.390625 27.484375 19.1875 25 
Q 14.984375 22.515625 14.984375 16.5 
Q 14.984375 11.71875 18.140625 8.90625 
Q 21.296875 6.109375 26.703125 6.109375 
Q 34.1875 6.109375 38.703125 11.40625 
Q 43.21875 16.703125 43.21875 25.484375 
L 43.21875 27.484375 
z
M 52.203125 31.203125 
L 52.203125 0 
L 43.21875 0 
L 43.21875 8.296875 
Q 40.140625 3.328125 35.546875 0.953125 
Q 30.953125 -1.421875 24.3125 -1.421875 
Q 15.921875 -1.421875 10.953125 3.296875 
Q 6 8.015625 6 15.921875 
Q 6 25.140625 12.171875 29.828125 
Q 18.359375 34.515625 30.609375 34.515625 
L 43.21875 34.515625 
L 43.21875 35.40625 
Q 43.21875 41.609375 39.140625 45 
Q 35.0625 48.390625 27.6875 48.390625 
Q 23 48.390625 18.546875 47.265625 
Q 14.109375 46.140625 10.015625 43.890625 
L 10.015625 52.203125 
Q 14.9375 54.109375 19.578125 55.046875 
Q 24.21875 56 28.609375 56 
Q 40.484375 56 46.34375 49.84375 
Q 52.203125 43.703125 52.203125 31.203125 
z
M 21.921875 79.984375 
L 35.6875 61.71875 
L 28.21875 61.71875 
L 12.296875 79.984375 
z
" id="DejaVuSans-e0"/>
      <path d="M 18.3125 70.21875 
L 18.3125 54.6875 
L 36.8125 54.6875 
L 36.8125 47.703125 
L 18.3125 47.703125 
L 18.3125 18.015625 
Q 18.3125 11.328125 20.140625 9.421875 
Q 21.96875 7.515625 27.59375 7.515625 
L 36.8125 7.515625 
L 36.8125 0 
L 27.59375 0 
Q 17.1875 0 13.234375 3.875 
Q 9.28125 7.765625 9.28125 18.015625 
L 9.28125 47.703125 
L 2.6875 47.703125 
L 2.6875 54.6875 
L 9.28125 54.6875 
L 9.28125 70.21875 
z
" id="DejaVuSans-74"/>
     </defs>
     <g transform="translate(16.020312 177.965937)rotate(-90)scale(0.1 -0.1)">
      <use xlink:href="#DejaVuSans-46"/>
      <use x="57.472656" xlink:href="#DejaVuSans-6f"/>
      <use x="118.654297" xlink:href="#DejaVuSans-72"/>
      <use x="159.736328" xlink:href="#DejaVuSans-e7"/>
      <use x="214.716797" xlink:href="#DejaVuSans-61"/>
      <use x="275.996094" xlink:href="#DejaVuSans-20"/>
      <use x="307.783203" xlink:href="#DejaVuSans-65"/>
      <use x="369.306641" xlink:href="#DejaVuSans-6c"/>
      <use x="397.089844" xlink:href="#DejaVuSans-e0"/>
      <use x="458.369141" xlink:href="#DejaVuSans-73"/>
      <use x="510.46875" xlink:href="#DejaVuSans-74"/>
      <use x="549.677734" xlink:href="#DejaVuSans-69"/>
      <use x="577.460938" xlink:href="#DejaVuSans-63"/>
      <use x="632.441406" xlink:href="#DejaVuSans-61"/>
     </g>
    </g>
   </g>
   <g id="line2d_13">
    <path clip-path="url(#pe629a1a858)" d="M 54 34.56 
L 388.4652 251.78256 
L 388.4652 251.78256 
" style="fill:none;stroke:#ff0000;stroke-linecap:square;stroke-width:2;"/>
   </g>
   <g id="patch_3">
    <path d="M 54 252 
L 54 34.56 
" style="fill:none;stroke:#000000;stroke-linecap:square;stroke-linejoin:miter;stroke-width:0.8;"/>
   </g>
   <g id="patch_4">
    <path d="M 388.8 252 
L 388.8 34.56 
" style="fill:none;stroke:#000000;stroke-linecap:square;stroke-linejoin:miter;stroke-width:0.8;"/>
   </g>
   <g id="patch_5">
    <path d="M 54 252 
L 388.8 252 
" style="fill:none;stroke:#000000;stroke-linecap:square;stroke-linejoin:miter;stroke-width:0.8;"/>
   </g>
   <g id="patch_6">
    <path d="M 54 34.56 
L 388.8 34.56 
" style="fill:none;stroke:#000000;stroke-linecap:square;stroke-linejoin:miter;stroke-width:0.8;"/>
   </g>
  </g>
 </g>
 <defs>
  <clipPath id="pe629a1a858">
   <rect height="217.44" width="334.8" x="54" y="34.56"/>
  </clipPath>
 </defs>
</svg>
