<?xml version="1.0" encoding="utf-8" standalone="no"?>
<!DOCTYPE svg PUBLIC "-//W3C//DTD SVG 1.1//EN"
  "http://www.w3.org/Graphics/SVG/1.1/DTD/svg11.dtd">
<!-- Created with matplotlib (http://matplotlib.org/) -->
<svg height="288pt" version="1.1" viewBox="0 0 432 288" width="432pt" xmlns="http://www.w3.org/2000/svg" xmlns:xlink="http://www.w3.org/1999/xlink">
 <defs>
  <style type="text/css">
*{stroke-linecap:butt;stroke-linejoin:round;}
  </style>
 </defs>
 <g id="figure_1">
  <g id="patch_1">
   <path d="M 0 288 
L 432 288 
L 432 0 
L 0 0 
z
" style="fill:#ffffff;"/>
  </g>
  <g id="axes_1">
   <g id="patch_2">
    <path d="M 54 252 
L 388.8 252 
L 388.8 34.56 
L 54 34.56 
z
" style="fill:#ffffff;"/>
   </g>
   <g id="PolyCollection_1">
    <defs>
     <path d="M 120.96 -122.976 
L 120.96 -36 
L 121.2948 -36 
L 121.6296 -36 
L 121.9644 -36 
L 122.2992 -36 
L 122.634 -36 
L 122.9688 -36 
L 123.3036 -36 
L 123.6384 -36 
L 123.9732 -36 
L 124.308 -36 
L 124.6428 -36 
L 124.9776 -36 
L 125.3124 -36 
L 125.6472 -36 
L 125.982 -36 
L 126.3168 -36 
L 126.6516 -36 
L 126.9864 -36 
L 127.3212 -36 
L 127.656 -36 
L 127.9908 -36 
L 128.3256 -36 
L 128.6604 -36 
L 128.9952 -36 
L 129.33 -36 
L 129.6648 -36 
L 129.9996 -36 
L 130.3344 -36 
L 130.6692 -36 
L 131.004 -36 
L 131.3388 -36 
L 131.6736 -36 
L 132.0084 -36 
L 132.3432 -36 
L 132.678 -36 
L 133.0128 -36 
L 133.3476 -36 
L 133.6824 -36 
L 134.0172 -36 
L 134.352 -36 
L 134.6868 -36 
L 135.0216 -36 
L 135.3564 -36 
L 135.6912 -36 
L 136.026 -36 
L 136.3608 -36 
L 136.6956 -36 
L 137.0304 -36 
L 137.3652 -36 
L 137.7 -36 
L 138.0348 -36 
L 138.3696 -36 
L 138.7044 -36 
L 139.0392 -36 
L 139.374 -36 
L 139.7088 -36 
L 140.0436 -36 
L 140.3784 -36 
L 140.7132 -36 
L 141.048 -36 
L 141.3828 -36 
L 141.7176 -36 
L 142.0524 -36 
L 142.3872 -36 
L 142.722 -36 
L 143.0568 -36 
L 143.3916 -36 
L 143.7264 -36 
L 144.0612 -36 
L 144.396 -36 
L 144.7308 -36 
L 145.0656 -36 
L 145.4004 -36 
L 145.7352 -36 
L 146.07 -36 
L 146.4048 -36 
L 146.7396 -36 
L 147.0744 -36 
L 147.4092 -36 
L 147.744 -36 
L 148.0788 -36 
L 148.4136 -36 
L 148.7484 -36 
L 149.0832 -36 
L 149.418 -36 
L 149.7528 -36 
L 150.0876 -36 
L 150.4224 -36 
L 150.7572 -36 
L 151.092 -36 
L 151.4268 -36 
L 151.7616 -36 
L 152.0964 -36 
L 152.4312 -36 
L 152.766 -36 
L 153.1008 -36 
L 153.4356 -36 
L 153.7704 -36 
L 154.1052 -36 
L 154.44 -36 
L 154.7748 -36 
L 155.1096 -36 
L 155.4444 -36 
L 155.7792 -36 
L 156.114 -36 
L 156.4488 -36 
L 156.7836 -36 
L 157.1184 -36 
L 157.4532 -36 
L 157.788 -36 
L 158.1228 -36 
L 158.4576 -36 
L 158.7924 -36 
L 159.1272 -36 
L 159.462 -36 
L 159.7968 -36 
L 160.1316 -36 
L 160.4664 -36 
L 160.8012 -36 
L 161.136 -36 
L 161.4708 -36 
L 161.8056 -36 
L 162.1404 -36 
L 162.4752 -36 
L 162.81 -36 
L 163.1448 -36 
L 163.4796 -36 
L 163.8144 -36 
L 164.1492 -36 
L 164.484 -36 
L 164.8188 -36 
L 165.1536 -36 
L 165.4884 -36 
L 165.8232 -36 
L 166.158 -36 
L 166.4928 -36 
L 166.8276 -36 
L 167.1624 -36 
L 167.4972 -36 
L 167.832 -36 
L 168.1668 -36 
L 168.5016 -36 
L 168.8364 -36 
L 169.1712 -36 
L 169.506 -36 
L 169.8408 -36 
L 170.1756 -36 
L 170.5104 -36 
L 170.8452 -36 
L 171.18 -36 
L 171.5148 -36 
L 171.8496 -36 
L 172.1844 -36 
L 172.5192 -36 
L 172.854 -36 
L 173.1888 -36 
L 173.5236 -36 
L 173.8584 -36 
L 174.1932 -36 
L 174.528 -36 
L 174.8628 -36 
L 175.1976 -36 
L 175.5324 -36 
L 175.8672 -36 
L 176.202 -36 
L 176.5368 -36 
L 176.8716 -36 
L 177.2064 -36 
L 177.5412 -36 
L 177.876 -36 
L 178.2108 -36 
L 178.5456 -36 
L 178.8804 -36 
L 179.2152 -36 
L 179.55 -36 
L 179.8848 -36 
L 180.2196 -36 
L 180.5544 -36 
L 180.8892 -36 
L 181.224 -36 
L 181.5588 -36 
L 181.8936 -36 
L 182.2284 -36 
L 182.5632 -36 
L 182.898 -36 
L 183.2328 -36 
L 183.5676 -36 
L 183.9024 -36 
L 184.2372 -36 
L 184.572 -36 
L 184.9068 -36 
L 185.2416 -36 
L 185.5764 -36 
L 185.9112 -36 
L 186.246 -36 
L 186.5808 -36 
L 186.9156 -36 
L 187.2504 -36 
L 187.5852 -36 
L 187.92 -36 
L 188.2548 -36 
L 188.5896 -36 
L 188.9244 -36 
L 189.2592 -36 
L 189.594 -36 
L 189.9288 -36 
L 190.2636 -36 
L 190.5984 -36 
L 190.9332 -36 
L 191.268 -36 
L 191.6028 -36 
L 191.9376 -36 
L 192.2724 -36 
L 192.6072 -36 
L 192.942 -36 
L 193.2768 -36 
L 193.6116 -36 
L 193.9464 -36 
L 194.2812 -36 
L 194.616 -36 
L 194.9508 -36 
L 195.2856 -36 
L 195.6204 -36 
L 195.9552 -36 
L 196.29 -36 
L 196.6248 -36 
L 196.9596 -36 
L 197.2944 -36 
L 197.6292 -36 
L 197.964 -36 
L 198.2988 -36 
L 198.6336 -36 
L 198.9684 -36 
L 199.3032 -36 
L 199.638 -36 
L 199.9728 -36 
L 200.3076 -36 
L 200.6424 -36 
L 200.9772 -36 
L 201.312 -36 
L 201.6468 -36 
L 201.9816 -36 
L 202.3164 -36 
L 202.6512 -36 
L 202.986 -36 
L 203.3208 -36 
L 203.6556 -36 
L 203.9904 -36 
L 204.3252 -36 
L 204.66 -36 
L 204.9948 -36 
L 205.3296 -36 
L 205.6644 -36 
L 205.9992 -36 
L 206.334 -36 
L 206.6688 -36 
L 207.0036 -36 
L 207.3384 -36 
L 207.6732 -36 
L 208.008 -36 
L 208.3428 -36 
L 208.6776 -36 
L 209.0124 -36 
L 209.3472 -36 
L 209.682 -36 
L 210.0168 -36 
L 210.3516 -36 
L 210.6864 -36 
L 211.0212 -36 
L 211.356 -36 
L 211.6908 -36 
L 212.0256 -36 
L 212.3604 -36 
L 212.6952 -36 
L 213.03 -36 
L 213.3648 -36 
L 213.6996 -36 
L 214.0344 -36 
L 214.3692 -36 
L 214.704 -36 
L 215.0388 -36 
L 215.3736 -36 
L 215.7084 -36 
L 216.0432 -36 
L 216.378 -36 
L 216.7128 -36 
L 217.0476 -36 
L 217.3824 -36 
L 217.7172 -36 
L 218.052 -36 
L 218.3868 -36 
L 218.7216 -36 
L 219.0564 -36 
L 219.3912 -36 
L 219.726 -36 
L 220.0608 -36 
L 220.3956 -36 
L 220.7304 -36 
L 221.0652 -36 
L 221.4 -36 
L 221.7348 -36 
L 222.0696 -36 
L 222.4044 -36 
L 222.7392 -36 
L 223.074 -36 
L 223.4088 -36 
L 223.7436 -36 
L 224.0784 -36 
L 224.4132 -36 
L 224.748 -36 
L 225.0828 -36 
L 225.4176 -36 
L 225.7524 -36 
L 226.0872 -36 
L 226.422 -36 
L 226.7568 -36 
L 227.0916 -36 
L 227.4264 -36 
L 227.7612 -36 
L 228.096 -36 
L 228.4308 -36 
L 228.7656 -36 
L 229.1004 -36 
L 229.4352 -36 
L 229.77 -36 
L 230.1048 -36 
L 230.4396 -36 
L 230.7744 -36 
L 231.1092 -36 
L 231.444 -36 
L 231.7788 -36 
L 232.1136 -36 
L 232.4484 -36 
L 232.7832 -36 
L 233.118 -36 
L 233.4528 -36 
L 233.7876 -36 
L 234.1224 -36 
L 234.4572 -36 
L 234.792 -36 
L 235.1268 -36 
L 235.4616 -36 
L 235.7964 -36 
L 236.1312 -36 
L 236.466 -36 
L 236.8008 -36 
L 237.1356 -36 
L 237.4704 -36 
L 237.8052 -36 
L 238.14 -36 
L 238.4748 -36 
L 238.8096 -36 
L 239.1444 -36 
L 239.4792 -36 
L 239.814 -36 
L 240.1488 -36 
L 240.4836 -36 
L 240.8184 -36 
L 241.1532 -36 
L 241.488 -36 
L 241.8228 -36 
L 242.1576 -36 
L 242.4924 -36 
L 242.8272 -36 
L 243.162 -36 
L 243.4968 -36 
L 243.8316 -36 
L 244.1664 -36 
L 244.5012 -36 
L 244.836 -36 
L 245.1708 -36 
L 245.5056 -36 
L 245.8404 -36 
L 246.1752 -36 
L 246.51 -36 
L 246.8448 -36 
L 247.1796 -36 
L 247.5144 -36 
L 247.8492 -36 
L 248.184 -36 
L 248.5188 -36 
L 248.8536 -36 
L 249.1884 -36 
L 249.5232 -36 
L 249.858 -36 
L 250.1928 -36 
L 250.5276 -36 
L 250.8624 -36 
L 251.1972 -36 
L 251.532 -36 
L 251.8668 -36 
L 252.2016 -36 
L 252.5364 -36 
L 252.8712 -36 
L 253.206 -36 
L 253.5408 -36 
L 253.8756 -36 
L 254.2104 -36 
L 254.5452 -36 
L 254.88 -36 
L 255.2148 -36 
L 255.5496 -36 
L 255.8844 -36 
L 256.2192 -36 
L 256.554 -36 
L 256.8888 -36 
L 257.2236 -36 
L 257.5584 -36 
L 257.8932 -36 
L 258.228 -36 
L 258.5628 -36 
L 258.8976 -36 
L 259.2324 -36 
L 259.5672 -36 
L 259.902 -36 
L 260.2368 -36 
L 260.5716 -36 
L 260.9064 -36 
L 261.2412 -36 
L 261.576 -36 
L 261.9108 -36 
L 262.2456 -36 
L 262.5804 -36 
L 262.9152 -36 
L 263.25 -36 
L 263.5848 -36 
L 263.9196 -36 
L 264.2544 -36 
L 264.5892 -36 
L 264.924 -36 
L 265.2588 -36 
L 265.5936 -36 
L 265.9284 -36 
L 266.2632 -36 
L 266.598 -36 
L 266.9328 -36 
L 267.2676 -36 
L 267.6024 -36 
L 267.9372 -36 
L 268.272 -36 
L 268.6068 -36 
L 268.9416 -36 
L 269.2764 -36 
L 269.6112 -36 
L 269.946 -36 
L 270.2808 -36 
L 270.6156 -36 
L 270.9504 -36 
L 271.2852 -36 
L 271.62 -36 
L 271.9548 -36 
L 272.2896 -36 
L 272.6244 -36 
L 272.9592 -36 
L 273.294 -36 
L 273.6288 -36 
L 273.9636 -36 
L 274.2984 -36 
L 274.6332 -36 
L 274.968 -36 
L 275.3028 -36 
L 275.6376 -36 
L 275.9724 -36 
L 276.3072 -36 
L 276.642 -36 
L 276.9768 -36 
L 277.3116 -36 
L 277.6464 -36 
L 277.9812 -36 
L 278.316 -36 
L 278.6508 -36 
L 278.9856 -36 
L 279.3204 -36 
L 279.6552 -36 
L 279.99 -36 
L 280.3248 -36 
L 280.6596 -36 
L 280.9944 -36 
L 281.3292 -36 
L 281.664 -36 
L 281.9988 -36 
L 282.3336 -36 
L 282.6684 -36 
L 283.0032 -36 
L 283.338 -36 
L 283.6728 -36 
L 284.0076 -36 
L 284.3424 -36 
L 284.6772 -36 
L 285.012 -36 
L 285.3468 -36 
L 285.6816 -36 
L 286.0164 -36 
L 286.3512 -36 
L 286.686 -36 
L 287.0208 -36 
L 287.3556 -36 
L 287.6904 -36 
L 288.0252 -36 
L 288.36 -36 
L 288.6948 -36 
L 289.0296 -36 
L 289.3644 -36 
L 289.6992 -36 
L 290.034 -36 
L 290.3688 -36 
L 290.7036 -36 
L 291.0384 -36 
L 291.3732 -36 
L 291.708 -36 
L 292.0428 -36 
L 292.3776 -36 
L 292.7124 -36 
L 293.0472 -36 
L 293.382 -36 
L 293.7168 -36 
L 294.0516 -36 
L 294.3864 -36 
L 294.7212 -36 
L 295.056 -36 
L 295.3908 -36 
L 295.7256 -36 
L 296.0604 -36 
L 296.3952 -36 
L 296.73 -36 
L 297.0648 -36 
L 297.3996 -36 
L 297.7344 -36 
L 298.0692 -36 
L 298.404 -36 
L 298.7388 -36 
L 299.0736 -36 
L 299.4084 -36 
L 299.7432 -36 
L 300.078 -36 
L 300.4128 -36 
L 300.7476 -36 
L 301.0824 -36 
L 301.4172 -36 
L 301.752 -36 
L 302.0868 -36 
L 302.4216 -36 
L 302.7564 -36 
L 303.0912 -36 
L 303.426 -36 
L 303.7608 -36 
L 304.0956 -36 
L 304.4304 -36 
L 304.7652 -36 
L 305.1 -36 
L 305.4348 -36 
L 305.7696 -36 
L 306.1044 -36 
L 306.4392 -36 
L 306.774 -36 
L 307.1088 -36 
L 307.4436 -36 
L 307.7784 -36 
L 308.1132 -36 
L 308.448 -36 
L 308.7828 -36 
L 309.1176 -36 
L 309.4524 -36 
L 309.7872 -36 
L 310.122 -36 
L 310.4568 -36 
L 310.7916 -36 
L 311.1264 -36 
L 311.4612 -36 
L 311.796 -36 
L 312.1308 -36 
L 312.4656 -36 
L 312.8004 -36 
L 313.1352 -36 
L 313.47 -36 
L 313.8048 -36 
L 314.1396 -36 
L 314.4744 -36 
L 314.8092 -36 
L 315.144 -36 
L 315.4788 -36 
L 315.8136 -36 
L 316.1484 -36 
L 316.4832 -36 
L 316.818 -36 
L 317.1528 -36 
L 317.4876 -36 
L 317.8224 -36 
L 318.1572 -36 
L 318.492 -36 
L 318.8268 -36 
L 319.1616 -36 
L 319.4964 -36 
L 319.8312 -36 
L 320.166 -36 
L 320.5008 -36 
L 320.8356 -36 
L 321.1704 -36 
L 321.5052 -36 
L 321.5052 -122.976 
L 321.5052 -122.976 
L 321.1704 -122.976 
L 320.8356 -122.976 
L 320.5008 -122.976 
L 320.166 -122.976 
L 319.8312 -122.976 
L 319.4964 -122.976 
L 319.1616 -122.976 
L 318.8268 -122.976 
L 318.492 -122.976 
L 318.1572 -122.976 
L 317.8224 -122.976 
L 317.4876 -122.976 
L 317.1528 -122.976 
L 316.818 -122.976 
L 316.4832 -122.976 
L 316.1484 -122.976 
L 315.8136 -122.976 
L 315.4788 -122.976 
L 315.144 -122.976 
L 314.8092 -122.976 
L 314.4744 -122.976 
L 314.1396 -122.976 
L 313.8048 -122.976 
L 313.47 -122.976 
L 313.1352 -122.976 
L 312.8004 -122.976 
L 312.4656 -122.976 
L 312.1308 -122.976 
L 311.796 -122.976 
L 311.4612 -122.976 
L 311.1264 -122.976 
L 310.7916 -122.976 
L 310.4568 -122.976 
L 310.122 -122.976 
L 309.7872 -122.976 
L 309.4524 -122.976 
L 309.1176 -122.976 
L 308.7828 -122.976 
L 308.448 -122.976 
L 308.1132 -122.976 
L 307.7784 -122.976 
L 307.4436 -122.976 
L 307.1088 -122.976 
L 306.774 -122.976 
L 306.4392 -122.976 
L 306.1044 -122.976 
L 305.7696 -122.976 
L 305.4348 -122.976 
L 305.1 -122.976 
L 304.7652 -122.976 
L 304.4304 -122.976 
L 304.0956 -122.976 
L 303.7608 -122.976 
L 303.426 -122.976 
L 303.0912 -122.976 
L 302.7564 -122.976 
L 302.4216 -122.976 
L 302.0868 -122.976 
L 301.752 -122.976 
L 301.4172 -122.976 
L 301.0824 -122.976 
L 300.7476 -122.976 
L 300.4128 -122.976 
L 300.078 -122.976 
L 299.7432 -122.976 
L 299.4084 -122.976 
L 299.0736 -122.976 
L 298.7388 -122.976 
L 298.404 -122.976 
L 298.0692 -122.976 
L 297.7344 -122.976 
L 297.3996 -122.976 
L 297.0648 -122.976 
L 296.73 -122.976 
L 296.3952 -122.976 
L 296.0604 -122.976 
L 295.7256 -122.976 
L 295.3908 -122.976 
L 295.056 -122.976 
L 294.7212 -122.976 
L 294.3864 -122.976 
L 294.0516 -122.976 
L 293.7168 -122.976 
L 293.382 -122.976 
L 293.0472 -122.976 
L 292.7124 -122.976 
L 292.3776 -122.976 
L 292.0428 -122.976 
L 291.708 -122.976 
L 291.3732 -122.976 
L 291.0384 -122.976 
L 290.7036 -122.976 
L 290.3688 -122.976 
L 290.034 -122.976 
L 289.6992 -122.976 
L 289.3644 -122.976 
L 289.0296 -122.976 
L 288.6948 -122.976 
L 288.36 -122.976 
L 288.0252 -122.976 
L 287.6904 -122.976 
L 287.3556 -122.976 
L 287.0208 -122.976 
L 286.686 -122.976 
L 286.3512 -122.976 
L 286.0164 -122.976 
L 285.6816 -122.976 
L 285.3468 -122.976 
L 285.012 -122.976 
L 284.6772 -122.976 
L 284.3424 -122.976 
L 284.0076 -122.976 
L 283.6728 -122.976 
L 283.338 -122.976 
L 283.0032 -122.976 
L 282.6684 -122.976 
L 282.3336 -122.976 
L 281.9988 -122.976 
L 281.664 -122.976 
L 281.3292 -122.976 
L 280.9944 -122.976 
L 280.6596 -122.976 
L 280.3248 -122.976 
L 279.99 -122.976 
L 279.6552 -122.976 
L 279.3204 -122.976 
L 278.9856 -122.976 
L 278.6508 -122.976 
L 278.316 -122.976 
L 277.9812 -122.976 
L 277.6464 -122.976 
L 277.3116 -122.976 
L 276.9768 -122.976 
L 276.642 -122.976 
L 276.3072 -122.976 
L 275.9724 -122.976 
L 275.6376 -122.976 
L 275.3028 -122.976 
L 274.968 -122.976 
L 274.6332 -122.976 
L 274.2984 -122.976 
L 273.9636 -122.976 
L 273.6288 -122.976 
L 273.294 -122.976 
L 272.9592 -122.976 
L 272.6244 -122.976 
L 272.2896 -122.976 
L 271.9548 -122.976 
L 271.62 -122.976 
L 271.2852 -122.976 
L 270.9504 -122.976 
L 270.6156 -122.976 
L 270.2808 -122.976 
L 269.946 -122.976 
L 269.6112 -122.976 
L 269.2764 -122.976 
L 268.9416 -122.976 
L 268.6068 -122.976 
L 268.272 -122.976 
L 267.9372 -122.976 
L 267.6024 -122.976 
L 267.2676 -122.976 
L 266.9328 -122.976 
L 266.598 -122.976 
L 266.2632 -122.976 
L 265.9284 -122.976 
L 265.5936 -122.976 
L 265.2588 -122.976 
L 264.924 -122.976 
L 264.5892 -122.976 
L 264.2544 -122.976 
L 263.9196 -122.976 
L 263.5848 -122.976 
L 263.25 -122.976 
L 262.9152 -122.976 
L 262.5804 -122.976 
L 262.2456 -122.976 
L 261.9108 -122.976 
L 261.576 -122.976 
L 261.2412 -122.976 
L 260.9064 -122.976 
L 260.5716 -122.976 
L 260.2368 -122.976 
L 259.902 -122.976 
L 259.5672 -122.976 
L 259.2324 -122.976 
L 258.8976 -122.976 
L 258.5628 -122.976 
L 258.228 -122.976 
L 257.8932 -122.976 
L 257.5584 -122.976 
L 257.2236 -122.976 
L 256.8888 -122.976 
L 256.554 -122.976 
L 256.2192 -122.976 
L 255.8844 -122.976 
L 255.5496 -122.976 
L 255.2148 -122.976 
L 254.88 -122.976 
L 254.5452 -122.976 
L 254.2104 -122.976 
L 253.8756 -122.976 
L 253.5408 -122.976 
L 253.206 -122.976 
L 252.8712 -122.976 
L 252.5364 -122.976 
L 252.2016 -122.976 
L 251.8668 -122.976 
L 251.532 -122.976 
L 251.1972 -122.976 
L 250.8624 -122.976 
L 250.5276 -122.976 
L 250.1928 -122.976 
L 249.858 -122.976 
L 249.5232 -122.976 
L 249.1884 -122.976 
L 248.8536 -122.976 
L 248.5188 -122.976 
L 248.184 -122.976 
L 247.8492 -122.976 
L 247.5144 -122.976 
L 247.1796 -122.976 
L 246.8448 -122.976 
L 246.51 -122.976 
L 246.1752 -122.976 
L 245.8404 -122.976 
L 245.5056 -122.976 
L 245.1708 -122.976 
L 244.836 -122.976 
L 244.5012 -122.976 
L 244.1664 -122.976 
L 243.8316 -122.976 
L 243.4968 -122.976 
L 243.162 -122.976 
L 242.8272 -122.976 
L 242.4924 -122.976 
L 242.1576 -122.976 
L 241.8228 -122.976 
L 241.488 -122.976 
L 241.1532 -122.976 
L 240.8184 -122.976 
L 240.4836 -122.976 
L 240.1488 -122.976 
L 239.814 -122.976 
L 239.4792 -122.976 
L 239.1444 -122.976 
L 238.8096 -122.976 
L 238.4748 -122.976 
L 238.14 -122.976 
L 237.8052 -122.976 
L 237.4704 -122.976 
L 237.1356 -122.976 
L 236.8008 -122.976 
L 236.466 -122.976 
L 236.1312 -122.976 
L 235.7964 -122.976 
L 235.4616 -122.976 
L 235.1268 -122.976 
L 234.792 -122.976 
L 234.4572 -122.976 
L 234.1224 -122.976 
L 233.7876 -122.976 
L 233.4528 -122.976 
L 233.118 -122.976 
L 232.7832 -122.976 
L 232.4484 -122.976 
L 232.1136 -122.976 
L 231.7788 -122.976 
L 231.444 -122.976 
L 231.1092 -122.976 
L 230.7744 -122.976 
L 230.4396 -122.976 
L 230.1048 -122.976 
L 229.77 -122.976 
L 229.4352 -122.976 
L 229.1004 -122.976 
L 228.7656 -122.976 
L 228.4308 -122.976 
L 228.096 -122.976 
L 227.7612 -122.976 
L 227.4264 -122.976 
L 227.0916 -122.976 
L 226.7568 -122.976 
L 226.422 -122.976 
L 226.0872 -122.976 
L 225.7524 -122.976 
L 225.4176 -122.976 
L 225.0828 -122.976 
L 224.748 -122.976 
L 224.4132 -122.976 
L 224.0784 -122.976 
L 223.7436 -122.976 
L 223.4088 -122.976 
L 223.074 -122.976 
L 222.7392 -122.976 
L 222.4044 -122.976 
L 222.0696 -122.976 
L 221.7348 -122.976 
L 221.4 -122.976 
L 221.0652 -122.976 
L 220.7304 -122.976 
L 220.3956 -122.976 
L 220.0608 -122.976 
L 219.726 -122.976 
L 219.3912 -122.976 
L 219.0564 -122.976 
L 218.7216 -122.976 
L 218.3868 -122.976 
L 218.052 -122.976 
L 217.7172 -122.976 
L 217.3824 -122.976 
L 217.0476 -122.976 
L 216.7128 -122.976 
L 216.378 -122.976 
L 216.0432 -122.976 
L 215.7084 -122.976 
L 215.3736 -122.976 
L 215.0388 -122.976 
L 214.704 -122.976 
L 214.3692 -122.976 
L 214.0344 -122.976 
L 213.6996 -122.976 
L 213.3648 -122.976 
L 213.03 -122.976 
L 212.6952 -122.976 
L 212.3604 -122.976 
L 212.0256 -122.976 
L 211.6908 -122.976 
L 211.356 -122.976 
L 211.0212 -122.976 
L 210.6864 -122.976 
L 210.3516 -122.976 
L 210.0168 -122.976 
L 209.682 -122.976 
L 209.3472 -122.976 
L 209.0124 -122.976 
L 208.6776 -122.976 
L 208.3428 -122.976 
L 208.008 -122.976 
L 207.6732 -122.976 
L 207.3384 -122.976 
L 207.0036 -122.976 
L 206.6688 -122.976 
L 206.334 -122.976 
L 205.9992 -122.976 
L 205.6644 -122.976 
L 205.3296 -122.976 
L 204.9948 -122.976 
L 204.66 -122.976 
L 204.3252 -122.976 
L 203.9904 -122.976 
L 203.6556 -122.976 
L 203.3208 -122.976 
L 202.986 -122.976 
L 202.6512 -122.976 
L 202.3164 -122.976 
L 201.9816 -122.976 
L 201.6468 -122.976 
L 201.312 -122.976 
L 200.9772 -122.976 
L 200.6424 -122.976 
L 200.3076 -122.976 
L 199.9728 -122.976 
L 199.638 -122.976 
L 199.3032 -122.976 
L 198.9684 -122.976 
L 198.6336 -122.976 
L 198.2988 -122.976 
L 197.964 -122.976 
L 197.6292 -122.976 
L 197.2944 -122.976 
L 196.9596 -122.976 
L 196.6248 -122.976 
L 196.29 -122.976 
L 195.9552 -122.976 
L 195.6204 -122.976 
L 195.2856 -122.976 
L 194.9508 -122.976 
L 194.616 -122.976 
L 194.2812 -122.976 
L 193.9464 -122.976 
L 193.6116 -122.976 
L 193.2768 -122.976 
L 192.942 -122.976 
L 192.6072 -122.976 
L 192.2724 -122.976 
L 191.9376 -122.976 
L 191.6028 -122.976 
L 191.268 -122.976 
L 190.9332 -122.976 
L 190.5984 -122.976 
L 190.2636 -122.976 
L 189.9288 -122.976 
L 189.594 -122.976 
L 189.2592 -122.976 
L 188.9244 -122.976 
L 188.5896 -122.976 
L 188.2548 -122.976 
L 187.92 -122.976 
L 187.5852 -122.976 
L 187.2504 -122.976 
L 186.9156 -122.976 
L 186.5808 -122.976 
L 186.246 -122.976 
L 185.9112 -122.976 
L 185.5764 -122.976 
L 185.2416 -122.976 
L 184.9068 -122.976 
L 184.572 -122.976 
L 184.2372 -122.976 
L 183.9024 -122.976 
L 183.5676 -122.976 
L 183.2328 -122.976 
L 182.898 -122.976 
L 182.5632 -122.976 
L 182.2284 -122.976 
L 181.8936 -122.976 
L 181.5588 -122.976 
L 181.224 -122.976 
L 180.8892 -122.976 
L 180.5544 -122.976 
L 180.2196 -122.976 
L 179.8848 -122.976 
L 179.55 -122.976 
L 179.2152 -122.976 
L 178.8804 -122.976 
L 178.5456 -122.976 
L 178.2108 -122.976 
L 177.876 -122.976 
L 177.5412 -122.976 
L 177.2064 -122.976 
L 176.8716 -122.976 
L 176.5368 -122.976 
L 176.202 -122.976 
L 175.8672 -122.976 
L 175.5324 -122.976 
L 175.1976 -122.976 
L 174.8628 -122.976 
L 174.528 -122.976 
L 174.1932 -122.976 
L 173.8584 -122.976 
L 173.5236 -122.976 
L 173.1888 -122.976 
L 172.854 -122.976 
L 172.5192 -122.976 
L 172.1844 -122.976 
L 171.8496 -122.976 
L 171.5148 -122.976 
L 171.18 -122.976 
L 170.8452 -122.976 
L 170.5104 -122.976 
L 170.1756 -122.976 
L 169.8408 -122.976 
L 169.506 -122.976 
L 169.1712 -122.976 
L 168.8364 -122.976 
L 168.5016 -122.976 
L 168.1668 -122.976 
L 167.832 -122.976 
L 167.4972 -122.976 
L 167.1624 -122.976 
L 166.8276 -122.976 
L 166.4928 -122.976 
L 166.158 -122.976 
L 165.8232 -122.976 
L 165.4884 -122.976 
L 165.1536 -122.976 
L 164.8188 -122.976 
L 164.484 -122.976 
L 164.1492 -122.976 
L 163.8144 -122.976 
L 163.4796 -122.976 
L 163.1448 -122.976 
L 162.81 -122.976 
L 162.4752 -122.976 
L 162.1404 -122.976 
L 161.8056 -122.976 
L 161.4708 -122.976 
L 161.136 -122.976 
L 160.8012 -122.976 
L 160.4664 -122.976 
L 160.1316 -122.976 
L 159.7968 -122.976 
L 159.462 -122.976 
L 159.1272 -122.976 
L 158.7924 -122.976 
L 158.4576 -122.976 
L 158.1228 -122.976 
L 157.788 -122.976 
L 157.4532 -122.976 
L 157.1184 -122.976 
L 156.7836 -122.976 
L 156.4488 -122.976 
L 156.114 -122.976 
L 155.7792 -122.976 
L 155.4444 -122.976 
L 155.1096 -122.976 
L 154.7748 -122.976 
L 154.44 -122.976 
L 154.1052 -122.976 
L 153.7704 -122.976 
L 153.4356 -122.976 
L 153.1008 -122.976 
L 152.766 -122.976 
L 152.4312 -122.976 
L 152.0964 -122.976 
L 151.7616 -122.976 
L 151.4268 -122.976 
L 151.092 -122.976 
L 150.7572 -122.976 
L 150.4224 -122.976 
L 150.0876 -122.976 
L 149.7528 -122.976 
L 149.418 -122.976 
L 149.0832 -122.976 
L 148.7484 -122.976 
L 148.4136 -122.976 
L 148.0788 -122.976 
L 147.744 -122.976 
L 147.4092 -122.976 
L 147.0744 -122.976 
L 146.7396 -122.976 
L 146.4048 -122.976 
L 146.07 -122.976 
L 145.7352 -122.976 
L 145.4004 -122.976 
L 145.0656 -122.976 
L 144.7308 -122.976 
L 144.396 -122.976 
L 144.0612 -122.976 
L 143.7264 -122.976 
L 143.3916 -122.976 
L 143.0568 -122.976 
L 142.722 -122.976 
L 142.3872 -122.976 
L 142.0524 -122.976 
L 141.7176 -122.976 
L 141.3828 -122.976 
L 141.048 -122.976 
L 140.7132 -122.976 
L 140.3784 -122.976 
L 140.0436 -122.976 
L 139.7088 -122.976 
L 139.374 -122.976 
L 139.0392 -122.976 
L 138.7044 -122.976 
L 138.3696 -122.976 
L 138.0348 -122.976 
L 137.7 -122.976 
L 137.3652 -122.976 
L 137.0304 -122.976 
L 136.6956 -122.976 
L 136.3608 -122.976 
L 136.026 -122.976 
L 135.6912 -122.976 
L 135.3564 -122.976 
L 135.0216 -122.976 
L 134.6868 -122.976 
L 134.352 -122.976 
L 134.0172 -122.976 
L 133.6824 -122.976 
L 133.3476 -122.976 
L 133.0128 -122.976 
L 132.678 -122.976 
L 132.3432 -122.976 
L 132.0084 -122.976 
L 131.6736 -122.976 
L 131.3388 -122.976 
L 131.004 -122.976 
L 130.6692 -122.976 
L 130.3344 -122.976 
L 129.9996 -122.976 
L 129.6648 -122.976 
L 129.33 -122.976 
L 128.9952 -122.976 
L 128.6604 -122.976 
L 128.3256 -122.976 
L 127.9908 -122.976 
L 127.656 -122.976 
L 127.3212 -122.976 
L 126.9864 -122.976 
L 126.6516 -122.976 
L 126.3168 -122.976 
L 125.982 -122.976 
L 125.6472 -122.976 
L 125.3124 -122.976 
L 124.9776 -122.976 
L 124.6428 -122.976 
L 124.308 -122.976 
L 123.9732 -122.976 
L 123.6384 -122.976 
L 123.3036 -122.976 
L 122.9688 -122.976 
L 122.634 -122.976 
L 122.2992 -122.976 
L 121.9644 -122.976 
L 121.6296 -122.976 
L 121.2948 -122.976 
L 120.96 -122.976 
z
" id="mc5bd099fd8" style="stroke:#d3d3d3;"/>
    </defs>
    <g clip-path="url(#p7585790bed)">
     <use style="fill:#d3d3d3;stroke:#d3d3d3;" x="0" xlink:href="#mc5bd099fd8" y="288"/>
    </g>
   </g>
   <g id="matplotlib.axis_1">
    <g id="xtick_1">
     <g id="line2d_1">
      <path clip-path="url(#p7585790bed)" d="M 54 252 
L 54 34.56 
" style="fill:none;stroke:#b0b0b0;stroke-linecap:square;stroke-width:0.8;"/>
     </g>
     <g id="line2d_2">
      <defs>
       <path d="M 0 0 
L 0 3.5 
" id="maed7a7d264" style="stroke:#000000;stroke-width:0.8;"/>
      </defs>
      <g>
       <use style="stroke:#000000;stroke-width:0.8;" x="54" xlink:href="#maed7a7d264" y="252"/>
      </g>
     </g>
     <g id="text_1">
      <!-- 0 -->
      <defs>
       <path d="M 31.78125 66.40625 
Q 24.171875 66.40625 20.328125 58.90625 
Q 16.5 51.421875 16.5 36.375 
Q 16.5 21.390625 20.328125 13.890625 
Q 24.171875 6.390625 31.78125 6.390625 
Q 39.453125 6.390625 43.28125 13.890625 
Q 47.125 21.390625 47.125 36.375 
Q 47.125 51.421875 43.28125 58.90625 
Q 39.453125 66.40625 31.78125 66.40625 
z
M 31.78125 74.21875 
Q 44.046875 74.21875 50.515625 64.515625 
Q 56.984375 54.828125 56.984375 36.375 
Q 56.984375 17.96875 50.515625 8.265625 
Q 44.046875 -1.421875 31.78125 -1.421875 
Q 19.53125 -1.421875 13.0625 8.265625 
Q 6.59375 17.96875 6.59375 36.375 
Q 6.59375 54.828125 13.0625 64.515625 
Q 19.53125 74.21875 31.78125 74.21875 
z
" id="DejaVuSans-30"/>
      </defs>
      <g transform="translate(50.81875 266.598437)scale(0.1 -0.1)">
       <use xlink:href="#DejaVuSans-30"/>
      </g>
     </g>
    </g>
    <g id="xtick_2">
     <g id="line2d_3">
      <path clip-path="url(#p7585790bed)" d="M 120.96 252 
L 120.96 34.56 
" style="fill:none;stroke:#b0b0b0;stroke-linecap:square;stroke-width:0.8;"/>
     </g>
     <g id="line2d_4">
      <g>
       <use style="stroke:#000000;stroke-width:0.8;" x="120.96" xlink:href="#maed7a7d264" y="252"/>
      </g>
     </g>
     <g id="text_2">
      <!-- 2 -->
      <defs>
       <path d="M 19.1875 8.296875 
L 53.609375 8.296875 
L 53.609375 0 
L 7.328125 0 
L 7.328125 8.296875 
Q 12.9375 14.109375 22.625 23.890625 
Q 32.328125 33.6875 34.8125 36.53125 
Q 39.546875 41.84375 41.421875 45.53125 
Q 43.3125 49.21875 43.3125 52.78125 
Q 43.3125 58.59375 39.234375 62.25 
Q 35.15625 65.921875 28.609375 65.921875 
Q 23.96875 65.921875 18.8125 64.3125 
Q 13.671875 62.703125 7.8125 59.421875 
L 7.8125 69.390625 
Q 13.765625 71.78125 18.9375 73 
Q 24.125 74.21875 28.421875 74.21875 
Q 39.75 74.21875 46.484375 68.546875 
Q 53.21875 62.890625 53.21875 53.421875 
Q 53.21875 48.921875 51.53125 44.890625 
Q 49.859375 40.875 45.40625 35.40625 
Q 44.1875 33.984375 37.640625 27.21875 
Q 31.109375 20.453125 19.1875 8.296875 
z
" id="DejaVuSans-32"/>
      </defs>
      <g transform="translate(117.77875 266.598437)scale(0.1 -0.1)">
       <use xlink:href="#DejaVuSans-32"/>
      </g>
     </g>
    </g>
    <g id="xtick_3">
     <g id="line2d_5">
      <path clip-path="url(#p7585790bed)" d="M 187.92 252 
L 187.92 34.56 
" style="fill:none;stroke:#b0b0b0;stroke-linecap:square;stroke-width:0.8;"/>
     </g>
     <g id="line2d_6">
      <g>
       <use style="stroke:#000000;stroke-width:0.8;" x="187.92" xlink:href="#maed7a7d264" y="252"/>
      </g>
     </g>
     <g id="text_3">
      <!-- 4 -->
      <defs>
       <path d="M 37.796875 64.3125 
L 12.890625 25.390625 
L 37.796875 25.390625 
z
M 35.203125 72.90625 
L 47.609375 72.90625 
L 47.609375 25.390625 
L 58.015625 25.390625 
L 58.015625 17.1875 
L 47.609375 17.1875 
L 47.609375 0 
L 37.796875 0 
L 37.796875 17.1875 
L 4.890625 17.1875 
L 4.890625 26.703125 
z
" id="DejaVuSans-34"/>
      </defs>
      <g transform="translate(184.73875 266.598437)scale(0.1 -0.1)">
       <use xlink:href="#DejaVuSans-34"/>
      </g>
     </g>
    </g>
    <g id="xtick_4">
     <g id="line2d_7">
      <path clip-path="url(#p7585790bed)" d="M 254.88 252 
L 254.88 34.56 
" style="fill:none;stroke:#b0b0b0;stroke-linecap:square;stroke-width:0.8;"/>
     </g>
     <g id="line2d_8">
      <g>
       <use style="stroke:#000000;stroke-width:0.8;" x="254.88" xlink:href="#maed7a7d264" y="252"/>
      </g>
     </g>
     <g id="text_4">
      <!-- 6 -->
      <defs>
       <path d="M 33.015625 40.375 
Q 26.375 40.375 22.484375 35.828125 
Q 18.609375 31.296875 18.609375 23.390625 
Q 18.609375 15.53125 22.484375 10.953125 
Q 26.375 6.390625 33.015625 6.390625 
Q 39.65625 6.390625 43.53125 10.953125 
Q 47.40625 15.53125 47.40625 23.390625 
Q 47.40625 31.296875 43.53125 35.828125 
Q 39.65625 40.375 33.015625 40.375 
z
M 52.59375 71.296875 
L 52.59375 62.3125 
Q 48.875 64.0625 45.09375 64.984375 
Q 41.3125 65.921875 37.59375 65.921875 
Q 27.828125 65.921875 22.671875 59.328125 
Q 17.53125 52.734375 16.796875 39.40625 
Q 19.671875 43.65625 24.015625 45.921875 
Q 28.375 48.1875 33.59375 48.1875 
Q 44.578125 48.1875 50.953125 41.515625 
Q 57.328125 34.859375 57.328125 23.390625 
Q 57.328125 12.15625 50.6875 5.359375 
Q 44.046875 -1.421875 33.015625 -1.421875 
Q 20.359375 -1.421875 13.671875 8.265625 
Q 6.984375 17.96875 6.984375 36.375 
Q 6.984375 53.65625 15.1875 63.9375 
Q 23.390625 74.21875 37.203125 74.21875 
Q 40.921875 74.21875 44.703125 73.484375 
Q 48.484375 72.75 52.59375 71.296875 
z
" id="DejaVuSans-36"/>
      </defs>
      <g transform="translate(251.69875 266.598437)scale(0.1 -0.1)">
       <use xlink:href="#DejaVuSans-36"/>
      </g>
     </g>
    </g>
    <g id="xtick_5">
     <g id="line2d_9">
      <path clip-path="url(#p7585790bed)" d="M 321.84 252 
L 321.84 34.56 
" style="fill:none;stroke:#b0b0b0;stroke-linecap:square;stroke-width:0.8;"/>
     </g>
     <g id="line2d_10">
      <g>
       <use style="stroke:#000000;stroke-width:0.8;" x="321.84" xlink:href="#maed7a7d264" y="252"/>
      </g>
     </g>
     <g id="text_5">
      <!-- 8 -->
      <defs>
       <path d="M 31.78125 34.625 
Q 24.75 34.625 20.71875 30.859375 
Q 16.703125 27.09375 16.703125 20.515625 
Q 16.703125 13.921875 20.71875 10.15625 
Q 24.75 6.390625 31.78125 6.390625 
Q 38.8125 6.390625 42.859375 10.171875 
Q 46.921875 13.96875 46.921875 20.515625 
Q 46.921875 27.09375 42.890625 30.859375 
Q 38.875 34.625 31.78125 34.625 
z
M 21.921875 38.8125 
Q 15.578125 40.375 12.03125 44.71875 
Q 8.5 49.078125 8.5 55.328125 
Q 8.5 64.0625 14.71875 69.140625 
Q 20.953125 74.21875 31.78125 74.21875 
Q 42.671875 74.21875 48.875 69.140625 
Q 55.078125 64.0625 55.078125 55.328125 
Q 55.078125 49.078125 51.53125 44.71875 
Q 48 40.375 41.703125 38.8125 
Q 48.828125 37.15625 52.796875 32.3125 
Q 56.78125 27.484375 56.78125 20.515625 
Q 56.78125 9.90625 50.3125 4.234375 
Q 43.84375 -1.421875 31.78125 -1.421875 
Q 19.734375 -1.421875 13.25 4.234375 
Q 6.78125 9.90625 6.78125 20.515625 
Q 6.78125 27.484375 10.78125 32.3125 
Q 14.796875 37.15625 21.921875 38.8125 
z
M 18.3125 54.390625 
Q 18.3125 48.734375 21.84375 45.5625 
Q 25.390625 42.390625 31.78125 42.390625 
Q 38.140625 42.390625 41.71875 45.5625 
Q 45.3125 48.734375 45.3125 54.390625 
Q 45.3125 60.0625 41.71875 63.234375 
Q 38.140625 66.40625 31.78125 66.40625 
Q 25.390625 66.40625 21.84375 63.234375 
Q 18.3125 60.0625 18.3125 54.390625 
z
" id="DejaVuSans-38"/>
      </defs>
      <g transform="translate(318.65875 266.598437)scale(0.1 -0.1)">
       <use xlink:href="#DejaVuSans-38"/>
      </g>
     </g>
    </g>
    <g id="xtick_6">
     <g id="line2d_11">
      <path clip-path="url(#p7585790bed)" d="M 388.8 252 
L 388.8 34.56 
" style="fill:none;stroke:#b0b0b0;stroke-linecap:square;stroke-width:0.8;"/>
     </g>
     <g id="line2d_12">
      <g>
       <use style="stroke:#000000;stroke-width:0.8;" x="388.8" xlink:href="#maed7a7d264" y="252"/>
      </g>
     </g>
     <g id="text_6">
      <!-- 10 -->
      <defs>
       <path d="M 12.40625 8.296875 
L 28.515625 8.296875 
L 28.515625 63.921875 
L 10.984375 60.40625 
L 10.984375 69.390625 
L 28.421875 72.90625 
L 38.28125 72.90625 
L 38.28125 8.296875 
L 54.390625 8.296875 
L 54.390625 0 
L 12.40625 0 
z
" id="DejaVuSans-31"/>
      </defs>
      <g transform="translate(382.4375 266.598437)scale(0.1 -0.1)">
       <use xlink:href="#DejaVuSans-31"/>
       <use x="63.623047" xlink:href="#DejaVuSans-30"/>
      </g>
     </g>
    </g>
    <g id="text_7">
     <!-- Posició (m) -->
     <defs>
      <path d="M 19.671875 64.796875 
L 19.671875 37.40625 
L 32.078125 37.40625 
Q 38.96875 37.40625 42.71875 40.96875 
Q 46.484375 44.53125 46.484375 51.125 
Q 46.484375 57.671875 42.71875 61.234375 
Q 38.96875 64.796875 32.078125 64.796875 
z
M 9.8125 72.90625 
L 32.078125 72.90625 
Q 44.34375 72.90625 50.609375 67.359375 
Q 56.890625 61.8125 56.890625 51.125 
Q 56.890625 40.328125 50.609375 34.8125 
Q 44.34375 29.296875 32.078125 29.296875 
L 19.671875 29.296875 
L 19.671875 0 
L 9.8125 0 
z
" id="DejaVuSans-50"/>
      <path d="M 30.609375 48.390625 
Q 23.390625 48.390625 19.1875 42.75 
Q 14.984375 37.109375 14.984375 27.296875 
Q 14.984375 17.484375 19.15625 11.84375 
Q 23.34375 6.203125 30.609375 6.203125 
Q 37.796875 6.203125 41.984375 11.859375 
Q 46.1875 17.53125 46.1875 27.296875 
Q 46.1875 37.015625 41.984375 42.703125 
Q 37.796875 48.390625 30.609375 48.390625 
z
M 30.609375 56 
Q 42.328125 56 49.015625 48.375 
Q 55.71875 40.765625 55.71875 27.296875 
Q 55.71875 13.875 49.015625 6.21875 
Q 42.328125 -1.421875 30.609375 -1.421875 
Q 18.84375 -1.421875 12.171875 6.21875 
Q 5.515625 13.875 5.515625 27.296875 
Q 5.515625 40.765625 12.171875 48.375 
Q 18.84375 56 30.609375 56 
z
" id="DejaVuSans-6f"/>
      <path d="M 44.28125 53.078125 
L 44.28125 44.578125 
Q 40.484375 46.53125 36.375 47.5 
Q 32.28125 48.484375 27.875 48.484375 
Q 21.1875 48.484375 17.84375 46.4375 
Q 14.5 44.390625 14.5 40.28125 
Q 14.5 37.15625 16.890625 35.375 
Q 19.28125 33.59375 26.515625 31.984375 
L 29.59375 31.296875 
Q 39.15625 29.25 43.1875 25.515625 
Q 47.21875 21.78125 47.21875 15.09375 
Q 47.21875 7.46875 41.1875 3.015625 
Q 35.15625 -1.421875 24.609375 -1.421875 
Q 20.21875 -1.421875 15.453125 -0.5625 
Q 10.6875 0.296875 5.421875 2 
L 5.421875 11.28125 
Q 10.40625 8.6875 15.234375 7.390625 
Q 20.0625 6.109375 24.8125 6.109375 
Q 31.15625 6.109375 34.5625 8.28125 
Q 37.984375 10.453125 37.984375 14.40625 
Q 37.984375 18.0625 35.515625 20.015625 
Q 33.0625 21.96875 24.703125 23.78125 
L 21.578125 24.515625 
Q 13.234375 26.265625 9.515625 29.90625 
Q 5.8125 33.546875 5.8125 39.890625 
Q 5.8125 47.609375 11.28125 51.796875 
Q 16.75 56 26.8125 56 
Q 31.78125 56 36.171875 55.265625 
Q 40.578125 54.546875 44.28125 53.078125 
z
" id="DejaVuSans-73"/>
      <path d="M 9.421875 54.6875 
L 18.40625 54.6875 
L 18.40625 0 
L 9.421875 0 
z
M 9.421875 75.984375 
L 18.40625 75.984375 
L 18.40625 64.59375 
L 9.421875 64.59375 
z
" id="DejaVuSans-69"/>
      <path d="M 48.78125 52.59375 
L 48.78125 44.1875 
Q 44.96875 46.296875 41.140625 47.34375 
Q 37.3125 48.390625 33.40625 48.390625 
Q 24.65625 48.390625 19.8125 42.84375 
Q 14.984375 37.3125 14.984375 27.296875 
Q 14.984375 17.28125 19.8125 11.734375 
Q 24.65625 6.203125 33.40625 6.203125 
Q 37.3125 6.203125 41.140625 7.25 
Q 44.96875 8.296875 48.78125 10.40625 
L 48.78125 2.09375 
Q 45.015625 0.34375 40.984375 -0.53125 
Q 36.96875 -1.421875 32.421875 -1.421875 
Q 20.0625 -1.421875 12.78125 6.34375 
Q 5.515625 14.109375 5.515625 27.296875 
Q 5.515625 40.671875 12.859375 48.328125 
Q 20.21875 56 33.015625 56 
Q 37.15625 56 41.109375 55.140625 
Q 45.0625 54.296875 48.78125 52.59375 
z
" id="DejaVuSans-63"/>
      <path d="M 30.609375 48.390625 
Q 23.390625 48.390625 19.1875 42.75 
Q 14.984375 37.109375 14.984375 27.296875 
Q 14.984375 17.484375 19.15625 11.84375 
Q 23.34375 6.203125 30.609375 6.203125 
Q 37.796875 6.203125 41.984375 11.859375 
Q 46.1875 17.53125 46.1875 27.296875 
Q 46.1875 37.015625 41.984375 42.703125 
Q 37.796875 48.390625 30.609375 48.390625 
z
M 30.609375 56 
Q 42.328125 56 49.015625 48.375 
Q 55.71875 40.765625 55.71875 27.296875 
Q 55.71875 13.875 49.015625 6.21875 
Q 42.328125 -1.421875 30.609375 -1.421875 
Q 18.84375 -1.421875 12.171875 6.21875 
Q 5.515625 13.875 5.515625 27.296875 
Q 5.515625 40.765625 12.171875 48.375 
Q 18.84375 56 30.609375 56 
z
M 37.40625 79.984375 
L 47.125 79.984375 
L 31.21875 61.625 
L 23.734375 61.625 
z
" id="DejaVuSans-f3"/>
      <path id="DejaVuSans-20"/>
      <path d="M 31 75.875 
Q 24.46875 64.65625 21.28125 53.65625 
Q 18.109375 42.671875 18.109375 31.390625 
Q 18.109375 20.125 21.3125 9.0625 
Q 24.515625 -2 31 -13.1875 
L 23.1875 -13.1875 
Q 15.875 -1.703125 12.234375 9.375 
Q 8.59375 20.453125 8.59375 31.390625 
Q 8.59375 42.28125 12.203125 53.3125 
Q 15.828125 64.359375 23.1875 75.875 
z
" id="DejaVuSans-28"/>
      <path d="M 52 44.1875 
Q 55.375 50.25 60.0625 53.125 
Q 64.75 56 71.09375 56 
Q 79.640625 56 84.28125 50.015625 
Q 88.921875 44.046875 88.921875 33.015625 
L 88.921875 0 
L 79.890625 0 
L 79.890625 32.71875 
Q 79.890625 40.578125 77.09375 44.375 
Q 74.3125 48.1875 68.609375 48.1875 
Q 61.625 48.1875 57.5625 43.546875 
Q 53.515625 38.921875 53.515625 30.90625 
L 53.515625 0 
L 44.484375 0 
L 44.484375 32.71875 
Q 44.484375 40.625 41.703125 44.40625 
Q 38.921875 48.1875 33.109375 48.1875 
Q 26.21875 48.1875 22.15625 43.53125 
Q 18.109375 38.875 18.109375 30.90625 
L 18.109375 0 
L 9.078125 0 
L 9.078125 54.6875 
L 18.109375 54.6875 
L 18.109375 46.1875 
Q 21.1875 51.21875 25.484375 53.609375 
Q 29.78125 56 35.6875 56 
Q 41.65625 56 45.828125 52.96875 
Q 50 49.953125 52 44.1875 
z
" id="DejaVuSans-6d"/>
      <path d="M 8.015625 75.875 
L 15.828125 75.875 
Q 23.140625 64.359375 26.78125 53.3125 
Q 30.421875 42.28125 30.421875 31.390625 
Q 30.421875 20.453125 26.78125 9.375 
Q 23.140625 -1.703125 15.828125 -13.1875 
L 8.015625 -13.1875 
Q 14.5 -2 17.703125 9.0625 
Q 20.90625 20.125 20.90625 31.390625 
Q 20.90625 42.671875 17.703125 53.65625 
Q 14.5 64.65625 8.015625 75.875 
z
" id="DejaVuSans-29"/>
     </defs>
     <g transform="translate(193.775781 280.276563)scale(0.1 -0.1)">
      <use xlink:href="#DejaVuSans-50"/>
      <use x="60.255859" xlink:href="#DejaVuSans-6f"/>
      <use x="121.4375" xlink:href="#DejaVuSans-73"/>
      <use x="173.537109" xlink:href="#DejaVuSans-69"/>
      <use x="201.320312" xlink:href="#DejaVuSans-63"/>
      <use x="256.300781" xlink:href="#DejaVuSans-69"/>
      <use x="284.083984" xlink:href="#DejaVuSans-f3"/>
      <use x="345.265625" xlink:href="#DejaVuSans-20"/>
      <use x="377.052734" xlink:href="#DejaVuSans-28"/>
      <use x="416.066406" xlink:href="#DejaVuSans-6d"/>
      <use x="513.478516" xlink:href="#DejaVuSans-29"/>
     </g>
    </g>
   </g>
   <g id="matplotlib.axis_2">
    <g id="ytick_1">
     <g id="line2d_13">
      <path clip-path="url(#p7585790bed)" d="M 54 252 
L 388.8 252 
" style="fill:none;stroke:#b0b0b0;stroke-linecap:square;stroke-width:0.8;"/>
     </g>
     <g id="line2d_14">
      <defs>
       <path d="M 0 0 
L -3.5 0 
" id="me6a71d9495" style="stroke:#000000;stroke-width:0.8;"/>
      </defs>
      <g>
       <use style="stroke:#000000;stroke-width:0.8;" x="54" xlink:href="#me6a71d9495" y="252"/>
      </g>
     </g>
     <g id="text_8">
      <!-- 0 -->
      <g transform="translate(40.6375 255.799219)scale(0.1 -0.1)">
       <use xlink:href="#DejaVuSans-30"/>
      </g>
     </g>
    </g>
    <g id="ytick_2">
     <g id="line2d_15">
      <path clip-path="url(#p7585790bed)" d="M 54 208.512 
L 388.8 208.512 
" style="fill:none;stroke:#b0b0b0;stroke-linecap:square;stroke-width:0.8;"/>
     </g>
     <g id="line2d_16">
      <g>
       <use style="stroke:#000000;stroke-width:0.8;" x="54" xlink:href="#me6a71d9495" y="208.512"/>
      </g>
     </g>
     <g id="text_9">
      <!-- 1 -->
      <g transform="translate(40.6375 212.311219)scale(0.1 -0.1)">
       <use xlink:href="#DejaVuSans-31"/>
      </g>
     </g>
    </g>
    <g id="ytick_3">
     <g id="line2d_17">
      <path clip-path="url(#p7585790bed)" d="M 54 165.024 
L 388.8 165.024 
" style="fill:none;stroke:#b0b0b0;stroke-linecap:square;stroke-width:0.8;"/>
     </g>
     <g id="line2d_18">
      <g>
       <use style="stroke:#000000;stroke-width:0.8;" x="54" xlink:href="#me6a71d9495" y="165.024"/>
      </g>
     </g>
     <g id="text_10">
      <!-- 2 -->
      <g transform="translate(40.6375 168.823219)scale(0.1 -0.1)">
       <use xlink:href="#DejaVuSans-32"/>
      </g>
     </g>
    </g>
    <g id="ytick_4">
     <g id="line2d_19">
      <path clip-path="url(#p7585790bed)" d="M 54 121.536 
L 388.8 121.536 
" style="fill:none;stroke:#b0b0b0;stroke-linecap:square;stroke-width:0.8;"/>
     </g>
     <g id="line2d_20">
      <g>
       <use style="stroke:#000000;stroke-width:0.8;" x="54" xlink:href="#me6a71d9495" y="121.536"/>
      </g>
     </g>
     <g id="text_11">
      <!-- 3 -->
      <defs>
       <path d="M 40.578125 39.3125 
Q 47.65625 37.796875 51.625 33 
Q 55.609375 28.21875 55.609375 21.1875 
Q 55.609375 10.40625 48.1875 4.484375 
Q 40.765625 -1.421875 27.09375 -1.421875 
Q 22.515625 -1.421875 17.65625 -0.515625 
Q 12.796875 0.390625 7.625 2.203125 
L 7.625 11.71875 
Q 11.71875 9.328125 16.59375 8.109375 
Q 21.484375 6.890625 26.8125 6.890625 
Q 36.078125 6.890625 40.9375 10.546875 
Q 45.796875 14.203125 45.796875 21.1875 
Q 45.796875 27.640625 41.28125 31.265625 
Q 36.765625 34.90625 28.71875 34.90625 
L 20.21875 34.90625 
L 20.21875 43.015625 
L 29.109375 43.015625 
Q 36.375 43.015625 40.234375 45.921875 
Q 44.09375 48.828125 44.09375 54.296875 
Q 44.09375 59.90625 40.109375 62.90625 
Q 36.140625 65.921875 28.71875 65.921875 
Q 24.65625 65.921875 20.015625 65.03125 
Q 15.375 64.15625 9.8125 62.3125 
L 9.8125 71.09375 
Q 15.4375 72.65625 20.34375 73.4375 
Q 25.25 74.21875 29.59375 74.21875 
Q 40.828125 74.21875 47.359375 69.109375 
Q 53.90625 64.015625 53.90625 55.328125 
Q 53.90625 49.265625 50.4375 45.09375 
Q 46.96875 40.921875 40.578125 39.3125 
z
" id="DejaVuSans-33"/>
      </defs>
      <g transform="translate(40.6375 125.335219)scale(0.1 -0.1)">
       <use xlink:href="#DejaVuSans-33"/>
      </g>
     </g>
    </g>
    <g id="ytick_5">
     <g id="line2d_21">
      <path clip-path="url(#p7585790bed)" d="M 54 78.048 
L 388.8 78.048 
" style="fill:none;stroke:#b0b0b0;stroke-linecap:square;stroke-width:0.8;"/>
     </g>
     <g id="line2d_22">
      <g>
       <use style="stroke:#000000;stroke-width:0.8;" x="54" xlink:href="#me6a71d9495" y="78.048"/>
      </g>
     </g>
     <g id="text_12">
      <!-- 4 -->
      <g transform="translate(40.6375 81.847219)scale(0.1 -0.1)">
       <use xlink:href="#DejaVuSans-34"/>
      </g>
     </g>
    </g>
    <g id="ytick_6">
     <g id="line2d_23">
      <path clip-path="url(#p7585790bed)" d="M 54 34.56 
L 388.8 34.56 
" style="fill:none;stroke:#b0b0b0;stroke-linecap:square;stroke-width:0.8;"/>
     </g>
     <g id="line2d_24">
      <g>
       <use style="stroke:#000000;stroke-width:0.8;" x="54" xlink:href="#me6a71d9495" y="34.56"/>
      </g>
     </g>
     <g id="text_13">
      <!-- 5 -->
      <defs>
       <path d="M 10.796875 72.90625 
L 49.515625 72.90625 
L 49.515625 64.59375 
L 19.828125 64.59375 
L 19.828125 46.734375 
Q 21.96875 47.46875 24.109375 47.828125 
Q 26.265625 48.1875 28.421875 48.1875 
Q 40.625 48.1875 47.75 41.5 
Q 54.890625 34.8125 54.890625 23.390625 
Q 54.890625 11.625 47.5625 5.09375 
Q 40.234375 -1.421875 26.90625 -1.421875 
Q 22.3125 -1.421875 17.546875 -0.640625 
Q 12.796875 0.140625 7.71875 1.703125 
L 7.71875 11.625 
Q 12.109375 9.234375 16.796875 8.0625 
Q 21.484375 6.890625 26.703125 6.890625 
Q 35.15625 6.890625 40.078125 11.328125 
Q 45.015625 15.765625 45.015625 23.390625 
Q 45.015625 31 40.078125 35.4375 
Q 35.15625 39.890625 26.703125 39.890625 
Q 22.75 39.890625 18.8125 39.015625 
Q 14.890625 38.140625 10.796875 36.28125 
z
" id="DejaVuSans-35"/>
      </defs>
      <g transform="translate(40.6375 38.359219)scale(0.1 -0.1)">
       <use xlink:href="#DejaVuSans-35"/>
      </g>
     </g>
    </g>
    <g id="text_14">
     <!-- Força (N) -->
     <defs>
      <path d="M 9.8125 72.90625 
L 51.703125 72.90625 
L 51.703125 64.59375 
L 19.671875 64.59375 
L 19.671875 43.109375 
L 48.578125 43.109375 
L 48.578125 34.8125 
L 19.671875 34.8125 
L 19.671875 0 
L 9.8125 0 
z
" id="DejaVuSans-46"/>
      <path d="M 41.109375 46.296875 
Q 39.59375 47.171875 37.8125 47.578125 
Q 36.03125 48 33.890625 48 
Q 26.265625 48 22.1875 43.046875 
Q 18.109375 38.09375 18.109375 28.8125 
L 18.109375 0 
L 9.078125 0 
L 9.078125 54.6875 
L 18.109375 54.6875 
L 18.109375 46.1875 
Q 20.953125 51.171875 25.484375 53.578125 
Q 30.03125 56 36.53125 56 
Q 37.453125 56 38.578125 55.875 
Q 39.703125 55.765625 41.0625 55.515625 
z
" id="DejaVuSans-72"/>
      <path d="M 48.78125 52.59375 
L 48.78125 44.1875 
Q 44.96875 46.296875 41.140625 47.34375 
Q 37.3125 48.390625 33.40625 48.390625 
Q 24.65625 48.390625 19.8125 42.84375 
Q 14.984375 37.3125 14.984375 27.296875 
Q 14.984375 17.28125 19.8125 11.734375 
Q 24.65625 6.203125 33.40625 6.203125 
Q 37.3125 6.203125 41.140625 7.25 
Q 44.96875 8.296875 48.78125 10.40625 
L 48.78125 2.09375 
Q 45.015625 0.34375 40.984375 -0.53125 
Q 36.96875 -1.421875 32.421875 -1.421875 
Q 20.0625 -1.421875 12.78125 6.34375 
Q 5.515625 14.109375 5.515625 27.296875 
Q 5.515625 40.671875 12.859375 48.328125 
Q 20.21875 56 33.015625 56 
Q 37.15625 56 41.109375 55.140625 
Q 45.0625 54.296875 48.78125 52.59375 
z
M 36.109375 0 
Q 38.78125 -3.03125 40.09375 -5.59375 
Q 41.421875 -8.15625 41.421875 -10.5 
Q 41.421875 -14.84375 38.484375 -17.0625 
Q 35.5625 -19.28125 29.796875 -19.28125 
Q 27.5625 -19.28125 25.4375 -18.984375 
Q 23.3125 -18.703125 21.203125 -18.109375 
L 21.203125 -11.71875 
Q 22.875 -12.546875 24.671875 -12.90625 
Q 26.484375 -13.28125 28.78125 -13.28125 
Q 31.65625 -13.28125 33.125 -12.109375 
Q 34.59375 -10.9375 34.59375 -8.6875 
Q 34.59375 -7.234375 33.53125 -5.109375 
Q 32.484375 -2.984375 30.296875 0 
z
" id="DejaVuSans-e7"/>
      <path d="M 34.28125 27.484375 
Q 23.390625 27.484375 19.1875 25 
Q 14.984375 22.515625 14.984375 16.5 
Q 14.984375 11.71875 18.140625 8.90625 
Q 21.296875 6.109375 26.703125 6.109375 
Q 34.1875 6.109375 38.703125 11.40625 
Q 43.21875 16.703125 43.21875 25.484375 
L 43.21875 27.484375 
z
M 52.203125 31.203125 
L 52.203125 0 
L 43.21875 0 
L 43.21875 8.296875 
Q 40.140625 3.328125 35.546875 0.953125 
Q 30.953125 -1.421875 24.3125 -1.421875 
Q 15.921875 -1.421875 10.953125 3.296875 
Q 6 8.015625 6 15.921875 
Q 6 25.140625 12.171875 29.828125 
Q 18.359375 34.515625 30.609375 34.515625 
L 43.21875 34.515625 
L 43.21875 35.40625 
Q 43.21875 41.609375 39.140625 45 
Q 35.0625 48.390625 27.6875 48.390625 
Q 23 48.390625 18.546875 47.265625 
Q 14.109375 46.140625 10.015625 43.890625 
L 10.015625 52.203125 
Q 14.9375 54.109375 19.578125 55.046875 
Q 24.21875 56 28.609375 56 
Q 40.484375 56 46.34375 49.84375 
Q 52.203125 43.703125 52.203125 31.203125 
z
" id="DejaVuSans-61"/>
      <path d="M 9.8125 72.90625 
L 23.09375 72.90625 
L 55.421875 11.921875 
L 55.421875 72.90625 
L 64.984375 72.90625 
L 64.984375 0 
L 51.703125 0 
L 19.390625 60.984375 
L 19.390625 0 
L 9.8125 0 
z
" id="DejaVuSans-4e"/>
     </defs>
     <g transform="translate(34.557812 166.31125)rotate(-90)scale(0.1 -0.1)">
      <use xlink:href="#DejaVuSans-46"/>
      <use x="57.472656" xlink:href="#DejaVuSans-6f"/>
      <use x="118.654297" xlink:href="#DejaVuSans-72"/>
      <use x="159.736328" xlink:href="#DejaVuSans-e7"/>
      <use x="214.716797" xlink:href="#DejaVuSans-61"/>
      <use x="275.996094" xlink:href="#DejaVuSans-20"/>
      <use x="307.783203" xlink:href="#DejaVuSans-28"/>
      <use x="346.796875" xlink:href="#DejaVuSans-4e"/>
      <use x="421.601562" xlink:href="#DejaVuSans-29"/>
     </g>
    </g>
   </g>
   <g id="line2d_25">
    <path clip-path="url(#p7585790bed)" d="M 120.96 165.024 
L 321.5052 165.024 
L 321.5052 165.024 
" style="fill:none;stroke:#ff0000;stroke-linecap:square;stroke-width:2;"/>
   </g>
   <g id="patch_3">
    <path d="M 54 252 
L 54 34.56 
" style="fill:none;stroke:#000000;stroke-linecap:square;stroke-linejoin:miter;stroke-width:0.8;"/>
   </g>
   <g id="patch_4">
    <path d="M 388.8 252 
L 388.8 34.56 
" style="fill:none;stroke:#000000;stroke-linecap:square;stroke-linejoin:miter;stroke-width:0.8;"/>
   </g>
   <g id="patch_5">
    <path d="M 54 252 
L 388.8 252 
" style="fill:none;stroke:#000000;stroke-linecap:square;stroke-linejoin:miter;stroke-width:0.8;"/>
   </g>
   <g id="patch_6">
    <path d="M 54 34.56 
L 388.8 34.56 
" style="fill:none;stroke:#000000;stroke-linecap:square;stroke-linejoin:miter;stroke-width:0.8;"/>
   </g>
  </g>
 </g>
 <defs>
  <clipPath id="p7585790bed">
   <rect height="217.44" width="334.8" x="54" y="34.56"/>
  </clipPath>
 </defs>
</svg>
