<?xml version="1.0" encoding="UTF-8" standalone="no"?>
<!-- Created with Inkscape (http://www.inkscape.org/) -->

<svg
   xmlns:dc="http://purl.org/dc/elements/1.1/"
   xmlns:cc="http://creativecommons.org/ns#"
   xmlns:rdf="http://www.w3.org/1999/02/22-rdf-syntax-ns#"
   xmlns:svg="http://www.w3.org/2000/svg"
   xmlns="http://www.w3.org/2000/svg"
   xmlns:sodipodi="http://sodipodi.sourceforge.net/DTD/sodipodi-0.dtd"
   xmlns:inkscape="http://www.inkscape.org/namespaces/inkscape"
   width="311.07437"
   height="93.927345"
   viewBox="0 0 82.305093 24.851609"
   version="1.1"
   id="svg8"
   inkscape:version="0.92.3 (2405546, 2018-03-11)"
   sodipodi:docname="dist_lluna.svg">
  <sodipodi:namedview
     id="base"
     pagecolor="#ffffff"
     bordercolor="#666666"
     borderopacity="1.0"
     inkscape:pageopacity="0.0"
     inkscape:pageshadow="2"
     inkscape:zoom="2.8935508"
     inkscape:cx="195.06834"
     inkscape:cy="33.301945"
     inkscape:document-units="mm"
     inkscape:current-layer="layer1"
     showgrid="false"
     inkscape:window-width="1319"
     inkscape:window-height="713"
     inkscape:window-x="47"
     inkscape:window-y="27"
     inkscape:window-maximized="1"
     inkscape:object-nodes="false"
     fit-margin-top="10"
     fit-margin-left="10"
     fit-margin-bottom="10"
     fit-margin-right="10"
     units="px" />
  <defs
     id="defs2">
    <marker
       inkscape:isstock="true"
       style="overflow:visible"
       id="marker4310"
       refX="0"
       refY="0"
       orient="auto"
       inkscape:stockid="StopL">
      <path
         transform="scale(0.8)"
         style="fill:none;fill-opacity:0.75;fill-rule:evenodd;stroke:#000000;stroke-width:1.00000003pt;stroke-opacity:1"
         d="M 0,5.65 V -5.65"
         id="path4308"
         inkscape:connector-curvature="0" />
    </marker>
    <marker
       inkscape:isstock="true"
       style="overflow:visible"
       id="marker4140"
       refX="0"
       refY="0"
       orient="auto"
       inkscape:stockid="StopL">
      <path
         transform="scale(0.8)"
         style="fill:none;fill-opacity:0.75;fill-rule:evenodd;stroke:#000000;stroke-width:1.00000003pt;stroke-opacity:1"
         d="M 0,5.65 V -5.65"
         id="path4138"
         inkscape:connector-curvature="0" />
    </marker>
    <marker
       inkscape:stockid="StopL"
       orient="auto"
       refY="0"
       refX="0"
       id="marker1726"
       style="overflow:visible"
       inkscape:isstock="true"
       inkscape:collect="always">
      <path
         id="path1724"
         d="M 0,5.65 V -5.65"
         style="fill:none;fill-opacity:0.75;fill-rule:evenodd;stroke:#000000;stroke-width:1.00000003pt;stroke-opacity:1"
         transform="scale(0.8)"
         inkscape:connector-curvature="0" />
    </marker>
    <marker
       inkscape:stockid="StopM"
       orient="auto"
       refY="0"
       refX="0"
       id="marker1188"
       style="overflow:visible"
       inkscape:isstock="true">
      <path
         id="path1186"
         d="M 0,5.65 V -5.65"
         style="fill:none;fill-opacity:0.75;fill-rule:evenodd;stroke:#000000;stroke-width:1.00000003pt;stroke-opacity:1"
         transform="scale(0.4)"
         inkscape:connector-curvature="0" />
    </marker>
    <marker
       inkscape:stockid="StopM"
       orient="auto"
       refY="0"
       refX="0"
       id="StopM"
       style="overflow:visible"
       inkscape:isstock="true">
      <path
         id="path1062"
         d="M 0,5.65 V -5.65"
         style="fill:none;fill-opacity:0.75;fill-rule:evenodd;stroke:#000000;stroke-width:1.00000003pt;stroke-opacity:1"
         transform="scale(0.4)"
         inkscape:connector-curvature="0" />
    </marker>
    <marker
       inkscape:stockid="StopL"
       orient="auto"
       refY="0"
       refX="0"
       id="StopL"
       style="overflow:visible"
       inkscape:isstock="true"
       inkscape:collect="always">
      <path
         id="path1059"
         d="M 0,5.65 V -5.65"
         style="fill:none;fill-opacity:0.75;fill-rule:evenodd;stroke:#000000;stroke-width:1.00000003pt;stroke-opacity:1"
         transform="scale(0.8)"
         inkscape:connector-curvature="0" />
    </marker>
    <marker
       inkscape:stockid="Arrow1Send"
       orient="auto"
       refY="0"
       refX="0"
       id="Arrow1Send"
       style="overflow:visible"
       inkscape:isstock="true">
      <path
         id="path844"
         d="M 0,0 5,-5 -12.5,0 5,5 Z"
         style="fill:#000000;fill-opacity:1;fill-rule:evenodd;stroke:#000000;stroke-width:1.00000003pt;stroke-opacity:1"
         transform="matrix(-0.2,0,0,-0.2,-1.2,0)"
         inkscape:connector-curvature="0" />
    </marker>
    <marker
       inkscape:isstock="true"
       style="overflow:visible"
       id="marker5349"
       refX="0"
       refY="0"
       orient="auto"
       inkscape:stockid="Arrow2Mend">
      <path
         inkscape:connector-curvature="0"
         transform="scale(-0.6)"
         d="M 8.7185878,4.0337352 -2.2072895,0.01601326 8.7185884,-4.0017078 c -1.7454984,2.3720609 -1.7354408,5.6174519 -6e-7,8.035443 z"
         style="fill:#000000;fill-opacity:1;fill-rule:evenodd;stroke:#000000;stroke-width:0.625;stroke-linejoin:round;stroke-opacity:1"
         id="path5347" />
    </marker>
    <marker
       inkscape:isstock="true"
       style="overflow:visible"
       id="marker4873"
       refX="0"
       refY="0"
       orient="auto"
       inkscape:stockid="Arrow2Mend">
      <path
         inkscape:connector-curvature="0"
         transform="scale(-0.6)"
         d="M 8.7185878,4.0337352 -2.2072895,0.01601326 8.7185884,-4.0017078 c -1.7454984,2.3720609 -1.7354408,5.6174519 -6e-7,8.035443 z"
         style="fill:#4d4d4d;fill-opacity:1;fill-rule:evenodd;stroke:#4d4d4d;stroke-width:0.625;stroke-linejoin:round;stroke-opacity:1"
         id="path4871" />
    </marker>
    <marker
       inkscape:isstock="true"
       style="overflow:visible"
       id="marker4783"
       refX="0"
       refY="0"
       orient="auto"
       inkscape:stockid="Arrow2Send">
      <path
         inkscape:connector-curvature="0"
         transform="matrix(-0.3,0,0,-0.3,0.69,0)"
         d="M 8.7185878,4.0337352 -2.2072895,0.01601326 8.7185884,-4.0017078 c -1.7454984,2.3720609 -1.7354408,5.6174519 -6e-7,8.035443 z"
         style="fill:#4d4d4d;fill-opacity:1;fill-rule:evenodd;stroke:#4d4d4d;stroke-width:0.625;stroke-linejoin:round;stroke-opacity:1"
         id="path4781" />
    </marker>
    <marker
       inkscape:stockid="Arrow2Send"
       orient="auto"
       refY="0"
       refX="0"
       id="marker4707"
       style="overflow:visible"
       inkscape:isstock="true">
      <path
         inkscape:connector-curvature="0"
         id="path4705"
         style="fill:#4d4d4d;fill-opacity:1;fill-rule:evenodd;stroke:#4d4d4d;stroke-width:0.625;stroke-linejoin:round;stroke-opacity:1"
         d="M 8.7185878,4.0337352 -2.2072895,0.01601326 8.7185884,-4.0017078 c -1.7454984,2.3720609 -1.7354408,5.6174519 -6e-7,8.035443 z"
         transform="matrix(-0.3,0,0,-0.3,0.69,0)" />
    </marker>
    <marker
       inkscape:isstock="true"
       style="overflow:visible"
       id="marker1762"
       refX="0"
       refY="0"
       orient="auto"
       inkscape:stockid="Arrow2Send">
      <path
         transform="matrix(-0.3,0,0,-0.3,0.69,0)"
         d="M 8.7185878,4.0337352 -2.2072895,0.01601326 8.7185884,-4.0017078 c -1.7454984,2.3720609 -1.7354408,5.6174519 -6e-7,8.035443 z"
         style="fill:#000000;fill-opacity:1;fill-rule:evenodd;stroke:#000000;stroke-width:0.625;stroke-linejoin:round;stroke-opacity:1"
         id="path1760"
         inkscape:connector-curvature="0" />
    </marker>
    <marker
       inkscape:isstock="true"
       style="overflow:visible"
       id="marker1357"
       refX="0"
       refY="0"
       orient="auto"
       inkscape:stockid="Arrow2Mstart">
      <path
         transform="scale(0.6)"
         d="M 8.7185878,4.0337352 -2.2072895,0.01601326 8.7185884,-4.0017078 c -1.7454984,2.3720609 -1.7354408,5.6174519 -6e-7,8.035443 z"
         style="fill:#00ccff;fill-opacity:1;fill-rule:evenodd;stroke:#00ccff;stroke-width:0.625;stroke-linejoin:round;stroke-opacity:1"
         id="path1355"
         inkscape:connector-curvature="0" />
    </marker>
    <marker
       inkscape:stockid="Arrow1Sstart"
       orient="auto"
       refY="0"
       refX="0"
       id="Arrow1Sstart"
       style="overflow:visible"
       inkscape:isstock="true">
      <path
         id="path841"
         d="M 0,0 5,-5 -12.5,0 5,5 Z"
         style="fill:#000000;fill-opacity:1;fill-rule:evenodd;stroke:#000000;stroke-width:1.00000003pt;stroke-opacity:1"
         transform="matrix(0.2,0,0,0.2,1.2,0)"
         inkscape:connector-curvature="0" />
    </marker>
    <clipPath
       id="clipPath294"
       clipPathUnits="userSpaceOnUse">
      <path
         inkscape:connector-curvature="0"
         id="path296"
         d="m 630.817,573.592 -1.519,-1.251 c -1.381,-1.137 -34.011,-28.423 -49.904,-76.916 v 0 c -9.353,-28.535 -10.914,-58.461 -4.642,-88.946 v 0 c 7.753,-37.687 27.575,-76.244 58.915,-114.598 v 0 l 2.812,-3.444 84.301,15.726 42.692,6.099 75.278,29.189 44.723,33.929 27.822,27.417 -45.735,55.375 -69.08,66.184 -47.008,36.915 -46.508,27.147 z" />
    </clipPath>
    <linearGradient
       id="linearGradient302"
       spreadMethod="pad"
       gradientTransform="matrix(0,297.9805,297.9805,0,741.13867,288.4375)"
       gradientUnits="userSpaceOnUse"
       y2="0"
       x2="1"
       y1="0"
       x1="0">
      <stop
         id="stop304"
         offset="0"
         style="stop-opacity:1;stop-color:#808080" />
      <stop
         id="stop306"
         offset="0.0686275"
         style="stop-opacity:1;stop-color:#808080" />
      <stop
         id="stop308"
         offset="0.1909014"
         style="stop-opacity:1;stop-color:#ffffff" />
      <stop
         id="stop310"
         offset="0.490426"
         style="stop-opacity:1;stop-color:#ffffff" />
      <stop
         id="stop312"
         offset="0.82319558"
         style="stop-opacity:1;stop-color:#ffffff" />
      <stop
         id="stop314"
         offset="0.906863"
         style="stop-opacity:1;stop-color:#808080" />
      <stop
         id="stop316"
         offset="1"
         style="stop-opacity:1;stop-color:#808080" />
    </linearGradient>
    <clipPath
       id="clipPath324"
       clipPathUnits="userSpaceOnUse">
      <path
         inkscape:connector-curvature="0"
         id="path326"
         d="M 0,1500 H 1500 V 0 H 0 Z" />
    </clipPath>
    <clipPath
       id="clipPath336"
       clipPathUnits="userSpaceOnUse">
      <path
         inkscape:connector-curvature="0"
         id="path338"
         d="m 594.814,437.589 c 0,-63.533 27.355,-115.037 54.932,-115.037 v 0 c 13.656,0 26.029,12.635 35.043,33.101 v 0 c -23.434,7.047 -41.247,42.072 -41.247,84.25 v 0 c 0,41.054 16.876,75.34 39.387,83.636 v 0 c -8.822,18.09 -20.444,29.087 -33.183,29.087 v 0 c -27.577,0 -54.932,-51.504 -54.932,-115.037" />
    </clipPath>
    <linearGradient
       id="linearGradient344"
       spreadMethod="pad"
       gradientTransform="matrix(105.74003,0,0,-105.74003,594.81348,437.58911)"
       gradientUnits="userSpaceOnUse"
       y2="0"
       x2="1"
       y1="0"
       x1="0">
      <stop
         id="stop346"
         offset="0"
         style="stop-opacity:1;stop-color:#00ffff" />
      <stop
         id="stop348"
         offset="0.59687951"
         style="stop-opacity:1;stop-color:#004745" />
      <stop
         id="stop350"
         offset="1"
         style="stop-opacity:1;stop-color:#004745" />
    </linearGradient>
  </defs>
  <metadata
     id="metadata5">
    <rdf:RDF>
      <cc:Work
         rdf:about="">
        <dc:format>image/svg+xml</dc:format>
        <dc:type
           rdf:resource="http://purl.org/dc/dcmitype/StillImage" />
        <dc:title></dc:title>
      </cc:Work>
    </rdf:RDF>
  </metadata>
  <g
     inkscape:label="Layer 1"
     inkscape:groupmode="layer"
     id="layer1"
     transform="translate(-91.428152,-60.804651)">
    <g
       id="g3775"
       transform="matrix(-0.00419468,7.6151125e-4,7.6151125e-4,0.00419468,99.559564,73.684447)">
      <g
         transform="matrix(1.25,0,0,-1.25,-667.45327,77.549613)"
         id="g4006">
        <g
           id="g290">
          <g
             id="g292"
             clip-path="url(#clipPath294)">
            <g
               id="g298">
              <g
                 id="g300">
                <path
                   d="m 630.817,573.592 -1.519,-1.251 c -1.381,-1.137 -34.011,-28.423 -49.904,-76.916 v 0 c -9.353,-28.535 -10.914,-58.461 -4.642,-88.946 v 0 c 7.753,-37.687 27.575,-76.244 58.915,-114.598 v 0 l 2.812,-3.444 84.301,15.726 42.692,6.099 75.278,29.189 44.723,33.929 27.822,27.417 -45.735,55.375 -69.08,66.184 -47.008,36.915 -46.508,27.147 z"
                   style="fill:url(#linearGradient302);stroke:none"
                   id="path318"
                   inkscape:connector-curvature="0" />
              </g>
            </g>
          </g>
        </g>
        <g
           id="g320">
          <g
             id="g322"
             clip-path="url(#clipPath324)">
            <g
               id="g328"
               transform="translate(704.365,594.2855)">
              <path
                 d="m 0,0 -5.427,-0.965 -67.497,-11.999 -3.874,-0.689 -3.037,-2.502 c -1.45,-1.194 -35.7,-29.831 -52.263,-80.369 -9.765,-29.793 -11.4,-61.013 -4.861,-92.795 8,-38.884 28.339,-78.529 60.453,-117.831 l 5.625,-6.886 8.741,1.631 79.774,14.881 41.683,5.954 1.7,0.243 1.601,0.621 73.497,28.499 1.964,0.762 1.679,1.273 43.497,32.998 0.773,0.586 0.69,0.681 22.583,22.255 9.785,9.643 -8.748,10.593 -41.082,49.741 -0.557,0.674 -0.631,0.605 -68.497,65.627 -0.533,0.511 -0.58,0.456 -46.313,36.367 -0.812,0.637 -0.89,0.52 L 4.76,-2.779 Z m -2.802,-15.733 43.683,-25.499 46.313,-36.368 68.496,-65.627 41.083,-49.741 -22.583,-22.255 -43.498,-32.999 -73.497,-28.498 -41.997,-6 -80.089,-14.94 c -134,164 -5.407,269.927 -5.407,269.927 l 67.496,12"
                 style="fill:#000000;fill-opacity:1;fill-rule:nonzero;stroke:none"
                 id="path330"
                 inkscape:connector-curvature="0" />
            </g>
          </g>
        </g>
        <g
           id="g332">
          <g
             id="g334"
             clip-path="url(#clipPath336)">
            <g
               id="g340">
              <g
                 id="g342">
                <path
                   d="m 594.814,437.589 c 0,-63.533 27.355,-115.037 54.932,-115.037 v 0 c 13.656,0 26.029,12.635 35.043,33.101 v 0 c -23.434,7.047 -41.247,42.072 -41.247,84.25 v 0 c 0,41.054 16.876,75.34 39.387,83.636 v 0 c -8.822,18.09 -20.444,29.087 -33.183,29.087 v 0 c -27.577,0 -54.932,-51.504 -54.932,-115.037"
                   style="fill:url(#linearGradient344);stroke:none"
                   id="path352"
                   inkscape:connector-curvature="0" />
              </g>
            </g>
          </g>
        </g>
        <g
           id="g3994"
           transform="translate(-382.2702,-552.61363)">
          <g
             transform="translate(1064.2847,1076.5051)"
             id="g362">
            <path
               inkscape:connector-curvature="0"
               id="path364"
               style="fill:#000000;fill-opacity:1;fill-rule:nonzero;stroke:none"
               d="m 0,0 c -22.511,-8.296 -39.387,-42.582 -39.387,-83.636 0,-42.178 17.814,-77.203 41.248,-84.25 9.189,20.864 14.888,49.865 14.888,81.936 C 16.749,-51.766 10.275,-21.07 0,0" />
          </g>
          <g
             transform="translate(913.13633,758.478)"
             id="g366">
            <path
               inkscape:connector-curvature="0"
               id="path368"
               style="fill:#000000;fill-opacity:1;fill-rule:nonzero;stroke:none"
               d="m 0,0 c 0,0 0.304,2.137 1.274,6.066 0.974,3.922 2.613,9.648 5.343,16.674 2.699,7.046 6.513,15.384 11.76,24.373 11.859,20.313 25.957,39.236 45.969,52.054 19.32,12.373 41.525,19.634 63.886,24.169 1.795,0.365 3.593,0.711 5.395,1.04 32.673,5.982 66.094,7 98.791,12.851 47.786,8.551 94.42,27.09 133.197,56.343 2.309,1.742 4.681,3.404 7.228,4.783 10.997,5.954 12.431,-0.3 12.451,-0.334 4.587,-7.639 -0.97,-14.593 -6.286,-20.636 -7.875,-8.952 -17.185,-15.891 -26.667,-23.052 -19.203,-14.503 -38.946,-28.4 -59.94,-40.209 C 268.6,100.733 243.069,90.088 216.133,85.068 188.91,79.994 160.978,80.737 133.382,78.435 103.723,75.961 76.322,68.84 51.561,51.916 43.168,46.239 35.708,40.084 29.267,34.096 22.812,28.118 17.425,22.258 13.091,17.18 4.441,6.986 0,0 0,0" />
          </g>
          <g
             transform="translate(1004.3023,1197.9946)"
             id="g370">
            <path
               inkscape:connector-curvature="0"
               id="path372"
               style="fill:#000000;fill-opacity:1;fill-rule:nonzero;stroke:none"
               d="M 0,0 0.028,0.002 0.081,0.019 C 0.147,0.041 0.307,0.095 0,0" />
          </g>
          <g
             transform="translate(1314.4975,939.214)"
             id="g374">
            <path
               inkscape:connector-curvature="0"
               id="path376"
               style="fill:#000000;fill-opacity:1;fill-rule:nonzero;stroke:none"
               d="m 0,0 c -5.28,6.788 -10.656,13.498 -16.091,20.161 -5.427,6.671 -10.898,13.31 -16.413,19.918 -5.506,6.618 -11.141,13.12 -16.774,19.636 -11.319,12.979 -22.716,25.933 -34.502,38.552 -11.768,12.636 -23.753,25.111 -36.015,37.38 -6.109,6.159 -12.351,12.194 -18.712,18.124 -6.343,5.951 -12.755,11.85 -19.284,17.656 -13.014,11.663 -26.515,22.887 -40.431,33.918 -6.931,5.565 -14.025,11.005 -21.29,16.379 -7.256,5.383 -14.812,10.529 -22.701,15.439 -7.914,4.87 -16.225,9.417 -25.185,13.292 -8.971,3.83 -18.555,7.132 -29.1,9.102 -10.948,-0.621 -21.387,-3.373 -32.303,-4.665 -11.932,-1.414 -23.996,-1.69 -35.982,-0.867 -23.974,1.646 -47.661,7.692 -69.428,17.891 -4.17,1.954 -8.269,4.06 -12.284,6.316 -3.603,2.024 -7.23,5.141 -11.336,5.972 -3.224,0.65 6.989,-18.86 7.739,-20.149 8.652,-14.887 18.357,-29.217 28.427,-43.174 10.293,-14.266 20.514,-28.838 35.094,-38.957 19.552,-13.57 42.621,-22.075 66.32,-24.329 15.417,-1.466 30.927,-0.724 46.206,1.737 8.029,1.293 15.98,3.055 23.829,5.179 3.356,0.908 20.836,8.781 23.178,7.404 1.268,-0.746 2.535,-1.49 3.8,-2.247 7.059,-4.268 13.958,-8.886 20.836,-13.573 6.879,-4.69 13.687,-9.55 20.456,-14.492 6.774,-4.937 13.483,-10.004 20.153,-15.144 l 19.955,-15.578 c 13.285,-10.464 26.401,-21.222 39.368,-32.199 12.966,-10.976 25.926,-22.031 38.687,-33.333 L -44.7,28.305 c 6.36,-5.693 12.688,-11.429 18.983,-17.207 12.557,-11.578 25.14,-23.2 37.489,-35.02 l 3.903,3.422 C 10.552,-13.563 5.292,-6.781 0,0" />
          </g>
          <g
             transform="translate(1051.1575,1045.4095)"
             id="g378">
            <path
               inkscape:connector-curvature="0"
               id="path380"
               style="fill:#ffffff;fill-opacity:1;fill-rule:nonzero;stroke:none"
               d="m 0,0 c 0,-8.284 -6.716,-15 -15,-15 -8.284,0 -15,6.716 -15,15 0,8.284 6.716,15 15,15 C -6.716,15 0,8.284 0,0" />
          </g>
        </g>
      </g>
    </g>
    <ellipse
       style="opacity:1;fill:#4d4d4d;fill-opacity:1;stroke:#4d4d4d;stroke-width:0.06825155;stroke-miterlimit:4;stroke-dasharray:none;stroke-dashoffset:0;stroke-opacity:1"
       id="path882"
       cx="107.32176"
       cy="71.647018"
       rx="0.25946218"
       ry="1.0378487" />
    <path
       style="fill:none;stroke:#000000;stroke-width:0.13229167;stroke-linecap:butt;stroke-linejoin:miter;stroke-miterlimit:4;stroke-dasharray:none;stroke-opacity:1"
       d="M 99.046522,71.555576 162.96237,63.600385"
       id="path884"
       inkscape:connector-curvature="0"
       sodipodi:nodetypes="cc" />
    <path
       inkscape:connector-curvature="0"
       id="path886"
       d="m 99.046522,71.79274 63.824408,7.406557"
       style="fill:none;stroke:#000000;stroke-width:0.13229167;stroke-linecap:butt;stroke-linejoin:miter;stroke-miterlimit:4;stroke-dasharray:none;stroke-opacity:1"
       sodipodi:nodetypes="cc" />
    <path
       style="fill:none;stroke:#000000;stroke-width:0.13229167;stroke-linecap:butt;stroke-linejoin:miter;stroke-miterlimit:4;stroke-dasharray:none;stroke-opacity:1;marker-start:url(#StopL);marker-end:url(#marker1726)"
       d="m 98.223571,74.298745 c 8.869579,0 8.869579,0 8.869579,0"
       id="path888"
       inkscape:connector-curvature="0" />
    <path
       inkscape:connector-curvature="0"
       id="path4136"
       d="m 98.651518,81.177913 c 64.522972,0 64.522972,0 64.522972,0"
       style="fill:none;stroke:#000000;stroke-width:0.13229167;stroke-linecap:butt;stroke-linejoin:miter;stroke-miterlimit:4;stroke-dasharray:none;stroke-opacity:1;marker-start:url(#marker4140);marker-end:url(#marker4310)" />
    <circle
       r="7.5418196"
       cy="71.356392"
       cx="163.1815"
       id="circle6052"
       style="opacity:1;fill:#b3b3b3;fill-opacity:1;stroke:#b3b3b3;stroke-width:0.7281757;stroke-miterlimit:4;stroke-dasharray:none;stroke-dashoffset:0;stroke-opacity:1" />
    <text
       xml:space="preserve"
       style="font-style:normal;font-weight:normal;font-size:1.76388884px;line-height:1.25;font-family:sans-serif;letter-spacing:0px;word-spacing:0px;fill:#000000;fill-opacity:1;stroke:none;stroke-width:0.26458332"
       x="93.976662"
       y="77.022446"
       id="text11952"><tspan
         sodipodi:role="line"
         id="tspan11950"
         x="93.976662"
         y="77.022446"
         style="stroke-width:0.26458332">distància a la moneda</tspan></text>
    <text
       xml:space="preserve"
       style="font-style:normal;font-weight:normal;font-size:1.76388884px;line-height:1.25;font-family:sans-serif;letter-spacing:0px;word-spacing:0px;fill:#000000;fill-opacity:1;stroke:none;stroke-width:0.26458332"
       x="121.00723"
       y="82.985451"
       id="text11956"><tspan
         sodipodi:role="line"
         id="tspan11954"
         x="121.00723"
         y="82.985451"
         style="stroke-width:0.26458332">distància a la Lluna</tspan></text>
    <text
       xml:space="preserve"
       style="font-style:normal;font-weight:normal;font-size:1.76388884px;line-height:1.25;font-family:sans-serif;letter-spacing:0px;word-spacing:0px;fill:#000000;fill-opacity:1;stroke:none;stroke-width:0.26458332"
       x="160.72888"
       y="71.444672"
       id="text11960"><tspan
         sodipodi:role="line"
         id="tspan11958"
         x="160.72888"
         y="71.444672"
         style="stroke-width:0.26458332">Lluna</tspan></text>
    <text
       xml:space="preserve"
       style="font-style:normal;font-weight:normal;font-size:1.76388884px;line-height:1.25;font-family:sans-serif;letter-spacing:0px;word-spacing:0px;fill:#000000;fill-opacity:1;stroke:none;stroke-width:0.26458332"
       x="108.30721"
       y="65.337723"
       id="text11964"><tspan
         sodipodi:role="line"
         id="tspan11962"
         x="108.30721"
         y="65.337723"
         style="stroke-width:0.26458332">moneda</tspan></text>
    <path
       style="fill:none;stroke:#000000;stroke-width:0.13229167;stroke-linecap:butt;stroke-linejoin:miter;stroke-miterlimit:4;stroke-dasharray:none;stroke-opacity:1"
       d="m 110.38496,66.069237 c -2.92605,3.840437 -2.92605,3.840437 -2.92605,3.840437"
       id="path11978"
       inkscape:connector-curvature="0" />
  </g>
</svg>
