<?xml version="1.0" encoding="UTF-8" standalone="no"?>
<!-- Created with Inkscape (http://www.inkscape.org/) -->

<svg
   xmlns:dc="http://purl.org/dc/elements/1.1/"
   xmlns:cc="http://creativecommons.org/ns#"
   xmlns:rdf="http://www.w3.org/1999/02/22-rdf-syntax-ns#"
   xmlns:svg="http://www.w3.org/2000/svg"
   xmlns="http://www.w3.org/2000/svg"
   xmlns:sodipodi="http://sodipodi.sourceforge.net/DTD/sodipodi-0.dtd"
   xmlns:inkscape="http://www.inkscape.org/namespaces/inkscape"
   width="101.42096"
   height="71.198532"
   viewBox="0 0 101.42096 71.198532"
   id="svg2"
   version="1.1"
   inkscape:version="0.91 r13725"
   sodipodi:docname="angle.svg"
   inkscape:export-filename="/home/joseluis/jtouron@virolai.com/Materies_i_projectes/Fisica_1/U2_Moviment/img/circular1.svg.png"
   inkscape:export-xdpi="300"
   inkscape:export-ydpi="300">
  <sodipodi:namedview
     id="base"
     pagecolor="#ffffff"
     bordercolor="#666666"
     borderopacity="1.0"
     inkscape:pageopacity="0.0"
     inkscape:pageshadow="2"
     inkscape:zoom="2.4093789"
     inkscape:cx="-40.780283"
     inkscape:cy="24.34264"
     inkscape:document-units="px"
     inkscape:current-layer="layer1"
     showgrid="false"
     fit-margin-top="10"
     fit-margin-left="10"
     fit-margin-right="10"
     fit-margin-bottom="10"
     units="px"
     inkscape:window-width="1319"
     inkscape:window-height="744"
     inkscape:window-x="47"
     inkscape:window-y="24"
     inkscape:window-maximized="1" />
  <defs
     id="defs4">
    <marker
       inkscape:isstock="true"
       style="overflow:visible"
       id="Arrow1Mstart"
       refX="0"
       refY="0"
       orient="auto"
       inkscape:stockid="Arrow1Mstart">
      <path
         transform="matrix(0.4,0,0,0.4,4,0)"
         style="fill:#000000;fill-opacity:1;fill-rule:evenodd;stroke:#000000;stroke-width:1pt;stroke-opacity:1"
         d="M 0,0 5,-5 -12.5,0 5,5 0,0 Z"
         id="path4247"
         inkscape:connector-curvature="0" />
    </marker>
    <marker
       inkscape:isstock="true"
       style="overflow:visible"
       id="Arrow1Mend"
       refX="0"
       refY="0"
       orient="auto"
       inkscape:stockid="Arrow1Mend">
      <path
         transform="matrix(-0.4,0,0,-0.4,-4,0)"
         style="fill:#000000;fill-opacity:1;fill-rule:evenodd;stroke:#000000;stroke-width:1pt;stroke-opacity:1"
         d="M 0,0 5,-5 -12.5,0 5,5 0,0 Z"
         id="path4250"
         inkscape:connector-curvature="0" />
    </marker>
  </defs>
  <metadata
     id="metadata7">
    <rdf:RDF>
      <cc:Work
         rdf:about="">
        <dc:format>image/svg+xml</dc:format>
        <dc:type
           rdf:resource="http://purl.org/dc/dcmitype/StillImage" />
        <dc:title></dc:title>
      </cc:Work>
    </rdf:RDF>
  </metadata>
  <g
     inkscape:label="Layer 1"
     inkscape:groupmode="layer"
     id="layer1"
     transform="translate(-122.37939,-70.08836)">
    <path
       d="m 192.84585,80.564844 a 78.330467,78.330467 0 0 1 18.341,50.025086"
       sodipodi:open="true"
       sodipodi:end="6.2787974"
       sodipodi:start="5.5847379"
       sodipodi:ry="78.330467"
       sodipodi:rx="78.330467"
       sodipodi:cy="130.93364"
       sodipodi:cx="132.85713"
       sodipodi:type="arc"
       style="opacity:1;fill:none;stroke:#000000;stroke-width:1.48199999;stroke-miterlimit:4;stroke-dasharray:none;stroke-dashoffset:0"
       id="path3336" />
    <path
       sodipodi:nodetypes="cc"
       style="fill:none;fill-rule:evenodd;stroke:#000000;stroke-width:1;stroke-linecap:butt;stroke-linejoin:miter;stroke-miterlimit:4;stroke-dasharray:4, 2, 1, 2;stroke-dashoffset:0;stroke-opacity:1"
       d="m 132.37939,130.78689 79.57085,0"
       id="path4138"
       inkscape:connector-curvature="0" />
    <path
       style="fill:none;fill-rule:evenodd;stroke:#000000;stroke-width:1px;stroke-linecap:butt;stroke-linejoin:miter;stroke-opacity:1"
       d="M 133.02028,130.77049 192.78672,80.550074"
       id="path4161"
       inkscape:connector-curvature="0" />
    <path
       style="opacity:1;fill:none;stroke:#000000;stroke-width:1;stroke-miterlimit:4;stroke-dasharray:none;stroke-dashoffset:0"
       id="path4163"
       sodipodi:type="arc"
       sodipodi:cx="-186.53362"
       sodipodi:cy="14.187811"
       sodipodi:rx="13.073909"
       sodipodi:ry="13.073909"
       sodipodi:start="1.5622596"
       sodipodi:end="2.4329664"
       sodipodi:open="true"
       d="m -186.42201,27.261243 a 13.073909,13.073909 0 0 1 -10.03806,-4.565045"
       transform="matrix(-0.67077886,-0.74165742,0.74165742,-0.67077886,0,0)" />
    <g
       id="g4181"
       transform="translate(80.103632,94.422675)">
      <g
         word-spacing="normal"
         letter-spacing="normal"
         font-size-adjust="none"
         font-stretch="normal"
         font-weight="normal"
         font-variant="normal"
         font-style="normal"
         stroke-miterlimit="10.433"
         xml:space="preserve"
         transform="matrix(0.2544899,0,0,-0.2544899,-44.535733,133.6072)"
         id="g4183"
         style="font-style:normal;font-variant:normal;font-weight:normal;font-stretch:normal;letter-spacing:normal;word-spacing:normal;text-anchor:start;fill:none;fill-opacity:1;fill-rule:evenodd;stroke:#000000;stroke-linecap:butt;stroke-linejoin:miter;stroke-miterlimit:10.43299961;stroke-dasharray:none;stroke-dashoffset:0;stroke-opacity:1"><path
           id="path4185"
           d="m 464.47,397.53 -0.01,-0.03 -0.01,-0.03 -0.01,-0.03 -0.01,-0.02 -0.01,-0.06 -0.02,-0.05 -0.01,-0.05 -0.02,-0.04 -0.01,-0.04 -0.01,-0.04 -0.02,-0.04 -0.01,-0.04 -0.01,-0.03 -0.01,-0.03 -0.01,-0.03 -0.01,-0.03 0,-0.03 -0.01,-0.03 -0.01,-0.02 0,-0.03 -0.01,-0.02 0,-0.02 -0.01,-0.02 0,-0.02 -0.01,-0.05 0,-0.04 -0.01,-0.04 0,-0.04 0,-0.02 0,-0.02 c 0,-1.1 0.94,-1.4 1.44,-1.4 0.25,0 1.35,0.15 1.85,1.3 0.15,0.4 0.4,2.04 1.74,9.11 0.45,-0.05 0.8,-0.1 1.64,-0.1 8.27,0 15.95,7.82 15.95,15.69 l -1.4,-1.09 c 0,-5.63 -6.42,-11.71 -14.1,-11.71 l 0,0 c -0.39,0 -0.5,0 -0.89,0.05 -0.6,0 -0.65,0.05 -0.65,0.2 0,0.1 0.84,4.63 0.99,5.38 1.55,6.38 5.43,11.16 9.87,11.16 3.43,0 4.78,-2.69 4.78,-5.08 l 1.4,1.09 c 0,3.89 -1.95,6.88 -5.68,6.88 -7.23,0 -10.21,-9.66 -13.2,-19.38 -5.39,1 -8.17,3.79 -8.17,7.37 0,1.4 1.14,6.88 4.13,10.31 0.4,0.45 0.4,0.55 0.4,0.65 0,0.2 -0.1,0.5 -0.6,0.5 -1.39,0 -5.23,-7.22 -5.23,-12.01 0,-4.68 3.29,-8.32 8.62,-9.56 z"
           inkscape:connector-curvature="0"
           style="fill:#000000;stroke-width:0" /></g>    </g>
    <g
       transform="translate(88.819571,70.972648)"
       id="g4214">
      <g
         style="font-style:normal;font-variant:normal;font-weight:normal;font-stretch:normal;letter-spacing:normal;word-spacing:normal;text-anchor:start;fill:none;fill-opacity:1;fill-rule:evenodd;stroke:#000000;stroke-linecap:butt;stroke-linejoin:miter;stroke-miterlimit:10.43299961;stroke-dasharray:none;stroke-dashoffset:0;stroke-opacity:1"
         id="content"
         transform="matrix(0.2544899,0,0,-0.2544899,-44.535733,133.6072)"
         xml:space="preserve"
         stroke-miterlimit="10.433"
         font-style="normal"
         font-variant="normal"
         font-weight="normal"
         font-stretch="normal"
         font-size-adjust="none"
         letter-spacing="normal"
         word-spacing="normal"><path
           style="fill:#000000;stroke-width:0"
           inkscape:connector-curvature="0"
           d="m 460.38,408.94 -0.01,-0.07 -0.02,-0.08 -0.01,-0.07 -0.02,-0.08 -0.03,-0.16 -0.04,-0.16 -0.04,-0.16 -0.03,-0.16 -0.04,-0.16 -0.04,-0.16 -0.01,-0.08 -0.02,-0.07 -0.02,-0.07 -0.01,-0.07 -0.02,-0.07 -0.01,-0.07 -0.01,-0.06 -0.02,-0.06 -0.01,-0.05 -0.01,-0.06 -0.01,-0.05 0,-0.04 -0.01,-0.04 0,-0.04 -0.01,-0.03 0,-0.02 c 0,-0.9 0.7,-1.35 1.45,-1.35 0.6,0 1.5,0.4 1.84,1.4 0.1,0.2 1.8,6.97 1.99,7.87 0.4,1.64 1.3,5.13 1.6,6.47 0.2,0.65 1.59,2.99 2.79,4.09 0.4,0.34 1.84,1.64 3.99,1.64 1.29,0 2.03,-0.6 2.09,-0.6 -1.5,-0.25 -2.59,-1.44 -2.59,-2.73 0,-0.8 0.54,-1.75 1.89,-1.75 1.34,0 2.74,1.14 2.74,2.94 0,1.74 -1.6,3.24 -4.13,3.24 -3.24,0 -5.43,-2.44 -6.38,-3.84 -0.4,2.24 -2.19,3.84 -4.53,3.84 -2.3,0 -3.24,-1.95 -3.69,-2.84 -0.9,-1.7 -1.54,-4.68 -1.54,-4.83 0,-0.5 0.49,-0.5 0.59,-0.5 0.5,0 0.55,0.05 0.85,1.14 0.84,3.54 1.84,5.93 3.64,5.93 0.84,0 1.54,-0.4 1.54,-2.29 0,-1.04 -0.15,-1.59 -0.8,-4.18 z"
           id="path4217" /></g>    </g>
    <g
       id="g4215"
       transform="translate(136.96476,71.387692)">
      <g
         word-spacing="normal"
         letter-spacing="normal"
         font-size-adjust="none"
         font-stretch="normal"
         font-weight="normal"
         font-variant="normal"
         font-style="normal"
         stroke-miterlimit="10.433"
         xml:space="preserve"
         transform="matrix(0.2544899,0,0,-0.2544899,-44.535733,133.6072)"
         id="g4217"
         style="font-style:normal;font-variant:normal;font-weight:normal;font-stretch:normal;letter-spacing:normal;word-spacing:normal;text-anchor:start;fill:none;fill-opacity:1;fill-rule:evenodd;stroke:#000000;stroke-linecap:butt;stroke-linejoin:miter;stroke-miterlimit:10.43299961;stroke-dasharray:none;stroke-dashoffset:0;stroke-opacity:1"><path
           id="path4219"
           d="m 475.48,424.63 -0.13,-0.01 -0.13,-0.01 -0.12,-0.02 -0.13,-0.03 -0.12,-0.03 -0.11,-0.03 -0.11,-0.04 -0.12,-0.05 -0.1,-0.05 -0.11,-0.05 -0.1,-0.06 -0.09,-0.06 -0.1,-0.07 -0.08,-0.07 -0.09,-0.07 -0.08,-0.08 -0.08,-0.08 -0.07,-0.08 -0.07,-0.09 -0.07,-0.08 -0.06,-0.09 -0.05,-0.1 -0.05,-0.09 -0.05,-0.1 -0.04,-0.09 -0.03,-0.1 -0.03,-0.1 -0.03,-0.1 -0.02,-0.11 -0.01,-0.1 -0.01,-0.1 0,-0.1 c 0,-0.7 0.45,-1.44 1.54,-1.44 1.1,0 2.29,0.84 2.29,2.78 0,2.25 -2.14,4.29 -5.93,4.29 -6.57,0 -8.42,-5.08 -8.42,-7.27 0,-3.89 3.69,-4.64 5.14,-4.94 2.59,-0.49 5.18,-1.04 5.18,-3.78 0,-1.3 -1.15,-5.48 -7.13,-5.48 -0.69,0 -4.53,0 -5.67,2.64 1.89,-0.25 3.13,1.24 3.13,2.64 0,1.14 -0.79,1.74 -1.84,1.74 -1.29,0 -2.79,-1.04 -2.79,-3.28 0,-2.84 2.84,-4.84 7.12,-4.84 8.08,0 10.02,6.03 10.02,8.27 0,1.8 -0.95,3.04 -1.55,3.64 -1.34,1.39 -2.79,1.64 -4.98,2.09 -1.79,0.4 -3.79,0.75 -3.79,2.99 0,1.44 1.2,4.48 5.58,4.48 1.25,0 3.74,-0.35 4.49,-2.29 z"
           inkscape:connector-curvature="0"
           style="fill:#000000;stroke-width:0" /></g>    </g>
  </g>
</svg>
