<?xml version="1.0" encoding="UTF-8" standalone="no"?>
<!-- Created with Inkscape (http://www.inkscape.org/) -->

<svg
   xmlns:dc="http://purl.org/dc/elements/1.1/"
   xmlns:cc="http://creativecommons.org/ns#"
   xmlns:rdf="http://www.w3.org/1999/02/22-rdf-syntax-ns#"
   xmlns:svg="http://www.w3.org/2000/svg"
   xmlns="http://www.w3.org/2000/svg"
   xmlns:sodipodi="http://sodipodi.sourceforge.net/DTD/sodipodi-0.dtd"
   xmlns:inkscape="http://www.inkscape.org/namespaces/inkscape"
   width="178.14293"
   height="178.14293"
   viewBox="0 0 178.14293 178.14293"
   id="svg2"
   version="1.1"
   inkscape:version="0.91 r13725"
   sodipodi:docname="circular1.svg"
   inkscape:export-filename="/home/joseluis/jtouron@virolai.com/Materies_i_projectes/Fisica_1/U2_Moviment/img/circular1.svg.png"
   inkscape:export-xdpi="300"
   inkscape:export-ydpi="300">
  <sodipodi:namedview
     id="base"
     pagecolor="#ffffff"
     bordercolor="#666666"
     borderopacity="1.0"
     inkscape:pageopacity="0.0"
     inkscape:pageshadow="2"
     inkscape:zoom="2.4093789"
     inkscape:cx="89.071465"
     inkscape:cy="138.87683"
     inkscape:document-units="px"
     inkscape:current-layer="layer1"
     showgrid="false"
     fit-margin-top="10"
     fit-margin-left="10"
     fit-margin-right="10"
     fit-margin-bottom="10"
     units="px"
     inkscape:window-width="1319"
     inkscape:window-height="744"
     inkscape:window-x="47"
     inkscape:window-y="24"
     inkscape:window-maximized="1" />
  <defs
     id="defs4">
    <marker
       inkscape:stockid="Arrow1Mstart"
       orient="auto"
       refY="0.0"
       refX="0.0"
       id="Arrow1Mstart"
       style="overflow:visible"
       inkscape:isstock="true">
      <path
         id="path4247"
         d="M 0.0,0.0 L 5.0,-5.0 L -12.5,0.0 L 5.0,5.0 L 0.0,0.0 z "
         style="fill-rule:evenodd;stroke:#000000;stroke-width:1pt;stroke-opacity:1;fill:#000000;fill-opacity:1"
         transform="scale(0.4) translate(10,0)" />
    </marker>
    <marker
       inkscape:stockid="Arrow1Mend"
       orient="auto"
       refY="0.0"
       refX="0.0"
       id="Arrow1Mend"
       style="overflow:visible;"
       inkscape:isstock="true">
      <path
         id="path4250"
         d="M 0.0,0.0 L 5.0,-5.0 L -12.5,0.0 L 5.0,5.0 L 0.0,0.0 z "
         style="fill-rule:evenodd;stroke:#000000;stroke-width:1pt;stroke-opacity:1;fill:#000000;fill-opacity:1"
         transform="scale(0.4) rotate(180) translate(10,0)" />
    </marker>
  </defs>
  <metadata
     id="metadata7">
    <rdf:RDF>
      <cc:Work
         rdf:about="">
        <dc:format>image/svg+xml</dc:format>
        <dc:type
           rdf:resource="http://purl.org/dc/dcmitype/StillImage" />
        <dc:title />
      </cc:Work>
    </rdf:RDF>
  </metadata>
  <g
     transform="translate(-43.785665,-41.862172)"
     id="layer1"
     inkscape:groupmode="layer"
     inkscape:label="Layer 1">
    <circle
       r="78.330467"
       cy="130.93364"
       cx="132.85713"
       id="path3336"
       style="opacity:1;fill:none;stroke:#000000;stroke-width:1.48199999;stroke-miterlimit:4;stroke-dasharray:none;stroke-dashoffset:0" />
    <path
       inkscape:connector-curvature="0"
       id="path4138"
       d="m 54.350979,130.78689 157.599261,0"
       style="fill:none;fill-rule:evenodd;stroke:#000000;stroke-width:1;stroke-linecap:butt;stroke-linejoin:miter;stroke-opacity:1;stroke-miterlimit:4;stroke-dasharray:4,2,1,2;stroke-dashoffset:0" />
    <path
       inkscape:connector-curvature="0"
       id="path4140"
       d="m 133.00387,52.427486 0,157.012304"
       style="fill:none;fill-rule:evenodd;stroke:#000000;stroke-width:1;stroke-linecap:butt;stroke-linejoin:miter;stroke-opacity:1;stroke-miterlimit:4;stroke-dasharray:4,2,1,2;stroke-dashoffset:0" />
    <path
       inkscape:connector-curvature="0"
       id="path4161"
       d="M 133.02028,130.77049 192.78672,80.550074"
       style="fill:none;fill-rule:evenodd;stroke:#000000;stroke-width:1px;stroke-linecap:butt;stroke-linejoin:miter;stroke-opacity:1" />
    <path
       transform="matrix(-0.67077886,-0.74165742,0.74165742,-0.67077886,0,0)"
       d="m -186.42201,27.261243 a 13.073909,13.073909 0 0 1 -10.03806,-4.565045"
       sodipodi:open="true"
       sodipodi:end="2.4329664"
       sodipodi:start="1.5622596"
       sodipodi:ry="13.073909"
       sodipodi:rx="13.073909"
       sodipodi:cy="14.187811"
       sodipodi:cx="-186.53362"
       sodipodi:type="arc"
       id="path4163"
       style="opacity:1;fill:none;stroke:#000000;stroke-width:1;stroke-miterlimit:4;stroke-dasharray:none;stroke-dashoffset:0" />
    <g
       transform="translate(80.103632,94.422675)"
       id="g4181">
      <g
         style="font-style:normal;font-variant:normal;font-weight:normal;font-stretch:normal;letter-spacing:normal;word-spacing:normal;text-anchor:start;fill:none;fill-opacity:1;fill-rule:evenodd;stroke:#000000;stroke-linecap:butt;stroke-linejoin:miter;stroke-miterlimit:10.43299961;stroke-dasharray:none;stroke-dashoffset:0;stroke-opacity:1"
         id="g4183"
         transform="matrix(0.2544899,0,0,-0.2544899,-44.535733,133.6072)"
         xml:space="preserve"
         stroke-miterlimit="10.433"
         font-style="normal"
         font-variant="normal"
         font-weight="normal"
         font-stretch="normal"
         font-size-adjust="none"
         letter-spacing="normal"
         word-spacing="normal"><path
           style="fill:#000000;stroke-width:0"
           inkscape:connector-curvature="0"
           d="m 464.47,397.53 -0.01,-0.03 -0.01,-0.03 -0.01,-0.03 -0.01,-0.02 -0.01,-0.06 -0.02,-0.05 -0.01,-0.05 -0.02,-0.04 -0.01,-0.04 -0.01,-0.04 -0.02,-0.04 -0.01,-0.04 -0.01,-0.03 -0.01,-0.03 -0.01,-0.03 -0.01,-0.03 0,-0.03 -0.01,-0.03 -0.01,-0.02 0,-0.03 -0.01,-0.02 0,-0.02 -0.01,-0.02 0,-0.02 -0.01,-0.05 0,-0.04 -0.01,-0.04 0,-0.04 0,-0.02 0,-0.02 c 0,-1.1 0.94,-1.4 1.44,-1.4 0.25,0 1.35,0.15 1.85,1.3 0.15,0.4 0.4,2.04 1.74,9.11 0.45,-0.05 0.8,-0.1 1.64,-0.1 8.27,0 15.95,7.82 15.95,15.69 l -1.4,-1.09 c 0,-5.63 -6.42,-11.71 -14.1,-11.71 l 0,0 c -0.39,0 -0.5,0 -0.89,0.05 -0.6,0 -0.65,0.05 -0.65,0.2 0,0.1 0.84,4.63 0.99,5.38 1.55,6.38 5.43,11.16 9.87,11.16 3.43,0 4.78,-2.69 4.78,-5.08 l 1.4,1.09 c 0,3.89 -1.95,6.88 -5.68,6.88 -7.23,0 -10.21,-9.66 -13.2,-19.38 -5.39,1 -8.17,3.79 -8.17,7.37 0,1.4 1.14,6.88 4.13,10.31 0.4,0.45 0.4,0.55 0.4,0.65 0,0.2 -0.1,0.5 -0.6,0.5 -1.39,0 -5.23,-7.22 -5.23,-12.01 0,-4.68 3.29,-8.32 8.62,-9.56 z"
           id="path4185" /></g>    </g>
    <g
       id="g4214"
       transform="translate(88.819571,70.972648)">
      <g
         word-spacing="normal"
         letter-spacing="normal"
         font-size-adjust="none"
         font-stretch="normal"
         font-weight="normal"
         font-variant="normal"
         font-style="normal"
         stroke-miterlimit="10.433"
         xml:space="preserve"
         transform="matrix(0.2544899,0,0,-0.2544899,-44.535733,133.6072)"
         id="content"
         style="font-style:normal;font-variant:normal;font-weight:normal;font-stretch:normal;letter-spacing:normal;word-spacing:normal;text-anchor:start;fill:none;fill-opacity:1;fill-rule:evenodd;stroke:#000000;stroke-linecap:butt;stroke-linejoin:miter;stroke-miterlimit:10.43299961;stroke-dasharray:none;stroke-dashoffset:0;stroke-opacity:1"><path
           id="path4217"
           d="m 460.38,408.94 -0.01,-0.07 -0.02,-0.08 -0.01,-0.07 -0.02,-0.08 -0.03,-0.16 -0.04,-0.16 -0.04,-0.16 -0.03,-0.16 -0.04,-0.16 -0.04,-0.16 -0.01,-0.08 -0.02,-0.07 -0.02,-0.07 -0.01,-0.07 -0.02,-0.07 -0.01,-0.07 -0.01,-0.06 -0.02,-0.06 -0.01,-0.05 -0.01,-0.06 -0.01,-0.05 0,-0.04 -0.01,-0.04 0,-0.04 -0.01,-0.03 0,-0.02 c 0,-0.9 0.7,-1.35 1.45,-1.35 0.6,0 1.5,0.4 1.84,1.4 0.1,0.2 1.8,6.97 1.99,7.87 0.4,1.64 1.3,5.13 1.6,6.47 0.2,0.65 1.59,2.99 2.79,4.09 0.4,0.34 1.84,1.64 3.99,1.64 1.29,0 2.03,-0.6 2.09,-0.6 -1.5,-0.25 -2.59,-1.44 -2.59,-2.73 0,-0.8 0.54,-1.75 1.89,-1.75 1.34,0 2.74,1.14 2.74,2.94 0,1.74 -1.6,3.24 -4.13,3.24 -3.24,0 -5.43,-2.44 -6.38,-3.84 -0.4,2.24 -2.19,3.84 -4.53,3.84 -2.3,0 -3.24,-1.95 -3.69,-2.84 -0.9,-1.7 -1.54,-4.68 -1.54,-4.83 0,-0.5 0.49,-0.5 0.59,-0.5 0.5,0 0.55,0.05 0.85,1.14 0.84,3.54 1.84,5.93 3.64,5.93 0.84,0 1.54,-0.4 1.54,-2.29 0,-1.04 -0.15,-1.59 -0.8,-4.18 z"
           inkscape:connector-curvature="0"
           style="fill:#000000;stroke-width:0" /></g>    </g>
    <path
       style="opacity:1;fill:none;stroke:#000000;stroke-width:1;stroke-miterlimit:4;stroke-dasharray:none;stroke-dashoffset:0;marker-start:url(#Arrow1Mstart)"
       id="path4235"
       sodipodi:type="arc"
       sodipodi:cx="129.02028"
       sodipodi:cy="133.11031"
       sodipodi:rx="89.649658"
       sodipodi:ry="89.649658"
       sodipodi:start="5.1965115"
       sodipodi:end="5.5298046"
       sodipodi:open="true"
       d="m 170.74609,53.762855 a 89.649658,89.649658 0 0 1 23.66288,18.017359" />
    <circle
       style="opacity:1;fill:#000000;stroke:#000000;stroke-width:1;stroke-miterlimit:4;stroke-dasharray:none;stroke-dashoffset:0"
       id="path4503"
       cx="192.99423"
       cy="80.342552"
       r="2.6977906" />
    <path
       style="fill:none;fill-rule:evenodd;stroke:#000000;stroke-width:1;stroke-linecap:butt;stroke-linejoin:miter;stroke-opacity:1;stroke-miterlimit:4;stroke-dasharray:1,6;stroke-dashoffset:0"
       d="m 193.20176,80.135028 0,50.635452"
       id="path4505"
       inkscape:connector-curvature="0" />
    <path
       style="fill:none;fill-rule:evenodd;stroke:#000000;stroke-width:1;stroke-linecap:butt;stroke-linejoin:miter;stroke-opacity:1;stroke-miterlimit:4;stroke-dasharray:1,6;stroke-dashoffset:0"
       d="m 192.78672,81.795207 -60.18148,0 0,-0.415044"
       id="path4507"
       inkscape:connector-curvature="0" />
    <g
       id="g4533"
       transform="translate(117.04261,110.81694)">
      <g
         id="g4535"
         transform="matrix(0.2544899,0,0,-0.2544899,-44.535733,133.6072)"
         xml:space="preserve"
         stroke-miterlimit="10.433"
         font-style="normal"
         font-variant="normal"
         font-weight="normal"
         font-stretch="normal"
         font-size-adjust="none"
         letter-spacing="normal"
         word-spacing="normal"
         style="font-style:normal;font-variant:normal;font-weight:normal;font-stretch:normal;letter-spacing:normal;word-spacing:normal;text-anchor:start;fill:none;fill-opacity:1;fill-rule:evenodd;stroke:#000000;stroke-linecap:butt;stroke-linejoin:miter;stroke-miterlimit:10.43299961;stroke-dasharray:none;stroke-dashoffset:0;stroke-opacity:1"><path
           d="m 472.64,421.04 0.03,0.13 0.03,0.15 0.05,0.17 0.04,0.18 0.06,0.19 0.06,0.21 0.06,0.21 0.07,0.23 0.08,0.23 0.09,0.24 0.1,0.25 0.1,0.24 0.11,0.25 0.12,0.25 0.13,0.25 0.14,0.25 0.15,0.24 0.15,0.24 0.17,0.23 0.18,0.22 0.18,0.22 0.2,0.2 0.21,0.19 0.22,0.18 0.23,0.16 0.25,0.14 0.12,0.07 0.13,0.06 0.13,0.05 0.14,0.05 0.14,0.05 0.14,0.04 0.14,0.03 0.15,0.03 0.15,0.02 0.16,0.02 0.16,0.01 0.16,0 c 0.25,0 1.45,0 2.49,-0.65 -1.4,-0.25 -2.39,-1.49 -2.39,-2.68 0,-0.8 0.54,-1.75 1.89,-1.75 1.1,0 2.69,0.9 2.69,2.89 0,2.59 -2.94,3.29 -4.63,3.29 -2.89,0 -4.64,-2.64 -5.23,-3.79 -1.25,3.29 -3.94,3.79 -5.38,3.79 -5.18,0 -8.02,-6.43 -8.02,-7.67 0,-0.5 0.5,-0.5 0.6,-0.5 0.39,0 0.54,0.1 0.64,0.54 1.7,5.29 4.98,6.53 6.68,6.53 0.95,0 2.69,-0.45 2.69,-3.33 0,-1.55 -0.85,-4.89 -2.69,-11.86 -0.8,-3.09 -2.54,-5.18 -4.73,-5.18 -0.3,0 -1.45,0 -2.49,0.65 1.24,0.25 2.34,1.29 2.34,2.69 0,1.34 -1.1,1.74 -1.85,1.74 -1.49,0 -2.73,-1.3 -2.73,-2.89 0,-2.29 2.48,-3.29 4.68,-3.29 3.28,0 5.08,3.49 5.23,3.79 0.6,-1.85 2.39,-3.79 5.38,-3.79 5.13,0 7.97,6.43 7.97,7.67 0,0.5 -0.45,0.5 -0.6,0.5 -0.45,0 -0.55,-0.2 -0.65,-0.55 -1.64,-5.33 -5.03,-6.52 -6.62,-6.52 -1.95,0 -2.74,1.59 -2.74,3.29 0,1.09 0.29,2.19 0.85,4.38 z"
           id="path4537"
           inkscape:connector-curvature="0"
           style="fill:#000000;stroke-width:0" /></g>    </g>
    <g
       id="g4591"
       transform="translate(51.880591,52.71068)">
      <g
         word-spacing="normal"
         letter-spacing="normal"
         font-size-adjust="none"
         font-stretch="normal"
         font-weight="normal"
         font-variant="normal"
         font-style="normal"
         stroke-miterlimit="10.433"
         xml:space="preserve"
         transform="matrix(0.2544899,0,0,-0.2544899,-44.535733,133.6072)"
         id="g4593"
         style="font-style:normal;font-variant:normal;font-weight:normal;font-stretch:normal;letter-spacing:normal;word-spacing:normal;text-anchor:start;fill:none;fill-opacity:1;fill-rule:evenodd;stroke:#000000;stroke-linecap:butt;stroke-linejoin:miter;stroke-miterlimit:10.43299961;stroke-dasharray:none;stroke-dashoffset:0;stroke-opacity:1"><path
           id="path4595"
           d="m 480.21,424.98 0.01,0.03 0.01,0.03 0.01,0.03 0.01,0.03 0.01,0.06 0.02,0.05 0.01,0.06 0.01,0.04 0.02,0.05 0.01,0.04 0.01,0.04 0.01,0.04 0,0.04 0.01,0.04 0.01,0.03 0,0.03 0.01,0.03 0.01,0.03 0,0.03 0,0.03 0.01,0.03 0,0.02 0,0.06 0.01,0.05 0,0.05 0,0.05 0,0.03 0,0.03 0,0.03 0,0.03 c 0,0.9 -0.7,1.35 -1.45,1.35 -0.5,0 -1.29,-0.3 -1.74,-1.05 -0.1,-0.24 -0.5,-1.79 -0.7,-2.69 -0.34,-1.29 -0.7,-2.64 -0.99,-3.98 l -2.24,-8.97 c -0.2,-0.74 -2.34,-4.23 -5.63,-4.23 -2.54,0 -3.09,2.19 -3.09,4.03 0,2.3 0.84,5.38 2.54,9.77 0.8,2.04 1,2.59 1,3.58 0,2.25 -1.6,4.09 -4.09,4.09 -4.73,0 -6.57,-7.23 -6.57,-7.67 0,-0.5 0.49,-0.5 0.59,-0.5 0.5,0 0.55,0.1 0.8,0.9 1.34,4.68 3.34,6.17 5.03,6.17 0.4,0 1.25,0 1.25,-1.59 0,-1.25 -0.5,-2.54 -0.85,-3.49 -1.99,-5.28 -2.89,-8.12 -2.89,-10.46 0,-4.43 3.14,-5.93 6.08,-5.93 1.94,0 3.63,0.85 5.03,2.25 -0.65,-2.6 -1.25,-5.04 -3.24,-7.68 -1.29,-1.69 -3.19,-3.14 -5.48,-3.14 -0.7,0 -2.94,0.16 -3.79,2.1 0.8,0 1.45,0 2.15,0.59 0.49,0.45 0.99,1.1 0.99,2.05 0,1.54 -1.34,1.74 -1.84,1.74 -1.15,0 -2.79,-0.8 -2.79,-3.24 0,-2.49 2.19,-4.33 5.28,-4.33 5.13,0 10.26,4.53 11.66,10.16 z"
           inkscape:connector-curvature="0"
           style="fill:#000000;stroke-width:0" /></g>    </g>
  </g>
</svg>
