<?xml version="1.0" encoding="UTF-8" standalone="no"?>
<!-- Created with Inkscape (http://www.inkscape.org/) -->

<svg
   xmlns:ns0="http://www.iki.fi/pav/software/textext/"
   xmlns:dc="http://purl.org/dc/elements/1.1/"
   xmlns:cc="http://creativecommons.org/ns#"
   xmlns:rdf="http://www.w3.org/1999/02/22-rdf-syntax-ns#"
   xmlns:svg="http://www.w3.org/2000/svg"
   xmlns="http://www.w3.org/2000/svg"
   xmlns:sodipodi="http://sodipodi.sourceforge.net/DTD/sodipodi-0.dtd"
   xmlns:inkscape="http://www.inkscape.org/namespaces/inkscape"
   width="473.78238"
   height="171.10484"
   id="svg3931"
   version="1.1"
   inkscape:version="0.91 r13725"
   sodipodi:docname="camp.svg"
   inkscape:export-filename="/home/joseluis/jtouron@virolai.com/Materies_i_projectes/Fisica_2/U4_Camp_electric/img/camp.png"
   inkscape:export-xdpi="300"
   inkscape:export-ydpi="300">
  <sodipodi:namedview
     id="base"
     pagecolor="#ffffff"
     bordercolor="#666666"
     borderopacity="1.0"
     inkscape:pageopacity="0.0"
     inkscape:pageshadow="2"
     inkscape:zoom="1.3474741"
     inkscape:cx="69.694284"
     inkscape:cy="72.372088"
     inkscape:document-units="px"
     inkscape:current-layer="layer1"
     showgrid="false"
     fit-margin-top="10"
     fit-margin-left="10"
     fit-margin-right="10"
     fit-margin-bottom="10"
     inkscape:window-width="1319"
     inkscape:window-height="744"
     inkscape:window-x="47"
     inkscape:window-y="24"
     inkscape:window-maximized="1" />
  <defs
     id="defs3933">
    <marker
       style="overflow:visible"
       id="Arrow1Mend"
       refX="0"
       refY="0"
       orient="auto"
       inkscape:stockid="Arrow1Mend">
      <path
         transform="matrix(-0.4,0,0,-0.4,-4,0)"
         style="fill-rule:evenodd;stroke:#000000;stroke-width:1pt;marker-start:none"
         d="M 0,0 5,-5 -12.5,0 5,5 0,0 Z"
         id="path6357"
         inkscape:connector-curvature="0" />
    </marker>
    <marker
       style="overflow:visible"
       id="Arrow1Lend"
       refX="0"
       refY="0"
       orient="auto"
       inkscape:stockid="Arrow1Lend">
      <path
         transform="matrix(-0.8,0,0,-0.8,-10,0)"
         style="fill-rule:evenodd;stroke:#000000;stroke-width:1pt;marker-start:none"
         d="M 0,0 5,-5 -12.5,0 5,5 0,0 Z"
         id="path6351"
         inkscape:connector-curvature="0" />
    </marker>
    <marker
       style="overflow:visible"
       id="marker3875"
       refX="0"
       refY="0"
       orient="auto"
       inkscape:stockid="Arrow1Lend">
      <path
         transform="matrix(-0.8,0,0,-0.8,-10,0)"
         style="fill-rule:evenodd;stroke:#000000;stroke-width:1pt;marker-start:none"
         d="M 0,0 5,-5 -12.5,0 5,5 0,0 Z"
         id="path3877"
         inkscape:connector-curvature="0" />
    </marker>
    <marker
       style="overflow:visible"
       id="marker3879"
       refX="0"
       refY="0"
       orient="auto"
       inkscape:stockid="Arrow1Mend">
      <path
         transform="matrix(-0.4,0,0,-0.4,-4,0)"
         style="fill-rule:evenodd;stroke:#000000;stroke-width:1pt;marker-start:none"
         d="M 0,0 5,-5 -12.5,0 5,5 0,0 Z"
         id="path3881"
         inkscape:connector-curvature="0" />
    </marker>
    <marker
       style="overflow:visible"
       id="marker3883"
       refX="0"
       refY="0"
       orient="auto"
       inkscape:stockid="Arrow1Lend">
      <path
         transform="matrix(-0.8,0,0,-0.8,-10,0)"
         style="fill-rule:evenodd;stroke:#000000;stroke-width:1pt;marker-start:none"
         d="M 0,0 5,-5 -12.5,0 5,5 0,0 Z"
         id="path3885"
         inkscape:connector-curvature="0" />
    </marker>
    <marker
       style="overflow:visible"
       id="marker3887"
       refX="0"
       refY="0"
       orient="auto"
       inkscape:stockid="Arrow1Lend">
      <path
         transform="matrix(-0.8,0,0,-0.8,-10,0)"
         style="fill-rule:evenodd;stroke:#000000;stroke-width:1pt;marker-start:none"
         d="M 0,0 5,-5 -12.5,0 5,5 0,0 Z"
         id="path3889"
         inkscape:connector-curvature="0" />
    </marker>
  </defs>
  <metadata
     id="metadata3936">
    <rdf:RDF>
      <cc:Work
         rdf:about="">
        <dc:format>image/svg+xml</dc:format>
        <dc:type
           rdf:resource="http://purl.org/dc/dcmitype/StillImage" />
        <dc:title />
      </cc:Work>
    </rdf:RDF>
  </metadata>
  <g
     transform="translate(-113.82836,-279.34371)"
     id="layer1"
     inkscape:groupmode="layer"
     inkscape:label="Capa 1">
    <path
       transform="translate(-94.983988,1.6915045)"
       sodipodi:open="true"
       sodipodi:end="1.9332676"
       sodipodi:start="1.984082"
       d="m 243.74606,436.35966 a 31.186441,28.474577 0 0 1 -16.19242,-37.18098 31.186441,28.474577 0 0 1 40.51304,-15.25551 31.186441,28.474577 0 0 1 17.22172,36.79339 31.186441,28.474577 0 0 1 -40.0755,16.19031"
       sodipodi:ry="28.474577"
       sodipodi:rx="31.186441"
       sodipodi:cy="410.28247"
       sodipodi:cx="256.27118"
       id="path6339"
       style="display:inline;opacity:0.98000004;fill:#666666;fill-opacity:1;stroke:none"
       sodipodi:type="arc" />
    <path
       inkscape:connector-curvature="0"
       id="path6343"
       d="M 159.76803,409.38762 440.89797,330.74356"
       style="display:inline;fill:none;stroke:#000000;stroke-width:1px;stroke-linecap:butt;stroke-linejoin:miter;stroke-opacity:1;marker-end:url(#Arrow1Lend)" />
    <path
       style="display:inline;fill:none;stroke:#000000;stroke-width:1;stroke-linecap:butt;stroke-linejoin:miter;stroke-miterlimit:4;stroke-dasharray:none;stroke-opacity:1;marker-end:url(#Arrow1Lend)"
       d="m 443.35922,332.38784 48.43631,-13.5497"
       id="path7057"
       inkscape:connector-curvature="0" />
    <path
       sodipodi:type="arc"
       style="display:inline;opacity:0.98000004;fill:#666666;fill-opacity:1;stroke:none"
       id="path18400"
       sodipodi:cx="256.27118"
       sodipodi:cy="410.28247"
       sodipodi:rx="31.186441"
       sodipodi:ry="28.474577"
       d="m 243.74606,436.35966 a 31.186441,28.474577 0 0 1 -16.19242,-37.18098 31.186441,28.474577 0 0 1 40.51304,-15.25551 31.186441,28.474577 0 0 1 17.22172,36.79339 31.186441,28.474577 0 0 1 -40.0755,16.19031"
       sodipodi:start="1.984082"
       sodipodi:end="1.9332676"
       sodipodi:open="true"
       transform="translate(-94.983988,1.6915045)" />
    <path
       style="display:inline;fill:none;stroke:#000000;stroke-width:1px;stroke-linecap:butt;stroke-linejoin:miter;stroke-opacity:1;marker-end:url(#Arrow1Lend)"
       d="M 159.76803,409.38762 440.89797,330.74356"
       id="path18404"
       inkscape:connector-curvature="0" />
    <path
       inkscape:connector-curvature="0"
       id="path18406"
       d="m 443.35922,332.38784 48.43631,-13.5497"
       style="display:inline;fill:none;stroke:#000000;stroke-width:1;stroke-linecap:butt;stroke-linejoin:miter;stroke-miterlimit:4;stroke-dasharray:none;stroke-opacity:1;marker-end:url(#Arrow1Lend)" />
    <g
       style="font-style:normal;font-variant:normal;font-weight:normal;font-stretch:normal;letter-spacing:normal;word-spacing:normal;text-anchor:start;display:inline;fill:#000000;stroke:#000000;stroke-linecap:butt;stroke-linejoin:miter;stroke-miterlimit:10.43299961;stroke-dasharray:none;stroke-dashoffset:0;stroke-opacity:1"
       id="g18408"
       transform="matrix(3.6328781,0,0,-3.6328781,-523.83342,2935.1701)"
       xml:space="preserve"
       stroke-miterlimit="10.433"
       font-style="normal"
       font-variant="normal"
       font-weight="normal"
       font-stretch="normal"
       font-size-adjust="none"
       letter-spacing="normal"
       word-spacing="normal"
       ns0:text="$\\vec{r}$"
       ns0:preamble=""><path
         style="fill:#000000;stroke-width:0"
         inkscape:connector-curvature="0"
         d="m 228.47,713.05 -0.02,-0.02 -0.01,-0.01 -0.02,-0.01 -0.01,-0.02 -0.02,-0.01 -0.02,-0.02 -0.02,-0.02 -0.02,-0.01 -0.01,-0.02 -0.02,-0.02 -0.04,-0.04 -0.04,-0.04 -0.04,-0.04 -0.02,-0.02 -0.02,-0.02 -0.01,-0.02 -0.02,-0.02 -0.02,-0.02 -0.01,-0.02 -0.02,-0.02 -0.01,-0.02 -0.01,-0.02 -0.01,-0.02 -0.01,-0.02 -0.01,-0.02 0,-0.02 -0.01,-0.02 0,-0.01 0,-0.02 c 0,-0.1 0.1,-0.2 0.2,-0.2 0.09,0 0.14,0.07 0.19,0.13 0.12,0.15 0.35,0.43 0.79,0.65 0.06,0.04 0.16,0.09 0.16,0.21 0,0.09 -0.07,0.15 -0.13,0.2 -0.22,0.14 -0.33,0.32 -0.41,0.56 -0.02,0.09 -0.06,0.22 -0.2,0.22 -0.14,0 -0.2,-0.13 -0.2,-0.21 0,-0.05 0.08,-0.37 0.24,-0.57 l -3.36,0 c -0.17,0 -0.35,0 -0.35,-0.2 0,-0.2 0.18,-0.2 0.35,-0.2 z"
         id="path18410" /><path
         style="fill:#000000;stroke-width:0"
         inkscape:connector-curvature="0"
         d="m 224.31,707.71 0,-0.01 -0.01,-0.02 0,-0.01 0,-0.02 -0.01,-0.03 -0.01,-0.03 0,-0.03 -0.01,-0.04 -0.01,-0.03 -0.01,-0.03 0,-0.01 0,-0.02 -0.01,-0.01 0,-0.02 0,-0.01 -0.01,-0.01 0,-0.02 0,-0.01 0,-0.01 0,-0.01 -0.01,-0.01 0,-0.01 0,-0.01 0,0 0,-0.01 0,-0.01 c 0,-0.18 0.14,-0.26 0.29,-0.26 0.12,0 0.3,0.07 0.37,0.27 0.02,0.04 0.36,1.4 0.4,1.58 0.08,0.33 0.26,1.02 0.32,1.29 0.04,0.13 0.31,0.6 0.55,0.82 0.08,0.07 0.37,0.32 0.8,0.32 0.26,0 0.41,-0.11 0.42,-0.11 -0.3,-0.05 -0.52,-0.29 -0.52,-0.55 0,-0.16 0.11,-0.35 0.38,-0.35 0.27,0 0.55,0.23 0.55,0.59 0,0.34 -0.32,0.64 -0.83,0.64 -0.65,0 -1.08,-0.48 -1.27,-0.76 -0.08,0.45 -0.44,0.76 -0.91,0.76 -0.46,0 -0.65,-0.38 -0.74,-0.56 -0.18,-0.34 -0.31,-0.94 -0.31,-0.97 0,-0.1 0.1,-0.1 0.12,-0.1 0.1,0 0.11,0.01 0.17,0.23 0.17,0.71 0.37,1.18 0.73,1.18 0.17,0 0.31,-0.08 0.31,-0.45 0,-0.21 -0.03,-0.32 -0.16,-0.84 z"
         id="path18412" /></g>    <g
       style="font-style:normal;font-variant:normal;font-weight:normal;font-stretch:normal;letter-spacing:normal;word-spacing:normal;text-anchor:start;display:inline;fill:#000000;fill-opacity:1;fill-rule:evenodd;stroke:#000000;stroke-linecap:butt;stroke-linejoin:miter;stroke-miterlimit:10.43299961;stroke-dasharray:none;stroke-dashoffset:0;stroke-opacity:1"
       ns0:preamble=""
       ns0:text="$\\hat{r}$"
       word-spacing="normal"
       letter-spacing="normal"
       font-size-adjust="none"
       font-stretch="normal"
       font-weight="normal"
       font-variant="normal"
       font-style="normal"
       stroke-miterlimit="10.433"
       xml:space="preserve"
       transform="matrix(3.6328781,0,0,-3.6328781,-336.20352,2927.3745)"
       id="g18414"><polygon
         id="polygon18416"
         points="226.37,714.03 225.04,712.68 225.22,712.5 226.37,713.52 227.52,712.5 227.7,712.68 "
         style="fill:#000000;stroke-width:0" /><path
         inkscape:connector-curvature="0"
         id="path18418"
         d="m 224.31,707.71 0,-0.01 -0.01,-0.02 0,-0.01 0,-0.02 -0.01,-0.03 -0.01,-0.03 0,-0.03 -0.01,-0.04 -0.01,-0.03 -0.01,-0.03 0,-0.01 0,-0.02 -0.01,-0.01 0,-0.02 0,-0.01 -0.01,-0.01 0,-0.02 0,-0.01 0,-0.01 0,-0.01 -0.01,-0.01 0,-0.01 0,-0.01 0,0 0,-0.01 0,-0.01 c 0,-0.18 0.14,-0.26 0.29,-0.26 0.12,0 0.3,0.07 0.37,0.27 0.02,0.04 0.36,1.4 0.4,1.58 0.08,0.33 0.26,1.02 0.32,1.29 0.03,0.13 0.31,0.6 0.55,0.82 0.08,0.07 0.37,0.32 0.8,0.32 0.26,0 0.41,-0.11 0.42,-0.11 -0.3,-0.05 -0.52,-0.29 -0.52,-0.55 0,-0.16 0.11,-0.35 0.38,-0.35 0.27,0 0.55,0.23 0.55,0.59 0,0.34 -0.32,0.64 -0.83,0.64 -0.65,0 -1.09,-0.48 -1.27,-0.76 -0.08,0.45 -0.44,0.76 -0.91,0.76 -0.46,0 -0.65,-0.38 -0.74,-0.56 -0.18,-0.34 -0.31,-0.94 -0.31,-0.97 0,-0.1 0.1,-0.1 0.12,-0.1 0.1,0 0.11,0.01 0.17,0.23 0.17,0.71 0.37,1.18 0.73,1.18 0.17,0 0.31,-0.08 0.31,-0.45 0,-0.21 -0.03,-0.32 -0.16,-0.84 z"
         style="fill:#000000;stroke-width:0" /></g>    <path
       inkscape:connector-curvature="0"
       id="path18420"
       d="M 440.48723,327.85431 572.09255,291.03867"
       style="display:inline;fill:#000000;stroke:#000000;stroke-width:3;stroke-linecap:butt;stroke-linejoin:miter;stroke-miterlimit:4;stroke-dasharray:none;stroke-opacity:1;marker-end:url(#Arrow1Mend)" />
    <text
       sodipodi:linespacing="125%"
       id="text3382"
       y="328.37451"
       x="122.66803"
       style="font-style:normal;font-weight:normal;font-size:30px;line-height:125%;font-family:sans-serif;letter-spacing:0px;word-spacing:0px;fill:#000000;fill-opacity:1;stroke:none;stroke-width:1px;stroke-linecap:butt;stroke-linejoin:miter;stroke-opacity:1"
       xml:space="preserve"><tspan
         id="tspan3386"
         y="328.37451"
         x="122.66803"
         sodipodi:role="line" /></text>
    <g
       id="g3446"
       transform="matrix(3.0528407,0,0,3.0528407,-54.82688,-354.81961)">
      <g
         word-spacing="normal"
         letter-spacing="normal"
         font-size-adjust="none"
         font-stretch="normal"
         font-weight="normal"
         font-variant="normal"
         font-style="normal"
         stroke-miterlimit="10.433"
         xml:space="preserve"
         transform="matrix(0.20679524,0,0,-0.20679524,-36.189168,320.59987)"
         id="content"
         style="font-style:normal;font-variant:normal;font-weight:normal;font-stretch:normal;letter-spacing:normal;word-spacing:normal;text-anchor:start;fill:none;fill-opacity:1;fill-rule:evenodd;stroke:#000000;stroke-linecap:butt;stroke-linejoin:miter;stroke-miterlimit:10.43299961;stroke-dasharray:none;stroke-dashoffset:0;stroke-opacity:1"><path
           id="path3449"
           d="m 478.52,427.47 0,0.02 -0.01,0.02 0,0.02 0,0.02 -0.01,0.02 0,0.02 -0.01,0.02 0,0.02 -0.01,0.02 -0.01,0.02 -0.01,0.02 -0.01,0.02 -0.01,0.03 -0.01,0.02 -0.02,0.01 -0.01,0.02 -0.02,0.02 -0.01,0.02 -0.02,0.02 -0.02,0.01 -0.02,0.02 -0.02,0.01 -0.02,0.02 -0.03,0.01 -0.02,0.01 -0.03,0.01 -0.02,0.01 -0.03,0.01 -0.03,0 -0.03,0.01 -0.03,0 -0.02,0 -0.01,0 c -0.55,0 -2.54,-1.99 -3.39,-3.44 -1.09,2.69 -3.04,3.49 -4.63,3.49 l 0,-1.1 c 3.23,0 3.93,-4.03 3.93,-4.38 0,-0.3 -2.74,-11.21 -2.89,-11.41 -0.74,-1.4 -3.53,-4.58 -6.32,-4.58 l 0,0 c -2.99,0 -3.19,3.83 -3.19,4.68 0,2.39 1.44,7.82 2.29,9.91 1.54,3.69 4.14,5.78 6.18,5.78 l 0,1.1 c -5.88,0 -12.01,-7.38 -12.01,-14.6 0,-4.88 2.94,-7.97 6.58,-7.97 2.14,0 4.08,1.2 5.88,2.99 -0.45,-1.74 -2.09,-8.47 -2.25,-8.92 -0.4,-1.39 -0.79,-1.59 -3.58,-1.64 -0.65,0 -1.15,0 -1.15,-1 0,-0.04 0,-0.54 0.65,-0.54 l 10.11,0 c 0.25,0 0.9,0 0.9,0.99 0,0.55 -0.5,0.55 -1.3,0.55 -2.39,0 -2.39,0.35 -2.39,0.8 0,0.35 0.1,0.64 0.2,1.09 z"
           inkscape:connector-curvature="0"
           style="fill:#000000;stroke-width:0" /><path
           id="path3451"
           d="m 489.68,421.18 0,0.04 0,0.04 0,0.04 0,0.04 0,0.04 0,0.04 0,0.03 0,0.04 -0.01,0.03 0,0.03 0,0.04 0,0.03 -0.01,0.02 0,0.03 0,0.03 -0.01,0.03 0,0.02 0,0.02 -0.02,0.05 -0.01,0.04 -0.01,0.04 -0.02,0.03 -0.02,0.03 -0.02,0.03 -0.03,0.03 -0.02,0.02 -0.03,0.02 -0.04,0.02 -0.03,0.01 -0.04,0.01 -0.05,0.02 -0.05,0 -0.02,0.01 -0.03,0 -0.03,0.01 -0.02,0 -0.03,0 -0.03,0 -0.04,0 -0.03,0.01 -0.03,0 -0.04,0 -0.03,0 -0.04,0 -0.04,0 -0.04,0 -0.04,0 -0.04,0 -0.05,0 -0.04,0 c -2.24,-2.19 -5.41,-2.23 -6.84,-2.23 l 0,-1.25 c 0.84,0 3.14,0 5.06,0.97 l 0,-17.78 c 0,-1.15 0,-1.61 -3.49,-1.61 l -1.33,0 0,-1.25 12.45,0 0,1.25 -1.32,0 c -3.49,0 -3.49,0.46 -3.49,1.61 z"
           inkscape:connector-curvature="0"
           style="fill:#000000;stroke-width:0" /></g>    </g>
    <g
       id="g3672"
       transform="matrix(2.588598,0,0,2.588598,399.8404,-277.96635)">
      <g
         word-spacing="normal"
         letter-spacing="normal"
         font-size-adjust="none"
         font-stretch="normal"
         font-weight="normal"
         font-variant="normal"
         font-style="normal"
         stroke-miterlimit="10.433"
         xml:space="preserve"
         transform="matrix(0.20679524,0,0,-0.20679524,-36.189168,320.59987)"
         id="g3674"
         style="font-style:normal;font-variant:normal;font-weight:normal;font-stretch:normal;letter-spacing:normal;word-spacing:normal;text-anchor:start;fill:none;fill-opacity:1;fill-rule:evenodd;stroke:#000000;stroke-linecap:butt;stroke-linejoin:miter;stroke-miterlimit:10.43299961;stroke-dasharray:none;stroke-dashoffset:0;stroke-opacity:1"><path
           id="path3676"
           d="m 489.75,448.64 -0.07,-0.06 -0.07,-0.07 -0.08,-0.07 -0.08,-0.07 -0.09,-0.08 -0.09,-0.08 -0.09,-0.09 -0.09,-0.09 -0.1,-0.09 -0.09,-0.09 -0.2,-0.19 -0.19,-0.19 -0.19,-0.21 -0.09,-0.1 -0.09,-0.1 -0.09,-0.1 -0.08,-0.11 -0.08,-0.1 -0.08,-0.1 -0.07,-0.1 -0.06,-0.1 -0.06,-0.1 -0.05,-0.1 -0.05,-0.1 -0.04,-0.09 -0.03,-0.1 -0.02,-0.09 -0.02,-0.09 0,-0.08 c 0,-0.5 0.5,-1 1,-1 0.44,0 0.69,0.35 0.94,0.65 0.6,0.75 1.74,2.14 3.94,3.24 0.35,0.2 0.84,0.45 0.84,1.05 0,0.49 -0.34,0.74 -0.69,0.99 -1.1,0.75 -1.65,1.64 -2.05,2.84 -0.1,0.45 -0.3,1.1 -0.99,1.1 -0.7,0 -1,-0.65 -1,-1.05 0,-0.25 0.4,-1.84 1.2,-2.89 l -16.79,0 c -0.85,0 -1.74,0 -1.74,-0.99 0,-1 0.89,-1 1.74,-1 z"
           inkscape:connector-curvature="0"
           style="fill:#000000;stroke-width:0" /><path
           id="path3678"
           d="m 491.27,417.61 0.01,0.02 0.01,0.02 0.02,0.05 0.02,0.05 0.02,0.06 0.02,0.05 0.02,0.05 0.02,0.05 0.02,0.05 0.01,0.02 0.01,0.03 0.01,0.02 0,0.02 0.01,0.03 0.01,0.02 0.01,0.02 0,0.02 0.01,0.02 0,0.01 0.01,0.02 0,0.02 0,0.01 0,0.01 0.01,0.01 0,0.01 c 0,0.06 0,0.55 -0.6,0.55 -0.45,0 -0.55,-0.3 -0.65,-0.6 -3.23,-7.37 -5.08,-10.71 -13.6,-10.71 l -7.27,0 c -0.7,0 -0.8,0 -1.1,0.05 -0.5,0.05 -0.64,0.11 -0.64,0.5 0,0.15 0,0.25 0.25,1.15 l 3.38,13.6 4.93,0 c 4.24,0 4.24,-1.05 4.24,-2.29 0,-0.35 0,-0.95 -0.35,-2.44 -0.1,-0.25 -0.15,-0.4 -0.15,-0.56 0,-0.24 0.2,-0.54 0.65,-0.54 0.4,0 0.55,0.25 0.75,0.99 l 2.84,11.66 c 0,0.3 -0.25,0.55 -0.6,0.55 -0.45,0 -0.55,-0.3 -0.7,-0.9 -1.05,-3.78 -1.94,-4.93 -6.52,-4.93 l -4.69,0 2.99,12.01 c 0.45,1.74 0.5,1.94 2.69,1.94 l 7.02,0 c 6.08,0 7.57,-1.45 7.57,-5.53 0,-1.19 0,-1.3 -0.19,-2.64 0,-0.3 -0.06,-0.65 -0.06,-0.9 0,-0.25 0.16,-0.6 0.6,-0.6 0.55,0 0.6,0.3 0.7,1.25 l 1,8.62 c 0.15,1.34 -0.1,1.34 -1.35,1.34 l -25.15,0 c -1,0 -1.5,0 -1.5,-0.99 0,-0.55 0.45,-0.55 1.4,-0.55 1.84,0 3.23,0 3.23,-0.9 0,-0.2 0,-0.3 -0.25,-1.19 l -6.57,-26.35 c -0.5,-1.95 -0.6,-2.35 -4.53,-2.35 -0.85,0 -1.4,0 -1.4,-0.94 0,-0.6 0.45,-0.6 1.4,-0.6 l 25.85,0 c 1.15,0 1.2,0.05 1.54,0.85 z"
           inkscape:connector-curvature="0"
           style="fill:#000000;stroke-width:0" /></g>    </g>
    <text
       xml:space="preserve"
       style="font-style:normal;font-weight:normal;font-size:30px;line-height:125%;font-family:sans-serif;letter-spacing:0px;word-spacing:0px;fill:#000000;fill-opacity:1;stroke:none;stroke-width:1px;stroke-linecap:butt;stroke-linejoin:miter;stroke-opacity:1"
       x="428.05426"
       y="321.32431"
       id="text3718"
       sodipodi:linespacing="125%"><tspan
         sodipodi:role="line"
         id="tspan3720"
         x="428.05426"
         y="321.32431">P</tspan></text>
  </g>
</svg>
